<?xml version="1.0" encoding="UTF-8" standalone="no"?>
<!-- Created with Inkscape (http://www.inkscape.org/) -->

<svg
   width="240mm"
   height="120mm"
   viewBox="0 0 240 120"
   version="1.1"
   id="svg8"
   inkscape:version="1.1.1 (c3084ef, 2021-09-22)"
   sodipodi:docname="bipartite-graph-generalization.svg"
   xmlns:inkscape="http://www.inkscape.org/namespaces/inkscape"
   xmlns:sodipodi="http://sodipodi.sourceforge.net/DTD/sodipodi-0.dtd"
   xmlns="http://www.w3.org/2000/svg"
   xmlns:svg="http://www.w3.org/2000/svg"
   xmlns:rdf="http://www.w3.org/1999/02/22-rdf-syntax-ns#"
   xmlns:cc="http://creativecommons.org/ns#"
   xmlns:dc="http://purl.org/dc/elements/1.1/">
  <defs
     id="defs2">
    <inkscape:path-effect
       effect="spiro"
       id="path-effect1570"
       is_visible="true"
       lpeversion="1" />
    <inkscape:path-effect
       effect="spiro"
       id="path-effect1012"
       is_visible="true"
       lpeversion="1" />
    <inkscape:path-effect
       effect="spiro"
       id="path-effect1008"
       is_visible="true"
       lpeversion="1" />
    <inkscape:path-effect
       effect="spiro"
       id="path-effect891"
       is_visible="true"
       lpeversion="1" />
  </defs>
  <sodipodi:namedview
     id="base"
     pagecolor="#ffffff"
     bordercolor="#666666"
     borderopacity="1.0"
     inkscape:pageopacity="0.0"
     inkscape:pageshadow="2"
     inkscape:zoom="1.6361623"
     inkscape:cx="228.27809"
     inkscape:cy="95.039471"
     inkscape:document-units="mm"
     inkscape:current-layer="layer1"
     showgrid="false"
     showborder="true"
     width="200mm"
     showguides="true"
     inkscape:guide-bbox="true"
     inkscape:window-width="1280"
     inkscape:window-height="639"
     inkscape:window-x="1680"
     inkscape:window-y="25"
     inkscape:window-maximized="0"
     inkscape:pagecheckerboard="0">
    <inkscape:grid
       type="xygrid"
       id="grid815"
       units="mm"
       spacingx="10"
       spacingy="10"
       empspacing="4"
       dotted="false" />
  </sodipodi:namedview>
  <metadata
     id="metadata5">
    <rdf:RDF>
      <cc:Work
         rdf:about="">
        <dc:format>image/svg+xml</dc:format>
        <dc:type
           rdf:resource="http://purl.org/dc/dcmitype/StillImage" />
        <dc:title />
      </cc:Work>
    </rdf:RDF>
  </metadata>
  <g
     inkscape:label="Layer 1"
     inkscape:groupmode="layer"
     id="layer1"
     transform="translate(0,-177)">
    <path
       style="fill:none;stroke:#000000;stroke-width:0.264583px;stroke-linecap:butt;stroke-linejoin:miter;stroke-opacity:1"
       d="m 45.0809,205.56612 c -1.635258,4.00618 -2.1523,8.43032 -1.733535,12.73708 0.418765,4.30676 1.755033,8.49872 3.68163,12.37322 3.853193,7.74901 9.962352,14.13402 16.352073,19.9706 15.992179,14.60778 35.037589,26.87126 56.414032,30.36191 10.68822,1.74532 21.8187,1.21632 32.1041,-2.17408 10.2854,-3.39041 19.68456,-9.7121 26.19268,-18.36823 5.46717,-7.27161 8.8565,-16.38133 8.03422,-25.44169 -0.63203,-6.96403 -3.72479,-13.59373 -8.2193,-18.95066 -4.49451,-5.35692 -10.34135,-9.48434 -16.65801,-12.48385 -12.63331,-5.99903 -26.84928,-7.52102 -40.73549,-9.18294 -19.13731,-2.29038 -38.57484,-5.00103 -57.578576,-1.78538 -3.076779,0.52063 -6.172556,1.21139 -8.926912,2.67807 -4.084284,2.17486 -7.178215,5.98186 -8.926912,10.26595 z"
       id="path889"
       inkscape:path-effect="#path-effect891"
       inkscape:original-d="m 45.0809,205.56612 c -10.854661,11.11802 -5.358444,30.85376 18.300168,45.0809 27.741963,16.68267 86.252522,43.08254 114.710812,9.8196 5.78154,-6.75765 11.21748,-17.13754 8.03422,-25.44169 -9.33718,-24.35785 -43.72074,-36.43582 -65.6128,-40.61745 -7.99166,-1.5265 -42.386649,-4.03604 -57.578576,-1.78538 -3.073114,0.45527 -6.035386,1.54211 -8.926912,2.67807 -5.640617,2.21596 -5.374311,6.71335 -8.926912,10.26595 z"
       sodipodi:nodetypes="cssssssc" />
    <path
       style="fill:none;stroke:#000000;stroke-width:0.264583px;stroke-linecap:butt;stroke-linejoin:miter;stroke-opacity:1"
       d="m 71.861637,208.69053 c -0.936972,0.51099 -1.649644,1.37056 -2.136001,2.32055 -0.486357,0.94999 -0.76303,1.99242 -0.988419,3.0356 -0.863549,3.99681 -1.017902,8.16916 -0.220186,12.17963 0.797716,4.01047 2.567502,7.85339 5.274207,10.91835 2.706704,3.06497 6.366649,5.32223 10.372215,6.14423 4.005566,0.82199 8.337495,0.15868 11.800844,-2.01513 4.075373,-2.55795 6.701313,-6.98165 8.034223,-11.60498 0.87769,-3.04435 1.25616,-6.27949 0.68056,-9.39512 -0.5756,-3.11562 -2.1678,-6.10496 -4.697672,-8.01236 -2.051939,-1.54706 -4.597664,-2.31394 -7.141531,-2.67807 -4.726756,-0.67658 -9.581011,-0.0616 -14.283057,-0.8927 -1.122794,-0.19846 -2.234381,-0.47908 -3.371008,-0.56926 -1.136627,-0.0902 -2.323161,0.0233 -3.324175,0.56926 z"
       id="path1006"
       inkscape:path-effect="#path-effect1008"
       inkscape:original-d="m 71.861637,208.69053 c -6.831576,5.00211 -3.517183,3.32687 -3.12442,5.35615 2.653242,13.70842 7.374684,32.19018 27.22708,27.22708 4.564423,-1.1411 5.824743,-7.45116 8.034223,-11.60498 4.58749,-8.62448 4.42594,-13.04038 -4.017112,-17.40748 -2.258193,-1.16803 -4.657874,-2.13477 -7.141531,-2.67807 -1.908339,-0.41745 -11.566442,-1.16436 -14.283057,-0.8927 -2.540489,0.25405 0.873281,-5.70606 -6.695183,0 z"
       sodipodi:nodetypes="cssssssc" />
    <path
       style="fill:none;stroke:#000000;stroke-width:0.264583px;stroke-linecap:butt;stroke-linejoin:miter;stroke-opacity:1"
       d="m 123.42163,231.93067 c -0.714,0.67737 -1.33457,1.45308 -1.83868,2.29836 -1.07023,1.79455 -1.60094,3.89013 -1.62416,5.97945 -0.0232,2.08932 0.45105,4.17099 1.27536,6.09097 1.64862,3.83995 4.63708,6.96552 7.93337,9.53411 3.77871,2.94451 8.05618,5.27646 12.64095,6.66522 4.0141,1.2159 8.21917,1.70067 12.41111,1.83868 2.59575,0.0855 5.23662,0.0341 7.72242,-0.7183 1.2429,-0.37618 2.43842,-0.92821 3.49011,-1.68996 1.05169,-0.76174 1.95736,-1.73707 2.5776,-2.87795 0.77086,-1.41794 1.08229,-3.05621 1.06171,-4.67001 -0.0206,-1.61381 -0.36145,-3.20939 -0.83188,-4.75324 -1.44572,-4.74452 -4.13626,-9.08263 -7.62454,-12.6086 -3.48829,-3.52596 -7.76126,-6.24641 -12.37114,-8.07659 -2.95579,-1.17349 -6.06906,-1.99023 -9.24132,-2.21497 -3.17226,-0.22475 -6.40719,0.15379 -9.37535,1.29563 -2.29587,0.88322 -4.41678,2.21861 -6.20556,3.9072 z"
       id="path1568"
       inkscape:path-effect="#path-effect1570"
       inkscape:original-d="m 123.42163,231.93067 c -0.61289,0.76612 -1.45551,1.39516 -1.83868,2.29836 -3.84237,9.057 -0.11873,15.69867 7.58457,21.60453 3.78034,2.89826 8.13023,5.13406 12.64095,6.66522 3.96024,1.34431 8.22986,1.74972 12.41111,1.83868 5.83696,0.1242 10.30116,-0.54121 13.79013,-5.28621 1.75932,-2.39269 1.25677,-7.10314 0.22983,-9.42325 -3.38486,-7.64728 -12.03304,-17.55235 -19.99568,-20.68519 -4.94056,-1.94383 -13.36432,-2.04485 -18.61667,-0.91934 -2.136,0.45771 -4.33809,2.74003 -6.20556,3.9072 z" />
    <text
       xml:space="preserve"
       style="font-size:5.64444px;line-height:1.25;font-family:sans-serif;letter-spacing:0px;stroke-width:0.264583"
       x="80.346611"
       y="225.95175"
       id="text1861"><tspan
         sodipodi:role="line"
         id="tspan1859"
         style="stroke-width:0.264583"
         x="80.346611"
         y="225.95175">\(c_1\)</tspan></text>
    <text
       xml:space="preserve"
       style="font-size:5.64444px;line-height:1.25;font-family:sans-serif;letter-spacing:0px;stroke-width:0.264583"
       x="136.7068"
       y="247.84325"
       id="text1861-8"><tspan
         sodipodi:role="line"
         id="tspan1859-9"
         style="stroke-width:0.264583"
         x="136.7068"
         y="247.84325">\(c_2\)</tspan></text>
    <text
       xml:space="preserve"
       style="font-size:5.64444px;line-height:1.25;font-family:sans-serif;letter-spacing:0px;stroke-width:0.264583"
       x="188.7249"
       y="207.1346"
       id="text2736"><tspan
         sodipodi:role="line"
         id="tspan2734"
         style="stroke-width:0.264583"
         x="188.7249"
         y="207.1346">\(p_{12}=0\)</tspan></text>
    <text
       xml:space="preserve"
       style="font-size:5.64444px;line-height:1.25;font-family:sans-serif;letter-spacing:0px;stroke-width:0.264583"
       x="188.76131"
       y="215.03793"
       id="text4048"><tspan
         sodipodi:role="line"
         id="tspan4046"
         style="stroke-width:0.264583"
         x="188.76131"
         y="215.03793">\(p_{12}, p_{22}&gt;0\)</tspan></text>
  </g>
</svg>
