<?xml version="1.0" encoding="UTF-8" standalone="no"?>
<!-- Created with Inkscape (http://www.inkscape.org/) -->

<svg
   width="240mm"
   height="120mm"
   viewBox="0 0 240 120"
   version="1.1"
   id="svg8"
   inkscape:version="1.1.1 (c3084ef, 2021-09-22)"
   sodipodi:docname="monte-carlo-estimator-1.svg"
   xmlns:inkscape="http://www.inkscape.org/namespaces/inkscape"
   xmlns:sodipodi="http://sodipodi.sourceforge.net/DTD/sodipodi-0.dtd"
   xmlns="http://www.w3.org/2000/svg"
   xmlns:svg="http://www.w3.org/2000/svg"
   xmlns:rdf="http://www.w3.org/1999/02/22-rdf-syntax-ns#"
   xmlns:cc="http://creativecommons.org/ns#"
   xmlns:dc="http://purl.org/dc/elements/1.1/">
  <defs
     id="defs2">
    <inkscape:path-effect
       effect="spiro"
       id="path-effect1406"
       is_visible="true"
       lpeversion="1" />
    <inkscape:path-effect
       effect="spiro"
       id="path-effect862"
       is_visible="true"
       lpeversion="1" />
    <inkscape:path-effect
       effect="spiro"
       id="path-effect858"
       is_visible="true"
       lpeversion="1" />
  </defs>
  <sodipodi:namedview
     id="base"
     pagecolor="#ffffff"
     bordercolor="#666666"
     borderopacity="1.0"
     inkscape:pageopacity="0.0"
     inkscape:pageshadow="2"
     inkscape:zoom="2.7960806"
     inkscape:cx="755.8795"
     inkscape:cy="225.31539"
     inkscape:document-units="mm"
     inkscape:current-layer="layer1"
     showgrid="false"
     showborder="true"
     width="200mm"
     showguides="true"
     inkscape:guide-bbox="true"
     inkscape:window-width="1280"
     inkscape:window-height="638"
     inkscape:window-x="1680"
     inkscape:window-y="25"
     inkscape:window-maximized="0"
     inkscape:pagecheckerboard="0">
    <inkscape:grid
       type="xygrid"
       id="grid815"
       units="mm"
       spacingx="10"
       spacingy="10"
       empspacing="4"
       dotted="false" />
  </sodipodi:namedview>
  <metadata
     id="metadata5">
    <rdf:RDF>
      <cc:Work
         rdf:about="">
        <dc:format>image/svg+xml</dc:format>
        <dc:type
           rdf:resource="http://purl.org/dc/dcmitype/StillImage" />
        <dc:title />
      </cc:Work>
    </rdf:RDF>
  </metadata>
  <g
     inkscape:label="Layer 1"
     inkscape:groupmode="layer"
     id="layer1"
     transform="translate(0,-177)">
    <path
       style="fill:none;stroke:#000000;stroke-width:0.264583px;stroke-linecap:butt;stroke-linejoin:miter;stroke-opacity:1"
       d="m 22.387789,201.66622 v 72.16564"
       id="path856"
       inkscape:path-effect="#path-effect858"
       inkscape:original-d="m 22.387789,201.66622 c 2.64e-4,24.05548 2.64e-4,48.1107 0,72.16564" />
    <path
       style="fill:none;stroke:#000000;stroke-width:0.264583px;stroke-linecap:butt;stroke-linejoin:miter;stroke-opacity:1"
       d="M 9.2667629,243.76287 H 226.14961"
       id="path860"
       inkscape:path-effect="#path-effect862"
       inkscape:original-d="m 9.2667629,243.76287 c 72.2945481,2.6e-4 144.5888271,2.6e-4 216.8828471,0" />
    <path
       style="fill:none;stroke:#000000;stroke-width:0.264583;stroke-linecap:butt;stroke-linejoin:miter;stroke-miterlimit:4;stroke-dasharray:none;stroke-dashoffset:0;stroke-opacity:1"
       d="m 22.240191,219.68096 c 0.460359,-1.62711 1.708705,-3.01146 3.27972,-3.63703 1.571015,-0.62557 3.42926,-0.47825 4.882081,0.38705 1.064673,0.63412 1.89486,1.61873 2.463768,2.71962 0.568909,1.1009 0.888323,2.31657 1.073207,3.5419 0.369768,2.45068 0.216821,4.96358 0.669346,7.40033 0.851704,4.58624 3.753623,8.49833 6.728811,12.091 1.394049,1.68337 2.867689,3.37455 4.787513,4.41925 0.7507,0.4085 1.55694,0.71032 2.295602,1.14021 0.738662,0.42989 1.426883,1.01695 1.755371,1.80595 0.241299,0.57958 0.270847,1.22115 0.36827,1.84135 0.226106,1.4394 0.838134,2.81249 1.733117,3.96227 0.894982,1.14978 2.069133,2.07618 3.382322,2.70747 2.626378,1.26257 5.764574,1.30285 8.51056,0.32739 2.560657,-0.90962 4.784734,-2.65771 6.444781,-4.80913 1.660046,-2.15142 2.773066,-4.694 3.437967,-7.32882 1.329802,-5.26965 0.895241,-10.80406 0.428819,-16.21885 -0.243039,-2.82149 -0.490912,-5.68116 0,-8.47022 0.33143,-1.88298 1.02419,-3.74731 2.292141,-5.17832 0.633975,-0.7155 1.407146,-1.31339 2.278888,-1.70573 0.871742,-0.39235 1.843018,-0.57508 2.794376,-0.48136 1.053357,0.10377 2.051604,0.53905 2.946162,1.10482 0.780637,0.49372 1.502855,1.09734 2.044205,1.84574 0.54135,0.74839 0.894432,1.64987 0.901957,2.5735 0.0082,1.01075 -0.386814,1.97417 -0.722128,2.92772 -0.167658,0.47677 -0.322277,0.96041 -0.405927,1.45884 -0.08365,0.49842 -0.09472,1.01433 0.02324,1.50576 0.145941,0.60797 0.488334,1.1617 0.941622,1.59234 0.453288,0.43065 1.014245,0.74076 1.609222,0.93292 1.189955,0.38432 2.483779,0.29897 3.709751,0.0526 2.312965,-0.46475 4.527215,-1.50691 6.261637,-3.10615 1.734424,-1.59924 2.967994,-3.76683 3.313384,-6.1006 0.10892,-0.73596 0.13172,-1.48644 0.30976,-2.20879 0.089,-0.36118 0.21742,-0.71479 0.40749,-1.03455 0.19007,-0.31976 0.44366,-0.60534 0.75583,-0.80763 0.42275,-0.27394 0.93329,-0.38402 1.4363,-0.41132 0.503,-0.0273 1.00653,0.0228 1.50987,0.043 2.04503,0.0822 4.07308,-0.32841 6.10737,-0.55335 2.03428,-0.22494 4.16354,-0.25101 6.04554,0.55335 1.23779,0.52902 2.31655,1.40351 3.14558,2.46403 0.82902,1.06052 1.41247,2.30315 1.76678,3.60178 0.70861,2.59727 0.50334,5.366 -0.0556,7.99953 -0.55894,2.63354 -1.46105,5.18066 -2.15202,7.78267 -0.69097,2.60202 -1.1725,5.30749 -0.86338,7.98188 0.3124,2.70278 1.44752,5.30284 3.20589,7.37907 1.75837,2.07624 4.13184,3.6222 6.7374,4.40557 0.83582,0.25129 1.70708,0.42683 2.57789,0.36827 1.25594,-0.0845 2.45417,-0.66361 3.37948,-1.51701 0.92532,-0.85341 1.58738,-1.96862 2.00339,-3.15667 0.83203,-2.37609 0.69691,-4.96867 0.50946,-7.47923 -0.83405,-11.17073 -2.50456,-22.31466 -2.20962,-33.5126 0.0562,-2.13414 0.19862,-4.32758 1.10481,-6.26059 1.17744,-2.51162 3.50926,-4.28869 5.93392,-5.63613 2.42466,-1.34745 5.03316,-2.37444 7.32381,-3.9389 1.89694,-1.29556 3.53233,-2.93022 5.26319,-4.44051 1.73086,-1.51029 3.60871,-2.92591 5.78491,-3.66143 1.06371,-0.35952 2.20637,-0.54966 3.31444,-0.36827 1.5404,0.25216 2.91623,1.22661 3.80334,2.51092 0.88711,1.28431 1.30866,2.85513 1.3531,4.41541 0.0889,3.12054 -1.25078,6.08392 -2.57855,8.90929 -0.92842,1.97558 -1.86878,3.9575 -2.48171,6.05253 -0.61294,2.09504 -0.88905,4.3275 -0.46445,6.46866 0.37795,1.90594 1.30691,3.68606 2.57789,5.15578 1.56516,1.8099 3.61995,3.14249 5.78709,4.15687 2.16714,1.01439 4.45939,1.72959 6.7341,2.47199 1.84194,0.60116 3.73799,1.2573 5.15578,2.5779 1.02147,0.95144 1.73329,2.20106 2.19442,3.51863 0.46114,1.31757 0.68287,2.70692 0.8293,4.09515 0.29286,2.77647 0.30869,5.65019 1.39552,8.22184 0.69485,1.64416 1.80991,3.09662 3.15568,4.26922 1.34576,1.1726 2.91849,2.07056 4.578,2.72791 1.60512,0.6358 3.3138,1.05298 5.04025,1.04849 1.72646,-0.005 3.47401,-0.44798 4.90304,-1.41676 1.74581,-1.18353 2.91988,-3.08456 3.52882,-5.10392 0.60894,-2.01935 0.69415,-4.16116 0.60221,-6.26833 -0.0919,-2.10717 -0.35615,-4.20451 -0.42871,-6.31243 -0.0726,-2.10793 0.0525,-4.25109 0.71693,-6.25289 0.78963,-2.37912 2.30935,-4.45768 4.05097,-6.26059 2.78898,-2.88713 6.20557,-5.16485 9.9433,-6.62886"
       id="path860-5"
       sodipodi:nodetypes="cssssscssscssssssccsssssssssssssssssssc"
       inkscape:original-d="m 22.240191,219.68096 c 1.481721,1.58756 7.678464,-5.18333 8.161801,-3.24998 0.480074,1.92029 -0.15752,-6.61583 4.206321,13.66185 4.534342,21.06997 5.047626,9.84942 6.728811,12.091 1.303073,1.73743 3.060004,3.10305 4.787513,4.41925 2.16693,1.65099 3.029876,0.64869 4.050973,2.94616 0.254218,0.57199 0.0018,1.33391 0.36827,1.84135 2.793575,3.86803 7.780745,8.98701 13.625999,6.99713 11.631428,-3.95963 10.311567,-19.02534 10.311567,-28.3568 0,-2.82341 -0.511495,-5.69353 0,-8.47022 0.836323,-4.54004 2.755188,-6.92634 7.365405,-7.36541 1.04411,-0.0994 2.180999,0.38747 2.946162,1.10482 1.29159,1.21086 2.236543,2.79725 2.946162,4.41924 0.967127,2.21057 -4.083723,3.08864 -1.104811,5.89232 1.643442,1.54677 4.004715,2.51154 6.260595,2.57789 6.964493,0.20484 7.330481,-4.02703 9.575021,-9.20675 0.5713,-1.31837 0.45709,-3.03498 1.47308,-4.05097 0.69983,-0.69983 1.95676,-0.34414 2.94617,-0.36827 4.04976,-0.0988 8.11329,-0.30298 12.15291,0 10.01372,0.75102 1.77173,26.07 1.84136,29.82989 0.1564,8.44558 3.19445,9.03512 9.94329,11.78464 0.80387,0.3275 1.7586,0.65502 2.57789,0.36827 6.49547,-2.27341 6.08923,-4.86764 5.89233,-12.15291 -0.75196,-27.82236 -3.07319,-8.03737 -2.20962,-33.5126 0.0718,-2.11789 -0.0707,-4.49739 1.10481,-6.26059 0.86255,-1.29383 12.31421,-8.90902 13.25773,-9.57503 0.13086,-0.0924 11.03254,-8.09416 11.0481,-8.10194 0.99426,-0.49713 2.71764,-1.3061 3.31444,-0.36827 0.99391,1.56186 2.72512,13.55358 2.57789,15.83562 -0.76898,11.91916 -4.5846,-7.68614 -2.94616,12.52119 0.15528,1.91516 1.27461,3.74389 2.57789,5.15578 4.48274,4.85631 6.95842,4.29609 12.52119,6.62886 1.77194,0.74308 3.76439,1.25276 5.15578,2.5779 5.24128,4.99169 1.58308,11.81772 4.41924,15.83562 2.0048,2.84012 4.80411,5.12546 7.73368,6.99713 1.54216,0.98527 8.39063,2.95886 9.94329,-0.36827 4.43695,-9.50774 2.44209,-14.79322 4.41925,-23.93757 0.42248,-1.95397 1.68938,-5.41042 4.05097,-6.26059 6.57548,-2.36717 9.9433,1.07327 9.9433,-6.62886"
       inkscape:path-effect="#path-effect1406" />
    <text
       xml:space="preserve"
       style="font-size:5.64444px;line-height:1.25;font-family:sans-serif;letter-spacing:0px;stroke-width:0.264583"
       x="13.026483"
       y="221.23067"
       id="text1086"><tspan
         sodipodi:role="line"
         id="tspan1084"
         style="stroke-width:0.264583"
         x="13.026483"
         y="221.23067">\(i\)</tspan></text>
    <circle
       style="fill:#000000;stroke:#000000;stroke-width:0.265;stroke-miterlimit:4;stroke-dasharray:none;stroke-dashoffset:0"
       id="path1190"
       cx="22.360683"
       cy="219.59607"
       r="0.87187177" />
    <circle
       style="fill:#000000;stroke:#000000;stroke-width:0.265;stroke-miterlimit:4;stroke-dasharray:none;stroke-dashoffset:0"
       id="path1190-9"
       cx="33.059528"
       cy="219.66908"
       r="0.87187177" />
    <circle
       style="fill:#000000;stroke:#000000;stroke-width:0.265;stroke-miterlimit:4;stroke-dasharray:none;stroke-dashoffset:0"
       id="path1190-3"
       cx="75.013199"
       cy="219.66908"
       r="0.87187177" />
    <circle
       style="fill:#000000;stroke:#000000;stroke-width:0.265;stroke-miterlimit:4;stroke-dasharray:none;stroke-dashoffset:0"
       id="path1190-6"
       cx="87.867165"
       cy="219.66908"
       r="0.87187177" />
    <circle
       style="fill:#000000;stroke:#000000;stroke-width:0.265;stroke-miterlimit:4;stroke-dasharray:none;stroke-dashoffset:0"
       id="path1190-2"
       cx="102.48009"
       cy="219.68216"
       r="0.87187177" />
    <circle
       style="fill:#000000;stroke:#000000;stroke-width:0.265;stroke-miterlimit:4;stroke-dasharray:none;stroke-dashoffset:0"
       id="path1190-0"
       cx="123.66183"
       cy="219.66908"
       r="0.87187177" />
    <circle
       style="fill:#000000;stroke:#000000;stroke-width:0.265;stroke-miterlimit:4;stroke-dasharray:none;stroke-dashoffset:0"
       id="path1190-62"
       cx="137.20218"
       cy="219.65602"
       r="0.87187177" />
    <circle
       style="fill:#000000;stroke:#000000;stroke-width:0.265;stroke-miterlimit:4;stroke-dasharray:none;stroke-dashoffset:0"
       id="path1190-94"
       cx="167.96767"
       cy="219.66908"
       r="0.87187177" />
    <circle
       style="fill:#000000;stroke:#000000;stroke-width:0.265;stroke-miterlimit:4;stroke-dasharray:none;stroke-dashoffset:0"
       id="path1190-5"
       cx="218.30109"
       cy="219.68216"
       r="0.87187177" />
    <path
       style="fill:none;stroke:#000000;stroke-width:0.264583;stroke-linecap:butt;stroke-linejoin:miter;stroke-miterlimit:4;stroke-dasharray:3.175, 3.175;stroke-dashoffset:0;stroke-opacity:1"
       d="M 22.240191,219.68096 H 224.1489"
       id="path2411" />
    <text
       xml:space="preserve"
       style="font-size:5.64444px;line-height:1.25;font-family:sans-serif;letter-spacing:0px;stroke-width:0.264583"
       x="217.79845"
       y="249.2179"
       id="text3196"><tspan
         sodipodi:role="line"
         id="tspan3194"
         style="stroke-width:0.264583"
         x="217.79845"
         y="249.2179">\(N\)</tspan></text>
    <text
       xml:space="preserve"
       style="font-size:5.64444px;line-height:1.25;font-family:sans-serif;letter-spacing:0px;stroke-width:0.264583"
       x="23.648596"
       y="249.76219"
       id="text3794"><tspan
         sodipodi:role="line"
         id="tspan3792"
         style="stroke-width:0.264583"
         x="23.648596"
         y="249.76219">\(0\)</tspan></text>
    <text
       xml:space="preserve"
       style="font-size:5.64444px;line-height:1.25;font-family:sans-serif;letter-spacing:0px;stroke-width:0.264583"
       x="97.054321"
       y="280.70306"
       id="text4605"><tspan
         sodipodi:role="line"
         id="tspan4603"
         style="stroke-width:0.264583"
         x="97.054321"
         y="280.70306">\(\hat{\pi}_i(s) = 9/N\)</tspan></text>
    <path
       style="fill:none;stroke:#000000;stroke-width:0.264583;stroke-linecap:butt;stroke-linejoin:miter;stroke-miterlimit:4;stroke-dasharray:3.175, 3.175;stroke-dashoffset:0;stroke-opacity:1"
       d="m 218.29106,219.83725 0,23.92035"
       id="path5688"
       sodipodi:nodetypes="cc" />
  </g>
</svg>
