<?xml version="1.0" encoding="UTF-8" standalone="no"?>
<!-- Created with Inkscape (http://www.inkscape.org/) -->

<svg
   width="240mm"
   height="120mm"
   viewBox="0 0 240 120"
   version="1.1"
   id="svg8"
   inkscape:version="1.1.1 (c3084ef, 2021-09-22)"
   sodipodi:docname="personalized-pagerank.svg"
   xmlns:inkscape="http://www.inkscape.org/namespaces/inkscape"
   xmlns:sodipodi="http://sodipodi.sourceforge.net/DTD/sodipodi-0.dtd"
   xmlns="http://www.w3.org/2000/svg"
   xmlns:svg="http://www.w3.org/2000/svg"
   xmlns:rdf="http://www.w3.org/1999/02/22-rdf-syntax-ns#"
   xmlns:cc="http://creativecommons.org/ns#"
   xmlns:dc="http://purl.org/dc/elements/1.1/">
  <defs
     id="defs2">
    <marker
       style="overflow:visible;"
       id="marker5344"
       refX="0.0"
       refY="0.0"
       orient="auto"
       inkscape:stockid="Arrow1Lend"
       inkscape:isstock="true">
      <path
         transform="scale(0.8) rotate(180) translate(12.5,0)"
         style="fill-rule:evenodd;fill:context-stroke;stroke:context-stroke;stroke-width:1.0pt;"
         d="M 0.0,0.0 L 5.0,-5.0 L -12.5,0.0 L 5.0,5.0 L 0.0,0.0 z "
         id="path5342" />
    </marker>
    <marker
       style="overflow:visible;"
       id="Arrow1Lend"
       refX="0.0"
       refY="0.0"
       orient="auto"
       inkscape:stockid="Arrow1Lend"
       inkscape:isstock="true">
      <path
         transform="scale(0.8) rotate(180) translate(12.5,0)"
         style="fill-rule:evenodd;fill:context-stroke;stroke:context-stroke;stroke-width:1.0pt;"
         d="M 0.0,0.0 L 5.0,-5.0 L -12.5,0.0 L 5.0,5.0 L 0.0,0.0 z "
         id="path1853" />
    </marker>
    <marker
       style="overflow:visible"
       id="Arrow1Lstart"
       refX="0.0"
       refY="0.0"
       orient="auto"
       inkscape:stockid="Arrow1Lstart"
       inkscape:isstock="true">
      <path
         transform="scale(0.8) translate(12.5,0)"
         style="fill-rule:evenodd;fill:context-stroke;stroke:context-stroke;stroke-width:1.0pt"
         d="M 0.0,0.0 L 5.0,-5.0 L -12.5,0.0 L 5.0,5.0 L 0.0,0.0 z "
         id="path1850" />
    </marker>
    <marker
       style="overflow:visible"
       id="Arrow2Lstart"
       refX="0.0"
       refY="0.0"
       orient="auto"
       inkscape:stockid="Arrow2Lstart"
       inkscape:isstock="true">
      <path
         transform="scale(1.1) translate(1,0)"
         d="M 8.7185878,4.0337352 L -2.2072895,0.016013256 L 8.7185884,-4.0017078 C 6.9730900,-1.6296469 6.9831476,1.6157441 8.7185878,4.0337352 z "
         style="stroke:context-stroke;fill-rule:evenodd;fill:context-stroke;stroke-width:0.62500000;stroke-linejoin:round"
         id="path1868" />
    </marker>
    <inkscape:path-effect
       effect="spiro"
       id="path-effect1442"
       is_visible="true"
       lpeversion="1" />
    <inkscape:path-effect
       effect="spiro"
       id="path-effect1438"
       is_visible="true"
       lpeversion="1" />
  </defs>
  <sodipodi:namedview
     id="base"
     pagecolor="#ffffff"
     bordercolor="#666666"
     borderopacity="1.0"
     inkscape:pageopacity="0.0"
     inkscape:pageshadow="2"
     inkscape:zoom="0.50228186"
     inkscape:cx="231.94149"
     inkscape:cy="49.772851"
     inkscape:document-units="mm"
     inkscape:current-layer="layer1"
     showgrid="false"
     showborder="true"
     width="200mm"
     showguides="true"
     inkscape:guide-bbox="true"
     inkscape:window-width="1280"
     inkscape:window-height="638"
     inkscape:window-x="1680"
     inkscape:window-y="25"
     inkscape:window-maximized="0"
     inkscape:pagecheckerboard="0">
    <inkscape:grid
       type="xygrid"
       id="grid815"
       units="mm"
       spacingx="10"
       spacingy="10"
       empspacing="4"
       dotted="false" />
  </sodipodi:namedview>
  <metadata
     id="metadata5">
    <rdf:RDF>
      <cc:Work
         rdf:about="">
        <dc:format>image/svg+xml</dc:format>
        <dc:type
           rdf:resource="http://purl.org/dc/dcmitype/StillImage" />
        <dc:title />
      </cc:Work>
    </rdf:RDF>
  </metadata>
  <g
     inkscape:label="Layer 1"
     inkscape:groupmode="layer"
     id="layer1"
     transform="translate(0,-177)">
    <circle
       style="fill:#000000;stroke:#000000;stroke-width:0.265;stroke-miterlimit:4;stroke-dasharray:none;stroke-dashoffset:0"
       id="path845"
       cx="65.540802"
       cy="200.73628"
       r="1.7295221" />
    <path
       style="fill:none;stroke:#000000;stroke-width:0.264583px;stroke-linecap:butt;stroke-linejoin:miter;stroke-opacity:1;marker-end:url(#marker5344)"
       d="m 65.679829,201.40751 c 4.828272,1.11641 9.838473,1.44196 14.770618,0.95974 2.286896,-0.22359 4.56915,-0.61987 6.865601,-0.54113 2.296451,0.0787 4.666721,0.68698 6.378094,2.22031 0.989577,0.88662 1.710976,2.03925 2.253754,3.252 0.542778,1.21274 0.917171,2.49256 1.302649,3.76408 0.385477,1.27152 0.786126,2.54539 1.376952,3.73547 0.590827,1.19008 1.383763,2.30178 2.441013,3.10651 1.45125,1.10463 3.33052,1.56344 5.15261,1.48361 1.82208,-0.0798 3.59329,-0.66787 5.22452,-1.48361 1.33683,-0.66851 2.59334,-1.49037 3.93904,-2.14086 1.3457,-0.65048 2.81691,-1.13189 4.30945,-1.05211 0.53964,0.0288 1.07331,0.13068 1.59648,0.26608 4.00986,1.03782 7.24251,3.96983 10.00299,7.05784 2.76048,3.08802 5.27155,6.47259 8.62264,8.90698 3.23806,2.35227 7.1867,3.71258 11.18648,3.85375 3.99979,0.14117 8.0345,-0.93738 11.43034,-3.05551"
       id="path1436"
       inkscape:path-effect="#path-effect1438"
       inkscape:original-d="m 65.679829,201.40751 c 1.224912,-0.11484 12.121899,0.69851 14.770618,0.95974 6.937034,0.68416 9.960841,-1.60368 13.243695,1.67918 4.597809,4.5978 0.423246,12.96114 7.374368,13.85806 3.4306,0.44266 6.96782,0.58445 10.37713,0 2.90592,-0.49816 5.42243,-2.35279 8.24849,-3.19297 0.51713,-0.15374 1.22175,-0.12203 1.59648,0.26608 7.12595,7.38045 7.46085,13.28528 18.62563,15.96482 10.22891,2.45494 12.29209,-0.6161 22.61682,0.79824"
       sodipodi:nodetypes="cssssscsc" />
    <path
       style="fill:none;stroke:#000000;stroke-width:0.264583px;stroke-linecap:butt;stroke-linejoin:miter;stroke-opacity:1;marker-end:url(#marker5344)"
       d="m 65.679829,201.40751 c 2.323414,1.07483 4.311184,2.86241 5.625701,5.05913 1.314516,2.19672 1.95026,4.79335 1.799254,7.34888 -0.159208,2.69434 -1.163022,5.28893 -1.282729,7.98532 -0.141013,3.17632 0.982152,6.34122 2.845787,8.91722 1.863635,2.576 4.434002,4.58847 7.242886,6.07813 2.285662,1.21218 4.731178,2.09254 7.066134,3.20681 2.334956,1.11427 4.604869,2.50281 6.237879,4.50952 1.856996,2.28196 2.750721,5.18008 3.52956,8.01719 0.778838,2.8371 1.509989,5.75287 3.122449,8.21371 2.1664,3.30621 5.76189,5.48121 9.54789,6.61723 3.786,1.13601 7.78597,1.32678 11.73854,1.36518 0.35477,0.003 0.70958,0.006 1.06432,0 6.56228,-0.10598 12.73675,-2.91717 19.11993,-4.44353 14.52387,-3.47298 30.56379,0.0889 42.25264,9.3827"
       id="path1440"
       inkscape:path-effect="#path-effect1442"
       inkscape:original-d="m 65.679829,201.40751 c -3.893068,13.84202 -5.492676,-3.09315 7.424955,12.40801 0.683723,0.82046 -1.746049,7.02304 -1.282729,7.98532 3.010448,6.25247 2.788292,9.37967 10.088673,14.99535 1.210471,0.93113 11.853899,5.03919 13.304013,7.71633 2.78485,5.14126 3.48466,11.31605 6.652009,16.2309 6.66369,10.3402 10.50191,7.77095 21.28643,7.98241 0.3547,0.007 0.74848,-0.16159 1.06432,0 3.53557,1.8089 27.11026,-40.97326 19.11993,-4.44353 -2.28624,10.45213 33.21999,9.3827 42.25264,9.3827"
       sodipodi:nodetypes="cssssscssc" />
    <path
       style="fill:none;stroke:#000000;stroke-width:0.264583;stroke-linecap:butt;stroke-linejoin:miter;stroke-miterlimit:4;stroke-dasharray:3.175, 3.175;stroke-dashoffset:0;stroke-opacity:1;marker-end:url(#Arrow1Lend)"
       d="m 162.53306,231.74066 c 0,0 -25.11876,-44.16937 -94.736564,-31.92065"
       id="path1614"
       sodipodi:nodetypes="cc" />
    <path
       style="fill:none;stroke:#000000;stroke-width:0.264583;stroke-linecap:butt;stroke-linejoin:miter;stroke-miterlimit:4;stroke-dasharray:3.175, 3.175;stroke-dashoffset:0;stroke-opacity:1;marker-end:url(#Arrow1Lend)"
       d="m 185.59007,273.665 c 0,0 -114.633493,25.97472 -120.439408,-69.98922"
       id="path1616"
       sodipodi:nodetypes="cc" />
    <text
       xml:space="preserve"
       style="font-size:5.64444px;line-height:1.25;font-family:sans-serif;letter-spacing:0px;stroke-width:0.264583"
       x="57.702984"
       y="195.37225"
       id="text2334"><tspan
         sodipodi:role="line"
         id="tspan2332"
         style="stroke-width:0.264583"
         x="57.702984"
         y="195.37225">\(v^*\)</tspan></text>
    <text
       xml:space="preserve"
       style="font-size:5.64444px;line-height:1.25;font-family:sans-serif;letter-spacing:0px;stroke-width:0.264583"
       x="121.50551"
       y="200.78645"
       id="text3266"><tspan
         sodipodi:role="line"
         id="tspan3264"
         style="stroke-width:0.264583"
         x="121.50551"
         y="200.78645">Reset</tspan></text>
    <text
       xml:space="preserve"
       style="font-size:5.64444px;line-height:1.25;font-family:sans-serif;letter-spacing:0px;stroke-width:0.264583"
       x="79.6875"
       y="273.93793"
       id="text3266-0"><tspan
         sodipodi:role="line"
         id="tspan3264-0"
         style="stroke-width:0.264583"
         x="79.6875"
         y="273.93793">Reset</tspan></text>
    <text
       xml:space="preserve"
       style="font-size:5.64444px;line-height:1.25;font-family:sans-serif;letter-spacing:0px;stroke-width:0.264583"
       x="158.30188"
       y="250.82385"
       id="text4964"><tspan
         sodipodi:role="line"
         id="tspan4962"
         style="stroke-width:0.264583"
         x="158.30188"
         y="250.82385">\(\pi_{v*}(s)\)</tspan></text>
  </g>
</svg>
