<?xml version="1.0" encoding="UTF-8" standalone="no"?>
<!-- Created with Inkscape (http://www.inkscape.org/) -->

<svg
   width="240mm"
   height="120mm"
   viewBox="0 0 240 120"
   version="1.1"
   id="svg8"
   inkscape:version="1.1.1 (c3084ef, 2021-09-22)"
   sodipodi:docname="random-graph-cn.svg"
   xmlns:inkscape="http://www.inkscape.org/namespaces/inkscape"
   xmlns:sodipodi="http://sodipodi.sourceforge.net/DTD/sodipodi-0.dtd"
   xmlns="http://www.w3.org/2000/svg"
   xmlns:svg="http://www.w3.org/2000/svg"
   xmlns:rdf="http://www.w3.org/1999/02/22-rdf-syntax-ns#"
   xmlns:cc="http://creativecommons.org/ns#"
   xmlns:dc="http://purl.org/dc/elements/1.1/">
  <defs
     id="defs2">
    <inkscape:path-effect
       effect="spiro"
       id="path-effect895"
       is_visible="true"
       lpeversion="1" />
    <inkscape:path-effect
       effect="spiro"
       id="path-effect903"
       is_visible="true"
       lpeversion="1" />
    <inkscape:path-effect
       effect="spiro"
       id="path-effect1317"
       is_visible="true"
       lpeversion="1" />
    <inkscape:path-effect
       effect="spiro"
       id="path-effect1330"
       is_visible="true"
       lpeversion="1" />
    <inkscape:path-effect
       effect="spiro"
       id="path-effect919"
       is_visible="true"
       lpeversion="1" />
    <inkscape:path-effect
       effect="spiro"
       id="path-effect1275"
       is_visible="true"
       lpeversion="1" />
    <inkscape:path-effect
       effect="spiro"
       id="path-effect1205"
       is_visible="true"
       lpeversion="1" />
  </defs>
  <sodipodi:namedview
     id="base"
     pagecolor="#ffffff"
     bordercolor="#666666"
     borderopacity="1.0"
     inkscape:pageopacity="0.0"
     inkscape:pageshadow="2"
     inkscape:zoom="3.1663607"
     inkscape:cx="305.87166"
     inkscape:cy="192.96602"
     inkscape:document-units="mm"
     inkscape:current-layer="layer1"
     showgrid="false"
     showborder="true"
     width="200mm"
     showguides="true"
     inkscape:guide-bbox="true"
     inkscape:window-width="1280"
     inkscape:window-height="638"
     inkscape:window-x="1680"
     inkscape:window-y="25"
     inkscape:window-maximized="0"
     inkscape:pagecheckerboard="0">
    <inkscape:grid
       type="xygrid"
       id="grid815"
       units="mm"
       spacingx="10"
       spacingy="10"
       empspacing="4"
       dotted="false" />
  </sodipodi:namedview>
  <metadata
     id="metadata5">
    <rdf:RDF>
      <cc:Work
         rdf:about="">
        <dc:format>image/svg+xml</dc:format>
        <dc:type
           rdf:resource="http://purl.org/dc/dcmitype/StillImage" />
        <dc:title />
      </cc:Work>
    </rdf:RDF>
  </metadata>
  <g
     inkscape:label="Layer 1"
     inkscape:groupmode="layer"
     id="layer1"
     transform="translate(0,-177)">
    <path
       style="fill:none;stroke:#000000;stroke-width:0.264583px;stroke-linecap:butt;stroke-linejoin:miter;stroke-opacity:1"
       d="m 50.540122,225.3584 c -1.279374,0.87981 -2.30151,2.12908 -2.910554,3.55734 -0.810923,1.90168 -0.875738,4.07784 -0.36734,6.08171 0.508399,2.00388 1.566108,3.84199 2.89432,5.42624 2.656426,3.16849 6.306805,5.30136 9.762024,7.57235 12.084736,7.94287 22.578673,18.25584 35.250043,25.2248 15.422775,8.48217 33.780125,11.56357 51.096385,8.40826 11.86926,-2.16278 23.10824,-7.14148 33.30967,-13.58258 5.72035,-3.61178 11.23399,-7.77817 15.19957,-13.25919 2.69258,-3.72155 4.63041,-8.05124 5.17431,-12.6124 0.51633,-4.32999 -0.24154,-8.77533 -1.95706,-12.78437 -1.71552,-4.00904 -4.36893,-7.5874 -7.55398,-10.56581 -6.3701,-5.95681 -14.69745,-9.43523 -23.15184,-11.57647 -10.32126,-2.61406 -21.0569,-3.40199 -31.6927,-2.91055 -19.55037,0.90334 -38.687822,6.06853 -58.211072,7.43808 -3.733729,0.26192 -7.580412,0.40838 -10.995428,1.94037 -3.732943,1.67461 -6.555063,4.82333 -9.701847,7.43808 -1.911523,1.58834 -3.971574,2.99785 -6.144501,4.20414 z"
       id="path893"
       inkscape:path-effect="#path-effect895"
       inkscape:original-d="m 50.540122,225.3584 c -0.970184,1.18578 -2.470308,2.08985 -2.910554,3.55734 -2.638496,8.79499 6.251027,14.23349 12.289004,19.0803 11.267485,9.04464 22.658843,18.13795 35.250043,25.2248 13.378345,7.52988 36.088455,11.69877 51.096385,8.40826 11.71262,-2.568 22.81792,-7.77714 33.30967,-13.58258 5.88282,-3.25516 11.03989,-7.97707 15.19957,-13.25919 2.81143,-3.57008 5.53312,-8.08241 5.17431,-12.6124 -1.54453,-19.49973 -14.7054,-29.28287 -32.66288,-34.92665 -10.12062,-3.18077 -21.08525,-2.74819 -31.6927,-2.91055 -27.94894,-0.42779 -32.20757,2.28221 -58.211072,7.43808 -3.650705,0.72385 -7.499694,0.66308 -10.995428,1.94037 -1.01034,0.36916 -8.327138,6.06337 -9.701847,7.43808 -2.477841,2.47784 -2.361914,4.20414 -6.144501,4.20414 z" />
    <path
       style="fill:none;stroke:#000000;stroke-width:0.264583px;stroke-linecap:butt;stroke-linejoin:miter;stroke-opacity:1"
       d="m 66.673701,231.02727 c -0.169954,0.17799 -0.244103,0.42985 -0.256415,0.67564 -0.01231,0.24579 0.03113,0.49046 0.06674,0.73397 0.03561,0.24351 0.06342,0.49243 0.0202,0.7347 -0.02161,0.12114 -0.0612,0.23972 -0.123545,0.34581 -0.06234,0.10609 -0.147949,0.19945 -0.252497,0.26434 -0.15204,0.0944 -0.338429,0.12461 -0.516374,0.1057 -0.177945,-0.0189 -0.348353,-0.0843 -0.505895,-0.16921 -0.315083,-0.16973 -0.584624,-0.41714 -0.906637,-0.57333 -0.322984,-0.15666 -0.691749,-0.21501 -1.048266,-0.1731 -0.356516,0.0419 -0.699895,0.18305 -0.98737,0.39803 -0.287476,0.21499 -0.518946,0.50277 -0.674139,0.82646 -0.155193,0.32369 -0.234486,0.68258 -0.237702,1.04154 -0.0064,0.71791 0.295265,1.42351 0.777653,1.95525 0.482388,0.53173 1.135856,0.89442 1.829246,1.08057 1.38678,0.37229 2.868849,0.0529 4.213067,-0.45195 1.344218,-0.50481 2.62,-1.19358 3.998037,-1.59703 1.38556,-0.40566 2.837533,-0.51232 4.271845,-0.67689 1.434311,-0.16457 2.886872,-0.39669 4.185642,-1.02719 0.525822,-0.25526 1.027813,-0.57978 1.409478,-1.02248 0.381665,-0.44269 0.635169,-1.01423 0.616863,-1.59845 -0.01368,-0.43643 -0.178352,-0.86184 -0.435489,-1.21474 -0.257136,-0.35289 -0.603673,-0.63541 -0.985512,-0.8472 -0.763679,-0.42357 -1.648135,-0.56415 -2.514269,-0.67564 -1.023775,-0.13178 -2.073836,-0.23149 -3.079766,0 -1.160876,0.26714 -2.17275,0.95268 -3.237014,1.48778 -0.532132,0.26756 -1.086499,0.50068 -1.669687,0.62168 -0.583189,0.121 -1.199072,0.12589 -1.766139,-0.0563 -0.371856,-0.11946 -0.717255,-0.31675 -1.09648,-0.41021 -0.189612,-0.0467 -0.388043,-0.0667 -0.580809,-0.0354 -0.192767,0.0313 -0.379905,0.11642 -0.514767,0.25766 z"
       id="path901"
       inkscape:path-effect="#path-effect903"
       inkscape:original-d="m 66.673701,231.02727 c -0.342196,0.28516 -0.298432,2.38383 -0.545516,2.75446 -0.50021,0.75032 -2.738396,-1.03423 -1.928906,-0.63684 2.528919,1.24147 5.077732,2.70964 7.870526,3.07977 2.12903,0.28216 6.520027,-0.77746 8.457487,-1.70408 2.15688,-1.03155 3.109571,-1.2282 2.026341,-2.62093 -0.98104,-1.26134 -2.44666,-2.15666 -3.93527,-2.73758 -0.956345,-0.37321 -2.059742,-0.11591 -3.079766,0 -2.897204,0.32923 -4.445299,0.52175 -6.67284,2.05318 -0.945332,0.64992 -1.176262,-1.07417 -2.192056,-0.18798 z"
       sodipodi:nodetypes="cssssssssc" />
    <path
       style="fill:none;stroke:#000000;stroke-width:0.264583px;stroke-linecap:butt;stroke-linejoin:miter;stroke-opacity:1"
       d="m 90.11998,220.75616 c 0.14325,0.26251 0.389402,0.45438 0.649843,0.60135 0.260442,0.14697 0.54057,0.25636 0.802485,0.40069 0.836934,0.4612 1.436402,1.24541 2.124111,1.9089 0.343854,0.33174 0.717781,0.63898 1.144721,0.85348 0.426941,0.2145 0.911922,0.33251 1.385961,0.2727 0.46954,-0.0592 0.910862,-0.29353 1.241759,-0.63189 0.330897,-0.33835 0.552978,-0.77679 0.655608,-1.23879 0.20526,-0.924 -0.06613,-1.90499 -0.558133,-2.71359 -0.668501,-1.09867 -1.761793,-1.94504 -3.010003,-2.25476 -1.24821,-0.30973 -2.636867,-0.0606 -3.662847,0.71487 -0.323053,0.24417 -0.614943,0.5447 -0.779693,0.91461 -0.08237,0.18496 -0.131603,0.38571 -0.133926,0.58817 -0.0023,0.20246 0.04313,0.40653 0.140114,0.58426 z"
       id="path917"
       inkscape:path-effect="#path-effect919"
       inkscape:original-d="m 90.11998,220.75616 c -1.876685,0.58698 -0.443955,1.17538 1.452328,1.00204 5.547529,-0.5071 4.648969,4.77113 4.654793,3.03508 0.0056,-1.66276 1.470094,-2.92665 1.339234,-4.58427 -0.20677,-2.61906 -5.21282,-1.71165 -6.67285,-1.53989 -0.87633,0.15108 0.318631,1.70473 -0.773505,2.08704 z"
       sodipodi:nodetypes="cssscc" />
    <path
       style="fill:none;stroke:#000000;stroke-width:0.264583px;stroke-linecap:butt;stroke-linejoin:miter;stroke-opacity:1"
       d="m 87.081128,246.43619 c -0.52331,-0.30262 -1.184662,-0.33665 -1.750775,-0.12465 -0.566114,0.21201 -1.033316,0.65755 -1.307578,1.19627 -0.274261,0.53871 -0.360654,1.16445 -0.282518,1.76389 0.07814,0.59943 0.316095,1.17257 0.651966,1.67519 0.67174,1.00523 1.706878,1.7106 2.775967,2.27519 1.069089,0.5646 2.199381,1.01548 3.227407,1.65179 1.530629,0.9474 2.799219,2.28411 4.36839,3.1662 0.784586,0.44105 1.649246,0.76506 2.547212,0.82631 0.897966,0.0613 1.832386,-0.15711 2.544607,-0.70742 0.449444,-0.34727 0.799924,-0.81802 1.018514,-1.34224 0.2186,-0.52422 0.30638,-1.10048 0.26982,-1.66727 -0.0731,-1.13358 -0.64483,-2.20482 -1.466208,-2.98948 -0.821376,-0.78467 -1.877607,-1.29651 -2.977594,-1.58005 -1.099986,-0.28354 -2.2461,-0.34803 -3.381702,-0.32026 -0.694604,0.017 -1.392288,0.0678 -2.082308,-0.0136 -0.690021,-0.0815 -1.384704,-0.30794 -1.898252,-0.77595 -0.470895,-0.42914 -0.751551,-1.0216 -1.0517,-1.58357 -0.150074,-0.28099 -0.308397,-0.55902 -0.502795,-0.81137 -0.194399,-0.25236 -0.426689,-0.47948 -0.702453,-0.63895 z"
       id="path917-2"
       inkscape:path-effect="#path-effect1275"
       inkscape:original-d="m 87.081128,246.43619 c -1.372093,1.28442 2.393439,6.77106 3.314469,8.43768 2.56324,4.63824 3.790406,2.20937 9.460209,3.28509 31.518624,5.97996 -6.40631,-6.24168 -6.53717,-7.8993 -0.206761,-2.61906 -2.52053,-0.96134 -3.98056,-0.78958 -0.87633,0.15108 -1.059258,-4.06049 -2.256948,-3.03389 z"
       sodipodi:nodetypes="cssscc" />
    <path
       style="fill:none;stroke:#000000;stroke-width:0.264583px;stroke-linecap:butt;stroke-linejoin:miter;stroke-opacity:1"
       d="m 124.1852,263.63245 c 5.94167,-0.1282 11.54303,-2.61675 16.98204,-5.01198 5.43901,-2.39523 11.10722,-4.78388 17.04959,-4.6935 3.1421,0.0478 6.27095,0.80589 9.08817,2.19815 3.02915,1.497 5.66844,3.69654 8.6974,5.19392 1.51448,0.74868 3.1346,1.32011 4.81518,1.49283 1.68058,0.17272 3.42864,-0.0708 4.91758,-0.86907 1.05016,-0.56302 1.95099,-1.39071 2.6398,-2.363 0.68881,-0.9723 1.16807,-2.08679 1.44657,-3.24535 0.55701,-2.31712 0.3098,-4.77078 -0.34761,-7.06144 -1.31481,-4.58131 -4.19489,-8.56792 -5.73127,-13.07976 -1.24498,-3.6561 -1.57305,-7.54968 -2.31351,-11.34029 -0.74047,-3.79061 -1.98624,-7.64875 -4.6725,-10.42383 -1.72995,-1.78715 -3.98285,-3.02713 -6.3716,-3.72036 -2.38874,-0.69323 -4.91156,-0.85518 -7.39191,-0.66933 -4.96069,0.3717 -9.70177,2.09761 -14.44924,3.58361 -2.05496,0.64322 -4.123,1.24395 -6.17993,1.88085 -2.05704,0.63693 -4.10354,1.31019 -6.17994,1.88085 -5.37603,1.47749 -10.94258,2.26024 -16.51759,2.32264 v 0 c -5.40799,1.0034 -10.39888,4.10413 -13.69427,8.50795 -3.29539,4.40382 -4.86234,10.0667 -4.29947,15.53811 0.56287,5.47141 3.24993,10.69667 7.37289,14.33733 4.12296,3.64065 9.64061,5.66032 15.13962,5.54167 z"
       id="path1203"
       inkscape:path-effect="#path-effect1205"
       inkscape:original-d="m 124.1852,263.63245 c 3.52547,1.08811 30.73157,-8.05546 34.03163,-9.70548 3.7386,-1.86929 -48.98811,120.41763 9.08817,2.19815 1.59927,-3.25546 15.22837,7.52186 18.43016,5.81768 2.37846,-1.26596 -3.84253,-23.7907 -1.99251,-25.74955 6.11389,-6.47354 -5.15678,-19.42142 -6.98601,-21.76412 -7.04739,-9.0256 -19.81693,-3.13825 -28.21275,-0.80608 -2.07471,0.57631 -4.11995,1.2539 -6.17993,1.88085 -2.05998,0.62695 -4.24364,0.93887 -6.17994,1.88085 -2.35033,1.14341 5.24059,3.34826 -16.51759,2.32264 -19.07797,-5.27657 -4.42173,-3.47683 0,0 -3.97202,7.24332 -3.5284,41.0556 4.51877,43.92506 z"
       sodipodi:nodetypes="cssssssssccc" />
    <text
       xml:space="preserve"
       style="font-size:5.64444px;line-height:1.25;font-family:sans-serif;letter-spacing:0px;stroke-width:0.264583"
       x="138.09135"
       y="240.51317"
       id="text1554"><tspan
         sodipodi:role="line"
         id="tspan1552"
         style="stroke-width:0.264583"
         x="138.09135"
         y="240.51317">\(cn\)</tspan></text>
  </g>
</svg>
