<?xml version="1.0" encoding="UTF-8" standalone="no"?>
<!-- Created with Inkscape (http://www.inkscape.org/) -->

<svg
   width="240mm"
   height="6mm"
   viewBox="0 0 240 6"
   version="1.1"
   id="svg8"
   inkscape:version="1.1.1 (c3084ef, 2021-09-22)"
   sodipodi:docname="fbv-path.svg"
   xmlns:inkscape="http://www.inkscape.org/namespaces/inkscape"
   xmlns:sodipodi="http://sodipodi.sourceforge.net/DTD/sodipodi-0.dtd"
   xmlns="http://www.w3.org/2000/svg"
   xmlns:svg="http://www.w3.org/2000/svg"
   xmlns:rdf="http://www.w3.org/1999/02/22-rdf-syntax-ns#"
   xmlns:cc="http://creativecommons.org/ns#"
   xmlns:dc="http://purl.org/dc/elements/1.1/">
  <defs
     id="defs2">
    <inkscape:path-effect
       effect="spiro"
       id="path-effect1152"
       is_visible="true"
       lpeversion="1" />
    <inkscape:path-effect
       effect="spiro"
       id="path-effect1054"
       is_visible="true"
       lpeversion="1" />
  </defs>
  <sodipodi:namedview
     id="base"
     pagecolor="#ffffff"
     bordercolor="#666666"
     borderopacity="1.0"
     inkscape:pageopacity="0.0"
     inkscape:pageshadow="2"
     inkscape:zoom="1.8268057"
     inkscape:cx="455.98718"
     inkscape:cy="63.498815"
     inkscape:document-units="mm"
     inkscape:current-layer="layer1"
     showgrid="false"
     showborder="true"
     width="200mm"
     showguides="true"
     inkscape:guide-bbox="true"
     inkscape:window-width="1728"
     inkscape:window-height="1051"
     inkscape:window-x="0"
     inkscape:window-y="38"
     inkscape:window-maximized="0"
     inkscape:pagecheckerboard="0">
    <inkscape:grid
       type="xygrid"
       id="grid815"
       units="mm"
       spacingx="10"
       spacingy="10"
       empspacing="4"
       dotted="false" />
  </sodipodi:namedview>
  <metadata
     id="metadata5">
    <rdf:RDF>
      <cc:Work
         rdf:about="">
        <dc:format>image/svg+xml</dc:format>
        <dc:type
           rdf:resource="http://purl.org/dc/dcmitype/StillImage" />
      </cc:Work>
    </rdf:RDF>
  </metadata>
  <g
     inkscape:label="Layer 1"
     inkscape:groupmode="layer"
     id="layer1"
     transform="translate(0,-177)">
    <path
       style="font-variation-settings:normal;opacity:0.99;vector-effect:none;fill:#000000;fill-opacity:1;fill-rule:evenodd;stroke:none;stroke-width:0.264567;stroke-linecap:butt;stroke-linejoin:round;stroke-miterlimit:4;stroke-dasharray:none;stroke-dashoffset:0;stroke-opacity:1;-inkscape-stroke:none;marker-start:none;marker-end:none;stop-color:#000000;stop-opacity:1"
       id="path845"
       sodipodi:type="arc"
       sodipodi:cx="73.449646"
       sodipodi:cy="182.15741"
       sodipodi:rx="0.93128115"
       sodipodi:ry="0.93128115"
       sodipodi:start="0"
       sodipodi:end="6.2645452"
       sodipodi:open="true"
       sodipodi:arc-type="arc"
       d="m 74.380927,182.15741 a 0.93128115,0.93128115 0 0 1 -0.926941,0.93127 0.93128115,0.93128115 0 0 1 -0.935581,-0.92259 0.93128115,0.93128115 0 0 1 0.918222,-0.93987 0.93128115,0.93128115 0 0 1 0.944138,0.91383" />
    <path
       style="font-variation-settings:normal;opacity:0.99;vector-effect:none;fill:#000000;fill-opacity:1;fill-rule:evenodd;stroke:none;stroke-width:0.264567;stroke-linecap:butt;stroke-linejoin:round;stroke-miterlimit:4;stroke-dasharray:none;stroke-dashoffset:0;stroke-opacity:1;-inkscape-stroke:none;marker-start:none;marker-end:none;stop-color:#000000;stop-opacity:1"
       id="path845-0"
       sodipodi:type="arc"
       sodipodi:cx="113.63366"
       sodipodi:cy="181.60751"
       sodipodi:rx="0.93128115"
       sodipodi:ry="0.93128115"
       sodipodi:start="0"
       sodipodi:end="6.2645452"
       sodipodi:open="true"
       sodipodi:arc-type="arc"
       d="m 114.56494,181.60751 a 0.93128115,0.93128115 0 0 1 -0.92694,0.93127 0.93128115,0.93128115 0 0 1 -0.93558,-0.92259 0.93128115,0.93128115 0 0 1 0.91822,-0.93987 0.93128115,0.93128115 0 0 1 0.94414,0.91384" />
    <path
       style="font-variation-settings:normal;opacity:0.99;vector-effect:none;fill:#000000;fill-opacity:1;fill-rule:evenodd;stroke:none;stroke-width:0.264567;stroke-linecap:butt;stroke-linejoin:round;stroke-miterlimit:4;stroke-dasharray:none;stroke-dashoffset:0;stroke-opacity:1;-inkscape-stroke:none;marker-start:none;marker-end:none;stop-color:#000000;stop-opacity:1"
       id="path845-5"
       sodipodi:type="arc"
       sodipodi:cx="96.144783"
       sodipodi:cy="178.44745"
       sodipodi:rx="0.93128115"
       sodipodi:ry="0.93128115"
       sodipodi:start="0"
       sodipodi:end="6.2645452"
       sodipodi:open="true"
       sodipodi:arc-type="arc"
       d="m 97.076064,178.44745 a 0.93128115,0.93128115 0 0 1 -0.926941,0.93127 0.93128115,0.93128115 0 0 1 -0.935581,-0.92259 0.93128115,0.93128115 0 0 1 0.918222,-0.93987 0.93128115,0.93128115 0 0 1 0.944138,0.91383" />
    <path
       style="font-variation-settings:normal;opacity:0.99;vector-effect:none;fill:#000000;fill-opacity:1;fill-rule:evenodd;stroke:none;stroke-width:0.264567;stroke-linecap:butt;stroke-linejoin:round;stroke-miterlimit:4;stroke-dasharray:none;stroke-dashoffset:0;stroke-opacity:1;-inkscape-stroke:none;marker-start:none;marker-end:none;stop-color:#000000;stop-opacity:1"
       id="path845-2"
       sodipodi:type="arc"
       sodipodi:cx="87.438187"
       sodipodi:cy="178.82742"
       sodipodi:rx="0.93128115"
       sodipodi:ry="0.93128115"
       sodipodi:start="0"
       sodipodi:end="6.2645452"
       sodipodi:open="true"
       sodipodi:arc-type="arc"
       d="m 88.369468,178.82742 a 0.93128115,0.93128115 0 0 1 -0.926942,0.93127 0.93128115,0.93128115 0 0 1 -0.93558,-0.92259 0.93128115,0.93128115 0 0 1 0.918222,-0.93987 0.93128115,0.93128115 0 0 1 0.944138,0.91383" />
    <path
       style="font-variation-settings:normal;opacity:0.99;vector-effect:none;fill:#000000;fill-opacity:1;fill-rule:evenodd;stroke:none;stroke-width:0.264567;stroke-linecap:butt;stroke-linejoin:round;stroke-miterlimit:4;stroke-dasharray:none;stroke-dashoffset:0;stroke-opacity:1;-inkscape-stroke:none;marker-start:none;marker-end:none;stop-color:#000000;stop-opacity:1"
       id="path845-27"
       sodipodi:type="arc"
       sodipodi:cx="80.666512"
       sodipodi:cy="180.10461"
       sodipodi:rx="0.93128115"
       sodipodi:ry="0.93128115"
       sodipodi:start="0"
       sodipodi:end="6.2645452"
       sodipodi:open="true"
       sodipodi:arc-type="arc"
       d="m 81.597793,180.10461 a 0.93128115,0.93128115 0 0 1 -0.926942,0.93128 0.93128115,0.93128115 0 0 1 -0.93558,-0.9226 0.93128115,0.93128115 0 0 1 0.918222,-0.93987 0.93128115,0.93128115 0 0 1 0.944138,0.91384" />
    <path
       style="font-variation-settings:normal;opacity:0.99;vector-effect:none;fill:#000000;fill-opacity:1;fill-rule:evenodd;stroke:none;stroke-width:0.264567;stroke-linecap:butt;stroke-linejoin:round;stroke-miterlimit:4;stroke-dasharray:none;stroke-dashoffset:0;stroke-opacity:1;-inkscape-stroke:none;marker-start:none;marker-end:none;stop-color:#000000;stop-opacity:1"
       id="path845-3"
       sodipodi:type="arc"
       sodipodi:cx="105.69128"
       sodipodi:cy="179.47932"
       sodipodi:rx="0.93128115"
       sodipodi:ry="0.93128115"
       sodipodi:start="0"
       sodipodi:end="6.2645452"
       sodipodi:open="true"
       sodipodi:arc-type="arc"
       d="m 106.62256,179.47932 a 0.93128115,0.93128115 0 0 1 -0.92694,0.93128 0.93128115,0.93128115 0 0 1 -0.93558,-0.9226 0.93128115,0.93128115 0 0 1 0.91822,-0.93987 0.93128115,0.93128115 0 0 1 0.94414,0.91384" />
    <path
       style="fill:none;stroke:#000000;stroke-width:0.264583px;stroke-linecap:butt;stroke-linejoin:miter;stroke-opacity:1"
       d="m 73.734854,182.27753 c 5.000459,-1.81109 10.236852,-2.96958 15.534614,-3.43686 8.185773,-0.72201 16.514712,0.21912 24.332982,2.74949"
       id="path1052"
       inkscape:path-effect="#path-effect1054"
       inkscape:original-d="m 73.734854,182.27753 c 5.178468,-1.14536 10.356673,-2.29098 15.534614,-3.43686 5.177938,-1.14589 16.222252,1.83326 24.332982,2.74949" />
    <path
       style="font-variation-settings:normal;opacity:0.99;vector-effect:none;fill:#000000;fill-opacity:1;fill-rule:evenodd;stroke:none;stroke-width:0.264567;stroke-linecap:butt;stroke-linejoin:round;stroke-miterlimit:4;stroke-dasharray:none;stroke-dashoffset:0;stroke-opacity:1;-inkscape-stroke:none;marker-start:none;marker-end:none;stop-color:#000000;stop-opacity:1"
       id="path1136"
       sodipodi:type="arc"
       sodipodi:cx="126.36629"
       sodipodi:cy="182.15741"
       sodipodi:rx="0.93128115"
       sodipodi:ry="0.93128115"
       sodipodi:start="0"
       sodipodi:end="6.2645452"
       sodipodi:open="true"
       sodipodi:arc-type="arc"
       d="m 127.29757,182.15741 a 0.93128115,0.93128115 0 0 1 -0.92694,0.93127 0.93128115,0.93128115 0 0 1 -0.93558,-0.92259 0.93128115,0.93128115 0 0 1 0.91822,-0.93987 0.93128115,0.93128115 0 0 1 0.94414,0.91383" />
    <path
       style="font-variation-settings:normal;opacity:0.99;vector-effect:none;fill:#000000;fill-opacity:1;fill-rule:evenodd;stroke:none;stroke-width:0.264567;stroke-linecap:butt;stroke-linejoin:round;stroke-miterlimit:4;stroke-dasharray:none;stroke-dashoffset:0;stroke-opacity:1;-inkscape-stroke:none;marker-start:none;marker-end:none;stop-color:#000000;stop-opacity:1"
       id="path1138"
       sodipodi:type="arc"
       sodipodi:cx="166.55035"
       sodipodi:cy="181.60751"
       sodipodi:rx="0.93128115"
       sodipodi:ry="0.93128115"
       sodipodi:start="0"
       sodipodi:end="6.2645452"
       sodipodi:open="true"
       sodipodi:arc-type="arc"
       d="m 167.48164,181.60751 a 0.93128115,0.93128115 0 0 1 -0.92695,0.93127 0.93128115,0.93128115 0 0 1 -0.93558,-0.92259 0.93128115,0.93128115 0 0 1 0.91823,-0.93987 0.93128115,0.93128115 0 0 1 0.94413,0.91384" />
    <path
       style="font-variation-settings:normal;opacity:0.99;vector-effect:none;fill:#000000;fill-opacity:1;fill-rule:evenodd;stroke:none;stroke-width:0.264567;stroke-linecap:butt;stroke-linejoin:round;stroke-miterlimit:4;stroke-dasharray:none;stroke-dashoffset:0;stroke-opacity:1;-inkscape-stroke:none;marker-start:none;marker-end:none;stop-color:#000000;stop-opacity:1"
       id="path1140"
       sodipodi:type="arc"
       sodipodi:cx="149.06146"
       sodipodi:cy="178.44745"
       sodipodi:rx="0.93128115"
       sodipodi:ry="0.93128115"
       sodipodi:start="0"
       sodipodi:end="6.2645452"
       sodipodi:open="true"
       sodipodi:arc-type="arc"
       d="m 149.99274,178.44745 a 0.93128115,0.93128115 0 0 1 -0.92694,0.93127 0.93128115,0.93128115 0 0 1 -0.93558,-0.92259 0.93128115,0.93128115 0 0 1 0.91822,-0.93987 0.93128115,0.93128115 0 0 1 0.94414,0.91383" />
    <path
       style="font-variation-settings:normal;opacity:0.99;vector-effect:none;fill:#000000;fill-opacity:1;fill-rule:evenodd;stroke:none;stroke-width:0.264567;stroke-linecap:butt;stroke-linejoin:round;stroke-miterlimit:4;stroke-dasharray:none;stroke-dashoffset:0;stroke-opacity:1;-inkscape-stroke:none;marker-start:none;marker-end:none;stop-color:#000000;stop-opacity:1"
       id="path1144"
       sodipodi:type="arc"
       sodipodi:cx="133.58315"
       sodipodi:cy="180.10461"
       sodipodi:rx="0.93128115"
       sodipodi:ry="0.93128115"
       sodipodi:start="0"
       sodipodi:end="6.2645452"
       sodipodi:open="true"
       sodipodi:arc-type="arc"
       d="m 134.51443,180.10461 a 0.93128115,0.93128115 0 0 1 -0.92695,0.93128 0.93128115,0.93128115 0 0 1 -0.93558,-0.9226 0.93128115,0.93128115 0 0 1 0.91823,-0.93987 0.93128115,0.93128115 0 0 1 0.94413,0.91384" />
    <path
       style="fill:none;stroke:#000000;stroke-width:0.264583px;stroke-linecap:butt;stroke-linejoin:miter;stroke-opacity:1"
       d="m 126.65153,182.27753 c 5.00046,-1.81109 10.23686,-2.96958 15.53463,-3.43686 8.18578,-0.72201 16.51471,0.21912 24.33299,2.74949"
       id="path1148"
       inkscape:path-effect="#path-effect1152"
       inkscape:original-d="m 126.65153,182.27753 c 5.17847,-1.14536 10.35668,-2.29098 15.53463,-3.43686 5.17794,-1.14589 16.22225,1.83326 24.33299,2.74949" />
    <path
       style="font-variation-settings:normal;opacity:0.99;vector-effect:none;fill:#ff9800;fill-opacity:1;fill-rule:evenodd;stroke:none;stroke-width:0.264567;stroke-linecap:butt;stroke-linejoin:round;stroke-miterlimit:4;stroke-dasharray:none;stroke-dashoffset:0;stroke-opacity:1;-inkscape-stroke:none;marker-start:none;marker-end:none;stop-color:#000000;stop-opacity:1"
       id="path1142"
       sodipodi:type="arc"
       sodipodi:cx="140.35484"
       sodipodi:cy="178.82742"
       sodipodi:rx="0.93128115"
       sodipodi:ry="0.93128115"
       sodipodi:start="0"
       sodipodi:end="6.2645452"
       sodipodi:open="true"
       sodipodi:arc-type="arc"
       d="m 141.28612,178.82742 a 0.93128115,0.93128115 0 0 1 -0.92694,0.93127 0.93128115,0.93128115 0 0 1 -0.93558,-0.92259 0.93128115,0.93128115 0 0 1 0.91822,-0.93987 0.93128115,0.93128115 0 0 1 0.94414,0.91383" />
    <path
       style="font-variation-settings:normal;opacity:0.99;vector-effect:none;fill:#ff9800;fill-opacity:1;fill-rule:evenodd;stroke:none;stroke-width:0.264567;stroke-linecap:butt;stroke-linejoin:round;stroke-miterlimit:4;stroke-dasharray:none;stroke-dashoffset:0;stroke-opacity:1;-inkscape-stroke:none;marker-start:none;marker-end:none;stop-color:#000000;stop-opacity:1"
       id="path1146"
       sodipodi:type="arc"
       sodipodi:cx="158.60799"
       sodipodi:cy="179.47932"
       sodipodi:rx="0.93128115"
       sodipodi:ry="0.93128115"
       sodipodi:start="0"
       sodipodi:end="6.2645452"
       sodipodi:open="true"
       sodipodi:arc-type="arc"
       d="m 159.53927,179.47932 a 0.93128115,0.93128115 0 0 1 -0.92694,0.93128 0.93128115,0.93128115 0 0 1 -0.93558,-0.9226 0.93128115,0.93128115 0 0 1 0.91822,-0.93987 0.93128115,0.93128115 0 0 1 0.94414,0.91384" />
  </g>
</svg>
