<?xml version="1.0" encoding="UTF-8" standalone="no"?>
<!-- Created with Inkscape (http://www.inkscape.org/) -->

<svg
   width="240mm"
   height="56mm"
   viewBox="0 0 240 56"
   version="1.1"
   id="svg8"
   inkscape:version="1.1.1 (c3084ef, 2021-09-22)"
   sodipodi:docname="fbv-minimality.svg"
   xmlns:inkscape="http://www.inkscape.org/namespaces/inkscape"
   xmlns:sodipodi="http://sodipodi.sourceforge.net/DTD/sodipodi-0.dtd"
   xmlns="http://www.w3.org/2000/svg"
   xmlns:svg="http://www.w3.org/2000/svg"
   xmlns:rdf="http://www.w3.org/1999/02/22-rdf-syntax-ns#"
   xmlns:cc="http://creativecommons.org/ns#"
   xmlns:dc="http://purl.org/dc/elements/1.1/">
  <defs
     id="defs2">
    <marker
       id="marker-arrow-1"
       orient="auto-start-reverse"
       refY="0"
       refX="0"
       markerHeight="3"
       markerWidth="2">
      <g
         transform="scale(1.3933333)"
         id="g2715"><path
   d="M -1.55415,2.0722 C -1.42464,1.29512 0,0.1295 0.38852,0 0,-0.1295 -1.42464,-1.29512 -1.55415,-2.0722"
   style="fill:none;stroke:#000000;stroke-linecap:round;stroke-linejoin:round;stroke-miterlimit:10;stroke-dasharray:none;stroke-opacity:1"
   id="path2713" />



0&quot; /&gt;
   </g>
    </marker>
    <inkscape:path-effect
       effect="spiro"
       id="path-effect5934"
       is_visible="true"
       lpeversion="1" />
    <marker
       id="marker990"
       orient="auto-start-reverse"
       refY="0"
       refX="0"
       markerHeight="3"
       markerWidth="2">
      <g
         transform="scale(1.3933333)"
         id="g988"><path
   d="M -1.55415,2.0722 C -1.42464,1.29512 0,0.1295 0.38852,0 0,-0.1295 -1.42464,-1.29512 -1.55415,-2.0722"
   style="fill:none;stroke:#000000;stroke-linecap:round;stroke-linejoin:round;stroke-miterlimit:10;stroke-dasharray:none;stroke-opacity:1"
   id="path986" />



0&quot; /&gt;
   </g>
    </marker>
    <inkscape:path-effect
       effect="spiro"
       id="path-effect5875"
       is_visible="true"
       lpeversion="1" />
    <marker
       id="marker997"
       orient="auto-start-reverse"
       refY="0"
       refX="0"
       markerHeight="3"
       markerWidth="2">
      <g
         transform="scale(1.3933333)"
         id="g995"><path
   d="M -1.55415,2.0722 C -1.42464,1.29512 0,0.1295 0.38852,0 0,-0.1295 -1.42464,-1.29512 -1.55415,-2.0722"
   style="fill:none;stroke:#000000;stroke-linecap:round;stroke-linejoin:round;stroke-miterlimit:10;stroke-dasharray:none;stroke-opacity:1"
   id="path993" />



0&quot; /&gt;
   </g>
    </marker>
    <inkscape:path-effect
       effect="spiro"
       id="path-effect5372"
       is_visible="true"
       lpeversion="1" />
    <marker
       id="marker1004"
       orient="auto-start-reverse"
       refY="0"
       refX="0"
       markerHeight="3"
       markerWidth="2">
      <g
         transform="scale(1.3933333)"
         id="g1002"><path
   d="M -1.55415,2.0722 C -1.42464,1.29512 0,0.1295 0.38852,0 0,-0.1295 -1.42464,-1.29512 -1.55415,-2.0722"
   style="fill:none;stroke:#000000;stroke-linecap:round;stroke-linejoin:round;stroke-miterlimit:10;stroke-dasharray:none;stroke-opacity:1"
   id="path1000" />



0&quot; /&gt;
   </g>
    </marker>
    <inkscape:path-effect
       effect="spiro"
       id="path-effect4990"
       is_visible="true"
       lpeversion="1" />
    <marker
       id="marker1011"
       orient="auto-start-reverse"
       refY="0"
       refX="0"
       markerHeight="3"
       markerWidth="2">
      <g
         transform="scale(1.3933333)"
         id="g1009"><path
   d="M -1.55415,2.0722 C -1.42464,1.29512 0,0.1295 0.38852,0 0,-0.1295 -1.42464,-1.29512 -1.55415,-2.0722"
   style="fill:none;stroke:#000000;stroke-linecap:round;stroke-linejoin:round;stroke-miterlimit:10;stroke-dasharray:none;stroke-opacity:1"
   id="path1007" />



0&quot; /&gt;
   </g>
    </marker>
    <inkscape:path-effect
       effect="spiro"
       id="path-effect4931"
       is_visible="true"
       lpeversion="1" />
    <marker
       id="marker1018"
       orient="auto-start-reverse"
       refY="0"
       refX="0"
       markerHeight="3"
       markerWidth="2">
      <g
         transform="scale(1.3933333)"
         id="g1016"><path
   d="M -1.55415,2.0722 C -1.42464,1.29512 0,0.1295 0.38852,0 0,-0.1295 -1.42464,-1.29512 -1.55415,-2.0722"
   style="fill:none;stroke:#000000;stroke-linecap:round;stroke-linejoin:round;stroke-miterlimit:10;stroke-dasharray:none;stroke-opacity:1"
   id="path1014" />



0&quot; /&gt;
   </g>
    </marker>
    <inkscape:path-effect
       effect="spiro"
       id="path-effect4839"
       is_visible="true"
       lpeversion="1" />
    <marker
       id="marker1025"
       orient="auto-start-reverse"
       refY="0"
       refX="0"
       markerHeight="3"
       markerWidth="2">
      <g
         transform="scale(1.3933333)"
         id="g1023"><path
   d="M -1.55415,2.0722 C -1.42464,1.29512 0,0.1295 0.38852,0 0,-0.1295 -1.42464,-1.29512 -1.55415,-2.0722"
   style="fill:none;stroke:#000000;stroke-linecap:round;stroke-linejoin:round;stroke-miterlimit:10;stroke-dasharray:none;stroke-opacity:1"
   id="path1021" />



0&quot; /&gt;
   </g>
    </marker>
    <inkscape:path-effect
       effect="spiro"
       id="path-effect2770"
       is_visible="true"
       lpeversion="1" />
    <marker
       id="marker1032"
       orient="auto-start-reverse"
       refY="0"
       refX="0"
       markerHeight="3"
       markerWidth="2">
      <g
         transform="scale(1.3933333)"
         id="g1030"><path
   d="M -1.55415,2.0722 C -1.42464,1.29512 0,0.1295 0.38852,0 0,-0.1295 -1.42464,-1.29512 -1.55415,-2.0722"
   style="fill:none;stroke:#000000;stroke-linecap:round;stroke-linejoin:round;stroke-miterlimit:10;stroke-dasharray:none;stroke-opacity:1"
   id="path1028" />



0&quot; /&gt;
   </g>
    </marker>
    <inkscape:path-effect
       effect="spiro"
       id="path-effect2711"
       is_visible="true"
       lpeversion="1" />
    <inkscape:path-effect
       effect="spiro"
       id="path-effect1692"
       is_visible="true"
       lpeversion="1" />
    <inkscape:path-effect
       effect="spiro"
       id="path-effect1688"
       is_visible="true"
       lpeversion="1" />
    <inkscape:path-effect
       effect="spiro"
       id="path-effect1563"
       is_visible="true"
       lpeversion="1" />
    <inkscape:path-effect
       effect="spiro"
       id="path-effect1535"
       is_visible="true"
       lpeversion="1" />
    <inkscape:path-effect
       effect="spiro"
       id="path-effect1482"
       is_visible="true"
       lpeversion="1" />
    <inkscape:path-effect
       effect="spiro"
       id="path-effect1462"
       is_visible="true"
       lpeversion="1" />
    <inkscape:path-effect
       effect="spiro"
       id="path-effect1206"
       is_visible="true"
       lpeversion="1" />
    <inkscape:path-effect
       effect="spiro"
       id="path-effect1054"
       is_visible="true"
       lpeversion="1" />
  </defs>
  <sodipodi:namedview
     id="base"
     pagecolor="#ffffff"
     bordercolor="#666666"
     borderopacity="1.0"
     inkscape:pageopacity="0.0"
     inkscape:pageshadow="2"
     inkscape:zoom="2.3490242"
     inkscape:cx="220.94281"
     inkscape:cy="38.73949"
     inkscape:document-units="mm"
     inkscape:current-layer="layer1"
     showgrid="false"
     showborder="true"
     width="200mm"
     showguides="true"
     inkscape:guide-bbox="true"
     inkscape:window-width="1280"
     inkscape:window-height="680"
     inkscape:window-x="1728"
     inkscape:window-y="355"
     inkscape:window-maximized="0"
     inkscape:pagecheckerboard="0">
    <inkscape:grid
       type="xygrid"
       id="grid815"
       units="mm"
       spacingx="10"
       spacingy="10"
       empspacing="4"
       dotted="false" />
  </sodipodi:namedview>
  <metadata
     id="metadata5">
    <rdf:RDF>
      <cc:Work
         rdf:about="">
        <dc:format>image/svg+xml</dc:format>
        <dc:type
           rdf:resource="http://purl.org/dc/dcmitype/StillImage" />
      </cc:Work>
    </rdf:RDF>
  </metadata>
  <g
     inkscape:label="Layer 1"
     inkscape:groupmode="layer"
     id="layer1"
     transform="translate(0,-177)">
    <path
       style="fill:none;stroke:#000000;stroke-width:0.264583px;stroke-linecap:butt;stroke-linejoin:miter;stroke-opacity:1"
       d="m 112.93493,190.54866 37.13722,4.89993 10.28863,3.50345 3.14868,9.75646 -23.96759,0.76103 m -1.71427,-0.47922 -24.89267,-18.44165"
       id="path9210"
       sodipodi:nodetypes="ccccccc" />
    <path
       style="fill:none;stroke:black;stroke-width:0.26458333;stroke-linecap:butt;stroke-linejoin:miter;stroke-opacity:1;marker-end:none;marker-start:none;fill-opacity:1;stroke-dasharray:0.26458333,0.52916667"
       d="m 118.48024,208.86204 -5.54531,-18.31338 -14.355872,4.37481 -15.099906,3.43737 -10.741803,10.92595 3.621522,6.99752 7.263701,6.04793 18.587228,-7.0168 15.66683,-5.20306"
       id="path8130"
       sodipodi:nodetypes="ccccccccc" />
    <path
       style="fill:none;stroke:#000000;stroke-width:0.264583px;stroke-linecap:butt;stroke-linejoin:miter;stroke-opacity:1"
       d="m 99.872819,204.29139 13.062111,-13.74273 16.15623,4.06799 m 0.91225,1.15552 -2.41651,8.06036 -16.00852,18.6314 -11.614335,-16.25681"
       id="path7608"
       sodipodi:nodetypes="ccccccc" />
    <path
       style="font-variation-settings:normal;opacity:0.99;vector-effect:none;fill:#ff9800;fill-opacity:1;fill-rule:evenodd;stroke:none;stroke-width:0.264567;stroke-linecap:butt;stroke-linejoin:round;stroke-miterlimit:4;stroke-dasharray:none;stroke-dashoffset:0;stroke-opacity:1;-inkscape-stroke:none;marker-start:none;marker-end:none;stop-color:#000000;stop-opacity:1"
       id="path1142-3-9"
       sodipodi:type="arc"
       sodipodi:cx="113.04091"
       sodipodi:cy="190.48792"
       sodipodi:rx="0.93128115"
       sodipodi:ry="0.93128115"
       sodipodi:start="0"
       sodipodi:end="6.2645452"
       sodipodi:open="true"
       sodipodi:arc-type="arc"
       d="m 113.97219,190.48792 a 0.93128115,0.93128115 0 0 1 -0.92694,0.93127 0.93128115,0.93128115 0 0 1 -0.93558,-0.9226 0.93128115,0.93128115 0 0 1 0.91822,-0.93987 0.93128115,0.93128115 0 0 1 0.94414,0.91384" />
    <path
       style="font-variation-settings:normal;opacity:0.99;vector-effect:none;fill:#ff9800;fill-opacity:1;fill-rule:evenodd;stroke:none;stroke-width:0.264567;stroke-linecap:butt;stroke-linejoin:round;stroke-miterlimit:4;stroke-dasharray:none;stroke-dashoffset:0;stroke-opacity:1;-inkscape-stroke:none;marker-start:none;marker-end:none;stop-color:#000000;stop-opacity:1"
       id="path1142-3-2"
       sodipodi:type="arc"
       sodipodi:cx="64.227875"
       sodipodi:cy="182.56473"
       sodipodi:rx="0.93128115"
       sodipodi:ry="0.93128115"
       sodipodi:start="0"
       sodipodi:end="6.2645452"
       sodipodi:open="true"
       sodipodi:arc-type="arc"
       d="m 65.159156,182.56473 a 0.93128115,0.93128115 0 0 1 -0.926941,0.93127 0.93128115,0.93128115 0 0 1 -0.935581,-0.92259 0.93128115,0.93128115 0 0 1 0.918222,-0.93987 0.93128115,0.93128115 0 0 1 0.944138,0.91383" />
    <path
       style="font-variation-settings:normal;opacity:0.99;vector-effect:none;fill:#ff9800;fill-opacity:1;fill-rule:evenodd;stroke:none;stroke-width:0.264567;stroke-linecap:butt;stroke-linejoin:round;stroke-miterlimit:4;stroke-dasharray:none;stroke-dashoffset:0;stroke-opacity:1;-inkscape-stroke:none;marker-start:none;marker-end:none;stop-color:#000000;stop-opacity:1"
       id="path1142-3-99"
       sodipodi:type="arc"
       sodipodi:cx="137.25296"
       sodipodi:cy="190.96829"
       sodipodi:rx="0.93128115"
       sodipodi:ry="0.93128115"
       sodipodi:start="0"
       sodipodi:end="6.2645452"
       sodipodi:open="true"
       sodipodi:arc-type="arc"
       d="m 138.18424,190.96829 a 0.93128115,0.93128115 0 0 1 -0.92694,0.93127 0.93128115,0.93128115 0 0 1 -0.93558,-0.92259 0.93128115,0.93128115 0 0 1 0.91822,-0.93987 0.93128115,0.93128115 0 0 1 0.94414,0.91383" />
    <path
       style="font-variation-settings:normal;opacity:0.99;vector-effect:none;fill:#ff9800;fill-opacity:1;fill-rule:evenodd;stroke:none;stroke-width:0.264567;stroke-linecap:butt;stroke-linejoin:round;stroke-miterlimit:4;stroke-dasharray:none;stroke-dashoffset:0;stroke-opacity:1;-inkscape-stroke:none;marker-start:none;marker-end:none;stop-color:#000000;stop-opacity:1"
       id="path1142-3-99-6"
       sodipodi:type="arc"
       sodipodi:cx="81.542107"
       sodipodi:cy="206.99623"
       sodipodi:rx="0.93128115"
       sodipodi:ry="0.93128115"
       sodipodi:start="0"
       sodipodi:end="6.2645452"
       sodipodi:open="true"
       sodipodi:arc-type="arc"
       d="m 82.473388,206.99623 a 0.93128115,0.93128115 0 0 1 -0.926942,0.93127 0.93128115,0.93128115 0 0 1 -0.93558,-0.92259 0.93128115,0.93128115 0 0 1 0.918222,-0.93987 0.93128115,0.93128115 0 0 1 0.944138,0.91383" />
    <path
       style="font-variation-settings:normal;opacity:0.99;vector-effect:none;fill:#ff9800;fill-opacity:1;fill-rule:evenodd;stroke:none;stroke-width:0.264567;stroke-linecap:butt;stroke-linejoin:round;stroke-miterlimit:4;stroke-dasharray:none;stroke-dashoffset:0;stroke-opacity:1;-inkscape-stroke:none;marker-start:none;marker-end:none;stop-color:#000000;stop-opacity:1"
       id="path1142-3-99-8"
       sodipodi:type="arc"
       sodipodi:cx="74.286697"
       sodipodi:cy="223.45625"
       sodipodi:rx="0.93128115"
       sodipodi:ry="0.93128115"
       sodipodi:start="0"
       sodipodi:end="6.2645452"
       sodipodi:open="true"
       sodipodi:arc-type="arc"
       d="m 75.217979,223.45625 a 0.93128115,0.93128115 0 0 1 -0.926942,0.93127 0.93128115,0.93128115 0 0 1 -0.93558,-0.92259 0.93128115,0.93128115 0 0 1 0.918221,-0.93987 0.93128115,0.93128115 0 0 1 0.944139,0.91383" />
    <path
       style="font-variation-settings:normal;opacity:0.99;vector-effect:none;fill:#ff9800;fill-opacity:1;fill-rule:evenodd;stroke:none;stroke-width:0.264567;stroke-linecap:butt;stroke-linejoin:round;stroke-miterlimit:4;stroke-dasharray:none;stroke-dashoffset:0;stroke-opacity:1;-inkscape-stroke:none;marker-start:none;marker-end:none;stop-color:#000000;stop-opacity:1"
       id="path1142-3-99-9"
       sodipodi:type="arc"
       sodipodi:cx="169.58159"
       sodipodi:cy="214.46822"
       sodipodi:rx="0.93128115"
       sodipodi:ry="0.93128115"
       sodipodi:start="0"
       sodipodi:end="6.2645452"
       sodipodi:open="true"
       sodipodi:arc-type="arc"
       d="m 170.51287,214.46822 a 0.93128115,0.93128115 0 0 1 -0.92694,0.93127 0.93128115,0.93128115 0 0 1 -0.93558,-0.92259 0.93128115,0.93128115 0 0 1 0.91822,-0.93987 0.93128115,0.93128115 0 0 1 0.94414,0.91383" />
    <path
       style="font-variation-settings:normal;opacity:0.99;vector-effect:none;fill:#ff9800;fill-opacity:1;fill-rule:evenodd;stroke:none;stroke-width:0.264567;stroke-linecap:butt;stroke-linejoin:round;stroke-miterlimit:4;stroke-dasharray:none;stroke-dashoffset:0;stroke-opacity:1;-inkscape-stroke:none;marker-start:none;marker-end:none;stop-color:#000000;stop-opacity:1"
       id="path1142-3-99-1"
       sodipodi:type="arc"
       sodipodi:cx="160.70184"
       sodipodi:cy="198.9828"
       sodipodi:rx="0.93128115"
       sodipodi:ry="0.93128115"
       sodipodi:start="0"
       sodipodi:end="6.2645452"
       sodipodi:open="true"
       sodipodi:arc-type="arc"
       d="m 161.63312,198.9828 a 0.93128115,0.93128115 0 0 1 -0.92694,0.93127 0.93128115,0.93128115 0 0 1 -0.93558,-0.92259 0.93128115,0.93128115 0 0 1 0.91822,-0.93987 0.93128115,0.93128115 0 0 1 0.94414,0.91384" />
    <path
       style="font-variation-settings:normal;opacity:0.99;vector-effect:none;fill:#ff9800;fill-opacity:1;fill-rule:evenodd;stroke:none;stroke-width:0.264567;stroke-linecap:butt;stroke-linejoin:round;stroke-miterlimit:4;stroke-dasharray:none;stroke-dashoffset:0;stroke-opacity:1;-inkscape-stroke:none;marker-start:none;marker-end:none;stop-color:#000000;stop-opacity:1"
       id="path1142-3-99-4"
       sodipodi:type="arc"
       sodipodi:cx="151.71379"
       sodipodi:cy="213.38531"
       sodipodi:rx="0.93128115"
       sodipodi:ry="0.93128115"
       sodipodi:start="0"
       sodipodi:end="6.2645452"
       sodipodi:open="true"
       sodipodi:arc-type="arc"
       d="m 152.64507,213.38531 a 0.93128115,0.93128115 0 0 1 -0.92694,0.93128 0.93128115,0.93128115 0 0 1 -0.93558,-0.9226 0.93128115,0.93128115 0 0 1 0.91822,-0.93987 0.93128115,0.93128115 0 0 1 0.94414,0.91384" />
    <path
       style="font-variation-settings:normal;opacity:0.99;vector-effect:none;fill:#ff9800;fill-opacity:1;fill-rule:evenodd;stroke:none;stroke-width:0.264567;stroke-linecap:butt;stroke-linejoin:round;stroke-miterlimit:4;stroke-dasharray:none;stroke-dashoffset:0;stroke-opacity:1;-inkscape-stroke:none;marker-start:none;marker-end:none;stop-color:#000000;stop-opacity:1"
       id="path1142-3-7"
       sodipodi:type="arc"
       sodipodi:cx="111.68064"
       sodipodi:cy="222.22745"
       sodipodi:rx="0.93128115"
       sodipodi:ry="0.93128115"
       sodipodi:start="0"
       sodipodi:end="6.2645452"
       sodipodi:open="true"
       sodipodi:arc-type="arc"
       d="m 112.61192,222.22745 a 0.93128115,0.93128115 0 0 1 -0.92694,0.93127 0.93128115,0.93128115 0 0 1 -0.93558,-0.92259 0.93128115,0.93128115 0 0 1 0.91822,-0.93987 0.93128115,0.93128115 0 0 1 0.94414,0.91383" />
    <path
       style="font-variation-settings:normal;opacity:0.99;vector-effect:none;fill:none;fill-opacity:1;fill-rule:evenodd;stroke:#000000;stroke-width:0.264567;stroke-linecap:butt;stroke-linejoin:round;stroke-miterlimit:4;stroke-dasharray:none;stroke-dashoffset:0;stroke-opacity:1;-inkscape-stroke:none;stop-color:#000000;stop-opacity:1"
       id="path1180"
       sodipodi:type="arc"
       sodipodi:cx="120.00002"
       sodipodi:cy="205.27965"
       sodipodi:rx="27.140194"
       sodipodi:ry="27.140194"
       sodipodi:start="0"
       sodipodi:end="6.2804843"
       sodipodi:open="true"
       sodipodi:arc-type="arc"
       d="m 147.14022,205.27965 a 27.140194,27.140194 0 0 1 -27.12187,27.14019 27.140194,27.140194 0 0 1 -27.158496,-27.10354 27.140194,27.140194 0 0 1 27.085186,-27.17679 27.140194,27.140194 0 0 1 27.19508,27.06683" />
    <text
       xml:space="preserve"
       style="font-size:4.23333px;line-height:1.25;font-family:sans-serif;text-decoration-color:#000000;letter-spacing:0px;word-spacing:0px;fill:#000000;stroke-width:0.264583;-inkscape-stroke:none;stop-color:#000000"
       x="140.35767"
       y="183.97313"
       id="text1470"><tspan
         sodipodi:role="line"
         id="tspan1468"
         style="stroke-width:0.264583"
         x="140.35767"
         y="183.97313">\(S_j\)</tspan></text>
    <text
       xml:space="preserve"
       style="font-size:4.23333px;line-height:1.25;font-family:sans-serif;text-decoration-color:#000000;letter-spacing:0px;word-spacing:0px;fill:#000000;stroke-width:0.264583;-inkscape-stroke:none;stop-color:#000000"
       x="69.088646"
       y="183.74709"
       id="text4027"><tspan
         sodipodi:role="line"
         id="tspan4025"
         style="stroke-width:0.264583"
         x="69.088646"
         y="183.74709">\(\in F^\prime\)</tspan></text>
    <path
       style="font-variation-settings:normal;opacity:0.99;vector-effect:none;fill:none;fill-opacity:1;fill-rule:evenodd;stroke:#ff9800;stroke-width:0.264583;stroke-linecap:butt;stroke-linejoin:round;stroke-miterlimit:4;stroke-dasharray:none;stroke-dashoffset:0;stroke-opacity:1;-inkscape-stroke:none;marker-start:none;marker-end:none;stop-color:#000000;stop-opacity:1"
       id="path4199"
       sodipodi:type="arc"
       sodipodi:cx="64.227875"
       sodipodi:cy="187.8564"
       sodipodi:rx="0.93128115"
       sodipodi:ry="0.93128115"
       sodipodi:start="0"
       sodipodi:end="6.2645452"
       sodipodi:open="true"
       sodipodi:arc-type="arc"
       d="m 65.159156,187.8564 a 0.93128115,0.93128115 0 0 1 -0.926941,0.93127 0.93128115,0.93128115 0 0 1 -0.935581,-0.92259 0.93128115,0.93128115 0 0 1 0.918222,-0.93987 0.93128115,0.93128115 0 0 1 0.944138,0.91383" />
    <path
       style="font-variation-settings:normal;opacity:0.99;vector-effect:none;fill:none;fill-opacity:1;fill-rule:evenodd;stroke:#ff9800;stroke-width:0.264583;stroke-linecap:butt;stroke-linejoin:round;stroke-miterlimit:4;stroke-dasharray:none;stroke-dashoffset:0;stroke-opacity:1;-inkscape-stroke:none;marker-start:none;marker-end:none;stop-color:#000000;stop-opacity:1"
       id="path4199-1"
       sodipodi:type="arc"
       sodipodi:cx="99.734764"
       sodipodi:cy="205.2636"
       sodipodi:rx="0.93128115"
       sodipodi:ry="0.93128115"
       sodipodi:start="0"
       sodipodi:end="6.2645452"
       sodipodi:open="true"
       sodipodi:arc-type="arc"
       d="m 100.66605,205.2636 a 0.93128115,0.93128115 0 0 1 -0.926946,0.93127 0.93128115,0.93128115 0 0 1 -0.935581,-0.92259 0.93128115,0.93128115 0 0 1 0.918222,-0.93987 0.93128115,0.93128115 0 0 1 0.944135,0.91383" />
    <path
       style="font-variation-settings:normal;opacity:0.99;vector-effect:none;fill:#000000;fill-opacity:1;fill-rule:evenodd;stroke:none;stroke-width:0.264567;stroke-linecap:butt;stroke-linejoin:round;stroke-miterlimit:4;stroke-dasharray:none;stroke-dashoffset:0;stroke-opacity:1;-inkscape-stroke:none;marker-start:none;marker-end:none;stop-color:#000000;stop-opacity:1"
       id="path4205-4-8"
       sodipodi:type="arc"
       sodipodi:cx="98.474846"
       sodipodi:cy="194.89273"
       sodipodi:rx="0.93128115"
       sodipodi:ry="0.93128115"
       sodipodi:start="0"
       sodipodi:end="6.2645452"
       sodipodi:open="true"
       sodipodi:arc-type="arc"
       d="m 99.406127,194.89273 a 0.93128115,0.93128115 0 0 1 -0.926941,0.93127 0.93128115,0.93128115 0 0 1 -0.935581,-0.92259 0.93128115,0.93128115 0 0 1 0.918222,-0.93987 0.93128115,0.93128115 0 0 1 0.944138,0.91383" />
    <path
       style="font-variation-settings:normal;opacity:0.99;vector-effect:none;fill:none;fill-opacity:1;fill-rule:evenodd;stroke:#ff9800;stroke-width:0.264583;stroke-linecap:butt;stroke-linejoin:round;stroke-miterlimit:4;stroke-dasharray:none;stroke-dashoffset:0;stroke-opacity:1;-inkscape-stroke:none;marker-start:none;marker-end:none;stop-color:#000000;stop-opacity:1"
       id="path4199-6"
       sodipodi:type="arc"
       sodipodi:cx="138.61075"
       sodipodi:cy="209.48689"
       sodipodi:rx="0.93128115"
       sodipodi:ry="0.93128115"
       sodipodi:start="0"
       sodipodi:end="6.2645452"
       sodipodi:open="true"
       sodipodi:arc-type="arc"
       d="m 139.54203,209.48689 a 0.93128115,0.93128115 0 0 1 -0.92694,0.93127 0.93128115,0.93128115 0 0 1 -0.93558,-0.92259 0.93128115,0.93128115 0 0 1 0.91822,-0.93987 0.93128115,0.93128115 0 0 1 0.94414,0.91383" />
    <path
       style="font-variation-settings:normal;opacity:0.99;vector-effect:none;fill:none;fill-opacity:1;fill-rule:evenodd;stroke:#ff9800;stroke-width:0.264583;stroke-linecap:butt;stroke-linejoin:round;stroke-miterlimit:4;stroke-dasharray:none;stroke-dashoffset:0;stroke-opacity:1;-inkscape-stroke:none;marker-start:none;marker-end:none;stop-color:#000000;stop-opacity:1"
       id="path4199-12"
       sodipodi:type="arc"
       sodipodi:cx="121.2844"
       sodipodi:cy="226.70494"
       sodipodi:rx="0.93128115"
       sodipodi:ry="0.93128115"
       sodipodi:start="0"
       sodipodi:end="6.2645452"
       sodipodi:open="true"
       sodipodi:arc-type="arc"
       d="m 122.21568,226.70494 a 0.93128115,0.93128115 0 0 1 -0.92694,0.93127 0.93128115,0.93128115 0 0 1 -0.93558,-0.92259 0.93128115,0.93128115 0 0 1 0.91822,-0.93987 0.93128115,0.93128115 0 0 1 0.94414,0.91383" />
    <path
       style="font-variation-settings:normal;opacity:0.99;vector-effect:none;fill:none;fill-opacity:1;fill-rule:evenodd;stroke:#ff9800;stroke-width:0.264583;stroke-linecap:butt;stroke-linejoin:round;stroke-miterlimit:4;stroke-dasharray:none;stroke-dashoffset:0;stroke-opacity:1;-inkscape-stroke:none;marker-start:none;marker-end:none;stop-color:#000000;stop-opacity:1"
       id="path4199-0"
       sodipodi:type="arc"
       sodipodi:cx="118.68546"
       sodipodi:cy="209.70348"
       sodipodi:rx="0.93128115"
       sodipodi:ry="0.93128115"
       sodipodi:start="0"
       sodipodi:end="6.2645452"
       sodipodi:open="true"
       sodipodi:arc-type="arc"
       d="m 119.61674,209.70348 a 0.93128115,0.93128115 0 0 1 -0.92694,0.93127 0.93128115,0.93128115 0 0 1 -0.93558,-0.92259 0.93128115,0.93128115 0 0 1 0.91822,-0.93987 0.93128115,0.93128115 0 0 1 0.94414,0.91383" />
    <path
       style="font-variation-settings:normal;opacity:0.99;vector-effect:none;fill:none;fill-opacity:1;fill-rule:evenodd;stroke:#ff9800;stroke-width:0.264583;stroke-linecap:butt;stroke-linejoin:round;stroke-miterlimit:4;stroke-dasharray:none;stroke-dashoffset:0;stroke-opacity:1;-inkscape-stroke:none;marker-start:none;marker-end:none;stop-color:#000000;stop-opacity:1"
       id="path4199-4"
       sodipodi:type="arc"
       sodipodi:cx="130.05586"
       sodipodi:cy="194.8678"
       sodipodi:rx="0.93128115"
       sodipodi:ry="0.93128115"
       sodipodi:start="0"
       sodipodi:end="6.2645452"
       sodipodi:open="true"
       sodipodi:arc-type="arc"
       d="m 130.98714,194.8678 a 0.93128115,0.93128115 0 0 1 -0.92694,0.93127 0.93128115,0.93128115 0 0 1 -0.93558,-0.92259 0.93128115,0.93128115 0 0 1 0.91822,-0.93987 0.93128115,0.93128115 0 0 1 0.94414,0.91383" />
    <text
       xml:space="preserve"
       style="font-size:4.23333px;line-height:1.25;font-family:sans-serif;text-decoration-color:#000000;letter-spacing:0px;word-spacing:0px;fill:#000000;stroke-width:0.264583;-inkscape-stroke:none;stop-color:#000000"
       x="69.088646"
       y="189.03876"
       id="text4203"><tspan
         sodipodi:role="line"
         id="tspan4201"
         style="stroke-width:0.264583"
         x="69.088646"
         y="189.03876">\(\in F\setminus F^\prime\)</tspan></text>
    <path
       style="font-variation-settings:normal;opacity:0.99;vector-effect:none;fill:#000000;fill-opacity:1;fill-rule:evenodd;stroke:none;stroke-width:0.264567;stroke-linecap:butt;stroke-linejoin:round;stroke-miterlimit:4;stroke-dasharray:none;stroke-dashoffset:0;stroke-opacity:1;-inkscape-stroke:none;marker-start:none;marker-end:none;stop-color:#000000;stop-opacity:1"
       id="path4205"
       sodipodi:type="arc"
       sodipodi:cx="64.227875"
       sodipodi:cy="193.14807"
       sodipodi:rx="0.93128115"
       sodipodi:ry="0.93128115"
       sodipodi:start="0"
       sodipodi:end="6.2645452"
       sodipodi:open="true"
       sodipodi:arc-type="arc"
       d="m 65.159156,193.14807 a 0.93128115,0.93128115 0 0 1 -0.926941,0.93127 0.93128115,0.93128115 0 0 1 -0.935581,-0.92259 0.93128115,0.93128115 0 0 1 0.918222,-0.93987 0.93128115,0.93128115 0 0 1 0.944138,0.91383" />
    <path
       style="font-variation-settings:normal;opacity:0.99;vector-effect:none;fill:#000000;fill-opacity:1;fill-rule:evenodd;stroke:none;stroke-width:0.264567;stroke-linecap:butt;stroke-linejoin:round;stroke-miterlimit:4;stroke-dasharray:none;stroke-dashoffset:0;stroke-opacity:1;-inkscape-stroke:none;marker-start:none;marker-end:none;stop-color:#000000;stop-opacity:1"
       id="path4205-4"
       sodipodi:type="arc"
       sodipodi:cx="110.02229"
       sodipodi:cy="200.06569"
       sodipodi:rx="0.93128115"
       sodipodi:ry="0.93128115"
       sodipodi:start="0"
       sodipodi:end="6.2645452"
       sodipodi:open="true"
       sodipodi:arc-type="arc"
       d="m 110.95357,200.06569 a 0.93128115,0.93128115 0 0 1 -0.92694,0.93127 0.93128115,0.93128115 0 0 1 -0.93558,-0.92259 0.93128115,0.93128115 0 0 1 0.91822,-0.93987 0.93128115,0.93128115 0 0 1 0.94414,0.91383" />
    <path
       style="font-variation-settings:normal;opacity:0.99;vector-effect:none;fill:#000000;fill-opacity:1;fill-rule:evenodd;stroke:none;stroke-width:0.264567;stroke-linecap:butt;stroke-linejoin:round;stroke-miterlimit:4;stroke-dasharray:none;stroke-dashoffset:0;stroke-opacity:1;-inkscape-stroke:none;marker-start:none;marker-end:none;stop-color:#000000;stop-opacity:1"
       id="path4205-4-4"
       sodipodi:type="arc"
       sodipodi:cx="73.178078"
       sodipodi:cy="209.2932"
       sodipodi:rx="0.93128115"
       sodipodi:ry="0.93128115"
       sodipodi:start="0"
       sodipodi:end="6.2645452"
       sodipodi:open="true"
       sodipodi:arc-type="arc"
       d="m 74.109359,209.2932 a 0.93128115,0.93128115 0 0 1 -0.926942,0.93127 0.93128115,0.93128115 0 0 1 -0.93558,-0.92259 0.93128115,0.93128115 0 0 1 0.918222,-0.93987 0.93128115,0.93128115 0 0 1 0.944138,0.91383" />
    <path
       style="font-variation-settings:normal;opacity:0.99;vector-effect:none;fill:#000000;fill-opacity:1;fill-rule:evenodd;stroke:none;stroke-width:0.264567;stroke-linecap:butt;stroke-linejoin:round;stroke-miterlimit:4;stroke-dasharray:none;stroke-dashoffset:0;stroke-opacity:1;-inkscape-stroke:none;marker-start:none;marker-end:none;stop-color:#000000;stop-opacity:1"
       id="path4205-4-1"
       sodipodi:type="arc"
       sodipodi:cx="83.513916"
       sodipodi:cy="198.34196"
       sodipodi:rx="0.93128115"
       sodipodi:ry="0.93128115"
       sodipodi:start="0"
       sodipodi:end="6.2645452"
       sodipodi:open="true"
       sodipodi:arc-type="arc"
       d="m 84.445197,198.34196 a 0.93128115,0.93128115 0 0 1 -0.926941,0.93128 0.93128115,0.93128115 0 0 1 -0.935581,-0.9226 0.93128115,0.93128115 0 0 1 0.918222,-0.93987 0.93128115,0.93128115 0 0 1 0.944138,0.91384" />
    <path
       style="font-variation-settings:normal;opacity:0.99;vector-effect:none;fill:#000000;fill-opacity:1;fill-rule:evenodd;stroke:none;stroke-width:0.264567;stroke-linecap:butt;stroke-linejoin:round;stroke-miterlimit:4;stroke-dasharray:none;stroke-dashoffset:0;stroke-opacity:1;-inkscape-stroke:none;marker-start:none;marker-end:none;stop-color:#000000;stop-opacity:1"
       id="path4205-0"
       sodipodi:type="arc"
       sodipodi:cx="83.707901"
       sodipodi:cy="222.26508"
       sodipodi:rx="0.93128115"
       sodipodi:ry="0.93128115"
       sodipodi:start="0"
       sodipodi:end="6.2645452"
       sodipodi:open="true"
       sodipodi:arc-type="arc"
       d="m 84.639182,222.26508 a 0.93128115,0.93128115 0 0 1 -0.926941,0.93127 0.93128115,0.93128115 0 0 1 -0.935581,-0.92259 0.93128115,0.93128115 0 0 1 0.918222,-0.93987 0.93128115,0.93128115 0 0 1 0.944138,0.91383" />
    <path
       style="font-variation-settings:normal;opacity:0.99;vector-effect:none;fill:#000000;fill-opacity:1;fill-rule:evenodd;stroke:none;stroke-width:0.264567;stroke-linecap:butt;stroke-linejoin:round;stroke-miterlimit:4;stroke-dasharray:none;stroke-dashoffset:0;stroke-opacity:1;-inkscape-stroke:none;marker-start:none;marker-end:none;stop-color:#000000;stop-opacity:1"
       id="path4205-55"
       sodipodi:type="arc"
       sodipodi:cx="76.669067"
       sodipodi:cy="216.30914"
       sodipodi:rx="0.93128115"
       sodipodi:ry="0.93128115"
       sodipodi:start="0"
       sodipodi:end="6.2645452"
       sodipodi:open="true"
       sodipodi:arc-type="arc"
       d="m 77.600349,216.30914 a 0.93128115,0.93128115 0 0 1 -0.926942,0.93127 0.93128115,0.93128115 0 0 1 -0.93558,-0.92259 0.93128115,0.93128115 0 0 1 0.918221,-0.93987 0.93128115,0.93128115 0 0 1 0.944139,0.91383" />
    <path
       style="font-variation-settings:normal;opacity:0.99;vector-effect:none;fill:#000000;fill-opacity:1;fill-rule:evenodd;stroke:none;stroke-width:0.264567;stroke-linecap:butt;stroke-linejoin:round;stroke-miterlimit:4;stroke-dasharray:none;stroke-dashoffset:0;stroke-opacity:1;-inkscape-stroke:none;marker-start:none;marker-end:none;stop-color:#000000;stop-opacity:1"
       id="path4205-6"
       sodipodi:type="arc"
       sodipodi:cx="155.07077"
       sodipodi:cy="223.0231"
       sodipodi:rx="0.93128115"
       sodipodi:ry="0.93128115"
       sodipodi:start="0"
       sodipodi:end="6.2645452"
       sodipodi:open="true"
       sodipodi:arc-type="arc"
       d="m 156.00205,223.0231 a 0.93128115,0.93128115 0 0 1 -0.92694,0.93127 0.93128115,0.93128115 0 0 1 -0.93558,-0.92259 0.93128115,0.93128115 0 0 1 0.91822,-0.93987 0.93128115,0.93128115 0 0 1 0.94414,0.91383" />
    <path
       style="font-variation-settings:normal;opacity:0.99;vector-effect:none;fill:#000000;fill-opacity:1;fill-rule:evenodd;stroke:none;stroke-width:0.264567;stroke-linecap:butt;stroke-linejoin:round;stroke-miterlimit:4;stroke-dasharray:none;stroke-dashoffset:0;stroke-opacity:1;-inkscape-stroke:none;marker-start:none;marker-end:none;stop-color:#000000;stop-opacity:1"
       id="path4205-3"
       sodipodi:type="arc"
       sodipodi:cx="163.62566"
       sodipodi:cy="208.62057"
       sodipodi:rx="0.93128115"
       sodipodi:ry="0.93128115"
       sodipodi:start="0"
       sodipodi:end="6.2645452"
       sodipodi:open="true"
       sodipodi:arc-type="arc"
       d="m 164.55694,208.62057 a 0.93128115,0.93128115 0 0 1 -0.92694,0.93128 0.93128115,0.93128115 0 0 1 -0.93558,-0.9226 0.93128115,0.93128115 0 0 1 0.91822,-0.93987 0.93128115,0.93128115 0 0 1 0.94414,0.91384" />
    <path
       style="font-variation-settings:normal;opacity:0.99;vector-effect:none;fill:#000000;fill-opacity:1;fill-rule:evenodd;stroke:none;stroke-width:0.264567;stroke-linecap:butt;stroke-linejoin:round;stroke-miterlimit:4;stroke-dasharray:none;stroke-dashoffset:0;stroke-opacity:1;-inkscape-stroke:none;marker-start:none;marker-end:none;stop-color:#000000;stop-opacity:1"
       id="path4205-2"
       sodipodi:type="arc"
       sodipodi:cx="150.41432"
       sodipodi:cy="195.40924"
       sodipodi:rx="0.93128115"
       sodipodi:ry="0.93128115"
       sodipodi:start="0"
       sodipodi:end="6.2645452"
       sodipodi:open="true"
       sodipodi:arc-type="arc"
       d="m 151.3456,195.40924 a 0.93128115,0.93128115 0 0 1 -0.92694,0.93127 0.93128115,0.93128115 0 0 1 -0.93558,-0.92259 0.93128115,0.93128115 0 0 1 0.91822,-0.93987 0.93128115,0.93128115 0 0 1 0.94414,0.91383" />
    <path
       style="font-variation-settings:normal;opacity:0.99;vector-effect:none;fill:#000000;fill-opacity:1;fill-rule:evenodd;stroke:none;stroke-width:0.264567;stroke-linecap:butt;stroke-linejoin:round;stroke-miterlimit:4;stroke-dasharray:none;stroke-dashoffset:0;stroke-opacity:1;-inkscape-stroke:none;marker-start:none;marker-end:none;stop-color:#000000;stop-opacity:1"
       id="path4205-5"
       sodipodi:type="arc"
       sodipodi:cx="102.33372"
       sodipodi:cy="215.11795"
       sodipodi:rx="0.93128115"
       sodipodi:ry="0.93128115"
       sodipodi:start="0"
       sodipodi:end="6.2645452"
       sodipodi:open="true"
       sodipodi:arc-type="arc"
       d="m 103.265,215.11795 a 0.93128115,0.93128115 0 0 1 -0.92694,0.93127 0.93128115,0.93128115 0 0 1 -0.93558,-0.92259 0.93128115,0.93128115 0 0 1 0.91822,-0.93987 0.93128115,0.93128115 0 0 1 0.94414,0.91383" />
    <path
       style="font-variation-settings:normal;opacity:0.99;vector-effect:none;fill:#000000;fill-opacity:1;fill-rule:evenodd;stroke:none;stroke-width:0.264567;stroke-linecap:butt;stroke-linejoin:round;stroke-miterlimit:4;stroke-dasharray:none;stroke-dashoffset:0;stroke-opacity:1;-inkscape-stroke:none;marker-start:none;marker-end:none;stop-color:#000000;stop-opacity:1"
       id="path4205-9"
       sodipodi:type="arc"
       sodipodi:cx="122.15073"
       sodipodi:cy="181.76476"
       sodipodi:rx="0.93128115"
       sodipodi:ry="0.93128115"
       sodipodi:start="0"
       sodipodi:end="6.2645452"
       sodipodi:open="true"
       sodipodi:arc-type="arc"
       d="m 123.08201,181.76476 a 0.93128115,0.93128115 0 0 1 -0.92694,0.93127 0.93128115,0.93128115 0 0 1 -0.93558,-0.9226 0.93128115,0.93128115 0 0 1 0.91822,-0.93986 0.93128115,0.93128115 0 0 1 0.94414,0.91383" />
    <path
       style="font-variation-settings:normal;opacity:0.99;vector-effect:none;fill:#000000;fill-opacity:1;fill-rule:evenodd;stroke:none;stroke-width:0.264567;stroke-linecap:butt;stroke-linejoin:round;stroke-miterlimit:4;stroke-dasharray:none;stroke-dashoffset:0;stroke-opacity:1;-inkscape-stroke:none;marker-start:none;marker-end:none;stop-color:#000000;stop-opacity:1"
       id="path4205-7"
       sodipodi:type="arc"
       sodipodi:cx="127.6735"
       sodipodi:cy="203.74754"
       sodipodi:rx="0.93128115"
       sodipodi:ry="0.93128115"
       sodipodi:start="0"
       sodipodi:end="6.2645452"
       sodipodi:open="true"
       sodipodi:arc-type="arc"
       d="m 128.60478,203.74754 a 0.93128115,0.93128115 0 0 1 -0.92694,0.93127 0.93128115,0.93128115 0 0 1 -0.93558,-0.92259 0.93128115,0.93128115 0 0 1 0.91822,-0.93987 0.93128115,0.93128115 0 0 1 0.94414,0.91384" />
    <path
       style="font-variation-settings:normal;opacity:0.99;vector-effect:none;fill:#000000;fill-opacity:1;fill-rule:evenodd;stroke:none;stroke-width:0.264567;stroke-linecap:butt;stroke-linejoin:round;stroke-miterlimit:4;stroke-dasharray:none;stroke-dashoffset:0;stroke-opacity:1;-inkscape-stroke:none;marker-start:none;marker-end:none;stop-color:#000000;stop-opacity:1"
       id="path4205-53"
       sodipodi:type="arc"
       sodipodi:cx="127.78178"
       sodipodi:cy="221.0739"
       sodipodi:rx="0.93128115"
       sodipodi:ry="0.93128115"
       sodipodi:start="0"
       sodipodi:end="6.2645452"
       sodipodi:open="true"
       sodipodi:arc-type="arc"
       d="m 128.71306,221.0739 a 0.93128115,0.93128115 0 0 1 -0.92694,0.93127 0.93128115,0.93128115 0 0 1 -0.93558,-0.92259 0.93128115,0.93128115 0 0 1 0.91822,-0.93987 0.93128115,0.93128115 0 0 1 0.94414,0.91383" />
    <text
       xml:space="preserve"
       style="font-size:4.23333px;line-height:1.25;font-family:sans-serif;text-decoration-color:#000000;letter-spacing:0px;word-spacing:0px;fill:#000000;stroke-width:0.264583;-inkscape-stroke:none;stop-color:#000000"
       x="69.088646"
       y="194.33043"
       id="text4209"><tspan
         sodipodi:role="line"
         id="tspan4207"
         style="stroke-width:0.264583"
         x="69.088646"
         y="194.33043">\(\notin F\)</tspan></text>
    <text
       xml:space="preserve"
       style="font-size:4.23333px;line-height:1.25;font-family:sans-serif;text-decoration-color:#000000;letter-spacing:0px;word-spacing:0px;fill:#000000;stroke-width:0.264583;-inkscape-stroke:none;stop-color:#000000"
       x="111.1889"
       y="187.93726"
       id="text6665"><tspan
         sodipodi:role="line"
         id="tspan6663"
         style="stroke-width:0.264583"
         x="111.1889"
         y="187.93726">\(v_j\)</tspan></text>
    <text
       xml:space="preserve"
       style="font-size:4.23333px;line-height:1.25;font-family:sans-serif;text-decoration-color:#000000;letter-spacing:0px;word-spacing:0px;fill:#000000;stroke-width:0.264583;-inkscape-stroke:none;stop-color:#000000"
       x="31.597494"
       y="205.28571"
       id="text8897"><tspan
         sodipodi:role="line"
         id="tspan8895"
         style="stroke-width:0.264583"
         x="31.597494"
         y="205.28571">problematic cycle</tspan><tspan
         sodipodi:role="line"
         style="stroke-width:0.264583"
         x="31.597494"
         y="210.57736"
         id="tspan1380">(can't exist)</tspan></text>
  </g>
</svg>
