<?xml version="1.0" encoding="UTF-8" standalone="no"?>
<!-- Created with Inkscape (http://www.inkscape.org/) -->

<svg
   width="240mm"
   height="49mm"
   viewBox="0 0 240 49"
   version="1.1"
   id="svg8"
   inkscape:version="1.1.1 (c3084ef, 2021-09-22)"
   sodipodi:docname="fbv-line-segment.svg"
   xmlns:inkscape="http://www.inkscape.org/namespaces/inkscape"
   xmlns:sodipodi="http://sodipodi.sourceforge.net/DTD/sodipodi-0.dtd"
   xmlns="http://www.w3.org/2000/svg"
   xmlns:svg="http://www.w3.org/2000/svg"
   xmlns:rdf="http://www.w3.org/1999/02/22-rdf-syntax-ns#"
   xmlns:cc="http://creativecommons.org/ns#"
   xmlns:dc="http://purl.org/dc/elements/1.1/">
  <defs
     id="defs2">
    <inkscape:path-effect
       effect="spiro"
       id="path-effect5934"
       is_visible="true"
       lpeversion="1" />
    <inkscape:path-effect
       effect="spiro"
       id="path-effect5875"
       is_visible="true"
       lpeversion="1" />
    <inkscape:path-effect
       effect="spiro"
       id="path-effect5372"
       is_visible="true"
       lpeversion="1" />
    <inkscape:path-effect
       effect="spiro"
       id="path-effect4990"
       is_visible="true"
       lpeversion="1" />
    <inkscape:path-effect
       effect="spiro"
       id="path-effect4931"
       is_visible="true"
       lpeversion="1" />
    <inkscape:path-effect
       effect="spiro"
       id="path-effect4839"
       is_visible="true"
       lpeversion="1" />
    <inkscape:path-effect
       effect="spiro"
       id="path-effect2770"
       is_visible="true"
       lpeversion="1" />
    <inkscape:path-effect
       effect="spiro"
       id="path-effect2711"
       is_visible="true"
       lpeversion="1" />
    <inkscape:path-effect
       effect="spiro"
       id="path-effect1692"
       is_visible="true"
       lpeversion="1" />
    <inkscape:path-effect
       effect="spiro"
       id="path-effect1688"
       is_visible="true"
       lpeversion="1" />
    <inkscape:path-effect
       effect="spiro"
       id="path-effect1563"
       is_visible="true"
       lpeversion="1" />
    <inkscape:path-effect
       effect="spiro"
       id="path-effect1535"
       is_visible="true"
       lpeversion="1" />
    <inkscape:path-effect
       effect="spiro"
       id="path-effect1482"
       is_visible="true"
       lpeversion="1" />
    <inkscape:path-effect
       effect="spiro"
       id="path-effect1462"
       is_visible="true"
       lpeversion="1" />
    <inkscape:path-effect
       effect="spiro"
       id="path-effect1206"
       is_visible="true"
       lpeversion="1" />
    <inkscape:path-effect
       effect="spiro"
       id="path-effect1054"
       is_visible="true"
       lpeversion="1" />
    <marker
       id="marker-arrow-1"
       orient="auto-start-reverse"
       refY="0"
       refX="0"
       markerHeight="3"
       markerWidth="2">
      <g
         transform="scale(1.3933333)"
         id="g2715"><path
   d="M -1.55415,2.0722 C -1.42464,1.29512 0,0.1295 0.38852,0 0,-0.1295 -1.42464,-1.29512 -1.55415,-2.0722"
   style="fill:none;stroke:#000000;stroke-linecap:round;stroke-linejoin:round;stroke-miterlimit:10;stroke-dasharray:none;stroke-opacity:1"
   id="path2713" />
0&quot; /&gt;
   </g>
    </marker>
    <marker
       id="marker-arrow-1-6"
       orient="auto-start-reverse"
       refY="0"
       refX="0"
       markerHeight="3"
       markerWidth="2">
      <g
         transform="scale(1.3933333)"
         id="g2774"><path
   d="M -1.55415,2.0722 C -1.42464,1.29512 0,0.1295 0.38852,0 0,-0.1295 -1.42464,-1.29512 -1.55415,-2.0722"
   style="fill:none;stroke:#000000;stroke-linecap:round;stroke-linejoin:round;stroke-miterlimit:10;stroke-dasharray:none;stroke-opacity:1"
   id="path2772" />
0&quot; /&gt;
   </g>
    </marker>
    <marker
       id="marker-arrow-1-4"
       orient="auto-start-reverse"
       refY="0"
       refX="0"
       markerHeight="3"
       markerWidth="2">
      <g
         transform="scale(1.3933333)"
         id="g4843"><path
   d="M -1.55415,2.0722 C -1.42464,1.29512 0,0.1295 0.38852,0 0,-0.1295 -1.42464,-1.29512 -1.55415,-2.0722"
   style="fill:none;stroke:#000000;stroke-linecap:round;stroke-linejoin:round;stroke-miterlimit:10;stroke-dasharray:none;stroke-opacity:1"
   id="path4841" />
0&quot; /&gt;
   </g>
    </marker>
    <marker
       id="marker-arrow-1-7"
       orient="auto-start-reverse"
       refY="0"
       refX="0"
       markerHeight="3"
       markerWidth="2">
      <g
         transform="scale(1.3933333)"
         id="g4935"><path
   d="M -1.55415,2.0722 C -1.42464,1.29512 0,0.1295 0.38852,0 0,-0.1295 -1.42464,-1.29512 -1.55415,-2.0722"
   style="fill:none;stroke:#000000;stroke-linecap:round;stroke-linejoin:round;stroke-miterlimit:10;stroke-dasharray:none;stroke-opacity:1"
   id="path4933" />
0&quot; /&gt;
   </g>
    </marker>
    <marker
       id="marker-arrow-1-9"
       orient="auto-start-reverse"
       refY="0"
       refX="0"
       markerHeight="3"
       markerWidth="2">
      <g
         transform="scale(1.3933333)"
         id="g4994"><path
   d="M -1.55415,2.0722 C -1.42464,1.29512 0,0.1295 0.38852,0 0,-0.1295 -1.42464,-1.29512 -1.55415,-2.0722"
   style="fill:none;stroke:#000000;stroke-linecap:round;stroke-linejoin:round;stroke-miterlimit:10;stroke-dasharray:none;stroke-opacity:1"
   id="path4992" />
0&quot; /&gt;
   </g>
    </marker>
    <marker
       id="marker-arrow-1-95"
       orient="auto-start-reverse"
       refY="0"
       refX="0"
       markerHeight="3"
       markerWidth="2">
      <g
         transform="scale(1.3933333)"
         id="g5376"><path
   d="M -1.55415,2.0722 C -1.42464,1.29512 0,0.1295 0.38852,0 0,-0.1295 -1.42464,-1.29512 -1.55415,-2.0722"
   style="fill:none;stroke:#000000;stroke-linecap:round;stroke-linejoin:round;stroke-miterlimit:10;stroke-dasharray:none;stroke-opacity:1"
   id="path5374" />
0&quot; /&gt;
   </g>
    </marker>
    <marker
       id="marker-arrow-1-0"
       orient="auto-start-reverse"
       refY="0"
       refX="0"
       markerHeight="3"
       markerWidth="2">
      <g
         transform="scale(1.3933333)"
         id="g5879"><path
   d="M -1.55415,2.0722 C -1.42464,1.29512 0,0.1295 0.38852,0 0,-0.1295 -1.42464,-1.29512 -1.55415,-2.0722"
   style="fill:none;stroke:#000000;stroke-linecap:round;stroke-linejoin:round;stroke-miterlimit:10;stroke-dasharray:none;stroke-opacity:1"
   id="path5877" />
0&quot; /&gt;
   </g>
    </marker>
    <marker
       id="marker-arrow-1-00"
       orient="auto-start-reverse"
       refY="0"
       refX="0"
       markerHeight="3"
       markerWidth="2">
      <g
         transform="scale(1.3933333)"
         id="g5938"><path
   d="M -1.55415,2.0722 C -1.42464,1.29512 0,0.1295 0.38852,0 0,-0.1295 -1.42464,-1.29512 -1.55415,-2.0722"
   style="fill:none;stroke:#000000;stroke-linecap:round;stroke-linejoin:round;stroke-miterlimit:10;stroke-dasharray:none;stroke-opacity:1"
   id="path5936" />
0&quot; /&gt;
   </g>
    </marker>
  </defs>
  <sodipodi:namedview
     id="base"
     pagecolor="#ffffff"
     bordercolor="#666666"
     borderopacity="1.0"
     inkscape:pageopacity="0.0"
     inkscape:pageshadow="2"
     inkscape:zoom="1.6901073"
     inkscape:cx="415.0624"
     inkscape:cy="54.138574"
     inkscape:document-units="mm"
     inkscape:current-layer="layer1"
     showgrid="false"
     showborder="true"
     width="200mm"
     showguides="true"
     inkscape:guide-bbox="true"
     inkscape:window-width="1280"
     inkscape:window-height="680"
     inkscape:window-x="1728"
     inkscape:window-y="355"
     inkscape:window-maximized="0"
     inkscape:pagecheckerboard="0">
    <inkscape:grid
       type="xygrid"
       id="grid815"
       units="mm"
       spacingx="10"
       spacingy="10"
       empspacing="4"
       dotted="false" />
  </sodipodi:namedview>
  <metadata
     id="metadata5">
    <rdf:RDF>
      <cc:Work
         rdf:about="">
        <dc:format>image/svg+xml</dc:format>
        <dc:type
           rdf:resource="http://purl.org/dc/dcmitype/StillImage" />
      </cc:Work>
    </rdf:RDF>
  </metadata>
  <g
     inkscape:label="Layer 1"
     inkscape:groupmode="layer"
     id="layer1"
     transform="translate(0,-177)">
    <path
       style="font-variation-settings:normal;opacity:0.99;vector-effect:none;fill:none;fill-opacity:1;fill-rule:evenodd;stroke:#000000;stroke-width:0.264567;stroke-linecap:butt;stroke-linejoin:round;stroke-miterlimit:4;stroke-dasharray:none;stroke-dashoffset:0;stroke-opacity:1;-inkscape-stroke:none;stop-color:#000000;stop-opacity:1"
       id="path845"
       sodipodi:type="arc"
       sodipodi:cx="103.51308"
       sodipodi:cy="182.72972"
       sodipodi:rx="1.4634418"
       sodipodi:ry="1.4634418"
       sodipodi:start="0"
       sodipodi:end="6.2645452"
       sodipodi:open="true"
       sodipodi:arc-type="arc"
       d="m 104.97652,182.72972 a 1.4634418,1.4634418 0 0 1 -1.45662,1.46343 1.4634418,1.4634418 0 0 1 -1.4702,-1.44979 1.4634418,1.4634418 0 0 1 1.44292,-1.47694 1.4634418,1.4634418 0 0 1 1.48364,1.43602" />
    <path
       style="font-variation-settings:normal;opacity:0.99;vector-effect:none;fill:none;fill-opacity:1;fill-rule:evenodd;stroke:#ff9800;stroke-width:0.264567;stroke-linecap:butt;stroke-linejoin:round;stroke-miterlimit:4;stroke-dasharray:none;stroke-dashoffset:0;stroke-opacity:1;-inkscape-stroke:none;stop-color:#000000;stop-opacity:1"
       id="path845-2"
       sodipodi:type="arc"
       sodipodi:cx="146.29735"
       sodipodi:cy="182.25853"
       sodipodi:rx="1.4634418"
       sodipodi:ry="1.4634418"
       sodipodi:start="0"
       sodipodi:end="6.2645452"
       sodipodi:open="true"
       sodipodi:arc-type="arc"
       d="m 147.76079,182.25853 a 1.4634418,1.4634418 0 0 1 -1.45662,1.46343 1.4634418,1.4634418 0 0 1 -1.4702,-1.44979 1.4634418,1.4634418 0 0 1 1.44292,-1.47694 1.4634418,1.4634418 0 0 1 1.48365,1.43602" />
    <path
       style="font-variation-settings:normal;opacity:0.99;vector-effect:none;fill:none;fill-opacity:1;fill-rule:evenodd;stroke:#000000;stroke-width:0.264567;stroke-linecap:butt;stroke-linejoin:round;stroke-miterlimit:4;stroke-dasharray:none;stroke-dashoffset:0;stroke-opacity:1;-inkscape-stroke:none;stop-color:#000000;stop-opacity:1"
       id="path845-4"
       sodipodi:type="arc"
       sodipodi:cx="92.483139"
       sodipodi:cy="211.7075"
       sodipodi:rx="1.4634418"
       sodipodi:ry="1.4634418"
       sodipodi:start="0"
       sodipodi:end="6.2645452"
       sodipodi:open="true"
       sodipodi:arc-type="arc"
       d="m 93.946581,211.7075 a 1.4634418,1.4634418 0 0 1 -1.456622,1.46343 1.4634418,1.4634418 0 0 1 -1.470198,-1.44979 1.4634418,1.4634418 0 0 1 1.44292,-1.47693 1.4634418,1.4634418 0 0 1 1.483646,1.43602" />
    <path
       style="font-variation-settings:normal;opacity:0.99;vector-effect:none;fill:none;fill-opacity:1;fill-rule:evenodd;stroke:#000000;stroke-width:0.264567;stroke-linecap:butt;stroke-linejoin:round;stroke-miterlimit:4;stroke-dasharray:none;stroke-dashoffset:0;stroke-opacity:1;-inkscape-stroke:none;stop-color:#000000;stop-opacity:1"
       id="path845-8"
       sodipodi:type="arc"
       sodipodi:cx="125.13407"
       sodipodi:cy="209.39217"
       sodipodi:rx="1.4634418"
       sodipodi:ry="1.4634418"
       sodipodi:start="0"
       sodipodi:end="6.2645452"
       sodipodi:open="true"
       sodipodi:arc-type="arc"
       d="m 126.59751,209.39217 a 1.4634418,1.4634418 0 0 1 -1.45662,1.46342 1.4634418,1.4634418 0 0 1 -1.4702,-1.44978 1.4634418,1.4634418 0 0 1 1.44292,-1.47694 1.4634418,1.4634418 0 0 1 1.48365,1.43602" />
    <path
       style="font-variation-settings:normal;opacity:0.99;vector-effect:none;fill:none;fill-opacity:1;fill-rule:evenodd;stroke:#000000;stroke-width:0.264567;stroke-linecap:butt;stroke-linejoin:round;stroke-miterlimit:4;stroke-dasharray:none;stroke-dashoffset:0;stroke-opacity:1;-inkscape-stroke:none;stop-color:#000000;stop-opacity:1"
       id="path845-3"
       sodipodi:type="arc"
       sodipodi:cx="111.7151"
       sodipodi:cy="222.73857"
       sodipodi:rx="1.4634418"
       sodipodi:ry="1.4634418"
       sodipodi:start="0"
       sodipodi:end="6.2645452"
       sodipodi:open="true"
       sodipodi:arc-type="arc"
       d="m 113.17854,222.73857 a 1.4634418,1.4634418 0 0 1 -1.45662,1.46343 1.4634418,1.4634418 0 0 1 -1.4702,-1.44979 1.4634418,1.4634418 0 0 1 1.44292,-1.47694 1.4634418,1.4634418 0 0 1 1.48365,1.43602" />
    <path
       style="font-variation-settings:normal;opacity:0.99;vector-effect:none;fill:#000000;fill-opacity:1;fill-rule:evenodd;stroke:none;stroke-width:0.264567;stroke-linecap:butt;stroke-linejoin:round;stroke-miterlimit:4;stroke-dasharray:none;stroke-dashoffset:0;stroke-opacity:1;-inkscape-stroke:none;marker-start:none;marker-end:none;stop-color:#000000;stop-opacity:1"
       id="path845-27-36"
       sodipodi:type="arc"
       sodipodi:cx="118.90166"
       sodipodi:cy="216.56676"
       sodipodi:rx="0.93128115"
       sodipodi:ry="0.93128115"
       sodipodi:start="0"
       sodipodi:end="6.2645452"
       sodipodi:open="true"
       sodipodi:arc-type="arc"
       d="m 119.83294,216.56676 a 0.93128115,0.93128115 0 0 1 -0.92694,0.93127 0.93128115,0.93128115 0 0 1 -0.93558,-0.92259 0.93128115,0.93128115 0 0 1 0.91822,-0.93987 0.93128115,0.93128115 0 0 1 0.94414,0.91383" />
    <path
       style="font-variation-settings:normal;opacity:0.99;vector-effect:none;fill:#000000;fill-opacity:1;fill-rule:evenodd;stroke:none;stroke-width:0.264567;stroke-linecap:butt;stroke-linejoin:round;stroke-miterlimit:4;stroke-dasharray:none;stroke-dashoffset:0;stroke-opacity:1;-inkscape-stroke:none;marker-start:none;marker-end:none;stop-color:#000000;stop-opacity:1"
       id="path845-5"
       sodipodi:type="arc"
       sodipodi:cx="124.74036"
       sodipodi:cy="178.91499"
       sodipodi:rx="0.93128115"
       sodipodi:ry="0.93128115"
       sodipodi:start="0"
       sodipodi:end="6.2645452"
       sodipodi:open="true"
       sodipodi:arc-type="arc"
       d="m 125.67164,178.91499 a 0.93128115,0.93128115 0 0 1 -0.92694,0.93127 0.93128115,0.93128115 0 0 1 -0.93558,-0.92259 0.93128115,0.93128115 0 0 1 0.91822,-0.93987 0.93128115,0.93128115 0 0 1 0.94414,0.91384" />
    <path
       style="font-variation-settings:normal;opacity:0.99;vector-effect:none;fill:#000000;fill-opacity:1;fill-rule:evenodd;stroke:none;stroke-width:0.264567;stroke-linecap:butt;stroke-linejoin:round;stroke-miterlimit:4;stroke-dasharray:none;stroke-dashoffset:0;stroke-opacity:1;-inkscape-stroke:none;marker-start:none;marker-end:none;stop-color:#000000;stop-opacity:1"
       id="path845-27"
       sodipodi:type="arc"
       sodipodi:cx="111.90792"
       sodipodi:cy="180.52953"
       sodipodi:rx="0.93128115"
       sodipodi:ry="0.93128115"
       sodipodi:start="0"
       sodipodi:end="6.2645452"
       sodipodi:open="true"
       sodipodi:arc-type="arc"
       d="m 112.8392,180.52953 a 0.93128115,0.93128115 0 0 1 -0.92694,0.93127 0.93128115,0.93128115 0 0 1 -0.93558,-0.92259 0.93128115,0.93128115 0 0 1 0.91822,-0.93987 0.93128115,0.93128115 0 0 1 0.94414,0.91383" />
    <path
       style="font-variation-settings:normal;opacity:0.99;vector-effect:none;fill:#000000;fill-opacity:1;fill-rule:evenodd;stroke:none;stroke-width:0.264567;stroke-linecap:butt;stroke-linejoin:round;stroke-miterlimit:4;stroke-dasharray:none;stroke-dashoffset:0;stroke-opacity:1;-inkscape-stroke:none;marker-start:none;marker-end:none;stop-color:#000000;stop-opacity:1"
       id="path845-27-58"
       sodipodi:type="arc"
       sodipodi:cx="92.994446"
       sodipodi:cy="199.23706"
       sodipodi:rx="0.93128115"
       sodipodi:ry="0.93128115"
       sodipodi:start="0"
       sodipodi:end="6.2645452"
       sodipodi:open="true"
       sodipodi:arc-type="arc"
       d="m 93.925727,199.23706 a 0.93128115,0.93128115 0 0 1 -0.926941,0.93127 0.93128115,0.93128115 0 0 1 -0.935581,-0.92259 0.93128115,0.93128115 0 0 1 0.918222,-0.93987 0.93128115,0.93128115 0 0 1 0.944138,0.91383" />
    <path
       style="font-variation-settings:normal;opacity:0.99;vector-effect:none;fill:#000000;fill-opacity:1;fill-rule:evenodd;stroke:none;stroke-width:0.264567;stroke-linecap:butt;stroke-linejoin:round;stroke-miterlimit:4;stroke-dasharray:none;stroke-dashoffset:0;stroke-opacity:1;-inkscape-stroke:none;marker-start:none;marker-end:none;stop-color:#000000;stop-opacity:1"
       id="path845-3-5"
       sodipodi:type="arc"
       sodipodi:cx="136.93269"
       sodipodi:cy="179.90424"
       sodipodi:rx="0.93128115"
       sodipodi:ry="0.93128115"
       sodipodi:start="0"
       sodipodi:end="6.2645452"
       sodipodi:open="true"
       sodipodi:arc-type="arc"
       d="m 137.86397,179.90424 a 0.93128115,0.93128115 0 0 1 -0.92694,0.93127 0.93128115,0.93128115 0 0 1 -0.93558,-0.92259 0.93128115,0.93128115 0 0 1 0.91822,-0.93987 0.93128115,0.93128115 0 0 1 0.94414,0.91383" />
    <path
       style="fill:none;stroke:#000000;stroke-width:0.264583px;stroke-linecap:butt;stroke-linejoin:miter;stroke-opacity:1"
       d="m 104.97627,182.70244 c 5.00046,-1.81109 10.23685,-2.96958 15.53461,-3.43686 8.18578,-0.72201 16.51472,0.21912 24.33299,2.74949"
       id="path1052"
       inkscape:path-effect="#path-effect1054"
       inkscape:original-d="m 104.97627,182.70244 c 5.17847,-1.14536 10.35667,-2.29098 15.53461,-3.43686 5.17794,-1.14589 16.22225,1.83326 24.33299,2.74949" />
    <path
       style="fill:none;stroke:#000000;stroke-width:0.264583px;stroke-linecap:butt;stroke-linejoin:miter;stroke-opacity:1"
       d="m 102.35051,183.91101 c -4.836647,4.24927 -8.267506,10.0727 -9.640102,16.3628 -0.707187,3.24078 -0.879336,6.59767 -0.507375,9.89379"
       id="path1204"
       inkscape:path-effect="#path-effect1206"
       inkscape:original-d="m 102.35051,183.91101 c -3.213103,5.45453 -6.42647,10.9088 -9.640102,16.3628 -3.213631,5.45401 -0.337984,6.59613 -0.507375,9.89379" />
    <path
       style="fill:none;stroke:#000000;stroke-width:0.264583px;stroke-linecap:butt;stroke-linejoin:miter;stroke-opacity:1"
       d="M 93.946327,211.68022 123.39279,209.8915"
       id="path1460"
       inkscape:path-effect="#path-effect1462"
       inkscape:original-d="m 93.946327,211.68022 c 9.815753,-0.59598 19.631243,-1.19221 29.446463,-1.78872" />
    <path
       style="font-variation-settings:normal;opacity:0.99;vector-effect:none;fill:#000000;fill-opacity:1;fill-rule:evenodd;stroke:none;stroke-width:0.264567;stroke-linecap:butt;stroke-linejoin:round;stroke-miterlimit:4;stroke-dasharray:none;stroke-dashoffset:0;stroke-opacity:1;-inkscape-stroke:none;marker-start:none;marker-end:none;stop-color:#000000;stop-opacity:1"
       id="path845-27-3"
       sodipodi:type="arc"
       sodipodi:cx="115.12816"
       sodipodi:cy="210.40805"
       sodipodi:rx="0.93128115"
       sodipodi:ry="0.93128115"
       sodipodi:start="0"
       sodipodi:end="6.2645452"
       sodipodi:open="true"
       sodipodi:arc-type="arc"
       d="m 116.05944,210.40805 a 0.93128115,0.93128115 0 0 1 -0.92694,0.93127 0.93128115,0.93128115 0 0 1 -0.93558,-0.92259 0.93128115,0.93128115 0 0 1 0.91822,-0.93987 0.93128115,0.93128115 0 0 1 0.94414,0.91383" />
    <path
       style="fill:none;stroke:#000000;stroke-width:0.264583px;stroke-linecap:butt;stroke-linejoin:miter;stroke-opacity:1"
       d="m 104.35701,183.96663 20.03076,23.97312"
       id="path1480"
       inkscape:path-effect="#path-effect1482"
       inkscape:original-d="m 104.35701,183.96663 c 6.67719,7.9913 13.3541,15.98234 20.03076,23.97312" />
    <path
       style="font-variation-settings:normal;opacity:0.99;vector-effect:none;fill:#000000;fill-opacity:1;fill-rule:evenodd;stroke:none;stroke-width:0.264567;stroke-linecap:butt;stroke-linejoin:round;stroke-miterlimit:4;stroke-dasharray:none;stroke-dashoffset:0;stroke-opacity:1;-inkscape-stroke:none;marker-start:none;marker-end:none;stop-color:#000000;stop-opacity:1"
       id="path845-27-0"
       sodipodi:type="arc"
       sodipodi:cx="119.39032"
       sodipodi:cy="201.97789"
       sodipodi:rx="0.93128115"
       sodipodi:ry="0.93128115"
       sodipodi:start="0"
       sodipodi:end="6.2645452"
       sodipodi:open="true"
       sodipodi:arc-type="arc"
       d="m 120.3216,201.97789 a 0.93128115,0.93128115 0 0 1 -0.92694,0.93127 0.93128115,0.93128115 0 0 1 -0.93558,-0.92259 0.93128115,0.93128115 0 0 1 0.91822,-0.93987 0.93128115,0.93128115 0 0 1 0.94414,0.91383" />
    <path
       style="fill:none;stroke:#000000;stroke-width:0.264583px;stroke-linecap:butt;stroke-linejoin:miter;stroke-opacity:1"
       d="m 145.605,183.74158 -19.55873,24.43951"
       id="path1533"
       inkscape:path-effect="#path-effect1535"
       inkscape:original-d="m 145.605,183.74158 c -6.51932,8.14677 -13.03888,16.29327 -19.55873,24.43951" />
    <path
       style="font-variation-settings:normal;opacity:0.99;vector-effect:none;fill:#000000;fill-opacity:1;fill-rule:evenodd;stroke:none;stroke-width:0.264567;stroke-linecap:butt;stroke-linejoin:round;stroke-miterlimit:4;stroke-dasharray:none;stroke-dashoffset:0;stroke-opacity:1;-inkscape-stroke:none;marker-start:none;marker-end:none;stop-color:#000000;stop-opacity:1"
       id="path845-27-32"
       sodipodi:type="arc"
       sodipodi:cx="140.70255"
       sodipodi:cy="189.93187"
       sodipodi:rx="0.93128115"
       sodipodi:ry="0.93128115"
       sodipodi:start="0"
       sodipodi:end="6.2645452"
       sodipodi:open="true"
       sodipodi:arc-type="arc"
       d="m 141.63383,189.93187 a 0.93128115,0.93128115 0 0 1 -0.92695,0.93127 0.93128115,0.93128115 0 0 1 -0.93558,-0.92259 0.93128115,0.93128115 0 0 1 0.91823,-0.93987 0.93128115,0.93128115 0 0 1 0.94413,0.91383" />
    <path
       style="font-variation-settings:normal;opacity:0.99;vector-effect:none;fill:#000000;fill-opacity:1;fill-rule:evenodd;stroke:none;stroke-width:0.264567;stroke-linecap:butt;stroke-linejoin:round;stroke-miterlimit:4;stroke-dasharray:none;stroke-dashoffset:0;stroke-opacity:1;-inkscape-stroke:none;marker-start:none;marker-end:none;stop-color:#000000;stop-opacity:1"
       id="path845-27-9"
       sodipodi:type="arc"
       sodipodi:cx="131.78876"
       sodipodi:cy="200.86736"
       sodipodi:rx="0.93128115"
       sodipodi:ry="0.93128115"
       sodipodi:start="0"
       sodipodi:end="6.2645452"
       sodipodi:open="true"
       sodipodi:arc-type="arc"
       d="m 132.72004,200.86736 a 0.93128115,0.93128115 0 0 1 -0.92694,0.93127 0.93128115,0.93128115 0 0 1 -0.93558,-0.9226 0.93128115,0.93128115 0 0 1 0.91822,-0.93986 0.93128115,0.93128115 0 0 1 0.94414,0.91383" />
    <path
       style="fill:none;stroke:#000000;stroke-width:0.264583px;stroke-linecap:butt;stroke-linejoin:miter;stroke-opacity:1"
       d="m 125.08495,210.8165 -11.90666,11.35485"
       id="path1561"
       inkscape:path-effect="#path-effect1563"
       inkscape:original-d="m 125.08495,210.8165 c -3.96861,3.78522 -7.9375,7.57017 -11.90666,11.35485" />
    <path
       style="fill:none;stroke:#000000;stroke-width:0.264583px;stroke-linecap:butt;stroke-linejoin:miter;stroke-opacity:1"
       d="m 92.588724,213.20315 c 2.445038,2.5951 5.313098,4.79074 8.456366,6.47378 2.86486,1.53396 5.95717,2.64227 9.1442,3.27734"
       id="path1686"
       inkscape:path-effect="#path-effect1688"
       inkscape:original-d="m 92.588724,213.20315 c 2.819053,2.15819 5.637842,4.31612 8.456366,6.47378 2.81852,2.15766 6.0964,2.18516 9.1442,3.27734" />
    <path
       style="fill:none;stroke:#000000;stroke-width:0.264583px;stroke-linecap:butt;stroke-linejoin:miter;stroke-opacity:1"
       d="m 113.17829,222.71129 c 10.91447,-0.65134 21.40384,-6.50503 27.68885,-15.45201 4.81737,-6.85773 7.16579,-15.41225 6.52497,-23.76838"
       id="path1690"
       inkscape:path-effect="#path-effect1692"
       inkscape:original-d="m 113.17829,222.71129 c 10.10042,-4.74074 17.58896,-10.71074 27.68885,-15.45201 10.0999,-4.74126 5.22078,-15.43565 6.52497,-23.76838"
       sodipodi:nodetypes="csc" />
    <path
       style="font-variation-settings:normal;opacity:0.99;vector-effect:none;fill:#000000;fill-opacity:1;fill-rule:evenodd;stroke:none;stroke-width:0.264567;stroke-linecap:butt;stroke-linejoin:round;stroke-miterlimit:4;stroke-dasharray:none;stroke-dashoffset:0;stroke-opacity:1;-inkscape-stroke:none;marker-start:none;marker-end:none;stop-color:#000000;stop-opacity:1"
       id="path845-27-4"
       sodipodi:type="arc"
       sodipodi:cx="146.41809"
       sodipodi:cy="195.12489"
       sodipodi:rx="0.93128115"
       sodipodi:ry="0.93128115"
       sodipodi:start="0"
       sodipodi:end="6.2645452"
       sodipodi:open="true"
       sodipodi:arc-type="arc"
       d="m 147.34937,195.12489 a 0.93128115,0.93128115 0 0 1 -0.92694,0.93127 0.93128115,0.93128115 0 0 1 -0.93558,-0.92259 0.93128115,0.93128115 0 0 1 0.91822,-0.93987 0.93128115,0.93128115 0 0 1 0.94414,0.91384" />
    <path
       style="font-variation-settings:normal;opacity:0.99;vector-effect:none;fill:#000000;fill-opacity:1;fill-rule:evenodd;stroke:none;stroke-width:0.264567;stroke-linecap:butt;stroke-linejoin:round;stroke-miterlimit:4;stroke-dasharray:none;stroke-dashoffset:0;stroke-opacity:1;-inkscape-stroke:none;marker-start:none;marker-end:none;stop-color:#000000;stop-opacity:1"
       id="path845-27-83"
       sodipodi:type="arc"
       sodipodi:cx="129.15411"
       sodipodi:cy="217.74641"
       sodipodi:rx="0.93128115"
       sodipodi:ry="0.93128115"
       sodipodi:start="0"
       sodipodi:end="6.2645452"
       sodipodi:open="true"
       sodipodi:arc-type="arc"
       d="m 130.08539,217.74641 a 0.93128115,0.93128115 0 0 1 -0.92694,0.93128 0.93128115,0.93128115 0 0 1 -0.93558,-0.9226 0.93128115,0.93128115 0 0 1 0.91822,-0.93987 0.93128115,0.93128115 0 0 1 0.94414,0.91384" />
    <path
       style="font-variation-settings:normal;opacity:0.99;vector-effect:none;fill:none;fill-opacity:1;fill-rule:evenodd;stroke:#000000;stroke-width:0.264617;stroke-linecap:butt;stroke-linejoin:round;stroke-miterlimit:4;stroke-dasharray:0.79385, 0.79385;stroke-dashoffset:0;stroke-opacity:1;-inkscape-stroke:none;marker-start:none;marker-end:none;stop-color:#000000;stop-opacity:1"
       id="path1773"
       sodipodi:type="arc"
       sodipodi:cx="-40.467667"
       sodipodi:cy="223.22893"
       sodipodi:rx="2.7272773"
       sodipodi:ry="9.7450333"
       sodipodi:start="0"
       sodipodi:end="6.2645452"
       sodipodi:open="true"
       sodipodi:arc-type="arc"
       transform="matrix(0.74491838,-0.66715561,0.65026955,0.75970357,0,0)"
       d="m -37.740389,223.22893 a 2.7272773,9.7450333 0 0 1 -2.714568,9.74493 2.7272773,9.7450333 0 0 1 -2.739868,-9.65411 2.7272773,9.7450333 0 0 1 2.689032,-9.8349 2.7272773,9.7450333 0 0 1 2.76493,9.56244" />
    <path
       style="font-variation-settings:normal;opacity:0.99;vector-effect:none;fill:#ff9800;fill-opacity:1;fill-rule:evenodd;stroke:none;stroke-width:0.264567;stroke-linecap:butt;stroke-linejoin:round;stroke-miterlimit:4;stroke-dasharray:none;stroke-dashoffset:0;stroke-opacity:1;-inkscape-stroke:none;marker-start:none;marker-end:none;stop-color:#000000;stop-opacity:1"
       id="path1142"
       sodipodi:type="arc"
       sodipodi:cx="102.99906"
       sodipodi:cy="211.08485"
       sodipodi:rx="0.93128115"
       sodipodi:ry="0.93128115"
       sodipodi:start="0"
       sodipodi:end="6.2645452"
       sodipodi:open="true"
       sodipodi:arc-type="arc"
       d="m 103.93034,211.08485 a 0.93128115,0.93128115 0 0 1 -0.92694,0.93128 0.93128115,0.93128115 0 0 1 -0.93558,-0.9226 0.93128115,0.93128115 0 0 1 0.91822,-0.93987 0.93128115,0.93128115 0 0 1 0.94414,0.91384" />
    <path
       style="fill:none;fill-opacity:1;stroke:#000000;stroke-width:0.264583;stroke-linecap:butt;stroke-linejoin:miter;stroke-dasharray:none;stroke-opacity:1;marker-start:none;marker-end:url(#marker-arrow-1)"
       d="m 102.98875,210.10956 c 3.66742,-1.76296 7.72764,-2.70292 11.79669,-2.73098 2.89728,-0.02 5.79726,0.41884 8.55893,1.29511"
       id="path2709"
       inkscape:path-effect="#path-effect2711"
       inkscape:original-d="m 102.98875,210.10956 c 3.9325,-0.91006 7.86473,-1.82039 11.79669,-2.73098 3.93197,-0.91059 5.70622,0.86367 8.55893,1.29511" />
    <path
       style="fill:none;fill-opacity:1;stroke:#000000;stroke-width:0.264583;stroke-linecap:butt;stroke-linejoin:miter;stroke-dasharray:none;stroke-opacity:1;marker-start:none;marker-end:url(#marker-arrow-1)"
       d="m 102.98875,210.10956 c -1.55206,-0.8203 -3.349962,-1.16796 -5.095942,-0.9854 -1.388382,0.14517 -2.740964,0.62198 -3.91346,1.37956"
       id="path2768"
       inkscape:path-effect="#path-effect2770"
       inkscape:original-d="m 102.98875,210.10956 c -1.69838,-0.3282 -3.397031,-0.65667 -5.095942,-0.9854 -1.698911,-0.32873 -2.60871,0.91997 -3.91346,1.37956" />
    <text
       xml:space="preserve"
       style="font-size:4.23333px;line-height:1.25;font-family:sans-serif;text-decoration-color:#000000;letter-spacing:0px;word-spacing:0px;fill:#000000;stroke-width:0.264583;-inkscape-stroke:none;stop-color:#000000"
       x="135.60478"
       y="222.68736"
       id="text2917"><tspan
         sodipodi:role="line"
         id="tspan2915"
         style="stroke-width:0.264583"
         x="135.60478"
         y="222.68736">\(1/2\)</tspan></text>
    <text
       xml:space="preserve"
       style="font-size:4.23333px;line-height:1.25;font-family:sans-serif;text-decoration-color:#000000;letter-spacing:0px;word-spacing:0px;fill:#000000;stroke-width:0.264583;-inkscape-stroke:none;stop-color:#000000"
       x="152.73659"
       y="199.9586"
       id="text2917-5"><tspan
         sodipodi:role="line"
         id="tspan2915-5"
         style="stroke-width:0.264583"
         x="152.73659"
         y="199.9586">\(1/2\)</tspan></text>
    <path
       style="font-variation-settings:normal;opacity:0.99;vector-effect:none;fill:#ff9800;fill-opacity:1;fill-rule:evenodd;stroke:none;stroke-width:0.264567;stroke-linecap:butt;stroke-linejoin:round;stroke-miterlimit:4;stroke-dasharray:none;stroke-dashoffset:0;stroke-opacity:1;-inkscape-stroke:none;marker-start:none;marker-end:none;stop-color:#000000;stop-opacity:1"
       id="path1142-7"
       sodipodi:type="arc"
       sodipodi:cx="96.951462"
       sodipodi:cy="190.48543"
       sodipodi:rx="0.93128115"
       sodipodi:ry="0.93128115"
       sodipodi:start="0"
       sodipodi:end="6.2645452"
       sodipodi:open="true"
       sodipodi:arc-type="arc"
       d="m 97.882743,190.48543 a 0.93128115,0.93128115 0 0 1 -0.926941,0.93127 0.93128115,0.93128115 0 0 1 -0.935581,-0.92259 0.93128115,0.93128115 0 0 1 0.918222,-0.93987 0.93128115,0.93128115 0 0 1 0.944138,0.91383" />
    <path
       style="font-variation-settings:normal;opacity:0.99;vector-effect:none;fill:#ff9800;fill-opacity:1;fill-rule:evenodd;stroke:none;stroke-width:0.264567;stroke-linecap:butt;stroke-linejoin:round;stroke-miterlimit:4;stroke-dasharray:none;stroke-dashoffset:0;stroke-opacity:1;-inkscape-stroke:none;marker-start:none;marker-end:none;stop-color:#000000;stop-opacity:1"
       id="path1142-0"
       sodipodi:type="arc"
       sodipodi:cx="110.75607"
       sodipodi:cy="191.68236"
       sodipodi:rx="0.93128115"
       sodipodi:ry="0.93128115"
       sodipodi:start="0"
       sodipodi:end="6.2645452"
       sodipodi:open="true"
       sodipodi:arc-type="arc"
       d="m 111.68735,191.68236 a 0.93128115,0.93128115 0 0 1 -0.92694,0.93127 0.93128115,0.93128115 0 0 1 -0.93558,-0.92259 0.93128115,0.93128115 0 0 1 0.91822,-0.93987 0.93128115,0.93128115 0 0 1 0.94414,0.91383" />
    <path
       style="font-variation-settings:normal;opacity:0.99;vector-effect:none;fill:#ff9800;fill-opacity:1;fill-rule:evenodd;stroke:none;stroke-width:0.264567;stroke-linecap:butt;stroke-linejoin:round;stroke-miterlimit:4;stroke-dasharray:none;stroke-dashoffset:0;stroke-opacity:1;-inkscape-stroke:none;marker-start:none;marker-end:none;stop-color:#000000;stop-opacity:1"
       id="path1142-3"
       sodipodi:type="arc"
       sodipodi:cx="138.08774"
       sodipodi:cy="210.51041"
       sodipodi:rx="0.93128115"
       sodipodi:ry="0.93128115"
       sodipodi:start="0"
       sodipodi:end="6.2645452"
       sodipodi:open="true"
       sodipodi:arc-type="arc"
       d="m 139.01902,210.51041 a 0.93128115,0.93128115 0 0 1 -0.92694,0.93127 0.93128115,0.93128115 0 0 1 -0.93558,-0.92259 0.93128115,0.93128115 0 0 1 0.91822,-0.93987 0.93128115,0.93128115 0 0 1 0.94414,0.91383" />
    <path
       style="fill:none;fill-opacity:1;stroke:#000000;stroke-width:0.264583;stroke-linecap:butt;stroke-linejoin:miter;stroke-dasharray:none;stroke-opacity:1;marker-start:none;marker-end:url(#marker-arrow-1)"
       d="m 96.001132,189.80954 c 0.05003,-1.36537 0.467357,-2.71556 1.196494,-3.87102 0.995346,-1.57733 2.576133,-2.77566 4.363684,-3.30795"
       id="path4837"
       inkscape:path-effect="#path-effect4839"
       inkscape:original-d="m 96.001132,189.80954 c 0.399095,-1.29008 0.797928,-2.58042 1.196494,-3.87102 0.398568,-1.2906 2.909394,-2.20504 4.363684,-3.30795" />
    <path
       style="fill:none;fill-opacity:1;stroke:#000000;stroke-width:0.264583;stroke-linecap:butt;stroke-linejoin:miter;stroke-dasharray:none;stroke-opacity:1;marker-start:none;marker-end:url(#marker-arrow-1)"
       d="m 96.00113,189.80954 c -2.825562,2.09877 -4.973369,5.09571 -6.052855,8.44584 -1.267071,3.93229 -1.037108,8.32714 0.633437,12.10572"
       id="path4929"
       inkscape:path-effect="#path-effect4931"
       inkscape:original-d="m 96.00113,189.80954 c -2.017353,2.81555 -4.034973,5.63083 -6.052855,8.44584 -2.017884,2.81502 0.422556,8.07074 0.633437,12.10572" />
    <path
       style="fill:none;fill-opacity:1;stroke:#000000;stroke-width:0.264583;stroke-linecap:butt;stroke-linejoin:miter;stroke-dasharray:none;stroke-opacity:1;marker-start:none;marker-end:url(#marker-arrow-1)"
       d="m 138.51652,211.41153 c 2.93033,-0.77019 5.65997,-2.29138 7.8565,-4.37831 2.19653,-2.08692 3.85533,-4.73519 4.77438,-7.62229 1.74184,-5.4718 0.67382,-11.75875 -2.77725,-16.34838"
       id="path4988"
       inkscape:path-effect="#path-effect4990"
       inkscape:original-d="m 138.51652,211.41153 c 4.06723,-6.02248 8.56418,-5.97759 12.63088,-12.0006 4.0667,-6.02301 -0.86438,-12.0909 -2.77725,-16.34838"
       sodipodi:nodetypes="csc" />
    <path
       style="fill:none;fill-opacity:1;stroke:#000000;stroke-width:0.264583;stroke-linecap:butt;stroke-linejoin:miter;stroke-dasharray:none;stroke-opacity:1;marker-start:none;marker-end:url(#marker-arrow-1)"
       d="m 138.51652,211.41153 c -1.74924,4.301 -4.92411,8.0081 -8.905,10.39785 -4.68996,2.8154 -10.47087,3.75639 -15.81161,2.57374"
       id="path5370"
       inkscape:path-effect="#path-effect5372"
       inkscape:original-d="m 138.51652,211.41153 c -1.2546,2.17611 -7.64987,8.22226 -8.905,10.39785 -1.25513,2.17558 -7.90036,0.97919 -15.81161,2.57374"
       sodipodi:nodetypes="csc" />
    <path
       style="fill:none;fill-opacity:1;stroke:#000000;stroke-width:0.264583;stroke-linecap:butt;stroke-linejoin:miter;stroke-dasharray:none;stroke-opacity:1;marker-start:none;marker-end:url(#marker-arrow-1)"
       d="m 111.43931,190.95033 c 0.2817,-1.02004 0.28579,-2.1153 0.0117,-3.13741 -0.27408,-1.02211 -0.82562,-1.96839 -1.57989,-2.71062 -1.21014,-1.19083 -2.94623,-1.82658 -4.63922,-1.69887"
       id="path5873"
       inkscape:path-effect="#path-effect5875"
       inkscape:original-d="m 111.43931,190.95033 c -0.52246,-1.94908 -1.04519,-3.89842 -1.56819,-5.84803 -0.52299,-1.94961 -3.09255,-1.13231 -4.63922,-1.69887" />
    <path
       style="fill:none;fill-opacity:1;stroke:#000000;stroke-width:0.264583;stroke-linecap:butt;stroke-linejoin:miter;stroke-dasharray:none;stroke-opacity:1;marker-start:none;marker-end:url(#marker-arrow-1)"
       d="m 111.43931,190.95033 c 4.1576,0.7958 7.97836,3.23154 10.45458,6.6648 2.00336,2.77765 3.12613,6.18069 3.16905,9.60515"
       id="path5932"
       inkscape:path-effect="#path-effect5934"
       inkscape:original-d="m 111.43931,190.95033 c 3.48512,2.22186 6.96999,4.44346 10.45458,6.6648 3.4846,2.22133 2.11296,6.4037 3.16905,9.60515" />
  </g>
</svg>
