<?xml version="1.0" encoding="UTF-8" standalone="no"?>
<!-- Created with Inkscape (http://www.inkscape.org/) -->

<svg
   width="240mm"
   height="57mm"
   viewBox="0 0 240 57"
   version="1.1"
   id="svg8"
   inkscape:version="1.1.1 (c3084ef, 2021-09-22)"
   sodipodi:docname="set-system-bip.svg"
   xmlns:inkscape="http://www.inkscape.org/namespaces/inkscape"
   xmlns:sodipodi="http://sodipodi.sourceforge.net/DTD/sodipodi-0.dtd"
   xmlns="http://www.w3.org/2000/svg"
   xmlns:svg="http://www.w3.org/2000/svg"
   xmlns:rdf="http://www.w3.org/1999/02/22-rdf-syntax-ns#"
   xmlns:cc="http://creativecommons.org/ns#"
   xmlns:dc="http://purl.org/dc/elements/1.1/">
  <defs
     id="defs2">
    <inkscape:path-effect
       effect="spiro"
       id="path-effect2044"
       is_visible="true"
       lpeversion="1" />
    <inkscape:path-effect
       effect="spiro"
       id="path-effect1808"
       is_visible="true"
       lpeversion="1" />
    <inkscape:path-effect
       effect="spiro"
       id="path-effect1613"
       is_visible="true"
       lpeversion="1" />
    <inkscape:path-effect
       effect="spiro"
       id="path-effect1379"
       is_visible="true"
       lpeversion="1" />
  </defs>
  <sodipodi:namedview
     id="base"
     pagecolor="#ffffff"
     bordercolor="#666666"
     borderopacity="1.0"
     inkscape:pageopacity="0.0"
     inkscape:pageshadow="2"
     inkscape:zoom="1.3320659"
     inkscape:cx="381.73788"
     inkscape:cy="84.079927"
     inkscape:document-units="mm"
     inkscape:current-layer="layer1"
     showgrid="false"
     showborder="true"
     width="200mm"
     showguides="true"
     inkscape:guide-bbox="true"
     inkscape:window-width="1280"
     inkscape:window-height="680"
     inkscape:window-x="1728"
     inkscape:window-y="355"
     inkscape:window-maximized="0"
     inkscape:pagecheckerboard="0">
    <inkscape:grid
       type="xygrid"
       id="grid815"
       units="mm"
       spacingx="10"
       spacingy="10"
       empspacing="4"
       dotted="false" />
  </sodipodi:namedview>
  <metadata
     id="metadata5">
    <rdf:RDF>
      <cc:Work
         rdf:about="">
        <dc:format>image/svg+xml</dc:format>
        <dc:type
           rdf:resource="http://purl.org/dc/dcmitype/StillImage" />
      </cc:Work>
    </rdf:RDF>
  </metadata>
  <g
     inkscape:label="Layer 1"
     inkscape:groupmode="layer"
     id="layer1"
     transform="translate(0,-177)">
    <path
       style="font-variation-settings:normal;opacity:0.99;vector-effect:none;fill:#000000;fill-opacity:1;fill-rule:evenodd;stroke:none;stroke-width:0.264567;stroke-linecap:butt;stroke-linejoin:round;stroke-miterlimit:4;stroke-dasharray:none;stroke-dashoffset:0;stroke-opacity:1;-inkscape-stroke:none;marker-start:none;marker-end:none;stop-color:#000000;stop-opacity:1"
       id="path845"
       sodipodi:type="arc"
       sodipodi:cx="48.437084"
       sodipodi:cy="198.9631"
       sodipodi:rx="0.73417956"
       sodipodi:ry="0.73417956"
       sodipodi:start="0"
       sodipodi:end="6.2645452"
       sodipodi:open="true"
       sodipodi:arc-type="arc"
       d="m 49.171264,198.9631 a 0.73417956,0.73417956 0 0 1 -0.730759,0.73418 0.73417956,0.73417956 0 0 1 -0.737568,-0.72733 0.73417956,0.73417956 0 0 1 0.723884,-0.74095 0.73417956,0.73417956 0 0 1 0.744315,0.72042" />
    <path
       style="font-variation-settings:normal;opacity:0.99;vector-effect:none;fill:#000000;fill-opacity:1;fill-rule:evenodd;stroke:none;stroke-width:0.264567;stroke-linecap:butt;stroke-linejoin:round;stroke-miterlimit:4;stroke-dasharray:none;stroke-dashoffset:0;stroke-opacity:1;-inkscape-stroke:none;marker-start:none;marker-end:none;stop-color:#000000;stop-opacity:1"
       id="path845-9"
       sodipodi:type="arc"
       sodipodi:cx="59.633327"
       sodipodi:cy="216.03278"
       sodipodi:rx="0.73417956"
       sodipodi:ry="0.73417956"
       sodipodi:start="0"
       sodipodi:end="6.2645452"
       sodipodi:open="true"
       sodipodi:arc-type="arc"
       d="m 60.367507,216.03278 a 0.73417956,0.73417956 0 0 1 -0.730758,0.73417 0.73417956,0.73417956 0 0 1 -0.737569,-0.72733 0.73417956,0.73417956 0 0 1 0.723884,-0.74095 0.73417956,0.73417956 0 0 1 0.744315,0.72042" />
    <path
       style="font-variation-settings:normal;opacity:0.99;vector-effect:none;fill:#000000;fill-opacity:1;fill-rule:evenodd;stroke:none;stroke-width:0.264567;stroke-linecap:butt;stroke-linejoin:round;stroke-miterlimit:4;stroke-dasharray:none;stroke-dashoffset:0;stroke-opacity:1;-inkscape-stroke:none;marker-start:none;marker-end:none;stop-color:#000000;stop-opacity:1"
       id="path845-0"
       sodipodi:type="arc"
       sodipodi:cx="72.481468"
       sodipodi:cy="201.16563"
       sodipodi:rx="0.73417956"
       sodipodi:ry="0.73417956"
       sodipodi:start="0"
       sodipodi:end="6.2645452"
       sodipodi:open="true"
       sodipodi:arc-type="arc"
       d="m 73.215648,201.16563 a 0.73417956,0.73417956 0 0 1 -0.730759,0.73418 0.73417956,0.73417956 0 0 1 -0.737568,-0.72733 0.73417956,0.73417956 0 0 1 0.723884,-0.74095 0.73417956,0.73417956 0 0 1 0.744315,0.72042" />
    <path
       style="font-variation-settings:normal;opacity:0.99;vector-effect:none;fill:#000000;fill-opacity:1;fill-rule:evenodd;stroke:none;stroke-width:0.264567;stroke-linecap:butt;stroke-linejoin:round;stroke-miterlimit:4;stroke-dasharray:none;stroke-dashoffset:0;stroke-opacity:1;-inkscape-stroke:none;marker-start:none;marker-end:none;stop-color:#000000;stop-opacity:1"
       id="path845-5"
       sodipodi:type="arc"
       sodipodi:cx="101.11447"
       sodipodi:cy="206.3049"
       sodipodi:rx="0.73417956"
       sodipodi:ry="0.73417956"
       sodipodi:start="0"
       sodipodi:end="6.2645452"
       sodipodi:open="true"
       sodipodi:arc-type="arc"
       d="m 101.84865,206.3049 a 0.73417956,0.73417956 0 0 1 -0.73076,0.73417 0.73417956,0.73417956 0 0 1 -0.73757,-0.72733 0.73417956,0.73417956 0 0 1 0.72389,-0.74095 0.73417956,0.73417956 0 0 1 0.74431,0.72043" />
    <path
       style="font-variation-settings:normal;opacity:0.99;vector-effect:none;fill:#000000;fill-opacity:1;fill-rule:evenodd;stroke:none;stroke-width:0.264567;stroke-linecap:butt;stroke-linejoin:round;stroke-miterlimit:4;stroke-dasharray:none;stroke-dashoffset:0;stroke-opacity:1;-inkscape-stroke:none;marker-start:none;marker-end:none;stop-color:#000000;stop-opacity:1"
       id="path845-2"
       sodipodi:type="arc"
       sodipodi:cx="82.209351"
       sodipodi:cy="224.10875"
       sodipodi:rx="0.73417956"
       sodipodi:ry="0.73417956"
       sodipodi:start="0"
       sodipodi:end="6.2645452"
       sodipodi:open="true"
       sodipodi:arc-type="arc"
       d="m 82.94353,224.10875 a 0.73417956,0.73417956 0 0 1 -0.730758,0.73417 0.73417956,0.73417956 0 0 1 -0.737569,-0.72733 0.73417956,0.73417956 0 0 1 0.723884,-0.74095 0.73417956,0.73417956 0 0 1 0.744316,0.72042" />
    <path
       style="font-variation-settings:normal;opacity:0.99;vector-effect:none;fill:#000000;fill-opacity:1;fill-rule:evenodd;stroke:none;stroke-width:0.264567;stroke-linecap:butt;stroke-linejoin:round;stroke-miterlimit:4;stroke-dasharray:none;stroke-dashoffset:0;stroke-opacity:1;-inkscape-stroke:none;marker-start:none;marker-end:none;stop-color:#000000;stop-opacity:1"
       id="path845-27"
       sodipodi:type="arc"
       sodipodi:cx="109.37399"
       sodipodi:cy="227.5961"
       sodipodi:rx="0.73417956"
       sodipodi:ry="0.73417956"
       sodipodi:start="0"
       sodipodi:end="6.2645452"
       sodipodi:open="true"
       sodipodi:arc-type="arc"
       d="m 110.10817,227.5961 a 0.73417956,0.73417956 0 0 1 -0.73076,0.73417 0.73417956,0.73417956 0 0 1 -0.73756,-0.72733 0.73417956,0.73417956 0 0 1 0.72388,-0.74095 0.73417956,0.73417956 0 0 1 0.74431,0.72043" />
    <path
       style="font-variation-settings:normal;opacity:0.99;vector-effect:none;fill:#000000;fill-opacity:1;fill-rule:evenodd;stroke:none;stroke-width:0.264567;stroke-linecap:butt;stroke-linejoin:round;stroke-miterlimit:4;stroke-dasharray:none;stroke-dashoffset:0;stroke-opacity:1;-inkscape-stroke:none;marker-start:none;marker-end:none;stop-color:#000000;stop-opacity:1"
       id="path845-7"
       sodipodi:type="arc"
       sodipodi:cx="89.551147"
       sodipodi:cy="193.08966"
       sodipodi:rx="0.73417956"
       sodipodi:ry="0.73417956"
       sodipodi:start="0"
       sodipodi:end="6.2645452"
       sodipodi:open="true"
       sodipodi:arc-type="arc"
       d="m 90.285327,193.08966 a 0.73417956,0.73417956 0 0 1 -0.730758,0.73417 0.73417956,0.73417956 0 0 1 -0.737569,-0.72733 0.73417956,0.73417956 0 0 1 0.723884,-0.74095 0.73417956,0.73417956 0 0 1 0.744315,0.72043" />
    <path
       style="fill:#000000;fill-opacity:0.12;stroke:#000000;stroke-width:0.264583;stroke-linecap:butt;stroke-linejoin:miter;stroke-dasharray:none;stroke-opacity:1;marker-start:none;marker-end:none"
       d="m 44.215556,201.8998 c 2.198643,1.57802 4.676779,2.83277 7.341795,3.30381 4.109326,0.72632 8.308738,-0.44386 12.481052,-0.36709 2.14784,0.0395 4.277618,0.40993 6.424306,0.49059 2.146689,0.0807 4.378344,-0.15335 6.24029,-1.22477 0.996933,-0.57366 1.862053,-1.37924 2.488723,-2.34373 0.626671,-0.9645 1.012159,-2.08722 1.090495,-3.23475 0.07834,-1.14753 -0.152855,-2.31725 -0.679357,-3.33987 -0.526501,-1.02263 -1.348857,-1.89378 -2.349226,-2.46143 -1.296873,-0.7359 -2.844605,-0.94395 -4.329721,-0.81034 -1.485117,0.13362 -2.922076,0.59014 -4.317909,1.11462 -1.395833,0.52447 -2.766965,1.12054 -4.194551,1.55114 -1.427586,0.43061 -2.928883,0.69388 -4.411038,0.53066 -1.760764,-0.1939 -3.406845,-0.9792 -4.899193,-1.93355 -1.492348,-0.95435 -2.864628,-2.08467 -4.335788,-3.07137 -1.47116,-0.9867 -3.073565,-1.84015 -4.817865,-2.14887 -0.87215,-0.15436 -1.773176,-0.1688 -2.641805,0.004 -0.86863,0.17308 -1.704139,0.53707 -2.394015,1.09254 -0.999888,0.80508 -1.661147,1.9949 -1.910277,3.25422 -0.24913,1.25931 -0.100048,2.58149 0.333001,3.78996 0.866099,2.41694 2.795275,4.30692 4.881083,5.80396 z"
       id="path1377"
       inkscape:path-effect="#path-effect1379"
       inkscape:original-d="m 44.215556,201.8998 c 1.101005,4.28245 4.894794,2.2028 7.341795,3.30381 2.447002,1.101 8.320966,-0.24446 12.481052,-0.36709 4.160086,-0.12263 8.443328,-0.48919 12.664596,-0.73418 4.221269,-0.24499 0.367356,-7.58626 0.550635,-11.37978 0.18328,-3.79353 -11.501882,1.59098 -17.253219,2.38608 -5.751336,0.7951 -12.725511,-4.03772 -19.088666,-6.05698 -6.363153,-2.01926 2.202804,8.56569 3.303807,12.84814 z" />
    <path
       style="fill:#000000;fill-opacity:0.12;stroke:#000000;stroke-width:0.264583;stroke-linecap:butt;stroke-linejoin:miter;stroke-dasharray:none;stroke-opacity:1;marker-start:none;marker-end:none"
       d="m 51.740896,218.60238 c 0.44157,0.73626 1.090534,1.33904 1.832345,1.77121 0.741812,0.43218 1.574497,0.6974 2.42322,0.82674 1.697447,0.25867 3.429989,-0.0188 5.105223,-0.39541 1.760168,-0.39569 3.532104,-0.91846 5.009199,-1.9543 0.738548,-0.51792 1.394807,-1.16239 1.877653,-1.92433 0.482846,-0.76194 0.788059,-1.64403 0.822035,-2.54544 0.04241,-1.12523 -0.343442,-2.24969 -1.009217,-3.15782 -0.665774,-0.90812 -1.600761,-1.60394 -2.63384,-2.05193 -2.066159,-0.89598 -4.440164,-0.79906 -6.635458,-0.29659 -2.253366,0.51576 -4.492117,1.50099 -5.970366,3.27819 -0.739125,0.8886 -1.267527,1.96452 -1.439743,3.10744 -0.172216,1.14291 0.02447,2.35102 0.618949,3.34224 z"
       id="path1611"
       inkscape:path-effect="#path-effect1613"
       inkscape:original-d="m 51.740896,218.60238 c -2.263984,3.24237 6.24079,1.46863 9.360788,2.20254 3.119999,0.73392 5.139521,-4.28245 7.708887,-6.42407 2.569364,-2.14162 -6.852078,-3.67063 -10.278515,-5.50634 -3.426436,-1.83572 -4.527174,6.48551 -6.79116,9.72787 z" />
    <path
       style="fill:#000000;fill-opacity:0.12;stroke:#000000;stroke-width:0.264583;stroke-linecap:butt;stroke-linejoin:miter;stroke-dasharray:none;stroke-opacity:1;marker-start:none;marker-end:none"
       d="m 62.019409,199.69726 c -0.405131,0.66849 -0.591932,1.46263 -0.553913,2.24337 0.03802,0.78075 0.297386,1.54612 0.719386,2.20409 0.844,1.31595 2.314965,2.16123 3.854999,2.43022 1.540033,0.26898 3.139847,0.001 4.598996,-0.56016 1.459148,-0.56119 2.792402,-1.40561 4.065033,-2.31361 2.110527,-1.50583 4.088775,-3.20437 6.308881,-4.54339 2.220105,-1.33901 4.754103,-2.31838 7.343625,-2.19108 1.837324,0.0903 3.603102,0.72963 5.42675,0.97092 0.911825,0.12065 1.846463,0.1402 2.744597,-0.0581 0.898135,-0.19832 1.760921,-0.62607 2.384165,-1.30249 0.705824,-0.76605 1.066648,-1.8231 1.045051,-2.86451 -0.0216,-1.04142 -0.411872,-2.06108 -1.036138,-2.89493 -0.624266,-0.83385 -1.474626,-1.486 -2.412755,-1.9387 -0.93813,-0.45269 -1.962744,-0.71076 -2.997582,-0.82962 -3.685613,-0.42332 -7.351491,0.89664 -10.668764,2.55756 -3.317273,1.66091 -6.474552,3.69327 -9.993184,4.86893 -2.062026,0.68897 -4.211831,1.07064 -6.319478,1.60399 -0.865152,0.21893 -1.730347,0.46612 -2.525146,0.87197 -0.7948,0.40584 -1.521993,0.98236 -1.984523,1.74557 z"
       id="path1806"
       inkscape:path-effect="#path-effect1808"
       inkscape:original-d="m 62.019409,199.69726 c -0.550899,1.65164 9.407928,1.31259 12.684501,4.00391 3.412703,2.80313 11.541437,-3.64045 13.652506,-6.73447 1.65164,-2.26399 9.332142,-0.38944 10.555512,-0.3897 1.223372,-2.7e-4 0.16637,-5.46841 -5.401424,-8.52776 -5.567791,-3.05934 -17.54142,4.73476 -20.661948,7.42649 -3.120527,2.69172 -3.260133,1.84898 -6.319478,1.60399 -3.059348,-0.24499 -3.958769,0.9659 -4.509669,2.61754 z"
       sodipodi:nodetypes="sscsssss" />
    <path
       style="fill:#000000;fill-opacity:0.12;stroke:#000000;stroke-width:0.264583;stroke-linecap:butt;stroke-linejoin:miter;stroke-dasharray:none;stroke-opacity:1;marker-start:none;marker-end:none"
       d="m 80.006806,228.14672 c 2.36327,0.99774 5.046181,0.77967 7.587596,0.43075 2.541414,-0.34892 5.143783,-0.8096 7.646631,-0.24721 1.83744,0.41287 3.505832,1.35449 5.142297,2.28649 1.63647,0.932 3.30127,1.87831 5.13622,2.30213 2.03315,0.4696 4.27777,0.23544 6.02285,-0.90866 0.87254,-0.57205 1.60632,-1.36299 2.07605,-2.29461 0.46974,-0.93162 0.66953,-2.00359 0.52771,-3.03725 -0.16805,-1.22483 -0.80142,-2.34921 -1.61263,-3.28216 -0.81122,-0.93295 -1.7977,-1.69477 -2.78821,-2.43461 -0.9905,-0.73984 -1.99729,-1.46876 -2.86411,-2.35029 -0.86681,-0.88153 -1.5958,-1.93407 -1.9123,-3.12918 -0.35159,-1.32762 -0.17294,-2.74586 0.21778,-4.0625 0.39072,-1.31664 0.98616,-2.56169 1.48674,-3.8406 0.50058,-1.27891 0.91126,-2.62059 0.90429,-3.99397 -0.003,-0.68668 -0.11335,-1.37609 -0.36018,-2.01689 -0.24684,-0.6408 -0.63328,-1.23208 -1.14736,-1.68735 -0.77714,-0.68824 -1.82398,-1.03864 -2.86201,-1.04965 -1.03803,-0.011 -2.06497,0.30266 -2.97045,0.81033 -1.810968,1.01534 -3.09983,2.74077 -4.262508,4.46085 -1.251393,1.85133 -2.425299,3.76002 -3.81703,5.50831 -1.391731,1.74828 -3.023584,3.3475 -4.993124,4.40311 -1.966772,1.05413 -4.188441,1.52647 -6.245886,2.39035 -1.028722,0.43194 -2.023978,0.96746 -2.872376,1.69208 -0.848398,0.72461 -1.546778,1.64855 -1.894432,2.70873 -0.473222,1.4431 -0.255623,3.07473 0.483647,4.40136 0.73927,1.32664 1.971666,2.34975 3.370795,2.94044 z"
       id="path2042"
       inkscape:path-effect="#path-effect2044"
       inkscape:original-d="m 80.006806,228.14672 c 1.28455,2.447 10.156415,0.12262 15.234227,0.18354 5.077807,0.0609 6.852607,3.05935 10.278517,4.58862 3.4259,1.52928 5.75133,-4.16008 8.62661,-6.24052 2.87527,-2.08044 -6.1179,-7.4639 -9.17725,-11.19624 -3.05934,-3.73234 0.73445,-10.40061 1.10127,-15.60131 0.36683,-5.20071 -6.729712,2.81462 -10.094968,4.22153 -3.365254,1.40691 -5.873173,6.60788 -8.810154,9.91142 -2.936983,3.30354 -7.341531,4.52771 -11.012694,6.79116 -3.671162,2.26346 2.569893,4.8948 3.854442,7.3418 z" />
    <text
       xml:space="preserve"
       style="font-size:3.52777px;line-height:1.25;font-family:sans-serif;letter-spacing:0px;word-spacing:0px;stroke-width:0.264583"
       x="46.591244"
       y="196.51146"
       id="text3209"><tspan
         sodipodi:role="line"
         id="tspan3207"
         style="stroke-width:0.264583"
         x="46.591244"
         y="196.51146">\(e_1\)</tspan></text>
    <text
       xml:space="preserve"
       style="font-size:3.52777px;line-height:1.25;font-family:sans-serif;letter-spacing:0px;word-spacing:0px;stroke-width:0.264583"
       x="151.53139"
       y="187.85786"
       id="text3209-31"><tspan
         sodipodi:role="line"
         id="tspan3207-14"
         style="stroke-width:0.264583"
         x="151.53139"
         y="187.85786">\(e_1\)</tspan></text>
    <text
       xml:space="preserve"
       style="font-size:3.52777px;line-height:1.25;font-family:sans-serif;letter-spacing:0px;word-spacing:0px;stroke-width:0.264583"
       x="191.2206"
       y="198.97037"
       id="text3209-31-3"><tspan
         sodipodi:role="line"
         id="tspan3207-14-1"
         style="stroke-width:0.264583"
         x="191.2206"
         y="198.97037">\(S_1\)</tspan></text>
    <text
       xml:space="preserve"
       style="font-size:3.52777px;line-height:1.25;font-family:sans-serif;letter-spacing:0px;word-spacing:0px;stroke-width:0.264583"
       x="70.318985"
       y="198.93782"
       id="text3209-3"><tspan
         sodipodi:role="line"
         id="tspan3207-2"
         style="stroke-width:0.264583"
         x="70.318985"
         y="198.93782">\(e_2\)</tspan></text>
    <text
       xml:space="preserve"
       style="font-size:3.52777px;line-height:1.25;font-family:sans-serif;letter-spacing:0px;word-spacing:0px;stroke-width:0.264583"
       x="91.279877"
       y="193.30458"
       id="text3209-38"><tspan
         sodipodi:role="line"
         id="tspan3207-1"
         style="stroke-width:0.264583"
         x="91.279877"
         y="193.30458">\(e_3\)</tspan></text>
    <text
       xml:space="preserve"
       style="font-size:3.52777px;line-height:1.25;font-family:sans-serif;letter-spacing:0px;word-spacing:0px;stroke-width:0.264583"
       x="58.135456"
       y="213.34843"
       id="text3209-36"><tspan
         sodipodi:role="line"
         id="tspan3207-5"
         style="stroke-width:0.264583"
         x="58.135456"
         y="213.34843">\(e_4\)</tspan></text>
    <text
       xml:space="preserve"
       style="font-size:3.52777px;line-height:1.25;font-family:sans-serif;letter-spacing:0px;word-spacing:0px;stroke-width:0.264583"
       x="80.930428"
       y="221.07777"
       id="text3209-4"><tspan
         sodipodi:role="line"
         id="tspan3207-18"
         style="stroke-width:0.264583"
         x="80.930428"
         y="221.07777">\(e_5\)</tspan></text>
    <text
       xml:space="preserve"
       style="font-size:3.52777px;line-height:1.25;font-family:sans-serif;letter-spacing:0px;word-spacing:0px;stroke-width:0.264583"
       x="99.271225"
       y="210.85931"
       id="text3209-2"><tspan
         sodipodi:role="line"
         id="tspan3207-6"
         style="stroke-width:0.264583"
         x="99.271225"
         y="210.85931">\(e_6\)</tspan></text>
    <text
       xml:space="preserve"
       style="font-size:3.52777px;line-height:1.25;font-family:sans-serif;letter-spacing:0px;word-spacing:0px;stroke-width:0.264583"
       x="103.98743"
       y="225.40094"
       id="text3209-8"><tspan
         sodipodi:role="line"
         id="tspan3207-7"
         style="stroke-width:0.264583"
         x="103.98743"
         y="225.40094">\(e_7\)</tspan></text>
    <text
       xml:space="preserve"
       style="font-size:3.52777px;line-height:1.25;font-family:sans-serif;letter-spacing:0px;word-spacing:0px;stroke-width:0.264583"
       x="41.787292"
       y="186.23332"
       id="text10543"><tspan
         sodipodi:role="line"
         id="tspan10541"
         style="stroke-width:0.264583"
         x="41.787292"
         y="186.23332">\(S_1\)</tspan></text>
    <text
       xml:space="preserve"
       style="font-size:3.52777px;line-height:1.25;font-family:sans-serif;letter-spacing:0px;word-spacing:0px;stroke-width:0.264583"
       x="95.517189"
       y="186.52155"
       id="text10543-5"><tspan
         sodipodi:role="line"
         id="tspan10541-2"
         style="stroke-width:0.264583"
         x="95.517189"
         y="186.52155">\(S_2\)</tspan></text>
    <text
       xml:space="preserve"
       style="font-size:3.52777px;line-height:1.25;font-family:sans-serif;letter-spacing:0px;word-spacing:0px;stroke-width:0.264583"
       x="59.158966"
       y="225.19902"
       id="text10543-8"><tspan
         sodipodi:role="line"
         id="tspan10541-7"
         style="stroke-width:0.264583"
         x="59.158966"
         y="225.19902">\(S_3\)</tspan></text>
    <text
       xml:space="preserve"
       style="font-size:3.52777px;line-height:1.25;font-family:sans-serif;letter-spacing:0px;word-spacing:0px;stroke-width:0.264583"
       x="114.70973"
       y="231.23656"
       id="text10543-9"><tspan
         sodipodi:role="line"
         id="tspan10541-5"
         style="stroke-width:0.264583"
         x="114.70973"
         y="231.23656">\(S_4\)</tspan></text>
    <path
       style="font-variation-settings:normal;opacity:0.99;vector-effect:none;fill:#000000;fill-opacity:1;fill-rule:evenodd;stroke:none;stroke-width:0.264567;stroke-linecap:butt;stroke-linejoin:round;stroke-miterlimit:4;stroke-dasharray:none;stroke-dashoffset:0;stroke-opacity:1;-inkscape-stroke:none;marker-start:none;marker-end:none;stop-color:#000000;stop-opacity:1"
       id="path845-9-5"
       sodipodi:type="arc"
       sodipodi:cx="157.41777"
       sodipodi:cy="186.87257"
       sodipodi:rx="0.73417956"
       sodipodi:ry="0.73417956"
       sodipodi:start="0"
       sodipodi:end="6.2645452"
       sodipodi:open="true"
       sodipodi:arc-type="arc"
       d="m 158.15195,186.87257 a 0.73417956,0.73417956 0 0 1 -0.73076,0.73418 0.73417956,0.73417956 0 0 1 -0.73757,-0.72733 0.73417956,0.73417956 0 0 1 0.72389,-0.74095 0.73417956,0.73417956 0 0 1 0.74431,0.72042" />
    <path
       style="font-variation-settings:normal;opacity:0.99;vector-effect:none;fill:#000000;fill-opacity:1;fill-rule:evenodd;stroke:none;stroke-width:0.264567;stroke-linecap:butt;stroke-linejoin:round;stroke-miterlimit:4;stroke-dasharray:none;stroke-dashoffset:0;stroke-opacity:1;-inkscape-stroke:none;marker-start:none;marker-end:none;stop-color:#000000;stop-opacity:1"
       id="path13982"
       sodipodi:type="arc"
       sodipodi:cx="157.41777"
       sodipodi:cy="194.28088"
       sodipodi:rx="0.73417956"
       sodipodi:ry="0.73417956"
       sodipodi:start="0"
       sodipodi:end="6.2645452"
       sodipodi:open="true"
       sodipodi:arc-type="arc"
       d="m 158.15195,194.28088 a 0.73417956,0.73417956 0 0 1 -0.73076,0.73418 0.73417956,0.73417956 0 0 1 -0.73757,-0.72733 0.73417956,0.73417956 0 0 1 0.72389,-0.74095 0.73417956,0.73417956 0 0 1 0.74431,0.72042" />
    <path
       style="font-variation-settings:normal;opacity:0.99;vector-effect:none;fill:#000000;fill-opacity:1;fill-rule:evenodd;stroke:none;stroke-width:0.264567;stroke-linecap:butt;stroke-linejoin:round;stroke-miterlimit:4;stroke-dasharray:none;stroke-dashoffset:0;stroke-opacity:1;-inkscape-stroke:none;marker-start:none;marker-end:none;stop-color:#000000;stop-opacity:1"
       id="path13984"
       sodipodi:type="arc"
       sodipodi:cx="157.41777"
       sodipodi:cy="201.68919"
       sodipodi:rx="0.73417956"
       sodipodi:ry="0.73417956"
       sodipodi:start="0"
       sodipodi:end="6.2645452"
       sodipodi:open="true"
       sodipodi:arc-type="arc"
       d="m 158.15195,201.68919 a 0.73417956,0.73417956 0 0 1 -0.73076,0.73418 0.73417956,0.73417956 0 0 1 -0.73757,-0.72733 0.73417956,0.73417956 0 0 1 0.72389,-0.74095 0.73417956,0.73417956 0 0 1 0.74431,0.72042" />
    <path
       style="font-variation-settings:normal;opacity:0.99;vector-effect:none;fill:#000000;fill-opacity:1;fill-rule:evenodd;stroke:none;stroke-width:0.264567;stroke-linecap:butt;stroke-linejoin:round;stroke-miterlimit:4;stroke-dasharray:none;stroke-dashoffset:0;stroke-opacity:1;-inkscape-stroke:none;marker-start:none;marker-end:none;stop-color:#000000;stop-opacity:1"
       id="path13986"
       sodipodi:type="arc"
       sodipodi:cx="157.41777"
       sodipodi:cy="209.0975"
       sodipodi:rx="0.73417956"
       sodipodi:ry="0.73417956"
       sodipodi:start="0"
       sodipodi:end="6.2645452"
       sodipodi:open="true"
       sodipodi:arc-type="arc"
       d="m 158.15195,209.0975 a 0.73417956,0.73417956 0 0 1 -0.73076,0.73418 0.73417956,0.73417956 0 0 1 -0.73757,-0.72733 0.73417956,0.73417956 0 0 1 0.72389,-0.74095 0.73417956,0.73417956 0 0 1 0.74431,0.72042" />
    <path
       style="font-variation-settings:normal;opacity:0.99;vector-effect:none;fill:#000000;fill-opacity:1;fill-rule:evenodd;stroke:none;stroke-width:0.264567;stroke-linecap:butt;stroke-linejoin:round;stroke-miterlimit:4;stroke-dasharray:none;stroke-dashoffset:0;stroke-opacity:1;-inkscape-stroke:none;marker-start:none;marker-end:none;stop-color:#000000;stop-opacity:1"
       id="path13988"
       sodipodi:type="arc"
       sodipodi:cx="157.41777"
       sodipodi:cy="216.50581"
       sodipodi:rx="0.73417956"
       sodipodi:ry="0.73417956"
       sodipodi:start="0"
       sodipodi:end="6.2645452"
       sodipodi:open="true"
       sodipodi:arc-type="arc"
       d="m 158.15195,216.50581 a 0.73417956,0.73417956 0 0 1 -0.73076,0.73418 0.73417956,0.73417956 0 0 1 -0.73757,-0.72733 0.73417956,0.73417956 0 0 1 0.72389,-0.74095 0.73417956,0.73417956 0 0 1 0.74431,0.72042" />
    <path
       style="font-variation-settings:normal;opacity:0.99;vector-effect:none;fill:#000000;fill-opacity:1;fill-rule:evenodd;stroke:none;stroke-width:0.264567;stroke-linecap:butt;stroke-linejoin:round;stroke-miterlimit:4;stroke-dasharray:none;stroke-dashoffset:0;stroke-opacity:1;-inkscape-stroke:none;marker-start:none;marker-end:none;stop-color:#000000;stop-opacity:1"
       id="path13990"
       sodipodi:type="arc"
       sodipodi:cx="157.41777"
       sodipodi:cy="223.91412"
       sodipodi:rx="0.73417956"
       sodipodi:ry="0.73417956"
       sodipodi:start="0"
       sodipodi:end="6.2645452"
       sodipodi:open="true"
       sodipodi:arc-type="arc"
       d="m 158.15195,223.91412 a 0.73417956,0.73417956 0 0 1 -0.73076,0.73418 0.73417956,0.73417956 0 0 1 -0.73757,-0.72733 0.73417956,0.73417956 0 0 1 0.72389,-0.74095 0.73417956,0.73417956 0 0 1 0.74431,0.72042" />
    <path
       style="font-variation-settings:normal;opacity:0.99;vector-effect:none;fill:#000000;fill-opacity:1;fill-rule:evenodd;stroke:none;stroke-width:0.264567;stroke-linecap:butt;stroke-linejoin:round;stroke-miterlimit:4;stroke-dasharray:none;stroke-dashoffset:0;stroke-opacity:1;-inkscape-stroke:none;marker-start:none;marker-end:none;stop-color:#000000;stop-opacity:1"
       id="path13992"
       sodipodi:type="arc"
       sodipodi:cx="157.41777"
       sodipodi:cy="231.32243"
       sodipodi:rx="0.73417956"
       sodipodi:ry="0.73417956"
       sodipodi:start="0"
       sodipodi:end="6.2645452"
       sodipodi:open="true"
       sodipodi:arc-type="arc"
       d="m 158.15195,231.32243 a 0.73417956,0.73417956 0 0 1 -0.73076,0.73418 0.73417956,0.73417956 0 0 1 -0.73757,-0.72733 0.73417956,0.73417956 0 0 1 0.72389,-0.74095 0.73417956,0.73417956 0 0 1 0.74431,0.72042" />
    <path
       style="font-variation-settings:normal;opacity:0.99;vector-effect:none;fill:#000000;fill-opacity:1;fill-rule:evenodd;stroke:none;stroke-width:0.264567;stroke-linecap:butt;stroke-linejoin:round;stroke-miterlimit:4;stroke-dasharray:none;stroke-dashoffset:0;stroke-opacity:1;-inkscape-stroke:none;marker-start:none;marker-end:none;stop-color:#000000;stop-opacity:1"
       id="path13994"
       sodipodi:type="arc"
       sodipodi:cx="189.1678"
       sodipodi:cy="197.98508"
       sodipodi:rx="0.73417956"
       sodipodi:ry="0.73417956"
       sodipodi:start="0"
       sodipodi:end="6.2645452"
       sodipodi:open="true"
       sodipodi:arc-type="arc"
       d="m 189.90198,197.98508 a 0.73417956,0.73417956 0 0 1 -0.73076,0.73417 0.73417956,0.73417956 0 0 1 -0.73757,-0.72733 0.73417956,0.73417956 0 0 1 0.72389,-0.74095 0.73417956,0.73417956 0 0 1 0.74431,0.72042" />
    <path
       style="font-variation-settings:normal;opacity:0.99;vector-effect:none;fill:#000000;fill-opacity:1;fill-rule:evenodd;stroke:none;stroke-width:0.264567;stroke-linecap:butt;stroke-linejoin:round;stroke-miterlimit:4;stroke-dasharray:none;stroke-dashoffset:0;stroke-opacity:1;-inkscape-stroke:none;marker-start:none;marker-end:none;stop-color:#000000;stop-opacity:1"
       id="path13996"
       sodipodi:type="arc"
       sodipodi:cx="189.1678"
       sodipodi:cy="205.39339"
       sodipodi:rx="0.73417956"
       sodipodi:ry="0.73417956"
       sodipodi:start="0"
       sodipodi:end="6.2645452"
       sodipodi:open="true"
       sodipodi:arc-type="arc"
       d="m 189.90198,205.39339 a 0.73417956,0.73417956 0 0 1 -0.73076,0.73417 0.73417956,0.73417956 0 0 1 -0.73757,-0.72733 0.73417956,0.73417956 0 0 1 0.72389,-0.74095 0.73417956,0.73417956 0 0 1 0.74431,0.72042" />
    <path
       style="font-variation-settings:normal;opacity:0.99;vector-effect:none;fill:#000000;fill-opacity:1;fill-rule:evenodd;stroke:none;stroke-width:0.264567;stroke-linecap:butt;stroke-linejoin:round;stroke-miterlimit:4;stroke-dasharray:none;stroke-dashoffset:0;stroke-opacity:1;-inkscape-stroke:none;marker-start:none;marker-end:none;stop-color:#000000;stop-opacity:1"
       id="path13998"
       sodipodi:type="arc"
       sodipodi:cx="189.1678"
       sodipodi:cy="212.8017"
       sodipodi:rx="0.73417956"
       sodipodi:ry="0.73417956"
       sodipodi:start="0"
       sodipodi:end="6.2645452"
       sodipodi:open="true"
       sodipodi:arc-type="arc"
       d="m 189.90198,212.8017 a 0.73417956,0.73417956 0 0 1 -0.73076,0.73417 0.73417956,0.73417956 0 0 1 -0.73757,-0.72733 0.73417956,0.73417956 0 0 1 0.72389,-0.74095 0.73417956,0.73417956 0 0 1 0.74431,0.72042" />
    <path
       style="font-variation-settings:normal;opacity:0.99;vector-effect:none;fill:#000000;fill-opacity:1;fill-rule:evenodd;stroke:none;stroke-width:0.264567;stroke-linecap:butt;stroke-linejoin:round;stroke-miterlimit:4;stroke-dasharray:none;stroke-dashoffset:0;stroke-opacity:1;-inkscape-stroke:none;marker-start:none;marker-end:none;stop-color:#000000;stop-opacity:1"
       id="path14000"
       sodipodi:type="arc"
       sodipodi:cx="189.1678"
       sodipodi:cy="220.21001"
       sodipodi:rx="0.73417956"
       sodipodi:ry="0.73417956"
       sodipodi:start="0"
       sodipodi:end="6.2645452"
       sodipodi:open="true"
       sodipodi:arc-type="arc"
       d="m 189.90198,220.21001 a 0.73417956,0.73417956 0 0 1 -0.73076,0.73417 0.73417956,0.73417956 0 0 1 -0.73757,-0.72733 0.73417956,0.73417956 0 0 1 0.72389,-0.74095 0.73417956,0.73417956 0 0 1 0.74431,0.72042" />
    <text
       xml:space="preserve"
       style="font-size:3.52777px;line-height:1.25;font-family:sans-serif;letter-spacing:0px;word-spacing:0px;stroke-width:0.264583"
       x="151.53139"
       y="195.26617"
       id="text14099"><tspan
         sodipodi:role="line"
         id="tspan14097"
         style="stroke-width:0.264583"
         x="151.53139"
         y="195.26617">\(e_2\)</tspan></text>
    <text
       xml:space="preserve"
       style="font-size:3.52777px;line-height:1.25;font-family:sans-serif;letter-spacing:0px;word-spacing:0px;stroke-width:0.264583"
       x="151.53139"
       y="202.67448"
       id="text14205"><tspan
         sodipodi:role="line"
         id="tspan14203"
         style="stroke-width:0.264583"
         x="151.53139"
         y="202.67448">\(e_3\)</tspan></text>
    <text
       xml:space="preserve"
       style="font-size:3.52777px;line-height:1.25;font-family:sans-serif;letter-spacing:0px;word-spacing:0px;stroke-width:0.264583"
       x="151.53139"
       y="210.08279"
       id="text14311"><tspan
         sodipodi:role="line"
         id="tspan14309"
         style="stroke-width:0.264583"
         x="151.53139"
         y="210.08279">\(e_4\)</tspan></text>
    <text
       xml:space="preserve"
       style="font-size:3.52777px;line-height:1.25;font-family:sans-serif;letter-spacing:0px;word-spacing:0px;stroke-width:0.264583"
       x="151.53139"
       y="217.4911"
       id="text14515"><tspan
         sodipodi:role="line"
         id="tspan14513"
         style="stroke-width:0.264583"
         x="151.53139"
         y="217.4911">\(e_5\)</tspan></text>
    <text
       xml:space="preserve"
       style="font-size:3.52777px;line-height:1.25;font-family:sans-serif;letter-spacing:0px;word-spacing:0px;stroke-width:0.264583"
       x="151.53139"
       y="224.89941"
       id="text14711"><tspan
         sodipodi:role="line"
         id="tspan14709"
         style="stroke-width:0.264583"
         x="151.53139"
         y="224.89941">\(e_6\)</tspan></text>
    <text
       xml:space="preserve"
       style="font-size:3.52777px;line-height:1.25;font-family:sans-serif;letter-spacing:0px;word-spacing:0px;stroke-width:0.264583"
       x="151.53139"
       y="232.30772"
       id="text14817"><tspan
         sodipodi:role="line"
         id="tspan14815"
         style="stroke-width:0.264583"
         x="151.53139"
         y="232.30772">\(e_7\)</tspan></text>
    <text
       xml:space="preserve"
       style="font-size:3.52777px;line-height:1.25;font-family:sans-serif;letter-spacing:0px;word-spacing:0px;stroke-width:0.264583"
       x="191.2206"
       y="206.37868"
       id="text18882"><tspan
         sodipodi:role="line"
         id="tspan18880"
         style="stroke-width:0.264583"
         x="191.2206"
         y="206.37868">\(S_2\)</tspan></text>
    <text
       xml:space="preserve"
       style="font-size:3.52777px;line-height:1.25;font-family:sans-serif;letter-spacing:0px;word-spacing:0px;stroke-width:0.264583"
       x="191.2206"
       y="213.78699"
       id="text19318"><tspan
         sodipodi:role="line"
         id="tspan19316"
         style="stroke-width:0.264583"
         x="191.2206"
         y="213.78699">\(S_3\)</tspan></text>
    <text
       xml:space="preserve"
       style="font-size:3.52777px;line-height:1.25;font-family:sans-serif;letter-spacing:0px;word-spacing:0px;stroke-width:0.264583"
       x="191.2206"
       y="221.1953"
       id="text19322"><tspan
         sodipodi:role="line"
         id="tspan19320"
         style="stroke-width:0.264583"
         x="191.2206"
         y="221.1953">\(S_4\)</tspan></text>
    <path
       style="fill:none;stroke:#000000;stroke-width:0.264583px;stroke-linecap:butt;stroke-linejoin:miter;stroke-opacity:1"
       d="m 157.40216,186.90828 31.72354,11.06805 -31.69926,-3.68935"
       id="path21931" />
    <path
       style="fill:none;stroke:#000000;stroke-width:0.264583px;stroke-linecap:butt;stroke-linejoin:miter;stroke-opacity:1"
       d="m 157.42644,194.28698 31.58362,11.11895 -31.76,-3.67612"
       id="path21933" />
    <path
       style="fill:none;stroke:#000000;stroke-width:0.264583px;stroke-linecap:butt;stroke-linejoin:miter;stroke-opacity:1"
       d="m 157.25006,209.16754 31.76,3.67613"
       id="path21935" />
    <path
       style="fill:none;stroke:#000000;stroke-width:0.264583px;stroke-linecap:butt;stroke-linejoin:miter;stroke-opacity:1"
       d="m 157.33721,216.54407 31.77636,3.65843 -31.72889,3.82298"
       id="path21937" />
    <path
       style="fill:none;stroke:#000000;stroke-width:0.264583px;stroke-linecap:butt;stroke-linejoin:miter;stroke-opacity:1"
       d="m 189.11357,220.2025 -31.65502,11.17345"
       id="path21939" />
    <text
       xml:space="preserve"
       style="font-size:3.52777px;line-height:1.25;font-family:sans-serif;letter-spacing:0px;word-spacing:0px;stroke-width:0.264583"
       x="186.13698"
       y="182.23756"
       id="text11256"><tspan
         sodipodi:role="line"
         id="tspan11254"
         style="stroke-width:0.264583"
         x="186.13698"
         y="182.23756">Set</tspan></text>
    <text
       xml:space="preserve"
       style="font-size:3.52777px;line-height:1.25;font-family:sans-serif;letter-spacing:0px;word-spacing:0px;stroke-width:0.264583"
       x="150.05132"
       y="182.23756"
       id="text11538"><tspan
         sodipodi:role="line"
         id="tspan11536"
         style="stroke-width:0.264583"
         x="150.05132"
         y="182.23756">Element</tspan></text>
  </g>
</svg>
