<?xml version="1.0" encoding="UTF-8" standalone="no"?>
<!-- Created with Inkscape (http://www.inkscape.org/) -->

<svg
   width="240mm"
   height="41mm"
   viewBox="0 0 240 41"
   version="1.1"
   id="svg8"
   inkscape:version="1.1.1 (c3084ef, 2021-09-22)"
   sodipodi:docname="bipartite-graph-generalization.svg"
   xmlns:inkscape="http://www.inkscape.org/namespaces/inkscape"
   xmlns:sodipodi="http://sodipodi.sourceforge.net/DTD/sodipodi-0.dtd"
   xmlns="http://www.w3.org/2000/svg"
   xmlns:svg="http://www.w3.org/2000/svg"
   xmlns:rdf="http://www.w3.org/1999/02/22-rdf-syntax-ns#"
   xmlns:cc="http://creativecommons.org/ns#"
   xmlns:dc="http://purl.org/dc/elements/1.1/">
  <defs
     id="defs2">
    <rect
       x="712.54633"
       y="110.79809"
       width="246.43024"
       height="19.103119"
       id="rect2424" />
    <inkscape:path-effect
       effect="spiro"
       id="path-effect1570"
       is_visible="true"
       lpeversion="1" />
    <inkscape:path-effect
       effect="spiro"
       id="path-effect1012"
       is_visible="true"
       lpeversion="1" />
    <inkscape:path-effect
       effect="spiro"
       id="path-effect1008"
       is_visible="true"
       lpeversion="1" />
    <inkscape:path-effect
       effect="spiro"
       id="path-effect891"
       is_visible="true"
       lpeversion="1" />
  </defs>
  <sodipodi:namedview
     id="base"
     pagecolor="#ffffff"
     bordercolor="#666666"
     borderopacity="1.0"
     inkscape:pageopacity="0.0"
     inkscape:pageshadow="2"
     inkscape:zoom="0.86642196"
     inkscape:cx="397.03518"
     inkscape:cy="58.862774"
     inkscape:document-units="mm"
     inkscape:current-layer="layer1"
     showgrid="false"
     showborder="true"
     width="200mm"
     showguides="true"
     inkscape:guide-bbox="true"
     inkscape:window-width="1280"
     inkscape:window-height="639"
     inkscape:window-x="1728"
     inkscape:window-y="512"
     inkscape:window-maximized="0"
     inkscape:pagecheckerboard="0">
    <inkscape:grid
       type="xygrid"
       id="grid815"
       units="mm"
       spacingx="10"
       spacingy="10"
       empspacing="4"
       dotted="false" />
  </sodipodi:namedview>
  <metadata
     id="metadata5">
    <rdf:RDF>
      <cc:Work
         rdf:about="">
        <dc:format>image/svg+xml</dc:format>
        <dc:type
           rdf:resource="http://purl.org/dc/dcmitype/StillImage" />
      </cc:Work>
    </rdf:RDF>
  </metadata>
  <g
     inkscape:label="Layer 1"
     inkscape:groupmode="layer"
     id="layer1"
     transform="translate(0,-177)">
    <path
       style="fill:none;fill-opacity:1;stroke:#000000;stroke-width:0.264583;stroke-linecap:butt;stroke-linejoin:miter;stroke-dasharray:none;stroke-opacity:1;marker-start:none;marker-end:none"
       d="m 96.555964,184.05907 c -0.720071,1.76408 -0.947747,3.71221 -0.763349,5.60864 0.184398,1.89644 0.772809,3.74233 1.621166,5.44843 1.696713,3.4122 4.386819,6.22377 7.200469,8.79385 7.04199,6.43239 15.42845,11.83248 24.84135,13.36955 4.70645,0.76854 9.60764,0.5356 14.13671,-0.95733 4.52907,-1.49293 8.66789,-4.27662 11.53368,-8.08826 2.40741,-3.20198 3.89987,-7.21335 3.53779,-11.20299 -0.27831,-3.06654 -1.64017,-5.98586 -3.61929,-8.34473 -1.97911,-2.35887 -4.5537,-4.17634 -7.33518,-5.49714 -5.56295,-2.64161 -11.82281,-3.3118 -17.93746,-4.04361 -8.42692,-1.00854 -16.98603,-2.20214 -25.35413,-0.78617 -1.35483,0.22925 -2.71803,0.53342 -3.93088,1.17926 -1.798472,0.95767 -3.160854,2.63405 -3.930876,4.5205 z"
       id="path889"
       inkscape:path-effect="#path-effect891"
       inkscape:original-d="m 96.555964,184.05907 c -4.77974,4.89571 -2.359536,13.58614 8.058286,19.85092 12.21589,7.34604 37.98042,18.97096 50.51174,4.32396 2.54584,-2.97566 4.93951,-7.54634 3.53779,-11.20299 -4.11153,-10.72573 -19.25199,-16.04414 -28.89193,-17.88548 -3.51905,-0.67218 -18.66453,-1.77723 -25.35413,-0.78617 -1.35322,0.20047 -2.65763,0.67905 -3.93088,1.17926 -2.48379,0.97577 -2.366524,2.95615 -3.930876,4.5205 z"
       sodipodi:nodetypes="cssssssc" />
    <path
       style="fill:none;fill-opacity:1;stroke:#000000;stroke-width:0.264583;stroke-linecap:butt;stroke-linejoin:miter;stroke-dasharray:none;stroke-opacity:1;marker-start:none;marker-end:none"
       d="m 108.34859,185.43487 c -0.41259,0.22501 -0.72641,0.60351 -0.94057,1.02183 -0.21416,0.41832 -0.33599,0.87735 -0.43524,1.3367 -0.38026,1.75996 -0.44822,3.5972 -0.097,5.36317 0.35127,1.76597 1.13057,3.45817 2.32244,4.80779 1.19187,1.34963 2.80349,2.34359 4.5673,2.70555 1.76381,0.36196 3.67133,0.0699 5.19638,-0.88734 1.79455,-1.12637 2.95086,-3.0743 3.53779,-5.11014 0.38648,-1.34055 0.55314,-2.76511 0.29968,-4.13704 -0.25346,-1.37193 -0.95457,-2.68826 -2.06857,-3.52816 -0.90355,-0.68123 -2.02453,-1.01892 -3.1447,-1.17926 -2.08138,-0.29793 -4.2189,-0.0271 -6.2894,-0.3931 -0.49441,-0.0874 -0.98389,-0.21096 -1.48439,-0.25067 -0.5005,-0.0397 -1.02297,0.0103 -1.46376,0.25067 z"
       id="path1006"
       inkscape:path-effect="#path-effect1008"
       inkscape:original-d="m 108.34859,185.43487 c -3.00822,2.20264 -1.54876,1.46496 -1.37581,2.35853 1.16833,6.03636 3.24736,14.17462 11.98916,11.98917 2.0099,-0.50247 2.56487,-3.28104 3.53779,-5.11014 2.02006,-3.79769 1.94892,-5.7422 -1.76889,-7.6652 -0.99438,-0.51433 -2.05105,-0.94003 -3.1447,-1.17926 -0.84032,-0.18382 -5.09316,-0.51271 -6.2894,-0.3931 -1.11868,0.11188 0.38454,-2.5126 -2.94815,0 z"
       sodipodi:nodetypes="cssssssc" />
    <path
       style="fill:none;fill-opacity:1;stroke:#000000;stroke-width:0.264583;stroke-linecap:butt;stroke-linejoin:miter;stroke-dasharray:none;stroke-opacity:1;marker-start:none;marker-end:none"
       d="m 131.0525,195.66844 c -0.3144,0.29827 -0.58766,0.63984 -0.80964,1.01205 -0.47127,0.79021 -0.70496,1.71298 -0.71519,2.63299 -0.0102,0.92001 0.19862,1.83666 0.5616,2.6821 0.72595,1.69088 2.04189,3.0672 3.49338,4.19825 1.66392,1.29658 3.54745,2.32343 5.56631,2.93496 1.76757,0.53541 3.61923,0.74887 5.46511,0.80964 1.14301,0.0376 2.30589,0.015 3.40049,-0.31629 0.54729,-0.16565 1.07373,-0.40873 1.53683,-0.74415 0.4631,-0.33543 0.8619,-0.7649 1.13502,-1.26728 0.33944,-0.62438 0.47657,-1.34577 0.46751,-2.05639 -0.009,-0.71062 -0.15916,-1.41322 -0.36631,-2.09304 -0.63661,-2.0892 -1.82136,-3.99945 -3.35739,-5.55207 -1.53603,-1.55262 -3.4176,-2.75055 -5.44751,-3.55645 -1.30155,-0.51673 -2.67244,-0.87638 -4.06931,-0.97534 -1.39688,-0.099 -2.82134,0.0677 -4.12834,0.57052 -1.01096,0.38892 -1.94489,0.97694 -2.73256,1.7205 z"
       id="path1568"
       inkscape:path-effect="#path-effect1570"
       inkscape:original-d="m 131.0525,195.66844 c -0.26988,0.33735 -0.64092,0.61434 -0.80964,1.01205 -1.69195,3.98816 -0.0523,6.91275 3.33979,9.51334 1.66463,1.27622 3.58006,2.26073 5.56631,2.93496 1.74385,0.59195 3.62394,0.77047 5.46511,0.80964 2.57024,0.0547 4.53601,-0.23831 6.07234,-2.32772 0.7747,-1.0536 0.55341,-3.1278 0.1012,-4.14943 -1.49048,-3.36741 -5.29862,-7.72901 -8.8049,-9.10852 -2.17551,-0.85595 -5.88483,-0.90043 -8.19765,-0.40482 -0.94057,0.20155 -1.91024,1.20655 -2.73256,1.7205 z" />
    <text
       xml:space="preserve"
       style="font-size:5.64444px;line-height:1.25;font-family:sans-serif;letter-spacing:0px;stroke-width:0.264583"
       x="112.61037"
       y="194.38293"
       id="text1861"><tspan
         sodipodi:role="line"
         id="tspan1859"
         style="stroke-width:0.264583"
         x="112.61037"
         y="194.38293">\(c_1\)</tspan></text>
    <text
       xml:space="preserve"
       style="font-size:5.64444px;line-height:1.25;font-family:sans-serif;letter-spacing:0px;stroke-width:0.264583"
       x="138.40205"
       y="203.92274"
       id="text1861-8"><tspan
         sodipodi:role="line"
         id="tspan1859-9"
         style="stroke-width:0.264583"
         x="138.40205"
         y="203.92274">\(c_2\)</tspan></text>
    <text
       xml:space="preserve"
       style="font-size:5.64444px;line-height:1.25;font-family:sans-serif;letter-spacing:0px;stroke-width:0.264583"
       x="188.7249"
       y="207.1346"
       id="text2736"><tspan
         sodipodi:role="line"
         id="tspan2734"
         style="stroke-width:0.264583"
         x="188.7249"
         y="207.1346" /></text>
    <text
       xml:space="preserve"
       style="font-size:5.64444px;line-height:1.25;font-family:sans-serif;letter-spacing:0px;stroke-width:0.264583"
       x="188.76131"
       y="215.03793"
       id="text4048"><tspan
         sodipodi:role="line"
         id="tspan4046"
         style="stroke-width:0.264583"
         x="188.76131"
         y="215.03793" /></text>
    <text
       xml:space="preserve"
       transform="matrix(0.26458333,0,0,0.26458333,0,177)"
       id="text2422"
       style="font-size:13.3333px;line-height:1.25;font-family:sans-serif;letter-spacing:0px;word-spacing:0px;white-space:pre;shape-inside:url(#rect2424)" />
  </g>
</svg>
