<?xml version="1.0" encoding="UTF-8" standalone="no"?>
<!-- Created with Inkscape (http://www.inkscape.org/) -->

<svg
   width="240mm"
   height="75mm"
   viewBox="0 0 240 75"
   version="1.1"
   id="svg8"
   inkscape:version="1.1.1 (c3084ef, 2021-09-22)"
   sodipodi:docname="branching-processes.svg"
   xmlns:inkscape="http://www.inkscape.org/namespaces/inkscape"
   xmlns:sodipodi="http://sodipodi.sourceforge.net/DTD/sodipodi-0.dtd"
   xmlns="http://www.w3.org/2000/svg"
   xmlns:svg="http://www.w3.org/2000/svg"
   xmlns:rdf="http://www.w3.org/1999/02/22-rdf-syntax-ns#"
   xmlns:cc="http://creativecommons.org/ns#"
   xmlns:dc="http://purl.org/dc/elements/1.1/">
  <defs
     id="defs2">
    <inkscape:path-effect
       effect="spiro"
       id="path-effect1196"
       is_visible="true"
       lpeversion="1" />
    <inkscape:path-effect
       effect="spiro"
       id="path-effect1071"
       is_visible="true"
       lpeversion="1" />
    <inkscape:path-effect
       effect="spiro"
       id="path-effect1425"
       is_visible="true"
       lpeversion="1" />
    <inkscape:path-effect
       effect="spiro"
       id="path-effect1421"
       is_visible="true"
       lpeversion="1" />
    <inkscape:path-effect
       effect="spiro"
       id="path-effect1417"
       is_visible="true"
       lpeversion="1" />
    <inkscape:path-effect
       effect="spiro"
       id="path-effect1413"
       is_visible="true"
       lpeversion="1" />
    <inkscape:path-effect
       effect="spiro"
       id="path-effect1409"
       is_visible="true"
       lpeversion="1" />
    <inkscape:path-effect
       effect="spiro"
       id="path-effect1405"
       is_visible="true"
       lpeversion="1" />
    <inkscape:path-effect
       effect="spiro"
       id="path-effect1397"
       is_visible="true"
       lpeversion="1" />
    <inkscape:path-effect
       effect="spiro"
       id="path-effect1393"
       is_visible="true"
       lpeversion="1" />
    <inkscape:path-effect
       effect="spiro"
       id="path-effect1389"
       is_visible="true"
       lpeversion="1" />
  </defs>
  <sodipodi:namedview
     id="base"
     pagecolor="#ffffff"
     bordercolor="#666666"
     borderopacity="1.0"
     inkscape:pageopacity="0.0"
     inkscape:pageshadow="2"
     inkscape:zoom="0.83760222"
     inkscape:cx="410.69614"
     inkscape:cy="64.469743"
     inkscape:document-units="mm"
     inkscape:current-layer="layer1"
     showgrid="false"
     showborder="true"
     width="200mm"
     showguides="true"
     inkscape:guide-bbox="true"
     inkscape:window-width="1280"
     inkscape:window-height="639"
     inkscape:window-x="1728"
     inkscape:window-y="512"
     inkscape:window-maximized="0"
     inkscape:pagecheckerboard="0">
    <inkscape:grid
       type="xygrid"
       id="grid815"
       units="mm"
       spacingx="10"
       spacingy="10"
       empspacing="4"
       dotted="false" />
  </sodipodi:namedview>
  <metadata
     id="metadata5">
    <rdf:RDF>
      <cc:Work
         rdf:about="">
        <dc:format>image/svg+xml</dc:format>
        <dc:type
           rdf:resource="http://purl.org/dc/dcmitype/StillImage" />
      </cc:Work>
    </rdf:RDF>
  </metadata>
  <g
     inkscape:label="Layer 1"
     inkscape:groupmode="layer"
     id="layer1"
     transform="translate(0,-177)">
    <circle
       style="fill:#000000;fill-opacity:1;stroke:#000000;stroke-width:0.264999"
       id="path845"
       cx="131.60793"
       cy="190.40582"
       r="2.1286426" />
    <circle
       style="fill:none;stroke:#000000;stroke-width:0.264999"
       id="path845-9"
       cx="106.51958"
       cy="207.66759"
       r="2.1286426" />
    <circle
       style="fill:none;stroke:#000000;stroke-width:0.264999"
       id="path845-9-2"
       cx="120.35577"
       cy="208.46582"
       r="2.1286426" />
    <circle
       style="fill:none;stroke:#000000;stroke-width:0.264999"
       id="path845-9-7"
       cx="139.01411"
       cy="208.9575"
       r="2.1286426" />
    <circle
       style="fill:none;stroke:#000000;stroke-width:0.264999"
       id="path845-9-79"
       cx="157.44293"
       cy="207.07372"
       r="2.1286426" />
    <circle
       style="fill:none;stroke:#000000;stroke-width:0.264999"
       id="path845-9-1"
       cx="111.03146"
       cy="247.88306"
       r="2.1286426" />
    <circle
       style="fill:none;stroke:#000000;stroke-width:0.264999"
       id="path845-9-20"
       cx="124.59304"
       cy="244.64224"
       r="2.1286426" />
    <circle
       style="fill:none;stroke:#000000;stroke-width:0.264999"
       id="path845-9-3"
       cx="117.80582"
       cy="248.70784"
       r="2.1286426" />
    <circle
       style="fill:none;stroke:#000000;stroke-width:0.264999"
       id="path845-9-6"
       cx="138.74374"
       cy="227.93867"
       r="2.1286426" />
    <circle
       style="fill:none;stroke:#000000;stroke-width:0.264999"
       id="path845-9-4"
       cx="147.09833"
       cy="230.58713"
       r="2.1286426" />
    <path
       style="fill:none;stroke:#000000;stroke-width:0.264583px;stroke-linecap:butt;stroke-linejoin:miter;stroke-opacity:1"
       d="m 131.48949,190.19286 c -1.63578,-2.00553 -4.12157,-3.29374 -6.70332,-3.47386 -2.58176,-0.18012 -5.22235,0.75043 -7.12076,2.50939 -0.22238,0.20604 -0.43478,0.42262 -0.64298,0.64298 -0.84071,0.88983 -1.6165,1.84616 -2.25043,2.89341 -0.47997,0.79291 -0.89506,1.6575 -1.60745,2.25043 -0.29725,0.24741 -0.63637,0.43825 -0.96448,0.64298 -2.0423,1.2743 -3.73113,3.18447 -4.50086,5.46534 -0.48616,1.4406 -0.59796,3.00578 -0.32149,4.50086"
       id="path1387"
       inkscape:path-effect="#path-effect1389"
       inkscape:original-d="m 131.48949,190.19286 c -6.01794,4.85646 -8.09405,-0.96447 -13.82408,-0.96447 -0.30311,0 -0.45104,0.40839 -0.64298,0.64298 -0.77372,0.94566 -1.51732,1.91593 -2.25043,2.89341 -0.55311,0.73748 -0.99501,1.56143 -1.60745,2.25043 -0.2567,0.28879 -0.69126,0.36977 -0.96448,0.64298 -1.21913,1.21914 -3.87486,3.90035 -4.50086,5.46534 -0.53946,1.34865 -0.32149,3.06092 -0.32149,4.50086" />
    <path
       style="fill:none;stroke:#000000;stroke-width:0.265;stroke-linecap:butt;stroke-linejoin:miter;stroke-miterlimit:4;stroke-dasharray:3.18, 3.18;stroke-dashoffset:0;stroke-opacity:1"
       d="m 105.26104,209.85775 c -2.40674,1.95521 -5.309417,3.29491 -8.35873,3.85788 -1.214234,0.22418 -2.448892,0.32723 -3.660013,0.56766 -1.211121,0.24043 -2.418066,0.62972 -3.412771,1.36128 -0.824617,0.60647 -1.473112,1.42727 -1.989527,2.31107 -0.516415,0.88381 -0.907898,1.83394 -1.291181,2.7831 -0.383282,0.94915 -0.761424,1.90369 -1.253644,2.8012 -0.49222,0.8975 -1.104982,1.74197 -1.895451,2.39232 -1.365448,1.12341 -3.141316,1.58432 -4.851057,2.0352 -1.70974,0.45087 -3.482303,0.95805 -4.793648,2.14417 -0.236867,0.21425 -0.456811,0.44993 -0.629622,0.71853 -0.17281,0.2686 -0.297616,0.57171 -0.334851,0.88892 -0.02502,0.21313 -0.01046,0.42864 0,0.64298 0.08979,1.84059 -0.128477,3.69583 -0.64298,5.46533"
       id="path1391"
       inkscape:path-effect="#path-effect1393"
       inkscape:original-d="m 105.26104,209.85775 c -2.78625,1.28596 -5.485437,2.78039 -8.35873,3.85788 -2.288109,0.85804 -5.029732,0.58819 -7.072784,1.92894 -2.641978,1.7338 -4.06977,9.50101 -6.429803,10.28769 -4.659924,1.5533 -7.323026,-1.39266 -9.644705,4.17937 -1.18558,2.84539 -0.331283,0.34107 -0.964473,1.60745 -0.09585,0.1917 0.04203,0.43282 0,0.64298 -0.590127,2.95063 -1.626478,5.46533 -0.64298,5.46533" />
    <path
       style="fill:none;stroke:#000000;stroke-width:0.264583px;stroke-linecap:butt;stroke-linejoin:miter;stroke-opacity:1"
       d="m 120.23733,206.26737 c 0.64622,-1.65327 1.39841,-3.26512 2.25043,-4.82235 2.3172,-4.23515 5.37853,-8.06181 9.00173,-11.25216 0.75826,0.897 1.77377,1.57401 2.89341,1.92894 0.46838,0.14848 0.95424,0.24193 1.41287,0.41824 0.45863,0.17631 0.90078,0.44972 1.15905,0.86772 0.25205,0.40792 0.30252,0.92222 0.19018,1.38839 -0.11233,0.46616 -0.37704,0.88615 -0.70769,1.23342 -0.66131,0.69455 -1.56045,1.09999 -2.37419,1.60749 -0.40687,0.25374 -0.79895,0.53847 -1.12264,0.89224 -0.32369,0.35377 -0.57756,0.78136 -0.67441,1.25099 -0.0969,0.46962 -0.0258,0.9827 0.24492,1.37852 0.13533,0.1979 0.3185,0.36397 0.53228,0.47252 0.21377,0.10855 0.45804,0.15856 0.69665,0.13518 0.28341,-0.0278 0.54735,-0.15508 0.82663,-0.21073 0.13964,-0.0278 0.28494,-0.0374 0.42406,-0.007 0.13912,0.0303 0.27201,0.1034 0.35676,0.21781 0.0703,0.0949 0.10432,0.21379 0.10685,0.33182 0.003,0.11804 -0.0252,0.23535 -0.069,0.34496 -0.0877,0.21923 -0.23743,0.40694 -0.3593,0.60918 -0.2828,0.4693 -0.41534,1.02763 -0.37363,1.57396 0.0417,0.54634 0.25748,1.07807 0.60825,1.499 0.35078,0.42093 0.83488,0.72904 1.36474,0.86859 0.52986,0.13955 1.10293,0.10987 1.61554,-0.0837"
       id="path1395"
       inkscape:path-effect="#path-effect1397"
       inkscape:original-d="m 120.23733,206.26737 c 0,-3.71891 1.78427,-3.42388 2.25043,-4.82235 1.79705,-5.39115 -0.56452,-11.68245 9.00173,-11.25216 0.96447,0.64298 1.8943,1.34123 2.89341,1.92894 0.82616,0.48598 1.85553,0.64917 2.57192,1.28596 2.29251,2.03778 -4.74267,7.34023 -3.2149,8.35875 0.80373,0.53581 0.89303,-0.35722 1.60745,0 0.3218,0.16089 -0.56806,0.97774 -0.32149,1.28596 0.98116,1.22644 2.10299,2.74596 3.2149,3.85788" />
    <path
       style="fill:none;stroke:#000000;stroke-width:0.264583px;stroke-linecap:butt;stroke-linejoin:miter;stroke-opacity:1"
       d="m 131.48949,190.19286 c 0.67372,0.51623 1.48412,0.85237 2.32543,0.96454 0.84131,0.11218 1.71148,1.1e-4 2.49692,-0.32156 0.88787,-0.36362 1.65907,-0.98438 2.56817,-1.29109 0.45455,-0.15336 0.94623,-0.22423 1.4168,-0.13094 0.23528,0.0466 0.46326,0.13433 0.66408,0.2655 0.20082,0.13116 0.374,0.30632 0.49479,0.51355 0.17123,0.29377 0.23139,0.63659 0.32149,0.96447 0.17969,0.6539 0.48687,1.26901 0.64298,1.92894 0.24715,1.04482 0.10299,2.13698 0.13737,3.21008 0.0172,0.53655 0.0806,1.07647 0.25647,1.58366 0.1759,0.50719 0.47043,0.98238 0.89213,1.31457 0.4709,0.37094 1.07223,0.54351 1.66897,0.60053 0.59673,0.057 1.1977,0.007 1.79643,-0.0224 0.59874,-0.0293 1.20617,-0.0369 1.78918,0.10248 0.58302,0.13942 1.14613,0.44061 1.49671,0.92686 0.339,0.47018 0.4497,1.06098 0.64298,1.60745 0.33567,0.94907 0.94574,1.79931 1.73731,2.42126 0.79157,0.62195 1.76201,1.01353 2.76355,1.11513"
       id="path1403"
       inkscape:path-effect="#path-effect1405"
       inkscape:original-d="m 131.48949,190.19286 c 1.60745,0.21433 3.20067,0.64298 4.82235,0.64298 1.72796,0 3.41887,-0.74445 5.14384,-0.64298 0.3383,0.0199 0.21433,0.64298 0.32149,0.96447 0.21433,0.64298 0.53156,1.2604 0.64298,1.92894 0.3328,1.9968 -1.23875,5.02629 1.28597,6.10831 1.51292,0.6484 5.96737,0.23559 6.75129,1.60746 0.28631,0.50105 0.28247,1.15681 0.64298,1.60745 1.35501,1.69377 4.50086,4.90533 4.50086,3.53639" />
    <path
       style="fill:none;stroke:#000000;stroke-width:0.264583px;stroke-linecap:butt;stroke-linejoin:miter;stroke-opacity:1"
       d="m 140.04372,210.844 c 1.3774,3.14775 1.2559,6.91372 -0.32153,9.96614 -0.33037,0.63929 -0.72192,1.25144 -0.96447,1.92894 -0.36842,1.02908 -0.36842,2.18583 0,3.21491"
       id="path1407"
       inkscape:path-effect="#path-effect1409"
       inkscape:original-d="m 140.04372,210.844 c -3.10838,3.57076 0.37773,6.46984 -0.32153,9.96614 -0.2994,1.49698 -1.15454,0.0282 -0.96447,1.92894 0.10663,1.06632 1.07163,3.21491 0,3.21491" />
    <path
       style="fill:none;stroke:#000000;stroke-width:0.264583px;stroke-linecap:butt;stroke-linejoin:miter;stroke-opacity:1"
       d="m 139.82833,210.81596 c 0.93901,-0.0821 1.89922,0.093 2.74887,0.50113 0.84964,0.40814 1.58644,1.04826 2.1093,1.83255 0.52285,0.78428 0.83035,1.71061 0.88031,2.65187 0.0499,0.94127 -0.15777,1.89494 -0.59468,2.73016 -0.13523,0.25852 -0.29183,0.50578 -0.41792,0.76889 -0.12608,0.2631 -0.22201,0.54682 -0.22506,0.83856 -0.004,0.34251 0.1244,0.6812 0.33648,0.95018 0.21208,0.26898 0.50493,0.46954 0.82493,0.59174 0.63998,0.24438 1.36189,0.17569 2.0178,-0.022 0.65592,-0.19769 1.26748,-0.51695 1.90077,-0.77821 0.63328,-0.26127 1.30939,-0.46754 1.99281,-0.42022 0.34278,0.0237 0.68928,0.11575 0.96447,0.32149 0.34036,0.25447 0.54384,0.67041 0.57626,1.09414 0.0324,0.42373 -0.097,0.85142 -0.32449,1.2104 -0.22744,0.35898 -0.54881,0.65225 -0.90516,0.88379 -0.35636,0.23153 -0.74798,0.40383 -1.14606,0.55259 -0.79616,0.29753 -1.63504,0.5094 -2.35768,0.95682 -0.36132,0.22371 -0.69062,0.50706 -0.93096,0.85753 -0.24035,0.35048 -0.38808,0.7712 -0.37725,1.19603 0.009,0.34378 0.12223,0.68419 0.32149,0.96447"
       id="path1411"
       inkscape:path-effect="#path-effect1413"
       inkscape:original-d="m 139.82833,210.81596 c 5.92581,4.60083 8.18529,3.91385 5.1438,7.71571 -0.38778,0.48474 -1.06574,1.56518 -0.64298,1.60745 2.34832,0.23484 4.71799,0.16451 7.07279,0.32149 0.33813,0.0225 1.25506,0.14714 0.96447,0.32149 -3.74784,2.2487 -6.23148,1.38826 -5.46534,6.7513 0.36942,2.5859 0.32149,-0.42268 0.32149,0.96447" />
    <path
       style="fill:none;stroke:#000000;stroke-width:0.264583px;stroke-linecap:butt;stroke-linejoin:miter;stroke-opacity:1"
       d="m 120.23733,210.73429 c -3.31254,-0.15378 -6.6682,1.02531 -9.15647,3.21736 -2.48828,2.19205 -4.08104,5.37227 -4.34612,8.67777 -0.32076,3.99982 1.21586,7.90163 1.60745,11.89514 0.16769,1.71011 0.1247,3.43684 0.32149,5.14385 0.19125,1.65895 0.61085,3.29496 1.28597,4.82235 0.19382,0.4385 0.40847,0.8678 0.64298,1.28596"
       id="path1415"
       inkscape:path-effect="#path-effect1417"
       inkscape:original-d="m 120.23733,210.73429 c -4.50086,3.96505 -10.42781,6.74488 -13.50259,11.89513 -3.74877,6.27921 0.49993,7.74193 1.60745,11.89514 0.47779,1.7917 -0.0394,3.42939 0.32149,5.14385 0.34273,1.62793 0.75988,3.2441 1.28597,4.82235 0.70242,2.10727 0.64298,0.28586 0.64298,1.28596" />
    <path
       style="fill:none;stroke:#000000;stroke-width:0.264583px;stroke-linecap:butt;stroke-linejoin:miter;stroke-opacity:1"
       d="m 120.23733,210.50073 c 0.2166,2.036 0.10764,4.10629 -0.32149,6.10831 -0.45934,2.14295 -1.28614,4.23818 -1.28596,6.4298 3e-5,0.32156 0.018,0.64342 0,0.96448 -0.0404,0.72051 -0.26188,1.42114 -0.55913,2.07872 -0.29726,0.65759 -0.67014,1.27762 -1.03134,1.90236 -0.36121,0.62475 -0.71302,1.25889 -0.96389,1.93553 -0.25088,0.67664 -0.39882,1.40147 -0.33905,2.12064 0.0523,0.62858 0.26116,1.23522 0.52845,1.80654 0.26728,0.57132 0.59332,1.1128 0.89626,1.66605 0.30293,0.55324 0.58476,1.1232 0.75487,1.73058 0.17011,0.60738 0.22451,1.25787 0.0709,1.86962 -0.0826,0.32879 -0.22312,0.64005 -0.32149,0.96447 -0.31392,1.03527 -0.18544,2.14909 0,3.2149 0.16942,0.97372 0.38405,1.93958 0.64298,2.89341"
       id="path1419"
       inkscape:path-effect="#path-effect1421"
       inkscape:original-d="m 120.23733,210.50073 c -0.10716,2.0361 -0.0622,4.08594 -0.32149,6.10831 -0.27794,2.16797 -0.91146,4.27642 -1.28596,6.4298 -0.0551,0.31674 0.0924,0.65654 0,0.96448 -0.7895,2.63166 -3.61154,5.16476 -2.89341,8.03725 0.60004,2.40019 2.00425,4.611 2.25043,7.07279 0.0337,0.33719 -0.25503,0.63216 -0.32149,0.96447 -0.21017,1.05082 -0.13292,2.15154 0,3.2149 0.66897,5.35177 0.64298,1.36373 0.64298,2.89341" />
    <path
       style="fill:none;stroke:#000000;stroke-width:0.264583px;stroke-linecap:butt;stroke-linejoin:miter;stroke-opacity:1"
       d="m 120.23733,210.86314 c -1.51003,0.81055 -2.80278,2.02152 -3.71015,3.47544 -0.90737,1.45392 -1.42716,3.14728 -1.49178,4.85988 -0.0646,1.71261 0.32606,3.44033 1.12128,4.95849 0.79521,1.51817 1.99302,2.82312 3.43767,3.74517 0.40496,0.25847 0.8311,0.48836 1.28596,0.64298 0.71471,0.24295 1.48197,0.29444 2.20264,0.51911 0.36033,0.11233 0.71064,0.26974 1.00763,0.50268 0.29698,0.23294 0.53885,0.54572 0.64761,0.90715 0.0931,0.30951 0.0862,0.6399 0.0588,0.96196 -0.0274,0.32205 -0.0745,0.64414 -0.0588,0.96698 0.0265,0.54654 0.23104,1.06779 0.32149,1.60745 0.14542,0.86759 -0.008,1.75855 -0.23994,2.60704 -0.23222,0.84849 -0.54371,1.67589 -0.72453,2.5368 -0.24404,1.16191 -0.24404,2.37449 0,3.5364"
       id="path1423"
       inkscape:path-effect="#path-effect1425"
       inkscape:original-d="m 120.23733,210.86314 c 4.09795,14.63551 1.97152,1.35195 -0.64298,17.03898 -0.0788,0.47273 0.85731,0.42865 1.28596,0.64298 1.28596,0.64298 2.67578,1.11056 3.85788,1.92894 0.75304,0.52134 0.10427,1.4076 0,1.92894 -0.24619,1.23097 0.32149,0.0458 0.32149,1.60745 0,1.74449 -0.78184,3.40894 -0.96447,5.14384 -0.11296,1.07318 0,2.39101 0,3.5364" />
    <text
       xml:space="preserve"
       style="font-size:5.64444px;line-height:1.25;font-family:sans-serif;letter-spacing:0px;stroke-width:0.264583"
       x="60.902874"
       y="243.5874"
       id="text2134"><tspan
         sodipodi:role="line"
         id="tspan2132"
         style="stroke-width:0.264583"
         x="60.902874"
         y="243.5874">Dies out</tspan></text>
    <text
       xml:space="preserve"
       style="font-size:5.64444px;line-height:1.25;font-family:sans-serif;letter-spacing:0px;stroke-width:0.264583"
       x="162.29128"
       y="208.68149"
       id="text2134-9"><tspan
         sodipodi:role="line"
         id="tspan2132-5"
         style="stroke-width:0.264583"
         x="162.29128"
         y="208.68149">Dies out in generation \(2\)</tspan></text>
    <text
       xml:space="preserve"
       style="font-size:5.64444px;line-height:1.25;font-family:sans-serif;letter-spacing:0px;stroke-width:0.264583"
       x="44.854023"
       y="190.38686"
       id="text5089"><tspan
         sodipodi:role="line"
         id="tspan5087"
         style="stroke-width:0.264583"
         x="44.854023"
         y="190.38686">\(0\)</tspan></text>
    <text
       xml:space="preserve"
       style="font-size:5.64444px;line-height:1.25;font-family:sans-serif;letter-spacing:0px;stroke-width:0.264583"
       x="44.854023"
       y="212.2598"
       id="text5819"><tspan
         sodipodi:role="line"
         id="tspan5817"
         style="stroke-width:0.264583"
         x="44.854023"
         y="212.2598">\(1\)</tspan></text>
    <text
       xml:space="preserve"
       style="font-size:5.64444px;line-height:1.25;font-family:sans-serif;letter-spacing:0px;stroke-width:0.264583"
       x="44.854023"
       y="243.24117"
       id="text5819-3"><tspan
         sodipodi:role="line"
         id="tspan5817-4"
         style="stroke-width:0.264583"
         x="44.854023"
         y="243.24117">\(2\)</tspan></text>
    <text
       xml:space="preserve"
       style="font-size:5.64444px;line-height:1.25;font-family:sans-serif;letter-spacing:0px;stroke-width:0.264583"
       x="123.5017"
       y="182.34296"
       id="text9250"><tspan
         sodipodi:role="line"
         id="tspan9248"
         style="stroke-width:0.264583"
         x="123.5017"
         y="182.34296">Mother cell</tspan></text>
    <path
       style="fill:none;stroke:black;stroke-width:0.26458333;stroke-linecap:butt;stroke-linejoin:miter;stroke-opacity:1;marker-start:none;stroke-dasharray:0.26458333,0.52916667;fill-opacity:1;marker-end:none"
       d="M 42.95993,223.11875 H 160.15209"
       id="path1069"
       inkscape:path-effect="#path-effect1071"
       inkscape:original-d="m 42.95993,223.11875 c 39.064318,2.6e-4 78.12837,2.6e-4 117.19216,0" />
    <path
       style="fill:none;fill-opacity:1;stroke:#000000;stroke-width:0.264583;stroke-linecap:butt;stroke-linejoin:miter;stroke-dasharray:0.264583, 0.529167;stroke-opacity:1;marker-start:none;marker-end:none"
       d="M 42.95993,198.24788 H 160.15209"
       id="path1192"
       inkscape:path-effect="#path-effect1196"
       inkscape:original-d="m 42.95993,198.24788 c 39.064318,2.6e-4 78.12837,2.6e-4 117.19216,0" />
  </g>
</svg>
