<?xml version="1.0" encoding="UTF-8" standalone="no"?>
<!-- Created with Inkscape (http://www.inkscape.org/) -->

<svg
   width="240mm"
   height="120mm"
   viewBox="0 0 240 120"
   version="1.1"
   id="svg8"
   inkscape:version="1.1.1 (c3084ef, 2021-09-22)"
   sodipodi:docname="monte-carlo-estimator-4.svg"
   xmlns:inkscape="http://www.inkscape.org/namespaces/inkscape"
   xmlns:sodipodi="http://sodipodi.sourceforge.net/DTD/sodipodi-0.dtd"
   xmlns="http://www.w3.org/2000/svg"
   xmlns:svg="http://www.w3.org/2000/svg"
   xmlns:rdf="http://www.w3.org/1999/02/22-rdf-syntax-ns#"
   xmlns:cc="http://creativecommons.org/ns#"
   xmlns:dc="http://purl.org/dc/elements/1.1/">
  <defs
     id="defs2">
    <inkscape:path-effect
       effect="spiro"
       id="path-effect4626"
       is_visible="true"
       lpeversion="1" />
    <inkscape:path-effect
       effect="spiro"
       id="path-effect3333"
       is_visible="true"
       lpeversion="1" />
    <marker
       style="overflow:visible"
       id="TriangleOutM"
       refX="0.0"
       refY="0.0"
       orient="auto"
       inkscape:stockid="TriangleOutM"
       inkscape:isstock="true">
      <path
         transform="scale(0.4)"
         style="fill-rule:evenodd;fill:context-stroke;stroke:context-stroke;stroke-width:1.0pt"
         d="M 5.77,0.0 L -2.88,5.0 L -2.88,-5.0 L 5.77,0.0 z "
         id="path3037" />
    </marker>
    <marker
       style="overflow:visible;"
       id="Arrow2Lend"
       refX="0.0"
       refY="0.0"
       orient="auto"
       inkscape:stockid="Arrow2Lend"
       inkscape:isstock="true">
      <path
         transform="scale(1.1) rotate(180) translate(1,0)"
         d="M 8.7185878,4.0337352 L -2.2072895,0.016013256 L 8.7185884,-4.0017078 C 6.9730900,-1.6296469 6.9831476,1.6157441 8.7185878,4.0337352 z "
         style="stroke:context-stroke;fill-rule:evenodd;fill:context-stroke;stroke-width:0.62500000;stroke-linejoin:round;"
         id="path2913" />
    </marker>
    <inkscape:path-effect
       effect="spiro"
       id="path-effect1406"
       is_visible="true"
       lpeversion="1" />
    <inkscape:path-effect
       effect="spiro"
       id="path-effect862"
       is_visible="true"
       lpeversion="1" />
    <inkscape:path-effect
       effect="spiro"
       id="path-effect858"
       is_visible="true"
       lpeversion="1" />
    <marker
       style="overflow:visible"
       id="TriangleOutM-0"
       refX="0"
       refY="0"
       orient="auto"
       inkscape:stockid="TriangleOutM"
       inkscape:isstock="true">
      <path
         transform="scale(0.4)"
         style="fill:context-stroke;fill-rule:evenodd;stroke:context-stroke;stroke-width:1pt"
         d="M 5.77,0 -2.88,5 V -5 Z"
         id="path3037-1" />
    </marker>
  </defs>
  <sodipodi:namedview
     id="base"
     pagecolor="#ffffff"
     bordercolor="#666666"
     borderopacity="1.0"
     inkscape:pageopacity="0.0"
     inkscape:pageshadow="2"
     inkscape:zoom="0.98712866"
     inkscape:cx="563.7563"
     inkscape:cy="285.67705"
     inkscape:document-units="mm"
     inkscape:current-layer="layer1"
     showgrid="false"
     showborder="true"
     width="200mm"
     showguides="true"
     inkscape:guide-bbox="true"
     inkscape:window-width="1280"
     inkscape:window-height="638"
     inkscape:window-x="1680"
     inkscape:window-y="25"
     inkscape:window-maximized="0"
     inkscape:pagecheckerboard="0">
    <inkscape:grid
       type="xygrid"
       id="grid815"
       units="mm"
       spacingx="10"
       spacingy="10"
       empspacing="4"
       dotted="false" />
  </sodipodi:namedview>
  <metadata
     id="metadata5">
    <rdf:RDF>
      <cc:Work
         rdf:about="">
        <dc:format>image/svg+xml</dc:format>
        <dc:type
           rdf:resource="http://purl.org/dc/dcmitype/StillImage" />
        <dc:title />
      </cc:Work>
    </rdf:RDF>
  </metadata>
  <g
     inkscape:label="Layer 1"
     inkscape:groupmode="layer"
     id="layer1"
     transform="translate(0,-177)">
    <path
       style="fill:none;stroke:#000000;stroke-width:0.264583px;stroke-linecap:butt;stroke-linejoin:miter;stroke-opacity:1"
       d="m 22.387789,201.66622 v 72.16564"
       id="path856"
       inkscape:path-effect="#path-effect858"
       inkscape:original-d="m 22.387789,201.66622 c 2.64e-4,24.05548 2.64e-4,48.1107 0,72.16564" />
    <path
       style="fill:none;stroke:#000000;stroke-width:0.264583px;stroke-linecap:butt;stroke-linejoin:miter;stroke-opacity:1"
       d="M 9.2667629,243.76287 H 226.14961"
       id="path860"
       inkscape:path-effect="#path-effect862"
       inkscape:original-d="m 9.2667629,243.76287 c 72.2945481,2.6e-4 144.5888271,2.6e-4 216.8828471,0" />
    <path
       style="fill:none;stroke:#000000;stroke-width:0.264583;stroke-linecap:butt;stroke-linejoin:miter;stroke-miterlimit:4;stroke-dasharray:none;stroke-dashoffset:0;stroke-opacity:1"
       d="m 22.240191,219.68096 c 0.460359,-1.62711 1.708705,-3.01146 3.27972,-3.63703 1.571015,-0.62557 3.42926,-0.47825 4.882081,0.38705 1.064673,0.63412 1.89486,1.61873 2.463768,2.71962 0.568909,1.1009 0.888323,2.31657 1.073207,3.5419 0.369768,2.45068 0.216821,4.96358 0.669346,7.40033 0.851704,4.58624 3.753623,8.49833 6.728811,12.091 1.394049,1.68337 2.867689,3.37455 4.787513,4.41925 0.7507,0.4085 1.55694,0.71032 2.295602,1.14021 0.738662,0.42989 1.426883,1.01695 1.755371,1.80595 0.241299,0.57958 0.270846,1.22115 0.36827,1.84135 0.226106,1.4394 0.838137,2.81248 1.73312,3.96226 0.894983,1.14978 2.069135,2.07618 3.382324,2.70746 2.626377,1.26257 5.764566,1.30285 8.510555,0.32741 2.560671,-0.90961 4.784773,-2.65768 6.444846,-4.80909 1.660074,-2.15142 2.773123,-4.69399 3.438041,-7.32882 1.329835,-5.26966 0.895257,-10.80409 0.42868,-16.21889 -0.243119,-2.82149 -0.491108,-5.68119 0,-8.47022 0.331545,-1.88286 1.024512,-3.747 2.292465,-5.17787 0.633976,-0.71544 1.407098,-1.3133 2.278764,-1.7057 0.871666,-0.39239 1.842837,-0.57528 2.794176,-0.48184 1.053427,0.10346 2.051964,0.53841 2.946162,1.10482 0.780016,0.49408 1.500996,1.09861 2.041703,1.84706 0.540707,0.74845 0.893894,1.64891 0.904459,2.57218 0.01156,1.01011 -0.376893,1.97509 -0.7097,2.92887 -0.166403,0.47689 -0.32073,0.96015 -0.406114,1.45797 -0.08538,0.49782 -0.100353,1.01282 0.011,1.50548 0.190805,0.84416 0.75767,1.5862 1.496576,2.03679 0.738906,0.45059 1.637643,0.61568 2.496512,0.50911 0.858869,-0.10657 1.676129,-0.4766 2.357355,-1.0104 0.681226,-0.5338 1.229311,-1.2273 1.640271,-1.98896 0.821918,-1.52331 1.091786,-3.2823 1.198415,-5.00993 0.106628,-1.72762 0.06382,-3.46833 0.318882,-5.18034 0.644882,-4.32856 3.288449,-8.31773 7.023475,-10.5985"
       id="path860-5"
       sodipodi:nodetypes="cssssscssscssssc"
       inkscape:original-d="m 22.240191,219.68096 c 1.481721,1.58756 7.678464,-5.18333 8.161801,-3.24998 0.480074,1.92029 -0.15752,-6.61583 4.206321,13.66185 4.534342,21.06997 5.047626,9.84942 6.728811,12.091 1.303073,1.73743 3.060004,3.10305 4.787513,4.41925 2.16693,1.65099 3.029876,0.64869 4.050973,2.94616 0.254218,0.57199 0.0018,1.33391 0.36827,1.84135 2.793575,3.86803 7.780745,8.98701 13.625999,6.99713 11.631428,-3.95963 10.311567,-19.02534 10.311567,-28.3568 0,-2.82341 -0.511495,-5.69353 0,-8.47022 0.836323,-4.54004 2.755188,-6.92634 7.365405,-7.36541 1.04411,-0.0994 2.180999,0.38747 2.946162,1.10482 1.29159,1.21086 2.236543,2.79725 2.946162,4.41924 0.967127,2.21057 -4.083723,3.08864 -1.104811,5.89232 1.643442,1.54677 6.556256,8.77441 9.508011,-10.64373 1.047103,-6.88838 4.778935,-5.41878 7.023475,-10.5985"
       inkscape:path-effect="#path-effect1406" />
    <text
       xml:space="preserve"
       style="font-size:5.64444px;line-height:1.25;font-family:sans-serif;letter-spacing:0px;stroke-width:0.264583"
       x="5.6181531"
       y="221.23067"
       id="text1086"><tspan
         sodipodi:role="line"
         id="tspan1084"
         style="stroke-width:0.264583"
         x="5.6181531"
         y="221.23067">\(i=1\)</tspan></text>
    <circle
       style="fill:#000000;stroke:#000000;stroke-width:0.265;stroke-miterlimit:4;stroke-dasharray:none;stroke-dashoffset:0"
       id="path1190"
       cx="22.360683"
       cy="219.59607"
       r="0.87187177" />
    <circle
       style="fill:#000000;stroke:#000000;stroke-width:0.265;stroke-miterlimit:4;stroke-dasharray:none;stroke-dashoffset:0"
       id="path1190-9"
       cx="34.536892"
       cy="229.67049"
       r="0.87187177" />
    <circle
       style="fill:#000000;stroke:#000000;stroke-width:0.265;stroke-miterlimit:4;stroke-dasharray:none;stroke-dashoffset:0"
       id="path1190-27"
       cx="74.403122"
       cy="229.60127"
       r="0.87187177" />
    <circle
       style="fill:#000000;stroke:#000000;stroke-width:0.265;stroke-miterlimit:4;stroke-dasharray:none;stroke-dashoffset:0"
       id="path1190-3"
       cx="160.57231"
       cy="229.80891"
       r="0.87187177" />
    <circle
       style="fill:#000000;stroke:#000000;stroke-width:0.265;stroke-miterlimit:4;stroke-dasharray:none;stroke-dashoffset:0"
       id="path1190-24"
       cx="183.41962"
       cy="229.46176"
       r="0.87187177" />
    <circle
       style="fill:#000000;stroke:#000000;stroke-width:0.265;stroke-miterlimit:4;stroke-dasharray:none;stroke-dashoffset:0"
       id="path1190-02"
       cx="181.12834"
       cy="229.43188"
       r="0.87187177" />
    <circle
       style="fill:#000000;stroke:#000000;stroke-width:0.265;stroke-miterlimit:4;stroke-dasharray:none;stroke-dashoffset:0"
       id="path1190-7"
       cx="214.1761"
       cy="229.50201"
       r="0.87187177" />
    <circle
       style="fill:#000000;stroke:#000000;stroke-width:0.265;stroke-miterlimit:4;stroke-dasharray:none;stroke-dashoffset:0"
       id="path1190-78"
       cx="220.21785"
       cy="229.46378"
       r="0.87187177" />
    <circle
       style="fill:none;stroke:#000000;stroke-width:0.265;stroke-miterlimit:4;stroke-dasharray:none;stroke-dashoffset:0"
       id="path1190-2"
       cx="104.06757"
       cy="204.33653"
       r="0.87187177" />
    <circle
       style="fill:none;stroke:#000000;stroke-width:0.265;stroke-miterlimit:4;stroke-dasharray:none;stroke-dashoffset:0"
       id="path1190-2-0"
       cx="185.27571"
       cy="224.43648"
       r="0.87187177" />
    <circle
       style="fill:none;stroke:#000000;stroke-width:0.265;stroke-miterlimit:4;stroke-dasharray:none;stroke-dashoffset:0"
       id="path1190-2-0-7"
       cx="233.16145"
       cy="209.76366"
       r="0.87187177" />
    <circle
       style="fill:#000000;stroke:#000000;stroke-width:0.265;stroke-miterlimit:4;stroke-dasharray:none;stroke-dashoffset:0"
       id="path1190-0"
       cx="109.37434"
       cy="219.66908"
       r="0.87187177" />
    <circle
       style="fill:#000000;stroke:#000000;stroke-width:0.265;stroke-miterlimit:4;stroke-dasharray:none;stroke-dashoffset:0"
       id="path1190-0-5"
       cx="193.66705"
       cy="219.69716"
       r="0.87187177" />
    <path
       style="fill:none;stroke:#000000;stroke-width:0.264583;stroke-linecap:butt;stroke-linejoin:miter;stroke-miterlimit:4;stroke-dasharray:3.175, 3.175;stroke-dashoffset:0;stroke-opacity:1"
       d="M 22.240191,219.68096 H 224.1489"
       id="path2411" />
    <path
       style="fill:none;stroke:#000000;stroke-width:0.264583;stroke-linecap:butt;stroke-linejoin:miter;stroke-miterlimit:4;stroke-dasharray:3.175, 3.175;stroke-dashoffset:0;stroke-opacity:1"
       d="M 22.342049,229.46656 H 224.25076"
       id="path2411-9" />
    <text
       xml:space="preserve"
       style="font-size:5.64444px;line-height:1.25;font-family:sans-serif;letter-spacing:0px;stroke-width:0.264583"
       x="224.14836"
       y="249.2179"
       id="text3196"><tspan
         sodipodi:role="line"
         id="tspan3194"
         style="stroke-width:0.264583"
         x="224.14836"
         y="249.2179">\(\tau_3\)</tspan></text>
    <text
       xml:space="preserve"
       style="font-size:5.64444px;line-height:1.25;font-family:sans-serif;letter-spacing:0px;stroke-width:0.264583"
       x="23.648596"
       y="249.76219"
       id="text3794"><tspan
         sodipodi:role="line"
         id="tspan3792"
         style="stroke-width:0.264583"
         x="23.648596"
         y="249.76219">\(0\)</tspan></text>
    <path
       style="fill:none;stroke:#000000;stroke-width:0.264583px;stroke-linecap:butt;stroke-linejoin:miter;stroke-opacity:1"
       d="m 104.06995,205.15458 c 2.6e-4,13.13886 2.6e-4,25.49231 0,38.63065"
       id="path1673"
       sodipodi:nodetypes="cc" />
    <text
       xml:space="preserve"
       style="font-size:5.64444px;line-height:1.25;font-family:sans-serif;letter-spacing:0px;stroke-width:0.264583"
       x="98.055573"
       y="249.89388"
       id="text2590"><tspan
         sodipodi:role="line"
         id="tspan2588"
         style="stroke-width:0.264583"
         x="98.055573"
         y="249.89388">\(\tau_1\)</tspan></text>
    <text
       xml:space="preserve"
       style="font-size:5.64444px;line-height:1.25;font-family:sans-serif;letter-spacing:0px;stroke-width:0.264583"
       x="44.960876"
       y="201.88847"
       id="text2590-8"><tspan
         sodipodi:role="line"
         id="tspan2588-3"
         style="stroke-width:0.264583"
         x="44.960876"
         y="201.88847">\(N_1(k)=2\)</tspan></text>
    <text
       xml:space="preserve"
       style="font-size:5.64444px;line-height:1.25;font-family:sans-serif;letter-spacing:0px;stroke-width:0.264583"
       x="128.08281"
       y="201.89537"
       id="text2590-3"><tspan
         sodipodi:role="line"
         id="tspan2588-8"
         style="stroke-width:0.264583"
         x="128.08281"
         y="201.89537">\(N_2(k)=3\)</tspan></text>
    <text
       xml:space="preserve"
       style="font-size:5.64444px;line-height:1.25;font-family:sans-serif;letter-spacing:0px;stroke-width:0.264583"
       x="194.81638"
       y="201.90918"
       id="text2590-5"><tspan
         sodipodi:role="line"
         id="tspan2588-9"
         style="stroke-width:0.264583"
         x="194.81638"
         y="201.90918">\(N_3(k)=2\)</tspan></text>
    <text
       xml:space="preserve"
       style="font-size:5.64444px;line-height:1.25;font-family:sans-serif;letter-spacing:0px;stroke-width:0.264583"
       x="179.60547"
       y="249.73387"
       id="text2590-2"><tspan
         sodipodi:role="line"
         id="tspan2588-7"
         style="stroke-width:0.264583"
         x="179.60547"
         y="249.73387">\(\tau_2\)</tspan></text>
    <path
       style="fill:none;stroke:#000000;stroke-width:0.265;stroke-linecap:butt;stroke-linejoin:miter;stroke-miterlimit:4;stroke-dasharray:2.12, 2.12;stroke-dashoffset:0;stroke-opacity:1;marker-end:url(#TriangleOutM)"
       d="m 105.30299,206.3596 3.21079,10.91748"
       id="path2795"
       sodipodi:nodetypes="cc" />
    <path
       style="fill:none;stroke:#000000;stroke-width:0.265;stroke-linecap:butt;stroke-linejoin:miter;stroke-miterlimit:4;stroke-dasharray:2.12, 2.12;stroke-dashoffset:0;stroke-opacity:1;marker-end:url(#TriangleOutM-0)"
       d="m 186.66248,223.99457 5.51442,-2.97861"
       id="path2795-2"
       sodipodi:nodetypes="cc" />
    <path
       style="fill:none;stroke:#000000;stroke-width:0.264583px;stroke-linecap:butt;stroke-linejoin:miter;stroke-opacity:1"
       d="m 109.36887,219.7646 c -0.0474,1.49203 0.57593,2.99278 1.66648,4.01215 1.09056,1.01936 2.62992,1.54013 4.11536,1.39224 1.23866,-0.12332 2.40578,-0.68814 3.38163,-1.46093 0.97585,-0.77279 1.77403,-1.74751 2.4855,-2.76894 1.42293,-2.04284 2.56294,-4.34034 4.44489,-5.97014 0.47294,-0.40957 0.99873,-0.7842 1.32066,-1.32066 0.22036,-0.36721 0.33204,-0.79375 0.35646,-1.2213 0.0244,-0.42756 -0.036,-0.85685 -0.14185,-1.27182 -0.21164,-0.82995 -0.60116,-1.60253 -0.88108,-2.412 -0.27993,-0.80948 -0.44849,-1.69849 -0.20298,-2.51905 0.12276,-0.41029 0.35103,-0.79359 0.67771,-1.07051 0.32668,-0.27692 0.75452,-0.44139 1.18223,-0.41977 0.36052,0.0182 0.70615,0.16516 1.00186,0.37219 0.29571,0.20702 0.54572,0.47247 0.77791,0.74887 0.46438,0.55278 0.88756,1.1755 1.52188,1.52026 0.4021,0.21855 0.86352,0.30836 1.32066,0.33016 1.09892,0.0524 2.17954,-0.26983 3.27652,-0.35357 0.54849,-0.0419 1.10778,-0.0229 1.63625,0.12982 0.52847,0.15268 1.02635,0.44701 1.36037,0.88408 0.42733,0.55917 0.54961,1.28632 0.65913,1.9815 0.10952,0.69519 0.23281,1.42238 0.66153,1.98048 0.1899,0.2472 0.43127,0.4489 0.66033,0.66033 1.56233,1.44206 2.61812,3.48681 2.64132,5.61281 0.005,0.44035 -0.0334,0.88155 0,1.32066 0.0558,0.73469 0.3149,1.45024 0.72468,2.06258 0.40978,0.61235 0.968,1.12171 1.60459,1.4927 1.27319,0.74199 2.83429,0.91281 4.27926,0.6236 1.44496,-0.2892 2.77878,-1.01361 3.92403,-1.94095 1.14524,-0.92735 2.11343,-2.05452 3.00421,-3.22843 0.21985,-0.28973 0.43628,-0.58374 0.69076,-0.84358 0.25447,-0.25985 0.5507,-0.48643 0.8912,-0.61425 0.3405,-0.12782 0.72913,-0.14997 1.06573,-0.0122 0.16829,0.0689 0.32127,0.17695 0.43729,0.31699 0.11601,0.14003 0.19423,0.31224 0.21667,0.4927 0.0354,0.28461 -0.0695,0.57444 -0.24161,0.80383 -0.17215,0.22939 -0.40704,0.4044 -0.65317,0.55162 -0.24614,0.14721 -0.50631,0.26972 -0.75368,0.41486 -0.24736,0.14514 -0.48482,0.31587 -0.6627,0.54085 -0.21761,0.27522 -0.33435,0.61641 -0.41683,0.95743 -0.0825,0.34103 -0.13492,0.68993 -0.2435,1.02356 -0.30416,0.93457 -1.01762,1.67021 -1.51566,2.51749 -0.24902,0.42364 -0.44743,0.88653 -0.49904,1.37522 -0.0516,0.48869 0.0559,1.007 0.36388,1.38993 0.25796,0.32074 0.63785,0.52643 1.03394,0.63838 0.39608,0.11195 0.81104,0.13721 1.22245,0.14995 0.4114,0.0127 0.82493,0.0137 1.23128,0.0793 0.40635,0.0655 0.81008,0.19991 1.13464,0.45304 0.43633,0.34029 0.68842,0.85705 0.99049,1.32066 1.05461,1.61861 2.83629,2.68145 4.719,3.11442 1.88272,0.43298 3.86161,0.28038 5.74332,-0.15698 3.7634,-0.87472 7.21063,-2.85548 10.99841,-3.61777 0.21876,-0.044 0.43926,-0.084 0.66223,-0.0929 0.22297,-0.009 0.44964,0.0142 0.65843,0.0929 0.36348,0.13707 0.65349,0.44201 0.80043,0.8016 0.14695,0.3596 0.15596,0.76851 0.0547,1.14355 -0.10123,0.37505 -0.3086,0.71688 -0.57182,1.00257 -0.26322,0.28569 -0.58123,0.51715 -0.91909,0.70887 -0.67571,0.38343 -1.4272,0.60965 -2.14039,0.91782 -0.71319,0.30817 -1.41495,0.7223 -1.84618,1.36856 -0.19604,0.29379 -0.33156,0.63731 -0.33016,0.9905 0.001,0.258 0.076,0.51459 0.20925,0.7355 0.1333,0.2209 0.32416,0.40595 0.5463,0.53718 0.44428,0.26245 1.00543,0.29957 1.49509,0.13677 0.48966,-0.16279 0.90653,-0.5144 1.18672,-0.94772 0.28019,-0.43331 0.42846,-0.94437 0.46809,-1.45886 0.0793,-1.02897 -0.26146,-2.04139 -0.64543,-2.99933 -0.38397,-0.95793 -0.82074,-1.91297 -0.94887,-2.93701 -0.13584,-1.08569 0.0942,-2.21392 0.64415,-3.1598 0.54999,-0.94588 1.41675,-1.70385 2.42751,-2.12284"
       id="path3331"
       inkscape:path-effect="#path-effect3333"
       inkscape:original-d="m 109.36887,219.7646 c 1.79772,0.66135 4.39517,4.0829 5.78184,5.40439 4.14921,3.95418 6.54527,-8.55809 10.31202,-10.20001 0.5707,-0.24877 1.2493,-0.7022 1.32066,-1.32066 0.42108,-3.64943 -1.6208,-8.51272 0.99049,-8.91445 5.03646,-0.77484 1.94298,1.01091 3.30165,2.64132 0.2905,0.34859 0.87071,0.27147 1.32066,0.33016 2.08494,0.27195 4.4771,-0.43291 6.27314,0.66033 1.18913,0.72382 0.77228,2.68244 1.32066,3.96198 0.12262,0.28612 0.50018,0.39341 0.66033,0.66033 0.61451,1.02419 2.2322,4.59002 2.64132,5.61281 0.11739,0.29348 -0.35218,1.32066 0,1.32066 4.52432,0 9.03404,-0.54905 13.53677,-0.9905 1.11699,-0.10951 2.72421,-1.62273 3.30165,-0.66033 0.56054,0.93423 -1.62125,1.46794 -2.31116,2.31116 -2.13434,2.60864 -0.0452,0.34052 -0.66033,1.98099 -0.64777,1.72739 -3.36373,4.59748 -1.65082,5.28264 1.48781,0.59513 3.17022,0.64302 4.62231,1.32066 1.08495,0.50631 -0.45981,1.34231 0.99049,1.32066 7.15617,-0.10681 14.30678,-0.45297 21.46073,-0.66033 0.44004,-0.0128 1.53445,-0.38482 1.32066,0 -1.21879,2.19382 -3.16361,3.90079 -4.62231,5.94297 -0.20228,0.2832 -0.44022,1.32066 -0.33016,0.9905 0.77038,-2.31116 1.34421,-4.69741 2.31115,-6.93347 0.8019,-1.85438 2.14504,-3.48732 3.07166,-5.28264"
       sodipodi:nodetypes="csssssssssssssscssscsscsc" />
    <path
       style="fill:none;stroke:#000000;stroke-width:0.264583px;stroke-linecap:butt;stroke-linejoin:miter;stroke-opacity:1"
       d="m 193.81469,219.78762 2.84296,2.09575 4.17929,-0.91677 c -0.19784,0.56313 -0.13572,1.21184 0.16539,1.72719 0.30111,0.51535 0.83575,0.88798 1.42346,0.99212 0.23787,0.0421 0.48315,0.0421 0.72102,0 0.12556,0.52744 0.3744,1.02513 0.72102,1.44204 0.54097,0.65069 1.29953,1.08747 2.08657,1.39829 0.78705,0.31082 1.6135,0.50797 2.41979,0.76476 1.62035,0.51606 3.15367,1.27106 4.74836,1.86165 1.59469,0.59059 3.29413,1.01965 4.98538,0.84217 2.11599,-0.22206 4.07005,-1.40694 5.43151,-3.04192 1.36146,-1.63497 2.15962,-3.69029 2.49969,-5.79055 0.32118,-1.98362 0.25751,-4.04486 0.90127,-5.9484 0.81791,-2.41846 2.80892,-4.40947 5.22738,-5.22738"
       id="path4624"
       inkscape:path-effect="#path-effect4626"
       inkscape:original-d="m 193.81469,219.78762 c 3.73872,-3.69986 2.5474,4.99668 2.84296,2.09575 0.5581,-2.3215 3.01313,-5.74072 4.17929,-0.91677 0.37845,-0.0344 1.26304,2.5238 1.58885,2.71931 0.20609,0.12366 0.48068,0 0.72102,0 0.24034,0.48068 0.36545,1.03906 0.72102,1.44204 2.83466,3.21262 0.96037,0.39006 4.50636,2.16305 3.17468,1.58734 4.87795,5.5566 9.73374,2.70382 3.41172,-2.00438 5.64013,-5.60627 7.9312,-8.83247 4.75202,-6.69163 -1.40752,-0.89791 0.90127,-5.9484 1.72776,-3.77946 2.35578,-3.68113 5.22738,-5.22738"
       sodipodi:nodetypes="cccscsssssc" />
    <path
       style="fill:none;stroke:#000000;stroke-width:0.264583px;stroke-linecap:butt;stroke-linejoin:miter;stroke-opacity:1"
       d="M 185.26579,243.80457 V 225.31532"
       id="path5947"
       sodipodi:nodetypes="cc" />
    <text
       xml:space="preserve"
       style="font-size:5.64444px;line-height:1.25;font-family:sans-serif;letter-spacing:0px;stroke-width:0.264583"
       x="10.058435"
       y="230.75652"
       id="text1035"><tspan
         sodipodi:role="line"
         id="tspan1033"
         style="stroke-width:0.264583"
         x="10.058435"
         y="230.75652">\(k\)</tspan></text>
    <text
       xml:space="preserve"
       style="font-size:5.64444px;line-height:1.25;font-family:sans-serif;letter-spacing:0px;stroke-width:0.264583"
       x="127.53731"
       y="273.6145"
       id="text6370"><tspan
         sodipodi:role="line"
         id="tspan6368"
         style="stroke-width:0.264583"
         x="127.53731"
         y="273.6145">\(T = 3\)</tspan></text>
  </g>
</svg>
