<?xml version="1.0" encoding="UTF-8" standalone="no"?>
<!-- Created with Inkscape (http://www.inkscape.org/) -->

<svg
   width="240mm"
   height="50mm"
   viewBox="0 0 240 50"
   version="1.1"
   id="svg8"
   inkscape:version="1.1.1 (c3084ef, 2021-09-22)"
   sodipodi:docname="monte-carlo-estimator-1.svg"
   xmlns:inkscape="http://www.inkscape.org/namespaces/inkscape"
   xmlns:sodipodi="http://sodipodi.sourceforge.net/DTD/sodipodi-0.dtd"
   xmlns="http://www.w3.org/2000/svg"
   xmlns:svg="http://www.w3.org/2000/svg"
   xmlns:rdf="http://www.w3.org/1999/02/22-rdf-syntax-ns#"
   xmlns:cc="http://creativecommons.org/ns#"
   xmlns:dc="http://purl.org/dc/elements/1.1/">
  <defs
     id="defs2">
    <inkscape:path-effect
       effect="spiro"
       id="path-effect1406"
       is_visible="true"
       lpeversion="1" />
    <inkscape:path-effect
       effect="spiro"
       id="path-effect862"
       is_visible="true"
       lpeversion="1" />
    <inkscape:path-effect
       effect="spiro"
       id="path-effect858"
       is_visible="true"
       lpeversion="1" />
    <marker
       id="marker-arrow-1"
       orient="auto-start-reverse"
       refY="0"
       refX="0"
       markerHeight="3"
       markerWidth="2">
      <g
         transform="scale(1.3933333)"
         id="g5259"><path
   d="M -1.55415,2.0722 C -1.42464,1.29512 0,0.1295 0.38852,0 0,-0.1295 -1.42464,-1.29512 -1.55415,-2.0722"
   style="fill:none;stroke:#000000;stroke-linecap:round;stroke-linejoin:round;stroke-miterlimit:10;stroke-dasharray:none;stroke-opacity:1"
   id="path5257" />


0&quot; /&gt;
   </g>
    </marker>
    <marker
       id="marker-arrow-1-9"
       orient="auto-start-reverse"
       refY="0"
       refX="0"
       markerHeight="3"
       markerWidth="2">
      <g
         transform="scale(1.3933333)"
         id="g5299"><path
   d="M -1.55415,2.0722 C -1.42464,1.29512 0,0.1295 0.38852,0 0,-0.1295 -1.42464,-1.29512 -1.55415,-2.0722"
   style="fill:none;stroke:#000000;stroke-linecap:round;stroke-linejoin:round;stroke-miterlimit:10;stroke-dasharray:none;stroke-opacity:1"
   id="path5297" />


0&quot; /&gt;
   </g>
    </marker>
    <marker
       id="marker-arrow-1-97"
       orient="auto-start-reverse"
       refY="0"
       refX="0"
       markerHeight="3"
       markerWidth="2">
      <g
         transform="scale(1.3933333)"
         id="g5387"><path
   d="M -1.55415,2.0722 C -1.42464,1.29512 0,0.1295 0.38852,0 0,-0.1295 -1.42464,-1.29512 -1.55415,-2.0722"
   style="fill:none;stroke:#000000;stroke-linecap:round;stroke-linejoin:round;stroke-miterlimit:10;stroke-dasharray:none;stroke-opacity:1"
   id="path5385" />


0&quot; /&gt;
   </g>
    </marker>
  </defs>
  <sodipodi:namedview
     id="base"
     pagecolor="#ffffff"
     bordercolor="#666666"
     borderopacity="1.0"
     inkscape:pageopacity="0.0"
     inkscape:pageshadow="2"
     inkscape:zoom="2.0353158"
     inkscape:cx="152.80184"
     inkscape:cy="75.909596"
     inkscape:document-units="mm"
     inkscape:current-layer="layer1"
     showgrid="false"
     showborder="true"
     width="200mm"
     showguides="true"
     inkscape:guide-bbox="true"
     inkscape:window-width="1280"
     inkscape:window-height="638"
     inkscape:window-x="1728"
     inkscape:window-y="512"
     inkscape:window-maximized="0"
     inkscape:pagecheckerboard="0">
    <inkscape:grid
       type="xygrid"
       id="grid815"
       units="mm"
       spacingx="10"
       spacingy="10"
       empspacing="4"
       dotted="false" />
  </sodipodi:namedview>
  <metadata
     id="metadata5">
    <rdf:RDF>
      <cc:Work
         rdf:about="">
        <dc:format>image/svg+xml</dc:format>
        <dc:type
           rdf:resource="http://purl.org/dc/dcmitype/StillImage" />
      </cc:Work>
    </rdf:RDF>
  </metadata>
  <g
     inkscape:label="Layer 1"
     inkscape:groupmode="layer"
     id="layer1"
     transform="translate(0,-177)">
    <path
       style="fill:none;stroke:#000000;stroke-width:0.264583px;stroke-linecap:butt;stroke-linejoin:miter;stroke-opacity:1"
       d="m 22.387789,182.61622 v 44.14879"
       id="path856"
       inkscape:path-effect="#path-effect858"
       inkscape:original-d="m 22.387789,182.61622 c 2.64e-4,24.05548 2.64e-4,20.09385 0,44.14879"
       sodipodi:nodetypes="cc" />
    <path
       style="fill:none;fill-opacity:1;stroke:#000000;stroke-width:0.264583;stroke-linecap:butt;stroke-linejoin:miter;stroke-dasharray:none;stroke-opacity:1;marker-start:none;marker-end:url(#marker-arrow-1)"
       d="M 9.2667629,208.83786 H 226.14961"
       id="path860"
       inkscape:path-effect="#path-effect862"
       inkscape:original-d="m 9.2667629,208.83786 c 72.2945481,2.6e-4 144.5888271,2.6e-4 216.8828471,0" />
    <path
       style="fill:none;stroke:#000000;stroke-width:0.264583;stroke-linecap:butt;stroke-linejoin:miter;stroke-miterlimit:4;stroke-dasharray:none;stroke-dashoffset:0;stroke-opacity:1"
       d="m 22.240191,195.33929 c 0.400727,-1.66587 1.647437,-3.10476 3.239265,-3.73862 1.591829,-0.63386 3.486386,-0.44579 4.922536,0.48864 1.031123,0.6709 1.809018,1.68627 2.327771,2.80172 0.518753,1.11545 0.79144,2.33099 0.953115,3.5505 0.323349,2.439 0.221313,4.95219 0.925435,7.30963 0.662833,2.2192 2.0005,4.16564 3.32873,6.06301 1.32823,1.89736 2.686453,3.8246 3.400081,6.02799 0.402919,1.24405 0.610475,2.59434 1.387587,3.64605 0.388556,0.52585 0.924395,0.961 1.5539,1.13769 0.314753,0.0883 0.64939,0.11055 0.970935,0.0515 0.321545,-0.059 0.629299,-0.20046 0.875091,-0.41601 0.33888,-0.29718 0.547164,-0.72176 0.65192,-1.16015 0.104756,-0.43838 0.113433,-0.89365 0.106657,-1.34432 -0.0068,-0.45068 -0.02842,-0.9028 0.01751,-1.35118 0.04593,-0.44838 0.163438,-0.89818 0.41267,-1.27373 0.28573,-0.43055 0.736517,-0.74208 1.232221,-0.888 0.495703,-0.14592 1.032883,-0.13067 1.52952,0.012 0.993276,0.28541 1.78827,1.05541 2.334085,1.93299 0.545815,0.87758 0.877105,1.86786 1.233363,2.83798 0.356257,0.97013 0.751166,1.94562 1.399065,2.75078 0.894634,1.11178 2.229274,1.82296 3.626984,2.11079 1.39771,0.28782 2.856155,0.1747 4.243653,-0.15889 2.960468,-0.71178 5.676628,-2.45849 7.480281,-4.91162 2.396926,-3.26003 3.065292,-7.46817 3.244767,-11.51055 0.179475,-4.04238 -0.0516,-8.14254 0.844113,-12.08852 0.420472,-1.85236 1.111324,-3.69021 2.356785,-5.12438 0.622731,-0.71709 1.380302,-1.32362 2.239944,-1.72738 0.859643,-0.40376 1.822889,-0.60022 2.768676,-0.51365 1.054437,0.0965 2.052467,0.53696 2.946162,1.10482 0.779516,0.49531 1.501671,1.09854 2.043454,1.8465 0.541783,0.74796 0.895764,1.6492 0.902708,2.57274 0.0076,1.01101 -0.390054,1.97393 -0.726518,2.92735 -0.168232,0.4767 -0.323089,0.96046 -0.406161,1.45911 -0.08307,0.49865 -0.0927,1.01493 0.02787,1.50586 0.148681,0.60543 0.494095,1.15522 0.948944,1.58155 0.454849,0.42634 1.01589,0.73196 1.609758,0.92162 1.187737,0.37931 2.475143,0.29761 3.701893,0.0747 2.270799,-0.41259 4.481279,-1.31654 6.24268,-2.80793 1.761401,-1.49138 3.045231,-3.59766 3.332341,-5.88771 0.10331,-0.82399 0.08,-1.6632 0.23785,-2.47851 0.0789,-0.40765 0.20397,-0.8092 0.40474,-1.17265 0.20078,-0.36345 0.47997,-0.68834 0.83049,-0.91092 0.42494,-0.26983 0.93466,-0.37844 1.43726,-0.40631 0.50259,-0.0279 1.00587,0.0199 1.50891,0.038 2.04612,0.0736 4.07351,-0.34353 6.10844,-0.56957 2.03492,-0.22604 4.16696,-0.24712 6.04447,0.56957 2.13205,0.9274 3.72548,2.89233 4.45038,5.10145 0.92895,2.83096 0.52041,5.93127 1.14962,8.84355 0.62623,2.89852 2.26605,5.54418 2.57685,8.49324 0.16482,1.56395 -0.053,3.15884 0.21893,4.70776 0.13599,0.77445 0.39955,1.53762 0.8605,2.17465 0.46095,0.63703 1.13233,1.14028 1.90085,1.30656 0.72868,0.15766 1.50744,0.003 2.15833,-0.36048 0.6509,-0.36355 1.17836,-0.92552 1.56498,-1.56298 0.77323,-1.27492 0.98594,-2.80102 1.18129,-4.27925 0.84336,-6.38166 1.6689,-12.77118 2.08066,-19.19514 0.19035,-2.96963 0.2914,-5.96181 -0.0971,-8.91207 -0.16015,-1.21622 -0.403,-2.45272 -0.17736,-3.65851 0.11282,-0.60289 0.34694,-1.19069 0.73357,-1.66685 0.38663,-0.47616 0.93325,-0.83402 1.5382,-0.93523 0.36799,-0.0616 0.74911,-0.0281 1.10723,0.0766 0.35811,0.10468 0.69376,0.27932 0.99791,0.49541 0.60832,0.43217 1.08534,1.02186 1.52916,1.62173 0.44382,0.59987 0.86585,1.22152 1.39497,1.74769 0.52912,0.52616 1.18356,0.95831 1.91975,1.08016 0.67039,0.11096 1.3621,-0.043 1.98705,-0.30981 0.62495,-0.26679 1.19587,-0.64283 1.7738,-1.00024 0.57792,-0.35742 1.17352,-0.70123 1.82521,-0.89369 0.65169,-0.19246 1.37168,-0.22312 1.99843,0.0394 0.47977,0.20096 0.88195,0.56511 1.17088,0.99764 0.28894,0.43252 0.46899,0.93136 0.57209,1.44119 0.20622,1.01968 0.11154,2.07227 0.12005,3.11255 0.009,1.04028 0.13873,2.12872 0.72618,2.9873 0.29373,0.42928 0.701,0.78824 1.18384,0.9817 0.48284,0.19346 1.0424,0.21202 1.52061,0.007 0.30722,-0.13148 0.57353,-0.34985 0.7819,-0.61112 0.20836,-0.26126 0.36031,-0.56458 0.46817,-0.88087 0.21571,-0.63258 0.25647,-1.30898 0.31344,-1.9749 0.057,-0.66592 0.13567,-1.34426 0.41826,-1.94993 0.14129,-0.30284 0.33365,-0.5843 0.58139,-0.80857 0.24774,-0.22427 0.55238,-0.38979 0.88063,-0.45243 0.50647,-0.0967 1.04257,0.0601 1.45939,0.36357 0.41683,0.30351 0.72133,0.74301 0.92469,1.21683 0.40672,0.94763 0.42363,2.00924 0.60737,3.02397 0.34648,1.9135 1.30417,3.68638 2.57789,5.15578 1.5691,1.81016 3.60208,3.17458 5.76318,4.20823 2.1611,1.03365 4.45773,1.75168 6.75801,2.42063 0.93555,0.27207 1.87676,0.53787 2.76842,0.93059 0.89166,0.39272 1.73891,0.92013 2.38736,1.64731 1.07837,1.2093 1.5186,2.87047 1.61545,4.48784 0.0968,1.61737 -0.11364,3.23576 -0.16383,4.85525 -0.0502,1.6195 0.0728,3.29238 0.7861,4.7472 0.35664,0.72741 0.86057,1.3891 1.50309,1.88255 0.64251,0.49346 1.42692,0.81308 2.23602,0.85397 1.03213,0.0522 2.02762,-0.33841 3.00365,-0.67808 0.48802,-0.16983 0.98207,-0.32892 1.49141,-0.41597 0.50934,-0.0871 1.03694,-0.1004 1.53943,0.02 0.58825,0.14098 1.12178,0.46042 1.58612,0.84812 0.46434,0.38769 0.86585,0.84396 1.2649,1.29858 0.39905,0.45461 0.79967,0.91155 1.2626,1.30093 0.46292,0.38939 0.99448,0.71162 1.58169,0.85687 0.80905,0.20013 1.68504,0.0465 2.41965,-0.34711 0.73462,-0.39365 1.33283,-1.01478 1.77255,-1.72278 0.87945,-1.41599 1.12835,-3.12118 1.36672,-4.77092 0.53597,-3.70942 1.11825,-7.42706 2.20257,-11.01472 1.08432,-3.58766 2.6922,-7.06182 5.09831,-9.93544 2.59244,-3.09614 6.08823,-5.42667 9.9433,-6.62886"
       id="path860-5"
       sodipodi:nodetypes="cssssscssscssssssccssssscsssssssssssssssc"
       inkscape:original-d="m 22.240191,195.33929 c 1.481721,1.58756 7.678464,-5.18333 8.161801,-3.24998 0.480074,1.92029 -0.15752,-6.61583 4.206321,13.66185 4.534342,21.06997 5.047626,9.84942 6.728811,12.091 1.303073,1.73743 3.060004,3.10305 4.787513,4.41925 2.16693,1.65099 0.16766,-7.42685 1.188757,-5.12938 0.254218,0.57199 7.361784,6.13835 7.728254,6.64579 2.793575,3.86803 2.025383,3.94178 7.870637,1.9519 11.631428,-3.95963 7.480281,4.41984 7.480281,-4.91162 0,-2.82341 3.577385,-20.82238 4.08888,-23.59907 0.836323,-4.54004 2.755188,-6.92634 7.365405,-7.36541 1.04411,-0.0994 2.180999,0.38747 2.946162,1.10482 1.29159,1.21086 2.236543,2.79725 2.946162,4.41924 0.967127,2.21057 -4.083723,3.08864 -1.104811,5.89232 1.643442,1.54677 4.004715,2.51154 6.260595,2.57789 6.964493,0.20484 7.330481,-3.51592 9.575021,-8.69564 0.5713,-1.31837 0.45709,-3.54609 1.47308,-4.56208 0.69983,-0.69983 1.95676,-0.34414 2.94617,-0.36827 4.04976,-0.0988 8.11329,-0.30298 12.15291,0 2.566,0.19245 3.64917,2.42779 4.45038,5.10145 0.76213,2.54329 1.30803,5.44428 1.14962,8.84355 -0.32494,6.9728 2.54204,6.6133 2.57685,8.49324 0.15641,8.44558 -3.76856,5.43945 2.98028,8.18897 0.80387,0.3275 4.13751,-6.60895 4.9046,-6.20271 16.35992,8.66391 1.90968,3.673 2.08066,-19.19514 0.14143,-2.36173 -0.21799,-5.34714 -0.0971,-8.91207 0.0718,-2.11789 0.91894,-4.49737 2.09441,-6.26059 0.86255,-1.29383 36.74433,-37.8115 6.94902,5.0216 -3.16437,4.54903 21.05226,3.03886 7.58449,-2.16433 -1.03692,-0.40061 4.69685,8.58992 5.29365,9.52775 0.99391,1.56186 1.39021,-7.6839 3.44379,-6.67782 12.71434,6.22894 1.35301,-15.60296 2.99145,4.60437 0.15528,1.91516 1.27461,3.74389 2.57789,5.15578 4.48274,4.85631 6.95842,4.29609 12.52119,6.62886 1.77194,0.74308 3.76439,1.25276 5.15578,2.5779 5.24128,4.99169 3.14067,12.80891 5.97683,16.82681 2.0048,2.84012 3.10492,-2.94569 6.03449,-1.07402 1.54216,0.98527 4.14265,7.63163 5.69531,4.3045 4.43695,-9.50774 6.05169,2.82353 5.55892,-6.84081 -0.10179,-1.99653 4.93929,-20.09999 7.30088,-20.95016 6.57548,-2.36717 9.9433,1.07327 9.9433,-6.62886"
       inkscape:path-effect="#path-effect1406" />
    <text
       xml:space="preserve"
       style="font-size:5.64444px;line-height:1.25;font-family:sans-serif;letter-spacing:0px;stroke-width:0.264583"
       x="18.31815"
       y="196.91577"
       id="text1086"><tspan
         sodipodi:role="line"
         id="tspan1084"
         style="stroke-width:0.264583"
         x="18.31815"
         y="196.91577">\(i\)</tspan></text>
    <text
       xml:space="preserve"
       style="font-size:5.64444px;line-height:1.25;font-family:sans-serif;letter-spacing:0px;stroke-width:0.264583"
       x="19.782768"
       y="181.52959"
       id="text1086-6"><tspan
         sodipodi:role="line"
         id="tspan1084-5"
         style="stroke-width:0.264583"
         x="19.782768"
         y="181.52959">\(\mathcal{V}\)</tspan></text>
    <circle
       style="fill:#000000;stroke:#000000;stroke-width:0.265;stroke-miterlimit:4;stroke-dasharray:none;stroke-dashoffset:0"
       id="path1190"
       cx="22.360683"
       cy="195.25435"
       r="0.87187177" />
    <circle
       style="fill:#000000;stroke:#000000;stroke-width:0.265;stroke-miterlimit:4;stroke-dasharray:none;stroke-dashoffset:0"
       id="path1190-9"
       cx="33.059528"
       cy="195.32736"
       r="0.87187177" />
    <circle
       style="fill:#000000;stroke:#000000;stroke-width:0.265;stroke-miterlimit:4;stroke-dasharray:none;stroke-dashoffset:0"
       id="path1190-3"
       cx="75.013199"
       cy="195.32736"
       r="0.87187177" />
    <circle
       style="fill:#000000;stroke:#000000;stroke-width:0.265;stroke-miterlimit:4;stroke-dasharray:none;stroke-dashoffset:0"
       id="path1190-6"
       cx="87.867165"
       cy="195.32736"
       r="0.87187177" />
    <circle
       style="fill:#000000;stroke:#000000;stroke-width:0.265;stroke-miterlimit:4;stroke-dasharray:none;stroke-dashoffset:0"
       id="path1190-2"
       cx="102.48009"
       cy="195.34044"
       r="0.87187177" />
    <circle
       style="fill:#000000;stroke:#000000;stroke-width:0.265;stroke-miterlimit:4;stroke-dasharray:none;stroke-dashoffset:0"
       id="path1190-0"
       cx="123.66183"
       cy="195.32736"
       r="0.87187177" />
    <circle
       style="fill:#000000;stroke:#000000;stroke-width:0.265;stroke-miterlimit:4;stroke-dasharray:none;stroke-dashoffset:0"
       id="path1190-62"
       cx="137.20218"
       cy="195.3143"
       r="0.87187177" />
    <circle
       style="fill:#000000;stroke:#000000;stroke-width:0.265;stroke-miterlimit:4;stroke-dasharray:none;stroke-dashoffset:0"
       id="path1190-94"
       cx="167.96767"
       cy="195.32736"
       r="0.87187177" />
    <circle
       style="fill:#000000;stroke:#000000;stroke-width:0.265;stroke-miterlimit:4;stroke-dasharray:none;stroke-dashoffset:0"
       id="path1190-5"
       cx="218.30109"
       cy="195.34044"
       r="0.87187177" />
    <path
       style="fill:none;fill-opacity:1;stroke:#000000;stroke-width:0.264583;stroke-linecap:butt;stroke-linejoin:miter;stroke-miterlimit:4;stroke-dasharray:0.79375, 0.79375;stroke-dashoffset:0;stroke-opacity:1;marker-start:none;marker-end:none"
       d="M 22.240191,195.33929 H 224.1489"
       id="path2411" />
    <text
       xml:space="preserve"
       style="font-size:5.64444px;line-height:1.25;font-family:sans-serif;letter-spacing:0px;stroke-width:0.264583"
       x="217.79845"
       y="214.29283"
       id="text3196"><tspan
         sodipodi:role="line"
         id="tspan3194"
         style="stroke-width:0.264583"
         x="217.79845"
         y="214.29283">\(T\)</tspan></text>
    <text
       xml:space="preserve"
       style="font-size:5.64444px;line-height:1.25;font-family:sans-serif;letter-spacing:0px;stroke-width:0.264583"
       x="23.648596"
       y="214.29283"
       id="text3794"><tspan
         sodipodi:role="line"
         id="tspan3792"
         style="stroke-width:0.264583"
         x="23.648596"
         y="214.29283">\(0\)</tspan></text>
    <text
       xml:space="preserve"
       style="font-size:5.64444px;line-height:1.25;font-family:sans-serif;letter-spacing:0px;stroke-width:0.264583"
       x="97.054321"
       y="261.65308"
       id="text4605"><tspan
         sodipodi:role="line"
         id="tspan4603"
         style="stroke-width:0.264583"
         x="97.054321"
         y="261.65308" /></text>
    <path
       style="fill:none;fill-opacity:1;stroke:#000000;stroke-width:0.264583;stroke-linecap:butt;stroke-linejoin:miter;stroke-miterlimit:4;stroke-dasharray:0.79375, 0.79375;stroke-dashoffset:0;stroke-opacity:1;marker-start:none;marker-end:none"
       d="m 218.29106,195.49558 0,13.30041"
       id="path5688"
       sodipodi:nodetypes="cc" />
  </g>
</svg>
