<?xml version="1.0" encoding="UTF-8" standalone="no"?>
<!-- Created with Inkscape (http://www.inkscape.org/) -->

<svg
   width="240mm"
   height="41mm"
   viewBox="0 0 240 41"
   version="1.1"
   id="svg8"
   inkscape:version="1.1.1 (c3084ef, 2021-09-22)"
   sodipodi:docname="random-graph-n^c.svg"
   xmlns:inkscape="http://www.inkscape.org/namespaces/inkscape"
   xmlns:sodipodi="http://sodipodi.sourceforge.net/DTD/sodipodi-0.dtd"
   xmlns="http://www.w3.org/2000/svg"
   xmlns:svg="http://www.w3.org/2000/svg"
   xmlns:rdf="http://www.w3.org/1999/02/22-rdf-syntax-ns#"
   xmlns:cc="http://creativecommons.org/ns#"
   xmlns:dc="http://purl.org/dc/elements/1.1/">
  <defs
     id="defs2">
    <inkscape:path-effect
       effect="spiro"
       id="path-effect859"
       is_visible="true"
       lpeversion="1" />
    <inkscape:path-effect
       effect="spiro"
       id="path-effect1205"
       is_visible="true"
       lpeversion="1" />
    <inkscape:path-effect
       effect="spiro"
       id="path-effect895"
       is_visible="true"
       lpeversion="1" />
    <inkscape:path-effect
       effect="spiro"
       id="path-effect903"
       is_visible="true"
       lpeversion="1" />
    <inkscape:path-effect
       effect="spiro"
       id="path-effect1317"
       is_visible="true"
       lpeversion="1" />
    <inkscape:path-effect
       effect="spiro"
       id="path-effect1330"
       is_visible="true"
       lpeversion="1" />
    <inkscape:path-effect
       effect="spiro"
       id="path-effect919"
       is_visible="true"
       lpeversion="1" />
    <inkscape:path-effect
       effect="spiro"
       id="path-effect1236"
       is_visible="true"
       lpeversion="1" />
    <inkscape:path-effect
       effect="spiro"
       id="path-effect1249"
       is_visible="true"
       lpeversion="1" />
    <inkscape:path-effect
       effect="spiro"
       id="path-effect1262"
       is_visible="true"
       lpeversion="1" />
    <inkscape:path-effect
       effect="spiro"
       id="path-effect1275"
       is_visible="true"
       lpeversion="1" />
    <inkscape:path-effect
       effect="spiro"
       id="path-effect1288"
       is_visible="true"
       lpeversion="1" />
    <marker
       style="overflow:visible"
       id="Arrow2Lend"
       refX="0"
       refY="0"
       orient="auto"
       inkscape:stockid="Arrow2Lend"
       inkscape:isstock="true">
      <path
         transform="matrix(-1.1,0,0,-1.1,-1.1,0)"
         d="M 8.7185878,4.0337352 -2.2072895,0.01601326 8.7185884,-4.0017078 c -1.7454984,2.3720609 -1.7354408,5.6174519 -6e-7,8.035443 z"
         style="fill:context-stroke;fill-rule:evenodd;stroke:context-stroke;stroke-width:0.625;stroke-linejoin:round"
         id="path2057" />
    </marker>
  </defs>
  <sodipodi:namedview
     id="base"
     pagecolor="#ffffff"
     bordercolor="#666666"
     borderopacity="1.0"
     inkscape:pageopacity="0.0"
     inkscape:pageshadow="2"
     inkscape:zoom="1.7726058"
     inkscape:cx="353.43447"
     inkscape:cy="74.18457"
     inkscape:document-units="mm"
     inkscape:current-layer="layer1"
     showgrid="false"
     showborder="true"
     width="200mm"
     showguides="true"
     inkscape:guide-bbox="true"
     inkscape:window-width="1280"
     inkscape:window-height="638"
     inkscape:window-x="1728"
     inkscape:window-y="512"
     inkscape:window-maximized="0"
     inkscape:pagecheckerboard="0">
    <inkscape:grid
       type="xygrid"
       id="grid815"
       units="mm"
       spacingx="10"
       spacingy="10"
       empspacing="4"
       dotted="false" />
  </sodipodi:namedview>
  <metadata
     id="metadata5">
    <rdf:RDF>
      <cc:Work
         rdf:about="">
        <dc:format>image/svg+xml</dc:format>
        <dc:type
           rdf:resource="http://purl.org/dc/dcmitype/StillImage" />
      </cc:Work>
    </rdf:RDF>
  </metadata>
  <g
     inkscape:label="Layer 1"
     inkscape:groupmode="layer"
     id="layer1"
     transform="translate(0,-177)">
    <path
       style="fill:none;fill-opacity:1;stroke:#000000;stroke-width:0.264583;stroke-linecap:butt;stroke-linejoin:miter;stroke-dasharray:none;stroke-opacity:1;marker-start:none;marker-end:none"
       d="m 86.186498,192.48447 c -0.07247,0.0995 -0.183311,0.16575 -0.299799,0.20551 -0.116489,0.0397 -0.239625,0.0553 -0.361767,0.0705 -0.122142,0.0152 -0.245282,0.0306 -0.361871,0.07 -0.116588,0.0395 -0.227643,0.10527 -0.30061,0.2044 -0.08237,0.1119 -0.109298,0.25951 -0.086,0.39649 0.02329,0.13698 0.09387,0.26331 0.187612,0.36586 0.187489,0.20511 0.455729,0.31293 0.713934,0.41566 1.386483,0.55163 2.758772,1.14138 4.16832,1.63108 0.59675,0.20732 1.218681,0.39893 1.848438,0.34894 0.314878,-0.025 0.627677,-0.11234 0.896837,-0.27765 0.26916,-0.1653 0.49269,-0.41133 0.607499,-0.7056 0.08792,-0.22534 0.110663,-0.47292 0.08748,-0.71369 -0.02318,-0.24078 -0.09105,-0.47551 -0.179016,-0.70084 -0.17593,-0.45064 -0.432165,-0.86726 -0.597778,-1.3218 -0.126401,-0.34692 -0.198693,-0.71247 -0.338203,-1.05433 -0.06976,-0.17093 -0.156638,-0.33598 -0.270934,-0.48096 -0.114295,-0.14498 -0.256936,-0.26965 -0.423253,-0.34978 -0.248653,-0.1198 -0.535607,-0.13426 -0.810513,-0.10963 -0.274906,0.0246 -0.545574,0.0859 -0.820561,0.10963 -0.676914,0.0583 -1.358217,-0.11237 -2.034998,-0.0525 -0.338391,0.0299 -0.677774,0.12071 -0.95866,0.31178 -0.140443,0.0955 -0.264922,0.21561 -0.359693,0.35657 -0.09477,0.14096 -0.159368,0.30302 -0.180661,0.47154 -0.01737,0.13746 -0.0061,0.27682 -0.01221,0.41524 -0.0061,0.13842 -0.03202,0.28157 -0.113594,0.39356 z"
       id="path901"
       inkscape:path-effect="#path-effect903"
       inkscape:original-d="m 86.186498,192.48447 c -0.271986,0.26771 -1.193188,0.35414 -1.324047,0.55043 -0.264917,0.39738 0.386826,0.96755 0.815541,1.17801 1.339344,0.6575 2.689224,1.43505 4.16832,1.63108 1.127554,0.14943 2.326674,-0.14356 3.352774,-0.63431 1.14231,-0.54632 -0.11562,-1.99872 -0.68931,-2.73633 -0.51957,-0.66802 -0.244,-1.57741 -1.03239,-1.88507 -0.50649,-0.19766 -1.090857,-0.0614 -1.631074,0 -1.534392,0.17436 -2.354281,0.27633 -3.534012,1.08739 -0.500658,0.3442 0.780354,-0.0974 -0.125802,0.8088 z"
       sodipodi:nodetypes="cssssssssc" />
    <path
       style="fill:none;fill-opacity:1;stroke:#000000;stroke-width:0.264583;stroke-linecap:butt;stroke-linejoin:miter;stroke-dasharray:none;stroke-opacity:1;marker-start:none;marker-end:none"
       d="m 101.59968,203.8132 c -0.18952,0.1182 -0.34412,0.29165 -0.43984,0.49346 -0.0957,0.2018 -0.13223,0.43127 -0.10385,0.65282 0.0312,0.24351 0.13897,0.47327 0.28599,0.66989 0.14702,0.19661 0.33236,0.36185 0.52954,0.50812 0.60191,0.4465 1.3132,0.72065 2.02842,0.94449 0.71523,0.22383 1.44605,0.40339 2.13991,0.68659 0.79859,0.32595 1.53509,0.78374 2.29131,1.19862 0.75621,0.41489 1.54839,0.79263 2.39875,0.93716 0.83189,0.14139 1.70507,0.0495 2.48119,-0.28168 0.77612,-0.33116 1.45089,-0.90309 1.88684,-1.62557 0.43595,-0.72248 0.62753,-1.59328 0.51432,-2.42948 -0.11321,-0.83619 -0.53446,-1.63068 -1.17667,-2.17803 -0.44348,-0.37798 -0.98189,-0.63522 -1.54327,-0.7914 -0.56138,-0.15619 -1.14641,-0.21409 -1.72906,-0.22182 -1.16531,-0.0155 -2.32732,0.16702 -3.49233,0.13649 -0.54429,-0.0143 -1.09178,-0.0748 -1.63108,0 -0.59522,0.0826 -1.15461,0.32665 -1.70023,0.57844 -0.54563,0.2518 -1.09253,0.51609 -1.67974,0.64374 -0.34741,0.0755 -0.70547,0.10193 -1.0602,0.0782 z"
       id="path901-3"
       inkscape:path-effect="#path-effect1317"
       inkscape:original-d="m 101.59968,203.8132 c -1.29806,0.17028 -0.41284,0.94999 -0.54369,1.14628 -0.26492,0.39738 0.38682,0.96755 0.81553,1.17801 1.33935,0.65749 2.68923,1.43505 4.16833,1.63108 1.12755,0.14943 3.66396,2.62653 4.69006,2.13578 1.14231,-0.54632 4.27937,-5.77715 3.70568,-6.51476 -0.51957,-0.66802 -5.97628,-0.56907 -6.76466,-0.87673 -0.5065,-0.19766 -1.09087,-0.0614 -1.63108,0 -1.53439,0.17436 -2.20024,0.41112 -3.37997,1.22218 -0.50066,0.3442 0.38966,-0.0759 -1.0602,0.0782 z"
       sodipodi:nodetypes="cssssssssc" />
    <path
       style="fill:none;fill-opacity:1;stroke:#000000;stroke-width:0.264583;stroke-linecap:butt;stroke-linejoin:miter;stroke-dasharray:none;stroke-opacity:1;marker-start:none;marker-end:none"
       d="m 134.70421,204.36459 c -0.21302,0.10623 -0.40079,0.2627 -0.54369,0.45308 -0.20878,0.27814 -0.3184,0.62397 -0.33838,0.97117 -0.02,0.34721 0.0466,0.69591 0.16416,1.02321 0.23519,0.6546 0.66515,1.2171 1.05664,1.79203 0.54923,0.80659 1.04096,1.66687 1.7448,2.34279 0.35192,0.33795 0.75647,0.6267 1.20879,0.80964 0.45233,0.18293 0.95448,0.25657 1.43441,0.16867 0.50469,-0.0924 0.96812,-0.3605 1.33696,-0.71717 0.36884,-0.35667 0.6472,-0.79903 0.8579,-1.26685 0.42139,-0.93566 0.57741,-1.96554 0.87135,-2.94871 0.15583,-0.52123 0.35133,-1.03223 0.45656,-1.56598 0.10522,-0.53376 0.11495,-1.10331 -0.0941,-1.60557 -0.16996,-0.40837 -0.47869,-0.752 -0.84847,-0.99472 -0.36978,-0.24272 -0.79854,-0.38773 -1.2357,-0.45513 -0.53875,-0.0831 -1.08835,-0.0511 -1.63107,0 -1.24232,0.11696 -2.52494,0.35334 -3.53401,1.08738 -0.34685,0.25231 -0.65385,0.55931 -0.90616,0.90616 z"
       id="path901-1"
       inkscape:path-effect="#path-effect1330"
       inkscape:original-d="m 134.70421,204.36459 c -0.18123,0.15103 -0.41283,0.25679 -0.54369,0.45308 -0.26492,0.39738 0.75717,3.32554 0.88242,3.78641 3.68542,13.56093 2.9089,3.12507 4.388,3.3211 1.12756,0.14943 2.04011,-4.44199 3.06621,-4.93273 1.14231,-0.54633 0.93616,-2.43394 0.36247,-3.17155 -0.51957,-0.66802 -1.29578,-1.14219 -2.08417,-1.44985 -0.50648,-0.19766 -1.09086,-0.0614 -1.63107,0 -1.5344,0.17436 -2.35428,0.27632 -3.53401,1.08738 -0.50066,0.34421 -0.20727,0.90616 -0.90616,0.90616 z"
       sodipodi:nodetypes="cssssssssc" />
    <path
       style="fill:none;fill-opacity:1;stroke:#000000;stroke-width:0.264583;stroke-linecap:butt;stroke-linejoin:miter;stroke-dasharray:none;stroke-opacity:1;marker-start:none;marker-end:none"
       d="m 104.02471,188.85648 c -0.56389,0.17485 -1.05429,0.57544 -1.33816,1.09309 -0.28388,0.51765 -0.35801,1.14652 -0.2023,1.71599 0.15169,0.55475 0.51622,1.04459 0.99192,1.3678 0.4757,0.32321 1.05748,0.4812 1.63238,0.46556 0.5749,-0.0156 1.14113,-0.20174 1.62591,-0.51117 0.48477,-0.30943 0.88862,-0.73976 1.18672,-1.23159 0.23801,-0.39269 0.41104,-0.82887 0.47046,-1.2842 0.0594,-0.45532 0.002,-0.93038 -0.19861,-1.34365 -0.29751,-0.61433 -0.9052,-1.05799 -1.57344,-1.19714 -0.66824,-0.13914 -1.38429,0.0158 -1.96058,0.38159 -0.23592,0.14974 -0.45024,0.33345 -0.6343,0.5437 z"
       id="path917"
       inkscape:path-effect="#path-effect919"
       inkscape:original-d="m 104.02471,188.85648 c -1.04973,0.79928 -2.02826,1.92642 -1.54046,2.80908 1.35751,2.45647 4.34383,2.94482 5.43693,0.0906 0.31495,-0.82238 0.34115,-1.74996 0.27185,-2.62785 -0.10951,-1.38709 -2.76077,-0.90651 -3.53402,-0.81555 -0.46411,0.08 0,0 -0.6343,0.5437 z"
       sodipodi:nodetypes="cssscc" />
    <path
       style="fill:none;fill-opacity:1;stroke:#000000;stroke-width:0.264583;stroke-linecap:butt;stroke-linejoin:miter;stroke-dasharray:none;stroke-opacity:1;marker-start:none;marker-end:none"
       d="m 146.08037,196.82581 c -0.26916,0.45562 -0.73113,0.75552 -1.12281,1.11137 -0.19583,0.17792 -0.3783,0.37517 -0.50562,0.60712 -0.12733,0.23194 -0.1967,0.50211 -0.15718,0.76373 0.0275,0.18219 0.10734,0.3553 0.22276,0.49893 0.11541,0.14363 0.26576,0.258 0.43212,0.3372 0.33273,0.15842 0.72176,0.17338 1.0812,0.0921 0.35944,-0.0813 0.69262,-0.25337 1.00101,-0.4551 0.3084,-0.20174 0.59549,-0.434 0.89403,-0.65005 0.43868,-0.31746 0.90466,-0.60193 1.29883,-0.97322 0.39416,-0.37129 0.71866,-0.84896 0.77883,-1.38711 0.0474,-0.42408 -0.0782,-0.86346 -0.33577,-1.20366 -0.25759,-0.3402 -0.64323,-0.57913 -1.06085,-0.66678 -0.41762,-0.0877 -0.86377,-0.025 -1.24512,0.16642 -0.38135,0.19147 -0.6964,0.50937 -0.89227,0.88848 -0.14603,0.28264 -0.22735,0.59665 -0.38916,0.87056 z"
       id="path917-2"
       inkscape:path-effect="#path-effect1275"
       inkscape:original-d="m 146.08037,196.82581 c -0.89837,0.61857 -2.2734,1.59956 -1.78561,2.48222 1.35752,2.45646 2.53802,2.67729 3.63112,-0.17691 0.31495,-0.82238 2.14697,-1.48243 2.07766,-2.36033 -0.1095,-1.38708 -2.76076,-0.90651 -3.53401,-0.81554 -0.46411,0.08 0.90322,-0.0826 -0.38916,0.87056 z"
       sodipodi:nodetypes="cssscc" />
    <path
       style="fill:none;fill-opacity:1;stroke:#000000;stroke-width:0.264583;stroke-linecap:butt;stroke-linejoin:miter;stroke-dasharray:none;stroke-opacity:1;marker-start:none;marker-end:none"
       d="m 122.33654,202.3725 c 1.95016,0.43095 4.08354,0.3917 5.8344,-0.56921 0.9757,-0.53549 1.78529,-1.32837 2.51828,-2.1659 0.733,-0.83753 1.40363,-1.73039 2.17772,-2.53009 1.34811,-1.3927 3.0093,-2.48893 4.83829,-3.13066 1.35296,-0.47471 2.82661,-0.71964 3.98448,-1.56533 0.98633,-0.7204 1.65387,-1.84017 1.89894,-3.03673 0.24507,-1.19657 0.0811,-2.46102 -0.38483,-3.59008 -0.46588,-1.12907 -1.22463,-2.12549 -2.13422,-2.94064 -0.90959,-0.81515 -1.96779,-1.45375 -3.07976,-1.95907 -4.63367,-2.10571 -10.05485,-1.84914 -14.94179,-0.42691 -1.09502,0.31868 -2.17356,0.69289 -3.27296,0.99612 -1.10053,0.30354 -2.22736,0.53787 -3.27297,0.99612 -1.62952,0.71416 -3.01835,1.98065 -3.84217,3.55757 -0.23696,0.45358 -0.42799,0.93115 -0.56922,1.42303 -0.50059,3.28639 0.29254,6.75237 2.17252,9.49401 1.87999,2.74164 4.82731,4.73046 8.07329,5.44777 z"
       id="path1203"
       inkscape:path-effect="#path-effect1205"
       inkscape:original-d="m 122.33654,202.3725 c 1.86712,0.57628 4.08666,0.30467 5.8344,-0.56921 1.98001,-0.98999 2.98496,-3.2914 4.696,-4.69599 1.48475,-1.21882 3.14258,-2.2281 4.83829,-3.13066 1.25966,-0.67046 3.00469,-0.5279 3.98448,-1.56533 3.23798,-3.42846 -2.73109,-10.2858 -3.69987,-11.52652 -3.73238,-4.78006 -10.49527,-1.66205 -14.94179,-0.42691 -1.09879,0.30522 -2.18197,0.66408 -3.27296,0.99612 -1.09099,0.33204 -2.24748,0.49724 -3.27297,0.99612 -1.24476,0.60556 -2.98427,2.57711 -3.84217,3.55757 -1.10836,1.21244 -1.08458,1.24693 -0.56922,1.42303 -2.10363,3.83614 5.98393,13.42208 10.24581,14.94178 z"
       sodipodi:nodetypes="cssssssssccc" />
    <path
       style="fill:none;fill-opacity:1;stroke:#000000;stroke-width:0.264583;stroke-linecap:butt;stroke-linejoin:miter;stroke-dasharray:none;stroke-opacity:1;marker-start:none;marker-end:none"
       d="m 79.985136,188.20093 c -0.657975,0.45248 -1.183654,1.09497 -1.496882,1.82952 -0.417053,0.97802 -0.450387,2.09721 -0.18892,3.12779 0.261466,1.03058 0.80544,1.97591 1.488532,2.79068 1.366186,1.62954 3.243555,2.72646 5.020555,3.89442 6.215113,4.08497 11.612085,9.38888 18.128899,12.97298 7.93185,4.36234 17.37294,5.94709 26.2786,4.32432 6.10429,-1.11231 11.88443,-3.67283 17.13097,-6.98545 2.94195,-1.85752 5.77758,-4.00027 7.81706,-6.81913 1.38478,-1.91397 2.38139,-4.14071 2.66112,-6.48648 0.26555,-2.22689 -0.12422,-4.51311 -1.0065,-6.57493 -0.88228,-2.06183 -2.24692,-3.90216 -3.88497,-5.43394 -3.27611,-3.06356 -7.55882,-4.85249 -11.90687,-5.95372 -5.30817,-1.3444 -10.82945,-1.74962 -16.29938,-1.49688 -10.05465,0.46458 -19.89693,3.12102 -29.937634,3.82537 -1.920237,0.1347 -3.898566,0.21003 -5.654891,0.99792 -1.919832,0.86124 -3.371233,2.48061 -4.989606,3.82536 -0.983086,0.81688 -2.042559,1.54178 -3.160083,2.16217 z"
       id="path893-9"
       inkscape:path-effect="#path-effect859"
       inkscape:original-d="m 79.985136,188.20093 c -0.49896,0.60984 -1.270466,1.0748 -1.496882,1.82952 -1.356964,4.52321 3.214869,7.3202 6.320167,9.81289 5.794805,4.65161 11.653315,9.32825 18.128899,12.97298 6.88041,3.87257 18.5601,6.01661 26.2786,4.32432 6.02373,-1.32071 11.73513,-3.99974 17.13097,-6.98545 3.0255,-1.67411 5.67776,-4.10256 7.81706,-6.81913 1.4459,-1.83607 2.84565,-4.15674 2.66112,-6.48648 -0.79435,-10.02861 -7.56291,-15.06002 -16.79834,-17.96259 -5.20498,-1.63585 -10.84403,-1.41338 -16.29938,-1.49688 -14.37399,-0.22001 -16.56418,1.17373 -29.937634,3.82537 -1.87754,0.37227 -3.857055,0.34102 -5.654891,0.99792 -0.519613,0.18986 -4.282601,3.11836 -4.989606,3.82536 -1.27434,1.27434 -1.21472,2.16217 -3.160083,2.16217 z" />
    <text
       xml:space="preserve"
       style="font-size:3.52777px;line-height:1.25;font-family:sans-serif;letter-spacing:0px;word-spacing:0px;stroke-width:0.264583"
       x="125.52965"
       y="190.73215"
       id="text1349"><tspan
         sodipodi:role="line"
         id="tspan1347"
         style="stroke-width:0.264583"
         x="125.52965"
         y="190.73215">\(n^c\)</tspan></text>
  </g>
</svg>
