<?xml version="1.0" encoding="UTF-8" standalone="no"?>
<!-- Created with Inkscape (http://www.inkscape.org/) -->

<svg
   width="240mm"
   height="28mm"
   viewBox="0 0 240 28"
   version="1.1"
   id="svg8"
   inkscape:version="1.1.1 (c3084ef, 2021-09-22)"
   sodipodi:docname="super-critical-regime.svg"
   xmlns:inkscape="http://www.inkscape.org/namespaces/inkscape"
   xmlns:sodipodi="http://sodipodi.sourceforge.net/DTD/sodipodi-0.dtd"
   xmlns="http://www.w3.org/2000/svg"
   xmlns:svg="http://www.w3.org/2000/svg"
   xmlns:rdf="http://www.w3.org/1999/02/22-rdf-syntax-ns#"
   xmlns:cc="http://creativecommons.org/ns#"
   xmlns:dc="http://purl.org/dc/elements/1.1/">
  <defs
     id="defs2">
    <inkscape:path-effect
       effect="spiro"
       id="path-effect5765"
       is_visible="true"
       lpeversion="1" />
    <inkscape:path-effect
       effect="spiro"
       id="path-effect5626"
       is_visible="true"
       lpeversion="1" />
    <marker
       style="overflow:visible"
       id="Arrow1Lend"
       refX="0"
       refY="0"
       orient="auto"
       inkscape:stockid="Arrow1Lend"
       inkscape:isstock="true">
      <path
         transform="matrix(-0.8,0,0,-0.8,-10,0)"
         style="fill:context-stroke;fill-rule:evenodd;stroke:context-stroke;stroke-width:1pt"
         d="M 0,0 5,-5 -12.5,0 5,5 Z"
         id="path1597" />
    </marker>
    <inkscape:path-effect
       effect="spiro"
       id="path-effect981"
       is_visible="true"
       lpeversion="1" />
  </defs>
  <sodipodi:namedview
     id="base"
     pagecolor="#ffffff"
     bordercolor="#666666"
     borderopacity="1.0"
     inkscape:pageopacity="0.0"
     inkscape:pageshadow="2"
     inkscape:zoom="1.2525217"
     inkscape:cx="412.76728"
     inkscape:cy="87.024437"
     inkscape:document-units="mm"
     inkscape:current-layer="layer1"
     showgrid="false"
     showborder="true"
     width="200mm"
     showguides="true"
     inkscape:guide-bbox="true"
     inkscape:window-width="1280"
     inkscape:window-height="639"
     inkscape:window-x="1728"
     inkscape:window-y="663"
     inkscape:window-maximized="0"
     inkscape:pagecheckerboard="0">
    <inkscape:grid
       type="xygrid"
       id="grid815"
       units="mm"
       spacingx="10"
       spacingy="10"
       empspacing="4"
       dotted="false" />
  </sodipodi:namedview>
  <metadata
     id="metadata5">
    <rdf:RDF>
      <cc:Work
         rdf:about="">
        <dc:format>image/svg+xml</dc:format>
        <dc:type
           rdf:resource="http://purl.org/dc/dcmitype/StillImage" />
      </cc:Work>
    </rdf:RDF>
  </metadata>
  <g
     inkscape:label="Layer 1"
     inkscape:groupmode="layer"
     id="layer1"
     transform="translate(0,-177)">
    <ellipse
       style="fill:none;fill-opacity:1;stroke:#000000;stroke-width:0.264583;stroke-miterlimit:4;stroke-dasharray:none;stroke-dashoffset:0;stroke-opacity:1;marker-start:none;marker-end:none"
       id="path1188"
       cx="131.57947"
       cy="181.6767"
       rx="1.9257867"
       ry="0.8957147" />
    <ellipse
       style="fill:none;fill-opacity:1;stroke:#000000;stroke-width:0.264583;stroke-miterlimit:4;stroke-dasharray:none;stroke-dashoffset:0;stroke-opacity:1;marker-start:none;marker-end:none"
       id="path1190-7"
       cx="126.08808"
       cy="200.24689"
       rx="1.9705724"
       ry="1.2540005" />
    <ellipse
       style="fill:none;fill-opacity:1;stroke:#000000;stroke-width:0.264583;stroke-miterlimit:4;stroke-dasharray:none;stroke-dashoffset:0;stroke-opacity:1;marker-start:none;marker-end:none"
       id="path1190-9"
       cx="155.59523"
       cy="194.29637"
       rx="1.9705724"
       ry="1.2540005" />
    <ellipse
       style="fill:none;fill-opacity:1;stroke:#000000;stroke-width:0.264583;stroke-miterlimit:4;stroke-dasharray:none;stroke-dashoffset:0;stroke-opacity:1;marker-start:none;marker-end:none"
       id="path1190-1"
       cx="148.96695"
       cy="190.44476"
       rx="1.9705724"
       ry="1.2540005" />
    <ellipse
       style="fill:none;fill-opacity:1;stroke:#000000;stroke-width:0.264583;stroke-miterlimit:4;stroke-dasharray:none;stroke-dashoffset:0;stroke-opacity:1;marker-start:none;marker-end:none"
       id="path1190-97"
       cx="108.98433"
       cy="201.41068"
       rx="1.9705724"
       ry="1.2540005" />
    <ellipse
       style="fill:none;fill-opacity:1;stroke:#000000;stroke-width:0.264583;stroke-miterlimit:4;stroke-dasharray:none;stroke-dashoffset:0;stroke-opacity:1;marker-start:none;marker-end:none"
       id="path1190-5"
       cx="119.26789"
       cy="202.84161"
       rx="1.9705724"
       ry="1.2540005" />
    <ellipse
       style="fill:none;fill-opacity:1;stroke:#000000;stroke-width:0.264583;stroke-miterlimit:4;stroke-dasharray:none;stroke-dashoffset:0;stroke-opacity:1;marker-start:none;marker-end:none"
       id="path1190-52"
       cx="151.47493"
       cy="183.90605"
       rx="1.9705724"
       ry="1.2540005" />
    <ellipse
       style="fill:none;fill-opacity:1;stroke:#000000;stroke-width:0.264583;stroke-miterlimit:4;stroke-dasharray:none;stroke-dashoffset:0;stroke-opacity:1;marker-start:none;marker-end:none"
       id="path1190-0"
       cx="145.20494"
       cy="193.40065"
       rx="1.9705724"
       ry="1.2540005" />
    <ellipse
       style="fill:none;fill-opacity:1;stroke:#000000;stroke-width:0.264583;stroke-miterlimit:4;stroke-dasharray:none;stroke-dashoffset:0;stroke-opacity:1;marker-start:none;marker-end:none"
       id="path1190-93"
       cx="99.565964"
       cy="197.67549"
       rx="1.9705724"
       ry="1.2540005" />
    <ellipse
       style="fill:none;fill-opacity:1;stroke:#000000;stroke-width:0.264583;stroke-miterlimit:4;stroke-dasharray:none;stroke-dashoffset:0;stroke-opacity:1;marker-start:none;marker-end:none"
       id="path1190-001"
       cx="145.38409"
       cy="200.29767"
       rx="1.9705724"
       ry="1.2540005" />
    <ellipse
       style="fill:none;fill-opacity:1;stroke:#000000;stroke-width:0.264583;stroke-miterlimit:4;stroke-dasharray:none;stroke-dashoffset:0;stroke-opacity:1;marker-start:none;marker-end:none"
       id="path1190-83"
       cx="150.13136"
       cy="199.84982"
       rx="1.9705724"
       ry="1.2540005" />
    <ellipse
       style="fill:none;fill-opacity:1;stroke:#000000;stroke-width:0.264583;stroke-miterlimit:4;stroke-dasharray:none;stroke-dashoffset:0;stroke-opacity:1;marker-start:none;marker-end:none"
       id="path1190-59"
       cx="154.07251"
       cy="191.07178"
       rx="1.9705724"
       ry="1.2540005" />
    <text
       xml:space="preserve"
       style="font-size:5.64444px;line-height:1.25;font-family:sans-serif;letter-spacing:0px;stroke-width:0.264583"
       x="107.14178"
       y="190.28503"
       id="text2360"><tspan
         sodipodi:role="line"
         id="tspan2358"
         style="stroke-width:0.264583"
         x="107.14178"
         y="190.28503">\(c_1\)</tspan></text>
    <text
       xml:space="preserve"
       style="font-size:5.64444px;line-height:1.25;font-family:sans-serif;letter-spacing:0px;stroke-width:0.264583"
       x="134.86371"
       y="193.91194"
       id="text2360-5"><tspan
         sodipodi:role="line"
         id="tspan2358-5"
         style="stroke-width:0.264583"
         x="134.86371"
         y="193.91194">\(c_2\)</tspan></text>
    <text
       xml:space="preserve"
       style="font-size:5.64444px;line-height:1.25;font-family:sans-serif;letter-spacing:0px;stroke-width:0.264583"
       x="70.109436"
       y="184.37767"
       id="text4510"><tspan
         sodipodi:role="line"
         id="tspan4508"
         style="stroke-width:0.264583"
         x="70.109436"
         y="184.37767" /></text>
    <path
       style="fill:none;fill-opacity:1;stroke:#000000;stroke-width:0.264583;stroke-linecap:butt;stroke-linejoin:miter;stroke-dasharray:none;stroke-opacity:1;marker-start:none;marker-end:none"
       d="m 100.38315,182.0055 c 2.58831,-0.25121 4.89023,-1.6661 7.22297,-2.81535 1.16636,-0.57463 2.37146,-1.09276 3.64192,-1.3694 1.27047,-0.27664 2.61685,-0.30252 3.8545,0.096 1.04931,0.3379 1.97781,0.96268 2.90772,1.55472 0.9299,0.59205 1.90002,1.1682 2.98003,1.38916 1.06693,0.21828 2.18264,0.0739 3.22341,-0.24675 1.04076,-0.32062 2.01937,-0.81209 2.99215,-1.30168 0.97278,-0.48958 1.95091,-0.98184 2.99115,-1.30419 1.04023,-0.32235 2.15535,-0.46954 3.223,-0.2548 1.04443,0.21007 1.9888,0.75179 2.89625,1.30993 0.90744,0.55814 1.81275,1.14739 2.82796,1.47039 1.23185,0.39193 2.563,0.36875 3.83876,0.16021 1.27576,-0.20854 2.51411,-0.59604 3.76403,-0.92583 1.24992,-0.32979 2.52932,-0.60411 3.82175,-0.57798 1.29243,0.0261 2.61072,0.37476 3.62194,1.18005 0.70421,0.5608 1.23349,1.32171 1.59729,2.14515 0.3638,0.82345 0.56817,1.70977 0.69227,2.6014 0.2482,1.78327 0.1831,3.60574 0.53452,5.37157 0.35315,1.77454 1.11649,3.43986 1.5928,5.18537 0.23815,0.87276 0.40474,1.77068 0.40625,2.67534 0.002,0.90467 -0.16693,1.81883 -0.57085,2.62832 -0.35831,0.71807 -0.89665,1.34122 -1.53537,1.82707 -0.63871,0.48586 -1.37617,0.83611 -2.14772,1.05684 -1.5431,0.44146 -3.19653,0.36373 -4.76739,0.0344 -3.14172,-0.65859 -6.03651,-2.29073 -9.21279,-2.7548 -2.70704,-0.39551 -5.46824,0.0822 -8.11247,0.78404 -2.64424,0.70182 -5.23148,1.62919 -7.91531,2.15984 -5.95514,1.17745 -12.09402,0.35727 -18.15392,0 -2.45494,-0.14474 -4.92134,-0.2134 -7.348837,-0.60701 -2.427497,-0.39362 -4.838379,-1.12932 -6.87989,-2.50042 -1.739536,-1.16829 -3.178801,-2.79185 -4.081225,-4.68302 -0.902424,-1.89117 -1.259047,-4.04718 -0.960125,-6.12119 0.298923,-2.07401 1.260198,-4.05556 2.742373,-5.53679 1.482176,-1.48123 3.482656,-2.44589 5.569937,-2.63066 1.576167,-0.13953 3.167986,0.15286 4.742917,0 z"
       id="path979"
       inkscape:path-effect="#path-effect981"
       inkscape:original-d="m 100.38315,182.0055 c 1.58084,-1.2e-4 9.81305,-2.72568 14.71939,-4.08872 4.90633,-1.36303 3.48917,5.83337 5.88775,2.94388 2.39859,-2.88949 8.72274,-5.94214 12.42971,-3.10742 3.70698,2.83471 3.81627,1.85368 5.72421,2.78032 1.90794,0.92665 10.03112,-0.1089 15.04648,-0.16355 5.01537,-0.0546 1.88285,6.74554 2.82408,10.11812 0.94123,3.37257 0.95226,6.99282 1.4282,10.48903 0.47593,3.49622 -11.77539,0.10917 -17.66327,0.16355 -5.88789,0.0544 -10.68506,1.96272 -16.02778,2.94388 -5.34272,0.98116 -12.10248,1.3e-4 -18.15392,0 -6.05143,-1.3e-4 -9.485697,-2.07149 -14.228727,-3.10743 -4.74305,-1.03593 2.18078,-12.64764 3.27096,-18.97166 1.0902,-6.32402 3.16208,1.3e-4 4.742917,0 z"
       sodipodi:nodetypes="ssssssssssssss" />
    <path
       style="fill:none;stroke:#000000;stroke-width:0.264583px;stroke-linecap:butt;stroke-linejoin:miter;stroke-opacity:1"
       d="m 93.579544,187.47688 c 1.163446,-0.60439 2.470667,-0.86721 3.764531,-1.07889 1.293865,-0.21167 2.605296,-0.38174 3.840135,-0.82227 2.55714,-0.91226 4.6144,-2.92047 7.18218,-3.80233 1.64553,-0.56513 3.42208,-0.63746 5.15847,-0.52753 1.73639,0.10994 3.45742,0.39599 5.19231,0.52753 1.07748,0.0817 2.17182,0.10574 3.20896,0.40904 0.51856,0.15166 1.02,0.37398 1.457,0.69169 0.437,0.31771 0.80826,0.73368 1.03753,1.22291 0.21451,0.45774 0.30045,0.96881 0.29789,1.47432 -0.003,0.5055 -0.0911,1.00721 -0.21252,1.49793 -0.24275,0.98146 -0.61858,1.93647 -0.71909,2.94249 -0.14743,1.47558 0.30749,2.95625 0.21124,4.43605 -0.1037,1.59433 -0.86861,3.12285 -2.03417,4.2156 -1.16556,1.09275 -2.71318,1.75245 -4.30305,1.91037 -1.91035,0.18975 -3.8292,-0.32091 -5.59913,-1.06443 -1.76992,-0.74351 -3.43244,-1.7192 -5.17413,-2.52665 -2.71733,-1.25977 -5.66572,-2.11122 -8.660864,-2.11241 -1.269665,-5e-4 -2.547475,0.15059 -3.804063,-0.0312 -0.628294,-0.0909 -1.249279,-0.26681 -1.805668,-0.5725 -0.556388,-0.30569 -1.046736,-0.74602 -1.361206,-1.29749 -0.275218,-0.48264 -0.409812,-1.04127 -0.406306,-1.59685 0.0035,-0.55558 0.143042,-1.10743 0.384449,-1.60784 0.482813,-1.00082 1.359429,-1.77532 2.345502,-2.28757 z"
       id="path5624"
       inkscape:path-effect="#path-effect5626"
       inkscape:original-d="m 93.579544,187.47688 c 0.774282,-1.83101 5.070042,-1.26718 7.604666,-1.90116 2.53462,-0.63399 4.78838,-2.53462 7.18218,-3.80233 2.39379,-1.26771 6.90078,2.6e-4 10.35078,0 3.45,-2.7e-4 3.80259,1.54936 5.70349,2.32364 1.9009,0.77429 -0.42221,3.94342 -0.63372,5.91474 -0.2115,1.97131 0.14109,2.95763 0.21124,4.43605 0.0701,1.47842 -3.87248,6.12623 -6.33722,6.12597 -2.46473,-2.7e-4 -7.88604,-3.59082 -10.77326,-3.59108 -2.88721,-2.7e-4 -5.42157,-2.25297 -8.660864,-2.11241 -3.23929,0.14056 -4.647028,-1.26718 -6.970937,-1.90116 -2.323909,-0.63399 1.549363,-3.66124 2.323645,-5.49226 z"
       sodipodi:nodetypes="sssssscsssss" />
    <path
       style="fill:none;fill-opacity:1;stroke:#000000;stroke-width:0.264583;stroke-linecap:butt;stroke-linejoin:miter;stroke-dasharray:none;stroke-opacity:1;marker-start:none;marker-end:none"
       d="m 130.7261,191.35991 c 1.51496,-1.51706 2.93089,-3.16519 4.70814,-4.36434 1.29835,-0.87602 2.79457,-1.49867 4.35663,-1.61312 1.56205,-0.11445 3.1905,0.31155 4.38706,1.32217 1.14031,0.96312 1.83374,2.43809 1.83726,3.9307 0.004,1.49262 -0.68626,2.97477 -1.83726,3.92509 -1.15653,0.95488 -2.67199,1.34314 -4.14946,1.60096 -1.47746,0.25781 -2.99507,0.41862 -4.37004,1.01764 -1.15859,0.50475 -2.17078,1.30272 -3.32881,1.80876 -0.57901,0.25302 -1.19815,0.43195 -1.82985,0.44721 -0.6317,0.0153 -1.27812,-0.14178 -1.79145,-0.51026 -0.60846,-0.43677 -0.99136,-1.14858 -1.10318,-1.88918 -0.11183,-0.74059 0.0319,-1.50554 0.32708,-2.19391 0.59034,-1.37676 1.73538,-2.42175 2.79388,-3.48172 z"
       id="path5763"
       inkscape:path-effect="#path-effect5765"
       inkscape:original-d="m 130.7261,191.35991 c 0.6723,-2.52199 3.13904,-2.90919 4.70814,-4.36434 1.5691,-1.45512 5.8294,-0.19359 8.74369,-0.29095 2.91428,-0.0974 2.7e-4,5.23755 0,7.85579 -2.9e-4,2.61822 -5.67939,1.74609 -8.5195,2.6186 -2.84011,0.8725 -4.63313,1.16419 -6.95011,1.74571 -2.31698,0.58156 1.34546,-5.04283 2.01778,-7.56481 z" />
  </g>
</svg>
