<?xml version="1.0" encoding="UTF-8" standalone="no"?>
<!-- Created with Inkscape (http://www.inkscape.org/) -->

<svg
   width="240mm"
   height="40mm"
   viewBox="0 0 240 40"
   version="1.1"
   id="svg8"
   inkscape:version="1.1.1 (c3084ef, 2021-09-22)"
   sodipodi:docname="two-component-graph.svg"
   xmlns:inkscape="http://www.inkscape.org/namespaces/inkscape"
   xmlns:sodipodi="http://sodipodi.sourceforge.net/DTD/sodipodi-0.dtd"
   xmlns="http://www.w3.org/2000/svg"
   xmlns:svg="http://www.w3.org/2000/svg"
   xmlns:rdf="http://www.w3.org/1999/02/22-rdf-syntax-ns#"
   xmlns:cc="http://creativecommons.org/ns#"
   xmlns:dc="http://purl.org/dc/elements/1.1/">
  <defs
     id="defs2">
    <rect
       x="244.24538"
       y="-15.49593"
       width="335.74516"
       height="318.77342"
       id="rect5436" />
    <inkscape:path-effect
       effect="spiro"
       id="path-effect899"
       is_visible="true"
       lpeversion="1" />
    <inkscape:path-effect
       effect="spiro"
       id="path-effect895"
       is_visible="true"
       lpeversion="1" />
    <inkscape:path-effect
       effect="spiro"
       id="path-effect858"
       is_visible="true"
       lpeversion="1" />
  </defs>
  <sodipodi:namedview
     id="base"
     pagecolor="#ffffff"
     bordercolor="#666666"
     borderopacity="1.0"
     inkscape:pageopacity="0.0"
     inkscape:pageshadow="2"
     inkscape:zoom="2.4175891"
     inkscape:cx="540.4144"
     inkscape:cy="102.37471"
     inkscape:document-units="mm"
     inkscape:current-layer="layer1"
     showgrid="false"
     showborder="true"
     width="200mm"
     showguides="true"
     inkscape:guide-bbox="true"
     inkscape:window-width="1280"
     inkscape:window-height="680"
     inkscape:window-x="1728"
     inkscape:window-y="512"
     inkscape:window-maximized="0"
     inkscape:pagecheckerboard="0">
    <inkscape:grid
       type="xygrid"
       id="grid815"
       units="mm"
       spacingx="10"
       spacingy="10"
       empspacing="4"
       dotted="false" />
  </sodipodi:namedview>
  <metadata
     id="metadata5">
    <rdf:RDF>
      <cc:Work
         rdf:about="">
        <dc:format>image/svg+xml</dc:format>
        <dc:type
           rdf:resource="http://purl.org/dc/dcmitype/StillImage" />
      </cc:Work>
    </rdf:RDF>
  </metadata>
  <g
     inkscape:label="Layer 1"
     inkscape:groupmode="layer"
     id="layer1"
     transform="translate(0,-177)">
    <path
       style="fill:none;fill-opacity:1;stroke:#000000;stroke-width:0.264583;stroke-linecap:butt;stroke-linejoin:miter;stroke-dasharray:none;stroke-opacity:1;marker-start:none;marker-end:none"
       d="m 105.82273,190.15502 c 2.63199,-0.86358 5.50045,-0.51386 8.23228,-0.97239 1.36592,-0.22927 2.7228,-0.67578 3.82618,-1.51295 0.55169,-0.41858 1.0344,-0.93257 1.39093,-1.52626 0.35653,-0.59368 0.58476,-1.26804 0.63104,-1.959 0.0464,-0.6921 -0.0878,-1.38159 -0.16618,-2.0708 -0.0784,-0.6892 -0.0969,-1.40995 0.16618,-2.05175 0.21993,-0.53646 0.63086,-0.98668 1.12859,-1.28404 0.49773,-0.29735 1.07859,-0.44508 1.65827,-0.45612 1.15937,-0.0221 2.27534,0.49056 3.1993,1.19123 0.92395,0.70067 1.68838,1.58533 2.47793,2.43459 0.78954,0.84926 1.62618,1.68097 2.64381,2.23689 1.48078,0.80894 3.21432,0.96918 4.88377,1.21424 0.83473,0.12253 1.66953,0.27101 2.46925,0.53975 0.79972,0.26874 1.56717,0.66264 2.19038,1.23131 1.07931,0.98486 1.65758,2.46325 1.64741,3.92433 -0.0102,1.46108 -0.58183,2.89263 -1.49096,4.03646 -1.02138,1.28506 -2.42534,2.20046 -3.80961,3.08272 -1.38428,0.88226 -2.79852,1.77486 -3.8564,3.03004 -1.64993,1.95765 -2.24899,4.55893 -3.02529,6.99861 -0.38815,1.21985 -0.8363,2.43048 -1.49838,3.52608 -0.66208,1.09559 -1.55203,2.07778 -2.673,2.69592 -1.27287,0.7019 -2.78445,0.89795 -4.22846,0.73153 -1.44402,-0.16643 -2.82941,-0.67751 -4.13465,-1.31721 -2.61049,-1.2794 -4.97766,-3.09204 -7.75116,-3.96334 -1.4057,-0.44161 -2.87644,-0.62762 -4.32175,-0.91414 -1.44532,-0.28652 -2.89896,-0.68757 -4.12651,-1.50253 -1.12339,-0.74581 -2.016628,-1.82208 -2.587517,-3.04369 -0.570888,-1.2216 -0.823125,-2.58423 -0.77694,-3.93186 0.09237,-2.69526 1.372237,-5.26458 3.208007,-7.24016 1.29348,-1.39199 2.88799,-2.53506 4.69348,-3.12746 z"
       id="path856"
       inkscape:path-effect="#path-effect858"
       inkscape:original-d="m 105.82273,190.15502 c 1.56434,-1.04263 9.38711,-3.98027 14.08043,-5.9706 4.69332,-1.99034 1.6e-4,-2.74823 0,-4.12255 -1.5e-4,-1.37433 7.40542,2.7485 11.1079,4.12255 3.70248,1.37404 6.36243,1.99033 9.5434,2.9853 3.18098,0.99495 0.10446,5.30734 0.15645,7.96079 0.052,2.65347 -5.11052,4.07532 -7.66601,6.11276 -2.5555,2.03745 -4.79763,8.81389 -7.19667,13.22061 -2.39904,4.40673 -10.74269,-3.03254 -16.11427,-4.54902 -5.37158,-1.51648 -5.63202,-1.61098 -8.44826,-2.41667 -2.816246,-0.8057 -0.10414,-9.477 -0.15645,-14.21571 -0.0523,-4.73871 3.12914,-2.08483 4.69348,-3.12746 z" />
    <path
       style="fill:none;fill-opacity:1;stroke:#000000;stroke-width:0.264583;stroke-linecap:butt;stroke-linejoin:miter;stroke-dasharray:none;stroke-opacity:1;marker-start:none;marker-end:none"
       d="m 105.97917,199.8217 c 0.94582,-0.60633 2.10536,-0.74945 3.22004,-0.88978 1.11469,-0.14033 2.27601,-0.3111 3.19438,-0.95826 0.35129,-0.24755 0.65381,-0.55656 0.97224,-0.84515 0.31843,-0.28859 0.66135,-0.56213 1.06161,-0.71858 0.56603,-0.22125 1.20917,-0.18869 1.78777,-0.003 0.5786,0.18592 1.10054,0.51601 1.58596,0.88167 0.48543,0.36565 0.94113,0.76986 1.43169,1.12859 0.49057,0.35873 1.02302,0.67451 1.609,0.83565 0.79685,0.21913 1.64876,0.1399 2.452,-0.0545 0.80324,-0.19443 1.57465,-0.50041 2.3658,-0.73932 0.79115,-0.23891 1.61872,-0.41172 2.44093,-0.32837 0.41111,0.0417 0.81758,0.14824 1.18655,0.33426 0.36898,0.18602 0.69976,0.45295 0.94167,0.78796 0.41394,0.57325 0.54533,1.31952 0.45419,2.0207 -0.0911,0.70118 -0.38951,1.36188 -0.76709,1.9597 -1.13124,1.79107 -2.94946,3.04452 -4.84992,3.9804 -1.40722,0.69298 -2.88317,1.23874 -4.38059,1.70589 -2.21614,0.69137 -4.50762,1.2156 -6.82908,1.22653 -2.32145,0.0109 -4.68679,-0.51825 -6.62555,-1.79516 -0.70917,-0.46707 -1.35811,-1.03251 -1.87939,-1.70284 -0.52127,-0.67034 -0.91277,-1.44778 -1.09315,-2.27756 -0.18327,-0.84308 -0.14351,-1.73872 0.14991,-2.55006 0.29342,-0.81134 0.8447,-1.53334 1.57103,-1.99897 z"
       id="path893"
       inkscape:path-effect="#path-effect895"
       inkscape:original-d="m 105.97917,199.8217 c 0.5735,-1.51648 4.27644,-1.23188 6.41442,-1.84804 2.13799,-0.61615 1.35605,-1.04235 2.03385,-1.56373 0.67779,-0.52138 4.27644,1.89557 6.41442,2.84314 2.13799,0.94757 6.25812,1.4e-4 9.38695,0 3.12883,-1.4e-4 -0.20844,2.65375 -0.3129,3.9804 -0.10445,1.32666 -3.23312,2.65375 -4.84992,3.9804 -1.6168,1.32666 -2.92024,1.13741 -4.38059,1.70589 -1.46034,0.56848 -8.9696,-0.37895 -13.45463,-0.56863 -4.48503,-0.18968 -1.98154,-2.65346 -2.97254,-3.9804 -0.991,-1.32694 1.14746,-3.03255 1.72094,-4.54903 z" />
    <path
       style="fill:none;fill-opacity:1;stroke:#000000;stroke-width:0.264583;stroke-linecap:butt;stroke-linejoin:miter;stroke-dasharray:none;stroke-opacity:1;marker-start:none;marker-end:none"
       d="m 117.55642,192.00306 c -0.22468,0.44773 -0.31523,0.95988 -0.27013,1.45878 0.0451,0.49891 0.22434,0.98352 0.50438,1.39887 0.56007,0.83071 1.51452,1.35927 2.50819,1.48727 0.99367,0.12799 2.01652,-0.12382 2.88966,-0.61514 0.87313,-0.49132 1.60301,-1.21224 2.19036,-2.02389 0.46555,-0.64334 0.84933,-1.34916 1.38303,-1.9372 0.26685,-0.29402 0.57155,-0.55744 0.91982,-0.74814 0.34827,-0.19069 0.74204,-0.30669 1.13904,-0.29997 0.37765,0.006 0.74705,0.12277 1.08608,0.28927 0.33902,0.16649 0.651,0.38244 0.95972,0.60005 0.30872,0.2176 0.61674,0.43842 0.95011,0.61595 0.33338,0.17754 0.69536,0.31162 1.07177,0.34278 0.50954,0.0422 1.02905,-0.11089 1.44817,-0.40373 0.41911,-0.29284 0.73806,-0.72076 0.92137,-1.19806 0.18332,-0.47729 0.23331,-1.0019 0.16736,-1.50892 -0.0659,-0.50702 -0.24584,-0.99645 -0.50306,-1.43832 -0.42042,-0.72224 -1.04267,-1.31403 -1.74195,-1.77162 -0.69928,-0.45759 -1.47551,-0.78648 -2.26697,-1.05478 -1.5829,-0.5366 -3.25192,-0.84386 -4.75224,-1.58047 -0.55241,-0.27122 -1.08245,-0.60077 -1.67324,-0.77307 -0.29539,-0.0862 -0.60518,-0.13158 -0.91178,-0.10557 -0.3066,0.026 -0.61026,0.12597 -0.85686,0.31001 -0.32875,0.24536 -0.53816,0.62684 -0.63526,1.0254 -0.0971,0.39856 -0.0902,0.81547 -0.0499,1.2237 0.0404,0.40823 0.1135,0.81286 0.14745,1.22167 0.0339,0.40881 0.0276,0.82685 -0.0881,1.22041 -0.14945,0.50824 -0.47546,0.95103 -0.86475,1.31032 -0.3893,0.35929 -0.84187,0.6422 -1.29743,0.9126 -0.45555,0.27039 -0.91874,0.53164 -1.33861,0.85467 -0.41987,0.32303 -0.79864,0.71365 -1.03624,1.18713 z"
       id="path897"
       inkscape:path-effect="#path-effect899"
       inkscape:original-d="m 117.55642,192.00306 c -1.51249,1.42143 5.21513,1.1374 7.82246,1.70589 2.60734,0.56848 2.29475,-1.99006 3.44189,-2.98531 1.14714,-0.99524 2.71194,1.23218 4.06768,1.84805 1.35573,0.61587 1.35604,-3.03255 2.03384,-4.54903 0.67779,-1.51648 -5.84062,-2.93777 -8.76116,-4.40687 -2.92054,-1.4691 -2.29443,-0.37895 -3.44188,-0.56863 -1.14745,-0.18968 -0.41705,3.12759 -0.6258,4.69118 -0.20875,1.5636 -3.02453,2.84329 -4.53703,4.26472 z" />
    <text
       xml:space="preserve"
       style="font-size:3.52777px;line-height:1.25;font-family:sans-serif;letter-spacing:0px;word-spacing:0px;stroke-width:0.264583"
       x="113.47776"
       y="205.6593"
       id="text1519"><tspan
         sodipodi:role="line"
         id="tspan1517"
         style="stroke-width:0.264583"
         x="113.47776"
         y="205.6593">\(a_2\)</tspan></text>
    <text
       xml:space="preserve"
       style="font-size:3.52777px;line-height:1.25;font-family:sans-serif;letter-spacing:0px;word-spacing:0px;stroke-width:0.264583"
       x="124.68879"
       y="189.41425"
       id="text1519-6"><tspan
         sodipodi:role="line"
         id="tspan1517-5"
         style="stroke-width:0.264583"
         x="124.68879"
         y="189.41425">\(a_1\)</tspan></text>
    <text
       xml:space="preserve"
       style="font-size:3.52777px;line-height:1.25;font-family:sans-serif;letter-spacing:0px;word-spacing:0px;stroke-width:0.264583"
       x="142.43663"
       y="185.68407"
       id="text3210"><tspan
         sodipodi:role="line"
         id="tspan3208"
         style="stroke-width:0.264583"
         x="142.43663"
         y="185.68407">\(\mathcal{G}\)</tspan></text>
    <text
       xml:space="preserve"
       transform="matrix(0.26458333,0,0,0.26458333,0,177)"
       id="text5434"
       style="line-height:1.25;font-family:sans-serif;font-size:13.33333333px;letter-spacing:0px;word-spacing:0px;white-space:pre;shape-inside:url(#rect5436)" />
  </g>
</svg>
