<?xml version="1.0" encoding="UTF-8" standalone="no"?>
<!-- Created with Inkscape (http://www.inkscape.org/) -->

<svg
   width="240mm"
   height="30mm"
   viewBox="0 0 240 30"
   version="1.1"
   id="svg8"
   inkscape:version="1.1.1 (c3084ef, 2021-09-22)"
   sodipodi:docname="ans:ex-1:lec-40.svg"
   xmlns:inkscape="http://www.inkscape.org/namespaces/inkscape"
   xmlns:sodipodi="http://sodipodi.sourceforge.net/DTD/sodipodi-0.dtd"
   xmlns="http://www.w3.org/2000/svg"
   xmlns:svg="http://www.w3.org/2000/svg"
   xmlns:rdf="http://www.w3.org/1999/02/22-rdf-syntax-ns#"
   xmlns:cc="http://creativecommons.org/ns#"
   xmlns:dc="http://purl.org/dc/elements/1.1/">
  <defs
     id="defs2">
    <inkscape:path-effect
       effect="spiro"
       id="path-effect4278"
       is_visible="true"
       lpeversion="1" />
    <inkscape:path-effect
       effect="spiro"
       id="path-effect3994"
       is_visible="true"
       lpeversion="1" />
    <inkscape:path-effect
       effect="spiro"
       id="path-effect3990"
       is_visible="true"
       lpeversion="1" />
    <inkscape:path-effect
       effect="spiro"
       id="path-effect3854"
       is_visible="true"
       lpeversion="1" />
    <inkscape:path-effect
       effect="spiro"
       id="path-effect3850"
       is_visible="true"
       lpeversion="1" />
    <inkscape:path-effect
       effect="spiro"
       id="path-effect3240"
       is_visible="true"
       lpeversion="1" />
    <inkscape:path-effect
       effect="spiro"
       id="path-effect3184"
       is_visible="true"
       lpeversion="1" />
    <inkscape:path-effect
       effect="spiro"
       id="path-effect1281"
       is_visible="true"
       lpeversion="1" />
    <inkscape:path-effect
       effect="spiro"
       id="path-effect1277"
       is_visible="true"
       lpeversion="1" />
    <inkscape:path-effect
       effect="spiro"
       id="path-effect1146"
       is_visible="true"
       lpeversion="1" />
    <inkscape:path-effect
       effect="spiro"
       id="path-effect1142"
       is_visible="true"
       lpeversion="1" />
    <inkscape:path-effect
       effect="spiro"
       id="path-effect858"
       is_visible="true"
       lpeversion="1" />
  </defs>
  <sodipodi:namedview
     id="base"
     pagecolor="#ffffff"
     bordercolor="#666666"
     borderopacity="1.0"
     inkscape:pageopacity="0.0"
     inkscape:pageshadow="2"
     inkscape:zoom="0.70856229"
     inkscape:cx="613.91921"
     inkscape:cy="-144.65912"
     inkscape:document-units="mm"
     inkscape:current-layer="layer1"
     showgrid="false"
     showborder="true"
     width="200mm"
     showguides="true"
     inkscape:guide-bbox="true"
     inkscape:window-width="1280"
     inkscape:window-height="680"
     inkscape:window-x="1728"
     inkscape:window-y="697"
     inkscape:window-maximized="0"
     inkscape:pagecheckerboard="0">
    <inkscape:grid
       type="xygrid"
       id="grid815"
       units="mm"
       spacingx="10"
       spacingy="10"
       empspacing="4"
       dotted="false" />
  </sodipodi:namedview>
  <metadata
     id="metadata5">
    <rdf:RDF>
      <cc:Work
         rdf:about="">
        <dc:format>image/svg+xml</dc:format>
        <dc:type
           rdf:resource="http://purl.org/dc/dcmitype/StillImage" />
      </cc:Work>
    </rdf:RDF>
  </metadata>
  <g
     inkscape:label="Layer 1"
     inkscape:groupmode="layer"
     id="layer1"
     transform="translate(0,-177)">
    <path
       style="fill:none;stroke:#000000;stroke-width:0.264583px;stroke-linecap:butt;stroke-linejoin:miter;stroke-opacity:1"
       d="m 4.3500986,194.20876 c -0.9531131,-2.1258 -1.0758272,-4.59175 -0.4453022,-6.83449 0.6305251,-2.24274 1.9929555,-4.2565 3.7686354,-5.76461 1.77568,-1.50812 3.9522902,-2.51799 6.2286482,-3.01362 2.276358,-0.49562 4.649849,-0.48571 6.944997,-0.086 3.021412,0.52616 5.881942,1.70917 8.736708,2.82992 2.854767,1.12075 5.771909,2.19693 8.824595,2.49169 3.707229,0.35796 7.42613,-0.45459 11.008163,-1.47475 3.582034,-1.02016 7.123131,-2.25761 10.810424,-2.78254 4.243919,-0.60418 8.792748,-0.18118 12.413642,2.11338 1.810446,1.14728 3.348246,2.7525 4.300949,4.67248 0.952703,1.91998 1.299612,4.15711 0.846711,6.25207 -0.36966,1.70992 -1.259983,3.29136 -2.466178,4.55847 -1.206194,1.2671 -2.720543,2.22485 -4.351268,2.85825 -3.261451,1.26681 -6.904475,1.23055 -10.344499,0.59172 -3.440024,-0.63883 -6.741938,-1.85121 -10.079924,-2.89989 -3.337985,-1.04867 -6.776737,-1.944 -10.275459,-1.91558 -3.474486,0.0282 -6.873952,0.96596 -10.185297,2.01851 -3.311344,1.05254 -6.604213,2.23228 -10.036807,2.77094 -3.00209,0.4711 -6.137315,0.43185 -9.006344,-0.56973 -2.8690283,-1.00157 -5.4491609,-3.04332 -6.6923944,-5.8162 z"
       id="path856"
       inkscape:path-effect="#path-effect858"
       inkscape:original-d="m 4.3500986,194.20876 c -6.1201114,-4.34624 11.7964914,-12.50551 16.4969784,-15.69874 4.70049,-3.19323 11.707799,3.548 17.561303,5.32161 5.853502,1.7736 14.54599,-2.83793 21.818587,-4.25729 7.272597,-1.41936 12.772121,10.02262 17.561302,13.03793 4.78918,3.01532 -28.204251,-0.70928 -37.517328,3.19297 -9.313074,3.90225 -13.037669,4.52363 -20.222104,4.78945 -7.184432,0.26582 -9.578628,-2.03968 -15.6987384,-6.38593 z"
       sodipodi:nodetypes="ssssssss" />
    <path
       style="fill:none;stroke:#000000;stroke-width:0.264583px;stroke-linecap:butt;stroke-linejoin:miter;stroke-opacity:1"
       d="m 12.395212,189.60922 c 1.949696,1.29436 4.221773,2.09905 6.551519,2.32032 2.971445,0.28222 6.02661,-0.39671 8.598866,-1.91085"
       id="path1140"
       inkscape:path-effect="#path-effect1142"
       inkscape:original-d="m 12.395212,189.60922 c 2.184106,0.7737 4.367945,1.54715 6.551519,2.32032 2.183575,0.77318 5.732841,-1.27364 8.598866,-1.91085" />
    <path
       style="fill:none;stroke:#000000;stroke-width:0.264583px;stroke-linecap:butt;stroke-linejoin:miter;stroke-opacity:1"
       d="m 15.670973,191.2471 c 1.241028,-0.84692 2.729191,-1.32698 4.231187,-1.3649 1.669624,-0.0422 3.348614,0.4654 4.715282,1.42542"
       id="path1144"
       inkscape:path-effect="#path-effect1146"
       inkscape:original-d="m 15.670973,191.2471 c 1.41066,-0.45471 2.821056,-0.90967 4.231187,-1.3649 1.410132,-0.45524 3.259653,0.97071 4.715282,1.42542"
       sodipodi:nodetypes="csc" />
    <path
       style="fill:none;stroke:#000000;stroke-width:0.264583px;stroke-linecap:butt;stroke-linejoin:miter;stroke-opacity:1"
       d="m 110.43402,191.07332 c 1.9497,1.29436 4.22177,2.09905 6.55152,2.32032 2.97145,0.28222 6.02661,-0.39671 8.59887,-1.91085"
       id="path1140-7"
       inkscape:path-effect="#path-effect3850"
       inkscape:original-d="m 110.43402,191.07332 c 2.18411,0.7737 4.36795,1.54715 6.55152,2.32032 2.18358,0.77318 5.73284,-1.27364 8.59887,-1.91085" />
    <path
       style="fill:none;stroke:#000000;stroke-width:0.264583px;stroke-linecap:butt;stroke-linejoin:miter;stroke-opacity:1"
       d="m 113.70978,192.7112 c 1.24103,-0.84692 2.72919,-1.32698 4.23119,-1.3649 1.66962,-0.0422 3.34861,0.4654 4.71528,1.42542"
       id="path1144-7"
       inkscape:path-effect="#path-effect3854"
       inkscape:original-d="m 113.70978,192.7112 c 1.41066,-0.45471 2.82106,-0.90967 4.23119,-1.3649 1.41013,-0.45524 3.25965,0.97071 4.71528,1.42542"
       sodipodi:nodetypes="csc" />
    <path
       style="fill:none;stroke:#000000;stroke-width:0.264583px;stroke-linecap:butt;stroke-linejoin:miter;stroke-opacity:1"
       d="m 55.794638,190.01495 c 1.949696,1.29436 4.221773,2.09905 6.551519,2.32032 2.971445,0.28222 6.02661,-0.39671 8.598866,-1.91085"
       id="path1140-0"
       inkscape:path-effect="#path-effect1277"
       inkscape:original-d="m 55.794638,190.01495 c 2.184106,0.7737 4.367945,1.54715 6.551519,2.32032 2.183575,0.77318 5.732841,-1.27364 8.598866,-1.91085" />
    <path
       style="fill:none;stroke:#000000;stroke-width:0.264583px;stroke-linecap:butt;stroke-linejoin:miter;stroke-opacity:1"
       d="m 59.070399,191.65283 c 1.240807,-0.84733 2.729136,-1.32743 4.231187,-1.3649 1.692423,-0.0422 3.394114,0.48148 4.769958,1.46795"
       id="path1144-5"
       inkscape:path-effect="#path-effect1281"
       inkscape:original-d="m 59.070399,191.65283 c 1.41066,-0.45471 2.821056,-0.90967 4.231187,-1.3649 1.410132,-0.45524 3.314329,1.01324 4.769958,1.46795"
       sodipodi:nodetypes="csc" />
    <path
       style="font-variation-settings:normal;opacity:0.99;vector-effect:none;fill:none;fill-opacity:1;fill-rule:evenodd;stroke:#000000;stroke-width:0.264567;stroke-linecap:butt;stroke-linejoin:round;stroke-miterlimit:4;stroke-dasharray:none;stroke-dashoffset:0;stroke-opacity:1;-inkscape-stroke:none;stop-color:#000000;stop-opacity:1"
       id="path1340"
       sodipodi:type="arc"
       sodipodi:cx="112.3363"
       sodipodi:cy="172.77634"
       sodipodi:rx="4.6903777"
       sodipodi:ry="1.9669325"
       sodipodi:start="3.2868802"
       sodipodi:end="0.2924216"
       sodipodi:arc-type="arc"
       d="m 107.69534,172.49157 a 4.6903777,1.9669325 0 0 1 3.12433,-1.5765 4.6903777,1.9669325 0 0 1 4.77157,0.44505 4.6903777,1.9669325 0 0 1 1.23633,1.98323"
       transform="rotate(12.397477)"
       sodipodi:open="true" />
    <path
       style="font-variation-settings:normal;opacity:0.99;vector-effect:none;fill:none;fill-opacity:1;fill-rule:evenodd;stroke:#000000;stroke-width:0.264583;stroke-linecap:butt;stroke-linejoin:round;stroke-miterlimit:4;stroke-dasharray:0.79375, 0.79375;stroke-dashoffset:0;stroke-opacity:1;-inkscape-stroke:none;marker-start:none;marker-end:none;stop-color:#000000;stop-opacity:1"
       id="path1772"
       sodipodi:type="arc"
       sodipodi:cx="112.3363"
       sodipodi:cy="172.77634"
       sodipodi:rx="4.6903777"
       sodipodi:ry="1.9669325"
       sodipodi:start="0.23022264"
       sodipodi:end="3.1922088"
       sodipodi:open="true"
       sodipodi:arc-type="arc"
       d="m 116.90293,173.22518 a 4.6903777,1.9669325 0 0 1 -5.22308,1.49873 4.6903777,1.9669325 0 0 1 -4.02792,-2.04709"
       transform="rotate(12.397477)" />
    <text
       xml:space="preserve"
       style="font-size:5.64444px;line-height:1.25;font-family:sans-serif;letter-spacing:0px;word-spacing:0px;stroke-width:0.264583"
       x="69.923111"
       y="205.92491"
       id="text2930"><tspan
         sodipodi:role="line"
         id="tspan2928"
         style="stroke-width:0.264583"
         x="69.923111"
         y="205.92491">collapse</tspan></text>
    <path
       style="fill:none;stroke:#000000;stroke-width:0.264583px;stroke-linecap:butt;stroke-linejoin:miter;stroke-opacity:1"
       d="m 157.09352,190.23186 c -7.35696,-3.25925 -14.84707,-6.21795 -22.44536,-8.86625 -6.01534,-2.09658 -12.36612,-4.02299 -18.6637,-3.06363 -3.1488,0.47967 -6.22291,1.70991 -8.63657,3.7882 -2.41365,2.07828 -4.12177,5.04089 -4.40573,8.21333 -0.28512,3.18538 0.88348,6.4218 2.92925,8.88 2.04576,2.4582 4.91643,4.16194 7.98458,5.06437 6.1363,1.80487 12.75343,0.4818 18.83067,-1.5129 8.72059,-2.86232 16.98889,-7.09799 24.40686,-12.50312 z"
       id="path3182"
       inkscape:path-effect="#path-effect3184"
       inkscape:original-d="m 157.09352,190.23186 c 0,0 -11.59537,-6.74897 -22.44536,-8.86625 -10.84999,-2.11729 -23.23765,4.86291 -31.706,8.9379 -8.46834,4.075 21.38254,8.09185 29.7445,12.43147 8.36197,4.33963 24.40686,-12.50312 24.40686,-12.50312 z"
       sodipodi:nodetypes="csssc" />
    <path
       style="fill:none;stroke:#000000;stroke-width:0.264583px;stroke-linecap:butt;stroke-linejoin:miter;stroke-opacity:1"
       d="m 157.09352,190.23186 c -4.23784,-0.96017 -8.48052,-1.89895 -12.72784,-2.81628 -2.14225,-0.46268 -4.3627,-0.92074 -6.50648,-0.46524 -1.07189,0.22775 -2.10671,0.69137 -2.921,1.42469 -0.81428,0.73332 -1.39484,1.74785 -1.51013,2.83759 -0.12626,1.19344 0.31607,2.41322 1.09346,3.32749 0.77739,0.91428 1.86768,1.53398 3.02489,1.85196 2.31441,0.63597 4.78021,0.10273 7.07915,-0.58708 4.37232,-1.31193 8.57435,-3.19023 12.46795,-5.57313"
       id="path3238"
       inkscape:path-effect="#path-effect3240"
       inkscape:original-d="m 157.09352,190.23186 c 8.62658,-2.22314 -4.15365,-0.54022 -12.72784,-2.81628 -8.57419,-2.27605 -11.09612,-2.39498 -10.93761,3.79704 0.16319,6.37488 0.93023,8.82668 11.1975,4.59237 5.9691,-2.46171 3.84136,-3.34999 12.46795,-5.57313"
       sodipodi:nodetypes="csssc" />
    <path
       style="font-variation-settings:normal;opacity:0.99;vector-effect:none;fill:none;fill-opacity:1;fill-rule:evenodd;stroke:#000000;stroke-width:0.264567;stroke-linecap:butt;stroke-linejoin:round;stroke-miterlimit:4;stroke-dasharray:none;stroke-dashoffset:0;stroke-opacity:1;-inkscape-stroke:none;stop-color:#000000;stop-opacity:1"
       id="path3975"
       sodipodi:type="arc"
       sodipodi:cx="201.97099"
       sodipodi:cy="192.41209"
       sodipodi:rx="21.50289"
       sodipodi:ry="9.3816509"
       sodipodi:start="3.2066062"
       sodipodi:end="3.195663"
       sodipodi:open="true"
       sodipodi:arc-type="arc"
       d="m 180.51353,191.80259 a 21.50289,9.3816509 0 0 1 22.79575,-8.75396 21.50289,9.3816509 0 0 1 20.1265,9.92174 21.50289,9.3816509 0 0 1 -22.68563,8.80824 21.50289,9.3816509 0 0 1 -20.25062,-9.87354" />
    <path
       style="fill:none;stroke:#000000;stroke-width:0.264583px;stroke-linecap:butt;stroke-linejoin:miter;stroke-opacity:1"
       d="m 194.69953,191.81106 c 1.9497,1.29436 4.22177,2.09905 6.55152,2.32032 2.97145,0.28222 6.02661,-0.39671 8.59887,-1.91085"
       id="path1140-1"
       inkscape:path-effect="#path-effect3990"
       inkscape:original-d="m 194.69953,191.81106 c 2.18411,0.7737 4.36795,1.54715 6.55152,2.32032 2.18358,0.77318 5.73284,-1.27364 8.59887,-1.91085" />
    <path
       style="fill:none;stroke:#000000;stroke-width:0.264583px;stroke-linecap:butt;stroke-linejoin:miter;stroke-opacity:1"
       d="m 197.97529,193.44894 c 1.24103,-0.84692 2.72919,-1.32698 4.23119,-1.3649 1.66962,-0.0422 3.34861,0.4654 4.71528,1.42542"
       id="path1144-55"
       inkscape:path-effect="#path-effect3994"
       inkscape:original-d="m 197.97529,193.44894 c 1.41066,-0.45471 2.82106,-0.90967 4.23119,-1.3649 1.41013,-0.45524 3.25965,0.97071 4.71528,1.42542"
       sodipodi:nodetypes="csc" />
    <path
       style="font-variation-settings:normal;opacity:0.99;vector-effect:none;fill:#000000;fill-opacity:1;fill-rule:evenodd;stroke:none;stroke-width:0.264567;stroke-linecap:butt;stroke-linejoin:round;stroke-miterlimit:4;stroke-dasharray:none;stroke-dashoffset:0;stroke-opacity:1;-inkscape-stroke:none;marker-start:none;marker-end:none;stop-color:#000000;stop-opacity:1"
       id="path4133"
       sodipodi:type="arc"
       sodipodi:cx="223.5741"
       sodipodi:cy="192.51231"
       sodipodi:rx="0.70162845"
       sodipodi:ry="0.70162845"
       sodipodi:start="3.2066062"
       sodipodi:end="3.195663"
       sodipodi:open="true"
       sodipodi:arc-type="arc"
       d="m 222.87395,192.46673 a 0.70162845,0.70162845 0 0 1 0.74381,-0.65468 0.70162845,0.70162845 0 0 1 0.65672,0.74202 0.70162845,0.70162845 0 0 1 -0.74022,0.65874 0.70162845,0.70162845 0 0 1 -0.66077,-0.73841" />
    <path
       style="fill:none;stroke:#000000;stroke-width:0.264583px;stroke-linecap:butt;stroke-linejoin:miter;stroke-opacity:1"
       d="m 223.40357,192.45914 c 2.63318,-1.81652 5.64221,-3.08558 8.78095,-3.70338 1.50018,-0.29528 3.07581,-0.43935 4.54129,-0.003 0.73273,0.218 1.42759,0.58248 1.98864,1.10176 0.56105,0.51928 0.9837,1.19729 1.15245,1.94291 0.23308,1.02983 -0.0368,2.14323 -0.63939,3.01024 -0.60262,0.86701 -1.51654,1.494 -2.51419,1.8398 -0.99764,0.3458 -2.07582,0.42163 -3.12684,0.32059 -1.05103,-0.10105 -2.07883,-0.3746 -3.07939,-0.71186 -2.55473,-0.86112 -4.96572,-2.14707 -7.10397,-3.78904"
       id="path4276"
       inkscape:path-effect="#path-effect4278"
       inkscape:original-d="m 223.40357,192.45914 c 3.56656,-1.87351 5.21492,-1.82934 8.78095,-3.70338 3.56603,-1.87403 3.97285,0.97309 7.68238,3.04131 3.70954,2.06823 -6.36922,2.84021 -9.35981,4.45877 -2.99059,1.61855 -2.81779,-1.97778 -7.10397,-3.78904"
       sodipodi:nodetypes="csssc" />
    <text
       xml:space="preserve"
       style="font-size:5.64444px;line-height:1.25;font-family:sans-serif;letter-spacing:0px;word-spacing:0px;stroke-width:0.264583"
       x="91.118004"
       y="193.86775"
       id="text5056"><tspan
         sodipodi:role="line"
         id="tspan5054"
         style="stroke-width:0.264583"
         x="91.118004"
         y="193.86775">\(\simeq\)</tspan></text>
    <text
       xml:space="preserve"
       style="font-size:5.64444px;line-height:1.25;font-family:sans-serif;letter-spacing:0px;word-spacing:0px;stroke-width:0.264583"
       x="166.78883"
       y="193.86775"
       id="text6392"><tspan
         sodipodi:role="line"
         id="tspan6390"
         style="stroke-width:0.264583"
         x="166.78883"
         y="193.86775">\(\simeq\)</tspan></text>
  </g>
</svg>
