<?xml version="1.0" encoding="UTF-8" standalone="no"?>
<!-- Created with Inkscape (http://www.inkscape.org/) -->

<svg
   width="240mm"
   height="64mm"
   viewBox="0 0 240 64"
   version="1.1"
   id="svg8"
   inkscape:version="1.1.1 (c3084ef, 2021-09-22)"
   sodipodi:docname="ans:ex-3:lec-40.svg"
   xmlns:inkscape="http://www.inkscape.org/namespaces/inkscape"
   xmlns:sodipodi="http://sodipodi.sourceforge.net/DTD/sodipodi-0.dtd"
   xmlns="http://www.w3.org/2000/svg"
   xmlns:svg="http://www.w3.org/2000/svg"
   xmlns:rdf="http://www.w3.org/1999/02/22-rdf-syntax-ns#"
   xmlns:cc="http://creativecommons.org/ns#"
   xmlns:dc="http://purl.org/dc/elements/1.1/">
  <defs
     id="defs2">
    <inkscape:path-effect
       effect="spiro"
       id="path-effect1977"
       is_visible="true"
       lpeversion="1" />
    <inkscape:path-effect
       effect="spiro"
       id="path-effect1843"
       is_visible="true"
       lpeversion="1" />
    <inkscape:path-effect
       effect="spiro"
       id="path-effect2754"
       is_visible="true"
       lpeversion="1" />
    <inkscape:path-effect
       effect="spiro"
       id="path-effect2462"
       is_visible="true"
       lpeversion="1" />
    <marker
       style="overflow:visible"
       id="Arrow1Mend"
       refX="0"
       refY="0"
       orient="auto"
       inkscape:stockid="Arrow1Mend"
       inkscape:isstock="true">
      <path
         transform="matrix(-0.4,0,0,-0.4,-4,0)"
         style="fill:context-stroke;fill-rule:evenodd;stroke:context-stroke;stroke-width:1pt"
         d="M 0,0 5,-5 -12.5,0 5,5 Z"
         id="path1959" />
    </marker>
    <marker
       style="overflow:visible"
       id="Arrow1Mstart"
       refX="0"
       refY="0"
       orient="auto"
       inkscape:stockid="Arrow1Mstart"
       inkscape:isstock="true">
      <path
         transform="matrix(0.4,0,0,0.4,4,0)"
         style="fill:context-stroke;fill-rule:evenodd;stroke:context-stroke;stroke-width:1pt"
         d="M 0,0 5,-5 -12.5,0 5,5 Z"
         id="path1956" />
    </marker>
    <inkscape:path-effect
       effect="spiro"
       id="path-effect1345"
       is_visible="true"
       lpeversion="1" />
    <inkscape:path-effect
       effect="spiro"
       id="path-effect1118"
       is_visible="true"
       lpeversion="1" />
    <inkscape:path-effect
       effect="spiro"
       id="path-effect1055"
       is_visible="true"
       lpeversion="1" />
    <inkscape:path-effect
       effect="spiro"
       id="path-effect996"
       is_visible="true"
       lpeversion="1" />
    <inkscape:path-effect
       effect="spiro"
       id="path-effect937"
       is_visible="true"
       lpeversion="1" />
    <marker
       id="marker-arrow-1"
       orient="auto-start-reverse"
       refY="0"
       refX="0"
       markerHeight="3"
       markerWidth="2">
      <g
         transform="scale(1.3933333)"
         id="g941"><path
   d="M -1.55415,2.0722 C -1.42464,1.29512 0,0.1295 0.38852,0 0,-0.1295 -1.42464,-1.29512 -1.55415,-2.0722"
   style="fill:none;stroke:#000000;stroke-linecap:round;stroke-linejoin:round;stroke-miterlimit:10;stroke-dasharray:none;stroke-opacity:1"
   id="path939" />


0&quot; /&gt;
   </g>
    </marker>
    <marker
       id="marker-arrow-1-9"
       orient="auto-start-reverse"
       refY="0"
       refX="0"
       markerHeight="3"
       markerWidth="2">
      <g
         transform="scale(1.3933333)"
         id="g1000"><path
   d="M -1.55415,2.0722 C -1.42464,1.29512 0,0.1295 0.38852,0 0,-0.1295 -1.42464,-1.29512 -1.55415,-2.0722"
   style="fill:none;stroke:#000000;stroke-linecap:round;stroke-linejoin:round;stroke-miterlimit:10;stroke-dasharray:none;stroke-opacity:1"
   id="path998" />


0&quot; /&gt;
   </g>
    </marker>
    <marker
       id="marker-arrow-1-2"
       orient="auto-start-reverse"
       refY="0"
       refX="0"
       markerHeight="3"
       markerWidth="2">
      <g
         transform="scale(1.3933333)"
         id="g1059"><path
   d="M -1.55415,2.0722 C -1.42464,1.29512 0,0.1295 0.38852,0 0,-0.1295 -1.42464,-1.29512 -1.55415,-2.0722"
   style="fill:none;stroke:#000000;stroke-linecap:round;stroke-linejoin:round;stroke-miterlimit:10;stroke-dasharray:none;stroke-opacity:1"
   id="path1057" />


0&quot; /&gt;
   </g>
    </marker>
    <marker
       id="marker-arrow-1-90"
       orient="auto-start-reverse"
       refY="0"
       refX="0"
       markerHeight="3"
       markerWidth="2">
      <g
         transform="scale(1.3933333)"
         id="g1122"><path
   d="M -1.55415,2.0722 C -1.42464,1.29512 0,0.1295 0.38852,0 0,-0.1295 -1.42464,-1.29512 -1.55415,-2.0722"
   style="fill:none;stroke:#000000;stroke-linecap:round;stroke-linejoin:round;stroke-miterlimit:10;stroke-dasharray:none;stroke-opacity:1"
   id="path1120" />


0&quot; /&gt;
   </g>
    </marker>
    <marker
       id="marker-arrow-1-7"
       orient="auto-start-reverse"
       refY="0"
       refX="0"
       markerHeight="3"
       markerWidth="2">
      <g
         transform="scale(1.3933333)"
         id="g1349"><path
   d="M -1.55415,2.0722 C -1.42464,1.29512 0,0.1295 0.38852,0 0,-0.1295 -1.42464,-1.29512 -1.55415,-2.0722"
   style="fill:none;stroke:#000000;stroke-linecap:round;stroke-linejoin:round;stroke-miterlimit:10;stroke-dasharray:none;stroke-opacity:1"
   id="path1347" />


0&quot; /&gt;
   </g>
    </marker>
    <marker
       style="overflow:visible"
       id="Arrow1Mend-3"
       refX="0"
       refY="0"
       orient="auto"
       inkscape:stockid="Arrow1Mend"
       inkscape:isstock="true">
      <path
         transform="matrix(-0.4,0,0,-0.4,-4,0)"
         style="fill:context-stroke;fill-rule:evenodd;stroke:context-stroke;stroke-width:1pt"
         d="M 0,0 5,-5 -12.5,0 5,5 Z"
         id="path1959-6" />
    </marker>
  </defs>
  <sodipodi:namedview
     id="base"
     pagecolor="#ffffff"
     bordercolor="#666666"
     borderopacity="1.0"
     inkscape:pageopacity="0.0"
     inkscape:pageshadow="2"
     inkscape:zoom="1.2450565"
     inkscape:cx="417.65174"
     inkscape:cy="57.427114"
     inkscape:document-units="mm"
     inkscape:current-layer="layer1"
     showgrid="false"
     showborder="true"
     width="200mm"
     showguides="true"
     inkscape:guide-bbox="true"
     inkscape:window-width="1280"
     inkscape:window-height="680"
     inkscape:window-x="1728"
     inkscape:window-y="697"
     inkscape:window-maximized="0"
     inkscape:pagecheckerboard="0">
    <inkscape:grid
       type="xygrid"
       id="grid815"
       units="mm"
       spacingx="10"
       spacingy="10"
       empspacing="4"
       dotted="false" />
  </sodipodi:namedview>
  <metadata
     id="metadata5">
    <rdf:RDF>
      <cc:Work
         rdf:about="">
        <dc:format>image/svg+xml</dc:format>
        <dc:type
           rdf:resource="http://purl.org/dc/dcmitype/StillImage" />
      </cc:Work>
    </rdf:RDF>
  </metadata>
  <g
     inkscape:label="Layer 1"
     inkscape:groupmode="layer"
     id="layer1"
     transform="translate(0,-177)">
    <path
       style="fill:none;fill-opacity:1;stroke:#000000;stroke-width:0.264583;stroke-linecap:butt;stroke-linejoin:miter;stroke-dasharray:none;stroke-opacity:1;marker-start:none;marker-mid:url(#Arrow1Mend)"
       d="m 97.977448,234.53373 c 8.805602,1.4e-4 17.611202,2.1e-4 26.416802,2e-4 8.04832,-1e-5 16.09663,-7e-5 24.14495,-2e-4"
       id="path935"
       inkscape:path-effect="#path-effect937"
       inkscape:original-d="m 97.977448,234.53373 c 9.431372,1.4e-4 16.985562,2.1e-4 26.416802,2e-4 8.57351,0 15.57155,-7e-5 24.14495,-2e-4"
       sodipodi:nodetypes="csc" />
    <path
       style="fill:none;fill-opacity:1;stroke:#000000;stroke-width:0.264583;stroke-linecap:butt;stroke-linejoin:miter;stroke-dasharray:none;stroke-opacity:1;marker-start:none;marker-mid:url(#marker-arrow-1)"
       d="m 148.5392,234.53373 c -0.003,-7.61172 -0.005,-15.22345 -0.006,-22.83517 -0.001,-9.24219 -0.001,-18.48439 -1.9e-4,-27.72658"
       id="path994"
       inkscape:path-effect="#path-effect996"
       inkscape:original-d="m 148.5392,234.53373 c 1.3e-4,-8.76252 -0.006,-14.07253 -0.006,-22.83517 1e-5,-9.24213 -6e-5,-18.48432 -1.9e-4,-27.72658"
       sodipodi:nodetypes="csc" />
    <path
       style="fill:none;fill-opacity:1;stroke:#000000;stroke-width:0.264583;stroke-linecap:butt;stroke-linejoin:miter;stroke-dasharray:none;stroke-opacity:1;marker-start:none;marker-mid:url(#marker-arrow-1)"
       d="m 97.977448,234.53373 c 1.15e-4,-7.67214 1.78e-4,-15.34427 1.88e-4,-23.01641 1.2e-5,-9.18178 -5.1e-5,-18.36356 -1.9e-4,-27.54534"
       id="path1053"
       inkscape:path-effect="#path-effect1055"
       inkscape:original-d="m 97.977448,234.53373 c 1.2e-4,-8.33962 1.88e-4,-14.67668 1.88e-4,-23.01641 10e-6,-9.66503 -5e-5,-17.88017 -1.9e-4,-27.54534"
       sodipodi:nodetypes="csc" />
    <path
       style="fill:none;fill-opacity:1;stroke:#000000;stroke-width:0.264583;stroke-linecap:butt;stroke-linejoin:miter;stroke-dasharray:none;stroke-opacity:1;marker-start:none;marker-mid:url(#Arrow1Mend)"
       d="m 148.53269,183.97198 c -4.45363,1.3e-4 -8.90725,2e-4 -13.36088,1.9e-4 -3.97225,-1e-5 -7.94449,-7e-5 -11.91674,-1.9e-4"
       id="path2458"
       inkscape:path-effect="#path-effect2462"
       inkscape:original-d="m 148.53269,183.97198 c -4.67862,1.3e-4 -8.68213,1.9e-4 -13.36088,1.9e-4 -4.90014,1e-5 -7.01646,-6e-5 -11.91674,-1.9e-4"
       sodipodi:nodetypes="csc" />
    <text
       xml:space="preserve"
       style="font-size:5.64444px;line-height:1.25;font-family:sans-serif;letter-spacing:0px;word-spacing:0px;stroke-width:0.264583"
       x="121.83329"
       y="239.90794"
       id="text3295"><tspan
         sodipodi:role="line"
         id="tspan3293"
         style="stroke-width:0.264583"
         x="121.83329"
         y="239.90794">\(b\)</tspan></text>
    <text
       xml:space="preserve"
       style="font-size:5.64444px;line-height:1.25;font-family:sans-serif;letter-spacing:0px;word-spacing:0px;stroke-width:0.264583"
       x="134.68219"
       y="181.5573"
       id="text3295-6"><tspan
         sodipodi:role="line"
         id="tspan3293-7"
         style="stroke-width:0.264583"
         x="134.68219"
         y="181.5573">\(b\)</tspan></text>
    <text
       xml:space="preserve"
       style="font-size:5.64444px;line-height:1.25;font-family:sans-serif;letter-spacing:0px;word-spacing:0px;stroke-width:0.264583"
       x="109.81139"
       y="181.5573"
       id="text3498"><tspan
         sodipodi:role="line"
         id="tspan3496"
         style="stroke-width:0.264583"
         x="109.81139"
         y="181.5573">\(b\)</tspan></text>
    <text
       xml:space="preserve"
       style="font-size:5.64444px;line-height:1.25;font-family:sans-serif;letter-spacing:0px;word-spacing:0px;stroke-width:0.264583"
       x="150.68996"
       y="213.28958"
       id="text3295-0"><tspan
         sodipodi:role="line"
         id="tspan3293-74"
         style="stroke-width:0.264583"
         x="150.68996"
         y="213.28958">\(a\)</tspan></text>
    <text
       xml:space="preserve"
       style="font-size:5.64444px;line-height:1.25;font-family:sans-serif;letter-spacing:0px;word-spacing:0px;stroke-width:0.264583"
       x="90.894127"
       y="213.28958"
       id="text3695"><tspan
         sodipodi:role="line"
         id="tspan3693"
         style="stroke-width:0.264583"
         x="90.894127"
         y="213.28958">\(a\)</tspan></text>
    <text
       xml:space="preserve"
       style="font-size:5.64444px;line-height:1.25;font-family:sans-serif;letter-spacing:0px;word-spacing:0px;stroke-width:0.264583"
       x="121.58579"
       y="213.28958"
       id="text5777"><tspan
         sodipodi:role="line"
         id="tspan5775"
         style="stroke-width:0.264583"
         x="121.58579"
         y="213.28958">\(D\)</tspan></text>
    <path
       style="fill:none;fill-opacity:1;stroke:#000000;stroke-width:0.264583;stroke-linecap:butt;stroke-linejoin:miter;stroke-dasharray:none;stroke-opacity:1;marker-start:none;marker-mid:url(#Arrow1Mend)"
       d="m 148.53269,183.97198 c -4.45363,1.3e-4 -8.90725,2e-4 -13.36088,1.9e-4 -3.97225,-1e-5 -7.94449,-7e-5 -11.91674,-1.9e-4"
       id="path1839"
       inkscape:path-effect="#path-effect1843"
       inkscape:original-d="m 148.53269,183.97198 c -4.67862,1.3e-4 -8.68213,1.9e-4 -13.36088,1.9e-4 -4.90014,1e-5 -7.01646,-6e-5 -11.91674,-1.9e-4"
       sodipodi:nodetypes="csc" />
    <path
       style="fill:none;fill-opacity:1;stroke:#000000;stroke-width:0.264583;stroke-linecap:butt;stroke-linejoin:miter;stroke-dasharray:none;stroke-opacity:1;marker-start:none;marker-mid:url(#Arrow1Mend-3)"
       d="m 123.25507,183.97198 c -4.45363,1.3e-4 -8.90725,2e-4 -13.36088,1.9e-4 -3.97225,-1e-5 -7.9445,-7e-5 -11.916744,-1.9e-4"
       id="path1839-5"
       inkscape:path-effect="#path-effect1977"
       inkscape:original-d="m 123.25507,183.97198 c -4.67862,1.3e-4 -8.68213,1.9e-4 -13.36088,1.9e-4 -4.90014,1e-5 -7.01646,-6e-5 -11.916744,-1.9e-4"
       sodipodi:nodetypes="csc" />
    <path
       style="opacity:0.99;fill-opacity:0.12;stroke-width:0.225059;stroke-linejoin:round;stop-color:#000000"
       d="m 98.238425,223.25911 c 0,-9.62437 0.04268,-11.03561 0.330383,-10.92521 0.527759,0.20252 0.600196,-0.20646 0.114429,-0.64607 -0.433681,-0.39248 -0.444812,-0.74239 -0.444812,-13.98377 v -13.58121 l 5.682755,0.002 c 4.35217,0.002 5.93833,0.08 6.77433,0.33361 0.96375,0.29239 1.07659,0.2921 0.96357,-0.002 -0.11211,-0.29213 1.32427,-0.33361 11.55335,-0.33361 6.42476,0 11.91584,0.0865 12.20241,0.19211 0.28657,0.10566 0.81723,0.26394 1.17925,0.35174 0.5794,0.14052 0.62326,0.11752 0.3663,-0.19211 -0.26342,-0.31739 0.27121,-0.35174 5.47465,-0.35174 h 5.76657 v 13.70107 c 0,11.90416 -0.0443,13.73781 -0.33759,13.98124 -0.43249,0.35894 -0.43249,0.67518 0,0.67518 0.29544,0 0.33759,1.36348 0.33759,10.921 v 10.921 l -12.20947,-0.0768 c -6.71521,-0.0422 -12.50304,-0.16071 -12.86183,-0.26331 -0.47077,-0.13462 -0.60804,-0.11482 -0.49311,0.0711 0.11888,0.19234 -2.95447,0.25769 -12.11976,0.25769 H 98.238425 Z"
       id="path3425" />
  </g>
</svg>
