<?xml version="1.0" encoding="UTF-8" standalone="no"?>
<!-- Created with Inkscape (http://www.inkscape.org/) -->

<svg
   width="240mm"
   height="50mm"
   viewBox="0 0 240 50"
   version="1.1"
   id="svg8"
   inkscape:version="1.1.1 (c3084ef, 2021-09-22)"
   sodipodi:docname="cellular-boundary-map.svg"
   xmlns:inkscape="http://www.inkscape.org/namespaces/inkscape"
   xmlns:sodipodi="http://sodipodi.sourceforge.net/DTD/sodipodi-0.dtd"
   xmlns="http://www.w3.org/2000/svg"
   xmlns:svg="http://www.w3.org/2000/svg"
   xmlns:rdf="http://www.w3.org/1999/02/22-rdf-syntax-ns#"
   xmlns:cc="http://creativecommons.org/ns#"
   xmlns:dc="http://purl.org/dc/elements/1.1/">
  <defs
     id="defs2">
    <inkscape:path-effect
       effect="spiro"
       id="path-effect5699"
       is_visible="true"
       lpeversion="1" />
    <inkscape:path-effect
       effect="spiro"
       id="path-effect5091"
       is_visible="true"
       lpeversion="1" />
    <inkscape:path-effect
       effect="spiro"
       id="path-effect4177"
       is_visible="true"
       lpeversion="1" />
    <inkscape:path-effect
       effect="spiro"
       id="path-effect3980"
       is_visible="true"
       lpeversion="1" />
    <inkscape:path-effect
       effect="spiro"
       id="path-effect2789"
       is_visible="true"
       lpeversion="1" />
    <inkscape:path-effect
       effect="spiro"
       id="path-effect2697"
       is_visible="true"
       lpeversion="1" />
    <marker
       id="marker-arrow-1"
       orient="auto-start-reverse"
       refY="0"
       refX="0"
       markerHeight="3"
       markerWidth="2">
      <g
         transform="scale(1.3933333)"
         id="g2701"><path
   d="M -1.55415,2.0722 C -1.42464,1.29512 0,0.1295 0.38852,0 0,-0.1295 -1.42464,-1.29512 -1.55415,-2.0722"
   style="fill:none;stroke:#000000;stroke-linecap:round;stroke-linejoin:round;stroke-miterlimit:10;stroke-dasharray:none;stroke-opacity:1"
   id="path2699" />
0&quot; /&gt;
   </g>
    </marker>
  </defs>
  <sodipodi:namedview
     id="base"
     pagecolor="#ffffff"
     bordercolor="#666666"
     borderopacity="1.0"
     inkscape:pageopacity="0.0"
     inkscape:pageshadow="2"
     inkscape:zoom="0.57674765"
     inkscape:cx="561.77082"
     inkscape:cy="-70.221352"
     inkscape:document-units="mm"
     inkscape:current-layer="layer1"
     showgrid="false"
     showborder="true"
     width="200mm"
     showguides="true"
     inkscape:guide-bbox="true"
     inkscape:window-width="1280"
     inkscape:window-height="680"
     inkscape:window-x="1728"
     inkscape:window-y="25"
     inkscape:window-maximized="0"
     inkscape:pagecheckerboard="0">
    <inkscape:grid
       type="xygrid"
       id="grid815"
       units="mm"
       spacingx="10"
       spacingy="10"
       empspacing="4"
       dotted="false" />
  </sodipodi:namedview>
  <metadata
     id="metadata5">
    <rdf:RDF>
      <cc:Work
         rdf:about="">
        <dc:format>image/svg+xml</dc:format>
        <dc:type
           rdf:resource="http://purl.org/dc/dcmitype/StillImage" />
      </cc:Work>
    </rdf:RDF>
  </metadata>
  <g
     inkscape:label="Layer 1"
     inkscape:groupmode="layer"
     id="layer1"
     transform="translate(0,-177)">
    <path
       style="font-variation-settings:normal;opacity:0.99;vector-effect:none;fill:none;fill-opacity:1;fill-rule:evenodd;stroke:#000000;stroke-width:0.264567;stroke-linecap:butt;stroke-linejoin:round;stroke-miterlimit:4;stroke-dasharray:none;stroke-dashoffset:0;stroke-opacity:1;-inkscape-stroke:none;stop-color:#000000;stop-opacity:1"
       id="path845"
       sodipodi:type="arc"
       sodipodi:cx="50.555264"
       sodipodi:cy="200.84875"
       sodipodi:rx="15.96482"
       sodipodi:ry="15.96482"
       sodipodi:start="3.2066062"
       sodipodi:end="3.1996772"
       sodipodi:open="true"
       sodipodi:arc-type="arc"
       d="M 34.624171,199.81156 A 15.96482,15.96482 0 0 1 51.564864,184.91589 15.96482,15.96482 0 0 1 66.489853,201.83075 15.96482,15.96482 0 0 1 49.600869,216.78502 15.96482,15.96482 0 0 1 34.617367,199.92197" />
    <text
       xml:space="preserve"
       style="font-size:5.64444px;line-height:1.25;font-family:sans-serif;letter-spacing:0px;word-spacing:0px;stroke-width:0.264583"
       x="46.770264"
       y="223.46559"
       id="text1044"><tspan
         sodipodi:role="line"
         id="tspan1042"
         style="stroke-width:0.264583"
         x="46.770264"
         y="223.46559">\(S^{n-1}_\alpha\)</tspan></text>
    <text
       xml:space="preserve"
       style="font-size:5.64444px;line-height:1.25;font-family:sans-serif;letter-spacing:0px;word-spacing:0px;stroke-width:0.264583"
       x="48.160542"
       y="202.9774"
       id="text2536"><tspan
         sodipodi:role="line"
         id="tspan2534"
         style="stroke-width:0.264583"
         x="48.160542"
         y="202.9774">\(e^n_\alpha\)</tspan></text>
    <path
       style="fill:none;fill-opacity:1;stroke:#000000;stroke-width:0.264583;stroke-linecap:butt;stroke-linejoin:miter;stroke-dasharray:none;stroke-opacity:1;marker-start:none;marker-end:url(#marker-arrow-1)"
       d="M 71.575609,204.84001 H 97.11932"
       id="path2695"
       inkscape:path-effect="#path-effect2697"
       inkscape:original-d="m 71.575609,204.84001 c 8.514834,2.7e-4 17.029406,2.7e-4 25.543711,0" />
    <path
       style="fill:none;stroke:#ff8700;stroke-width:0.264583px;stroke-linecap:butt;stroke-linejoin:miter;stroke-opacity:1"
       d="m 127.1864,200.05057 c -2.14632,-2.37685 -3.78917,-5.2062 -4.78946,-8.24849 -0.90539,-2.75366 -1.27295,-5.80115 -0.3013,-8.53213 0.48583,-1.36549 1.30765,-2.62331 2.42768,-3.54315 1.12004,-0.91985 2.54415,-1.48748 3.99347,-1.49482 1.27002,-0.006 2.52937,0.41581 3.57574,1.1356 1.04637,0.7198 1.88187,1.72899 2.45156,2.86408 1.13938,2.2702 1.19735,4.96709 0.62471,7.44177 -1.01458,4.38452 -4.00482,8.27185 -7.9824,10.37714 z"
       id="path2787"
       inkscape:path-effect="#path-effect2789"
       inkscape:original-d="m 127.1864,200.05057 c 0,0 -3.45879,-5.49873 -4.78946,-8.24849 -1.33066,-2.74976 3.90278,-10.64296 6.11985,-13.5701 2.21708,-2.92715 6.04282,1.99973 6.65201,11.44145 0.61399,9.516 -7.9824,10.37714 -7.9824,10.37714 z"
       sodipodi:nodetypes="csssc" />
    <path
       style="color:#000000;fill:#ff8700;-inkscape-stroke:none"
       d="m 202.71759,183.07263 c -1.48343,0.008 -2.93622,0.58759 -4.07813,1.52539 -1.14122,0.93724 -1.97573,2.21586 -2.46875,3.60157 -0.9856,2.77018 -0.61033,5.84611 0.30078,8.61718 1.00611,3.06 2.65759,5.90619 4.81641,8.29688 l 0.0703,0.0762 0.0898,-0.0488 c 4.01286,-2.12396 7.02721,-6.04144 8.05079,-10.46484 0.57784,-2.49716 0.52069,-5.22513 -0.63672,-7.53125 -0.57885,-1.15335 -1.4273,-2.17823 -2.49414,-2.91211 -1.0673,-0.73419 -2.35061,-1.16674 -3.65039,-1.16016 z m 0,0.26563 c 1.24025,-0.006 2.47456,0.40593 3.5,1.11133 1.02588,0.7057 1.84767,1.6976 2.4082,2.81445 1.12134,2.23426 1.18267,4.90131 0.61523,7.35351 -0.99708,4.30894 -3.92965,8.128 -7.82226,10.22657 -2.09672,-2.34549 -3.71267,-5.12073 -4.69532,-8.10938 -0.89965,-2.73624 -1.26043,-5.7555 -0.30273,-8.44726 0.47864,-1.34527 1.28787,-2.58193 2.38672,-3.48438 1.09816,-0.90188 2.49493,-1.45767 3.91016,-1.46484 z"
       id="path2787-9" />
    <path
       style="fill:none;stroke:#c700ff;stroke-width:0.264583px;stroke-linecap:butt;stroke-linejoin:miter;stroke-opacity:1"
       d="m 127.1864,200.05057 c 3.11064,-0.7616 6.38072,-0.86531 9.53337,-0.30236 2.85355,0.50954 5.71057,1.63193 7.65355,3.78302 0.97149,1.07555 1.68879,2.39576 1.96708,3.81814 0.27828,1.42237 0.10226,2.9453 -0.57894,4.22458 -0.59692,1.12102 -1.56614,2.02925 -2.69622,2.60881 -1.13009,0.57957 -2.41487,0.83621 -3.68437,0.79912 -2.53899,-0.0742 -4.94049,-1.30275 -6.84718,-2.98099 -3.37818,-2.97343 -5.3813,-7.45007 -5.34729,-11.95032 z"
       id="path2787-5"
       inkscape:path-effect="#path-effect3980"
       inkscape:original-d="m 127.1864,200.05057 c 0,0 6.48147,-0.43569 9.53337,-0.30236 3.0519,0.13333 7.51694,8.48527 9.04169,11.82574 1.52474,3.34048 -4.62745,4.37051 -13.22777,0.42694 -8.66798,-3.97458 -5.34729,-11.95032 -5.34729,-11.95032 z"
       sodipodi:nodetypes="csssc" />
    <path
       style="fill:none;stroke:#c700ff;stroke-width:0.264583px;stroke-linecap:butt;stroke-linejoin:miter;stroke-opacity:1"
       d="m 127.1864,200.05057 c -0.84663,3.08858 -2.34569,5.99667 -4.37026,8.47805 -1.83249,2.24596 -4.20223,4.19703 -7.02659,4.84925 -1.41218,0.32611 -2.9146,0.31113 -4.29287,-0.13715 -1.37828,-0.44828 -2.62356,-1.34246 -3.41035,-2.55965 -0.68945,-1.06661 -1.01197,-2.35511 -0.96906,-3.62442 0.0429,-1.26931 0.4432,-2.51682 1.09276,-3.60818 1.29912,-2.18271 3.54019,-3.6841 5.93369,-4.53447 4.24068,-1.50665 9.12655,-1.08088 13.0427,1.13658 z"
       id="path2787-55"
       inkscape:path-effect="#path-effect4177"
       inkscape:original-d="m 127.1864,200.05057 c 0,0 -2.77013,5.87585 -4.37026,8.47805 -1.60016,2.60218 -11.0694,2.44393 -14.72981,2.15245 -3.66042,-0.29148 -1.56975,-6.16851 6.05739,-11.76707 7.68715,-5.64262 13.0427,1.13658 13.0427,1.13658 z"
       sodipodi:nodetypes="csssc" />
    <text
       xml:space="preserve"
       style="font-size:5.64444px;line-height:1.25;font-family:sans-serif;letter-spacing:0px;word-spacing:0px;stroke-width:0.264583"
       x="122.97023"
       y="223.46559"
       id="text3220"><tspan
         sodipodi:role="line"
         id="tspan3218"
         style="stroke-width:0.264583"
         x="122.97023"
         y="223.46559">\(X^{n-1}\)</tspan></text>
    <text
       xml:space="preserve"
       style="font-size:5.64444px;line-height:1.25;font-family:sans-serif;letter-spacing:0px;word-spacing:0px;stroke-width:0.264583"
       x="136.82944"
       y="185.42511"
       id="text4710"><tspan
         sodipodi:role="line"
         id="tspan4708"
         style="stroke-width:0.264583"
         x="136.82944"
         y="185.42511">\(e^{n-1}_\beta\)</tspan></text>
    <text
       xml:space="preserve"
       style="font-size:5.64444px;line-height:1.25;font-family:sans-serif;letter-spacing:0px;word-spacing:0px;stroke-width:0.264583"
       x="215.96996"
       y="203.10464"
       id="text4710-1"><tspan
         sodipodi:role="line"
         id="tspan4708-2"
         style="stroke-width:0.264583"
         x="215.96996"
         y="203.10464">\(e^{n-1}_\beta\)</tspan></text>
    <path
       style="fill:none;fill-opacity:1;stroke:#000000;stroke-width:0.264583;stroke-linecap:butt;stroke-linejoin:miter;stroke-dasharray:none;stroke-opacity:1;marker-start:none;marker-end:url(#marker-arrow-1)"
       d="m 156.24231,204.84001 h 25.54373"
       id="path5087"
       inkscape:path-effect="#path-effect5091"
       inkscape:original-d="m 156.24231,204.84001 c 8.51484,2.7e-4 17.02942,2.7e-4 25.54373,0" />
    <path
       style="font-variation-settings:normal;opacity:0.99;vector-effect:none;fill:#c700ff;fill-opacity:1;fill-rule:evenodd;stroke:none;stroke-width:0.264567;stroke-linecap:butt;stroke-linejoin:round;stroke-miterlimit:4;stroke-dasharray:none;stroke-dashoffset:0;stroke-opacity:1;-inkscape-stroke:none;marker-start:none;marker-end:none;stop-color:#000000;stop-opacity:1"
       id="path5225"
       sodipodi:type="arc"
       sodipodi:cx="201.53841"
       sodipodi:cy="205.79097"
       sodipodi:rx="1.2406304"
       sodipodi:ry="1.2406304"
       sodipodi:start="3.2066062"
       sodipodi:end="3.1996772"
       sodipodi:open="true"
       sodipodi:arc-type="arc"
       d="m 200.3004,205.71037 a 1.2406304,1.2406304 0 0 1 1.31646,-1.15755 1.2406304,1.2406304 0 0 1 1.15983,1.31446 1.2406304,1.2406304 0 0 1 -1.31245,1.1621 1.2406304,1.2406304 0 0 1 -1.16437,-1.31043" />
  </g>
</svg>
