<?xml version="1.0" encoding="UTF-8" standalone="no"?>
<!-- Created with Inkscape (http://www.inkscape.org/) -->

<svg
   width="240mm"
   height="50mm"
   viewBox="0 0 240 50"
   version="1.1"
   id="svg8"
   inkscape:version="1.1.1 (c3084ef, 2021-09-22)"
   sodipodi:docname="col:lec14:1.svg"
   xmlns:inkscape="http://www.inkscape.org/namespaces/inkscape"
   xmlns:sodipodi="http://sodipodi.sourceforge.net/DTD/sodipodi-0.dtd"
   xmlns="http://www.w3.org/2000/svg"
   xmlns:svg="http://www.w3.org/2000/svg"
   xmlns:rdf="http://www.w3.org/1999/02/22-rdf-syntax-ns#"
   xmlns:cc="http://creativecommons.org/ns#"
   xmlns:dc="http://purl.org/dc/elements/1.1/">
  <defs
     id="defs2">
    <marker
       style="overflow:visible"
       id="Arrow1Lend"
       refX="0"
       refY="0"
       orient="auto"
       inkscape:stockid="Arrow1Lend"
       inkscape:isstock="true">
      <path
         transform="matrix(-0.8,0,0,-0.8,-10,0)"
         style="fill:context-stroke;fill-rule:evenodd;stroke:context-stroke;stroke-width:1pt"
         d="M 0,0 5,-5 -12.5,0 5,5 Z"
         id="path4345" />
    </marker>
    <inkscape:path-effect
       effect="spiro"
       id="path-effect4340"
       is_visible="true"
       lpeversion="1" />
    <inkscape:path-effect
       effect="spiro"
       id="path-effect2080"
       is_visible="true"
       lpeversion="1" />
    <inkscape:path-effect
       effect="spiro"
       id="path-effect1092"
       is_visible="true"
       lpeversion="1" />
    <inkscape:path-effect
       effect="spiro"
       id="path-effect975"
       is_visible="true"
       lpeversion="1" />
    <inkscape:path-effect
       effect="spiro"
       id="path-effect858"
       is_visible="true"
       lpeversion="1" />
  </defs>
  <sodipodi:namedview
     id="base"
     pagecolor="#ffffff"
     bordercolor="#666666"
     borderopacity="1.0"
     inkscape:pageopacity="0.0"
     inkscape:pageshadow="2"
     inkscape:zoom="0.46722713"
     inkscape:cx="644.22629"
     inkscape:cy="57.787741"
     inkscape:document-units="mm"
     inkscape:current-layer="layer1"
     showgrid="false"
     showborder="true"
     width="200mm"
     showguides="true"
     inkscape:guide-bbox="true"
     inkscape:window-width="985"
     inkscape:window-height="512"
     inkscape:window-x="1728"
     inkscape:window-y="59"
     inkscape:window-maximized="0"
     inkscape:pagecheckerboard="0">
    <inkscape:grid
       type="xygrid"
       id="grid815"
       units="mm"
       spacingx="10"
       spacingy="10"
       empspacing="4"
       dotted="false" />
  </sodipodi:namedview>
  <metadata
     id="metadata5">
    <rdf:RDF>
      <cc:Work
         rdf:about="">
        <dc:format>image/svg+xml</dc:format>
        <dc:type
           rdf:resource="http://purl.org/dc/dcmitype/StillImage" />
      </cc:Work>
    </rdf:RDF>
  </metadata>
  <g
     inkscape:label="Layer 1"
     inkscape:groupmode="layer"
     id="layer1"
     transform="translate(0,-177)">
    <path
       style="fill:none;stroke:#000000;stroke-width:0.264583px;stroke-linecap:butt;stroke-linejoin:miter;stroke-opacity:1"
       d="m 61.318235,206.53492 c 1.469413,-0.60383 3.065699,-0.82473 4.647965,-0.96693 1.582265,-0.1422 3.177115,-0.21192 4.732625,-0.53468 1.555509,-0.32276 3.092544,-0.91933 4.271284,-1.98439 0.58937,-0.53253 1.081338,-1.17848 1.401757,-1.90531 0.320418,-0.72683 0.465751,-1.53545 0.379029,-2.32502 -0.09224,-0.83978 -0.437905,-1.62798 -0.783855,-2.39873 -0.345949,-0.77075 -0.700552,-1.55336 -0.812628,-2.39072 -0.123246,-0.92081 0.06006,-1.87435 0.481168,-2.70246 0.421111,-0.8281 1.074475,-1.53091 1.848303,-2.04499 1.547656,-1.02815 3.525784,-1.27549 5.356113,-0.95574 1.830329,0.31976 3.531667,1.16454 5.091769,2.17372 1.560101,1.00917 3.002677,2.18795 4.517861,3.26339 2.738865,1.94398 5.798379,3.62877 7.716324,6.38593 1.96546,2.82546 2.45205,6.62411 1.25676,9.85173 -1.1953,3.22761 -4.041595,5.7944 -7.376604,6.64525 -2.036721,0.51962 -4.186484,0.42594 -6.2595,0.0783 -2.073016,-0.34763 -4.09515,-0.94284 -6.141122,-1.42475 -2.045971,-0.48191 -4.141518,-0.85255 -6.240385,-0.73856 -2.098867,0.11399 -4.218055,0.74603 -5.838374,2.08499 -1.605792,1.32695 -2.603414,3.22586 -3.775769,4.94777 -0.586178,0.86095 -1.229158,1.69233 -2.010319,2.38126 -0.781162,0.68893 -1.71012,1.23303 -2.728482,1.45162 -1.349813,0.28974 -2.799633,-0.0204 -3.967558,-0.75653 -1.167925,-0.73614 -2.057241,-1.87725 -2.579932,-3.15503 -0.522691,-1.27779 -0.689526,-2.68637 -0.58183,-4.06272 0.107695,-1.37636 0.483654,-2.72283 1.009472,-3.99933 0.613579,-1.48955 1.437916,-2.90031 2.50724,-4.10521 1.069324,-1.20491 2.388616,-2.20056 3.878688,-2.81288 z"
       id="path856"
       inkscape:path-effect="#path-effect858"
       inkscape:original-d="m 61.318235,206.53492 c 2.128378,-2.3063 10.288704,-5.14396 15.43266,-7.71633 5.143957,-2.57238 -1.064059,-3.1927 -1.596483,-4.78945 -0.532426,-1.59674 11.530407,-0.17712 17.295214,-0.26608 5.764807,-0.089 5.144487,4.25755 7.716324,6.38593 2.57185,2.12838 -4.079627,10.99825 -6.119844,16.49698 -2.04021,5.49873 -16.319319,2.6e-4 -24.479381,0 -8.160061,-2.6e-4 -5.676116,5.85403 -8.51457,8.78065 -2.838455,2.92662 -4.079634,-7.98214 -6.119848,-11.97361 -2.040214,-3.99147 4.25755,-4.6118 6.385928,-6.91809 z" />
    <path
       style="fill:none;stroke:#000000;stroke-width:0.264583px;stroke-linecap:butt;stroke-linejoin:miter;stroke-opacity:1"
       d="m 151.51946,201.74547 c 0.6543,-1.52546 0.76737,-3.21775 0.9566,-4.86679 0.18922,-1.64903 0.48749,-3.35143 1.43812,-4.7121 0.68916,-0.98643 1.6922,-1.73425 2.80155,-2.20045 1.10934,-0.46619 2.32202,-0.6592 3.52533,-0.65572 2.40664,0.007 4.73721,0.7777 7.02389,1.52807 2.28667,0.75038 4.62943,1.49674 7.03567,1.45243 1.20312,-0.0222 2.41148,-0.24767 3.50537,-0.74907 1.09388,-0.50139 2.06969,-1.28727 2.71622,-2.30215 0.77861,-1.22222 1.04305,-2.68956 1.37396,-4.10043 0.16545,-0.70543 0.35218,-1.40897 0.63497,-2.07609 0.2828,-0.66711 0.66552,-1.29977 1.18404,-1.80589 0.89894,-0.87744 2.17264,-1.32253 3.42882,-1.32366 1.25619,-0.001 2.49132,0.41829 3.56258,1.07434 2.14252,1.3121 3.59171,3.47844 4.98221,5.57093 3.14915,4.73899 6.43457,9.665 7.21265,15.30146 0.38904,2.81824 0.10622,5.76974 -1.10592,8.34355 -1.21215,2.57382 -3.40462,4.73367 -6.10673,5.62383 -1.58948,0.52362 -3.30564,0.60278 -4.96294,0.37043 -1.6573,-0.23234 -3.26068,-0.7686 -4.79026,-1.44758 -3.05916,-1.35795 -5.83703,-3.28212 -8.86866,-4.70048 -1.51581,-0.70917 -3.10041,-1.29223 -4.74719,-1.59012 -1.64679,-0.29789 -3.36109,-0.30407 -4.9789,0.1241 -1.6178,0.42818 -3.13501,1.3065 -4.20713,2.59148 -1.07212,1.28499 -1.671,2.98709 -1.5032,4.65217 0.14806,1.46922 0.85966,2.82083 1.17123,4.26425 0.15579,0.72171 0.20948,1.47782 0.0389,2.19619 -0.17053,0.71837 -0.58367,1.39739 -1.21018,1.78805 -0.39634,0.24714 -0.8624,0.37093 -1.32887,0.39482 -0.46646,0.0239 -0.93415,-0.0491 -1.38441,-0.17331 -0.9005,-0.24847 -1.7315,-0.69754 -2.60833,-1.01976 -1.519,-0.5582 -3.15272,-0.72762 -4.76998,-0.78599 -1.61727,-0.0584 -3.23957,-0.0104 -4.85147,-0.15439 -1.6119,-0.14395 -3.23344,-0.49017 -4.64491,-1.28181 -1.41147,-0.79165 -2.59956,-2.07123 -3.02886,-3.63157 -0.23427,-0.85147 -0.23717,-1.75965 -0.0549,-2.62374 0.18229,-0.86409 0.54642,-1.68485 1.02466,-2.42725 0.95647,-1.48482 2.34629,-2.63878 3.798,-3.64478 1.45171,-1.00601 2.98899,-1.89042 4.38245,-2.97567 1.39347,-1.08525 2.65932,-2.4041 3.35555,-4.0273 z"
       id="path973"
       inkscape:path-effect="#path-effect975"
       inkscape:original-d="m 151.51946,201.74547 c 4.16832,-5.23318 1.59674,-6.38566 2.39472,-9.57889 0.79798,-3.19323 17.73895,-1.95099 26.60803,-2.92689 8.86908,-0.97589 2.12891,-5.32134 3.19297,-7.98241 1.06406,-2.66106 7.98267,3.54801 11.97361,5.32161 3.99094,1.7736 2.7e-4,19.51282 0,29.26884 -2.6e-4,9.75601 -22.70525,2.6e-4 -34.05828,0 -11.35302,-2.7e-4 2.7e-4,5.49925 0,8.24849 -2.6e-4,2.74923 -3.54747,-0.5319 -5.32161,-0.79825 -1.77413,-0.26634 -11.52988,-3.90224 -17.29522,-5.85376 -5.76533,-1.95152 8.33745,-10.46556 12.50578,-15.69874 z" />
    <path
       style="fill:none;stroke:#ff0000;stroke-width:0.264583px;stroke-linecap:butt;stroke-linejoin:miter;stroke-opacity:1"
       d="m 65.309438,209.47975 c 2.142857,1.66008 4.892028,2.51895 7.598811,2.37394 2.706782,-0.14501 5.34846,-1.29268 7.301693,-3.17219 1.720925,-1.65597 2.872875,-3.79772 4.189537,-5.79027 0.658331,-0.99627 1.366561,-1.96588 2.20549,-2.81568 0.838928,-0.8498 1.814773,-1.57972 2.917777,-2.03726 1.005349,-0.41703 2.106702,-0.60059 3.19296,-0.53216"
       id="path1090"
       inkscape:path-effect="#path-effect1092"
       inkscape:original-d="m 65.309438,209.47975 c 4.9671,-0.26582 9.933932,-0.5319 14.900504,-0.79825 4.966557,-0.26634 6.208797,-7.09521 9.312804,-10.64321 3.104,-3.548 2.1289,-0.35451 3.19296,-0.53216" />
    <text
       xml:space="preserve"
       style="font-size:5.64444px;line-height:1.25;font-family:sans-serif;letter-spacing:0px;word-spacing:0px;stroke-width:0.264583"
       x="61.791737"
       y="215.28151"
       id="text1924"><tspan
         sodipodi:role="line"
         id="tspan1922"
         style="stroke-width:0.264583"
         x="61.791737"
         y="215.28151">\(x_0\)</tspan></text>
    <text
       xml:space="preserve"
       style="font-size:5.64444px;line-height:1.25;font-family:sans-serif;letter-spacing:0px;word-spacing:0px;stroke-width:0.264583"
       x="150.18755"
       y="214.21169"
       id="text1924-7"><tspan
         sodipodi:role="line"
         id="tspan1922-1"
         style="stroke-width:0.264583"
         x="150.18755"
         y="214.21169">\(\widetilde{x}_0\)</tspan></text>
    <path
       style="fill:none;stroke:#ff0000;stroke-width:0.264583px;stroke-linecap:butt;stroke-linejoin:miter;stroke-opacity:1"
       d="m 158.17146,207.06708 c -0.5884,-0.92567 -0.9188,-2.01349 -0.94462,-3.11004 -0.0258,-1.09655 0.25304,-2.19871 0.79723,-3.15105 0.5442,-0.95233 1.35218,-1.75213 2.31,-2.2866 0.95783,-0.53447 2.06277,-0.80209 3.159,-0.76512 1.57449,0.0531 3.07731,0.72149 4.36776,1.62515 1.29045,0.90365 2.39801,2.03892 3.514,3.15085 1.116,1.11194 2.2604,2.21679 3.60202,3.04257 1.34162,0.82577 2.91129,1.36128 4.48104,1.22816 1.04509,-0.0886 2.05424,-0.47129 2.94048,-1.03223 0.88624,-0.56094 1.65358,-1.29644 2.31639,-2.1093 1.32563,-1.62574 2.23199,-3.54323 3.2577,-5.37304 1.37348,-2.45022 2.9795,-4.77003 4.78944,-6.91809"
       id="path2078"
       inkscape:path-effect="#path-effect2080"
       inkscape:original-d="m 158.17146,207.06708 c 1.77414,-3.10401 3.548,-6.20828 5.32161,-9.31281 1.7736,-3.10454 10.64348,6.03141 15.96482,9.04673 5.32134,3.01531 5.67664,-5.67612 8.51457,-8.51457 2.83793,-2.83846 3.19323,-4.6118 4.78944,-6.91809" />
    <path
       style="font-variation-settings:normal;opacity:0.99;vector-effect:none;fill:#ff0000;fill-opacity:1;fill-rule:evenodd;stroke:none;stroke-width:0.264567;stroke-linecap:butt;stroke-linejoin:round;stroke-miterlimit:4;stroke-dasharray:none;stroke-dashoffset:0;stroke-opacity:1;-inkscape-stroke:none;stop-color:#000000;stop-opacity:1"
       id="path3931"
       sodipodi:type="arc"
       sodipodi:cx="65.044228"
       sodipodi:cy="209.02895"
       sodipodi:rx="0.79824102"
       sodipodi:ry="0.79824102"
       sodipodi:start="6.1848709"
       sodipodi:end="6.1778721"
       sodipodi:open="true"
       sodipodi:arc-type="arc"
       d="m 65.838614,208.95059 a 0.79824102,0.79824102 0 0 1 -0.714644,0.8726 0.79824102,0.79824102 0 0 1 -0.87385,-0.71311 0.79824102,0.79824102 0 0 1 0.711587,-0.8751 0.79824102,0.79824102 0 0 1 0.876339,0.71006" />
    <path
       style="font-variation-settings:normal;opacity:0.99;vector-effect:none;fill:#ff0000;fill-opacity:1;fill-rule:evenodd;stroke:none;stroke-width:0.264567;stroke-linecap:butt;stroke-linejoin:round;stroke-miterlimit:4;stroke-dasharray:none;stroke-dashoffset:0;stroke-opacity:1;-inkscape-stroke:none;stop-color:#000000;stop-opacity:1"
       id="path3931-9"
       sodipodi:type="arc"
       sodipodi:cx="91.921906"
       sodipodi:cy="197.59004"
       sodipodi:rx="0.79824102"
       sodipodi:ry="0.79824102"
       sodipodi:start="6.1848709"
       sodipodi:end="6.1778721"
       sodipodi:open="true"
       sodipodi:arc-type="arc"
       d="m 92.716292,197.51169 a 0.79824102,0.79824102 0 0 1 -0.714644,0.8726 0.79824102,0.79824102 0 0 1 -0.87385,-0.71312 0.79824102,0.79824102 0 0 1 0.711587,-0.87509 0.79824102,0.79824102 0 0 1 0.876339,0.71005" />
    <path
       style="font-variation-settings:normal;opacity:0.99;vector-effect:none;fill:#ff0000;fill-opacity:1;fill-rule:evenodd;stroke:none;stroke-width:0.264567;stroke-linecap:butt;stroke-linejoin:round;stroke-miterlimit:4;stroke-dasharray:none;stroke-dashoffset:0;stroke-opacity:1;-inkscape-stroke:none;stop-color:#000000;stop-opacity:1"
       id="path3931-1"
       sodipodi:type="arc"
       sodipodi:cx="158.06972"
       sodipodi:cy="207.33316"
       sodipodi:rx="0.79824102"
       sodipodi:ry="0.79824102"
       sodipodi:start="6.1848709"
       sodipodi:end="6.1778721"
       sodipodi:open="true"
       sodipodi:arc-type="arc"
       d="m 158.8641,207.25481 a 0.79824102,0.79824102 0 0 1 -0.71464,0.8726 0.79824102,0.79824102 0 0 1 -0.87385,-0.71312 0.79824102,0.79824102 0 0 1 0.71159,-0.87509 0.79824102,0.79824102 0 0 1 0.87634,0.71005" />
    <path
       style="font-variation-settings:normal;opacity:0.99;vector-effect:none;fill:#ff0000;fill-opacity:1;fill-rule:evenodd;stroke:none;stroke-width:0.264567;stroke-linecap:butt;stroke-linejoin:round;stroke-miterlimit:4;stroke-dasharray:none;stroke-dashoffset:0;stroke-opacity:1;-inkscape-stroke:none;stop-color:#000000;stop-opacity:1"
       id="path3931-7"
       sodipodi:type="arc"
       sodipodi:cx="192.99979"
       sodipodi:cy="191.22955"
       sodipodi:rx="0.79824102"
       sodipodi:ry="0.79824102"
       sodipodi:start="6.1848709"
       sodipodi:end="6.1778721"
       sodipodi:open="true"
       sodipodi:arc-type="arc"
       d="m 193.79417,191.1512 a 0.79824102,0.79824102 0 0 1 -0.71464,0.8726 0.79824102,0.79824102 0 0 1 -0.87385,-0.71312 0.79824102,0.79824102 0 0 1 0.71159,-0.87509 0.79824102,0.79824102 0 0 1 0.87633,0.71005" />
    <path
       style="fill:none;stroke:#000000;stroke-width:0.264583px;stroke-linecap:butt;stroke-linejoin:miter;stroke-opacity:1;marker-end:url(#Arrow1Lend)"
       d="m 106.46196,199.97316 h 31.65191"
       id="path4338"
       inkscape:path-effect="#path-effect4340"
       inkscape:original-d="m 106.46196,199.97316 c 10.5509,2.6e-4 21.10154,2.6e-4 31.65191,0" />
    <text
       xml:space="preserve"
       style="font-size:5.64444px;line-height:1.25;font-family:sans-serif;letter-spacing:0px;word-spacing:0px;stroke-width:0.264583"
       x="118.94302"
       y="206.87154"
       id="text939"><tspan
         sodipodi:role="line"
         id="tspan937"
         style="stroke-width:0.264583"
         x="118.94302"
         y="206.87154">\(p\)</tspan></text>
    <text
       xml:space="preserve"
       style="font-size:5.64444px;line-height:1.25;font-family:sans-serif;letter-spacing:0px;word-spacing:0px;stroke-width:0.264583"
       x="84.183418"
       y="209.94922"
       id="text1177"><tspan
         sodipodi:role="line"
         id="tspan1175"
         style="stroke-width:0.264583"
         x="84.183418"
         y="209.94922">\(\gamma\)</tspan></text>
    <text
       xml:space="preserve"
       style="font-size:5.64444px;line-height:1.25;font-family:sans-serif;letter-spacing:0px;word-spacing:0px;stroke-width:0.264583"
       x="173.00066"
       y="202.09647"
       id="text1177-3"><tspan
         sodipodi:role="line"
         id="tspan1175-6"
         style="stroke-width:0.264583"
         x="173.00066"
         y="202.09647">\(\widetilde{\gamma}\)</tspan></text>
  </g>
</svg>
