<?xml version="1.0" encoding="UTF-8" standalone="no"?>
<!-- Created with Inkscape (http://www.inkscape.org/) -->

<svg
   width="240mm"
   height="30mm"
   viewBox="0 0 240 30"
   version="1.1"
   id="svg8"
   inkscape:version="1.1.1 (c3084ef, 2021-09-22)"
   sodipodi:docname="def:fundamental-group-elements.svg"
   xmlns:inkscape="http://www.inkscape.org/namespaces/inkscape"
   xmlns:sodipodi="http://sodipodi.sourceforge.net/DTD/sodipodi-0.dtd"
   xmlns="http://www.w3.org/2000/svg"
   xmlns:svg="http://www.w3.org/2000/svg"
   xmlns:rdf="http://www.w3.org/1999/02/22-rdf-syntax-ns#"
   xmlns:cc="http://creativecommons.org/ns#"
   xmlns:dc="http://purl.org/dc/elements/1.1/">
  <defs
     id="defs2">
    <inkscape:path-effect
       effect="spiro"
       id="path-effect1021"
       is_visible="true"
       lpeversion="1" />
  </defs>
  <sodipodi:namedview
     id="base"
     pagecolor="#ffffff"
     bordercolor="#666666"
     borderopacity="1.0"
     inkscape:pageopacity="0.0"
     inkscape:pageshadow="2"
     inkscape:zoom="0.81530782"
     inkscape:cx="477.12041"
     inkscape:cy="44.155102"
     inkscape:document-units="mm"
     inkscape:current-layer="layer1"
     showgrid="false"
     showborder="true"
     width="200mm"
     showguides="true"
     inkscape:guide-bbox="true"
     inkscape:window-width="985"
     inkscape:window-height="512"
     inkscape:window-x="0"
     inkscape:window-y="38"
     inkscape:window-maximized="0"
     inkscape:pagecheckerboard="0">
    <inkscape:grid
       type="xygrid"
       id="grid815"
       units="mm"
       spacingx="10"
       spacingy="10"
       empspacing="4"
       dotted="false" />
  </sodipodi:namedview>
  <metadata
     id="metadata5">
    <rdf:RDF>
      <cc:Work
         rdf:about="">
        <dc:format>image/svg+xml</dc:format>
        <dc:type
           rdf:resource="http://purl.org/dc/dcmitype/StillImage" />
      </cc:Work>
    </rdf:RDF>
  </metadata>
  <g
     inkscape:label="Layer 1"
     inkscape:groupmode="layer"
     id="layer1"
     transform="translate(0,-177)">
    <path
       style="font-variation-settings:normal;opacity:0.99;vector-effect:none;fill:#000000;fill-opacity:1;fill-rule:evenodd;stroke:#000000;stroke-width:1.00157;stroke-linecap:butt;stroke-linejoin:round;stroke-miterlimit:4;stroke-dasharray:none;stroke-dashoffset:0;stroke-opacity:1;-inkscape-stroke:none;stop-color:#000000;stop-opacity:1"
       id="path845"
       sodipodi:type="arc"
       sodipodi:cx="117.76711"
       sodipodi:cy="184.61322"
       sodipodi:rx="0.66520083"
       sodipodi:ry="0.66520083"
       sodipodi:start="6.1848709"
       sodipodi:end="6.1778721"
       sodipodi:open="true"
       sodipodi:arc-type="arc"
       d="m 118.4291,184.54793 a 0.66520083,0.66520083 0 0 1 -0.59554,0.72716 0.66520083,0.66520083 0 0 1 -0.7282,-0.59426 0.66520083,0.66520083 0 0 1 0.59299,-0.72925 0.66520083,0.66520083 0 0 1 0.73028,0.59172" />
    <path
       style="fill:none;stroke:#000000;stroke-width:0.264583px;stroke-linecap:butt;stroke-linejoin:miter;stroke-opacity:1"
       d="m 118.42911,184.54793 c 1.29485,-0.30725 2.55075,-0.77822 3.72834,-1.39815 0.6328,-0.33313 1.2422,-0.70856 1.86256,-1.06432 1.30343,-0.74748 2.67712,-1.41569 4.15309,-1.6971 1.47596,-0.2814 3.07569,-0.14464 4.36149,0.63278 1.02712,0.62101 1.78364,1.59685 2.48136,2.57348 0.69773,0.97664 1.37567,1.99232 2.30808,2.74813 0.75852,0.61485 1.65435,1.03175 2.53759,1.44802 0.88324,0.41626 1.77505,0.84521 2.51794,1.47886 1.31185,1.11894 2.05424,2.81649 2.21348,4.53335 0.15925,1.71686 -0.22647,3.45122 -0.88307,5.04554 -0.39589,0.96128 -0.89706,1.89166 -1.59649,2.66081 -0.72603,0.7984 -1.65128,1.40366 -2.64882,1.8153 -0.99755,0.41164 -2.06684,0.63384 -3.14209,0.72544 -2.1505,0.18321 -4.30668,-0.14838 -6.44879,-0.4121 -2.84248,-0.34995 -5.81456,-0.61928 -8.24849,-2.12864 -1.52168,-0.94365 -2.74416,-2.3359 -3.58424,-3.91712 -0.84008,-1.58121 -1.30643,-3.34669 -1.47129,-5.12961 -0.0818,-0.88457 -0.0908,-1.77712 0,-2.66081 0.19172,-1.86551 0.83495,-3.68303 1.85935,-5.25386"
       id="path1019"
       inkscape:path-effect="#path-effect1021"
       inkscape:original-d="m 118.42911,184.54793 c 1.24278,-0.46605 2.51364,-0.86315 3.72834,-1.39815 0.6544,-0.28822 1.20531,-0.78264 1.86256,-1.06432 2.05523,-0.88081 6.29486,-1.43427 8.51458,-1.06432 1.21519,0.20253 3.95769,4.40669 4.78944,5.32161 1.58218,1.7404 2.9947,2.10255 5.05553,2.92688 2.15564,0.86226 1.76204,7.96025 1.33041,9.57889 -0.17453,0.65446 -1.05398,2.1183 -1.59649,2.66081 -2.42814,2.42814 -9.14464,2.12864 -12.2397,2.12864 -4.1463,0 -4.74123,-0.37501 -8.24849,-2.12864 -4.04772,-2.02386 -5.05553,-4.63749 -5.05553,-9.04673 0,-0.83758 -0.16247,-1.84849 0,-2.66081 0.41051,-2.05254 1.40618,-3.53583 1.85935,-5.25386" />
    <text
       xml:space="preserve"
       style="font-size:5.64444px;line-height:1.25;font-family:sans-serif;letter-spacing:0px;word-spacing:0px;stroke-width:0.264583"
       x="145.65175"
       y="193.95114"
       id="text1179"><tspan
         sodipodi:role="line"
         id="tspan1177"
         style="stroke-width:0.264583"
         x="145.65175"
         y="193.95114">\(\gamma\)</tspan></text>
    <text
       xml:space="preserve"
       style="font-size:5.64444px;line-height:1.25;font-family:sans-serif;letter-spacing:0px;word-spacing:0px;stroke-width:0.264583"
       x="106.74273"
       y="189.00356"
       id="text2215"><tspan
         sodipodi:role="line"
         id="tspan2213"
         style="stroke-width:0.264583"
         x="106.74273"
         y="189.00356">\(x_0\)</tspan></text>
  </g>
</svg>
