<?xml version="1.0" encoding="UTF-8" standalone="no"?>
<!-- Created with Inkscape (http://www.inkscape.org/) -->

<svg
   width="240mm"
   height="41mm"
   viewBox="0 0 240 41"
   version="1.1"
   id="svg8"
   inkscape:version="1.1.1 (c3084ef, 2021-09-22)"
   sodipodi:docname="def:local-degree.svg"
   xmlns:inkscape="http://www.inkscape.org/namespaces/inkscape"
   xmlns:sodipodi="http://sodipodi.sourceforge.net/DTD/sodipodi-0.dtd"
   xmlns="http://www.w3.org/2000/svg"
   xmlns:svg="http://www.w3.org/2000/svg"
   xmlns:rdf="http://www.w3.org/1999/02/22-rdf-syntax-ns#"
   xmlns:cc="http://creativecommons.org/ns#"
   xmlns:dc="http://purl.org/dc/elements/1.1/">
  <defs
     id="defs2">
    <inkscape:path-effect
       effect="spiro"
       id="path-effect4794"
       is_visible="true"
       lpeversion="1" />
    <inkscape:path-effect
       effect="spiro"
       id="path-effect3789"
       is_visible="true"
       lpeversion="1" />
    <inkscape:path-effect
       effect="spiro"
       id="path-effect1854"
       is_visible="true"
       lpeversion="1" />
    <inkscape:path-effect
       effect="spiro"
       id="path-effect1610"
       is_visible="true"
       lpeversion="1" />
    <marker
       id="marker-arrow-1"
       orient="auto-start-reverse"
       refY="0"
       refX="0"
       markerHeight="3"
       markerWidth="2">
      <g
         transform="scale(1.3933333)"
         id="g1614"><path
   d="M -1.55415,2.0722 C -1.42464,1.29512 0,0.1295 0.38852,0 0,-0.1295 -1.42464,-1.29512 -1.55415,-2.0722"
   style="fill:none;stroke:#000000;stroke-linecap:round;stroke-linejoin:round;stroke-miterlimit:10;stroke-dasharray:none;stroke-opacity:1"
   id="path1612" />

0&quot; /&gt;
   </g>
    </marker>
  </defs>
  <sodipodi:namedview
     id="base"
     pagecolor="#ffffff"
     bordercolor="#666666"
     borderopacity="1.0"
     inkscape:pageopacity="0.0"
     inkscape:pageshadow="2"
     inkscape:zoom="2.7850837"
     inkscape:cx="336.43514"
     inkscape:cy="96.047384"
     inkscape:document-units="mm"
     inkscape:current-layer="layer1"
     showgrid="false"
     showborder="true"
     width="200mm"
     showguides="true"
     inkscape:guide-bbox="true"
     inkscape:window-width="1280"
     inkscape:window-height="680"
     inkscape:window-x="1728"
     inkscape:window-y="697"
     inkscape:window-maximized="0"
     inkscape:pagecheckerboard="0"
     height="41mm">
    <inkscape:grid
       type="xygrid"
       id="grid815"
       units="mm"
       spacingx="10"
       spacingy="10"
       empspacing="4"
       dotted="false" />
  </sodipodi:namedview>
  <metadata
     id="metadata5">
    <rdf:RDF>
      <cc:Work
         rdf:about="">
        <dc:format>image/svg+xml</dc:format>
        <dc:type
           rdf:resource="http://purl.org/dc/dcmitype/StillImage" />
      </cc:Work>
    </rdf:RDF>
  </metadata>
  <g
     inkscape:label="Layer 1"
     inkscape:groupmode="layer"
     id="layer1"
     transform="translate(0,-177)">
    <path
       style="font-variation-settings:normal;opacity:0.99;vector-effect:none;fill:none;fill-opacity:1;fill-rule:evenodd;stroke:#000000;stroke-width:0.264567;stroke-linecap:butt;stroke-linejoin:round;stroke-miterlimit:4;stroke-dasharray:none;stroke-dashoffset:0;stroke-opacity:1;-inkscape-stroke:none;stop-color:#000000;stop-opacity:1"
       id="path845"
       sodipodi:type="arc"
       sodipodi:cx="81.021461"
       sodipodi:cy="197.42702"
       sodipodi:rx="20.089066"
       sodipodi:ry="20.089066"
       sodipodi:start="4.7575406"
       sodipodi:end="4.7527004"
       sodipodi:open="true"
       sodipodi:arc-type="arc"
       d="m 81.928207,177.35843 a 20.089066,20.089066 0 0 1 19.162933,20.95105 20.089066,20.089066 0 0 1 -20.927854,19.18826 20.089066,20.089066 0 0 1 -19.213575,-20.90461 20.089066,20.089066 0 0 1 20.88135,-19.23886" />
    <path
       style="font-variation-settings:normal;opacity:0.99;vector-effect:none;fill:none;fill-opacity:1;fill-rule:evenodd;stroke:#000000;stroke-width:0.264583;stroke-linecap:butt;stroke-linejoin:round;stroke-miterlimit:4;stroke-dasharray:0.79375, 0.79375;stroke-dashoffset:0;stroke-opacity:1;-inkscape-stroke:none;marker-start:none;marker-end:none;stop-color:#000000;stop-opacity:1"
       id="path888"
       sodipodi:type="arc"
       sodipodi:cx="81.070267"
       sodipodi:cy="197.46912"
       sodipodi:rx="20.127823"
       sodipodi:ry="3.4590442"
       sodipodi:start="3.2066045"
       sodipodi:end="6.2297247"
       sodipodi:open="true"
       sodipodi:arc-type="arc"
       d="m 60.984964,197.2444 a 20.127823,3.4590442 0 0 1 20.201553,-3.23427 20.127823,3.4590442 0 0 1 19.982813,3.27415" />
    <path
       style="font-variation-settings:normal;opacity:0.99;vector-effect:none;fill:none;fill-opacity:1;fill-rule:evenodd;stroke:#000000;stroke-width:0.264567;stroke-linecap:butt;stroke-linejoin:round;stroke-miterlimit:4;stroke-dasharray:none;stroke-dashoffset:0;stroke-opacity:1;-inkscape-stroke:none;stop-color:#000000;stop-opacity:1"
       id="path1287"
       sodipodi:type="arc"
       sodipodi:cx="81.070267"
       sodipodi:cy="197.46912"
       sodipodi:rx="20.127823"
       sodipodi:ry="3.4590442"
       sodipodi:start="0.046152101"
       sodipodi:end="3.1766209"
       sodipodi:open="true"
       sodipodi:arc-type="arc"
       d="m 101.17666,197.6287 a 20.127823,3.4590442 0 0 1 -20.923161,3.29661 20.127823,3.4590442 0 0 1 -19.298708,-3.57733" />
    <path
       style="font-variation-settings:normal;opacity:0.99;vector-effect:none;fill:none;fill-opacity:1;fill-rule:evenodd;stroke:#000000;stroke-width:0.264567;stroke-linecap:butt;stroke-linejoin:round;stroke-miterlimit:4;stroke-dasharray:none;stroke-dashoffset:0;stroke-opacity:1;-inkscape-stroke:none;stop-color:#000000;stop-opacity:1"
       id="path1489"
       sodipodi:type="arc"
       sodipodi:cx="168.64546"
       sodipodi:cy="197.70773"
       sodipodi:rx="20.089066"
       sodipodi:ry="20.089066"
       sodipodi:start="4.7575406"
       sodipodi:end="4.7527004"
       sodipodi:open="true"
       sodipodi:arc-type="arc"
       d="m 169.55221,177.63914 a 20.089066,20.089066 0 0 1 19.16293,20.95105 20.089066,20.089066 0 0 1 -20.92785,19.18827 20.089066,20.089066 0 0 1 -19.21358,-20.90461 20.089066,20.089066 0 0 1 20.88135,-19.23886" />
    <path
       style="font-variation-settings:normal;opacity:0.99;vector-effect:none;fill:none;fill-opacity:1;fill-rule:evenodd;stroke:#000000;stroke-width:0.264583;stroke-linecap:butt;stroke-linejoin:round;stroke-miterlimit:4;stroke-dasharray:0.79375, 0.79375;stroke-dashoffset:0;stroke-opacity:1;-inkscape-stroke:none;marker-start:none;marker-end:none;stop-color:#000000;stop-opacity:1"
       id="path1491"
       sodipodi:type="arc"
       sodipodi:cx="168.69427"
       sodipodi:cy="197.74983"
       sodipodi:rx="20.127823"
       sodipodi:ry="3.4590442"
       sodipodi:start="3.2066045"
       sodipodi:end="6.2297247"
       sodipodi:open="true"
       sodipodi:arc-type="arc"
       d="m 148.60897,197.52511 a 20.127823,3.4590442 0 0 1 20.20155,-3.23426 20.127823,3.4590442 0 0 1 19.98282,3.27415" />
    <path
       style="font-variation-settings:normal;opacity:0.99;vector-effect:none;fill:none;fill-opacity:1;fill-rule:evenodd;stroke:#000000;stroke-width:0.264567;stroke-linecap:butt;stroke-linejoin:round;stroke-miterlimit:4;stroke-dasharray:none;stroke-dashoffset:0;stroke-opacity:1;-inkscape-stroke:none;stop-color:#000000;stop-opacity:1"
       id="path1493"
       sodipodi:type="arc"
       sodipodi:cx="168.69427"
       sodipodi:cy="197.74983"
       sodipodi:rx="20.127823"
       sodipodi:ry="3.4590442"
       sodipodi:start="0.046152101"
       sodipodi:end="3.1766209"
       sodipodi:open="true"
       sodipodi:arc-type="arc"
       d="m 188.80067,197.90942 a 20.127823,3.4590442 0 0 1 -20.92316,3.29661 20.127823,3.4590442 0 0 1 -19.29871,-3.57734" />
    <path
       style="fill:none;fill-opacity:1;stroke:#000000;stroke-width:0.264583;stroke-linecap:butt;stroke-linejoin:miter;stroke-dasharray:none;stroke-opacity:1;marker-start:none;marker-end:url(#marker-arrow-1)"
       d="m 111.75999,197.62866 h 26.23547"
       id="path1608"
       inkscape:original-d="m 111.75999,197.62866 c 8.74543,2.7e-4 17.49058,2.7e-4 26.23547,0"
       inkscape:path-effect="#path-effect1610" />
    <path
       style="fill:none;stroke:#000000;stroke-width:0.264583px;stroke-linecap:butt;stroke-linejoin:miter;stroke-opacity:1"
       d="m 82.937187,205.4957 c -0.03102,-0.17267 -0.01298,-0.35296 0.04473,-0.51863 0.05771,-0.16568 0.154418,-0.3168 0.275394,-0.44385 0.241952,-0.25412 0.57493,-0.40772 0.917335,-0.48435 0.684811,-0.15326 1.400317,-0.0174 2.099392,-0.0786 0.891925,-0.0781 1.724247,-0.47341 2.501443,-0.91793 0.777196,-0.44452 1.527532,-0.94734 2.36082,-1.27485 1.051755,-0.41337 2.234643,-0.52963 3.324031,-0.22913 1.089387,0.3005 2.071244,1.03716 2.578498,2.04699 0.341386,0.67962 0.462032,1.46008 0.394953,2.21767 -0.06708,0.75758 -0.316827,1.49279 -0.677922,2.16215 -0.600352,1.11287 -1.502082,2.04346 -2.51764,2.79681 -1.015558,0.75336 -2.145798,1.33801 -3.294625,1.86631 -0.605717,0.27854 -1.221683,0.54361 -1.868711,0.70435 -0.647027,0.16073 -1.330506,0.21412 -1.980812,0.0672 -0.650307,-0.14691 -1.265424,-0.50725 -1.64451,-1.05568 -0.189543,-0.27421 -0.317799,-0.59207 -0.360551,-0.92267 -0.04275,-0.33059 0.0012,-0.67346 0.136302,-0.97822 0.221841,-0.50061 0.663154,-0.86217 1.023151,-1.27475 0.179998,-0.20629 0.343415,-0.43149 0.44437,-0.68598 0.100954,-0.25448 0.135854,-0.54164 0.05789,-0.80408 -0.0558,-0.18784 -0.167506,-0.35679 -0.308973,-0.49237 -0.141467,-0.13559 -0.311998,-0.23873 -0.492615,-0.31472 -0.361232,-0.15196 -0.757073,-0.19588 -1.146052,-0.24362 -0.388979,-0.0477 -0.785012,-0.10313 -1.137257,-0.27491 -0.176122,-0.0859 -0.339497,-0.20091 -0.469198,-0.34779 -0.129701,-0.14688 -0.224802,-0.32652 -0.259445,-0.51938 z"
       id="path1852"
       inkscape:original-d="m 82.937187,205.4957 c -1.271444,-0.73119 2.224831,-1.01668 3.336849,-1.52542 1.112019,-0.50873 3.241775,-1.46159 4.862263,-2.19278 1.620491,-0.7312 4.726953,0.6105 5.902529,1.81786 1.175578,1.20736 -0.473382,3.45848 -0.282969,4.37982 0.190412,0.92134 -4.191245,3.90068 -5.812265,4.66312 -1.62102,0.76244 -4.001925,-2.18473 -5.718282,-2.185 -1.716357,-2.6e-4 1.017209,-1.84294 1.525415,-2.76481 0.508209,-0.92188 -2.542095,-1.4616 -3.81354,-2.19279 z"
       inkscape:path-effect="#path-effect1854"
       sodipodi:nodetypes="sssssssss" />
    <path
       style="font-variation-settings:normal;opacity:0.99;vector-effect:none;fill:#000000;fill-opacity:1;fill-rule:evenodd;stroke:none;stroke-width:0.264567;stroke-linecap:butt;stroke-linejoin:round;stroke-miterlimit:4;stroke-dasharray:none;stroke-dashoffset:0;stroke-opacity:1;-inkscape-stroke:none;marker-start:none;marker-end:none;stop-color:#000000;stop-opacity:1"
       id="path1985"
       sodipodi:type="arc"
       sodipodi:cx="87.806694"
       sodipodi:cy="205.40224"
       sodipodi:rx="0.37842047"
       sodipodi:ry="0.37842047"
       sodipodi:start="3.2066062"
       sodipodi:end="3.1996772"
       sodipodi:open="true"
       sodipodi:arc-type="arc"
       d="m 87.429073,205.37765 a 0.37842047,0.37842047 0 0 1 0.401552,-0.35308 0.37842047,0.37842047 0 0 1 0.353773,0.40094 0.37842047,0.37842047 0 0 1 -0.400326,0.35447 0.37842047,0.37842047 0 0 1 -0.35516,-0.39971" />
    <text
       xml:space="preserve"
       style="font-size:5.64444px;line-height:1.25;font-family:sans-serif;letter-spacing:0px;word-spacing:0px;stroke-width:0.264583"
       x="87.659492"
       y="209.3308"
       id="text3530"><tspan
         sodipodi:role="line"
         id="tspan3528"
         style="stroke-width:0.264583"
         x="87.659492"
         y="209.3308">\(x_2\)</tspan></text>
    <path
       style="fill:none;stroke:#000000;stroke-width:0.264583px;stroke-linecap:butt;stroke-linejoin:miter;stroke-opacity:1"
       d="m 72.885809,183.57555 c 0.450016,-0.41986 1.03591,-0.66044 1.618837,-0.85791 0.582927,-0.19748 1.182989,-0.36329 1.718012,-0.66751 0.82659,-0.47001 1.440728,-1.23664 2.20789,-1.79844 0.383582,-0.28091 0.812467,-0.51248 1.278494,-0.6066 0.466028,-0.0941 0.973169,-0.0405 1.375879,0.21226 0.372844,0.23397 0.628865,0.6163 0.818253,1.01365 0.189388,0.39735 0.323244,0.81958 0.517606,1.21452 0.369882,0.7516 0.944787,1.37846 1.482835,2.0205 0.538047,0.64204 1.057459,1.33167 1.280864,2.13901 0.278287,1.00568 0.04663,2.13324 -0.584512,2.96419 -0.63114,0.83096 -1.642189,1.35393 -2.683812,1.41598 -1.132418,0.0675 -2.232881,-0.37816 -3.23085,-0.91758 -0.997969,-0.53943 -1.947547,-1.18415 -3.013265,-1.57295 -0.562291,-0.20514 -1.149956,-0.33618 -1.708224,-0.55203 -0.558268,-0.21585 -1.100281,-0.53055 -1.448559,-1.01733 -0.319081,-0.44597 -0.451532,-1.01766 -0.378293,-1.56111 0.07324,-0.54345 0.347893,-1.05456 0.748845,-1.42865 z"
       id="path1852-0"
       sodipodi:nodetypes="sssssssss"
       inkscape:original-d="m 72.885809,183.57555 c -1.271444,-0.73119 2.224831,-1.01668 3.336849,-1.52542 1.112019,-0.50873 3.241775,-1.46159 4.862263,-2.19278 1.620491,-0.7312 0.160283,1.02081 1.335859,2.22817 1.175578,1.20736 2.573286,3.23817 2.763699,4.15951 0.190412,0.92134 -1.647304,3.61773 -3.268324,4.38017 -1.62102,0.76244 -4.527758,-2.49026 -6.244115,-2.49053 -1.716357,-2.6e-4 -3.664989,-0.64749 -3.156783,-1.56936 0.508209,-0.92188 1.641997,-2.25857 0.370552,-2.98976 z"
       inkscape:path-effect="#path-effect3789" />
    <path
       style="font-variation-settings:normal;opacity:0.99;vector-effect:none;fill:#000000;fill-opacity:1;fill-rule:evenodd;stroke:none;stroke-width:0.264567;stroke-linecap:butt;stroke-linejoin:round;stroke-miterlimit:4;stroke-dasharray:none;stroke-dashoffset:0;stroke-opacity:1;-inkscape-stroke:none;marker-start:none;marker-end:none;stop-color:#000000;stop-opacity:1"
       id="path1985-5"
       sodipodi:type="arc"
       sodipodi:cx="75.643684"
       sodipodi:cy="185.28868"
       sodipodi:rx="0.37842047"
       sodipodi:ry="0.37842047"
       sodipodi:start="3.2066062"
       sodipodi:end="3.1996772"
       sodipodi:open="true"
       sodipodi:arc-type="arc"
       d="m 75.266063,185.2641 a 0.37842047,0.37842047 0 0 1 0.401552,-0.35308 0.37842047,0.37842047 0 0 1 0.353773,0.40094 0.37842047,0.37842047 0 0 1 -0.400326,0.35446 0.37842047,0.37842047 0 0 1 -0.35516,-0.39971" />
    <text
       xml:space="preserve"
       style="font-size:5.64444px;line-height:1.25;font-family:sans-serif;letter-spacing:0px;word-spacing:0px;stroke-width:0.264583"
       x="77.078613"
       y="188.27177"
       id="text3530-6"><tspan
         sodipodi:role="line"
         id="tspan3528-3"
         style="stroke-width:0.264583"
         x="77.078613"
         y="188.27177">\(x_1\)</tspan></text>
    <path
       style="fill:none;stroke:#000000;stroke-width:0.264583px;stroke-linecap:butt;stroke-linejoin:miter;stroke-opacity:1"
       d="m 160.88653,184.34515 c 0.34302,-0.702 0.74693,-1.38143 1.27604,-1.95633 0.52912,-0.57491 1.19109,-1.04321 1.94142,-1.26112 0.59821,-0.17373 1.23663,-0.18411 1.85154,-0.0845 0.6149,0.0996 1.20835,0.30663 1.77728,0.56032 1.13784,0.50737 2.18718,1.20247 3.34232,1.66914 0.6687,0.27015 1.36779,0.46158 2.03008,0.7471 0.66228,0.28553 1.30084,0.6795 1.72361,1.26381 0.42217,0.58348 0.59858,1.32895 0.53342,2.04619 -0.0652,0.71724 -0.36305,1.4043 -0.80154,1.97562 -0.68086,0.88711 -1.67514,1.4865 -2.71018,1.90984 -1.03504,0.42335 -2.12642,0.68941 -3.18848,1.03949 -1.02031,0.33631 -2.04964,0.75646 -3.12304,0.71242 -0.5367,-0.022 -1.07656,-0.16672 -1.51838,-0.47222 -0.44182,-0.3055 -0.77708,-0.78122 -0.85506,-1.31268 -0.0596,-0.40611 0.029,-0.81709 0.0708,-1.22542 0.0209,-0.20416 0.03,-0.4108 0.003,-0.61425 -0.027,-0.20346 -0.0914,-0.4045 -0.20796,-0.57342 -0.10941,-0.15857 -0.26153,-0.28436 -0.42769,-0.38184 -0.16616,-0.0975 -0.34668,-0.16799 -0.52879,-0.23082 -0.36423,-0.12566 -0.74749,-0.22694 -1.05443,-0.45983 -0.24207,-0.18367 -0.42303,-0.44219 -0.53203,-0.72584 -0.109,-0.28364 -0.14785,-0.59166 -0.13344,-0.89518 0.0288,-0.60705 0.26459,-1.18446 0.5314,-1.73049 z"
       id="path4792"
       sodipodi:nodetypes="ssssssssss"
       inkscape:original-d="m 160.88653,184.34515 c -0.045,-1.11743 2.14524,-2.1447 3.21746,-3.21745 1.07221,-1.07275 4.64769,1.43024 6.97114,2.14497 2.32345,0.71472 3.75395,0.17901 3.75369,2.01091 -2.7e-4,1.83189 -1.42971,3.84333 -0.26812,4.02181 1.16159,0.17848 -5.36215,1.74305 -5.89866,2.94933 -0.5365,1.20628 -2.23408,-0.49129 -5.49648,-1.07248 -3.2624,-0.5812 -1.51908,-1.07222 -0.13405,-2.41309 1.38502,-1.34087 0.0896,-1.25097 -2.01091,-1.07249 -2.10055,0.17849 -0.0891,-2.23407 -0.13407,-3.35151 z"
       inkscape:path-effect="#path-effect4794" />
    <path
       style="font-variation-settings:normal;opacity:0.99;vector-effect:none;fill:#000000;fill-opacity:1;fill-rule:evenodd;stroke:none;stroke-width:0.264567;stroke-linecap:butt;stroke-linejoin:round;stroke-miterlimit:4;stroke-dasharray:none;stroke-dashoffset:0;stroke-opacity:1;-inkscape-stroke:none;marker-start:none;marker-end:none;stop-color:#000000;stop-opacity:1"
       id="path1985-5-9"
       sodipodi:type="arc"
       sodipodi:cx="165.00444"
       sodipodi:cy="187.31038"
       sodipodi:rx="0.37842047"
       sodipodi:ry="0.37842047"
       sodipodi:start="3.2066062"
       sodipodi:end="3.1996772"
       sodipodi:open="true"
       sodipodi:arc-type="arc"
       d="m 164.62682,187.28579 a 0.37842047,0.37842047 0 0 1 0.40155,-0.35307 0.37842047,0.37842047 0 0 1 0.35377,0.40094 0.37842047,0.37842047 0 0 1 -0.40032,0.35446 0.37842047,0.37842047 0 0 1 -0.35516,-0.39971" />
    <text
       xml:space="preserve"
       style="font-size:5.64444px;line-height:1.25;font-family:sans-serif;letter-spacing:0px;word-spacing:0px;stroke-width:0.264583"
       x="166.73698"
       y="189.55548"
       id="text3530-6-7"><tspan
         sodipodi:role="line"
         id="tspan3528-3-5"
         style="stroke-width:0.264583"
         x="166.73698"
         y="189.55548">\(y\)</tspan></text>
    <text
       xml:space="preserve"
       style="font-size:5.64444px;line-height:1.25;font-family:sans-serif;letter-spacing:0px;word-spacing:0px;stroke-width:0.264583"
       x="123.22793"
       y="195.24028"
       id="text1872"><tspan
         sodipodi:role="line"
         id="tspan1870"
         style="stroke-width:0.264583"
         x="123.22793"
         y="195.24028">\(f\)</tspan></text>
    <text
       xml:space="preserve"
       style="font-size:5.64444px;line-height:1.25;font-family:sans-serif;letter-spacing:0px;word-spacing:0px;stroke-width:0.264583"
       x="175.90836"
       y="193.65176"
       id="text2158"><tspan
         sodipodi:role="line"
         id="tspan2156"
         style="stroke-width:0.264583"
         x="175.90836"
         y="193.65176">\(V\)</tspan></text>
    <text
       xml:space="preserve"
       style="font-size:5.64444px;line-height:1.25;font-family:sans-serif;letter-spacing:0px;word-spacing:0px;stroke-width:0.264583"
       x="86.763275"
       y="193.19527"
       id="text2158-2"><tspan
         sodipodi:role="line"
         id="tspan2156-3"
         style="stroke-width:0.264583"
         x="86.763275"
         y="193.19527">\(U_1\)</tspan></text>
    <text
       xml:space="preserve"
       style="font-size:5.64444px;line-height:1.25;font-family:sans-serif;letter-spacing:0px;word-spacing:0px;stroke-width:0.264583"
       x="76.862419"
       y="215.07899"
       id="text2158-2-4"><tspan
         sodipodi:role="line"
         id="tspan2156-3-8"
         style="stroke-width:0.264583"
         x="76.862419"
         y="215.07899">\(U_2\)</tspan></text>
  </g>
</svg>
