<?xml version="1.0" encoding="UTF-8" standalone="no"?>
<!-- Created with Inkscape (http://www.inkscape.org/) -->

<svg
   width="240mm"
   height="60mm"
   viewBox="0 0 240 60"
   version="1.1"
   id="svg8"
   inkscape:version="1.1.1 (c3084ef, 2021-09-22)"
   sodipodi:docname="def:relative-homology-2.svg"
   xmlns:inkscape="http://www.inkscape.org/namespaces/inkscape"
   xmlns:sodipodi="http://sodipodi.sourceforge.net/DTD/sodipodi-0.dtd"
   xmlns="http://www.w3.org/2000/svg"
   xmlns:svg="http://www.w3.org/2000/svg"
   xmlns:rdf="http://www.w3.org/1999/02/22-rdf-syntax-ns#"
   xmlns:cc="http://creativecommons.org/ns#"
   xmlns:dc="http://purl.org/dc/elements/1.1/">
  <defs
     id="defs2">
    <marker
       id="marker-arrow-1"
       orient="auto-start-reverse"
       refY="0"
       refX="0"
       markerHeight="3"
       markerWidth="2">
      <g
         transform="scale(1.3933333)"
         id="g7550"><path
   d="M -1.55415,2.0722 C -1.42464,1.29512 0,0.1295 0.38852,0 0,-0.1295 -1.42464,-1.29512 -1.55415,-2.0722"
   style="fill:none;stroke:#000000;stroke-linecap:round;stroke-linejoin:round;stroke-miterlimit:10;stroke-dasharray:none;stroke-opacity:1"
   id="path7548" />



0&quot; /&gt;
   </g>
    </marker>
    <inkscape:path-effect
       effect="spiro"
       id="path-effect7546"
       is_visible="true"
       lpeversion="1" />
    <inkscape:path-effect
       effect="spiro"
       id="path-effect2713"
       is_visible="true"
       lpeversion="1" />
    <inkscape:path-effect
       effect="spiro"
       id="path-effect2709"
       is_visible="true"
       lpeversion="1" />
    <inkscape:path-effect
       effect="spiro"
       id="path-effect2441"
       is_visible="true"
       lpeversion="1" />
    <inkscape:path-effect
       effect="spiro"
       id="path-effect2328"
       is_visible="true"
       lpeversion="1" />
  </defs>
  <sodipodi:namedview
     id="base"
     pagecolor="#ffffff"
     bordercolor="#666666"
     borderopacity="1.0"
     inkscape:pageopacity="0.0"
     inkscape:pageshadow="2"
     inkscape:zoom="1.3395232"
     inkscape:cx="409.10079"
     inkscape:cy="142.96132"
     inkscape:document-units="mm"
     inkscape:current-layer="layer1"
     showgrid="false"
     showborder="true"
     width="200mm"
     showguides="true"
     inkscape:guide-bbox="true"
     inkscape:window-width="1280"
     inkscape:window-height="680"
     inkscape:window-x="1728"
     inkscape:window-y="25"
     inkscape:window-maximized="0"
     inkscape:pagecheckerboard="0">
    <inkscape:grid
       type="xygrid"
       id="grid815"
       units="mm"
       spacingx="10"
       spacingy="10"
       empspacing="4"
       dotted="false" />
  </sodipodi:namedview>
  <metadata
     id="metadata5">
    <rdf:RDF>
      <cc:Work
         rdf:about="">
        <dc:format>image/svg+xml</dc:format>
        <dc:type
           rdf:resource="http://purl.org/dc/dcmitype/StillImage" />
      </cc:Work>
    </rdf:RDF>
  </metadata>
  <g
     inkscape:label="Layer 1"
     inkscape:groupmode="layer"
     id="layer1"
     transform="translate(0,-177)">
    <path
       style="font-variation-settings:normal;opacity:0.99;vector-effect:none;fill:none;fill-opacity:1;fill-rule:evenodd;stroke:#000000;stroke-width:0.264567;stroke-linecap:butt;stroke-linejoin:round;stroke-miterlimit:4;stroke-dasharray:none;stroke-dashoffset:0;stroke-opacity:1;-inkscape-stroke:none;stop-color:#000000;stop-opacity:1"
       id="path878"
       sodipodi:type="arc"
       sodipodi:cx="121.67723"
       sodipodi:cy="202.70999"
       sodipodi:rx="57.340309"
       sodipodi:ry="23.681149"
       sodipodi:start="6.1848709"
       sodipodi:end="6.1778721"
       sodipodi:open="true"
       sodipodi:arc-type="arc"
       d="m 178.74065,200.38554 a 57.340309,23.681149 0 0 1 -51.33528,25.88714 57.340309,23.681149 0 0 1 -62.771509,-21.15578 57.340309,23.681149 0 0 1 51.115619,-25.96118 57.340309,23.681149 0 0 1 62.95038,21.06494" />
    <path
       style="font-variation-settings:normal;opacity:0.99;vector-effect:none;fill:none;fill-opacity:1;fill-rule:evenodd;stroke:#d6630f;stroke-width:0.264583;stroke-linecap:butt;stroke-linejoin:round;stroke-miterlimit:4;stroke-dasharray:0.79375, 0.79375;stroke-dashoffset:0;stroke-opacity:1;-inkscape-stroke:none;marker-start:none;marker-end:none;stop-color:#000000;stop-opacity:1"
       id="path902"
       sodipodi:type="arc"
       sodipodi:cx="97.724358"
       sodipodi:cy="216.17239"
       sodipodi:rx="4.6233487"
       sodipodi:ry="7.7678499"
       sodipodi:start="1.6891425"
       sodipodi:end="4.7263778"
       sodipodi:open="true"
       sodipodi:arc-type="arc"
       d="m 97.178478,223.88591 a 4.6233487,7.7678499 0 0 1 -4.067352,-8.22712 4.6233487,7.7678499 0 0 1 4.677905,-7.25349" />
    <path
       style="font-variation-settings:normal;opacity:0.99;vector-effect:none;fill:none;fill-opacity:1;fill-rule:evenodd;stroke:#d6630f;stroke-width:0.264567;stroke-linecap:butt;stroke-linejoin:round;stroke-miterlimit:4;stroke-dasharray:none;stroke-dashoffset:0;stroke-opacity:1;-inkscape-stroke:none;stop-color:#000000;stop-opacity:1"
       id="path1366"
       sodipodi:type="arc"
       sodipodi:cx="97.724358"
       sodipodi:cy="216.17239"
       sodipodi:rx="4.6233487"
       sodipodi:ry="7.7678499"
       sodipodi:start="4.5656837"
       sodipodi:end="1.537532"
       sodipodi:open="true"
       sodipodi:arc-type="arc"
       d="m 97.048518,208.48799 a 4.6233487,7.7678499 0 0 1 4.404842,3.0924 4.6233487,7.7678499 0 0 1 0.429,7.98837 4.6233487,7.7678499 0 0 1 -4.004238,4.36719" />
    <text
       xml:space="preserve"
       style="font-size:5.64444px;line-height:1.25;font-family:sans-serif;letter-spacing:0px;word-spacing:0px;stroke-width:0.264583"
       x="119.94771"
       y="234.10747"
       id="text2131"><tspan
         sodipodi:role="line"
         id="tspan2129"
         style="stroke-width:0.264583"
         x="119.94771"
         y="234.10747">\(A\)</tspan></text>
    <text
       xml:space="preserve"
       style="font-size:5.64444px;line-height:1.25;font-family:sans-serif;letter-spacing:0px;word-spacing:0px;stroke-width:0.264583"
       x="66.247284"
       y="181.95148"
       id="text2131-7"><tspan
         sodipodi:role="line"
         id="tspan2129-4"
         style="stroke-width:0.264583"
         x="66.247284"
         y="181.95148">\(X\)</tspan></text>
    <path
       style="fill:none;stroke:#000000;stroke-width:0.264583px;stroke-linecap:butt;stroke-linejoin:miter;stroke-opacity:1"
       d="m 85.09118,201.3796 c 1.04817,2.04996 2.665586,3.80514 4.623228,5.01702 1.957642,1.21187 4.249881,1.87695 6.552145,1.90107 2.346608,0.0246 4.696557,-0.61739 6.704737,-1.83164 2.00818,-1.21424 3.66836,-2.997 4.73672,-5.08644"
       id="path2326"
       inkscape:path-effect="#path-effect2328"
       inkscape:original-d="m 85.09118,201.3796 c 2.483681,2.12891 8.692222,4.78972 11.175373,6.91809 2.483152,2.12838 7.007047,-5.14395 11.441457,-6.91808"
       sodipodi:nodetypes="csc" />
    <path
       style="fill:none;stroke:#000000;stroke-width:0.264583px;stroke-linecap:butt;stroke-linejoin:miter;stroke-opacity:1"
       d="m 89.179945,205.92375 c 1.641738,-2.38686 4.457092,-3.92305 7.352689,-4.01198 2.967672,-0.0911 5.941846,1.34466 7.716336,3.72512"
       id="path2439"
       inkscape:path-effect="#path-effect2441"
       inkscape:original-d="m 89.179945,205.92375 c 2.749762,-1.33014 4.603456,-2.68132 7.352689,-4.01198 2.749232,-1.33067 5.144486,2.48368 7.716336,3.72512"
       sodipodi:nodetypes="csc" />
    <path
       style="fill:none;stroke:#000000;stroke-width:0.264583px;stroke-linecap:butt;stroke-linejoin:miter;stroke-opacity:1"
       d="m 137.01022,199.61105 c 1.04817,2.04996 2.66558,3.80514 4.62323,5.01702 1.95764,1.21187 4.24988,1.87695 6.55214,1.90107 2.34661,0.0246 4.69656,-0.61739 6.70474,-1.83164 2.00817,-1.21424 3.66835,-2.997 4.73671,-5.08644"
       id="path2326-3"
       inkscape:path-effect="#path-effect2709"
       inkscape:original-d="m 137.01022,199.61105 c 2.48368,2.12891 8.69222,4.78972 11.17537,6.91809 2.48315,2.12838 7.00705,-5.14395 11.44145,-6.91808"
       sodipodi:nodetypes="csc" />
    <path
       style="fill:none;stroke:#000000;stroke-width:0.264583px;stroke-linecap:butt;stroke-linejoin:miter;stroke-opacity:1"
       d="m 141.09898,204.1552 c 1.64174,-2.38686 4.45709,-3.92305 7.35269,-4.01198 2.96767,-0.0911 5.94185,1.34466 7.71633,3.72512"
       id="path2439-8"
       inkscape:path-effect="#path-effect2713"
       inkscape:original-d="m 141.09898,204.1552 c 2.74977,-1.33014 4.60346,-2.68132 7.35269,-4.01198 2.74923,-1.33067 5.14449,2.48368 7.71633,3.72512"
       sodipodi:nodetypes="csc" />
    <text
       xml:space="preserve"
       style="font-size:5.64444px;line-height:1.25;font-family:sans-serif;letter-spacing:0px;word-spacing:0px;stroke-width:0.264583"
       x="144.21332"
       y="213.72795"
       id="text5801"><tspan
         sodipodi:role="line"
         id="tspan5799"
         style="stroke-width:0.264583"
         x="144.21332"
         y="213.72795" /></text>
    <text
       xml:space="preserve"
       style="font-size:5.64444px;line-height:1.25;font-family:sans-serif;letter-spacing:0px;word-spacing:0px;stroke-width:0.264583"
       x="171.87695"
       y="188.79933"
       id="text1008"><tspan
         sodipodi:role="line"
         id="tspan1006"
         style="stroke-width:0.264583"
         x="171.87695"
         y="188.79933">\(\beta\)</tspan></text>
    <path
       style="font-variation-settings:normal;opacity:0.99;vector-effect:none;fill:none;fill-opacity:1;fill-rule:evenodd;stroke:#e918ed;stroke-width:0.264583;stroke-linecap:butt;stroke-linejoin:round;stroke-miterlimit:4;stroke-dasharray:0.79375, 0.79375;stroke-dashoffset:0;stroke-opacity:1;-inkscape-stroke:none;marker-start:none;marker-end:none;stop-color:#000000;stop-opacity:1"
       id="path902-6"
       sodipodi:type="arc"
       sodipodi:cx="96.882439"
       sodipodi:cy="191.52048"
       sodipodi:rx="4.8966656"
       sodipodi:ry="10.214614"
       sodipodi:start="1.6891425"
       sodipodi:end="4.7263778"
       sodipodi:open="true"
       sodipodi:arc-type="arc"
       d="m 96.304289,201.66364 a 4.8966656,10.214614 0 0 1 -4.307801,-10.81855 4.8966656,10.214614 0 0 1 4.954447,-9.53823" />
    <path
       style="font-variation-settings:normal;opacity:0.99;vector-effect:none;fill:none;fill-opacity:1;fill-rule:evenodd;stroke:#e918ed;stroke-width:0.264567;stroke-linecap:butt;stroke-linejoin:round;stroke-miterlimit:4;stroke-dasharray:none;stroke-dashoffset:0;stroke-opacity:1;-inkscape-stroke:none;stop-color:#000000;stop-opacity:1"
       id="path1366-7"
       sodipodi:type="arc"
       sodipodi:cx="96.882439"
       sodipodi:cy="191.52048"
       sodipodi:rx="4.8966656"
       sodipodi:ry="10.214614"
       sodipodi:start="4.5656837"
       sodipodi:end="1.537532"
       sodipodi:open="true"
       sodipodi:arc-type="arc"
       d="m 96.166646,181.41559 a 4.8966656,10.214614 0 0 1 4.665234,4.06646 4.8966656,10.214614 0 0 1 0.45436,10.5046 4.8966656,10.214614 0 0 1 -4.240947,5.74279" />
    <path
       style="opacity:0.99;fill:#f47b28;fill-opacity:0.121569;stroke:none;stroke-width:0.19752;stroke-linejoin:round;stroke-dasharray:none;stroke-opacity:1;marker-start:none;marker-end:none"
       d="m 115.94454,226.04901 c -2.55668,-0.11447 -7.26289,-0.48847 -9.6785,-0.76914 -3.16365,-0.36759 -8.759917,-1.27368 -8.888417,-1.43912 -0.0543,-0.0699 -0.45088,-0.30492 -0.88123,-0.52219 -0.96743,-0.48842 -1.909475,-1.70089 -2.488873,-3.20332 -0.617098,-1.60019 -0.769934,-5.22801 -0.289829,-6.87952 0.488727,-1.68116 1.152142,-2.88205 2.030582,-3.67566 0.64531,-0.583 1.12465,-0.78284 2.92877,-1.22101 2.833707,-0.68823 4.627717,-1.58869 6.359317,-3.19188 1.30296,-1.20634 2.80984,-3.15774 2.80984,-3.63872 0,-0.48446 -0.37669,-0.13822 -1.26659,1.16419 -0.5177,0.75768 -1.23622,1.63657 -1.59671,1.95308 l -0.65543,0.57548 -0.9924,-0.93172 c -1.5578,-1.46253 -4.228797,-2.57941 -6.168617,-2.57941 -1.17459,0 -2.584551,-1.24181 -3.515803,-3.09649 -0.978802,-1.94939 -1.303877,-3.71349 -1.303877,-7.07582 0,-2.68755 0.06643,-3.39109 0.444066,-4.70283 0.683266,-2.37337 1.817852,-4.34642 2.802374,-4.87332 0.43321,-0.23185 6.430427,-1.27545 9.586467,-1.66818 13.62665,-1.69569 29.01416,-1.18087 41.57806,1.39108 19.11878,3.91379 31.34241,11.72771 31.94478,20.4206 0.13271,1.9151 -0.18566,3.3958 -1.14019,5.30289 -4.93937,9.86857 -24.55047,17.29912 -49.07523,18.59437 -3.41843,0.18054 -9.3005,0.2118 -12.54256,0.0666 z m 35.73808,-19.74043 c 2.78609,-0.70698 5.78879,-2.86647 7.35706,-5.29108 0.41493,-0.6415 0.75442,-1.24147 0.75442,-1.33326 0,-0.42477 -0.40103,-0.0736 -1.07467,0.94093 -0.40456,0.60931 -1.12626,1.49854 -1.60378,1.97606 l -0.86822,0.86821 -0.9081,-0.87011 c -1.68578,-1.61526 -4.32073,-2.68695 -6.60638,-2.68695 -2.40859,0 -5.02413,1.11666 -6.81851,2.91104 l -1.0645,1.0645 -1.26749,-1.2675 c -0.69713,-0.69712 -1.50954,-1.6805 -1.80536,-2.18529 -0.52434,-0.8947 -0.89537,-1.17162 -0.89537,-0.66825 0,0.42766 1.28768,2.17017 2.44295,3.30583 3.21421,3.15966 7.86213,4.37669 12.35795,3.23587 z"
       id="path2898" />
    <text
       xml:space="preserve"
       style="font-size:5.64444px;line-height:1.25;font-family:sans-serif;letter-spacing:0px;word-spacing:0px;stroke-width:0.264583"
       x="85.921425"
       y="217.49171"
       id="text3452"><tspan
         sodipodi:role="line"
         id="tspan3450"
         style="stroke-width:0.264583"
         x="85.921425"
         y="217.49171">\(\alpha\)</tspan></text>
    <text
       xml:space="preserve"
       style="font-size:5.64444px;line-height:1.25;font-family:sans-serif;letter-spacing:0px;word-spacing:0px;stroke-width:0.264583"
       x="85.921425"
       y="195.26671"
       id="text3616"><tspan
         sodipodi:role="line"
         id="tspan3614"
         style="stroke-width:0.264583"
         x="85.921425"
         y="195.26671">\(A\)</tspan></text>
    <text
       xml:space="preserve"
       style="font-size:5.64444px;line-height:1.25;font-family:sans-serif;letter-spacing:0px;word-spacing:0px;stroke-width:0.264583"
       x="77.625565"
       y="230.93773"
       id="text3942"><tspan
         sodipodi:role="line"
         id="tspan3940"
         style="stroke-width:0.264583"
         x="77.625565"
         y="230.93773">\(1\)-cycle</tspan></text>
  </g>
</svg>
