<?xml version="1.0" encoding="UTF-8" standalone="no"?>
<!-- Created with Inkscape (http://www.inkscape.org/) -->

<svg
   width="240mm"
   height="55mm"
   viewBox="0 0 240 55"
   version="1.1"
   id="svg8"
   inkscape:version="1.1.1 (c3084ef, 2021-09-22)"
   sodipodi:docname="def:relative-homology-2.svg"
   xmlns:inkscape="http://www.inkscape.org/namespaces/inkscape"
   xmlns:sodipodi="http://sodipodi.sourceforge.net/DTD/sodipodi-0.dtd"
   xmlns="http://www.w3.org/2000/svg"
   xmlns:svg="http://www.w3.org/2000/svg"
   xmlns:rdf="http://www.w3.org/1999/02/22-rdf-syntax-ns#"
   xmlns:cc="http://creativecommons.org/ns#"
   xmlns:dc="http://purl.org/dc/elements/1.1/">
  <defs
     id="defs2">
    <marker
       id="marker-arrow-1"
       orient="auto-start-reverse"
       refY="0"
       refX="0"
       markerHeight="3"
       markerWidth="2">
      <g
         transform="scale(1.3933333)"
         id="g7550"><path
   d="M -1.55415,2.0722 C -1.42464,1.29512 0,0.1295 0.38852,0 0,-0.1295 -1.42464,-1.29512 -1.55415,-2.0722"
   style="fill:none;stroke:#000000;stroke-linecap:round;stroke-linejoin:round;stroke-miterlimit:10;stroke-dasharray:none;stroke-opacity:1"
   id="path7548" />




0&quot; /&gt;
   </g>
    </marker>
    <inkscape:path-effect
       effect="spiro"
       id="path-effect7546"
       is_visible="true"
       lpeversion="1" />
    <inkscape:path-effect
       effect="spiro"
       id="path-effect2713"
       is_visible="true"
       lpeversion="1" />
    <inkscape:path-effect
       effect="spiro"
       id="path-effect2709"
       is_visible="true"
       lpeversion="1" />
    <inkscape:path-effect
       effect="spiro"
       id="path-effect2441"
       is_visible="true"
       lpeversion="1" />
    <inkscape:path-effect
       effect="spiro"
       id="path-effect2328"
       is_visible="true"
       lpeversion="1" />
    <inkscape:path-effect
       effect="spiro"
       id="path-effect858"
       is_visible="true"
       lpeversion="1" />
  </defs>
  <sodipodi:namedview
     id="base"
     pagecolor="#ffffff"
     bordercolor="#666666"
     borderopacity="1.0"
     inkscape:pageopacity="0.0"
     inkscape:pageshadow="2"
     inkscape:zoom="0.85563484"
     inkscape:cx="298.02433"
     inkscape:cy="71.876456"
     inkscape:document-units="mm"
     inkscape:current-layer="layer1"
     showgrid="false"
     showborder="true"
     width="200mm"
     showguides="true"
     inkscape:guide-bbox="true"
     inkscape:window-width="912"
     inkscape:window-height="512"
     inkscape:window-x="0"
     inkscape:window-y="38"
     inkscape:window-maximized="0"
     inkscape:pagecheckerboard="0">
    <inkscape:grid
       type="xygrid"
       id="grid815"
       units="mm"
       spacingx="10"
       spacingy="10"
       empspacing="4"
       dotted="false" />
  </sodipodi:namedview>
  <metadata
     id="metadata5">
    <rdf:RDF>
      <cc:Work
         rdf:about="">
        <dc:format>image/svg+xml</dc:format>
        <dc:type
           rdf:resource="http://purl.org/dc/dcmitype/StillImage" />
      </cc:Work>
    </rdf:RDF>
  </metadata>
  <g
     inkscape:label="Layer 1"
     inkscape:groupmode="layer"
     id="layer1"
     transform="translate(0,-177)">
    <path
       style="font-variation-settings:normal;opacity:0.99;fill:none;fill-opacity:1;fill-rule:evenodd;stroke:#d6630f;stroke-width:0.264583;stroke-linecap:butt;stroke-linejoin:round;stroke-miterlimit:4;stroke-dasharray:0.793749, 0.793749;stroke-dashoffset:0;stroke-opacity:1;marker-start:none;marker-end:none;stop-color:#000000;stop-opacity:1"
       id="path902"
       sodipodi:type="arc"
       sodipodi:cx="97.724358"
       sodipodi:cy="216.17239"
       sodipodi:rx="4.6233487"
       sodipodi:ry="7.7678499"
       sodipodi:start="1.6891425"
       sodipodi:end="4.7263778"
       sodipodi:open="true"
       sodipodi:arc-type="arc"
       d="m 97.178478,223.88591 a 4.6233487,7.7678499 0 0 1 -4.067352,-8.22712 4.6233487,7.7678499 0 0 1 4.677905,-7.25349" />
    <path
       style="font-variation-settings:normal;opacity:0.99;vector-effect:none;fill:none;fill-opacity:1;fill-rule:evenodd;stroke:#d6630f;stroke-width:0.264567;stroke-linecap:butt;stroke-linejoin:round;stroke-miterlimit:4;stroke-dasharray:none;stroke-dashoffset:0;stroke-opacity:1;-inkscape-stroke:none;stop-color:#000000;stop-opacity:1"
       id="path1366"
       sodipodi:type="arc"
       sodipodi:cx="97.724358"
       sodipodi:cy="216.17239"
       sodipodi:rx="4.6233487"
       sodipodi:ry="7.7678499"
       sodipodi:start="4.5656837"
       sodipodi:end="1.537532"
       sodipodi:open="true"
       sodipodi:arc-type="arc"
       d="m 97.048518,208.48799 a 4.6233487,7.7678499 0 0 1 4.404842,3.0924 4.6233487,7.7678499 0 0 1 0.429,7.98837 4.6233487,7.7678499 0 0 1 -4.004238,4.36719" />
    <text
       xml:space="preserve"
       style="font-size:5.64444px;line-height:1.25;font-family:sans-serif;letter-spacing:0px;word-spacing:0px;stroke-width:0.264583"
       x="66.247284"
       y="181.95148"
       id="text2131-7"><tspan
         sodipodi:role="line"
         id="tspan2129-4"
         style="stroke-width:0.264583"
         x="66.247284"
         y="181.95148">\(X\)</tspan></text>
    <path
       style="fill:none;stroke:#000000;stroke-width:0.264583px;stroke-linecap:butt;stroke-linejoin:miter;stroke-opacity:1"
       d="m 85.09118,201.3796 c 1.04817,2.04996 2.665586,3.80514 4.623228,5.01702 1.957642,1.21187 4.249881,1.87695 6.552145,1.90107 2.346608,0.0246 4.696557,-0.61739 6.704737,-1.83164 2.00818,-1.21424 3.66836,-2.997 4.73672,-5.08644"
       id="path2326"
       inkscape:path-effect="#path-effect2328"
       inkscape:original-d="m 85.09118,201.3796 c 2.483681,2.12891 8.692222,4.78972 11.175373,6.91809 2.483152,2.12838 7.007047,-5.14395 11.441457,-6.91808"
       sodipodi:nodetypes="csc" />
    <path
       style="fill:none;stroke:#000000;stroke-width:0.264583px;stroke-linecap:butt;stroke-linejoin:miter;stroke-opacity:1"
       d="m 89.179945,205.92375 c 1.641738,-2.38686 4.457092,-3.92305 7.352689,-4.01198 2.967672,-0.0911 5.941846,1.34466 7.716336,3.72512"
       id="path2439"
       inkscape:path-effect="#path-effect2441"
       inkscape:original-d="m 89.179945,205.92375 c 2.749762,-1.33014 4.603456,-2.68132 7.352689,-4.01198 2.749232,-1.33067 5.144486,2.48368 7.716336,3.72512"
       sodipodi:nodetypes="csc" />
    <path
       style="fill:none;stroke:#000000;stroke-width:0.264583px;stroke-linecap:butt;stroke-linejoin:miter;stroke-opacity:1"
       d="m 150.92533,204.55864 c 1.04817,2.04996 2.66558,3.80514 4.62323,5.01702 1.95764,1.21187 4.24988,1.87695 6.55214,1.90107 2.34661,0.0246 4.69656,-0.61739 6.70474,-1.83164 2.00817,-1.21424 3.66835,-2.997 4.73671,-5.08644"
       id="path2326-3"
       inkscape:path-effect="#path-effect2709"
       inkscape:original-d="m 150.92533,204.55864 c 2.48368,2.12891 8.69222,4.78972 11.17537,6.91809 2.48315,2.12838 7.00705,-5.14395 11.44145,-6.91808"
       sodipodi:nodetypes="csc" />
    <path
       style="fill:none;stroke:#000000;stroke-width:0.264583px;stroke-linecap:butt;stroke-linejoin:miter;stroke-opacity:1"
       d="m 155.01409,209.10279 c 1.64174,-2.38686 4.45709,-3.92305 7.35269,-4.01198 2.96767,-0.0911 5.94185,1.34466 7.71633,3.72512"
       id="path2439-8"
       inkscape:path-effect="#path-effect2713"
       inkscape:original-d="m 155.01409,209.10279 c 2.74977,-1.33014 4.60346,-2.68132 7.35269,-4.01198 2.74923,-1.33067 5.14449,2.48368 7.71633,3.72512"
       sodipodi:nodetypes="csc" />
    <text
       xml:space="preserve"
       style="font-size:5.64444px;line-height:1.25;font-family:sans-serif;letter-spacing:0px;word-spacing:0px;stroke-width:0.264583"
       x="144.21332"
       y="213.72795"
       id="text5801"><tspan
         sodipodi:role="line"
         id="tspan5799"
         style="stroke-width:0.264583"
         x="144.21332"
         y="213.72795" /></text>
    <text
       xml:space="preserve"
       style="font-size:5.64444px;line-height:1.25;font-family:sans-serif;letter-spacing:0px;word-spacing:0px;stroke-width:0.264583"
       x="185.48283"
       y="191.27313"
       id="text1008"><tspan
         sodipodi:role="line"
         id="tspan1006"
         style="stroke-width:0.264583"
         x="185.48283"
         y="191.27313">\(\beta\)</tspan></text>
    <path
       style="font-variation-settings:normal;opacity:0.99;fill:none;fill-opacity:1;fill-rule:evenodd;stroke:#e918ed;stroke-width:0.264583;stroke-linecap:butt;stroke-linejoin:round;stroke-miterlimit:4;stroke-dasharray:0.793749, 0.793749;stroke-dashoffset:0;stroke-opacity:1;marker-start:none;marker-end:none;stop-color:#000000;stop-opacity:1"
       id="path902-6"
       sodipodi:type="arc"
       sodipodi:cx="96.882439"
       sodipodi:cy="191.52048"
       sodipodi:rx="4.8966656"
       sodipodi:ry="10.214614"
       sodipodi:start="1.6891425"
       sodipodi:end="4.7263778"
       sodipodi:open="true"
       sodipodi:arc-type="arc"
       d="m 96.304289,201.66364 a 4.8966656,10.214614 0 0 1 -4.307801,-10.81855 4.8966656,10.214614 0 0 1 4.954447,-9.53823" />
    <path
       style="font-variation-settings:normal;opacity:0.99;vector-effect:none;fill:none;fill-opacity:1;fill-rule:evenodd;stroke:#e918ed;stroke-width:0.264567;stroke-linecap:butt;stroke-linejoin:round;stroke-miterlimit:4;stroke-dasharray:none;stroke-dashoffset:0;stroke-opacity:1;-inkscape-stroke:none;stop-color:#000000;stop-opacity:1"
       id="path1366-7"
       sodipodi:type="arc"
       sodipodi:cx="96.882439"
       sodipodi:cy="191.52048"
       sodipodi:rx="4.8966656"
       sodipodi:ry="10.214614"
       sodipodi:start="4.5656837"
       sodipodi:end="1.537532"
       sodipodi:open="true"
       sodipodi:arc-type="arc"
       d="m 96.166646,181.41559 a 4.8966656,10.214614 0 0 1 4.665234,4.06646 4.8966656,10.214614 0 0 1 0.45436,10.5046 4.8966656,10.214614 0 0 1 -4.240947,5.74279" />
    <text
       xml:space="preserve"
       style="font-size:5.64444px;line-height:1.25;font-family:sans-serif;letter-spacing:0px;word-spacing:0px;stroke-width:0.264583"
       x="85.921425"
       y="217.49171"
       id="text3452"><tspan
         sodipodi:role="line"
         id="tspan3450"
         style="stroke-width:0.264583"
         x="85.921425"
         y="217.49171">\(\alpha\)</tspan></text>
    <text
       xml:space="preserve"
       style="font-size:5.64444px;line-height:1.25;font-family:sans-serif;letter-spacing:0px;word-spacing:0px;stroke-width:0.264583"
       x="85.921425"
       y="195.26671"
       id="text3616"><tspan
         sodipodi:role="line"
         id="tspan3614"
         style="stroke-width:0.264583"
         x="85.921425"
         y="195.26671">\(A\)</tspan></text>
    <path
       style="fill:none;fill-opacity:1;stroke:#000000;stroke-width:0.303821;stroke-linecap:butt;stroke-linejoin:miter;stroke-dasharray:none;stroke-opacity:1;marker-start:none;marker-end:none"
       d="m 79.684148,187.53555 c -3.089752,2.30984 -5.794932,5.16144 -7.781635,8.46824 -1.986704,3.3068 -3.241947,7.07497 -3.451912,10.92696 -0.209964,3.85199 0.64693,7.78152 2.599794,11.10842 1.952863,3.32689 5.017976,6.02103 8.633753,7.36568 4.542644,1.68934 9.630265,1.19929 14.297642,-0.10648 4.667377,-1.30578 9.08051,-3.38573 13.68608,-4.89511 9.96557,-3.26601 21.05774,-3.74381 30.85383,0 6.50482,2.48598 12.29685,6.73981 19.01458,8.57417 5.36979,1.46629 11.21138,1.27686 16.40325,-0.73039 5.19188,-2.00724 9.68728,-5.85529 12.29135,-10.77499 2.60407,-4.9197 3.24869,-10.88322 1.56218,-16.18796 -1.6865,-5.30475 -5.73243,-9.8524 -10.88346,-11.96225 -2.92486,-1.19802 -6.12721,-1.61867 -9.2871,-1.54696 -3.15989,0.0717 -6.29035,0.62293 -9.37555,1.30968 -6.17038,1.37349 -12.33113,3.30788 -18.64896,3.09533 -6.4586,-0.21728 -12.6111,-2.66555 -18.56014,-5.18937 -5.94903,-2.52382 -11.96801,-5.19001 -18.39271,-5.88561 -8.090201,-0.87593 -16.443446,1.55825 -22.960992,6.43064 z"
       id="path856"
       inkscape:path-effect="#path-effect858"
       inkscape:original-d="m 79.684148,187.53555 c -7.653903,2.14331 2.39e-4,25.24645 0,37.8693 -2.4e-4,12.62287 18.656048,-3.33417 27.983722,-5.00159 9.32766,-1.66745 20.56947,2.2e-4 30.85383,0 10.28436,-2.6e-4 12.67662,5.71636 19.01458,8.57417 6.33795,2.85781 12.91579,-26.43682 19.37332,-39.65559 6.45755,-13.21876 -24.87416,1.90561 -37.31161,2.85805 -12.43743,0.95246 -24.63499,-7.38307 -36.95285,-11.07498 -12.317851,-3.69189 -15.307086,4.28734 -22.960992,6.43064 z" />
    <path
       style="opacity:0.99;fill:#f47b28;fill-opacity:0.121569;stroke:none;stroke-width:0.309224;stroke-linejoin:round;stroke-miterlimit:4;stroke-dasharray:0.927671, 0.927671;stroke-dashoffset:0;stroke-opacity:1;marker-start:none;marker-end:none;stop-color:#000000"
       d="m 161.14238,229.37135 c -3.41542,-0.43844 -7.30395,-1.91268 -14.56993,-5.52383 -10.40758,-5.17249 -14.46821,-6.27475 -23.03723,-6.25348 -7.53388,0.0187 -12.88466,1.18361 -22.49169,4.89665 -3.322877,1.28426 -3.560477,1.33274 -4.401137,0.89802 -1.91134,-0.98839 -3.101955,-3.71355 -3.101955,-7.09994 0,-4.24253 1.412085,-6.88747 4.057615,-7.60019 3.520277,-0.94839 4.559407,-1.34651 6.029757,-2.31015 1.5286,-1.00183 3.35865,-2.96627 4.10696,-4.40854 0.62911,-1.21255 -0.19841,-0.76985 -1.15605,0.61844 -0.4986,0.72282 -1.18756,1.56709 -1.53103,1.87617 -0.60879,0.54784 -0.66124,0.53392 -2.08627,-0.55384 -1.81258,-1.38357 -3.120777,-1.9413 -5.187127,-2.21143 -2.04564,-0.26742 -3.528806,-1.66459 -4.554498,-4.29041 -0.625277,-1.60073 -0.726046,-2.407 -0.734309,-5.87526 -0.0083,-3.49701 0.0839,-4.25451 0.708999,-5.82331 0.896527,-2.24998 2.205888,-3.76877 3.663938,-4.24997 1.34533,-0.444 5.444577,-0.21287 8.968677,0.50568 3.42472,0.69829 6.93102,1.91995 14.23065,4.95824 10.48848,4.36556 14.60002,5.46499 20.48482,5.47766 3.89234,0.008 6.53808,-0.38059 13.29666,-1.95488 7.78183,-1.81264 10.36501,-2.22992 14.06972,-2.27278 4.14051,-0.0479 5.59425,0.21417 5.81224,1.04779 0.18645,0.71298 0.83609,0.82719 0.83609,0.14699 0,-0.6626 0.53833,-0.57288 0.92767,0.15462 0.34936,0.65278 1.11352,0.83396 1.28959,0.30574 0.16366,-0.49095 3.87015,1.84844 5.67761,3.58349 2.21754,2.1287 4.00573,4.99021 4.99409,7.99167 1.0346,3.1419 1.15862,8.0958 0.28314,11.31094 -1.88022,6.90504 -7.78255,13.07657 -14.81288,15.48844 -2.4244,0.83173 -6.7269,1.5627 -8.71014,1.47979 -0.51468,-0.0215 -1.89347,-0.16205 -3.06398,-0.31232 z m 4.23723,-18.04595 c 2.41805,-0.62982 4.05112,-1.51004 5.7502,-3.09933 1.45718,-1.36302 3.10061,-3.85969 2.54063,-3.85969 -0.16937,0 -0.61781,0.45224 -0.99652,1.00498 -0.37871,0.55273 -1.10618,1.45199 -1.61658,1.99835 l -0.92802,0.99336 -0.95557,-0.95545 c -1.6092,-1.60898 -3.91236,-2.49151 -6.50219,-2.49151 -2.75586,0 -4.70408,0.77511 -6.59103,2.62225 l -1.31477,1.28705 -1.53093,-1.63063 c -0.842,-0.89685 -1.61645,-1.90014 -1.72099,-2.22952 -0.20076,-0.63253 -0.76686,-0.83042 -0.76686,-0.26807 0,0.53988 1.76104,2.93632 2.80052,3.81099 3.40336,2.86374 7.71351,3.88998 11.83211,2.81722 z"
       id="path1813" />
    <text
       xml:space="preserve"
       style="font-size:5.64444px;line-height:1.25;font-family:sans-serif;letter-spacing:0px;word-spacing:0px;stroke-width:0.264583"
       x="105.13636"
       y="194.62581"
       id="text9111"><tspan
         sodipodi:role="line"
         id="tspan9109"
         style="stroke-width:0.264583"
         x="105.13636"
         y="194.62581"></tspan></text>
  </g>
</svg>
