<?xml version="1.0" encoding="UTF-8" standalone="no"?>
<!-- Created with Inkscape (http://www.inkscape.org/) -->

<svg
   width="240mm"
   height="60mm"
   viewBox="0 0 240 60"
   version="1.1"
   id="svg8"
   inkscape:version="1.1.1 (c3084ef, 2021-09-22)"
   sodipodi:docname="def:relative-homology-1.svg"
   xmlns:inkscape="http://www.inkscape.org/namespaces/inkscape"
   xmlns:sodipodi="http://sodipodi.sourceforge.net/DTD/sodipodi-0.dtd"
   xmlns="http://www.w3.org/2000/svg"
   xmlns:svg="http://www.w3.org/2000/svg"
   xmlns:rdf="http://www.w3.org/1999/02/22-rdf-syntax-ns#"
   xmlns:cc="http://creativecommons.org/ns#"
   xmlns:dc="http://purl.org/dc/elements/1.1/">
  <defs
     id="defs2">
    <inkscape:path-effect
       effect="spiro"
       id="path-effect7546"
       is_visible="true"
       lpeversion="1" />
    <inkscape:path-effect
       effect="spiro"
       id="path-effect2713"
       is_visible="true"
       lpeversion="1" />
    <inkscape:path-effect
       effect="spiro"
       id="path-effect2709"
       is_visible="true"
       lpeversion="1" />
    <inkscape:path-effect
       effect="spiro"
       id="path-effect2441"
       is_visible="true"
       lpeversion="1" />
    <inkscape:path-effect
       effect="spiro"
       id="path-effect2328"
       is_visible="true"
       lpeversion="1" />
    <marker
       id="marker-arrow-1"
       orient="auto-start-reverse"
       refY="0"
       refX="0"
       markerHeight="3"
       markerWidth="2">
      <g
         transform="scale(1.3933333)"
         id="g7550"><path
   d="M -1.55415,2.0722 C -1.42464,1.29512 0,0.1295 0.38852,0 0,-0.1295 -1.42464,-1.29512 -1.55415,-2.0722"
   style="fill:none;stroke:#000000;stroke-linecap:round;stroke-linejoin:round;stroke-miterlimit:10;stroke-dasharray:none;stroke-opacity:1"
   id="path7548" />
0&quot; /&gt;
   </g>
    </marker>
  </defs>
  <sodipodi:namedview
     id="base"
     pagecolor="#ffffff"
     bordercolor="#666666"
     borderopacity="1.0"
     inkscape:pageopacity="0.0"
     inkscape:pageshadow="2"
     inkscape:zoom="0.62192018"
     inkscape:cx="282.99451"
     inkscape:cy="224.30531"
     inkscape:document-units="mm"
     inkscape:current-layer="layer1"
     showgrid="false"
     showborder="true"
     width="200mm"
     showguides="true"
     inkscape:guide-bbox="true"
     inkscape:window-width="1280"
     inkscape:window-height="680"
     inkscape:window-x="1728"
     inkscape:window-y="25"
     inkscape:window-maximized="0"
     inkscape:pagecheckerboard="0">
    <inkscape:grid
       type="xygrid"
       id="grid815"
       units="mm"
       spacingx="10"
       spacingy="10"
       empspacing="4"
       dotted="false" />
  </sodipodi:namedview>
  <metadata
     id="metadata5">
    <rdf:RDF>
      <cc:Work
         rdf:about="">
        <dc:format>image/svg+xml</dc:format>
        <dc:type
           rdf:resource="http://purl.org/dc/dcmitype/StillImage" />
      </cc:Work>
    </rdf:RDF>
  </metadata>
  <g
     inkscape:label="Layer 1"
     inkscape:groupmode="layer"
     id="layer1"
     transform="translate(0,-177)">
    <path
       style="font-variation-settings:normal;opacity:0.99;vector-effect:none;fill:none;fill-opacity:1;fill-rule:evenodd;stroke:#000000;stroke-width:0.264567;stroke-linecap:butt;stroke-linejoin:round;stroke-miterlimit:4;stroke-dasharray:none;stroke-dashoffset:0;stroke-opacity:1;-inkscape-stroke:none;stop-color:#000000;stop-opacity:1"
       id="path878"
       sodipodi:type="arc"
       sodipodi:cx="119.53555"
       sodipodi:cy="202.46237"
       sodipodi:rx="57.340309"
       sodipodi:ry="23.681149"
       sodipodi:start="6.1848709"
       sodipodi:end="6.1778721"
       sodipodi:open="true"
       sodipodi:arc-type="arc"
       d="M 176.59897,200.13792 A 57.340309,23.681149 0 0 1 125.26369,226.02506 57.340309,23.681149 0 0 1 62.492183,204.86928 57.340309,23.681149 0 0 1 113.6078,178.9081 57.340309,23.681149 0 0 1 176.55818,199.97304" />
    <path
       style="font-variation-settings:normal;opacity:0.99;vector-effect:none;fill:none;fill-opacity:1;fill-rule:evenodd;stroke:#d6630f;stroke-width:0.264583;stroke-linecap:butt;stroke-linejoin:round;stroke-miterlimit:4;stroke-dasharray:0.79375, 0.79375;stroke-dashoffset:0;stroke-opacity:1;-inkscape-stroke:none;marker-start:none;marker-end:none;stop-color:#000000;stop-opacity:1"
       id="path902"
       sodipodi:type="arc"
       sodipodi:cx="120.06771"
       sodipodi:cy="202.46239"
       sodipodi:rx="7.5832891"
       sodipodi:ry="23.678156"
       sodipodi:start="1.6891425"
       sodipodi:end="4.7263778"
       sodipodi:open="true"
       sodipodi:arc-type="arc"
       d="m 119.17235,225.97492 a 7.5832891,23.678156 0 0 1 -6.67133,-25.07811 7.5832891,23.678156 0 0 1 7.67277,-22.11026" />
    <path
       style="font-variation-settings:normal;opacity:0.99;vector-effect:none;fill:none;fill-opacity:1;fill-rule:evenodd;stroke:#d6630f;stroke-width:0.264567;stroke-linecap:butt;stroke-linejoin:round;stroke-miterlimit:4;stroke-dasharray:none;stroke-dashoffset:0;stroke-opacity:1;-inkscape-stroke:none;stop-color:#000000;stop-opacity:1"
       id="path1366"
       sodipodi:type="arc"
       sodipodi:cx="120.06771"
       sodipodi:cy="202.46239"
       sodipodi:rx="7.5832891"
       sodipodi:ry="23.678156"
       sodipodi:start="4.5656837"
       sodipodi:end="1.537532"
       sodipodi:open="true"
       sodipodi:arc-type="arc"
       d="m 118.95919,179.03858 a 7.5832891,23.678156 0 0 1 7.22488,9.42634 7.5832891,23.678156 0 0 1 0.70366,24.35036 7.5832891,23.678156 0 0 1 -6.56781,13.31216" />
    <text
       xml:space="preserve"
       style="font-size:5.64444px;line-height:1.25;font-family:sans-serif;letter-spacing:0px;word-spacing:0px;stroke-width:0.264583"
       x="117.80603"
       y="233.85985"
       id="text2131"><tspan
         sodipodi:role="line"
         id="tspan2129"
         style="stroke-width:0.264583"
         x="117.80603"
         y="233.85985">\(A\)</tspan></text>
    <text
       xml:space="preserve"
       style="font-size:5.64444px;line-height:1.25;font-family:sans-serif;letter-spacing:0px;word-spacing:0px;stroke-width:0.264583"
       x="64.105606"
       y="181.70386"
       id="text2131-7"><tspan
         sodipodi:role="line"
         id="tspan2129-4"
         style="stroke-width:0.264583"
         x="64.105606"
         y="181.70386">\(X\)</tspan></text>
    <path
       style="fill:none;stroke:#000000;stroke-width:0.264583px;stroke-linecap:butt;stroke-linejoin:miter;stroke-opacity:1"
       d="m 82.949505,201.13197 c 1.04817,2.04996 2.665586,3.80514 4.623228,5.01702 1.957642,1.21187 4.249881,1.87695 6.552145,1.90107 2.346608,0.0246 4.696559,-0.61739 6.704732,-1.83164 2.00818,-1.21424 3.66836,-2.997 4.73672,-5.08644"
       id="path2326"
       inkscape:path-effect="#path-effect2328"
       inkscape:original-d="m 82.949505,201.13197 c 2.483681,2.12891 8.692222,4.78972 11.175373,6.91809 2.483152,2.12838 7.007042,-5.14395 11.441452,-6.91808"
       sodipodi:nodetypes="csc" />
    <path
       style="fill:none;stroke:#000000;stroke-width:0.264583px;stroke-linecap:butt;stroke-linejoin:miter;stroke-opacity:1"
       d="m 87.03827,205.67612 c 1.641738,-2.38686 4.457092,-3.92305 7.352689,-4.01198 2.96767,-0.0911 5.941841,1.34466 7.716331,3.72512"
       id="path2439"
       inkscape:path-effect="#path-effect2441"
       inkscape:original-d="m 87.03827,205.67612 c 2.749762,-1.33014 4.603456,-2.68132 7.352689,-4.01198 2.749232,-1.33067 5.144484,2.48368 7.716331,3.72512"
       sodipodi:nodetypes="csc" />
    <path
       style="fill:none;stroke:#000000;stroke-width:0.264583px;stroke-linecap:butt;stroke-linejoin:miter;stroke-opacity:1"
       d="m 134.86854,199.36342 c 1.04817,2.04996 2.66558,3.80514 4.62323,5.01702 1.95764,1.21187 4.24988,1.87695 6.55214,1.90107 2.34661,0.0246 4.69656,-0.61739 6.70474,-1.83164 2.00817,-1.21424 3.66835,-2.997 4.73671,-5.08644"
       id="path2326-3"
       inkscape:path-effect="#path-effect2709"
       inkscape:original-d="m 134.86854,199.36342 c 2.48368,2.12891 8.69222,4.78972 11.17537,6.91809 2.48315,2.12838 7.00705,-5.14395 11.44145,-6.91808"
       sodipodi:nodetypes="csc" />
    <path
       style="fill:none;stroke:#000000;stroke-width:0.264583px;stroke-linecap:butt;stroke-linejoin:miter;stroke-opacity:1"
       d="m 138.9573,203.90757 c 1.64174,-2.38686 4.45709,-3.92305 7.35269,-4.01198 2.96767,-0.0911 5.94185,1.34466 7.71633,3.72512"
       id="path2439-8"
       inkscape:path-effect="#path-effect2713"
       inkscape:original-d="m 138.9573,203.90757 c 2.74977,-1.33014 4.60346,-2.68132 7.35269,-4.01198 2.74923,-1.33067 5.14449,2.48368 7.71633,3.72512"
       sodipodi:nodetypes="csc" />
    <path
       style="opacity:0.99;fill:#f47b28;fill-opacity:0.12;stroke:none;stroke-width:0.264583;stroke-linejoin:round;stroke-dasharray:none;stroke-opacity:1;marker-start:none;marker-end:none"
       d="m 118.74834,225.51407 c -4.79631,-3.24672 -7.37208,-19.38903 -5.28936,-33.1483 1.03509,-6.83813 3.30273,-12.11366 5.62681,-13.09039 1.48612,-0.62458 12.29878,-2.7e-4 19.85008,1.14588 12.27597,1.86347 22.32865,5.24057 29.26871,9.83254 2.32261,1.53678 5.67689,4.77871 6.63501,6.41276 1.57699,2.68951 2.10915,5.16537 1.62109,7.54201 -2.41795,11.77431 -24.78741,20.83229 -53.47349,21.65281 -3.57011,0.10212 -3.57557,0.10168 -4.23885,-0.34731 z m 31.10967,-19.55327 c 1.90893,-0.58444 3.61021,-1.55351 5.02195,-2.86056 1.71482,-1.58766 3.25164,-3.90778 2.58847,-3.90778 -0.0912,0 -0.39445,0.39185 -0.6738,0.87077 -0.27936,0.47892 -0.99982,1.38464 -1.60105,2.01271 l -1.09313,1.14195 -1.07518,-0.99543 c -1.13062,-1.04675 -2.81846,-1.9649 -4.19531,-2.28216 -1.23428,-0.28442 -3.64612,-0.23663 -4.77373,0.0946 -1.58598,0.46585 -3.10641,1.36491 -4.26757,2.5235 l -1.07682,1.07444 -1.18351,-1.1661 c -0.65093,-0.64135 -1.47842,-1.64043 -1.83888,-2.22017 -0.36046,-0.57975 -0.72614,-1.05409 -0.81264,-1.05409 -0.65353,0 0.89384,2.33081 2.5898,3.90101 1.79658,1.66335 3.67091,2.61516 6.23554,3.16648 1.61591,0.34738 4.5023,0.20711 6.15586,-0.29915 z"
       id="path2954" />
    <text
       xml:space="preserve"
       style="font-size:5.64444px;line-height:1.25;font-family:sans-serif;letter-spacing:0px;word-spacing:0px;stroke-width:0.264583"
       x="142.07164"
       y="213.48033"
       id="text5801"><tspan
         sodipodi:role="line"
         id="tspan5799"
         style="stroke-width:0.264583"
         x="142.07164"
         y="213.48033" /></text>
    <path
       style="fill:none;fill-opacity:1;stroke:#000000;stroke-width:0.264583;stroke-linecap:butt;stroke-linejoin:miter;stroke-dasharray:none;stroke-opacity:1;marker-start:none;marker-end:url(#marker-arrow-1)"
       d="m 167.99182,196.62601 10.44914,-6.0495"
       id="path7544"
       inkscape:path-effect="#path-effect7546"
       inkscape:original-d="m 167.99182,196.62601 c 3.48331,-2.01624 6.96636,-4.03274 10.44914,-6.0495" />
    <text
       xml:space="preserve"
       style="font-size:5.64444px;line-height:1.25;font-family:sans-serif;letter-spacing:0px;word-spacing:0px;stroke-width:0.264583"
       x="182.47395"
       y="186.72682"
       id="text8023"><tspan
         sodipodi:role="line"
         id="tspan8021"
         style="stroke-width:0.264583"
         x="182.47395"
         y="186.72682">\hyperref[ref:relative-cycle]{relative \(2\)-cycle}</tspan></text>
  </g>
</svg>
