<?xml version="1.0" encoding="UTF-8" standalone="no"?>
<!-- Created with Inkscape (http://www.inkscape.org/) -->

<svg
   width="240mm"
   height="40mm"
   viewBox="0 0 240 40"
   version="1.1"
   id="svg8"
   inkscape:version="1.1.1 (c3084ef, 2021-09-22)"
   sodipodi:docname="def:homotopy-of-paths.svg"
   xmlns:inkscape="http://www.inkscape.org/namespaces/inkscape"
   xmlns:sodipodi="http://sodipodi.sourceforge.net/DTD/sodipodi-0.dtd"
   xmlns="http://www.w3.org/2000/svg"
   xmlns:svg="http://www.w3.org/2000/svg"
   xmlns:rdf="http://www.w3.org/1999/02/22-rdf-syntax-ns#"
   xmlns:cc="http://creativecommons.org/ns#"
   xmlns:dc="http://purl.org/dc/elements/1.1/">
  <defs
     id="defs2">
    <inkscape:path-effect
       effect="spiro"
       id="path-effect12159"
       is_visible="true"
       lpeversion="1" />
    <inkscape:path-effect
       effect="spiro"
       id="path-effect12155"
       is_visible="true"
       lpeversion="1" />
    <inkscape:path-effect
       effect="spiro"
       id="path-effect11892"
       is_visible="true"
       lpeversion="1" />
    <inkscape:path-effect
       effect="spiro"
       id="path-effect1072"
       is_visible="true"
       lpeversion="1" />
    <inkscape:path-effect
       effect="spiro"
       id="path-effect1068"
       is_visible="true"
       lpeversion="1" />
  </defs>
  <sodipodi:namedview
     id="base"
     pagecolor="#ffffff"
     bordercolor="#666666"
     borderopacity="1.0"
     inkscape:pageopacity="0.0"
     inkscape:pageshadow="2"
     inkscape:zoom="2.4737052"
     inkscape:cx="413.54968"
     inkscape:cy="94.594941"
     inkscape:document-units="mm"
     inkscape:current-layer="layer1"
     showgrid="false"
     showborder="true"
     width="200mm"
     showguides="true"
     inkscape:guide-bbox="true"
     inkscape:window-width="985"
     inkscape:window-height="512"
     inkscape:window-x="0"
     inkscape:window-y="38"
     inkscape:window-maximized="0"
     inkscape:pagecheckerboard="0">
    <inkscape:grid
       type="xygrid"
       id="grid815"
       units="mm"
       spacingx="10"
       spacingy="10"
       empspacing="4"
       dotted="false" />
  </sodipodi:namedview>
  <metadata
     id="metadata5">
    <rdf:RDF>
      <cc:Work
         rdf:about="">
        <dc:format>image/svg+xml</dc:format>
        <dc:type
           rdf:resource="http://purl.org/dc/dcmitype/StillImage" />
      </cc:Work>
    </rdf:RDF>
  </metadata>
  <g
     inkscape:label="Layer 1"
     inkscape:groupmode="layer"
     id="layer1"
     transform="translate(0,-177)">
    <path
       style="font-variation-settings:normal;opacity:0.99;fill:#000000;fill-opacity:1;fill-rule:evenodd;stroke:#000000;stroke-width:0.265;stroke-linecap:butt;stroke-linejoin:round;stroke-miterlimit:4;stroke-dasharray:none;stroke-dashoffset:0;stroke-opacity:1;stop-color:#000000;stop-opacity:1"
       id="path845"
       sodipodi:type="arc"
       sodipodi:cx="67.747383"
       sodipodi:cy="196.11455"
       sodipodi:rx="1.1973615"
       sodipodi:ry="1.1973615"
       sodipodi:start="6.1848709"
       sodipodi:end="6.1778721"
       sodipodi:open="true"
       sodipodi:arc-type="arc"
       d="m 68.938963,195.99702 a 1.1973615,1.1973615 0 0 1 -1.071967,1.3089 1.1973615,1.1973615 0 0 1 -1.310774,-1.06967 1.1973615,1.1973615 0 0 1 1.06738,-1.31265 1.1973615,1.1973615 0 0 1 1.314509,1.06508" />
    <path
       style="font-variation-settings:normal;opacity:0.99;fill:#000000;fill-opacity:1;fill-rule:evenodd;stroke:#000000;stroke-width:0.265;stroke-linecap:butt;stroke-linejoin:round;stroke-miterlimit:4;stroke-dasharray:none;stroke-dashoffset:0;stroke-opacity:1;stop-color:#000000;stop-opacity:1"
       id="path951"
       sodipodi:type="arc"
       sodipodi:cx="157.70573"
       sodipodi:cy="196.11455"
       sodipodi:rx="1.1973615"
       sodipodi:ry="1.1973615"
       sodipodi:start="6.1848709"
       sodipodi:end="6.1778721"
       sodipodi:open="true"
       sodipodi:arc-type="arc"
       d="m 158.89731,195.99702 a 1.1973615,1.1973615 0 0 1 -1.07196,1.3089 1.1973615,1.1973615 0 0 1 -1.31078,-1.06967 1.1973615,1.1973615 0 0 1 1.06738,-1.31265 1.1973615,1.1973615 0 0 1 1.31451,1.06508" />
    <text
       xml:space="preserve"
       style="font-size:5.64444px;line-height:1.25;font-family:sans-serif;letter-spacing:0px;word-spacing:0px;stroke-width:0.264583"
       x="22.410629"
       y="197.57799"
       id="text1296"><tspan
         sodipodi:role="line"
         id="tspan1294"
         style="stroke-width:0.264583"
         x="22.410629"
         y="197.57799">\(\gamma_0(0)=\gamma_1(0)\)</tspan></text>
    <text
       xml:space="preserve"
       style="font-size:5.64444px;line-height:1.25;font-family:sans-serif;letter-spacing:0px;word-spacing:0px;stroke-width:0.264583"
       x="113.11408"
       y="183.20966"
       id="text3217"><tspan
         sodipodi:role="line"
         id="tspan3215"
         style="stroke-width:0.264583"
         x="113.11408"
         y="183.20966">\(\gamma_t\)</tspan></text>
    <text
       xml:space="preserve"
       style="font-size:5.64444px;line-height:1.25;font-family:sans-serif;letter-spacing:0px;word-spacing:0px;stroke-width:0.264583"
       x="165.28563"
       y="197.57799"
       id="text8271"><tspan
         sodipodi:role="line"
         id="tspan8269"
         style="stroke-width:0.264583"
         x="165.28563"
         y="197.57799">\(\gamma_0(1)=\gamma_1(1)\)</tspan></text>
    <path
       style="fill:none;stroke:#000000;stroke-width:0.264583px;stroke-linecap:butt;stroke-linejoin:miter;stroke-opacity:1"
       d="m 68.938962,195.99702 c 0.136405,-0.79392 0.376359,-1.57 0.711867,-2.30236 1.080673,-2.35895 3.12874,-4.18661 5.446666,-5.35267 2.317926,-1.16606 4.899787,-1.71732 7.478229,-2.00734 2.976971,-0.33485 5.979967,-0.33604 8.975622,-0.35903 2.595025,-0.0199 5.240067,-0.0496 7.719036,0.71805 1.461218,0.45248 2.826598,1.17203 4.128788,1.97464 1.39426,0.85935 2.75001,1.8295 4.3083,2.33366 1.04141,0.33693 2.13995,0.45378 3.23122,0.53854 3.42726,0.26618 6.92726,0.22764 10.23221,-0.71805 1.96623,-0.56262 3.82688,-1.43551 5.73098,-2.18186 1.9041,-0.74634 3.89248,-1.374 5.93733,-1.40839 0.41882,-0.007 0.83785,0.0109 1.25659,0 0.23943,-0.006 0.47954,-0.0219 0.71805,0 0.49848,0.0457 0.97196,0.2552 1.38318,0.54064 0.41122,0.28544 0.76518,0.64527 1.09877,1.0185 0.66717,0.74644 1.29217,1.57888 2.18537,2.03111 0.73137,0.3703 1.59038,0.44766 2.39768,0.30521 0.8073,-0.14246 1.56664,-0.49449 2.25461,-0.94029 1.37593,-0.89158 2.47604,-2.14712 3.78479,-3.13468 0.59333,-0.44772 1.2394,-0.84421 1.95514,-1.04473 0.71573,-0.20053 1.51119,-0.18994 2.17365,0.14716 0.54279,0.2762 0.96197,0.75 1.28962,1.26338 0.32765,0.51338 0.57545,1.07277 0.86453,1.60882 0.48988,0.90839 1.09954,1.75074 1.79512,2.51318 0.22823,0.25017 0.46589,0.49202 0.71805,0.71805 0.30388,0.27239 0.63096,0.52407 0.88454,0.84382 0.12678,0.15988 0.23436,0.33656 0.3032,0.52864 0.0688,0.19209 0.098,0.40021 0.0688,0.60217 -0.0294,0.20357 -0.11678,0.39764 -0.12497,0.60316 -0.004,0.10275 0.0128,0.20842 0.0638,0.29772 0.0255,0.0446 0.0594,0.0847 0.10043,0.11568 0.0411,0.0309 0.0894,0.0526 0.14021,0.0605 0.0592,0.009 0.11958,-3e-5 0.17951,0 0.1679,9e-5 0.33418,0.0779 0.4418,0.20681 0.10761,0.12888 0.15454,0.30637 0.12469,0.4716"
       id="path11890"
       inkscape:original-d="m 68.938962,195.99702 c -0.530595,-0.38 0.521914,-1.92246 0.711867,-2.30236 2.185238,-4.37048 8.395356,-6.6394 12.924895,-7.36001 3.006575,-0.47832 5.950038,-0.35903 8.975622,-0.35903 3.289869,0 4.833313,-0.39184 7.719036,0.71805 1.423878,0.54765 2.771698,1.27775 4.128788,1.97464 0.27448,0.14095 3.60519,2.13277 4.3083,2.33366 1.04992,0.29998 2.14306,0.44786 3.23122,0.53854 3.2025,0.26687 7.14251,0.12459 10.23221,-0.71805 3.86551,-1.05423 7.64624,-3.08749 11.66831,-3.59025 0.41563,-0.052 0.83772,0 1.25659,0 0.23935,0 0.50882,-0.11624 0.71805,0 1.81482,1.00823 1.69074,4.18556 4.66732,3.59025 3.14342,-0.62869 5.58978,-2.40801 8.43708,-3.76976 1.16945,-0.5593 2.7854,-1.40134 4.12879,-0.89757 1.41442,0.53041 1.42734,1.73007 2.15415,2.8722 0.5527,0.86854 1.15201,1.70929 1.79512,2.51318 0.21146,0.26432 0.56667,0.41529 0.71805,0.71805 0.31205,0.6241 0.98165,1.28727 1.25659,1.97463 0.11228,0.28072 0.0459,0.80992 0.17951,1.07708 0.0268,0.0535 0.13525,-0.0403 0.17951,0 0.21796,0.19821 0.37766,0.45227 0.56649,0.67841"
       inkscape:path-effect="#path-effect11892" />
    <path
       style="fill:none;stroke:#000000;stroke-width:0.264583px;stroke-linecap:butt;stroke-linejoin:miter;stroke-opacity:1"
       d="m 68.938962,195.99702 c 2.686503,-1.25503 5.933107,-1.24323 8.610415,0.0313 2.491997,1.18631 4.401096,3.34098 6.821471,4.66732 2.025997,1.11022 4.340086,1.59858 6.64196,1.79513 3.133327,0.26755 6.324849,0.0137 9.334652,-0.89757 2.11986,-0.64182 4.13764,-1.60327 6.28293,-2.15414 2.68628,-0.68978 5.49007,-0.71643 8.25757,-0.89757 1.25675,-0.0823 2.52578,-0.19666 3.76977,0 1.51495,0.2395 2.92051,0.9295 4.24796,1.69783 1.32744,0.76834 2.609,1.62636 4.00961,2.25145 1.42285,0.63501 2.94787,1.01926 4.48781,1.25658 2.61757,0.40339 5.31113,0.38587 7.89855,-0.17951 2.68513,-0.58673 5.22158,-1.75429 7.53952,-3.23122 1.10994,-0.70723 2.18606,-1.49264 3.41073,-1.97464 1.64244,-0.64643 3.50174,-0.72622 5.02636,-1.61561 0.23196,-0.13531 0.45844,-0.29031 0.71804,-0.35903 0.34885,-0.0923 0.71673,-0.0192 1.07708,0 0.62813,0.0335 1.26453,-0.10265 1.82392,-0.39032"
       id="path12153"
       inkscape:path-effect="#path-effect12155"
       inkscape:original-d="m 68.938962,195.99702 c 2.83873,0.32335 5.778061,-0.30192 8.610415,0.0313 3.02446,0.35582 4.412255,3.25014 6.821471,4.66732 1.867816,1.09872 4.512601,1.63133 6.64196,1.79513 3.095164,0.23809 6.348055,-0.0443 9.334652,-0.89757 2.12215,-0.60633 4.1492,-1.57222 6.28293,-2.15414 2.75472,-0.75129 5.41903,-0.89757 8.25757,-0.89757 1.25659,0 2.54735,-0.29105 3.76977,0 2.56214,0.61004 5.67047,2.91444 8.25757,3.94928 0.57809,0.23124 4.32416,1.23141 4.48781,1.25658 1.52255,0.23424 6.38982,0.13481 7.89855,-0.17951 2.65487,-0.5531 5.20309,-1.89612 7.53952,-3.23122 1.12993,-0.64568 2.22088,-1.43379 3.41073,-1.97464 1.61523,-0.73419 3.33643,-1.13278 5.02636,-1.61561 0.2573,-0.0735 0.45408,-0.31503 0.71804,-0.35903 0.34932,-0.0582 0.72776,0.0582 1.07708,0 0.61328,-0.10221 1.21318,-0.2739 1.82392,-0.39032" />
    <path
       style="fill:none;stroke:#000000;stroke-width:0.264583px;stroke-linecap:butt;stroke-linejoin:miter;stroke-opacity:1"
       d="m 68.938962,195.99702 c 0.344723,1.5083 0.887293,2.97127 1.609429,4.3396 1.656865,3.13949 4.238122,5.73307 7.180498,7.71903 1.113796,0.75176 2.297386,1.4288 3.590247,1.79513 1.450046,0.41086 2.981763,0.41612 4.487812,0.35902 1.755212,-0.0666 3.522534,-0.21644 5.20586,-0.71805 2.236279,-0.66638 4.239254,-1.92549 6.282936,-3.05171 1.706623,-0.94048 3.476656,-1.80247 5.367756,-2.27234 1.8911,-0.46987 3.924,-0.5289 5.76202,0.11819 2.46624,0.86826 4.33841,2.89191 6.64196,4.12879 2.54174,1.36478 5.48561,1.71361 8.25757,2.51317 1.3825,0.39877 2.7315,0.91323 4.12879,1.25659 3.73384,0.91752 7.75185,0.56125 11.30928,-0.89756 3.98363,-1.63358 7.32079,-4.57069 10.05269,-7.89855 0.86182,-1.04982 1.67743,-2.14944 2.69269,-3.05171 0.9696,-0.86169 2.09824,-1.52252 3.23123,-2.15415 1.36765,-0.76245 2.75407,-1.49122 4.15758,-2.18545"
       id="path12157"
       inkscape:path-effect="#path-effect12159"
       inkscape:original-d="m 68.938962,195.99702 c 0.536474,1.44653 0.922652,2.95808 1.609429,4.3396 1.668536,3.35643 4.115641,5.72687 7.180498,7.71903 1.662144,1.0804 1.587582,1.27269 3.590247,1.79513 1.866485,0.4869 2.553528,0.35902 4.487812,0.35902 2.421734,0 2.835191,0.21585 5.20586,-0.71805 2.166257,-0.85337 4.133749,-2.15622 6.282936,-3.05171 2.666688,-1.11112 8.085306,-3.24146 11.129776,-2.15415 8.10234,2.35093 4.5502,3.18232 6.64196,4.12879 2.63377,1.15886 5.51613,1.67882 8.25757,2.51317 1.32967,0.40469 2.85555,0.69071 4.12879,1.25659 2.12185,1.03113 9.17423,-0.14055 11.30928,-0.89756 3.98977,-1.51991 7.19716,-4.83904 10.05269,-7.89855 0.82721,-0.88629 1.76235,-2.25428 2.69269,-3.05171 1.00954,-0.86532 2.12167,-1.46068 3.23123,-2.15415 1.37027,-0.85642 2.58384,-1.74123 4.15758,-2.18545"
       sodipodi:nodetypes="cssssssccsccsssc" />
  </g>
</svg>
