<?xml version="1.0" encoding="UTF-8" standalone="no"?>
<!-- Created with Inkscape (http://www.inkscape.org/) -->

<svg
   width="240mm"
   height="80mm"
   viewBox="0 0 240 80"
   version="1.1"
   id="svg8"
   inkscape:version="1.1.1 (c3084ef, 2021-09-22)"
   sodipodi:docname="def:homotopy.svg"
   xmlns:inkscape="http://www.inkscape.org/namespaces/inkscape"
   xmlns:sodipodi="http://sodipodi.sourceforge.net/DTD/sodipodi-0.dtd"
   xmlns="http://www.w3.org/2000/svg"
   xmlns:svg="http://www.w3.org/2000/svg"
   xmlns:rdf="http://www.w3.org/1999/02/22-rdf-syntax-ns#"
   xmlns:cc="http://creativecommons.org/ns#"
   xmlns:dc="http://purl.org/dc/elements/1.1/">
  <defs
     id="defs2">
    <inkscape:path-effect
       effect="bspline"
       id="path-effect6106"
       is_visible="true"
       lpeversion="1"
       weight="33.333333"
       steps="2"
       helper_size="0"
       apply_no_weight="true"
       apply_with_weight="true"
       only_selected="false" />
    <inkscape:path-effect
       effect="bspline"
       id="path-effect5928"
       is_visible="true"
       lpeversion="1"
       weight="33.333333"
       steps="2"
       helper_size="0"
       apply_no_weight="true"
       apply_with_weight="true"
       only_selected="false" />
    <inkscape:path-effect
       effect="bspline"
       id="path-effect5811"
       is_visible="true"
       lpeversion="1"
       weight="33.333333"
       steps="2"
       helper_size="0"
       apply_no_weight="true"
       apply_with_weight="true"
       only_selected="false" />
    <inkscape:path-effect
       effect="bspline"
       id="path-effect5546"
       is_visible="true"
       lpeversion="1"
       weight="33.333333"
       steps="2"
       helper_size="0"
       apply_no_weight="true"
       apply_with_weight="true"
       only_selected="false" />
    <inkscape:path-effect
       effect="bspline"
       id="path-effect1348"
       is_visible="true"
       lpeversion="1"
       weight="33.333333"
       steps="2"
       helper_size="0"
       apply_no_weight="true"
       apply_with_weight="true"
       only_selected="false" />
    <inkscape:path-effect
       effect="bspline"
       id="path-effect1335"
       is_visible="true"
       lpeversion="1"
       weight="33.333333"
       steps="2"
       helper_size="0"
       apply_no_weight="true"
       apply_with_weight="true"
       only_selected="false" />
    <inkscape:path-effect
       effect="bspline"
       id="path-effect1322"
       is_visible="true"
       lpeversion="1"
       weight="33.333333"
       steps="2"
       helper_size="0"
       apply_no_weight="true"
       apply_with_weight="true"
       only_selected="false" />
    <inkscape:path-effect
       effect="bspline"
       id="path-effect1309"
       is_visible="true"
       lpeversion="1"
       weight="33.333333"
       steps="2"
       helper_size="0"
       apply_no_weight="true"
       apply_with_weight="true"
       only_selected="false" />
    <inkscape:path-effect
       effect="bspline"
       id="path-effect1296"
       is_visible="true"
       lpeversion="1"
       weight="33.333333"
       steps="2"
       helper_size="0"
       apply_no_weight="true"
       apply_with_weight="true"
       only_selected="false" />
    <inkscape:path-effect
       effect="bspline"
       id="path-effect1149"
       is_visible="true"
       lpeversion="1"
       weight="33.333333"
       steps="2"
       helper_size="0"
       apply_no_weight="true"
       apply_with_weight="true"
       only_selected="false" />
    <inkscape:path-effect
       effect="bspline"
       id="path-effect1109"
       is_visible="true"
       lpeversion="1"
       weight="33.333333"
       steps="2"
       helper_size="0"
       apply_no_weight="true"
       apply_with_weight="true"
       only_selected="false" />
  </defs>
  <sodipodi:namedview
     id="base"
     pagecolor="#ffffff"
     bordercolor="#666666"
     borderopacity="1.0"
     inkscape:pageopacity="0.0"
     inkscape:pageshadow="2"
     inkscape:zoom="1.5482315"
     inkscape:cx="334.89824"
     inkscape:cy="149.20249"
     inkscape:document-units="mm"
     inkscape:current-layer="layer1"
     showgrid="false"
     showborder="true"
     width="200mm"
     showguides="true"
     inkscape:guide-bbox="true"
     inkscape:window-width="1280"
     inkscape:window-height="680"
     inkscape:window-x="1728"
     inkscape:window-y="25"
     inkscape:window-maximized="0"
     inkscape:pagecheckerboard="0"
     height="80mm">
    <inkscape:grid
       type="xygrid"
       id="grid815"
       units="mm"
       spacingx="10"
       spacingy="10"
       empspacing="4"
       dotted="false" />
  </sodipodi:namedview>
  <metadata
     id="metadata5">
    <rdf:RDF>
      <cc:Work
         rdf:about="">
        <dc:format>image/svg+xml</dc:format>
        <dc:type
           rdf:resource="http://purl.org/dc/dcmitype/StillImage" />
      </cc:Work>
    </rdf:RDF>
  </metadata>
  <g
     inkscape:label="Layer 1"
     inkscape:groupmode="layer"
     id="layer1"
     transform="translate(0,-177)">
    <path
       style="fill:none;stroke:black;stroke-width:0.70220417;stroke-linecap:butt;stroke-linejoin:miter;stroke-opacity:1;stroke-dasharray:none;fill-opacity:1;marker-start:none;marker-end:none"
       d="M 73.732255,196.94413 49.111302,239.58887"
       id="path924" />
    <path
       style="fill:none;stroke:black;stroke-width:0.70220417;stroke-linecap:butt;stroke-linejoin:miter;stroke-opacity:1;stroke-dasharray:none;fill-opacity:1;marker-start:none;marker-end:none"
       d="m 182.96675,196.94413 -24.62096,42.64474"
       id="path924-9" />
    <path
       style="fill:none;stroke:#000000;stroke-width:0.264583px;stroke-linecap:butt;stroke-linejoin:miter;stroke-opacity:1"
       d="M 49.111302,239.58887 Z"
       id="path926" />
    <path
       style="fill:none;stroke:black;stroke-width:0.70220417;stroke-linecap:butt;stroke-linejoin:miter;stroke-opacity:1;stroke-dasharray:none;fill-opacity:1;marker-start:none;marker-end:none"
       d="M 49.111302,239.58887 H 158.3458"
       id="path928" />
    <path
       style="fill:none;stroke:black;stroke-width:0.70220417;stroke-linecap:butt;stroke-linejoin:miter;stroke-opacity:1;stroke-dasharray:none;fill-opacity:1;marker-start:none;marker-end:none"
       d="M 73.732255,196.94413 H 182.96675"
       id="path928-9" />
    <path
       style="fill:none;stroke:#ff0000;stroke-width:0.70220417;stroke-linecap:butt;stroke-linejoin:miter;stroke-opacity:1;stroke-dasharray:none;fill-opacity:1;marker-start:none;marker-end:none"
       d="m 92.239956,205.08853 c 3.243619,-1.04633 6.485611,-2.09213 8.551584,-2.61477 2.06598,-0.52264 2.95491,-0.52264 3.81795,-0.28645 0.86303,0.23619 1.69968,0.7068 2.66653,1.72708 0.96686,1.02029 2.06495,2.58899 2.79701,3.6348 0.73207,1.0458 1.0981,1.5687 2.32725,1.88101 1.22915,0.3123 3.32076,0.41688 6.11733,-0.52466 2.79657,-0.94154 6.30002,-2.92857 8.46991,-4.20963 2.16989,-1.28106 3.00653,-1.85624 4.49764,-2.30068 1.4911,-0.44444 3.63499,-0.75818 5.38703,-0.33849 1.75204,0.41969 3.11158,1.57007 3.97418,2.35463 0.86259,0.78455 1.22863,1.20287 1.77804,1.54192 0.54941,0.33905 1.28147,0.6005 2.87541,0.23363 1.59394,-0.36687 4.05158,-1.36039 6.50786,-2.35335"
       id="path1107"
       inkscape:path-effect="#path-effect1109"
       inkscape:original-d="m 92.239956,205.08853 c 3.244641,-1.04316 6.486634,-2.08896 9.725984,-3.13741 0.89158,0.003 1.78051,0.003 2.6668,0 0.83929,0.47325 1.67593,0.94387 2.50993,1.41183 1.10074,1.57136 2.19883,3.14006 3.29428,4.70612 0.36868,0.52555 0.73471,1.04845 1.0981,1.56871 2.09425,0.10723 4.18586,0.21181 6.27482,0.31374 3.50609,-1.98438 7.00954,-3.97141 10.51034,-5.96109 0.83929,-0.57254 1.67593,-1.14773 2.50993,-1.72557 2.14655,-0.3111 4.29044,-0.62484 6.4317,-0.94123 1.36219,1.15304 2.72173,2.30342 4.07863,3.45116 0.36868,0.42097 0.73471,0.83929 1.0981,1.25496 0.73471,0.2641 1.46677,0.52555 2.19619,0.78436 2.46029,-0.99087 4.91793,-1.98439 7.37292,-2.98054" />
    <path
       style="fill:none;stroke:black;stroke-width:0.70220417;stroke-linecap:butt;stroke-linejoin:miter;stroke-miterlimit:4;stroke-dasharray:0.70220417,0.70220417;stroke-dashoffset:0;stroke-opacity:1;fill-opacity:1;marker-start:none;marker-end:none"
       d="m 88.960201,208.7264 c 3.269716,-1.05474 6.537792,-2.10896 8.620392,-2.6358 2.0826,-0.52685 2.978677,-0.52685 3.848657,-0.28876 0.86999,0.23809 1.71336,0.71248 2.688,1.74098 0.97463,1.0285 2.08155,2.60982 2.81951,3.66404 0.73795,1.05422 1.10693,1.58133 2.34597,1.89614 1.23904,0.31482 3.34748,0.42024 6.16655,-0.52888 2.81907,-0.94911 6.3507,-2.95213 8.53806,-4.24349 2.18735,-1.29137 3.03072,-1.87119 4.53382,-2.3192 1.50309,-0.44801 3.66423,-0.76428 5.43037,-0.34121 1.76615,0.42307 3.13662,1.5827 4.00616,2.37357 0.86954,0.79087 1.23851,1.21256 1.79234,1.55433 0.55383,0.34178 1.29178,0.60534 2.89855,0.23551 1.60677,-0.36982 4.08418,-1.37133 6.56022,-2.37228"
       id="path1107-70"
       inkscape:path-effect="#path-effect1335"
       inkscape:original-d="m 88.960201,208.7264 c 3.270746,-1.05155 6.538824,-2.10576 9.804239,-3.16265 0.898753,0.003 1.79483,0.003 2.68825,0 0.84605,0.47706 1.68942,0.95146 2.53013,1.42319 1.1096,1.584 2.21652,3.16532 3.32078,4.74398 0.37165,0.52978 0.74063,1.05689 1.10694,1.58134 2.1111,0.10809 4.21954,0.21351 6.3253,0.31626 3.5343,-2.00035 7.06594,-4.00336 10.59491,-6.00905 0.84604,-0.57715 1.68941,-1.15697 2.53012,-1.73946 2.16382,-0.3136 4.32496,-0.62986 6.48345,-0.9488 1.37315,1.16232 2.74363,2.32195 4.11145,3.47893 0.37164,0.42436 0.74062,0.84604 1.10693,1.26506 0.74062,0.26622 1.47857,0.52977 2.21386,0.79067 2.48009,-0.99885 4.9575,-2.00036 7.43224,-3.00452" />
    <text
       xml:space="preserve"
       style="font-size:5.64444px;line-height:1.25;font-family:sans-serif;letter-spacing:0px;word-spacing:0px;stroke-width:0.264583"
       x="153.38145"
       y="205.53976"
       id="text1987"><tspan
         sodipodi:role="line"
         id="tspan1985"
         style="stroke-width:0.264583"
         x="153.38145"
         y="205.53976">\(f\)</tspan></text>
    <text
       xml:space="preserve"
       style="font-size:5.64444px;line-height:1.25;font-family:sans-serif;letter-spacing:0px;word-spacing:0px;stroke-width:0.264583"
       x="143.45679"
       y="235.6747"
       id="text2893"><tspan
         sodipodi:role="line"
         id="tspan2891"
         style="stroke-width:0.264583"
         x="143.45679"
         y="235.6747">\(g\)</tspan></text>
    <text
       xml:space="preserve"
       style="font-size:5.64444px;line-height:1.25;font-family:sans-serif;letter-spacing:0px;word-spacing:0px;stroke-width:0.264583"
       x="72.75901"
       y="219.6183"
       id="text5055"><tspan
         sodipodi:role="line"
         id="tspan5053"
         style="stroke-width:0.264583"
         x="72.75901"
         y="219.6183">\(F_t\)</tspan></text>
    <path
       style="fill:none;stroke:#ff0000;stroke-width:0.70220417;stroke-linecap:butt;stroke-linejoin:miter;stroke-opacity:1;stroke-dasharray:none;fill-opacity:1;marker-start:none;marker-end:none"
       d="m 82.951153,232.61678 c 1.374669,-0.0687 2.746831,-0.13735 6.005936,0.17165 3.259104,0.309 8.404712,0.99508 14.476591,2.05863 6.07187,1.06354 13.06989,2.50431 17.08273,3.0526 4.01284,0.54828 5.04197,0.20524 7.20316,-0.48084 2.16119,-0.68607 5.45437,-1.71519 7.64994,-2.36694 2.19556,-0.65176 3.29329,-0.92619 4.08223,-1.13203 0.78893,-0.20584 1.26919,-0.34305 1.7477,-0.47977"
       id="path5544"
       inkscape:path-effect="#path-effect5546"
       inkscape:original-d="m 82.951153,232.61678 c 1.374806,-0.066 2.74697,-0.13457 4.116485,-0.20583 5.148255,0.68873 10.293863,1.37481 15.436822,2.05825 7.00068,1.44341 13.9987,2.88418 20.99409,4.32231 1.03176,-0.3404 2.06089,-0.68344 3.08736,-1.02912 3.29584,-1.02648 6.58902,-2.0556 9.87957,-3.08737 1.10037,-0.27178 2.1981,-0.54622 3.29319,-0.82329 0.4829,-0.13458 0.96316,-0.27179 1.44077,-0.41165" />
    <path
       style="fill:none;stroke:black;stroke-width:0.70220417;stroke-linecap:butt;stroke-linejoin:miter;stroke-miterlimit:4;stroke-dasharray:0.70220417,0.70220417;stroke-dashoffset:0;stroke-opacity:1;fill-opacity:1;marker-start:none;marker-end:none"
       d="m 86.543494,217.88166 c 1.3062,0 2.609754,0 5.011112,0.10299 2.401357,0.103 5.900371,0.30882 8.953584,1.23592 3.05321,0.9271 5.66032,2.5737 8.0956,3.32734 2.43528,0.75364 4.69935,0.61642 6.243,0.51349 1.54366,-0.10294 2.36695,-0.17155 3.05342,-0.10225 0.68647,0.0693 1.23534,0.27513 1.88706,0.61856 0.65173,0.34342 1.40641,0.82368 2.26353,1.75042 0.85711,0.92674 1.81763,2.2989 2.7785,3.01788 0.96087,0.71897 1.92137,0.78758 3.3277,0.78743 1.40633,-1.4e-4 3.25875,-0.0687 6.37652,-0.8568 3.11777,-0.78804 7.51394,-2.29922 11.90486,-3.8086"
       id="path5809"
       inkscape:path-effect="#path-effect5811"
       inkscape:original-d="m 86.543494,217.88166 c 1.3062,0.003 2.609754,0.003 3.910663,0 3.50166,0.20847 7.000674,0.41429 10.497043,0.61747 2.60976,1.64924 5.21687,3.29583 7.82133,4.93978 2.26671,-0.13457 4.53078,-0.27178 6.79221,-0.41164 0.82594,-0.066 1.64924,-0.13458 2.46989,-0.20583 0.55151,0.20847 1.10037,0.4143 1.64659,0.61747 0.75734,0.48291 1.51203,0.96316 2.26407,1.44078 0.96316,1.3748 1.92367,2.74697 2.88154,4.11648 0.96316,0.0713 1.92367,0.13986 2.88154,0.20583 1.85506,-0.066 3.70748,-0.13457 5.55726,-0.20583 4.38577,-1.50725 13.17275,-4.52813 13.17275,-4.52813"
       sodipodi:nodetypes="cccccccccccc" />
    <path
       style="fill:none;stroke:black;stroke-width:0.70220417;stroke-linecap:butt;stroke-linejoin:miter;stroke-miterlimit:4;stroke-dasharray:0.70220417,0.70220417;stroke-dashoffset:0;stroke-opacity:1;fill-opacity:1;marker-start:none;marker-end:none"
       d="m 85.779129,224.45697 c 2.472612,0.0687 4.942501,0.1373 6.932322,0.34343 1.989821,0.20614 3.499197,0.54918 6.003437,1.30405 2.504242,0.75486 6.003252,1.9212 8.644652,2.98495 2.64141,1.06374 4.42522,2.02426 7.44392,2.91561 3.0187,0.89135 7.27241,1.71464 11.28544,1.71413 4.01304,-5.1e-4 7.78649,-0.8238 10.32482,-1.44132 2.53834,-0.61752 3.84189,-1.02917 4.631,-1.26927 0.78911,-0.24011 1.06353,-0.30871 1.3361,-0.37685"
       id="path5926"
       inkscape:path-effect="#path-effect5928"
       inkscape:original-d="m 85.779129,224.45697 c 2.472539,0.0713 4.94243,0.13986 7.409677,0.20583 1.512025,0.34568 3.021401,0.68872 4.528135,1.02912 3.501659,1.16898 7.000669,2.33532 10.497039,3.49901 1.78646,0.96316 3.57027,1.92367 5.35143,2.88154 4.25635,0.82594 8.51006,1.64924 12.76111,2.46989 3.77609,-0.82065 7.54954,-1.64395 11.32034,-2.46989 1.3062,-0.409 2.60975,-0.82065 3.91066,-1.23495 0.27708,-0.066 0.55151,-0.13457 0.8233,-0.20582"
       sodipodi:nodetypes="ccccccccc" />
    <path
       style="fill:none;stroke:black;stroke-width:0.70220417;stroke-linecap:butt;stroke-linejoin:miter;stroke-miterlimit:4;stroke-dasharray:0.70220417,0.70220417;stroke-dashoffset:0;stroke-opacity:1;fill-opacity:1;marker-start:none;marker-end:none"
       d="m 86.472316,213.26249 c 0.343931,-0.0573 0.685724,-0.11429 1.083932,-0.25679 0.398208,-0.1425 0.853926,-0.37035 2.335487,-0.74056 1.481561,-0.37022 3.988006,-0.8829 5.668775,-1.13904 1.680768,-0.25613 2.535238,-0.25613 3.560571,0.37184 1.025329,0.62796 2.221589,1.88118 4.585899,2.99107 2.36431,1.10989 5.89612,2.07828 8.68656,2.19151 2.79045,0.11323 4.84118,-0.62731 6.63573,-1.19692 1.79456,-0.56962 3.3326,-0.96836 4.55766,-1.19606 1.22506,-0.2277 2.1365,-0.28467 2.99087,0.20107 0.85437,0.48575 1.65187,1.5111 3.01937,2.16495 1.3675,0.65385 3.3043,0.93867 6.37973,0.42552 3.07544,-0.51316 7.29083,-1.82335 9.88265,-2.64935 2.59182,-0.826 3.56022,-1.16778 4.52709,-1.50903"
       id="path6104"
       inkscape:path-effect="#path-effect6106"
       inkscape:original-d="m 86.472316,213.26249 c 0.344435,-0.0543 0.686224,-0.11129 1.025364,-0.1709 0.458364,-0.22521 0.91408,-0.45307 1.367152,-0.68357 2.509089,-0.51004 5.015535,-1.02272 7.519332,-1.53805 0.857114,0.003 1.711584,0.003 2.563404,0 1.198912,1.25587 2.395172,2.50909 3.588782,3.75967 3.53445,0.97104 7.06626,1.93944 10.59542,2.90519 2.05337,-0.73789 4.1041,-1.47843 6.15218,-2.22162 1.54069,-0.3961 3.07873,-0.79486 4.61414,-1.19625 0.91408,-0.0543 1.82551,-0.11129 2.7343,-0.1709 0.80015,1.02801 1.59765,2.05337 2.39251,3.07609 1.93944,0.28747 3.87624,0.5723 5.81039,0.85447 4.21803,-1.30754 8.43342,-2.61773 12.64615,-3.93056 0.97105,-0.33914 1.93945,-0.68093 2.9052,-1.02536" />
  </g>
</svg>
