<?xml version="1.0" encoding="UTF-8" standalone="no"?>
<!-- Created with Inkscape (http://www.inkscape.org/) -->

<svg
   width="240mm"
   height="30mm"
   viewBox="0 0 240 30"
   version="1.1"
   id="svg8"
   inkscape:version="1.1.1 (c3084ef, 2021-09-22)"
   sodipodi:docname="eg:barycentric-subdivision.svg"
   xmlns:inkscape="http://www.inkscape.org/namespaces/inkscape"
   xmlns:sodipodi="http://sodipodi.sourceforge.net/DTD/sodipodi-0.dtd"
   xmlns="http://www.w3.org/2000/svg"
   xmlns:svg="http://www.w3.org/2000/svg"
   xmlns:rdf="http://www.w3.org/1999/02/22-rdf-syntax-ns#"
   xmlns:cc="http://creativecommons.org/ns#"
   xmlns:dc="http://purl.org/dc/elements/1.1/">
  <defs
     id="defs2">
    <inkscape:path-effect
       effect="spiro"
       id="path-effect858"
       is_visible="true"
       lpeversion="1" />
  </defs>
  <sodipodi:namedview
     id="base"
     pagecolor="#ffffff"
     bordercolor="#666666"
     borderopacity="1.0"
     inkscape:pageopacity="0.0"
     inkscape:pageshadow="2"
     inkscape:zoom="0.59220226"
     inkscape:cx="547.95468"
     inkscape:cy="-41.371"
     inkscape:document-units="mm"
     inkscape:current-layer="layer1"
     showgrid="false"
     showborder="true"
     width="200mm"
     showguides="true"
     inkscape:guide-bbox="true"
     inkscape:window-width="912"
     inkscape:window-height="512"
     inkscape:window-x="0"
     inkscape:window-y="38"
     inkscape:window-maximized="0"
     inkscape:pagecheckerboard="0">
    <inkscape:grid
       type="xygrid"
       id="grid815"
       units="mm"
       spacingx="10"
       spacingy="10"
       empspacing="4"
       dotted="false" />
  </sodipodi:namedview>
  <metadata
     id="metadata5">
    <rdf:RDF>
      <cc:Work
         rdf:about="">
        <dc:format>image/svg+xml</dc:format>
        <dc:type
           rdf:resource="http://purl.org/dc/dcmitype/StillImage" />
      </cc:Work>
    </rdf:RDF>
  </metadata>
  <g
     inkscape:label="Layer 1"
     inkscape:groupmode="layer"
     id="layer1"
     transform="translate(0,-177)">
    <path
       style="font-variation-settings:normal;opacity:0.99;vector-effect:none;fill:none;fill-opacity:1;fill-rule:evenodd;stroke:#f08b4e;stroke-width:0.264583;stroke-linecap:butt;stroke-linejoin:round;stroke-miterlimit:4;stroke-dasharray:0.79375, 0.79375;stroke-dashoffset:0;stroke-opacity:1;-inkscape-stroke:none;marker-start:none;marker-end:none;stop-color:#000000;stop-opacity:1"
       id="path889-19-5-7-4-7"
       sodipodi:type="arc"
       sodipodi:cx="205.52367"
       sodipodi:cy="198.95538"
       sodipodi:rx="0.5515179"
       sodipodi:ry="0.5515179"
       sodipodi:start="3.2066062"
       sodipodi:end="3.195663"
       sodipodi:open="true"
       sodipodi:arc-type="arc"
       d="m 204.97331,198.91955 a 0.5515179,0.5515179 0 0 1 0.58468,-0.51462 0.5515179,0.5515179 0 0 1 0.51622,0.58327 0.5515179,0.5515179 0 0 1 -0.58186,0.51781 0.5515179,0.5515179 0 0 1 -0.5194,-0.58043" />
    <path
       style="fill:none;stroke:#f08b4e;stroke-width:0.264583px;stroke-linecap:butt;stroke-linejoin:miter;stroke-opacity:1"
       d="m 108.17446,202.59307 21.5925,-13.48614"
       id="path2146"
       sodipodi:nodetypes="cc" />
    <path
       style="fill:none;stroke:#f08b4e;stroke-width:0.264583px;stroke-linecap:butt;stroke-linejoin:miter;stroke-opacity:1"
       d="m 141.31469,196.36157 -27.71338,-3.89696"
       id="path2279"
       sodipodi:nodetypes="cc" />
    <path
       style="fill:none;stroke:#f08b4e;stroke-width:0.264583px;stroke-linecap:butt;stroke-linejoin:miter;stroke-opacity:1"
       d="m 119.22121,182.05746 4.49898,17.63442"
       id="path2314" />
    <path
       style="fill:none;stroke:#000000;stroke-width:0.264583px;stroke-linecap:butt;stroke-linejoin:miter;stroke-opacity:1"
       d="M 37.107002,193.99088 H 71.697437"
       id="path856"
       inkscape:path-effect="#path-effect858"
       inkscape:original-d="m 37.107002,193.99088 c 11.530412,2.7e-4 23.060559,2.7e-4 34.590435,0" />
    <path
       style="font-variation-settings:normal;opacity:0.99;vector-effect:none;fill:#f08b4e;fill-opacity:1;fill-rule:evenodd;stroke:none;stroke-width:0.264567;stroke-linecap:butt;stroke-linejoin:round;stroke-miterlimit:4;stroke-dasharray:none;stroke-dashoffset:0;stroke-opacity:1;-inkscape-stroke:none;marker-start:none;marker-end:none;stop-color:#000000;stop-opacity:1"
       id="path884"
       sodipodi:type="arc"
       sodipodi:cx="55.466553"
       sodipodi:cy="193.96942"
       sodipodi:rx="0.52106172"
       sodipodi:ry="0.52106172"
       sodipodi:start="3.2066062"
       sodipodi:end="3.195663"
       sodipodi:open="true"
       sodipodi:arc-type="arc"
       d="m 54.946592,193.93557 a 0.52106172,0.52106172 0 0 1 0.55239,-0.4862 0.52106172,0.52106172 0 0 1 0.487709,0.55106 0.52106172,0.52106172 0 0 1 -0.549722,0.48921 0.52106172,0.52106172 0 0 1 -0.490716,-0.54838" />
    <path
       style="fill:none;stroke:#000000;stroke-width:0.264583px;stroke-linecap:butt;stroke-linejoin:miter;stroke-opacity:1"
       d="m 119.22121,182.05746 -11.04675,20.53561 33.14023,-6.2315 z"
       id="path1129" />
    <path
       style="fill:none;stroke:#f08b4e;stroke-width:0.264583px;stroke-linecap:butt;stroke-linejoin:miter;stroke-opacity:1"
       d="m 179.64684,203.41695 26.32141,-11.5168"
       id="path874"
       sodipodi:nodetypes="cc" />
    <path
       style="fill:none;stroke:#f08b4e;stroke-width:0.264583px;stroke-linecap:butt;stroke-linejoin:miter;stroke-opacity:1"
       d="m 212.78707,203.36775 -24.03058,-12.596"
       id="path876"
       sodipodi:nodetypes="cc" />
    <path
       style="fill:none;stroke:#f08b4e;stroke-width:0.264583px;stroke-linecap:butt;stroke-linejoin:miter;stroke-opacity:1"
       d="m 197.8126,178.38512 -0.37192,24.94078"
       id="path878"
       sodipodi:nodetypes="cc" />
    <path
       style="fill:none;stroke:#f08b4e;stroke-width:0.264583px;stroke-linecap:butt;stroke-linejoin:miter;stroke-opacity:1"
       d="m 197.8126,178.38512 17.64155,18.95221"
       id="path878-0"
       sodipodi:nodetypes="cc" />
    <path
       style="fill:none;stroke:#000000;stroke-width:0.264583px;stroke-linecap:butt;stroke-linejoin:miter;stroke-opacity:1"
       d="m 197.8126,178.38512 -18.16576,25.03183 33.14023,-0.0492 z"
       id="path880"
       sodipodi:nodetypes="cccc" />
    <path
       style="fill:none;stroke:#000000;stroke-width:0.264583px;stroke-linecap:butt;stroke-linejoin:miter;stroke-opacity:1"
       d="m 197.8126,178.38512 20.44143,13.60228 -5.46696,11.38035"
       id="path983"
       sodipodi:nodetypes="ccc" />
    <path
       style="fill:none;stroke:black;stroke-width:0.26458333;stroke-linecap:butt;stroke-linejoin:miter;stroke-opacity:1;fill-opacity:1;marker-start:none;marker-end:none;stroke-dasharray:0.79375,0.79375"
       d="m 218.25403,191.9874 -38.60719,11.42955"
       id="path985" />
    <path
       style="fill:none;stroke:#f08b4e;stroke-width:0.264583px;stroke-linecap:butt;stroke-linejoin:miter;stroke-opacity:1"
       d="m 209.4592,185.94229 3.32787,17.42546"
       id="path878-4"
       sodipodi:nodetypes="cc" />
    <path
       style="fill:none;stroke:#f08b4e;stroke-width:0.264583px;stroke-linecap:butt;stroke-linejoin:miter;stroke-opacity:1"
       d="m 205.96825,191.90015 12.28578,0.0873"
       id="path878-5"
       sodipodi:nodetypes="cc" />
    <path
       style="fill:none;fill-opacity:1;stroke:#f08b4e;stroke-width:0.264583;stroke-linecap:butt;stroke-linejoin:miter;stroke-dasharray:0.79375, 0.79375;stroke-opacity:1;marker-start:none;marker-end:none"
       d="m 202.58418,194.82893 -4.93554,0.67509"
       id="path2642"
       sodipodi:nodetypes="cc" />
    <path
       style="fill:none;fill-opacity:1;stroke:#f08b4e;stroke-width:0.264583;stroke-linecap:butt;stroke-linejoin:miter;stroke-dasharray:0.79375, 0.79375;stroke-opacity:1;marker-start:none;marker-end:none"
       d="m 202.97942,194.12264 -1.68992,-2.4708"
       id="path2642-0"
       sodipodi:nodetypes="cc" />
    <path
       style="fill:none;fill-opacity:1;stroke:#f08b4e;stroke-width:0.264583;stroke-linecap:butt;stroke-linejoin:miter;stroke-dasharray:0.79375, 0.79375;stroke-opacity:1;marker-start:none;marker-end:none"
       d="M 202.05505,196.0144 197.8126,178.38512"
       id="path2642-0-1"
       sodipodi:nodetypes="cc" />
    <path
       style="fill:none;fill-opacity:1;stroke:#f08b4e;stroke-width:0.264583;stroke-linecap:butt;stroke-linejoin:miter;stroke-dasharray:0.79375, 0.79375;stroke-opacity:1;marker-start:none;marker-end:none"
       d="m 210.21752,192.36272 -6.4321,2.05194"
       id="path2642-0-9"
       sodipodi:nodetypes="cc" />
    <path
       style="fill:none;fill-opacity:1;stroke:#f08b4e;stroke-width:0.264583;stroke-linecap:butt;stroke-linejoin:miter;stroke-dasharray:0.79375, 0.79375;stroke-opacity:1;marker-start:none;marker-end:none"
       d="m 205.33872,198.2054 -1.87525,-2.82193"
       id="path2642-0-9-4"
       sodipodi:nodetypes="cc" />
    <path
       style="fill:none;fill-opacity:1;stroke:#f08b4e;stroke-width:0.264583;stroke-linecap:butt;stroke-linejoin:miter;stroke-dasharray:0.79375, 0.79375;stroke-opacity:1;marker-start:none;marker-end:none"
       d="m 212.78707,203.36775 -10.56409,-6.45227"
       id="path2642-0-9-4-9"
       sodipodi:nodetypes="cc" />
    <path
       style="fill:none;fill-opacity:1;stroke:#f08b4e;stroke-width:0.264583;stroke-linecap:butt;stroke-linejoin:miter;stroke-dasharray:0.79375, 0.79375;stroke-opacity:1;marker-start:none;marker-end:none"
       d="m 197.44068,203.3259 20.81335,-11.33845"
       id="path2642-0-9-4-4"
       sodipodi:nodetypes="cc" />
    <path
       style="fill:none;fill-opacity:1;stroke:#f08b4e;stroke-width:0.264583;stroke-linecap:butt;stroke-linejoin:miter;stroke-dasharray:0.79375, 0.79375;stroke-opacity:1;marker-start:none;marker-end:none"
       d="m 215.45415,197.33733 -35.80731,6.07962"
       id="path2642-0-9-4-0"
       sodipodi:nodetypes="cc" />
    <path
       style="font-variation-settings:normal;opacity:0.99;vector-effect:none;fill:#f08b4e;fill-opacity:1;fill-rule:evenodd;stroke:none;stroke-width:0.264567;stroke-linecap:butt;stroke-linejoin:round;stroke-miterlimit:4;stroke-dasharray:none;stroke-dashoffset:0;stroke-opacity:1;-inkscape-stroke:none;marker-start:none;marker-end:none;stop-color:#000000;stop-opacity:1"
       id="path884-0"
       sodipodi:type="arc"
       sodipodi:cx="123.73331"
       sodipodi:cy="199.77098"
       sodipodi:rx="0.52106172"
       sodipodi:ry="0.52106172"
       sodipodi:start="3.2066062"
       sodipodi:end="3.195663"
       sodipodi:open="true"
       sodipodi:arc-type="arc"
       d="m 123.21335,199.73713 a 0.52106172,0.52106172 0 0 1 0.55239,-0.4862 0.52106172,0.52106172 0 0 1 0.48771,0.55106 0.52106172,0.52106172 0 0 1 -0.54973,0.48921 0.52106172,0.52106172 0 0 1 -0.49071,-0.54838" />
    <path
       style="font-variation-settings:normal;opacity:0.99;vector-effect:none;fill:#f08b4e;fill-opacity:1;fill-rule:evenodd;stroke:none;stroke-width:0.264567;stroke-linecap:butt;stroke-linejoin:round;stroke-miterlimit:4;stroke-dasharray:none;stroke-dashoffset:0;stroke-opacity:1;-inkscape-stroke:none;marker-start:none;marker-end:none;stop-color:#000000;stop-opacity:1"
       id="path884-04"
       sodipodi:type="arc"
       sodipodi:cx="122.26904"
       sodipodi:cy="193.75127"
       sodipodi:rx="0.52106172"
       sodipodi:ry="0.52106172"
       sodipodi:start="3.2066062"
       sodipodi:end="3.195663"
       sodipodi:open="true"
       sodipodi:arc-type="arc"
       d="m 121.74908,193.71741 a 0.52106172,0.52106172 0 0 1 0.55239,-0.4862 0.52106172,0.52106172 0 0 1 0.48771,0.55106 0.52106172,0.52106172 0 0 1 -0.54972,0.48922 0.52106172,0.52106172 0 0 1 -0.49072,-0.54838" />
    <path
       style="font-variation-settings:normal;opacity:0.99;vector-effect:none;fill:#f08b4e;fill-opacity:1;fill-rule:evenodd;stroke:none;stroke-width:0.264567;stroke-linecap:butt;stroke-linejoin:round;stroke-miterlimit:4;stroke-dasharray:none;stroke-dashoffset:0;stroke-opacity:1;-inkscape-stroke:none;marker-start:none;marker-end:none;stop-color:#000000;stop-opacity:1"
       id="path884-6"
       sodipodi:type="arc"
       sodipodi:cx="113.48352"
       sodipodi:cy="192.44971"
       sodipodi:rx="0.52106172"
       sodipodi:ry="0.52106172"
       sodipodi:start="3.2066062"
       sodipodi:end="3.195663"
       sodipodi:open="true"
       sodipodi:arc-type="arc"
       d="m 112.96356,192.41585 a 0.52106172,0.52106172 0 0 1 0.55239,-0.48619 0.52106172,0.52106172 0 0 1 0.48771,0.55105 0.52106172,0.52106172 0 0 1 -0.54972,0.48922 0.52106172,0.52106172 0 0 1 -0.49072,-0.54838" />
    <path
       style="font-variation-settings:normal;opacity:0.99;vector-effect:none;fill:#f08b4e;fill-opacity:1;fill-rule:evenodd;stroke:none;stroke-width:0.264567;stroke-linecap:butt;stroke-linejoin:round;stroke-miterlimit:4;stroke-dasharray:none;stroke-dashoffset:0;stroke-opacity:1;-inkscape-stroke:none;marker-start:none;marker-end:none;stop-color:#000000;stop-opacity:1"
       id="path884-08"
       sodipodi:type="arc"
       sodipodi:cx="129.83435"
       sodipodi:cy="188.95177"
       sodipodi:rx="0.52106172"
       sodipodi:ry="0.52106172"
       sodipodi:start="3.2066062"
       sodipodi:end="3.195663"
       sodipodi:open="true"
       sodipodi:arc-type="arc"
       d="m 129.31439,188.91791 a 0.52106172,0.52106172 0 0 1 0.55239,-0.48619 0.52106172,0.52106172 0 0 1 0.48771,0.55105 0.52106172,0.52106172 0 0 1 -0.54972,0.48922 0.52106172,0.52106172 0 0 1 -0.49072,-0.54838" />
    <path
       style="font-variation-settings:normal;opacity:0.99;vector-effect:none;fill:#f08b4e;fill-opacity:1;fill-rule:evenodd;stroke:none;stroke-width:0.264567;stroke-linecap:butt;stroke-linejoin:round;stroke-miterlimit:4;stroke-dasharray:none;stroke-dashoffset:0;stroke-opacity:1;-inkscape-stroke:none;marker-start:none;marker-end:none;stop-color:#000000;stop-opacity:1"
       id="path884-4"
       sodipodi:type="arc"
       sodipodi:cx="215.73351"
       sodipodi:cy="197.41823"
       sodipodi:rx="0.52106172"
       sodipodi:ry="0.52106172"
       sodipodi:start="3.2066062"
       sodipodi:end="3.195663"
       sodipodi:open="true"
       sodipodi:arc-type="arc"
       d="m 215.21354,197.38438 a 0.52106172,0.52106172 0 0 1 0.55239,-0.4862 0.52106172,0.52106172 0 0 1 0.48771,0.55105 0.52106172,0.52106172 0 0 1 -0.54972,0.48922 0.52106172,0.52106172 0 0 1 -0.49071,-0.54838" />
    <path
       style="font-variation-settings:normal;opacity:0.99;vector-effect:none;fill:#f08b4e;fill-opacity:1;fill-rule:evenodd;stroke:none;stroke-width:0.264567;stroke-linecap:butt;stroke-linejoin:round;stroke-miterlimit:4;stroke-dasharray:none;stroke-dashoffset:0;stroke-opacity:1;-inkscape-stroke:none;marker-start:none;marker-end:none;stop-color:#000000;stop-opacity:1"
       id="path884-5"
       sodipodi:type="arc"
       sodipodi:cx="197.34898"
       sodipodi:cy="203.43793"
       sodipodi:rx="0.52106172"
       sodipodi:ry="0.52106172"
       sodipodi:start="3.2066062"
       sodipodi:end="3.195663"
       sodipodi:open="true"
       sodipodi:arc-type="arc"
       d="m 196.82902,203.40408 a 0.52106172,0.52106172 0 0 1 0.55239,-0.4862 0.52106172,0.52106172 0 0 1 0.48771,0.55105 0.52106172,0.52106172 0 0 1 -0.54972,0.48922 0.52106172,0.52106172 0 0 1 -0.49072,-0.54838" />
    <path
       style="font-variation-settings:normal;opacity:0.99;vector-effect:none;fill:#f08b4e;fill-opacity:1;fill-rule:evenodd;stroke:none;stroke-width:0.264567;stroke-linecap:butt;stroke-linejoin:round;stroke-miterlimit:4;stroke-dasharray:none;stroke-dashoffset:0;stroke-opacity:1;-inkscape-stroke:none;marker-start:none;marker-end:none;stop-color:#000000;stop-opacity:1"
       id="path884-5-6"
       sodipodi:type="arc"
       sodipodi:cx="188.76202"
       sodipodi:cy="190.85408"
       sodipodi:rx="0.52106172"
       sodipodi:ry="0.52106172"
       sodipodi:start="3.2066062"
       sodipodi:end="3.195663"
       sodipodi:open="true"
       sodipodi:arc-type="arc"
       d="m 188.24206,190.82023 a 0.52106172,0.52106172 0 0 1 0.55239,-0.4862 0.52106172,0.52106172 0 0 1 0.48771,0.55106 0.52106172,0.52106172 0 0 1 -0.54972,0.48921 0.52106172,0.52106172 0 0 1 -0.49072,-0.54838" />
    <path
       style="font-variation-settings:normal;opacity:0.99;vector-effect:none;fill:#f08b4e;fill-opacity:1;fill-rule:evenodd;stroke:none;stroke-width:0.264567;stroke-linecap:butt;stroke-linejoin:round;stroke-miterlimit:4;stroke-dasharray:none;stroke-dashoffset:0;stroke-opacity:1;-inkscape-stroke:none;marker-start:none;marker-end:none;stop-color:#000000;stop-opacity:1"
       id="path884-1"
       sodipodi:type="arc"
       sodipodi:cx="209.5511"
       sodipodi:cy="186.19228"
       sodipodi:rx="0.52106172"
       sodipodi:ry="0.52106172"
       sodipodi:start="3.2066062"
       sodipodi:end="3.195663"
       sodipodi:open="true"
       sodipodi:arc-type="arc"
       d="m 209.03114,186.15842 a 0.52106172,0.52106172 0 0 1 0.55239,-0.4862 0.52106172,0.52106172 0 0 1 0.48771,0.55106 0.52106172,0.52106172 0 0 1 -0.54972,0.48922 0.52106172,0.52106172 0 0 1 -0.49072,-0.54838" />
    <path
       style="font-variation-settings:normal;opacity:0.99;vector-effect:none;fill:#f08b4e;fill-opacity:1;fill-rule:evenodd;stroke:none;stroke-width:0.264567;stroke-linecap:butt;stroke-linejoin:round;stroke-miterlimit:4;stroke-dasharray:none;stroke-dashoffset:0;stroke-opacity:1;-inkscape-stroke:none;marker-start:none;marker-end:none;stop-color:#000000;stop-opacity:1"
       id="path884-45"
       sodipodi:type="arc"
       sodipodi:cx="210.58081"
       sodipodi:cy="192.06792"
       sodipodi:rx="0.52106172"
       sodipodi:ry="0.52106172"
       sodipodi:start="3.2066062"
       sodipodi:end="3.195663"
       sodipodi:open="true"
       sodipodi:arc-type="arc"
       d="m 210.06085,192.03406 a 0.52106172,0.52106172 0 0 1 0.55239,-0.48619 0.52106172,0.52106172 0 0 1 0.48771,0.55105 0.52106172,0.52106172 0 0 1 -0.54972,0.48922 0.52106172,0.52106172 0 0 1 -0.49072,-0.54838" />
    <path
       style="font-variation-settings:normal;opacity:0.99;vector-effect:none;fill:#f08b4e;fill-opacity:1;fill-rule:evenodd;stroke:none;stroke-width:0.264567;stroke-linecap:butt;stroke-linejoin:round;stroke-miterlimit:4;stroke-dasharray:none;stroke-dashoffset:0;stroke-opacity:1;-inkscape-stroke:none;marker-start:none;marker-end:none;stop-color:#000000;stop-opacity:1"
       id="path884-19"
       sodipodi:type="arc"
       sodipodi:cx="205.97299"
       sodipodi:cy="192.03429"
       sodipodi:rx="0.52106172"
       sodipodi:ry="0.52106172"
       sodipodi:start="3.2066062"
       sodipodi:end="3.195663"
       sodipodi:open="true"
       sodipodi:arc-type="arc"
       d="m 205.45303,192.00043 a 0.52106172,0.52106172 0 0 1 0.55239,-0.4862 0.52106172,0.52106172 0 0 1 0.48771,0.55106 0.52106172,0.52106172 0 0 1 -0.54972,0.48922 0.52106172,0.52106172 0 0 1 -0.49072,-0.54838" />
    <path
       style="font-variation-settings:normal;opacity:0.99;vector-effect:none;fill:#f08b4e;fill-opacity:1;fill-rule:evenodd;stroke:none;stroke-width:0.264567;stroke-linecap:butt;stroke-linejoin:round;stroke-miterlimit:4;stroke-dasharray:none;stroke-dashoffset:0;stroke-opacity:1;-inkscape-stroke:none;marker-start:none;marker-end:none;stop-color:#000000;stop-opacity:1"
       id="path884-9"
       sodipodi:type="arc"
       sodipodi:cx="197.63184"
       sodipodi:cy="195.53218"
       sodipodi:rx="0.52106172"
       sodipodi:ry="0.52106172"
       sodipodi:start="3.2066062"
       sodipodi:end="3.195663"
       sodipodi:open="true"
       sodipodi:arc-type="arc"
       d="m 197.11188,195.49833 a 0.52106172,0.52106172 0 0 1 0.55239,-0.4862 0.52106172,0.52106172 0 0 1 0.4877,0.55106 0.52106172,0.52106172 0 0 1 -0.54972,0.48921 0.52106172,0.52106172 0 0 1 -0.49071,-0.54838" />
    <path
       style="font-variation-settings:normal;opacity:0.99;vector-effect:none;fill:none;fill-opacity:1;fill-rule:evenodd;stroke:#f08b4e;stroke-width:0.264583;stroke-linecap:butt;stroke-linejoin:round;stroke-miterlimit:4;stroke-dasharray:0.79375, 0.79375;stroke-dashoffset:0;stroke-opacity:1;-inkscape-stroke:none;marker-start:none;marker-end:none;stop-color:#000000;stop-opacity:1"
       id="path889-19-5-7"
       sodipodi:type="arc"
       sodipodi:cx="200.77625"
       sodipodi:cy="191.19412"
       sodipodi:rx="0.5515179"
       sodipodi:ry="0.5515179"
       sodipodi:start="3.2066062"
       sodipodi:end="3.195663"
       sodipodi:open="true"
       sodipodi:arc-type="arc"
       d="m 200.22589,191.15829 a 0.5515179,0.5515179 0 0 1 0.58468,-0.51462 0.5515179,0.5515179 0 0 1 0.51622,0.58327 0.5515179,0.5515179 0 0 1 -0.58186,0.51781 0.5515179,0.5515179 0 0 1 -0.5194,-0.58043" />
    <path
       style="font-variation-settings:normal;opacity:0.99;vector-effect:none;fill:none;fill-opacity:1;fill-rule:evenodd;stroke:#f08b4e;stroke-width:0.264583;stroke-linecap:butt;stroke-linejoin:round;stroke-miterlimit:4;stroke-dasharray:0.79375, 0.79375;stroke-dashoffset:0;stroke-opacity:1;-inkscape-stroke:none;marker-start:none;marker-end:none;stop-color:#000000;stop-opacity:1"
       id="path889-19-5-7-4"
       sodipodi:type="arc"
       sodipodi:cx="203.13489"
       sodipodi:cy="194.68764"
       sodipodi:rx="0.5515179"
       sodipodi:ry="0.5515179"
       sodipodi:start="3.2066062"
       sodipodi:end="3.195663"
       sodipodi:open="true"
       sodipodi:arc-type="arc"
       d="m 202.58453,194.65181 a 0.5515179,0.5515179 0 0 1 0.58468,-0.51462 0.5515179,0.5515179 0 0 1 0.51622,0.58327 0.5515179,0.5515179 0 0 1 -0.58186,0.51781 0.5515179,0.5515179 0 0 1 -0.51939,-0.58044" />
    <path
       style="font-variation-settings:normal;opacity:0.99;vector-effect:none;fill:none;fill-opacity:1;fill-rule:evenodd;stroke:#f08b4e;stroke-width:0.264583;stroke-linecap:butt;stroke-linejoin:round;stroke-miterlimit:4;stroke-dasharray:0.79375, 0.79375;stroke-dashoffset:0;stroke-opacity:1;-inkscape-stroke:none;marker-start:none;marker-end:none;stop-color:#000000;stop-opacity:1"
       id="path889-19-5-7-4-2"
       sodipodi:type="arc"
       sodipodi:cx="202.1331"
       sodipodi:cy="196.75868"
       sodipodi:rx="0.5515179"
       sodipodi:ry="0.5515179"
       sodipodi:start="3.2066062"
       sodipodi:end="3.195663"
       sodipodi:open="true"
       sodipodi:arc-type="arc"
       d="m 201.58275,196.72285 a 0.5515179,0.5515179 0 0 1 0.58468,-0.51462 0.5515179,0.5515179 0 0 1 0.51621,0.58327 0.5515179,0.5515179 0 0 1 -0.58185,0.51781 0.5515179,0.5515179 0 0 1 -0.5194,-0.58043" />
    <path
       style="fill:none;fill-opacity:1;stroke:#f08b4e;stroke-width:0.264583;stroke-linecap:butt;stroke-linejoin:miter;stroke-dasharray:0.79375, 0.79375;stroke-opacity:1;marker-start:none;marker-end:none"
       d="M 179.64684,203.41695 209.4592,186.25716"
       id="path2642-0-11"
       sodipodi:nodetypes="cc" />
    <path
       style="fill:none;fill-opacity:1;stroke:#f08b4e;stroke-width:0.264583;stroke-linecap:butt;stroke-linejoin:miter;stroke-dasharray:0.79375, 0.79375;stroke-opacity:1;marker-start:none;marker-end:none"
       d="m 218.25403,191.9874 -29.49754,-1.21565"
       id="path2642-0-2"
       sodipodi:nodetypes="cc" />
  </g>
</svg>
