<?xml version="1.0" encoding="UTF-8" standalone="no"?>
<!-- Created with Inkscape (http://www.inkscape.org/) -->

<svg
   width="240mm"
   height="80mm"
   viewBox="0 0 240 80"
   version="1.1"
   id="svg8"
   inkscape:version="1.1.1 (c3084ef, 2021-09-22)"
   sodipodi:docname="eg:cylinder-mobiusband.svg"
   xmlns:inkscape="http://www.inkscape.org/namespaces/inkscape"
   xmlns:sodipodi="http://sodipodi.sourceforge.net/DTD/sodipodi-0.dtd"
   xmlns="http://www.w3.org/2000/svg"
   xmlns:svg="http://www.w3.org/2000/svg"
   xmlns:rdf="http://www.w3.org/1999/02/22-rdf-syntax-ns#"
   xmlns:cc="http://creativecommons.org/ns#"
   xmlns:dc="http://purl.org/dc/elements/1.1/">
  <defs
     id="defs2">
    <inkscape:path-effect
       effect="bspline"
       id="path-effect1228"
       is_visible="true"
       lpeversion="1"
       weight="33.333333"
       steps="2"
       helper_size="0"
       apply_no_weight="true"
       apply_with_weight="true"
       only_selected="false" />
    <inkscape:path-effect
       effect="bspline"
       id="path-effect1115"
       is_visible="true"
       lpeversion="1"
       weight="33.333333"
       steps="2"
       helper_size="0"
       apply_no_weight="true"
       apply_with_weight="true"
       only_selected="false" />
    <inkscape:path-effect
       effect="bspline"
       id="path-effect1111"
       is_visible="true"
       lpeversion="1"
       weight="33.333333"
       steps="2"
       helper_size="0"
       apply_no_weight="true"
       apply_with_weight="true"
       only_selected="false" />
    <inkscape:path-effect
       effect="bspline"
       id="path-effect1107"
       is_visible="true"
       lpeversion="1"
       weight="33.333333"
       steps="2"
       helper_size="0"
       apply_no_weight="true"
       apply_with_weight="true"
       only_selected="false" />
    <inkscape:path-effect
       effect="bspline"
       id="path-effect1103"
       is_visible="true"
       lpeversion="1"
       weight="33.333333"
       steps="2"
       helper_size="0"
       apply_no_weight="true"
       apply_with_weight="true"
       only_selected="false" />
    <inkscape:path-effect
       effect="bspline"
       id="path-effect1099"
       is_visible="true"
       lpeversion="1"
       weight="33.333333"
       steps="2"
       helper_size="0"
       apply_no_weight="true"
       apply_with_weight="true"
       only_selected="false" />
    <inkscape:path-effect
       effect="bspline"
       id="path-effect1095"
       is_visible="true"
       lpeversion="1"
       weight="33.333333"
       steps="2"
       helper_size="0"
       apply_no_weight="true"
       apply_with_weight="true"
       only_selected="false" />
    <inkscape:path-effect
       effect="bspline"
       id="path-effect1091"
       is_visible="true"
       lpeversion="1"
       weight="33.333333"
       steps="2"
       helper_size="0"
       apply_no_weight="true"
       apply_with_weight="true"
       only_selected="false" />
    <inkscape:path-effect
       effect="bspline"
       id="path-effect1087"
       is_visible="true"
       lpeversion="1"
       weight="33.333333"
       steps="2"
       helper_size="0"
       apply_no_weight="true"
       apply_with_weight="true"
       only_selected="false" />
    <inkscape:path-effect
       effect="bspline"
       id="path-effect1083"
       is_visible="true"
       lpeversion="1"
       weight="33.333333"
       steps="2"
       helper_size="0"
       apply_no_weight="true"
       apply_with_weight="true"
       only_selected="false" />
    <inkscape:path-effect
       effect="bspline"
       id="path-effect1079"
       is_visible="true"
       lpeversion="1"
       weight="33.333333"
       steps="2"
       helper_size="0"
       apply_no_weight="true"
       apply_with_weight="true"
       only_selected="false" />
    <inkscape:path-effect
       effect="spiro"
       id="path-effect1075"
       is_visible="true"
       lpeversion="1" />
    <inkscape:path-effect
       effect="spiro"
       id="path-effect1071"
       is_visible="true"
       lpeversion="1" />
    <inkscape:path-effect
       effect="spiro"
       id="path-effect1067"
       is_visible="true"
       lpeversion="1" />
    <inkscape:path-effect
       effect="spiro"
       id="path-effect1030"
       is_visible="true"
       lpeversion="1" />
    <inkscape:path-effect
       effect="bspline"
       id="path-effect10022"
       is_visible="true"
       lpeversion="1"
       weight="33.333333"
       steps="2"
       helper_size="0"
       apply_no_weight="true"
       apply_with_weight="true"
       only_selected="false" />
    <marker
       style="overflow:visible"
       id="Arrow1Lstart"
       refX="0"
       refY="0"
       orient="auto"
       inkscape:stockid="Arrow1Lstart"
       inkscape:isstock="true">
      <path
         transform="matrix(0.8,0,0,0.8,10,0)"
         style="fill:context-stroke;fill-rule:evenodd;stroke:context-stroke;stroke-width:1pt"
         d="M 0,0 5,-5 -12.5,0 5,5 Z"
         id="path1591" />
    </marker>
    <inkscape:path-effect
       effect="bspline"
       id="path-effect9800"
       is_visible="true"
       lpeversion="1"
       weight="33.333333"
       steps="2"
       helper_size="0"
       apply_no_weight="true"
       apply_with_weight="true"
       only_selected="false" />
    <inkscape:path-effect
       effect="spiro"
       id="path-effect8277"
       is_visible="true"
       lpeversion="1" />
    <inkscape:path-effect
       effect="spiro"
       id="path-effect7195"
       is_visible="true"
       lpeversion="1" />
    <inkscape:path-effect
       effect="spiro"
       id="path-effect6129"
       is_visible="true"
       lpeversion="1" />
    <inkscape:path-effect
       effect="bspline"
       id="path-effect6088"
       is_visible="true"
       lpeversion="1"
       weight="33.333333"
       steps="2"
       helper_size="0"
       apply_no_weight="true"
       apply_with_weight="true"
       only_selected="false" />
    <inkscape:path-effect
       effect="bspline"
       id="path-effect4365"
       is_visible="true"
       lpeversion="1"
       weight="33.333333"
       steps="2"
       helper_size="0"
       apply_no_weight="true"
       apply_with_weight="true"
       only_selected="false" />
    <inkscape:path-effect
       effect="bspline"
       id="path-effect3860"
       is_visible="true"
       lpeversion="1"
       weight="33.333333"
       steps="2"
       helper_size="0"
       apply_no_weight="true"
       apply_with_weight="true"
       only_selected="false" />
    <inkscape:path-effect
       effect="bspline"
       id="path-effect3856"
       is_visible="true"
       lpeversion="1"
       weight="33.333333"
       steps="2"
       helper_size="0"
       apply_no_weight="true"
       apply_with_weight="true"
       only_selected="false" />
    <inkscape:path-effect
       effect="bspline"
       id="path-effect3852"
       is_visible="true"
       lpeversion="1"
       weight="33.333333"
       steps="2"
       helper_size="0"
       apply_no_weight="true"
       apply_with_weight="true"
       only_selected="false" />
    <inkscape:path-effect
       effect="bspline"
       id="path-effect3848"
       is_visible="true"
       lpeversion="1"
       weight="33.333333"
       steps="2"
       helper_size="0"
       apply_no_weight="true"
       apply_with_weight="true"
       only_selected="false" />
    <inkscape:path-effect
       effect="bspline"
       id="path-effect3640"
       is_visible="true"
       lpeversion="1"
       weight="33.333333"
       steps="2"
       helper_size="0"
       apply_no_weight="true"
       apply_with_weight="true"
       only_selected="false" />
    <inkscape:path-effect
       effect="bspline"
       id="path-effect3636"
       is_visible="true"
       lpeversion="1"
       weight="33.333333"
       steps="2"
       helper_size="0"
       apply_no_weight="true"
       apply_with_weight="true"
       only_selected="false" />
    <inkscape:path-effect
       effect="bspline"
       id="path-effect3632"
       is_visible="true"
       lpeversion="1"
       weight="33.333333"
       steps="2"
       helper_size="0"
       apply_no_weight="true"
       apply_with_weight="true"
       only_selected="false" />
    <inkscape:path-effect
       effect="bspline"
       id="path-effect3227"
       is_visible="true"
       lpeversion="1"
       weight="33.333333"
       steps="2"
       helper_size="0"
       apply_no_weight="true"
       apply_with_weight="true"
       only_selected="false" />
    <marker
       style="overflow:visible"
       id="marker2243"
       refX="0"
       refY="0"
       orient="auto"
       inkscape:stockid="Arrow1Lend"
       inkscape:isstock="true">
      <path
         transform="matrix(-0.8,0,0,-0.8,-10,0)"
         style="fill:context-stroke;fill-rule:evenodd;stroke:context-stroke;stroke-width:1pt"
         d="M 0,0 5,-5 -12.5,0 5,5 Z"
         id="path2241" />
    </marker>
    <inkscape:path-effect
       effect="bspline"
       id="path-effect2239"
       is_visible="true"
       lpeversion="1"
       weight="33.333333"
       steps="2"
       helper_size="0"
       apply_no_weight="true"
       apply_with_weight="true"
       only_selected="false" />
    <inkscape:path-effect
       effect="bspline"
       id="path-effect2087"
       is_visible="true"
       lpeversion="1"
       weight="33.333333"
       steps="2"
       helper_size="0"
       apply_no_weight="true"
       apply_with_weight="true"
       only_selected="false" />
    <inkscape:path-effect
       effect="bspline"
       id="path-effect2033"
       is_visible="true"
       lpeversion="1"
       weight="33.333333"
       steps="2"
       helper_size="0"
       apply_no_weight="true"
       apply_with_weight="true"
       only_selected="false" />
    <inkscape:path-effect
       effect="bspline"
       id="path-effect1911"
       is_visible="true"
       lpeversion="1"
       weight="33.333333"
       steps="2"
       helper_size="0"
       apply_no_weight="true"
       apply_with_weight="true"
       only_selected="false" />
    <marker
       style="overflow:visible"
       id="Arrow1Lend"
       refX="0"
       refY="0"
       orient="auto"
       inkscape:stockid="Arrow1Lend"
       inkscape:isstock="true">
      <path
         transform="matrix(-0.8,0,0,-0.8,-10,0)"
         style="fill:context-stroke;fill-rule:evenodd;stroke:context-stroke;stroke-width:1pt"
         d="M 0,0 5,-5 -12.5,0 5,5 Z"
         id="path1594" />
    </marker>
    <inkscape:path-effect
       effect="bspline"
       id="path-effect1589"
       is_visible="true"
       lpeversion="1"
       weight="33.333333"
       steps="2"
       helper_size="0"
       apply_no_weight="true"
       apply_with_weight="true"
       only_selected="false" />
    <inkscape:path-effect
       effect="bspline"
       id="path-effect1340"
       is_visible="true"
       lpeversion="1"
       weight="33.333333"
       steps="2"
       helper_size="0"
       apply_no_weight="true"
       apply_with_weight="true"
       only_selected="false" />
    <inkscape:path-effect
       effect="bspline"
       id="path-effect1032"
       is_visible="true"
       lpeversion="1"
       weight="33.333333"
       steps="2"
       helper_size="0"
       apply_no_weight="true"
       apply_with_weight="true"
       only_selected="false" />
    <inkscape:path-effect
       effect="bspline"
       id="path-effect992"
       is_visible="true"
       lpeversion="1"
       weight="33.333333"
       steps="2"
       helper_size="0"
       apply_no_weight="true"
       apply_with_weight="true"
       only_selected="false" />
    <marker
       style="overflow:visible"
       id="Arrow1Lend-6"
       refX="0"
       refY="0"
       orient="auto"
       inkscape:stockid="Arrow1Lend"
       inkscape:isstock="true">
      <path
         transform="matrix(-0.8,0,0,-0.8,-10,0)"
         style="fill:context-stroke;fill-rule:evenodd;stroke:context-stroke;stroke-width:1pt"
         d="M 0,0 5,-5 -12.5,0 5,5 Z"
         id="path1594-5" />
    </marker>
    <marker
       style="overflow:visible"
       id="Arrow1Lend-6-5"
       refX="0"
       refY="0"
       orient="auto"
       inkscape:stockid="Arrow1Lend"
       inkscape:isstock="true">
      <path
         transform="matrix(-0.8,0,0,-0.8,-10,0)"
         style="fill:context-stroke;fill-rule:evenodd;stroke:context-stroke;stroke-width:1pt"
         d="M 0,0 5,-5 -12.5,0 5,5 Z"
         id="path1594-5-4" />
    </marker>
    <marker
       style="overflow:visible"
       id="marker2243-8"
       refX="0"
       refY="0"
       orient="auto"
       inkscape:stockid="Arrow1Lend"
       inkscape:isstock="true">
      <path
         transform="matrix(-0.8,0,0,-0.8,-10,0)"
         style="fill:context-stroke;fill-rule:evenodd;stroke:context-stroke;stroke-width:1pt"
         d="M 0,0 5,-5 -12.5,0 5,5 Z"
         id="path2241-4" />
    </marker>
    <marker
       style="overflow:visible"
       id="marker2243-8-8"
       refX="0"
       refY="0"
       orient="auto"
       inkscape:stockid="Arrow1Lend"
       inkscape:isstock="true">
      <path
         transform="matrix(-0.8,0,0,-0.8,-10,0)"
         style="fill:context-stroke;fill-rule:evenodd;stroke:context-stroke;stroke-width:1pt"
         d="M 0,0 5,-5 -12.5,0 5,5 Z"
         id="path2241-4-2" />
    </marker>
    <marker
       style="overflow:visible"
       id="marker2243-0"
       refX="0"
       refY="0"
       orient="auto"
       inkscape:stockid="Arrow1Lend"
       inkscape:isstock="true">
      <path
         transform="matrix(-0.8,0,0,-0.8,-10,0)"
         style="fill:context-stroke;fill-rule:evenodd;stroke:context-stroke;stroke-width:1pt"
         d="M 0,0 5,-5 -12.5,0 5,5 Z"
         id="path2241-7" />
    </marker>
    <marker
       style="overflow:visible"
       id="Arrow1Lend-8"
       refX="0"
       refY="0"
       orient="auto"
       inkscape:stockid="Arrow1Lend"
       inkscape:isstock="true">
      <path
         transform="matrix(-0.8,0,0,-0.8,-10,0)"
         style="fill:context-stroke;fill-rule:evenodd;stroke:context-stroke;stroke-width:1pt"
         d="M 0,0 5,-5 -12.5,0 5,5 Z"
         id="path1594-3" />
    </marker>
    <marker
       style="overflow:visible"
       id="Arrow1Lend-6-0"
       refX="0"
       refY="0"
       orient="auto"
       inkscape:stockid="Arrow1Lend"
       inkscape:isstock="true">
      <path
         transform="matrix(-0.8,0,0,-0.8,-10,0)"
         style="fill:context-stroke;fill-rule:evenodd;stroke:context-stroke;stroke-width:1pt"
         d="M 0,0 5,-5 -12.5,0 5,5 Z"
         id="path1594-5-6" />
    </marker>
    <marker
       style="overflow:visible"
       id="marker3733"
       refX="0"
       refY="0"
       orient="auto"
       inkscape:stockid="Arrow1Lend"
       inkscape:isstock="true">
      <path
         transform="matrix(-0.8,0,0,-0.8,-10,0)"
         style="fill:context-stroke;fill-rule:evenodd;stroke:context-stroke;stroke-width:1pt"
         d="M 0,0 5,-5 -12.5,0 5,5 Z"
         id="path3731" />
    </marker>
    <marker
       style="overflow:visible"
       id="Arrow1Lend-6-5-2"
       refX="0"
       refY="0"
       orient="auto"
       inkscape:stockid="Arrow1Lend"
       inkscape:isstock="true">
      <path
         transform="matrix(-0.8,0,0,-0.8,-10,0)"
         style="fill:context-stroke;fill-rule:evenodd;stroke:context-stroke;stroke-width:1pt"
         d="M 0,0 5,-5 -12.5,0 5,5 Z"
         id="path1594-5-4-2" />
    </marker>
    <marker
       style="overflow:visible"
       id="marker2243-8-85"
       refX="0"
       refY="0"
       orient="auto"
       inkscape:stockid="Arrow1Lend"
       inkscape:isstock="true">
      <path
         transform="matrix(-0.8,0,0,-0.8,-10,0)"
         style="fill:context-stroke;fill-rule:evenodd;stroke:context-stroke;stroke-width:1pt"
         d="M 0,0 5,-5 -12.5,0 5,5 Z"
         id="path2241-4-9" />
    </marker>
    <clipPath
       clipPathUnits="userSpaceOnUse"
       id="clipPath5172">
      <path
         id="path5174"
         style="fill:#ff0000;fill-opacity:1;fill-rule:nonzero;stroke:none;stroke-width:0.264583"
         d="m 61.862891,195.7725 -2.858223,5.3e-4 c 0.028,0.0329 0.05183,0.0675 0.07234,0.10283 0.05822,-9e-4 0.116454,-6.9e-4 0.174668,-0.002 0.700047,-0.0124 1.399796,-0.0423 2.099095,-0.077 0.170479,-0.008 0.341551,-0.0139 0.512115,-0.0243 z m -31.665252,5.3e-4 v 5.63634 c 0.08548,-0.10295 0.212561,-0.20851 0.395325,-0.31522 0.175239,-0.0675 0.345691,-0.14862 0.52555,-0.20257 0.08555,-0.0257 0.182583,0.0733 0.267684,0.0186 0.25949,-0.0857 0.482907,-0.24874 0.746207,-0.32349 -0.0097,-0.14528 0.02693,-0.32757 0.111622,-0.56638 0.121571,-0.2989 0.244409,-0.53527 0.449586,-0.7922 0.326514,-0.40887 -0.04764,0.10169 0.196368,-0.1819 0.0284,-0.033 0.04872,-0.0723 0.07286,-0.10852 0.288549,-0.38401 0.593227,-0.5993 1.070737,-0.59273 0.03183,4.5e-4 0.06477,0.002 0.09818,0.004 h 4.389398 c 0.05032,0 0.09871,0.002 0.145727,0.005 0.277736,-0.24938 0.401902,-0.43707 -0.100253,-0.41909 -0.03836,0.009 -0.06254,0.008 -0.183452,0.0103 0.03923,-0.002 0.0786,-0.005 0.117822,-0.008 0.02426,-0.002 0.04378,-0.002 0.06563,-0.003 0.03747,-0.009 0.0885,-0.0268 0.263033,-0.0713 0.501226,-0.12788 1.011568,-0.30178 1.53634,-0.25477 0.409143,0.002 0.801087,-0.0827 1.211297,-0.11575 1.244142,-0.10029 2.493282,-0.14569 3.733622,-0.29508 0.685591,-0.0687 1.371727,-0.13177 2.05672,-0.20618 0.09468,-0.0103 0.189132,-0.0223 0.283705,-0.0336 h -0.391708 -0.0863 -0.03979 c -0.09566,0 -0.81388,0.0305 -0.831991,5.2e-4 -0.461608,0.003 -0.513146,-0.0102 -0.259934,-0.77411 -0.05781,-0.17441 -0.09768,-0.30543 -0.122473,-0.41031 z m 60.635576,0 c 0.03533,0.0376 0.06987,0.0761 0.106453,0.11213 0.06341,0.13307 0.112823,0.22689 0.152447,0.30541 0.171786,0.0566 0.341225,0.11926 0.504878,0.19431 1.138764,0.61257 2.243897,1.28863 3.409093,1.85311 0.282011,0.13234 0.560215,0.27328 0.845944,0.39739 0.665531,0.28908 1.368214,0.48938 2.012797,0.82941 0.566192,0.24899 1.470752,0.70607 2.046388,0.90589 0.148165,0.0514 0.309345,0.0517 0.464055,0.0775 1.51065,0.25178 1.25641,1.77778 -0.25425,1.52601 -0.154698,-0.0258 -0.315374,-0.0276 -0.464054,-0.0775 -1.208532,-0.40582 -1.362067,-0.55344 -2.440162,-1.02732 -0.618453,-0.32711 -1.293937,-0.51764 -1.932697,-0.7953 -0.31465,-0.13677 -0.621741,-0.28925 -0.932759,-0.43409 -0.525862,-0.25194 -1.037738,-0.52984 -1.546677,-0.81338 0.02482,0.0797 0.04554,0.16064 0.05426,0.24339 0.025,0.23723 -0.107833,0.44881 -0.300757,0.59945 -0.05287,0.12472 -0.541898,0.28316 -0.596344,0.30386 -0.2037,0.0152 -0.408226,0.0672 -0.611333,0.0455 -0.141002,-0.0151 -0.274982,-0.0805 -0.396875,-0.15296 -0.29046,-0.17265 -0.505857,-0.39591 -0.678511,-0.65319 -0.168849,-0.0499 -0.337188,-0.10139 -0.504881,-0.15245 -0.212132,-0.0646 -0.418848,-0.15289 -0.637169,-0.19172 -0.14011,-0.0249 -0.282435,-0.0338 -0.423746,-0.0506 -0.691692,-0.065 -1.372288,-0.20147 -2.06189,-0.28474 -0.191926,-0.0232 -0.386765,-0.0291 -0.57671,-0.0651 -0.241062,-0.0457 -0.47689,-0.11417 -0.714684,-0.17466 -0.03735,0.0113 -0.07479,0.0223 -0.112139,0.0336 -0.958802,0.30764 -0.567539,0.2296 -2.097545,0.28215 -1.00362,0.0345 -1.377236,0.0162 -2.351278,-0.3297 -0.234331,-0.0832 -0.481497,-0.17658 -0.657841,-0.35191 -0.195427,-0.19429 -0.277085,-0.47639 -0.415478,-0.71469 0.05727,-0.0818 0.116771,-0.16214 0.175699,-0.24288 -0.172821,0.0164 -0.345117,0.0397 -0.517798,0.0584 -0.120835,0.0231 -0.240088,0.0599 -0.36277,0.0692 -1.770806,0.134 -3.556209,0.0208 -5.329388,0.005 -0.788376,-0.003 -1.576882,0.005 -2.365232,0.009 -0.327965,0.002 -0.656985,-0.0231 -0.98392,0.003 -0.195019,0.0155 -0.388196,0.0476 -0.582392,0.0713 -1.291479,0.18376 -2.614711,0.12573 -3.91604,0.0997 -0.243359,-0.005 -0.486902,-0.0268 -0.730189,-0.0191 -0.247939,0.008 -0.49394,0.0438 -0.74104,0.0656 -0.133424,0.0231 -0.266094,0.0523 -0.400492,0.0693 -1.064659,0.13133 -0.1676,0.006 -0.913638,0.0584 -0.358357,0.0251 -0.712644,0.0925 -1.071253,0.11369 -0.339627,0.02 -0.680048,0.0217 -1.020093,0.0326 -0.242157,-2.9e-4 -0.484515,-0.008 -0.72657,-0.001 -2.305174,0.0673 -0.434887,0.0418 -2.372465,0.12402 -0.980459,0.0416 -1.9532,0.0326 -2.933671,0.0176 -0.575535,0.0229 -1.162974,-0.0755 -1.737879,-0.0238 -0.413546,0.0372 -0.829148,0.15961 -1.230416,0.25838 -0.09364,0.0247 -0.18543,0.0594 -0.281119,0.0744 -0.974582,0.15251 -0.767617,0.0838 -1.639176,0.17518 -5.463328,0.57286 1.913183,-0.18143 -2.483054,0.2961 -0.69727,0.0757 -1.39555,0.14026 -2.093412,0.21033 -1.261277,0.1512 -2.531536,0.19872 -3.796668,0.30024 -0.265279,-0.0857 -0.497702,0.0753 -0.748273,0.0956 -0.171286,0.0139 -0.343009,0.0143 -0.5147,0.0217 -0.110159,-0.004 -0.220792,-0.0188 -0.330729,-0.0109 -0.120208,0.009 -0.291113,0.0701 -0.411861,0.10232 -0.0026,7.1e-4 -0.0051,0.001 -0.0078,0.002 -0.07424,0.34064 -0.451861,0.64803 -1.134298,0.64803 h -0.0052 c 0.0164,0.0771 0.02873,0.15489 0.03462,0.23409 0.01013,0.13594 -0.242715,0.12514 -0.36845,0.17777 -1.024589,0.42888 -2.103017,0.7793 -3.199805,0.96531 -0.113051,0.0192 -0.227997,0.0182 -0.343133,0.015 -0.01561,0.01 -0.03139,0.0189 -0.04702,0.0284 -0.0186,0.0256 -0.05297,0.0477 -0.105937,0.0646 -0.145486,0.0872 -0.291727,0.17255 -0.43925,0.25579 -0.02035,0.0115 -0.60125,0.33196 -0.751893,0.36897 -0.184838,0.0454 -0.375449,0.0612 -0.563272,0.092 -0.03057,2.9e-4 -0.06175,-0.001 -0.0925,-0.003 -0.291213,0.12782 -0.567087,0.22984 -0.8847,0.32039 -0.133967,0.30696 -1.177621,0.0861 -1.557012,-0.35243 v 10.56111 h 72.640529 v -16.85169 z m -56.346947,5.60843 c 0.03544,-0.0213 0.07062,-0.0431 0.105936,-0.0646 0.0068,-0.009 0.01119,-0.019 0.01394,-0.0294 -0.05605,-0.002 -0.112022,-0.003 -0.167947,-0.004 0.0029,0.0254 0.0056,0.0502 0.0088,0.0765 0.0021,0.0173 -0.03932,0.0338 -0.0956,0.0486 0.05419,-0.007 0.09891,-0.0159 0.134877,-0.0274 z m 53.643236,-4.25969 c -0.0227,0.018 -0.05077,0.0367 -0.07648,0.0548 0.289192,0.0423 0.578823,0.0816 0.87023,0.10955 0.192141,0.0294 0.384757,0.0551 0.576191,0.0884 -0.05764,-0.0133 -0.116535,-0.0272 -0.17363,-0.0408 -0.191145,-0.0455 -0.379748,-0.10238 -0.573609,-0.13436 -0.206311,-0.034 -0.414594,-0.0556 -0.622702,-0.0775 z m 3.517099,1.3286 c -0.0011,5.8e-4 -0.0021,1.2e-4 -0.0031,0.002 2.06e-4,3.2e-4 2.25e-4,8e-4 5.29e-4,0.001 0.0016,-0.001 0.0011,-2.7e-4 0.0026,-0.003 z m 0.01344,0.0253 c 0.01974,0.0297 0.04015,0.0593 0.06615,0.0827 0.02874,0.0258 0.09033,0.0699 0.110072,0.0367 0.01085,-0.0182 -0.08855,-0.0711 -0.176218,-0.11937 z m -0.08526,0.0207 c -0.116205,0.0838 -0.210942,0.19434 -0.240297,0.31471 0.0195,0.18306 0.18829,0.46243 0.447518,1.02216 0.0031,0.007 0.0085,0.0104 0.01291,0.0155 -0.07399,-0.4507 -0.193013,-0.89728 -0.220141,-1.35237 z m -60.330686,2.50424 c -0.176747,0.004 -0.399711,0.073 -0.415997,0.1478 -0.263765,1.21068 -0.250436,1.18272 0.231511,1.34668 0.09028,-0.49677 0.148021,-1.00016 0.268719,-1.49034 -0.02601,-0.003 -0.05437,-0.005 -0.08423,-0.004 z" />
    </clipPath>
    <clipPath
       clipPathUnits="userSpaceOnUse"
       id="clipPath5464">
      <path
         id="path5466"
         style="fill:#ff0000;fill-opacity:1;fill-rule:nonzero;stroke:none;stroke-width:0.264583"
         d="m 17.362248,177.54674 v 6.04304 c 0.635711,0.0567 1.272013,0.13187 1.895491,0.27078 0.02391,0.005 0.543205,0.12857 0.650606,0.1726 0.10718,0.0439 0.207722,0.10224 0.311609,0.15348 0.315512,0.25889 0.262682,0.16607 0.468705,0.65061 0.0314,0.0738 0.01749,0.16306 0.05478,0.23409 0.01451,0.0276 -0.0081,-0.0777 0.02015,-0.0909 0.0248,-0.0117 0.04272,0.0345 0.06408,0.0517 0.954613,0.76878 0.354087,1.71927 -0.463021,1.4981 -0.196219,0.28768 -0.659412,0.45088 -1.298112,0.24443 -0.06551,-0.0212 -0.13051,-0.0442 -0.195337,-0.0672 8.73e-4,0.0156 0.0017,0.0226 0.0026,0.0388 0.0085,0.15447 0,0.30934 0,0.46405 v 5.3e-4 c 0,0.0217 -7.94e-4,0.0425 -0.0016,0.0636 0.07014,0.0618 0.140193,0.13215 0.20929,0.21446 0.314442,0.37455 0.637206,0.74925 0.981852,1.10122 0.01974,0.006 0.04075,0.0133 0.05633,0.0134 0.151593,0.001 0.404172,0.001 0.65474,0.001 0.05922,-0.0203 0.118307,-0.0413 0.179318,-0.0548 0.167161,-0.0369 0.337157,-0.0576 0.505912,-0.0863 1.186131,-0.0163 2.375838,-0.18567 3.553788,0.062 0.498484,0.17646 0.585761,0.18416 1.102775,0.49919 0.517118,0.31509 -0.775464,-0.0565 0.582912,0.37465 0.195683,0.0621 1.332981,0.21793 1.49448,0.24133 1.540317,-0.0645 -0.969195,-0.0652 0.0181,0.79065 0.0099,0.006 0.0314,0.0193 0.04186,0.0258 -0.02633,-0.36393 0.03613,-0.69788 0.316259,-0.71055 0.307618,-0.0139 0.256644,0.39612 0.158647,0.81132 0.20056,0.0188 0.404389,0.0546 0.609783,0.10284 -0.109585,-0.28463 -0.239758,-0.63435 -0.13901,-0.81494 0.119163,-0.21363 0.400913,0.28592 0.6227,0.38912 2.548591,1.18576 2.88989,0.87063 6.599597,1.48467 7.333337,0.27883 9.481582,0.45849 17.866609,0.16381 3.27946,-0.11525 6.548855,-0.43065 9.82214,-0.66249 9.449142,-0.66926 8.560533,-0.49699 14.778943,-1.21336 1.102444,-0.127 2.20386,-0.26201 3.305741,-0.39378 0.216744,-0.14437 0.42328,-0.3019 0.608748,-0.48627 0.516591,-0.41943 0.863819,-0.65525 1.546677,-0.8382 0.107233,-0.0287 0.221782,-8.9e-4 0.332796,-5.2e-4 0.606988,0.002 0.564097,0.004 1.146699,0.0124 0.236736,0.003 0.473337,0.006 0.710036,0.008 0.111932,-0.0451 0.244678,-0.0982 0.405143,-0.16071 0.351695,-0.13703 0.705577,-0.2686 1.051615,-0.4191 0.06474,-0.76259 0.263822,-1.53197 0.701249,-2.15697 0.03645,-0.0442 0.07172,-0.0863 0.106969,-0.12661 -0.227997,-0.28446 -0.460042,-0.5663 -0.642853,-0.88057 -0.01365,-0.0234 0.101912,-0.11669 0.257347,-0.22737 -0.14151,-0.26503 -0.177345,-0.35152 0.03617,-0.0258 0.287845,-0.20205 0.683858,-0.44881 0.690398,-0.44959 0.200266,-0.0364 0.39782,-0.0967 0.600996,-0.10904 0.08529,-0.005 0.170381,0.006 0.255283,0.0191 v -6.22546 z m 71.093334,6.76496 c -0.01254,0.009 -0.02408,0.0172 -0.03617,0.0258 0.09018,0.16889 0.233027,0.42978 0.365871,0.67386 -0.0085,-0.0735 -0.01146,-0.13102 -0.0093,-0.16433 -0.07671,-0.14333 -0.170701,-0.30564 -0.292489,-0.493 -0.01212,-0.0186 -0.01709,-0.0259 -0.02791,-0.0424 z m 1.546677,3.30057 c -0.07845,0.12846 -0.110296,0.18328 -0.168465,0.2806 0.07339,0.15478 0.132358,0.31397 0.158647,0.48318 0.02474,0.15917 -0.255612,0.19877 -0.395843,0.27802 -0.442447,0.25006 -0.796357,0.41832 -1.17719,0.57774 -0.05545,0.15941 -0.148735,0.27945 -0.267165,0.36897 0.0079,6.4e-4 0.01635,0.001 0.02429,0.002 -0.07985,0.0782 -0.157517,0.15953 -0.238744,0.23617 -0.132942,0.0367 -0.263117,0.0834 -0.398425,0.11007 -0.387419,0.0764 -0.420103,-0.14544 -0.689364,0.31109 -0.481063,0.68953 -0.891596,1.4378 -1.630908,1.89394 -0.301413,0.20879 -0.607245,0.38975 -0.911571,0.59015 -0.109554,0.0721 -0.201639,0.17548 -0.322977,0.2253 -0.385496,0.15826 -0.425567,0.13569 -0.725022,0.11163 -0.302916,-0.0238 -0.593307,-0.0599 -0.898652,-0.0367 -0.584753,0.0445 -1.162902,0.17444 -1.745631,0.23771 -0.755417,0.098 -1.50889,0.19436 -2.269628,0.24236 -0.09302,0.006 -0.187026,0.0132 -0.279572,0.002 -0.03867,-0.005 -0.06814,-0.0551 -0.106452,-0.0481 -0.103092,0.0189 -0.193641,0.0807 -0.290423,0.12093 -0.148492,0.0221 -0.295965,0.0517 -0.445449,0.0656 -0.155546,0.0146 -0.309364,-0.16428 -0.468704,0.001 -0.544108,0.0631 -1.078498,0.20805 -1.624193,0.26355 -0.256453,0.0186 -0.512453,0.0479 -0.769461,0.0558 -0.274664,0.008 -0.78218,-0.0434 -1.058333,-0.0248 -0.277689,0.0187 -0.547196,0.17655 -0.817521,0.22945 -0.525044,0.10109 -1.056822,0.15226 -1.588018,0.20722 h 19.104779 z m -71.698467,1.35031 c -4.76e-4,0.0152 -0.0024,0.0292 -0.0078,0.0403 0.01815,8e-4 0.02729,0.001 0.04392,0.002 -0.01226,-0.014 -0.02396,-0.0284 -0.03617,-0.0424 z m 0.05581,0.0656 c -0.03269,3.1e-4 -0.04793,9.5e-4 -0.09043,0.001 -0.0051,0.002 -0.01057,0.004 -0.01705,0.005 -0.193586,0.0371 -0.389797,0.0392 -0.587044,0.0269 -0.101087,0.008 -0.202174,0.0145 -0.302824,0.0186 v 5.31854 H 41.51633 c -0.142825,-0.0171 -0.285919,-0.0322 -0.428398,-0.0517 -1.187542,-0.1627 -2.367737,-0.44497 -3.57084,-0.45217 -0.247634,-0.0374 -0.496702,-0.0674 -0.743109,-0.11213 -0.03785,-0.007 -0.0059,-0.12667 -0.0863,-0.0765 -0.293701,-0.0299 -0.701455,0.0794 -1.006657,0.031 -0.172511,-0.0182 -0.346258,-0.0294 -0.517798,-0.0553 -0.375277,-0.0566 0.03992,-0.0451 -0.359667,-0.0982 -0.101174,-0.0134 -0.212915,0.026 -0.305924,-0.016 -0.06556,-0.0296 -0.127598,-0.066 -0.188103,-0.10542 -0.06802,-7.4e-4 -0.163269,-0.0142 -0.216008,-0.0155 -0.445069,-0.011 -0.845289,-0.15663 -1.26814,-0.28009 -0.150117,-0.0512 -0.301464,-0.0981 -0.450102,-0.15348 -0.02551,-0.01 -0.05678,-0.0175 -0.0708,-0.0408 -0.0075,-0.0125 0.03887,-0.0321 0.02479,-0.0362 -0.153805,-0.0456 -0.556565,0.0428 -0.719336,-0.004 -0.894483,-0.0108 -1.788364,-0.013 -2.681489,0.0486 -0.190344,-0.01 -0.381431,-0.0103 -0.571026,-0.03 -0.104934,-0.0109 -0.206905,-0.0415 -0.310574,-0.061 -0.571971,-0.10766 -1.149588,-0.18389 -1.718242,-0.30851 -0.590872,-0.12626 -1.195155,-0.22417 -1.717208,-0.54209 -0.0176,0.002 -0.03505,0.005 -0.05271,0.005 -0.494345,0.0138 -1.002387,-0.0517 -1.460893,-0.24391 -0.237718,-0.0919 -0.480521,-0.17119 -0.715202,-0.27027 -0.290863,-0.0104 -0.43717,-0.0151 -0.47594,-0.14676 -0.107004,0.0299 -0.219051,0.0774 -0.297656,0.0491 -0.165496,-0.0158 -0.3338,-0.0139 -0.49661,-0.0475 -0.396218,-0.0819 -0.618976,-0.50542 -0.968934,-0.67231 -0.654344,-0.49383 -1.241613,-1.06872 -1.78387,-1.68362 z m 70.029833,0.39429 c 0.01529,0.0154 -0.08264,0.19209 -0.147277,0.185 -0.02053,-0.002 -0.04355,-0.003 -0.0646,-0.005 0.06297,-0.0617 0.127381,-0.1218 0.197403,-0.17518 0.0074,-0.006 0.01217,-0.007 0.01447,-0.005 z m -3.961513,0.45733 c -0.155599,0.0936 -0.31259,0.21287 -0.472324,0.30851 -0.03519,0.0275 -0.07005,0.0553 -0.104902,0.0832 0.252767,-0.0623 0.503605,-0.13174 0.753441,-0.20515 -0.07331,-0.0539 -0.132686,-0.11712 -0.176215,-0.18656 z m 1.732708,0.20464 c -0.01722,0.006 -0.03444,0.0118 -0.05168,0.0176 0.06125,0.11128 0.122108,0.22281 0.185518,0.3328 0.0058,0.01 2.65e-4,-0.0234 -0.0026,-0.0346 -0.01707,-0.0657 -0.02053,-0.13881 -0.05736,-0.19586 -0.02418,-0.0374 -0.04877,-0.0794 -0.0739,-0.11989 z m -1.703771,0.10956 c -0.106894,0.0737 -0.214765,0.14776 -0.29559,0.2067 0.02418,-0.002 0.02692,-0.002 0.0553,-0.005 0.11052,-0.089 0.176673,-0.14646 0.240295,-0.20153 z m -59.635636,1.82676 c -0.05682,4e-4 -0.11301,0.008 -0.169499,0.015 0.0056,0.002 0.01476,0.007 0.01912,0.009 0.05017,-0.008 0.201169,-0.0241 0.150379,-0.0238 z m 49.373732,0.0403 c -2.270011,0.20034 -4.266412,0.29847 -9.970453,0.7028 -3.276499,0.23225 -6.549255,0.54807 -9.831959,0.66352 -1.039884,0.0366 -1.979522,0.0655 -2.849954,0.0884 0.103066,0.0156 0.206055,0.0291 0.31006,0.0346 2.340049,0.12364 4.692258,0.019 7.033678,-0.006 0.185986,-4.2e-4 0.372473,0.0105 0.558107,-10e-4 0.301715,0.0531 0.572101,-0.10454 0.861444,-0.13074 0.871942,-0.0789 1.744411,-0.0473 2.61793,-0.0315 0.969661,0.0431 1.939859,0.0192 2.909898,0.0155 0.868302,-0.0511 1.757365,0.10553 2.616377,-0.0677 0.01691,-0.003 0.02148,-0.0287 0.03772,-0.0346 0.138247,-0.05 0.281286,-0.0871 0.421679,-0.13075 1.066866,-0.30344 2.193423,-0.26498 3.274738,-0.48885 0.666369,-0.30306 1.362802,-0.2283 2.063437,-0.2341 -0.01394,-0.12741 -0.03138,-0.25379 -0.05271,-0.37879 z m -40.501406,1.03042 c -0.0236,0.0151 0.270528,0.22392 0.368969,0.31368 0.04329,0.002 0.09338,-0.008 0.142111,-0.0155 -0.154049,-0.10962 -0.304618,-0.22618 -0.480074,-0.29197 -0.01783,-0.007 -0.02763,-0.008 -0.03101,-0.006 z" />
    </clipPath>
    <clipPath
       clipPathUnits="userSpaceOnUse"
       id="clipPath5172-8">
      <path
         id="path5174-9"
         style="fill:#ff0000;fill-opacity:1;fill-rule:nonzero;stroke:none;stroke-width:0.264583"
         d="m 61.862891,195.7725 -2.858223,5.3e-4 c 0.028,0.0329 0.05183,0.0675 0.07234,0.10283 0.05822,-9e-4 0.116454,-6.9e-4 0.174668,-0.002 0.700047,-0.0124 1.399796,-0.0423 2.099095,-0.077 0.170479,-0.008 0.341551,-0.0139 0.512115,-0.0243 z m -31.665252,5.3e-4 v 5.63634 c 0.08548,-0.10295 0.212561,-0.20851 0.395325,-0.31522 0.175239,-0.0675 0.345691,-0.14862 0.52555,-0.20257 0.08555,-0.0257 0.182583,0.0733 0.267684,0.0186 0.25949,-0.0857 0.482907,-0.24874 0.746207,-0.32349 -0.0097,-0.14528 0.02693,-0.32757 0.111622,-0.56638 0.121571,-0.2989 0.244409,-0.53527 0.449586,-0.7922 0.326514,-0.40887 -0.04764,0.10169 0.196368,-0.1819 0.0284,-0.033 0.04872,-0.0723 0.07286,-0.10852 0.288549,-0.38401 0.593227,-0.5993 1.070737,-0.59273 0.03183,4.5e-4 0.06477,0.002 0.09818,0.004 h 4.389398 c 0.05032,0 0.09871,0.002 0.145727,0.005 0.277736,-0.24938 0.401902,-0.43707 -0.100253,-0.41909 -0.03836,0.009 -0.06254,0.008 -0.183452,0.0103 0.03923,-0.002 0.0786,-0.005 0.117822,-0.008 0.02426,-0.002 0.04378,-0.002 0.06563,-0.003 0.03747,-0.009 0.0885,-0.0268 0.263033,-0.0713 0.501226,-0.12788 1.011568,-0.30178 1.53634,-0.25477 0.409143,0.002 0.801087,-0.0827 1.211297,-0.11575 1.244142,-0.10029 2.493282,-0.14569 3.733622,-0.29508 0.685591,-0.0687 1.371727,-0.13177 2.05672,-0.20618 0.09468,-0.0103 0.189132,-0.0223 0.283705,-0.0336 h -0.391708 -0.0863 -0.03979 c -0.09566,0 -0.81388,0.0305 -0.831991,5.2e-4 -0.461608,0.003 -0.513146,-0.0102 -0.259934,-0.77411 -0.05781,-0.17441 -0.09768,-0.30543 -0.122473,-0.41031 z m 60.635576,0 c 0.03533,0.0376 0.06987,0.0761 0.106453,0.11213 0.06341,0.13307 0.112823,0.22689 0.152447,0.30541 0.171786,0.0566 0.341225,0.11926 0.504878,0.19431 1.138764,0.61257 2.243897,1.28863 3.409093,1.85311 0.282011,0.13234 0.560215,0.27328 0.845944,0.39739 0.665531,0.28908 1.368214,0.48938 2.012797,0.82941 0.566192,0.24899 1.470752,0.70607 2.046388,0.90589 0.148165,0.0514 0.309345,0.0517 0.464055,0.0775 1.51065,0.25178 1.25641,1.77778 -0.25425,1.52601 -0.154698,-0.0258 -0.315374,-0.0276 -0.464054,-0.0775 -1.208532,-0.40582 -1.362067,-0.55344 -2.440162,-1.02732 -0.618453,-0.32711 -1.293937,-0.51764 -1.932697,-0.7953 -0.31465,-0.13677 -0.621741,-0.28925 -0.932759,-0.43409 -0.525862,-0.25194 -1.037738,-0.52984 -1.546677,-0.81338 0.02482,0.0797 0.04554,0.16064 0.05426,0.24339 0.025,0.23723 -0.107833,0.44881 -0.300757,0.59945 -0.05287,0.12472 -0.541898,0.28316 -0.596344,0.30386 -0.2037,0.0152 -0.408226,0.0672 -0.611333,0.0455 -0.141002,-0.0151 -0.274982,-0.0805 -0.396875,-0.15296 -0.29046,-0.17265 -0.505857,-0.39591 -0.678511,-0.65319 -0.168849,-0.0499 -0.337188,-0.10139 -0.504881,-0.15245 -0.212132,-0.0646 -0.418848,-0.15289 -0.637169,-0.19172 -0.14011,-0.0249 -0.282435,-0.0338 -0.423746,-0.0506 -0.691692,-0.065 -1.372288,-0.20147 -2.06189,-0.28474 -0.191926,-0.0232 -0.386765,-0.0291 -0.57671,-0.0651 -0.241062,-0.0457 -0.47689,-0.11417 -0.714684,-0.17466 -0.03735,0.0113 -0.07479,0.0223 -0.112139,0.0336 -0.958802,0.30764 -0.567539,0.2296 -2.097545,0.28215 -1.00362,0.0345 -1.377236,0.0162 -2.351278,-0.3297 -0.234331,-0.0832 -0.481497,-0.17658 -0.657841,-0.35191 -0.195427,-0.19429 -0.277085,-0.47639 -0.415478,-0.71469 0.05727,-0.0818 0.116771,-0.16214 0.175699,-0.24288 -0.172821,0.0164 -0.345117,0.0397 -0.517798,0.0584 -0.120835,0.0231 -0.240088,0.0599 -0.36277,0.0692 -1.770806,0.134 -3.556209,0.0208 -5.329388,0.005 -0.788376,-0.003 -1.576882,0.005 -2.365232,0.009 -0.327965,0.002 -0.656985,-0.0231 -0.98392,0.003 -0.195019,0.0155 -0.388196,0.0476 -0.582392,0.0713 -1.291479,0.18376 -2.614711,0.12573 -3.91604,0.0997 -0.243359,-0.005 -0.486902,-0.0268 -0.730189,-0.0191 -0.247939,0.008 -0.49394,0.0438 -0.74104,0.0656 -0.133424,0.0231 -0.266094,0.0523 -0.400492,0.0693 -1.064659,0.13133 -0.1676,0.006 -0.913638,0.0584 -0.358357,0.0251 -0.712644,0.0925 -1.071253,0.11369 -0.339627,0.02 -0.680048,0.0217 -1.020093,0.0326 -0.242157,-2.9e-4 -0.484515,-0.008 -0.72657,-0.001 -2.305174,0.0673 -0.434887,0.0418 -2.372465,0.12402 -0.980459,0.0416 -1.9532,0.0326 -2.933671,0.0176 -0.575535,0.0229 -1.162974,-0.0755 -1.737879,-0.0238 -0.413546,0.0372 -0.829148,0.15961 -1.230416,0.25838 -0.09364,0.0247 -0.18543,0.0594 -0.281119,0.0744 -0.974582,0.15251 -0.767617,0.0838 -1.639176,0.17518 -5.463328,0.57286 1.913183,-0.18143 -2.483054,0.2961 -0.69727,0.0757 -1.39555,0.14026 -2.093412,0.21033 -1.261277,0.1512 -2.531536,0.19872 -3.796668,0.30024 -0.265279,-0.0857 -0.497702,0.0753 -0.748273,0.0956 -0.171286,0.0139 -0.343009,0.0143 -0.5147,0.0217 -0.110159,-0.004 -0.220792,-0.0188 -0.330729,-0.0109 -0.120208,0.009 -0.291113,0.0701 -0.411861,0.10232 -0.0026,7.1e-4 -0.0051,0.001 -0.0078,0.002 -0.07424,0.34064 -0.451861,0.64803 -1.134298,0.64803 h -0.0052 c 0.0164,0.0771 0.02873,0.15489 0.03462,0.23409 0.01013,0.13594 -0.242715,0.12514 -0.36845,0.17777 -1.024589,0.42888 -2.103017,0.7793 -3.199805,0.96531 -0.113051,0.0192 -0.227997,0.0182 -0.343133,0.015 -0.01561,0.01 -0.03139,0.0189 -0.04702,0.0284 -0.0186,0.0256 -0.05297,0.0477 -0.105937,0.0646 -0.145486,0.0872 -0.291727,0.17255 -0.43925,0.25579 -0.02035,0.0115 -0.60125,0.33196 -0.751893,0.36897 -0.184838,0.0454 -0.375449,0.0612 -0.563272,0.092 -0.03057,2.9e-4 -0.06175,-0.001 -0.0925,-0.003 -0.291213,0.12782 -0.567087,0.22984 -0.8847,0.32039 -0.133967,0.30696 -1.177621,0.0861 -1.557012,-0.35243 v 10.56111 h 72.640529 v -16.85169 z m -56.346947,5.60843 c 0.03544,-0.0213 0.07062,-0.0431 0.105936,-0.0646 0.0068,-0.009 0.01119,-0.019 0.01394,-0.0294 -0.05605,-0.002 -0.112022,-0.003 -0.167947,-0.004 0.0029,0.0254 0.0056,0.0502 0.0088,0.0765 0.0021,0.0173 -0.03932,0.0338 -0.0956,0.0486 0.05419,-0.007 0.09891,-0.0159 0.134877,-0.0274 z m 53.643236,-4.25969 c -0.0227,0.018 -0.05077,0.0367 -0.07648,0.0548 0.289192,0.0423 0.578823,0.0816 0.87023,0.10955 0.192141,0.0294 0.384757,0.0551 0.576191,0.0884 -0.05764,-0.0133 -0.116535,-0.0272 -0.17363,-0.0408 -0.191145,-0.0455 -0.379748,-0.10238 -0.573609,-0.13436 -0.206311,-0.034 -0.414594,-0.0556 -0.622702,-0.0775 z m 3.517099,1.3286 c -0.0011,5.8e-4 -0.0021,1.2e-4 -0.0031,0.002 2.06e-4,3.2e-4 2.25e-4,8e-4 5.29e-4,0.001 0.0016,-0.001 0.0011,-2.7e-4 0.0026,-0.003 z m 0.01344,0.0253 c 0.01974,0.0297 0.04015,0.0593 0.06615,0.0827 0.02874,0.0258 0.09033,0.0699 0.110072,0.0367 0.01085,-0.0182 -0.08855,-0.0711 -0.176218,-0.11937 z m -0.08526,0.0207 c -0.116205,0.0838 -0.210942,0.19434 -0.240297,0.31471 0.0195,0.18306 0.18829,0.46243 0.447518,1.02216 0.0031,0.007 0.0085,0.0104 0.01291,0.0155 -0.07399,-0.4507 -0.193013,-0.89728 -0.220141,-1.35237 z m -60.330686,2.50424 c -0.176747,0.004 -0.399711,0.073 -0.415997,0.1478 -0.263765,1.21068 -0.250436,1.18272 0.231511,1.34668 0.09028,-0.49677 0.148021,-1.00016 0.268719,-1.49034 -0.02601,-0.003 -0.05437,-0.005 -0.08423,-0.004 z" />
    </clipPath>
    <clipPath
       clipPathUnits="userSpaceOnUse"
       id="clipPath5464-9">
      <path
         id="path5466-9"
         style="fill:#ff0000;fill-opacity:1;fill-rule:nonzero;stroke:none;stroke-width:0.264583"
         d="m 17.362248,177.54674 v 6.04304 c 0.635711,0.0567 1.272013,0.13187 1.895491,0.27078 0.02391,0.005 0.543205,0.12857 0.650606,0.1726 0.10718,0.0439 0.207722,0.10224 0.311609,0.15348 0.315512,0.25889 0.262682,0.16607 0.468705,0.65061 0.0314,0.0738 0.01749,0.16306 0.05478,0.23409 0.01451,0.0276 -0.0081,-0.0777 0.02015,-0.0909 0.0248,-0.0117 0.04272,0.0345 0.06408,0.0517 0.954613,0.76878 0.354087,1.71927 -0.463021,1.4981 -0.196219,0.28768 -0.659412,0.45088 -1.298112,0.24443 -0.06551,-0.0212 -0.13051,-0.0442 -0.195337,-0.0672 8.73e-4,0.0156 0.0017,0.0226 0.0026,0.0388 0.0085,0.15447 0,0.30934 0,0.46405 v 5.3e-4 c 0,0.0217 -7.94e-4,0.0425 -0.0016,0.0636 0.07014,0.0618 0.140193,0.13215 0.20929,0.21446 0.314442,0.37455 0.637206,0.74925 0.981852,1.10122 0.01974,0.006 0.04075,0.0133 0.05633,0.0134 0.151593,0.001 0.404172,0.001 0.65474,0.001 0.05922,-0.0203 0.118307,-0.0413 0.179318,-0.0548 0.167161,-0.0369 0.337157,-0.0576 0.505912,-0.0863 1.186131,-0.0163 2.375838,-0.18567 3.553788,0.062 0.498484,0.17646 0.585761,0.18416 1.102775,0.49919 0.517118,0.31509 -0.775464,-0.0565 0.582912,0.37465 0.195683,0.0621 1.332981,0.21793 1.49448,0.24133 1.540317,-0.0645 -0.969195,-0.0652 0.0181,0.79065 0.0099,0.006 0.0314,0.0193 0.04186,0.0258 -0.02633,-0.36393 0.03613,-0.69788 0.316259,-0.71055 0.307618,-0.0139 0.256644,0.39612 0.158647,0.81132 0.20056,0.0188 0.404389,0.0546 0.609783,0.10284 -0.109585,-0.28463 -0.239758,-0.63435 -0.13901,-0.81494 0.119163,-0.21363 0.400913,0.28592 0.6227,0.38912 2.548591,1.18576 2.88989,0.87063 6.599597,1.48467 7.333337,0.27883 9.481582,0.45849 17.866609,0.16381 3.27946,-0.11525 6.548855,-0.43065 9.82214,-0.66249 9.449142,-0.66926 8.560533,-0.49699 14.778943,-1.21336 1.102444,-0.127 2.20386,-0.26201 3.305741,-0.39378 0.216744,-0.14437 0.42328,-0.3019 0.608748,-0.48627 0.516591,-0.41943 0.863819,-0.65525 1.546677,-0.8382 0.107233,-0.0287 0.221782,-8.9e-4 0.332796,-5.2e-4 0.606988,0.002 0.564097,0.004 1.146699,0.0124 0.236736,0.003 0.473337,0.006 0.710036,0.008 0.111932,-0.0451 0.244678,-0.0982 0.405143,-0.16071 0.351695,-0.13703 0.705577,-0.2686 1.051615,-0.4191 0.06474,-0.76259 0.263822,-1.53197 0.701249,-2.15697 0.03645,-0.0442 0.07172,-0.0863 0.106969,-0.12661 -0.227997,-0.28446 -0.460042,-0.5663 -0.642853,-0.88057 -0.01365,-0.0234 0.101912,-0.11669 0.257347,-0.22737 -0.14151,-0.26503 -0.177345,-0.35152 0.03617,-0.0258 0.287845,-0.20205 0.683858,-0.44881 0.690398,-0.44959 0.200266,-0.0364 0.39782,-0.0967 0.600996,-0.10904 0.08529,-0.005 0.170381,0.006 0.255283,0.0191 v -6.22546 z m 71.093334,6.76496 c -0.01254,0.009 -0.02408,0.0172 -0.03617,0.0258 0.09018,0.16889 0.233027,0.42978 0.365871,0.67386 -0.0085,-0.0735 -0.01146,-0.13102 -0.0093,-0.16433 -0.07671,-0.14333 -0.170701,-0.30564 -0.292489,-0.493 -0.01212,-0.0186 -0.01709,-0.0259 -0.02791,-0.0424 z m 1.546677,3.30057 c -0.07845,0.12846 -0.110296,0.18328 -0.168465,0.2806 0.07339,0.15478 0.132358,0.31397 0.158647,0.48318 0.02474,0.15917 -0.255612,0.19877 -0.395843,0.27802 -0.442447,0.25006 -0.796357,0.41832 -1.17719,0.57774 -0.05545,0.15941 -0.148735,0.27945 -0.267165,0.36897 0.0079,6.4e-4 0.01635,0.001 0.02429,0.002 -0.07985,0.0782 -0.157517,0.15953 -0.238744,0.23617 -0.132942,0.0367 -0.263117,0.0834 -0.398425,0.11007 -0.387419,0.0764 -0.420103,-0.14544 -0.689364,0.31109 -0.481063,0.68953 -0.891596,1.4378 -1.630908,1.89394 -0.301413,0.20879 -0.607245,0.38975 -0.911571,0.59015 -0.109554,0.0721 -0.201639,0.17548 -0.322977,0.2253 -0.385496,0.15826 -0.425567,0.13569 -0.725022,0.11163 -0.302916,-0.0238 -0.593307,-0.0599 -0.898652,-0.0367 -0.584753,0.0445 -1.162902,0.17444 -1.745631,0.23771 -0.755417,0.098 -1.50889,0.19436 -2.269628,0.24236 -0.09302,0.006 -0.187026,0.0132 -0.279572,0.002 -0.03867,-0.005 -0.06814,-0.0551 -0.106452,-0.0481 -0.103092,0.0189 -0.193641,0.0807 -0.290423,0.12093 -0.148492,0.0221 -0.295965,0.0517 -0.445449,0.0656 -0.155546,0.0146 -0.309364,-0.16428 -0.468704,0.001 -0.544108,0.0631 -1.078498,0.20805 -1.624193,0.26355 -0.256453,0.0186 -0.512453,0.0479 -0.769461,0.0558 -0.274664,0.008 -0.78218,-0.0434 -1.058333,-0.0248 -0.277689,0.0187 -0.547196,0.17655 -0.817521,0.22945 -0.525044,0.10109 -1.056822,0.15226 -1.588018,0.20722 h 19.104779 z m -71.698467,1.35031 c -4.76e-4,0.0152 -0.0024,0.0292 -0.0078,0.0403 0.01815,8e-4 0.02729,0.001 0.04392,0.002 -0.01226,-0.014 -0.02396,-0.0284 -0.03617,-0.0424 z m 0.05581,0.0656 c -0.03269,3.1e-4 -0.04793,9.5e-4 -0.09043,0.001 -0.0051,0.002 -0.01057,0.004 -0.01705,0.005 -0.193586,0.0371 -0.389797,0.0392 -0.587044,0.0269 -0.101087,0.008 -0.202174,0.0145 -0.302824,0.0186 v 5.31854 H 41.51633 c -0.142825,-0.0171 -0.285919,-0.0322 -0.428398,-0.0517 -1.187542,-0.1627 -2.367737,-0.44497 -3.57084,-0.45217 -0.247634,-0.0374 -0.496702,-0.0674 -0.743109,-0.11213 -0.03785,-0.007 -0.0059,-0.12667 -0.0863,-0.0765 -0.293701,-0.0299 -0.701455,0.0794 -1.006657,0.031 -0.172511,-0.0182 -0.346258,-0.0294 -0.517798,-0.0553 -0.375277,-0.0566 0.03992,-0.0451 -0.359667,-0.0982 -0.101174,-0.0134 -0.212915,0.026 -0.305924,-0.016 -0.06556,-0.0296 -0.127598,-0.066 -0.188103,-0.10542 -0.06802,-7.4e-4 -0.163269,-0.0142 -0.216008,-0.0155 -0.445069,-0.011 -0.845289,-0.15663 -1.26814,-0.28009 -0.150117,-0.0512 -0.301464,-0.0981 -0.450102,-0.15348 -0.02551,-0.01 -0.05678,-0.0175 -0.0708,-0.0408 -0.0075,-0.0125 0.03887,-0.0321 0.02479,-0.0362 -0.153805,-0.0456 -0.556565,0.0428 -0.719336,-0.004 -0.894483,-0.0108 -1.788364,-0.013 -2.681489,0.0486 -0.190344,-0.01 -0.381431,-0.0103 -0.571026,-0.03 -0.104934,-0.0109 -0.206905,-0.0415 -0.310574,-0.061 -0.571971,-0.10766 -1.149588,-0.18389 -1.718242,-0.30851 -0.590872,-0.12626 -1.195155,-0.22417 -1.717208,-0.54209 -0.0176,0.002 -0.03505,0.005 -0.05271,0.005 -0.494345,0.0138 -1.002387,-0.0517 -1.460893,-0.24391 -0.237718,-0.0919 -0.480521,-0.17119 -0.715202,-0.27027 -0.290863,-0.0104 -0.43717,-0.0151 -0.47594,-0.14676 -0.107004,0.0299 -0.219051,0.0774 -0.297656,0.0491 -0.165496,-0.0158 -0.3338,-0.0139 -0.49661,-0.0475 -0.396218,-0.0819 -0.618976,-0.50542 -0.968934,-0.67231 -0.654344,-0.49383 -1.241613,-1.06872 -1.78387,-1.68362 z m 70.029833,0.39429 c 0.01529,0.0154 -0.08264,0.19209 -0.147277,0.185 -0.02053,-0.002 -0.04355,-0.003 -0.0646,-0.005 0.06297,-0.0617 0.127381,-0.1218 0.197403,-0.17518 0.0074,-0.006 0.01217,-0.007 0.01447,-0.005 z m -3.961513,0.45733 c -0.155599,0.0936 -0.31259,0.21287 -0.472324,0.30851 -0.03519,0.0275 -0.07005,0.0553 -0.104902,0.0832 0.252767,-0.0623 0.503605,-0.13174 0.753441,-0.20515 -0.07331,-0.0539 -0.132686,-0.11712 -0.176215,-0.18656 z m 1.732708,0.20464 c -0.01722,0.006 -0.03444,0.0118 -0.05168,0.0176 0.06125,0.11128 0.122108,0.22281 0.185518,0.3328 0.0058,0.01 2.65e-4,-0.0234 -0.0026,-0.0346 -0.01707,-0.0657 -0.02053,-0.13881 -0.05736,-0.19586 -0.02418,-0.0374 -0.04877,-0.0794 -0.0739,-0.11989 z m -1.703771,0.10956 c -0.106894,0.0737 -0.214765,0.14776 -0.29559,0.2067 0.02418,-0.002 0.02692,-0.002 0.0553,-0.005 0.11052,-0.089 0.176673,-0.14646 0.240295,-0.20153 z m -59.635636,1.82676 c -0.05682,4e-4 -0.11301,0.008 -0.169499,0.015 0.0056,0.002 0.01476,0.007 0.01912,0.009 0.05017,-0.008 0.201169,-0.0241 0.150379,-0.0238 z m 49.373732,0.0403 c -2.270011,0.20034 -4.266412,0.29847 -9.970453,0.7028 -3.276499,0.23225 -6.549255,0.54807 -9.831959,0.66352 -1.039884,0.0366 -1.979522,0.0655 -2.849954,0.0884 0.103066,0.0156 0.206055,0.0291 0.31006,0.0346 2.340049,0.12364 4.692258,0.019 7.033678,-0.006 0.185986,-4.2e-4 0.372473,0.0105 0.558107,-10e-4 0.301715,0.0531 0.572101,-0.10454 0.861444,-0.13074 0.871942,-0.0789 1.744411,-0.0473 2.61793,-0.0315 0.969661,0.0431 1.939859,0.0192 2.909898,0.0155 0.868302,-0.0511 1.757365,0.10553 2.616377,-0.0677 0.01691,-0.003 0.02148,-0.0287 0.03772,-0.0346 0.138247,-0.05 0.281286,-0.0871 0.421679,-0.13075 1.066866,-0.30344 2.193423,-0.26498 3.274738,-0.48885 0.666369,-0.30306 1.362802,-0.2283 2.063437,-0.2341 -0.01394,-0.12741 -0.03138,-0.25379 -0.05271,-0.37879 z m -40.501406,1.03042 c -0.0236,0.0151 0.270528,0.22392 0.368969,0.31368 0.04329,0.002 0.09338,-0.008 0.142111,-0.0155 -0.154049,-0.10962 -0.304618,-0.22618 -0.480074,-0.29197 -0.01783,-0.007 -0.02763,-0.008 -0.03101,-0.006 z" />
    </clipPath>
    <marker
       style="overflow:visible"
       id="marker2243-8-8-3"
       refX="0"
       refY="0"
       orient="auto"
       inkscape:stockid="Arrow1Lend"
       inkscape:isstock="true">
      <path
         transform="matrix(-0.8,0,0,-0.8,-10,0)"
         style="fill:context-stroke;fill-rule:evenodd;stroke:context-stroke;stroke-width:1pt"
         d="M 0,0 5,-5 -12.5,0 5,5 Z"
         id="path2241-4-2-3" />
    </marker>
  </defs>
  <sodipodi:namedview
     id="base"
     pagecolor="#ffffff"
     bordercolor="#666666"
     borderopacity="1.0"
     inkscape:pageopacity="0.0"
     inkscape:pageshadow="2"
     inkscape:zoom="1.3301405"
     inkscape:cx="631.13634"
     inkscape:cy="96.230437"
     inkscape:document-units="mm"
     inkscape:current-layer="layer1"
     showgrid="false"
     showborder="true"
     width="200mm"
     showguides="true"
     inkscape:guide-bbox="true"
     inkscape:window-width="1280"
     inkscape:window-height="680"
     inkscape:window-x="1728"
     inkscape:window-y="25"
     inkscape:window-maximized="0"
     inkscape:pagecheckerboard="0"
     height="80mm">
    <inkscape:grid
       type="xygrid"
       id="grid815"
       units="mm"
       spacingx="10"
       spacingy="10"
       empspacing="4"
       dotted="false" />
  </sodipodi:namedview>
  <metadata
     id="metadata5">
    <rdf:RDF>
      <cc:Work
         rdf:about="">
        <dc:format>image/svg+xml</dc:format>
        <dc:type
           rdf:resource="http://purl.org/dc/dcmitype/StillImage" />
      </cc:Work>
    </rdf:RDF>
  </metadata>
  <g
     inkscape:label="Layer 1"
     inkscape:groupmode="layer"
     id="layer1"
     transform="translate(0,-177)">
    <path
       style="fill:none;stroke:#000000;stroke-width:0.26499999;stroke-linecap:butt;stroke-linejoin:miter;stroke-opacity:0.38137472;stroke-miterlimit:4;stroke-dasharray:none;stroke-dashoffset:0;fill-opacity:1"
       d="m 135.82469,215.33761 10.35006,-15.55932"
       id="path1028"
       inkscape:path-effect="#path-effect1030"
       inkscape:original-d="m 135.82469,215.33761 c 3.45029,-5.18617 6.90031,-10.37262 10.35006,-15.55932" />
    <path
       style="fill:none;stroke:#000000;stroke-width:0.26499999;stroke-linecap:butt;stroke-linejoin:miter;stroke-opacity:0.38137472;stroke-miterlimit:4;stroke-dasharray:none;stroke-dashoffset:0;fill-opacity:1"
       d="m 141.90431,222.08243 8.17382,-15.84205"
       id="path1065"
       inkscape:path-effect="#path-effect1067"
       inkscape:original-d="m 141.90431,222.08243 c 2.72487,-5.28042 5.44948,-10.56111 8.17382,-15.84205" />
    <path
       style="fill:none;stroke:#000000;stroke-width:0.26499999;stroke-linecap:butt;stroke-linejoin:miter;stroke-opacity:0.38137472;stroke-miterlimit:4;stroke-dasharray:none;stroke-dashoffset:0;fill-opacity:1"
       d="m 152.52185,226.04294 3.79198,-15.08365"
       id="path1069"
       inkscape:path-effect="#path-effect1071"
       inkscape:original-d="m 152.52185,226.04294 c 1.26426,-5.02762 2.52825,-10.05551 3.79198,-15.08365" />
    <path
       style="fill:none;stroke:#000000;stroke-width:0.26499999;stroke-linecap:butt;stroke-linejoin:miter;stroke-opacity:0.38137472;stroke-miterlimit:4;stroke-dasharray:none;stroke-dashoffset:0;fill-opacity:1"
       d="m 164.74045,227.47546 1.60106,-12.89273"
       id="path1073"
       inkscape:path-effect="#path-effect1075"
       inkscape:original-d="m 164.74045,227.47546 c 0.53395,-4.29731 1.06764,-8.59488 1.60106,-12.89273" />
    <path
       style="fill:none;stroke:#000000;stroke-width:0.26499999;stroke-linecap:butt;stroke-linejoin:miter;stroke-opacity:0.38137472;stroke-miterlimit:4;stroke-dasharray:none;stroke-dashoffset:0;fill-opacity:1"
       d="m 175.94786,227.72826 c -0.47748,-4.18492 -0.95499,-8.37015 -1.43253,-12.55566"
       id="path1077"
       inkscape:path-effect="#path-effect1079"
       inkscape:original-d="m 175.94786,227.72826 c -0.47724,-4.18495 -0.95475,-8.37018 -1.43253,-12.55566" />
    <path
       style="fill:none;stroke:#000000;stroke-width:0.26499999;stroke-linecap:butt;stroke-linejoin:miter;stroke-opacity:0.38137472;stroke-miterlimit:4;stroke-dasharray:none;stroke-dashoffset:0;fill-opacity:1"
       d="m 188.41926,226.21147 c -1.74136,-3.9602 -3.48287,-7.9207 -5.22451,-11.88153"
       id="path1081"
       inkscape:path-effect="#path-effect1083"
       inkscape:original-d="m 188.41926,226.21147 c -1.74124,-3.96025 -3.48274,-7.92076 -5.22451,-11.88153" />
    <path
       style="fill:none;stroke:#000000;stroke-width:0.26499999;stroke-linecap:butt;stroke-linejoin:miter;stroke-opacity:0.38137472;stroke-miterlimit:4;stroke-dasharray:none;stroke-dashoffset:0;fill-opacity:1"
       d="m 198.95254,222.25096 c -2.86481,-3.34228 -5.72987,-6.68484 -8.59516,-10.02768"
       id="path1085"
       inkscape:path-effect="#path-effect1087"
       inkscape:original-d="m 198.95254,222.25096 c -2.86479,-3.3423 -5.72984,-6.68486 -8.59516,-10.02768" />
    <path
       style="fill:none;stroke:#000000;stroke-width:0.26499999;stroke-linecap:butt;stroke-linejoin:miter;stroke-opacity:0.38137472;stroke-miterlimit:4;stroke-dasharray:none;stroke-dashoffset:0;fill-opacity:1"
       d="m 194.90776,208.4313 c 4.91583,1.03935 9.83136,2.07863 14.74659,3.11785"
       id="path1089"
       inkscape:path-effect="#path-effect1091"
       inkscape:original-d="m 194.90776,208.4313 c 4.91579,1.03955 9.83132,2.07883 14.74659,3.11785" />
    <path
       style="fill:none;stroke:#000000;stroke-width:0.26499999;stroke-linecap:butt;stroke-linejoin:miter;stroke-opacity:0.38137472;stroke-miterlimit:4;stroke-dasharray:none;stroke-dashoffset:0;fill-opacity:1"
       d="m 195.66615,202.61693 c 5.28084,-1.82582 10.56153,-3.65159 15.84205,-5.4773"
       id="path1093"
       inkscape:path-effect="#path-effect1095"
       inkscape:original-d="m 195.66615,202.61693 c 5.28095,-1.8255 10.56164,-3.65127 15.84205,-5.4773" />
    <path
       style="fill:none;stroke:#000000;stroke-width:0.26499999;stroke-linecap:butt;stroke-linejoin:miter;stroke-opacity:0.38137472;stroke-miterlimit:4;stroke-dasharray:none;stroke-dashoffset:0;fill-opacity:1"
       d="m 190.18424,196.95669 c 3.3261,-3.57432 6.65222,-7.14866 9.97834,-10.723"
       id="path1097"
       inkscape:path-effect="#path-effect1099"
       inkscape:original-d="m 190.18424,196.95669 c 3.32637,-3.57407 6.65249,-7.1484 9.97834,-10.723" />
    <path
       style="fill:none;stroke:#000000;stroke-width:0.26499999;stroke-linecap:butt;stroke-linejoin:miter;stroke-opacity:0.38137472;stroke-miterlimit:4;stroke-dasharray:none;stroke-dashoffset:0;fill-opacity:1"
       d="m 185.71632,182.65936 c -0.89363,4.1206 -1.78721,8.24101 -2.68075,12.36123"
       id="path1101"
       inkscape:path-effect="#path-effect1103"
       inkscape:original-d="m 185.71632,182.65936 c -0.89332,4.12067 -1.7869,8.24108 -2.68075,12.36123" />
    <path
       style="fill:none;stroke:#000000;stroke-width:0.26499999;stroke-linecap:butt;stroke-linejoin:miter;stroke-opacity:0.38137472;stroke-miterlimit:4;stroke-dasharray:none;stroke-dashoffset:0;fill-opacity:1"
       d="m 173.20616,182.80829 c 0.14894,3.97175 0.29787,7.94323 0.44679,11.91444"
       id="path1105"
       inkscape:path-effect="#path-effect1107"
       inkscape:original-d="m 173.20616,182.80829 c 0.1492,3.97174 0.29813,7.94322 0.44679,11.91444" />
    <path
       style="fill:none;stroke:#000000;stroke-width:0.26499999;stroke-linecap:butt;stroke-linejoin:miter;stroke-opacity:0.38137472;stroke-miterlimit:4;stroke-dasharray:none;stroke-dashoffset:0;fill-opacity:1"
       d="m 161.58958,184.89332 c 1.23221,3.59577 2.46431,7.19121 3.6963,10.78634"
       id="path1109"
       inkscape:path-effect="#path-effect1111"
       inkscape:original-d="m 161.58958,184.89332 c 1.23237,3.59571 2.46447,7.19116 3.6963,10.78634"
       sodipodi:nodetypes="cc" />
    <path
       style="fill:none;stroke:#000000;stroke-width:0.26499999;stroke-linecap:butt;stroke-linejoin:miter;stroke-opacity:0.38137472;stroke-miterlimit:4;stroke-dasharray:none;stroke-dashoffset:0;fill-opacity:1"
       d="m 152.20696,188.76551 c 1.39017,2.92928 2.78019,5.85825 4.17005,8.7869"
       id="path1113"
       inkscape:path-effect="#path-effect1115"
       inkscape:original-d="m 152.20696,188.76551 c 1.39028,2.92923 2.7803,5.8582 4.17005,8.7869" />
    <path
       style="fill:none;stroke:#000000;stroke-width:0.26499999;stroke-linecap:butt;stroke-linejoin:miter;stroke-opacity:0.38137472;stroke-miterlimit:4;stroke-dasharray:none;stroke-dashoffset:0;fill-opacity:1"
       d="m 145.23509,193.26449 c 1.55525,2.04371 3.11028,4.08712 4.66509,6.13024"
       id="path1226"
       inkscape:path-effect="#path-effect1228"
       inkscape:original-d="m 145.23509,193.26449 c 1.55529,2.04368 3.11032,4.08709 4.66509,6.13024" />
    <path
       style="opacity:0.99;fill:none;stroke:#000000;stroke-width:0.265;stroke-linejoin:round;stroke-miterlimit:4;stroke-dasharray:none;stroke-opacity:1"
       id="path867"
       sodipodi:type="arc"
       sodipodi:cx="66.51812"
       sodipodi:cy="204.19899"
       sodipodi:rx="36.186321"
       sodipodi:ry="8.2926979"
       sodipodi:start="6.1848709"
       sodipodi:end="6.1778721"
       sodipodi:open="true"
       sodipodi:arc-type="arc"
       d="m 102.5297,203.38501 a 36.186321,8.2926979 0 0 1 -32.396668,9.0652 36.186321,8.2926979 0 0 1 -39.613841,-7.40837 36.186321,8.2926979 0 0 1 32.258042,-9.09112 36.186321,8.2926979 0 0 1 39.726727,7.37655"
       clip-path="url(#clipPath5172)"
       transform="translate(1.119109,12.543444)" />
    <path
       style="opacity:0.99;fill:none;stroke:#000000;stroke-width:0.265;stroke-linejoin:round;stroke-miterlimit:4;stroke-dasharray:none;stroke-opacity:1"
       id="path867-2"
       sodipodi:type="arc"
       sodipodi:cx="67.770462"
       sodipodi:cy="190.66428"
       sodipodi:rx="36.186321"
       sodipodi:ry="8.2926979"
       sodipodi:start="6.1848709"
       sodipodi:end="6.1778721"
       sodipodi:open="true"
       sodipodi:arc-type="arc"
       d="m 103.78204,189.8503 a 36.186321,8.2926979 0 0 1 -32.396666,9.06519 36.186321,8.2926979 0 0 1 -39.613841,-7.40836 36.186321,8.2926979 0 0 1 32.258042,-9.09112 36.186321,8.2926979 0 0 1 39.726725,7.37655" />
    <path
       style="opacity:0.99;fill:none;stroke:#000000;stroke-width:0.265;stroke-linejoin:round;stroke-miterlimit:4;stroke-dasharray:2.12, 2.12;stroke-dashoffset:0;stroke-opacity:1"
       id="path867-2-1"
       sodipodi:type="arc"
       sodipodi:cx="53.682293"
       sodipodi:cy="185.97284"
       sodipodi:rx="36.186321"
       sodipodi:ry="8.2926979"
       sodipodi:start="6.1848709"
       sodipodi:end="6.1778721"
       sodipodi:open="true"
       sodipodi:arc-type="arc"
       d="m 89.693872,185.15886 a 36.186321,8.2926979 0 0 1 -32.396667,9.0652 36.186321,8.2926979 0 0 1 -39.613841,-7.40837 36.186321,8.2926979 0 0 1 32.258042,-9.09112 36.186321,8.2926979 0 0 1 39.726725,7.37655"
       clip-path="url(#clipPath5464)"
       transform="translate(13.954962,30.769014)" />
    <path
       style="fill:none;stroke:#000000;stroke-width:0.264583px;stroke-linecap:butt;stroke-linejoin:miter;stroke-opacity:1"
       d="m 31.583293,190.04072 c 0,8.9212 0,17.84213 0,26.7628"
       id="path990"
       inkscape:path-effect="#path-effect992"
       inkscape:original-d="m 31.583293,190.04072 c 2.64e-4,8.9212 2.64e-4,17.84213 0,26.7628" />
    <path
       style="fill:none;stroke:#000000;stroke-width:0.264583px;stroke-linecap:butt;stroke-linejoin:miter;stroke-opacity:1"
       d="m 103.95723,190.07145 c 0,8.9212 0,17.84213 0,26.7628"
       id="path990-6"
       inkscape:path-effect="#path-effect1032"
       inkscape:original-d="m 103.95723,190.07145 c 2.6e-4,8.9212 2.6e-4,17.84213 0,26.7628" />
    <rect
       style="opacity:0.99;fill:none;stroke:#000000;stroke-width:0.264999;stroke-linejoin:round;stroke-miterlimit:4;stroke-dasharray:none;stroke-opacity:1"
       id="rect1191"
       width="80.120743"
       height="16.691822"
       x="27.477257"
       y="239.08995" />
    <rect
       style="opacity:0.99;fill:none;stroke:#000000;stroke-width:0.264999;stroke-linejoin:round;stroke-miterlimit:4;stroke-dasharray:none;stroke-opacity:1"
       id="rect1191-3"
       width="80.120743"
       height="16.691822"
       x="133.31055"
       y="239.08995" />
    <path
       style="fill:#ff2a2a;stroke:#ff0000;stroke-width:0.264583px;stroke-linecap:butt;stroke-linejoin:miter;stroke-opacity:1"
       d="m 27.199981,247.64046 c 26.718829,0 53.437395,0 80.155699,0"
       id="path1338"
       inkscape:path-effect="#path-effect1340"
       inkscape:original-d="m 27.199981,247.64046 c 26.718829,2.7e-4 53.437395,2.7e-4 80.155699,0" />
    <path
       style="fill:none;stroke:#000000;stroke-width:0.265;stroke-linecap:butt;stroke-linejoin:miter;stroke-miterlimit:4;stroke-dasharray:none;stroke-opacity:1;marker-end:url(#Arrow1Lend)"
       d="m 44.049526,255.69903 c 0,-2.53333 0,-5.06693 0,-7.6008"
       id="path1587"
       inkscape:path-effect="#path-effect1589"
       inkscape:original-d="m 44.049526,255.69903 c 2.65e-4,-2.53333 2.65e-4,-5.06693 0,-7.6008"
       sodipodi:nodetypes="cc" />
    <path
       style="fill:none;stroke:#000000;stroke-width:0.265;stroke-linecap:butt;stroke-linejoin:miter;stroke-miterlimit:4;stroke-dasharray:none;stroke-opacity:1;marker-end:url(#Arrow1Lend-6)"
       d="m 82.468133,255.96141 c 0,-2.59437 0,-5.189 0,-7.78391"
       id="path1587-9"
       inkscape:path-effect="#path-effect1911"
       inkscape:original-d="m 82.468133,255.96141 c 2.65e-4,-2.59437 2.65e-4,-5.189 0,-7.78391"
       sodipodi:nodetypes="cc" />
    <path
       style="fill:none;stroke:#000000;stroke-width:0.264583px;stroke-linecap:butt;stroke-linejoin:miter;stroke-opacity:1;marker-end:url(#Arrow1Lend-6)"
       d="m 63.065442,239.21569 c 0,2.65593 0,5.3116 0,7.967"
       id="path2031"
       inkscape:path-effect="#path-effect2033"
       inkscape:original-d="m 63.065442,239.21569 c 2.65e-4,2.65593 2.65e-4,5.3116 0,7.967"
       sodipodi:nodetypes="cc" />
    <path
       style="fill:none;stroke:#000000;stroke-width:0.264583px;stroke-linecap:butt;stroke-linejoin:miter;stroke-opacity:1;marker-end:url(#Arrow1Lend-6-5)"
       d="m 99.171613,239.12857 c 0,2.68645 0,5.37264 0,8.05856"
       id="path2031-1"
       inkscape:path-effect="#path-effect2087"
       inkscape:original-d="m 99.171613,239.12857 c 2.65e-4,2.68645 2.65e-4,5.37264 0,8.05856"
       sodipodi:nodetypes="cc" />
    <path
       style="fill:none;stroke:#000000;stroke-width:0.265;stroke-linecap:butt;stroke-linejoin:miter;stroke-miterlimit:4;stroke-dasharray:none;stroke-opacity:1;marker-end:url(#Arrow1Lend-8)"
       d="m 148.94671,255.97053 c 0,-2.59437 0,-5.189 0,-7.78391"
       id="path1587-5"
       inkscape:path-effect="#path-effect3848"
       inkscape:original-d="m 148.94671,255.97053 c 2.6e-4,-2.59437 2.6e-4,-5.189 0,-7.78391"
       sodipodi:nodetypes="cc" />
    <path
       style="fill:none;stroke:#000000;stroke-width:0.265;stroke-linecap:butt;stroke-linejoin:miter;stroke-miterlimit:4;stroke-dasharray:none;stroke-opacity:1;marker-end:url(#Arrow1Lend-6-0)"
       d="m 188.61961,255.8667 c 0,-2.53333 0,-5.06693 0,-7.6008"
       id="path1587-9-2"
       inkscape:path-effect="#path-effect3852"
       inkscape:original-d="m 188.61961,255.8667 c 2.6e-4,-2.53333 2.6e-4,-5.06693 0,-7.6008"
       sodipodi:nodetypes="cc" />
    <path
       style="fill:none;stroke:#000000;stroke-width:0.264583px;stroke-linecap:butt;stroke-linejoin:miter;stroke-opacity:1;marker-end:url(#Arrow1Lend-6-0)"
       d="m 167.96262,239.12098 c 0,2.68645 0,5.37264 0,8.05856"
       id="path2031-2"
       inkscape:path-effect="#path-effect3856"
       inkscape:original-d="m 167.96262,239.12098 c 2.6e-4,2.68645 2.6e-4,5.37264 0,8.05856"
       sodipodi:nodetypes="cc" />
    <path
       style="fill:none;stroke:#000000;stroke-width:0.264583px;stroke-linecap:butt;stroke-linejoin:miter;stroke-opacity:1;marker-end:url(#Arrow1Lend-6-5-2)"
       d="m 204.06879,239.03386 c 0,2.74748 0,5.49471 0,8.24166"
       id="path2031-1-7"
       inkscape:path-effect="#path-effect3860"
       inkscape:original-d="m 204.06879,239.03386 c 2.6e-4,2.74748 2.6e-4,5.49471 0,8.24166"
       sodipodi:nodetypes="cc" />
    <path
       style="fill:none;stroke:#7b00fb;stroke-width:0.3;stroke-linecap:butt;stroke-linejoin:miter;stroke-miterlimit:4;stroke-dasharray:none;stroke-opacity:1;marker-end:url(#marker2243-8)"
       d="m 107.598,239.09002 c 0,4.29349 0,8.58672 0,12.87969"
       id="path2237-1"
       inkscape:path-effect="#path-effect3227"
       inkscape:original-d="m 107.598,239.09002 c 0.0158,4.29349 2.6e-4,8.58672 0,12.87969" />
    <path
       style="fill:#ff2a2a;stroke:#ff0000;stroke-width:0.264583px;stroke-linecap:butt;stroke-linejoin:miter;stroke-opacity:1"
       d="m 133.1783,247.64046 c 26.71883,0 53.4374,0 80.1557,0"
       id="path1338-4"
       inkscape:path-effect="#path-effect3632"
       inkscape:original-d="m 133.1783,247.64046 c 26.71883,2.7e-4 53.4374,2.7e-4 80.1557,0" />
    <path
       style="fill:none;stroke:#7b00fb;stroke-width:0.3;stroke-linecap:butt;stroke-linejoin:miter;stroke-miterlimit:4;stroke-dasharray:none;stroke-opacity:1;marker-end:url(#marker2243-0)"
       d="m 133.31055,239.09002 c 0,4.29349 0,8.58672 0,12.87969"
       id="path2237-8"
       inkscape:path-effect="#path-effect3636"
       inkscape:original-d="m 133.31055,239.09002 c 0.0158,4.29349 2.6e-4,8.58672 0,12.87969" />
    <path
       style="fill:none;stroke:#7b00fb;stroke-width:0.3;stroke-linecap:butt;stroke-linejoin:miter;stroke-miterlimit:4;stroke-dasharray:none;stroke-opacity:1;marker-end:url(#marker2243-8-8)"
       d="m 213.43129,255.78185 c 0,-4.39943 0,-8.79914 0,-13.19911"
       id="path2237-1-5"
       inkscape:original-d="m 213.43129,255.78185 c 2.6e-4,-4.39943 2.6e-4,-8.79914 0,-13.19911"
       inkscape:path-effect="#path-effect3640"
       sodipodi:nodetypes="cc" />
    <path
       style="opacity:0.99;fill:none;stroke:#ff0000;stroke-width:0.265;stroke-linejoin:round;stroke-miterlimit:4;stroke-dasharray:none;stroke-opacity:1"
       id="path867-3"
       sodipodi:type="arc"
       sodipodi:cx="66.51812"
       sodipodi:cy="204.19899"
       sodipodi:rx="36.186321"
       sodipodi:ry="8.2926979"
       sodipodi:start="6.1848709"
       sodipodi:end="6.1778721"
       sodipodi:open="true"
       sodipodi:arc-type="arc"
       clip-path="url(#clipPath5172-8)"
       transform="translate(1.3003642,-0.06348717)"
       d="m 102.5297,203.38501 a 36.186321,8.2926979 0 0 1 -32.396668,9.0652 36.186321,8.2926979 0 0 1 -39.613841,-7.40837 36.186321,8.2926979 0 0 1 32.258042,-9.09112 36.186321,8.2926979 0 0 1 39.726727,7.37655" />
    <path
       style="opacity:0.99;fill:none;stroke:#ff0000;stroke-width:0.265;stroke-linejoin:round;stroke-miterlimit:4;stroke-dasharray:2.12, 2.12;stroke-dashoffset:0;stroke-opacity:1"
       id="path867-2-1-3"
       sodipodi:type="arc"
       sodipodi:cx="53.682293"
       sodipodi:cy="185.97284"
       sodipodi:rx="36.186321"
       sodipodi:ry="8.2926979"
       sodipodi:start="6.1848709"
       sodipodi:end="6.1778721"
       sodipodi:open="true"
       sodipodi:arc-type="arc"
       clip-path="url(#clipPath5464-9)"
       transform="translate(14.136217,18.162084)"
       d="m 89.693872,185.15886 a 36.186321,8.2926979 0 0 1 -32.396667,9.0652 36.186321,8.2926979 0 0 1 -39.613841,-7.40837 36.186321,8.2926979 0 0 1 32.258042,-9.09112 36.186321,8.2926979 0 0 1 39.726725,7.37655" />
    <path
       style="fill:none;stroke:#7b00fb;stroke-width:0.264583px;stroke-linecap:butt;stroke-linejoin:miter;stroke-opacity:1;marker-end:url(#marker2243-8-85)"
       d="m 69.204586,198.70705 c 0,8.67283 0,17.34541 0,26.01773"
       id="path2237-1-4"
       inkscape:path-effect="#path-effect4365"
       inkscape:original-d="m 69.204586,198.70705 c 2.65e-4,8.67283 2.65e-4,17.34541 0,26.01773"
       sodipodi:nodetypes="cc" />
    <path
       style="fill:none;stroke:#000000;stroke-width:0.264583px;stroke-linecap:butt;stroke-linejoin:miter;stroke-opacity:1"
       d="m 145.23509,193.26449 c -3.40353,5.67254 -6.80701,11.34501 -10.21045,17.01741"
       id="path6086"
       inkscape:path-effect="#path-effect6088"
       inkscape:original-d="m 145.23509,193.26449 c -3.40322,5.67273 -6.8067,11.3452 -10.21045,17.01741" />
    <path
       style="fill:none;stroke:#000000;stroke-width:0.264583px;stroke-linecap:butt;stroke-linejoin:miter;stroke-opacity:1"
       d="m 145.23509,193.26449 c 2.81117,-2.11079 5.83571,-3.93726 9.01256,-5.44251 7.21608,-3.41912 15.18539,-5.15211 23.16701,-5.38874 5.99796,-0.17782 12.03537,0.48178 17.80042,2.14649 4.13717,1.19465 8.19248,2.94558 11.44623,5.7663 3.25376,2.82072 5.64401,6.81748 5.86993,11.11775 0.10107,1.92391 -0.22617,3.85328 -0.78774,5.69618 -1.15557,3.79224 -3.30837,7.25518 -6.07985,10.08984 -2.77148,2.83466 -6.15101,5.04863 -9.7928,6.61509 -6.50502,2.79804 -13.70191,3.51676 -20.77793,3.78928 -10.47422,0.40339 -21.29453,-0.17044 -30.81376,-4.55864 -2.5958,-1.19662 -5.12742,-2.71949 -6.87942,-4.97794 -1.7107,-2.20522 -2.57353,-5.05179 -2.37508,-7.83569"
       id="path6127"
       inkscape:path-effect="#path-effect6129"
       inkscape:original-d="m 145.23509,193.26449 c 0,0 3.05855,-3.62194 9.01256,-5.44251 11.65371,-3.56337 1.88024,-4.21429 23.16701,-5.38874 13.97967,-0.7713 2.10054,-4.14693 17.80042,2.14649 17.15882,6.87824 16.04829,12.65781 17.31616,16.88405 0.37164,1.23878 -0.39866,4.46278 -0.78774,5.69618 -2.37094,7.51607 -8.75608,13.63227 -15.87265,16.70493 -9.02359,3.89602 8.96092,-0.84138 -20.77793,3.78928 -25.22039,3.92708 4.9416,1.74098 -30.81376,-4.55864 -4.6813,-0.82478 -3.96768,0.14887 -6.87942,-4.97794 -0.47371,-0.83409 -2.58137,-7.57785 -2.37508,-7.83569"
       sodipodi:nodetypes="csssssssssc" />
    <path
       style="fill:none;stroke:#000000;stroke-width:0.264583px;stroke-linecap:butt;stroke-linejoin:miter;stroke-opacity:1"
       d="m 145.23509,193.26449 c -0.0415,0.7252 -0.0326,1.45328 0.0267,2.17724 0.27826,3.3995 1.68009,6.66272 3.76064,9.36556 2.08055,2.70285 4.81949,4.86087 7.8204,6.48217 8.55277,4.62079 18.94465,4.80103 28.40401,2.56003 2.49419,-0.59089 5.00665,-1.36758 7.06591,-2.89389 1.02963,-0.76315 1.93259,-1.7109 2.57118,-2.82209 0.6386,-1.11118 1.00572,-2.38968 0.9687,-3.67076 -0.0525,-1.81511 -0.91697,-3.54868 -2.16475,-4.86793 -1.24778,-1.31925 -2.85668,-2.25314 -4.54006,-2.93403 -3.75853,-1.52023 -7.89242,-1.83397 -11.94675,-1.82859 -10.45573,0.0139 -20.90505,2.05379 -30.59832,5.97338"
       id="path7193"
       inkscape:path-effect="#path-effect7195"
       inkscape:original-d="m 145.23509,193.26449 c -0.35585,0.71284 -0.2166,1.44745 0.0267,2.17724 1.50701,4.52102 8.55812,12.65422 11.58104,15.84773 6.94231,7.33409 19.38839,5.56267 28.40401,2.56003 11.29633,-3.76223 10.79919,0.81106 10.60579,-9.38674 -0.20408,-10.76083 1.70775,-1.88133 -6.70481,-7.80196 -8.51639,-5.9937 0.13381,-2.18729 -11.94675,-1.82859 -13.56362,0.40273 -29.82773,5.97338 -30.59832,5.97338"
       sodipodi:nodetypes="ccsssssc" />
    <path
       style="fill:none;stroke:#ff0000;stroke-width:0.264583px;stroke-linecap:butt;stroke-linejoin:miter;stroke-opacity:1"
       d="m 139.11076,203.54322 c -0.0768,1.45874 0.19127,2.93452 0.77621,4.27306 0.72226,1.65277 1.91067,3.07236 3.28224,4.24372 1.37158,1.17137 2.92674,2.10805 4.51116,2.96999 4.59599,2.50026 9.51417,4.41969 14.60956,5.60773 10.45815,2.43842 21.7891,1.67027 31.4546,-3.00914 2.77862,-1.34523 5.44961,-3.03643 7.45041,-5.38741 2.0008,-2.35099 3.27798,-5.43383 2.98433,-8.50696 -0.23633,-2.47326 -1.47037,-4.78406 -3.16509,-6.60087 -1.69471,-1.81681 -3.83033,-3.17334 -6.06473,-4.25977 -4.85399,-2.36015 -10.23705,-3.51126 -15.62506,-3.82878 -9.28576,-0.54722 -18.70565,1.37138 -27.03765,5.50689 l -6.53736,3.81581"
       id="path8275"
       inkscape:path-effect="#path-effect8277"
       inkscape:original-d="m 139.11076,203.54322 c 3.07175,3.64771 -4.85373,0.64323 0.77621,4.27306 1.06913,0.68931 2.80987,6.60735 7.7934,7.21371 2.71272,0.33007 11.93516,5.13578 14.60956,5.60773 2.2745,0.40138 13.02358,5.41818 31.4546,-3.00914 15.49846,-7.08646 5.071,-0.0468 10.43474,-13.89437 2.13209,-5.50445 -7.48341,-9.56982 -9.22982,-10.86064 -2.84685,-2.1042 -11.86319,-3.41126 -15.62506,-3.82878 -7.23165,-0.80264 -3.09514,-4.66798 -27.03765,5.50689 -15.77708,4.64818 -4.68911,-1.00196 -6.53736,3.81581"
       sodipodi:nodetypes="cssssssscc" />
    <path
       style="fill:none;stroke:#7b00fb;stroke-width:0.264583px;stroke-linecap:butt;stroke-linejoin:miter;stroke-opacity:1;marker-start:url(#Arrow1Lstart);marker-end:url(#marker2243-8-8-3)"
       d="m 156.42053,226.39082 c 1.88538,-4.15786 3.77081,-8.31584 5.6563,-12.47395"
       id="path2237-1-5-5"
       inkscape:original-d="m 156.42053,226.39082 c 1.8857,-4.15771 3.77113,-8.3157 5.6563,-12.47395"
       inkscape:path-effect="#path-effect10022"
       sodipodi:nodetypes="cc" />
    <path
       style="fill:none;stroke:#7b00fb;stroke-width:0.3;stroke-linecap:butt;stroke-linejoin:miter;stroke-miterlimit:4;stroke-dasharray:none;stroke-opacity:1;marker-end:url(#marker2243)"
       d="m 27.477257,239.09002 c 0,4.29349 0,8.58672 0,12.87969"
       id="path2237"
       inkscape:path-effect="#path-effect2239"
       inkscape:original-d="m 27.477257,239.09002 c 0.01582,4.29349 2.64e-4,8.58672 0,12.87969" />
  </g>
</svg>
