<?xml version="1.0" encoding="UTF-8" standalone="no"?>
<!-- Created with Inkscape (http://www.inkscape.org/) -->

<svg
   width="240mm"
   height="60mm"
   viewBox="0 0 240 60"
   version="1.1"
   id="svg8"
   inkscape:version="1.1.1 (c3084ef, 2021-09-22)"
   sodipodi:docname="eg:constructing-sphere-2.svg"
   xmlns:inkscape="http://www.inkscape.org/namespaces/inkscape"
   xmlns:sodipodi="http://sodipodi.sourceforge.net/DTD/sodipodi-0.dtd"
   xmlns="http://www.w3.org/2000/svg"
   xmlns:svg="http://www.w3.org/2000/svg"
   xmlns:rdf="http://www.w3.org/1999/02/22-rdf-syntax-ns#"
   xmlns:cc="http://creativecommons.org/ns#"
   xmlns:dc="http://purl.org/dc/elements/1.1/">
  <defs
     id="defs2" />
  <sodipodi:namedview
     id="base"
     pagecolor="#ffffff"
     bordercolor="#666666"
     borderopacity="1.0"
     inkscape:pageopacity="0.0"
     inkscape:pageshadow="2"
     inkscape:zoom="1.9836022"
     inkscape:cx="597.90213"
     inkscape:cy="239.7154"
     inkscape:document-units="mm"
     inkscape:current-layer="layer1"
     showgrid="false"
     showborder="true"
     width="200mm"
     showguides="true"
     inkscape:guide-bbox="true"
     inkscape:window-width="1003"
     inkscape:window-height="1051"
     inkscape:window-x="2069"
     inkscape:window-y="295"
     inkscape:window-maximized="0"
     inkscape:pagecheckerboard="0"
     height="60mm">
    <inkscape:grid
       type="xygrid"
       id="grid815"
       units="mm"
       spacingx="10"
       spacingy="10"
       empspacing="4"
       dotted="false" />
  </sodipodi:namedview>
  <metadata
     id="metadata5">
    <rdf:RDF>
      <cc:Work
         rdf:about="">
        <dc:format>image/svg+xml</dc:format>
        <dc:type
           rdf:resource="http://purl.org/dc/dcmitype/StillImage" />
      </cc:Work>
    </rdf:RDF>
  </metadata>
  <g
     inkscape:label="Layer 1"
     inkscape:groupmode="layer"
     id="layer1"
     transform="translate(0,-177)">
    <path
       style="opacity:0.99;fill:none;stroke:black;stroke-width:0.26458333;stroke-linejoin:round;stroke-miterlimit:4;stroke-dasharray:none;stroke-opacity:1;fill-opacity:1;marker-start:none;marker-end:none"
       id="path845"
       sodipodi:type="arc"
       sodipodi:cx="61.6049"
       sodipodi:cy="207.31094"
       sodipodi:rx="26.933681"
       sodipodi:ry="26.933681"
       sodipodi:start="6.1848709"
       sodipodi:end="6.1778721"
       sodipodi:open="true"
       sodipodi:arc-type="arc"
       d="M 88.40852,204.66724 A 26.933681,26.933681 0 0 1 64.2955,234.1099 26.933681,26.933681 0 0 1 34.810696,210.04843 26.933681,26.933681 0 0 1 58.820537,180.52157 26.933681,26.933681 0 0 1 88.389361,204.47971" />
    <path
       style="opacity:0.99;fill:none;stroke:black;stroke-width:0.26458333;stroke-linejoin:round;stroke-miterlimit:4;stroke-dasharray:none;stroke-opacity:1;fill-opacity:1;marker-start:none;marker-end:none"
       id="path845-7"
       sodipodi:type="arc"
       sodipodi:cx="183.29407"
       sodipodi:cy="207.12341"
       sodipodi:rx="26.933681"
       sodipodi:ry="26.933681"
       sodipodi:start="6.1848709"
       sodipodi:end="6.1778721"
       sodipodi:open="true"
       sodipodi:arc-type="arc"
       d="m 210.09769,204.47971 a 26.933681,26.933681 0 0 1 -24.11302,29.44266 26.933681,26.933681 0 0 1 -29.48481,-24.06147 26.933681,26.933681 0 0 1 24.00984,-29.52686 26.933681,26.933681 0 0 1 29.56883,23.95814" />
    <path
       style="opacity:0.99;fill:none;stroke:black;stroke-width:0.26458333;stroke-linejoin:round;stroke-miterlimit:4;stroke-dasharray:none;stroke-opacity:1;fill-opacity:1;marker-start:none;marker-end:none"
       id="path865"
       sodipodi:type="arc"
       sodipodi:cx="61.594204"
       sodipodi:cy="206.8063"
       sodipodi:rx="26.781874"
       sodipodi:ry="4.9277134"
       sodipodi:start="6.1848709"
       sodipodi:end="6.1778721"
       sodipodi:open="true"
       sodipodi:arc-type="arc"
       d="m 88.246749,206.32262 a 26.781874,4.9277134 0 0 1 -23.977111,5.38675 26.781874,4.9277134 0 0 1 -29.318616,-4.40222 26.781874,4.9277134 0 0 1 23.874513,-5.40216 26.781874,4.9277134 0 0 1 29.402163,4.38332" />
    <path
       style="opacity:0.99;fill:none;stroke:black;stroke-width:0.26458333;stroke-linejoin:round;stroke-miterlimit:4;stroke-dasharray:none;stroke-opacity:1;fill-opacity:1;marker-start:none;marker-end:none"
       id="path865-4"
       sodipodi:type="arc"
       sodipodi:cx="183.46419"
       sodipodi:cy="207.11441"
       sodipodi:rx="26.781874"
       sodipodi:ry="4.9277134"
       sodipodi:start="6.1848709"
       sodipodi:end="6.1778721"
       sodipodi:open="true"
       sodipodi:arc-type="arc"
       d="m 210.11673,206.63073 a 26.781874,4.9277134 0 0 1 -23.97711,5.38674 26.781874,4.9277134 0 0 1 -29.31861,-4.40222 26.781874,4.9277134 0 0 1 23.87451,-5.40215 26.781874,4.9277134 0 0 1 29.40216,4.38332" />
    <path
       style="opacity:0.99;fill:#000000;fill-opacity:1;stroke:#000000;stroke-width:0.265;stroke-linejoin:round;stroke-miterlimit:4;stroke-dasharray:none;stroke-opacity:0.381375"
       id="path869-5"
       sodipodi:type="arc"
       sodipodi:cx="60.144402"
       sodipodi:cy="-234.01468"
       sodipodi:rx="1.0598682"
       sodipodi:ry="1.0598682"
       sodipodi:start="6.1848709"
       sodipodi:end="6.1778721"
       sodipodi:open="true"
       sodipodi:arc-type="arc"
       transform="scale(1,-1)"
       d="m 61.199152,-234.11871 a 1.0598682,1.0598682 0 0 1 -0.948873,1.1586 1.0598682,1.0598682 0 0 1 -1.160257,-0.94685 1.0598682,1.0598682 0 0 1 0.944812,-1.16191 1.0598682,1.0598682 0 0 1 1.163564,0.94278" />
    <path
       style="opacity:0.99;fill:#000000;fill-opacity:1;stroke:#000000;stroke-width:0.265;stroke-linejoin:round;stroke-miterlimit:4;stroke-dasharray:none;stroke-opacity:0.381375"
       id="path869-5-7"
       sodipodi:type="arc"
       sodipodi:cx="210.34859"
       sodipodi:cy="-207.41185"
       sodipodi:rx="1.0598682"
       sodipodi:ry="1.0598682"
       sodipodi:start="6.1848709"
       sodipodi:end="6.1778721"
       sodipodi:open="true"
       sodipodi:arc-type="arc"
       transform="scale(1,-1)"
       d="m 211.40334,-207.51588 a 1.0598682,1.0598682 0 0 1 -0.94888,1.1586 1.0598682,1.0598682 0 0 1 -1.16025,-0.94685 1.0598682,1.0598682 0 0 1 0.94481,-1.16191 1.0598682,1.0598682 0 0 1 1.16356,0.94278" />
    <path
       style="opacity:0.99;fill:#000000;fill-opacity:1;stroke:#000000;stroke-width:0.265;stroke-linejoin:round;stroke-miterlimit:4;stroke-dasharray:none;stroke-opacity:0.381375"
       id="path869-5-70"
       sodipodi:type="arc"
       sodipodi:cx="156.19417"
       sodipodi:cy="-207.67862"
       sodipodi:rx="1.0598682"
       sodipodi:ry="1.0598682"
       sodipodi:start="6.1848709"
       sodipodi:end="6.1778721"
       sodipodi:open="true"
       sodipodi:arc-type="arc"
       transform="scale(1,-1)"
       d="m 157.24892,-207.78265 a 1.0598682,1.0598682 0 0 1 -0.94887,1.1586 1.0598682,1.0598682 0 0 1 -1.16026,-0.94685 1.0598682,1.0598682 0 0 1 0.94481,-1.16191 1.0598682,1.0598682 0 0 1 1.16356,0.94278" />
  </g>
</svg>
