<?xml version="1.0" encoding="UTF-8" standalone="no"?>
<!-- Created with Inkscape (http://www.inkscape.org/) -->

<svg
   width="240mm"
   height="120mm"
   viewBox="0 0 240 120"
   version="1.1"
   id="svg8"
   inkscape:version="1.1.1 (c3084ef, 2021-09-22)"
   sodipodi:docname="eg:constructing-torus-gluing-instr.svg"
   xmlns:inkscape="http://www.inkscape.org/namespaces/inkscape"
   xmlns:sodipodi="http://sodipodi.sourceforge.net/DTD/sodipodi-0.dtd"
   xmlns="http://www.w3.org/2000/svg"
   xmlns:svg="http://www.w3.org/2000/svg"
   xmlns:rdf="http://www.w3.org/1999/02/22-rdf-syntax-ns#"
   xmlns:cc="http://creativecommons.org/ns#"
   xmlns:dc="http://purl.org/dc/elements/1.1/">
  <defs
     id="defs2">
    <inkscape:path-effect
       effect="spiro"
       id="path-effect1064"
       is_visible="true"
       lpeversion="1" />
    <inkscape:path-effect
       effect="spiro"
       id="path-effect1058"
       is_visible="true"
       lpeversion="1" />
    <inkscape:path-effect
       effect="spiro"
       id="path-effect1054"
       is_visible="true"
       lpeversion="1" />
    <clipPath
       clipPathUnits="userSpaceOnUse"
       id="clipPath12124">
      <path
         id="path12126"
         style="fill:#ff0000;fill-opacity:1;fill-rule:nonzero;stroke:none;stroke-width:0.264583"
         d="m 151.79642,227.4517 v 4.27726 h 11.94552 c -0.0467,-0.12674 0.0294,-0.23906 0.15555,-0.23823 0.0595,2.7e-4 0.12986,0.0257 0.2036,0.0868 0.0452,0.0374 0.0988,0.0778 0.15038,0.12092 0.051,-0.11633 0.1578,-0.18617 0.28629,-0.18448 0.12112,0.002 0.26051,0.0673 0.3886,0.21497 h 21.06073 v -4.27726 z" />
    </clipPath>
    <clipPath
       clipPathUnits="userSpaceOnUse"
       id="clipPath12386">
      <path
         id="path12388"
         style="fill:#ff0000;fill-opacity:1;fill-rule:nonzero;stroke:none;stroke-width:0.264583"
         d="m 130.85454,212.55804 v 34.53225 h 76.29354 v -34.53225 z m 33.04191,18.93269 h 0.002 c 0.0595,2.7e-4 0.12986,0.0257 0.20361,0.0868 0.0448,0.0371 0.0991,0.0777 0.15038,0.1204 0.0511,-0.11607 0.15796,-0.18567 0.28628,-0.18396 0.1455,0.002 0.31776,0.0945 0.46457,0.31315 0.0928,0.13827 0.15231,0.29336 0.25787,0.42272 0.0656,0.0652 0.10428,0.14792 0.14728,0.22789 0.006,0.0118 0.0284,0.0626 0.0387,0.0475 0.0962,0.0511 0.13554,0.20515 0.16743,0.30283 0.015,0.0449 0.0186,0.0627 0.0196,0.061 0.005,-0.008 -0.002,-0.0182 -0.003,-0.0274 0.0735,0.10149 0.13809,0.21071 0.19999,0.31987 0.0847,0.14905 0.13634,0.31168 0.19585,0.47129 0.0532,0.14584 0.14179,0.2763 0.19069,0.42427 0.0159,0.0481 0.0274,0.0975 0.0413,0.14624 0.0285,0.19885 0.0754,0.39317 0.11059,0.59066 0.0169,0.10986 0.0291,0.22112 0.0537,0.3297 0.007,0.0312 0.0219,0.0609 0.0269,0.0925 0.008,0.0512 0.0142,0.10255 0.0212,0.15399 -0.0192,0.2345 -0.0124,0.46987 -0.0114,0.70487 7.9e-4,0.19867 0.003,0.41688 -0.0424,0.61133 -0.0352,0.14988 -0.09,0.28142 -0.15658,0.41807 -0.008,0.0145 -0.0268,0.0271 -0.0238,0.0434 0.002,0.0112 0.0234,-0.0313 0.0274,-0.0207 0.009,0.0231 -0.003,0.0495 -0.007,0.0739 -0.007,0.0464 -0.0165,0.0927 -0.0269,0.13849 -0.0217,0.0929 -0.0497,0.0688 -0.0134,0.093 0.0124,0.17759 -0.0357,0.35317 -0.093,0.51883 -0.0788,0.2266 -0.0223,0.0218 -0.0687,0.20412 -0.0489,0.23069 -0.16053,0.44201 -0.24494,0.66094 -0.0674,0.20252 -0.15321,0.39765 -0.23875,0.59273 v 0.60358 0.82218 c 0,0.0455 0.004,0.0911 0,0.13642 -0.009,0.10423 -0.0268,0.20783 -0.0403,0.31161 -0.0676,0.55055 -0.39276,0.9208 -0.74982,1.31517 -0.17766,0.18271 -0.13581,0.13302 -0.32298,0.35811 -0.0407,0.049 -0.0767,0.10154 -0.11937,0.14883 -0.009,0.0101 -0.15567,0.16752 -0.20826,0.17312 -0.0717,0.008 -0.14369,-0.0145 -0.21549,-0.0217 -0.0563,-0.23324 -0.0916,-0.26393 0.062,-0.36742 0.0279,-0.0188 0.0499,-0.0294 0.0672,-0.0341 0.031,-0.0357 0.055,-0.072 0.12041,-0.15037 0.19653,-0.2353 0.15477,-0.18689 0.33021,-0.36691 0.23852,-0.26189 0.51273,-0.54863 0.61547,-0.89762 0.02,-0.0679 0.0247,-0.13959 0.0372,-0.20929 0.0123,-0.0865 0.0292,-0.17246 0.0372,-0.25941 0.004,-0.0453 0,-0.0909 0,-0.13643 v -0.62063 c -0.0152,0.0179 -0.0305,0.0361 -0.0455,0.0543 -0.0222,0.0201 -0.0467,0.0386 -0.0672,0.0605 -0.001,0.002 0.005,0.005 0.004,0.007 -0.003,0.009 -0.01,0.0164 -0.015,0.0243 -0.0226,0.0329 -0.0457,0.0651 -0.0687,0.0977 -0.0792,0.11255 -0.0419,0.0602 -0.15658,0.20722 -0.0658,0.10008 -0.16148,0.17345 -0.24288,0.2589 -0.0785,0.0825 -0.14759,0.17714 -0.21549,0.2682 -0.13183,0.18266 -0.28084,0.35143 -0.41393,0.5333 -0.0418,0.0767 -0.11434,0.12883 -0.17105,0.19224 -0.003,0.003 0.0127,-0.007 0.0124,-0.003 -7.9e-4,0.0136 -0.0136,0.0236 -0.0176,0.0367 -0.0165,0.0993 -0.0565,0.16585 -0.12506,0.26251 -0.0243,0.0342 -0.0615,0.0571 -0.0904,0.0879 -0.0136,0.0143 -0.0244,0.0306 -0.0367,0.046 -0.0603,0.0777 -0.12462,0.15163 -0.1881,0.22635 0.39254,0.16206 0.31033,0.67455 -0.2465,0.72192 0.0983,0.22399 -0.0841,0.50797 -0.54829,0.50797 h -0.22324 c -0.0959,0.0963 -0.19095,0.19374 -0.2806,0.29456 -0.0923,0.10381 -0.17419,0.21652 -0.26459,0.32194 -0.0706,0.0823 -0.15077,0.15632 -0.21807,0.24133 -0.0124,0.016 -0.0136,0.0391 -0.0196,0.0584 -0.16107,0.48321 -0.53901,0.53627 -0.70332,0.30437 -0.0786,0.10535 -0.14521,0.21978 -0.23099,0.31936 -0.0538,0.0625 -0.13334,0.0993 -0.18656,0.16227 -0.0125,0.0148 0,0.0396 0,0.0589 0,0.67811 -0.60594,0.75488 -0.74517,0.23254 -0.44613,0.26464 -0.82281,-0.19472 -0.37258,-0.68781 0.49598,-0.54322 0.39519,-0.44623 0.98908,-1.02836 0.12304,-0.12059 0.24243,-0.24572 0.37517,-0.35554 0.45095,-0.37312 0.5869,-0.48255 0.5979,-0.4842 -7.9e-4,0.0125 -0.26306,0.25372 -0.13333,0.18345 0.043,-0.0495 0.0873,-0.098 0.13126,-0.14677 0.0259,-0.0505 0.0665,-0.0973 0.12196,-0.13642 0.0131,-0.0146 0.0262,-0.0293 0.0393,-0.0439 0.11325,-0.11012 0.16267,-0.16703 0.28784,-0.25683 0.0324,-0.0232 0.0685,-0.0404 0.10232,-0.0615 0.0525,-0.0328 0.10447,-0.0667 0.15658,-0.10025 0.0787,-0.0507 0.0977,-0.0629 0.12454,-0.0806 0.12421,-0.12923 0.22449,-0.23975 0.3452,-0.38499 0.0472,-0.0567 0.0933,-0.11403 0.13952,-0.17156 0.01,0.009 0.0235,0.0171 0.0403,0.0243 -0.008,-0.0192 -0.0131,-0.0389 -0.0139,-0.0579 -0.006,0.007 -0.007,0.008 -0.0134,0.0165 -0.004,0.006 -0.009,0.0107 -0.0129,0.016 -0.0348,-0.0324 -0.0199,-0.0776 0.0786,-0.14624 -0.0377,0.0362 -0.0534,0.0741 -0.0517,0.11317 0.0174,-0.0217 0.0284,-0.036 0.0393,-0.0496 l -0.002,-0.002 c 0.023,-0.0277 0.0738,-0.0891 0.002,0.002 0.0359,0.0418 0.0699,0.0854 0.10387,0.12919 0.0477,-0.06 0.0933,-0.12174 0.1416,-0.18138 0.004,-0.005 0.008,-0.009 0.0114,-0.0134 -0.0531,-0.11821 -0.0522,-0.11713 -0.19275,-0.0315 -0.0181,0.011 -0.0342,0.021 -0.0486,0.031 0.004,-0.004 0.009,-0.008 0.0135,-0.0119 0.0473,-0.0381 0.0976,-0.12733 0.14934,-0.12506 0.007,2.6e-4 0.0148,0.003 0.0222,0.007 0.0368,0.022 0.0704,0.047 0.10284,0.0744 0.002,-0.002 0.004,-0.005 0.006,-0.007 0.0461,-0.0491 0.0626,-0.0678 0.0873,-0.0946 0.006,-0.0204 0.0121,-0.0414 0.0191,-0.0615 0.008,-0.0221 0.0179,-0.0434 0.0269,-0.0651 0.0326,-0.0621 0.0523,-0.10712 0.0946,-0.16123 0.10821,-0.13847 0.0735,-0.0729 0.15141,-0.18035 0.13534,-0.18433 0.28582,-0.35676 0.42013,-0.54157 0.10134,-0.13374 0.20468,-0.2599 0.3204,-0.38189 0.0262,-0.0276 0.0676,-0.0383 0.0827,-0.078 0.0227,-0.0254 0.043,-0.0532 0.0646,-0.0796 0.11738,-0.14854 0.21754,-0.30847 0.34469,-0.44907 5.2e-4,-0.001 -1.8e-4,0.003 -5.3e-4,0.004 -0.004,0.0284 -0.004,0.0193 0.0212,-0.0238 0.0567,-0.0961 0.10125,-0.19713 0.13436,-0.30437 0.0959,-0.2363 0.20497,-0.46668 0.29714,-0.70435 -0.003,-0.0485 -0.003,-0.0399 0.0196,-0.13849 0.002,0.0162 0.002,0.0213 0.0129,-0.032 0.006,-0.0303 0.007,-0.0619 0.014,-0.092 0.024,-0.10346 0.054,-0.17637 0.1018,-0.26768 0.004,-0.0112 0.008,-0.0184 0.0114,-0.0284 v -0.7705 c 0,-0.1026 0.029,-0.17559 0.0698,-0.22324 -0.086,-0.0946 -0.14573,-0.24801 -0.14573,-0.46044 v -0.009 c 0,-0.0149 -0.0149,-0.0433 0,-0.0439 0.0146,-5.3e-4 0.0282,-10e-4 0.0424,-0.002 -0.0142,-2.6e-4 -0.0278,-7.9e-4 -0.0424,-0.001 -0.0274,-7.9e-4 0.0658,-0.11862 0,-0.0822 v -0.6092 c 0,-0.38305 0.1936,-0.57464 0.38706,-0.57464 0.0688,0 0.13735,0.0244 0.1974,0.0729 0.002,-0.0184 0.002,-0.0379 0.005,-0.0558 7.9e-4,0.004 0.002,0.0186 0.003,0.0248 0.004,0.0102 0.0149,0.0418 0.0129,0.031 -0.0125,-0.0618 -0.0355,-0.12089 -0.0491,-0.18242 -0.01,-0.0453 -0.0374,-0.2144 -0.0413,-0.23719 -0.006,-0.0353 -0.01,-0.0706 -0.015,-0.10594 -0.0267,-0.1753 -0.0789,-0.34569 -0.0956,-0.52297 -0.0361,-0.17932 -0.15734,-0.32644 -0.21085,-0.50022 -0.0445,-0.12286 -0.082,-0.24779 -0.14572,-0.36277 -0.0493,-0.0934 -0.10658,-0.1833 -0.16898,-0.2682 -0.0432,-0.0772 -0.0978,-0.15894 -0.11628,-0.24908 -0.0292,-0.0348 -0.0595,-0.0687 -0.0868,-0.10491 -0.097,-0.12813 -0.0311,-0.10375 -0.12971,-0.20567 -0.0517,-0.0669 -0.0961,-0.13171 -0.13849,-0.2005 -0.01,-0.006 -0.0194,-0.0133 -0.0289,-0.0202 v 0.0574 0.58032 0.0693 c 9e-5,0.006 0,0.0116 0,0.0176 v 0.0388 0.01 c 0,0.006 0.006,0.0192 0,0.0191 -0.12906,-0.002 -0.2581,-0.006 -0.38706,-0.0119 -0.12896,0.006 -0.25799,0.0103 -0.38705,0.0119 -0.006,8e-5 0,-0.0127 0,-0.0191 v -0.01 -0.0388 -0.0868 -0.58033 -0.23254 c 0,-0.15189 0.0303,-0.27368 0.0791,-0.36535 0.001,-0.0491 0.006,-0.0756 0.0289,-0.077 0.004,-2.2e-4 0.0133,0.003 0.0186,0.004 0.005,-0.006 0.0102,-0.0126 0.0155,-0.0186 -0.20961,-0.17024 -0.13203,-0.38419 0.0413,-0.38396 z m 0.0517,11.46597 c -0.003,0 -0.001,0.009 0.001,0.007 0.003,-0.003 0.005,-0.005 0.008,-0.007 -0.003,-2e-5 -0.006,-2e-5 -0.009,0 z m 0.14935,0.005 c -0.0161,0.15518 -0.13729,0.44333 0.0615,0.28887 0.10321,-0.0802 0.0406,-0.11273 -0.016,-0.28681 -0.0152,-5.2e-4 -0.0303,-0.001 -0.0455,-0.002 z" />
    </clipPath>
    <clipPath
       clipPathUnits="userSpaceOnUse"
       id="clipPath12396">
      <path
         id="path12398"
         style="fill:#ff0000;fill-opacity:1;fill-rule:nonzero;stroke:none;stroke-width:0.264583"
         d="m 257.90549,120.55746 -9.85871,5.52989 7.29796,13.01511 9.85858,-5.528 -3.82655,-6.82423 c 0.0261,0.15754 0.0374,0.31805 0.06,0.47584 0.0401,0.20926 0.0608,0.421 0.0816,0.63262 l 0.29521,0.52646 0.40211,0.71713 c 0.0223,0.0397 0.048,0.0775 0.0667,0.11899 0.0428,0.0955 0.0783,0.19438 0.11724,0.29151 0.21031,0.51327 0.10787,0.99524 -0.0108,1.51386 -0.0656,0.24626 -0.0534,0.18246 -0.10656,0.47033 -0.0116,0.0626 -0.0172,0.12608 -0.0313,0.1882 -0.003,0.0133 -0.0538,0.22224 -0.097,0.25285 -0.0588,0.0418 -0.13218,0.058 -0.19833,0.0869 -0.16316,-0.17591 -0.20898,-0.18543 -0.12561,-0.3508 0.0151,-0.03 0.0284,-0.0502 0.0412,-0.0628 0.01,-0.0463 0.0129,-0.0892 0.0317,-0.1896 0.0563,-0.30135 0.0436,-0.23871 0.10858,-0.48153 0.08,-0.34509 0.17902,-0.72931 0.0978,-1.08395 -0.0158,-0.069 -0.0467,-0.13383 -0.0699,-0.20075 -0.0315,-0.0814 -0.0589,-0.16471 -0.0944,-0.24447 -0.0187,-0.0415 -0.0444,-0.0793 -0.0667,-0.11899 l -0.30355,-0.54134 c -0.005,0.0233 -0.009,0.0467 -0.0129,0.07 -0.01,0.0284 -0.0214,0.0562 -0.0286,0.0853 2.2e-4,0.002 0.007,0.002 0.007,0.004 0.002,0.009 -10e-4,0.0192 -10e-4,0.0285 -0.004,0.0397 -0.008,0.0791 -0.0122,0.11881 -0.014,0.13689 -0.007,0.073 -0.0352,0.25732 -0.008,0.11948 -0.056,0.23027 -0.0852,0.34461 -0.0282,0.11036 -0.0421,0.2267 -0.0568,0.33933 -0.0256,0.22379 -0.0731,0.44388 -0.10021,0.66761 0.001,0.0873 -0.0367,0.16831 -0.0552,0.25133 -8.6e-4,0.004 0.008,-0.0129 0.0102,-0.008 0.006,0.0122 4.4e-4,0.0281 0.003,0.0415 0.0342,0.0947 0.0319,0.17228 0.0193,0.29014 -0.004,0.0417 -0.0256,0.0802 -0.0359,0.12086 -0.005,0.0191 -0.006,0.0385 -0.0102,0.0579 -0.0144,0.0963 -0.0308,0.19228 -0.0484,0.2878 0.41802,-0.0462 0.59361,0.43832 0.13301,0.75071 0.19528,0.14731 0.17507,0.48422 -0.22978,0.71124 l -0.19788,0.11095 c -0.0363,0.13019 -0.0695,0.26114 -0.0982,0.39219 -0.0297,0.13569 -0.046,0.27404 -0.0733,0.41022 -0.0213,0.10635 -0.0551,0.21008 -0.0722,0.31715 -0.003,0.02 0.007,0.0407 0.0114,0.0605 0.096,0.50092 -0.2086,0.73183 -0.46555,0.60882 -0.0172,0.13069 -0.019,0.2635 -0.0452,0.39269 -0.0164,0.0808 -0.0677,0.1518 -0.0833,0.23277 -0.004,0.019 0.0196,0.0338 0.029,0.0507 0.33176,0.59165 -0.15927,0.95537 -0.53624,0.56728 -0.25956,0.44979 -0.81343,0.23314 -0.66183,-0.41745 0.16693,-0.71639 0.12646,-0.58251 0.35976,-1.38072 0.0483,-0.16535 0.0913,-0.33286 0.15335,-0.49361 0.21084,-0.54598 0.2759,-0.70794 0.28468,-0.71476 0.005,0.0115 -0.10874,0.35722 -0.0258,0.2224 0.0135,-0.0652 0.0287,-0.12998 0.0435,-0.19502 -10e-4,-0.0533 0.0108,-0.10994 0.0372,-0.16718 0.005,-0.021 0.009,-0.0419 0.0139,-0.0629 0.0449,-0.15146 0.0602,-0.22527 0.12545,-0.36479 0.0169,-0.0361 0.04,-0.0687 0.0592,-0.10369 0.0298,-0.0543 0.0585,-0.10929 0.0875,-0.16402 0.0442,-0.0834 0.0548,-0.10401 0.0696,-0.13263 0.046,-0.17632 0.0765,-0.31649 0.11119,-0.50433 0.0134,-0.0725 0.0256,-0.14512 0.0378,-0.21789 -0.0467,-0.011 -0.0554,-0.058 -0.003,-0.16713 0.002,-0.006 0.004,-0.0133 0.007,-0.02 0.0226,-0.0564 0.0228,-0.15876 0.0691,-0.18212 0.007,-0.003 0.0139,-0.005 0.0227,-0.005 0.043,0.001 0.0852,0.007 0.12705,0.0153 4.5e-4,-0.003 7.9e-4,-0.006 0.002,-0.009 0.0161,-0.0654 0.021,-0.0895 0.0295,-0.12495 -0.005,-0.0207 -0.009,-0.0418 -0.0127,-0.0628 -0.004,-0.0231 -0.006,-0.0464 -0.008,-0.0697 -0.002,-0.0701 -0.007,-0.11988 0.003,-0.18779 0.0267,-0.17371 0.0285,-0.0995 0.0438,-0.23136 0.0279,-0.22696 0.0748,-0.45097 0.10158,-0.67786 0.023,-0.16623 0.0517,-0.32635 0.0929,-0.48934 0.009,-0.0369 0.0399,-0.067 0.0337,-0.10895 0.007,-0.0332 0.0117,-0.067 0.0177,-0.10056 0.0297,-0.18697 0.0389,-0.37546 0.081,-0.56027 7e-5,-9.5e-4 3.7e-4,0.003 0.002,0.004 0.0108,0.0265 0.006,0.0188 0.007,-0.0311 0.002,-0.11154 -0.008,-0.22147 -0.0317,-0.3312 -0.0319,-0.25298 -0.0495,-0.50732 -0.0853,-0.75969 -0.0323,-0.0509 -0.0203,-0.0286 -0.0504,-0.1311 0.01,0.013 0.0124,0.0172 -0.004,-0.0345 -0.01,-0.0292 -0.0242,-0.0573 -0.0328,-0.0871 -0.0297,-0.10197 -0.0392,-0.18025 -0.0421,-0.28327 -0.002,-0.0119 -0.002,-0.0198 -0.004,-0.0303 l -0.37684,-0.67206 c -0.0497,-0.0887 -0.0614,-0.16684 -0.0497,-0.22808 -0.12168,-0.0401 -0.24942,-0.14473 -0.35371,-0.33073 l -0.005,-0.008 c -0.007,-0.013 -0.0347,-0.0314 -0.022,-0.0392 0.0125,-0.008 0.0241,-0.0147 0.0362,-0.0221 -0.0125,0.007 -0.0246,0.0129 -0.0375,0.0198 -0.0243,0.0127 -8.3e-4,-0.13708 -0.0402,-0.0728 l -0.29798,-0.53142 c -0.18734,-0.33411 -0.11192,-0.59615 0.057,-0.69078 0.0601,-0.0337 0.13232,-0.0459 0.20852,-0.0328 -0.007,-0.0168 -0.0151,-0.0328 -0.0218,-0.0494 0.003,0.003 0.0107,0.0154 0.0144,0.0204 0.009,0.007 0.0336,0.0285 0.0266,0.02 -0.0411,-0.0478 -0.0901,-0.0881 -0.13204,-0.1351 -0.0309,-0.0346 -0.13743,-0.16875 -0.15207,-0.18667 -0.0224,-0.0279 -0.0433,-0.0567 -0.0649,-0.0851 -0.10904,-0.13985 -0.23791,-0.26293 -0.33917,-0.40939 -0.11922,-0.13874 -0.29689,-0.20779 -0.42855,-0.3332 -0.0989,-0.0854 -0.19273,-0.17602 -0.30454,-0.24514 -0.0887,-0.0573 -0.18261,-0.10775 -0.27857,-0.15129 -0.0754,-0.0462 -0.16307,-0.0908 -0.22323,-0.16039 -0.0424,-0.0161 -0.0855,-0.0309 -0.12704,-0.049 -0.14732,-0.0643 -0.0779,-0.0753 -0.21372,-0.11596 -0.0816,-0.0346 -0.15503,-0.0708 -0.22908,-0.11268 -0.009,-8.9e-4 -0.0166,-4.2e-4 -0.0251,-0.001 l 0.0301,0.0536 0.28383,0.50618 0.0339,0.0604 c 0.003,0.005 0.006,0.0101 0.009,0.0153 l 0.019,0.0338 0.005,0.009 c 0.003,0.006 0.0146,0.0138 0.009,0.0167 -0.11335,0.0617 -0.22817,0.12078 -0.34341,0.17894 -0.10973,0.068 -0.22,0.13516 -0.33179,0.19966 -0.005,0.003 -0.006,-0.0111 -0.009,-0.0167 l -0.005,-0.009 -0.019,-0.0338 -0.0425,-0.0757 -0.28383,-0.50618 -0.11373,-0.20283 c -0.0737,-0.1315 -0.10691,-0.25173 -0.10962,-0.35504 -0.0256,-0.0478 -0.0331,-0.071 -0.0128,-0.0841 0.004,-0.002 0.012,-0.005 0.0186,-0.007 0.001,-0.008 0.003,-0.0162 0.005,-0.0241 -0.26979,-0.0447 -0.30646,-0.27203 -0.15319,-0.35667 0.0521,-0.0289 0.12632,-0.0414 0.22051,-0.0241 0.0574,0.0105 0.1232,0.0193 0.1889,0.0315 -0.0117,-0.12576 0.0474,-0.2382 0.15979,-0.29933 0.12789,-0.0696 0.32383,-0.0732 0.55882,0.0457 0.1486,0.0752 0.27632,0.18139 0.43167,0.24258 0.0891,0.0248 0.1633,0.078 0.23992,0.12674 0.0112,0.007 0.0552,0.0409 0.0571,0.0225 0.10889,-0.003 0.21855,0.11264 0.29415,0.18224 0.035,0.0318 0.0465,0.0458 0.0465,0.0438 5.7e-4,-0.009 -0.0102,-0.015 -0.0157,-0.0226 0.11373,0.0526 0.2235,0.11625 0.33088,0.18119 0.11722,0.0707 0.22004,0.15954 0.32297,0.24844 z m 2.40508,10.72278 c -0.0228,0.008 -0.0426,0.0442 -0.0831,0.11592 -0.0109,0.0192 -0.02,0.0373 -0.028,0.0536 -0.0159,0.0507 -0.0115,0.0918 0.01,0.12539 0.005,-0.0275 0.007,-0.0453 0.01,-0.0625 -7.2e-4,-2e-4 -7.9e-4,-0.001 -0.002,-0.001 0.006,-0.0354 0.0206,-0.11248 0.002,0.001 0.052,0.019 0.10324,0.0404 0.15448,0.0621 0.0123,-0.0756 0.0215,-0.15169 0.0343,-0.22721 10e-4,-0.006 0.002,-0.0119 0.003,-0.0177 -0.0518,-0.0383 -0.0775,-0.0575 -0.10023,-0.0498 z m -0.10142,0.29563 c -0.002,0.008 -9.8e-4,0.01 -0.003,0.0201 -9.8e-4,0.007 -0.002,0.0131 -0.004,0.0201 l -9.2e-4,5.2e-4 c 0.013,0.003 0.0292,0.003 0.0475,0.001 -0.0159,-0.0124 -0.0296,-0.0264 -0.0395,-0.0419 z m 1.62785,0.15068 c -0.003,0.002 -0.005,0.003 -0.007,0.005 l -4.6e-4,2.6e-4 c -9.7e-4,0.002 0.003,0.007 0.004,0.005 9.5e-4,-0.004 0.002,-0.007 0.004,-0.0101 z m 0.12488,-0.0647 c 0.0618,0.14326 0.0972,0.4538 0.19492,0.22189 0.0508,-0.12047 -0.0197,-0.11821 -0.15424,-0.24234 -0.0135,0.007 -0.0271,0.0137 -0.0407,0.0204 z" />
    </clipPath>
  </defs>
  <sodipodi:namedview
     id="base"
     pagecolor="#ffffff"
     bordercolor="#666666"
     borderopacity="1.0"
     inkscape:pageopacity="0.0"
     inkscape:pageshadow="2"
     inkscape:zoom="1.730897"
     inkscape:cx="567.62476"
     inkscape:cy="327.57582"
     inkscape:document-units="mm"
     inkscape:current-layer="layer1"
     showgrid="false"
     showborder="true"
     width="200mm"
     showguides="true"
     inkscape:guide-bbox="true"
     inkscape:window-width="864"
     inkscape:window-height="512"
     inkscape:window-x="0"
     inkscape:window-y="38"
     inkscape:window-maximized="0"
     inkscape:pagecheckerboard="0">
    <inkscape:grid
       type="xygrid"
       id="grid815"
       units="mm"
       spacingx="10"
       spacingy="10"
       empspacing="4"
       dotted="false" />
  </sodipodi:namedview>
  <metadata
     id="metadata5">
    <rdf:RDF>
      <cc:Work
         rdf:about="">
        <dc:format>image/svg+xml</dc:format>
        <dc:type
           rdf:resource="http://purl.org/dc/dcmitype/StillImage" />
        <dc:title />
      </cc:Work>
    </rdf:RDF>
  </metadata>
  <g
     inkscape:label="Layer 1"
     inkscape:groupmode="layer"
     id="layer1"
     transform="translate(0,-177)">
    <path
       style="font-variation-settings:normal;opacity:0.99;fill:none;fill-opacity:1;fill-rule:evenodd;stroke:#ff0000;stroke-width:0.265;stroke-linecap:butt;stroke-linejoin:round;stroke-miterlimit:4;stroke-dasharray:1.59, 1.59;stroke-dashoffset:0;stroke-opacity:1;stop-color:#000000;stop-opacity:1"
       id="path11265-7"
       sodipodi:type="arc"
       sodipodi:cx="272.50226"
       sodipodi:cy="114.91873"
       sodipodi:rx="4.4506621"
       sodipodi:ry="8.0199785"
       sodipodi:start="6.1848709"
       sodipodi:end="6.1778721"
       sodipodi:open="true"
       sodipodi:arc-type="arc"
       transform="rotate(29.280642)"
       d="m 276.93143,114.13152 a 4.4506621,8.0199785 0 0 1 -3.98456,8.76707 4.4506621,8.0199785 0 0 1 -4.87223,-7.16472 4.4506621,8.0199785 0 0 1 3.96752,-8.79215 4.4506621,8.0199785 0 0 1 4.8861,7.13396" />
    <path
       style="fill:none;stroke:#0000ff;stroke-width:0.264583px;stroke-linecap:butt;stroke-linejoin:miter;stroke-opacity:1"
       d="m 113.48626,208.66328 c 1.27276,2.66163 3.34183,4.93624 5.87139,6.45464 2.52955,1.51839 5.50994,2.27479 8.45744,2.14642 2.94749,-0.12837 5.85084,-1.14102 8.23881,-2.87359 2.38797,-1.73257 4.25144,-4.17845 5.28798,-6.94066 1.75172,-4.66805 1.0035,-10.19372 -1.92638,-14.22796 -2.92987,-4.03424 -7.95283,-6.45525 -12.93383,-6.2342 -4.981,0.22105 -9.76966,3.0774 -12.33111,7.35504 -2.56144,4.27765 -2.81844,9.84745 -0.662,14.34289 1.64421,3.42762 4.62673,6.19135 8.16945,7.57017"
       id="path1052"
       inkscape:path-effect="#path-effect1054"
       inkscape:original-d="m 113.48626,208.66328 c -0.001,-0.008 18.57068,-0.80853 27.85562,-1.21319 9.28494,-0.40466 -18.56861,0.82411 -27.85332,1.23577 -9.28471,0.41165 5.44656,5.04704 8.16945,7.57017" />
    <path
       style="fill:none;stroke:#ff0000;stroke-width:0.264583px;stroke-linecap:butt;stroke-linejoin:miter;stroke-opacity:1"
       d="m 113.48856,208.68586 c -4.38121,-1.98187 -9.55131,-2.14796 -14.050696,-0.45137 -4.499383,1.69659 -8.272636,5.23496 -10.254511,9.61617 -1.981874,4.38122 -2.14796,9.55132 -0.451371,14.0507 1.69659,4.49938 5.234961,8.27264 9.616175,10.25451 4.381213,1.98187 9.551313,2.14796 14.050693,0.45137 4.49939,-1.69659 8.27264,-5.23496 10.25451,-9.61617 1.98188,-4.38122 2.14796,-9.55132 0.45137,-14.0507 -1.69658,-4.49938 -5.23496,-8.27264 -9.61617,-10.25451"
       id="path1056"
       inkscape:path-effect="#path-effect1058"
       inkscape:original-d="m 113.48856,208.68586 c 3.41408,8.91228 -18.553951,24.55825 -15.140403,33.47001 3.413543,8.91175 18.554483,-24.55773 15.140403,-33.47001"
       sodipodi:nodetypes="csc" />
    <path
       style="fill:none;stroke:#ff0000;stroke-width:0.264583px;stroke-linecap:butt;stroke-linejoin:miter;stroke-opacity:1"
       d="m 113.48856,208.68586 v 0"
       id="path1060"
       inkscape:path-effect="#path-effect1064"
       inkscape:original-d="m 113.48856,208.68586 c -13.788473,43.50939 11.22481,35.26038 0,0"
       sodipodi:nodetypes="cc" />
    <text
       xml:space="preserve"
       style="font-size:5.64444px;line-height:1.25;font-family:sans-serif;letter-spacing:0px;word-spacing:0px;stroke-width:0.264583"
       x="29.637506"
       y="268.5737"
       id="text2385"><tspan
         sodipodi:role="line"
         id="tspan2383"
         style="stroke-width:0.264583"
         x="29.637506"
         y="268.5737">\(0\)-skeleton</tspan></text>
    <text
       xml:space="preserve"
       style="font-size:5.64444px;line-height:1.25;font-family:sans-serif;letter-spacing:0px;word-spacing:0px;stroke-width:0.264583"
       x="98.492538"
       y="268.64249"
       id="text2385-8"><tspan
         sodipodi:role="line"
         id="tspan2383-1"
         style="stroke-width:0.264583"
         x="98.492538"
         y="268.64249">\(1\)-skeleton</tspan></text>
    <text
       xml:space="preserve"
       style="font-size:5.64444px;line-height:1.25;font-family:sans-serif;letter-spacing:0px;word-spacing:0px;stroke-width:0.264583"
       x="170.90475"
       y="268.56219"
       id="text2385-5"><tspan
         sodipodi:role="line"
         id="tspan2383-5"
         style="stroke-width:0.264583"
         x="170.90475"
         y="268.56219">\(2\)-skeleton</tspan></text>
    <path
       style="font-variation-settings:normal;opacity:0.99;fill:none;fill-opacity:1;fill-rule:evenodd;stroke:#000000;stroke-width:0.265;stroke-linecap:butt;stroke-linejoin:round;stroke-miterlimit:4;stroke-dasharray:none;stroke-dashoffset:0;stroke-opacity:1;stop-color:#000000;stop-opacity:1"
       id="path10133"
       sodipodi:type="arc"
       sodipodi:cx="169.00159"
       sodipodi:cy="229.82414"
       sodipodi:rx="38.011971"
       sodipodi:ry="17.132158"
       sodipodi:start="6.1848709"
       sodipodi:end="6.1778721"
       sodipodi:open="true"
       sodipodi:arc-type="arc"
       d="m 206.83,228.14252 a 38.011971,17.132158 0 0 1 -34.03112,18.72808 38.011971,17.132158 0 0 1 -41.61242,-15.30518 38.011971,17.132158 0 0 1 33.88551,-18.78164 38.011971,17.132158 0 0 1 41.73099,15.23945"
       clip-path="url(#clipPath12386)"
       transform="translate(21.166667,-5.2916667)" />
    <path
       style="font-variation-settings:normal;opacity:0.99;fill:#000000;fill-opacity:1;fill-rule:evenodd;stroke:#000000;stroke-width:0.265;stroke-linecap:butt;stroke-linejoin:round;stroke-miterlimit:4;stroke-dasharray:none;stroke-dashoffset:0;stroke-opacity:1;stop-color:#000000;stop-opacity:1"
       id="path10317"
       sodipodi:type="arc"
       sodipodi:cx="39.020603"
       sodipodi:cy="209.72031"
       sodipodi:rx="1.9630597"
       sodipodi:ry="1.9630597"
       sodipodi:start="6.1848709"
       sodipodi:end="6.1778721"
       sodipodi:open="true"
       sodipodi:arc-type="arc"
       d="m 40.974183,209.52762 a 1.9630597,1.9630597 0 0 1 -1.757476,2.14593 1.9630597,1.9630597 0 0 1 -2.148998,-1.75372 1.9630597,1.9630597 0 0 1 1.749956,-2.15207 1.9630597,1.9630597 0 0 1 2.155122,1.74619" />
    <path
       style="font-variation-settings:normal;opacity:0.99;fill:#000000;fill-opacity:1;fill-rule:evenodd;stroke:#000000;stroke-width:0.265;stroke-linecap:butt;stroke-linejoin:round;stroke-miterlimit:4;stroke-dasharray:none;stroke-dashoffset:0;stroke-opacity:1;stop-color:#000000;stop-opacity:1"
       id="path10317-5"
       sodipodi:type="arc"
       sodipodi:cx="113.96584"
       sodipodi:cy="209.89876"
       sodipodi:rx="1.9630597"
       sodipodi:ry="1.9630597"
       sodipodi:start="6.1848709"
       sodipodi:end="6.1778721"
       sodipodi:open="true"
       sodipodi:arc-type="arc"
       d="m 115.91942,209.70607 a 1.9630597,1.9630597 0 0 1 -1.75747,2.14593 1.9630597,1.9630597 0 0 1 -2.149,-1.75372 1.9630597,1.9630597 0 0 1 1.74996,-2.15206 1.9630597,1.9630597 0 0 1 2.15512,1.74618" />
    <path
       style="font-variation-settings:normal;opacity:0.99;fill:none;fill-opacity:1;fill-rule:evenodd;stroke:#000000;stroke-width:0.265;stroke-linecap:butt;stroke-linejoin:round;stroke-miterlimit:4;stroke-dasharray:none;stroke-dashoffset:0;stroke-opacity:1;stop-color:#000000;stop-opacity:1"
       id="path10602"
       sodipodi:type="arc"
       sodipodi:cx="169.66374"
       sodipodi:cy="225.78209"
       sodipodi:rx="18.654503"
       sodipodi:ry="5.8138981"
       sodipodi:start="0.51238107"
       sodipodi:end="2.8332673"
       sodipodi:open="true"
       sodipodi:arc-type="arc"
       d="m 185.92263,228.63238 a 18.654503,5.8138981 0 0 1 -18.15887,2.93337 18.654503,5.8138981 0 0 1 -15.87483,-4.01936"
       clip-path="url(#clipPath12124)"
       transform="translate(21.166667,-5.2916667)" />
    <path
       style="font-variation-settings:normal;opacity:0.99;fill:none;fill-opacity:1;fill-rule:evenodd;stroke:#000000;stroke-width:0.265;stroke-linecap:butt;stroke-linejoin:round;stroke-miterlimit:4;stroke-dasharray:none;stroke-dashoffset:0;stroke-opacity:1;stop-color:#000000;stop-opacity:1"
       id="path10917"
       sodipodi:type="arc"
       sodipodi:cx="190.56818"
       sodipodi:cy="232.1935"
       sodipodi:rx="12.492198"
       sodipodi:ry="11.956818"
       sodipodi:start="3.7552137"
       sodipodi:end="5.6731053"
       sodipodi:open="true"
       sodipodi:arc-type="arc"
       d="m 180.35495,225.30838 a 12.492198,11.956818 0 0 1 10.23534,-5.07168 12.492198,11.956818 0 0 1 10.21652,5.10634" />
    <path
       style="font-variation-settings:normal;opacity:0.99;fill:#000000;fill-opacity:1;fill-rule:evenodd;stroke:#000000;stroke-width:0.265;stroke-linecap:butt;stroke-linejoin:round;stroke-miterlimit:4;stroke-dasharray:none;stroke-dashoffset:0;stroke-opacity:1;stop-color:#000000;stop-opacity:1"
       id="path10317-5-1"
       sodipodi:type="arc"
       sodipodi:cx="180.37392"
       sodipodi:cy="228.62025"
       sodipodi:rx="1.9630597"
       sodipodi:ry="1.9630597"
       sodipodi:start="6.1848709"
       sodipodi:end="6.1778721"
       sodipodi:open="true"
       sodipodi:arc-type="arc"
       d="m 182.3275,228.42757 a 1.9630597,1.9630597 0 0 1 -1.75748,2.14592 1.9630597,1.9630597 0 0 1 -2.149,-1.75371 1.9630597,1.9630597 0 0 1 1.74996,-2.15207 1.9630597,1.9630597 0 0 1 2.15512,1.74619" />
    <path
       style="font-variation-settings:normal;opacity:0.99;fill:none;fill-opacity:1;fill-rule:evenodd;stroke:#ff0000;stroke-width:0.265;stroke-linecap:butt;stroke-linejoin:round;stroke-miterlimit:4;stroke-dasharray:none;stroke-dashoffset:0;stroke-opacity:1;stop-color:#000000;stop-opacity:1"
       id="path11265"
       sodipodi:type="arc"
       sodipodi:cx="256.62491"
       sodipodi:cy="129.83084"
       sodipodi:rx="4.4506621"
       sodipodi:ry="8.0199785"
       sodipodi:start="6.1848709"
       sodipodi:end="6.1778721"
       sodipodi:open="true"
       sodipodi:arc-type="arc"
       d="m 261.05408,129.04363 a 4.4506621,8.0199785 0 0 1 -3.98456,8.76707 4.4506621,8.0199785 0 0 1 -4.87223,-7.16472 4.4506621,8.0199785 0 0 1 3.96752,-8.79215 4.4506621,8.0199785 0 0 1 4.8861,7.13396"
       transform="rotate(29.280642,20.639658,37.885208)"
       clip-path="url(#clipPath12396)" />
    <path
       style="font-variation-settings:normal;opacity:0.99;fill:none;fill-opacity:1;fill-rule:evenodd;stroke:#0000ff;stroke-width:0.265;stroke-linecap:butt;stroke-linejoin:round;stroke-miterlimit:4;stroke-dasharray:none;stroke-dashoffset:0;stroke-opacity:1;stop-color:#000000;stop-opacity:1"
       id="path13130"
       sodipodi:type="arc"
       sodipodi:cx="191.15321"
       sodipodi:cy="221.60986"
       sodipodi:rx="23.595295"
       sodipodi:ry="7.932035"
       sodipodi:start="6.1848709"
       sodipodi:end="6.1778721"
       sodipodi:open="true"
       sodipodi:arc-type="arc"
       d="m 214.63457,220.83129 a 23.595295,7.932035 0 0 1 -21.12425,8.67093 23.595295,7.932035 0 0 1 -25.83021,-7.08616 23.595295,7.932035 0 0 1 21.03386,-8.69573 23.595295,7.932035 0 0 1 25.90381,7.05573" />
    <text
       xml:space="preserve"
       style="font-size:5.64444px;line-height:1.25;font-family:sans-serif;letter-spacing:0px;word-spacing:0px;stroke-width:0.264583"
       x="191.50244"
       y="280.40054"
       id="text13539"><tspan
         sodipodi:role="line"
         id="tspan13537"
         style="stroke-width:0.264583"
         x="191.50244"
         y="280.40054">Glue in disk</tspan></text>
    <text
       xml:space="preserve"
       style="font-size:5.64444px;line-height:1.25;font-family:sans-serif;letter-spacing:0px;word-spacing:0px;stroke-width:0.264583"
       x="119.48466"
       y="280.43686"
       id="text13539-1"><tspan
         sodipodi:role="line"
         id="tspan13537-0"
         style="stroke-width:0.264583"
         x="119.48466"
         y="280.43686">Glue in edges</tspan></text>
  </g>
</svg>
