<?xml version="1.0" encoding="UTF-8" standalone="no"?>
<!-- Created with Inkscape (http://www.inkscape.org/) -->

<svg
   width="240mm"
   height="40mm"
   viewBox="0 0 240 40"
   version="1.1"
   id="svg8"
   inkscape:version="1.1.1 (c3084ef, 2021-09-22)"
   sodipodi:docname="eg:cellular-homology-calc-torus.svg"
   xmlns:inkscape="http://www.inkscape.org/namespaces/inkscape"
   xmlns:sodipodi="http://sodipodi.sourceforge.net/DTD/sodipodi-0.dtd"
   xmlns="http://www.w3.org/2000/svg"
   xmlns:svg="http://www.w3.org/2000/svg"
   xmlns:rdf="http://www.w3.org/1999/02/22-rdf-syntax-ns#"
   xmlns:cc="http://creativecommons.org/ns#"
   xmlns:dc="http://purl.org/dc/elements/1.1/">
  <defs
     id="defs2">
    <inkscape:path-effect
       effect="spiro"
       id="path-effect4798"
       is_visible="true"
       lpeversion="1" />
    <inkscape:path-effect
       effect="spiro"
       id="path-effect3388"
       is_visible="true"
       lpeversion="1" />
    <inkscape:path-effect
       effect="spiro"
       id="path-effect3382"
       is_visible="true"
       lpeversion="1" />
    <inkscape:path-effect
       effect="spiro"
       id="path-effect2910"
       is_visible="true"
       lpeversion="1" />
    <inkscape:path-effect
       effect="spiro"
       id="path-effect2712"
       is_visible="true"
       lpeversion="1" />
    <inkscape:path-effect
       effect="spiro"
       id="path-effect2598"
       is_visible="true"
       lpeversion="1" />
    <marker
       id="marker-arrow-1"
       orient="auto-start-reverse"
       refY="0"
       refX="0"
       markerHeight="3"
       markerWidth="2">
      <g
         transform="scale(1.3933333)"
         id="g2602"><path
   d="M -1.55415,2.0722 C -1.42464,1.29512 0,0.1295 0.38852,0 0,-0.1295 -1.42464,-1.29512 -1.55415,-2.0722"
   style="fill:none;stroke:#000000;stroke-linecap:round;stroke-linejoin:round;stroke-miterlimit:10;stroke-dasharray:none;stroke-opacity:1"
   id="path2600" />
0&quot; /&gt;
   </g>
    </marker>
  </defs>
  <sodipodi:namedview
     id="base"
     pagecolor="#ffffff"
     bordercolor="#666666"
     borderopacity="1.0"
     inkscape:pageopacity="0.0"
     inkscape:pageshadow="2"
     inkscape:zoom="0.53000424"
     inkscape:cx="520.75055"
     inkscape:cy="-17.924385"
     inkscape:document-units="mm"
     inkscape:current-layer="layer1"
     showgrid="false"
     showborder="true"
     width="200mm"
     showguides="true"
     inkscape:guide-bbox="true"
     inkscape:window-width="1280"
     inkscape:window-height="680"
     inkscape:window-x="1728"
     inkscape:window-y="25"
     inkscape:window-maximized="0"
     inkscape:pagecheckerboard="0">
    <inkscape:grid
       type="xygrid"
       id="grid815"
       units="mm"
       spacingx="10"
       spacingy="10"
       empspacing="4"
       dotted="false" />
  </sodipodi:namedview>
  <metadata
     id="metadata5">
    <rdf:RDF>
      <cc:Work
         rdf:about="">
        <dc:format>image/svg+xml</dc:format>
        <dc:type
           rdf:resource="http://purl.org/dc/dcmitype/StillImage" />
      </cc:Work>
    </rdf:RDF>
  </metadata>
  <g
     inkscape:label="Layer 1"
     inkscape:groupmode="layer"
     id="layer1"
     transform="translate(0,-177)">
    <text
       xml:space="preserve"
       style="font-size:5.64444px;line-height:1.25;font-family:sans-serif;letter-spacing:0px;word-spacing:0px;stroke-width:0.264583"
       x="43.013828"
       y="200.39775"
       id="text979"><tspan
         sodipodi:role="line"
         id="tspan977"
         style="stroke-width:0.264583"
         x="43.013828"
         y="200.39775">\(\partial D\)</tspan></text>
    <path
       style="fill:none;fill-opacity:1;stroke:#000000;stroke-width:0.264583;stroke-linecap:butt;stroke-linejoin:miter;stroke-dasharray:none;stroke-opacity:1;marker-start:none;marker-end:url(#marker-arrow-1)"
       d="M 68.557554,198.00303 H 101.81759"
       id="path2596"
       inkscape:path-effect="#path-effect2598"
       inkscape:original-d="m 68.557554,198.00303 c 11.08694,2.6e-4 22.17362,2.6e-4 33.260036,0" />
    <path
       style="fill:none;stroke:#ec14f4;stroke-width:0.264583px;stroke-linecap:butt;stroke-linejoin:miter;stroke-opacity:1"
       d="m 115.38768,201.46207 c -4.02265,-2.44374 -6.84242,-6.7741 -7.45025,-11.44145 -0.27205,-2.08896 -0.10254,-4.29368 0.87855,-6.15788 0.49054,-0.9321 1.18103,-1.76518 2.03862,-2.37673 0.85758,-0.61155 1.88441,-0.99586 2.9366,-1.04428 0.95171,-0.0438 1.90903,0.18697 2.75694,0.6214 0.8479,0.43443 1.58743,1.06863 2.18109,1.81377 1.18733,1.49027 1.77413,3.38689 1.98006,5.28116 0.53734,4.94279 -1.52368,10.09533 -5.32161,13.30401 z"
       id="path2710"
       inkscape:path-effect="#path-effect2712"
       inkscape:original-d="m 115.38768,201.46207 c 0,0 -4.96657,-8.69169 -7.45025,-11.44145 -2.48368,-2.74976 3.90278,-6.38566 5.85377,-9.57889 1.95099,-3.19323 4.08016,5.14448 6.91809,7.71633 2.83793,2.57184 -5.32161,13.30401 -5.32161,13.30401 z"
       sodipodi:nodetypes="csssc" />
    <path
       style="fill:none;stroke:#e3550d;stroke-width:0.264583px;stroke-linecap:butt;stroke-linejoin:miter;stroke-opacity:1"
       d="m 115.38768,201.46207 c 2.82933,0.32935 5.61311,1.04775 8.24849,2.12865 1.69576,0.69551 3.36849,1.56928 4.6005,2.92629 0.61601,0.67851 1.11226,1.4735 1.39493,2.34525 0.28266,0.87174 0.3461,1.82166 0.12442,2.71087 -0.26726,1.07205 -0.94666,2.02557 -1.83816,2.67821 -0.8915,0.65264 -1.9853,1.0097 -3.08847,1.07077 -1.10317,0.0611 -2.21399,-0.16715 -3.23016,-0.60087 -1.01617,-0.43372 -1.93972,-1.06931 -2.7525,-1.81771 -1.53727,-1.41551 -2.68658,-3.24827 -3.29132,-5.24856 -0.60474,-2.00029 -0.66331,-4.16281 -0.16773,-6.1929"
       id="path2908"
       inkscape:path-effect="#path-effect2910"
       inkscape:original-d="m 115.38768,201.46207 c 2.74976,0.70982 5.49926,1.41936 8.24849,2.12865 2.74924,0.70928 4.08017,5.32187 6.11985,7.98241 2.03968,2.66054 -7.2726,0.8872 -10.90929,1.3304 -3.6367,0.4432 -2.30577,-7.62737 -3.45905,-11.44146" />
    <path
       style="fill:none;stroke:#ec14f4;stroke-width:0.264583px;stroke-linecap:butt;stroke-linejoin:miter;stroke-opacity:1"
       d="m 191.06754,203.59071 c -4.02265,-2.44374 -6.84242,-6.7741 -7.45025,-11.44145 -0.27205,-2.08896 -0.10254,-4.29368 0.87855,-6.15788 0.49054,-0.9321 1.18103,-1.76518 2.03862,-2.37673 0.85758,-0.61155 1.88441,-0.99586 2.9366,-1.04428 0.95171,-0.0438 1.90903,0.18697 2.75694,0.6214 0.8479,0.43443 1.58743,1.06863 2.18109,1.81377 1.18733,1.49027 1.77413,3.38689 1.98006,5.28116 0.53734,4.94279 -1.52368,10.09533 -5.32161,13.30401 z"
       id="path3378"
       inkscape:path-effect="#path-effect3382"
       inkscape:original-d="m 191.06754,203.59071 c 0,0 -4.96657,-8.69169 -7.45025,-11.44145 -2.48368,-2.74976 3.90278,-6.38566 5.85377,-9.57889 1.95099,-3.19323 4.08016,5.14448 6.91809,7.71633 2.83793,2.57184 -5.32161,13.30401 -5.32161,13.30401 z"
       sodipodi:nodetypes="csssc" />
    <path
       style="font-variation-settings:normal;opacity:0.99;vector-effect:none;fill:#e3550d;fill-opacity:1;fill-rule:evenodd;stroke:none;stroke-width:0.264567;stroke-linecap:butt;stroke-linejoin:round;stroke-miterlimit:4;stroke-dasharray:none;stroke-dashoffset:0;stroke-opacity:1;-inkscape-stroke:none;marker-start:none;marker-end:none;stop-color:#000000;stop-opacity:1"
       id="path3815"
       sodipodi:type="arc"
       sodipodi:cx="191.20456"
       sodipodi:cy="-204.05037"
       sodipodi:rx="1.1973615"
       sodipodi:ry="1.1973615"
       sodipodi:start="3.2066062"
       sodipodi:end="3.1996772"
       sodipodi:open="true"
       sodipodi:arc-type="arc"
       d="m 190.00973,-204.12816 a 1.1973615,1.1973615 0 0 1 1.27055,-1.11717 1.1973615,1.1973615 0 0 1 1.11937,1.26861 1.1973615,1.1973615 0 0 1 -1.26667,1.12157 1.1973615,1.1973615 0 0 1 -1.12376,-1.26473"
       transform="scale(1,-1)" />
    <text
       xml:space="preserve"
       style="font-size:5.64444px;line-height:1.25;font-family:sans-serif;letter-spacing:0px;word-spacing:0px;stroke-width:0.264583"
       x="121.24146"
       y="186.82765"
       id="text4279"><tspan
         sodipodi:role="line"
         id="tspan4277"
         style="stroke-width:0.264583"
         x="121.24146"
         y="186.82765">\(a\)</tspan></text>
    <text
       xml:space="preserve"
       style="font-size:5.64444px;line-height:1.25;font-family:sans-serif;letter-spacing:0px;word-spacing:0px;stroke-width:0.264583"
       x="198.05145"
       y="192.12926"
       id="text4279-7"><tspan
         sodipodi:role="line"
         id="tspan4277-4"
         style="stroke-width:0.264583"
         x="198.05145"
         y="192.12926">\(a\)</tspan></text>
    <path
       style="fill:none;fill-opacity:1;stroke:#000000;stroke-width:0.264583;stroke-linecap:butt;stroke-linejoin:miter;stroke-dasharray:none;stroke-opacity:1;marker-start:none;marker-end:url(#marker-arrow-1)"
       d="M 137.34925,198.00303 H 170.6093"
       id="path4794"
       inkscape:path-effect="#path-effect4798"
       inkscape:original-d="m 137.34925,198.00303 c 11.08694,2.6e-4 22.17363,2.6e-4 33.26005,0" />
  </g>
</svg>
