<?xml version="1.0" encoding="UTF-8" standalone="no"?>
<!-- Created with Inkscape (http://www.inkscape.org/) -->

<svg
   width="240mm"
   height="60mm"
   viewBox="0 0 240 60"
   version="1.1"
   id="svg8"
   inkscape:version="1.1.1 (c3084ef, 2021-09-22)"
   sodipodi:docname="eg:constructing-sphere-2.svg"
   xmlns:inkscape="http://www.inkscape.org/namespaces/inkscape"
   xmlns:sodipodi="http://sodipodi.sourceforge.net/DTD/sodipodi-0.dtd"
   xmlns="http://www.w3.org/2000/svg"
   xmlns:svg="http://www.w3.org/2000/svg"
   xmlns:rdf="http://www.w3.org/1999/02/22-rdf-syntax-ns#"
   xmlns:cc="http://creativecommons.org/ns#"
   xmlns:dc="http://purl.org/dc/elements/1.1/">
  <defs
     id="defs2" />
  <sodipodi:namedview
     id="base"
     pagecolor="#ffffff"
     bordercolor="#666666"
     borderopacity="1.0"
     inkscape:pageopacity="0.0"
     inkscape:pageshadow="2"
     inkscape:zoom="0.61147971"
     inkscape:cx="588.73581"
     inkscape:cy="355.69455"
     inkscape:document-units="mm"
     inkscape:current-layer="layer1"
     showgrid="false"
     showborder="true"
     width="200mm"
     showguides="true"
     inkscape:guide-bbox="true"
     inkscape:window-width="1003"
     inkscape:window-height="1051"
     inkscape:window-x="2069"
     inkscape:window-y="323"
     inkscape:window-maximized="0"
     inkscape:pagecheckerboard="0"
     height="60mm">
    <inkscape:grid
       type="xygrid"
       id="grid815"
       units="mm"
       spacingx="10"
       spacingy="10"
       empspacing="4"
       dotted="false" />
  </sodipodi:namedview>
  <metadata
     id="metadata5">
    <rdf:RDF>
      <cc:Work
         rdf:about="">
        <dc:format>image/svg+xml</dc:format>
        <dc:type
           rdf:resource="http://purl.org/dc/dcmitype/StillImage" />
      </cc:Work>
    </rdf:RDF>
  </metadata>
  <g
     inkscape:label="Layer 1"
     inkscape:groupmode="layer"
     id="layer1"
     transform="translate(0,-177)">
    <path
       style="opacity:0.99;fill:none;stroke:black;stroke-width:0.70220417;stroke-linejoin:round;stroke-miterlimit:4;stroke-dasharray:none;stroke-opacity:1;fill-opacity:1;marker-start:none;marker-end:none"
       id="path845"
       sodipodi:type="arc"
       sodipodi:cx="61.6049"
       sodipodi:cy="207.31094"
       sodipodi:rx="26.933681"
       sodipodi:ry="26.933681"
       sodipodi:start="6.1848709"
       sodipodi:end="6.1778721"
       sodipodi:open="true"
       sodipodi:arc-type="arc"
       d="M 88.40852,204.66724 A 26.933681,26.933681 0 0 1 64.2955,234.1099 26.933681,26.933681 0 0 1 34.810696,210.04843 26.933681,26.933681 0 0 1 58.820537,180.52157 26.933681,26.933681 0 0 1 88.389361,204.47971" />
    <path
       style="opacity:0.99;fill:#000000;fill-opacity:1;stroke:#000000;stroke-width:0.265;stroke-linejoin:round;stroke-miterlimit:4;stroke-dasharray:none;stroke-opacity:0.381375"
       id="path869"
       sodipodi:type="arc"
       sodipodi:cx="59.186378"
       sodipodi:cy="234.28566"
       sodipodi:rx="1.69661"
       sodipodi:ry="1.69661"
       sodipodi:start="6.1848709"
       sodipodi:end="6.1778721"
       sodipodi:open="true"
       sodipodi:arc-type="arc"
       d="m 60.874796,234.11913 a 1.69661,1.69661 0 0 1 -1.518931,1.85465 1.69661,1.69661 0 0 1 -1.857311,-1.51568 1.69661,1.69661 0 0 1 1.512432,-1.85996 1.69661,1.69661 0 0 1 1.862603,1.50917" />
    <path
       style="opacity:0.99;fill:none;stroke:black;stroke-width:0.70220417;stroke-linejoin:round;stroke-miterlimit:4;stroke-dasharray:none;stroke-opacity:1;fill-opacity:1;marker-start:none;marker-end:none"
       id="path845-7"
       sodipodi:type="arc"
       sodipodi:cx="183.29407"
       sodipodi:cy="207.12341"
       sodipodi:rx="26.933681"
       sodipodi:ry="26.933681"
       sodipodi:start="6.1848709"
       sodipodi:end="6.1778721"
       sodipodi:open="true"
       sodipodi:arc-type="arc"
       d="m 210.09769,204.47971 a 26.933681,26.933681 0 0 1 -24.11302,29.44266 26.933681,26.933681 0 0 1 -29.48481,-24.06147 26.933681,26.933681 0 0 1 24.00984,-29.52686 26.933681,26.933681 0 0 1 29.56883,23.95814" />
    <path
       style="opacity:0.99;fill:#000000;fill-opacity:1;stroke:#000000;stroke-width:0.265;stroke-linejoin:round;stroke-miterlimit:4;stroke-dasharray:none;stroke-opacity:0.381375"
       id="path869-6"
       sodipodi:type="arc"
       sodipodi:cx="209.80733"
       sodipodi:cy="206.90967"
       sodipodi:rx="1.69661"
       sodipodi:ry="1.69661"
       sodipodi:start="6.1848709"
       sodipodi:end="6.1778721"
       sodipodi:open="true"
       sodipodi:arc-type="arc"
       d="m 211.49574,206.74314 a 1.69661,1.69661 0 0 1 -1.51893,1.85465 1.69661,1.69661 0 0 1 -1.85731,-1.51568 1.69661,1.69661 0 0 1 1.51243,-1.85996 1.69661,1.69661 0 0 1 1.86261,1.50917" />
    <path
       style="opacity:0.99;fill:#000000;fill-opacity:1;stroke:#000000;stroke-width:0.265;stroke-linejoin:round;stroke-miterlimit:4;stroke-dasharray:none;stroke-opacity:0.381375"
       id="path869-6-3"
       sodipodi:type="arc"
       sodipodi:cx="156.10956"
       sodipodi:cy="207.29514"
       sodipodi:rx="1.69661"
       sodipodi:ry="1.69661"
       sodipodi:start="6.1848709"
       sodipodi:end="6.1778721"
       sodipodi:open="true"
       sodipodi:arc-type="arc"
       d="m 157.79798,207.1286 a 1.69661,1.69661 0 0 1 -1.51894,1.85466 1.69661,1.69661 0 0 1 -1.85731,-1.51568 1.69661,1.69661 0 0 1 1.51244,-1.85996 1.69661,1.69661 0 0 1 1.8626,1.50917" />
    <path
       style="opacity:0.99;fill:none;stroke:black;stroke-width:0.70220417;stroke-linejoin:round;stroke-miterlimit:4;stroke-dasharray:none;stroke-opacity:1;fill-opacity:1;marker-start:none;marker-end:none"
       id="path865"
       sodipodi:type="arc"
       sodipodi:cx="61.594204"
       sodipodi:cy="206.8063"
       sodipodi:rx="26.781874"
       sodipodi:ry="4.9277134"
       sodipodi:start="6.1848709"
       sodipodi:end="6.1778721"
       sodipodi:open="true"
       sodipodi:arc-type="arc"
       d="m 88.246749,206.32262 a 26.781874,4.9277134 0 0 1 -23.977111,5.38675 26.781874,4.9277134 0 0 1 -29.318616,-4.40222 26.781874,4.9277134 0 0 1 23.874513,-5.40216 26.781874,4.9277134 0 0 1 29.402163,4.38332" />
    <path
       style="opacity:0.99;fill:none;stroke:black;stroke-width:0.70220417;stroke-linejoin:round;stroke-miterlimit:4;stroke-dasharray:none;stroke-opacity:1;fill-opacity:1;marker-start:none;marker-end:none"
       id="path865-4"
       sodipodi:type="arc"
       sodipodi:cx="183.46419"
       sodipodi:cy="207.11441"
       sodipodi:rx="26.781874"
       sodipodi:ry="4.9277134"
       sodipodi:start="6.1848709"
       sodipodi:end="6.1778721"
       sodipodi:open="true"
       sodipodi:arc-type="arc"
       d="m 210.11673,206.63073 a 26.781874,4.9277134 0 0 1 -23.97711,5.38674 26.781874,4.9277134 0 0 1 -29.31861,-4.40222 26.781874,4.9277134 0 0 1 23.87451,-5.40215 26.781874,4.9277134 0 0 1 29.40216,4.38332" />
  </g>
</svg>
