<?xml version="1.0" encoding="UTF-8" standalone="no"?>
<!-- Created with Inkscape (http://www.inkscape.org/) -->

<svg
   width="240mm"
   height="60mm"
   viewBox="0 0 240 60"
   version="1.1"
   id="svg8"
   inkscape:version="1.1.1 (c3084ef, 2021-09-22)"
   sodipodi:docname="eg:constructing-sphere-1.svg"
   xmlns:inkscape="http://www.inkscape.org/namespaces/inkscape"
   xmlns:sodipodi="http://sodipodi.sourceforge.net/DTD/sodipodi-0.dtd"
   xmlns="http://www.w3.org/2000/svg"
   xmlns:svg="http://www.w3.org/2000/svg"
   xmlns:rdf="http://www.w3.org/1999/02/22-rdf-syntax-ns#"
   xmlns:cc="http://creativecommons.org/ns#"
   xmlns:dc="http://purl.org/dc/elements/1.1/">
  <defs
     id="defs2" />
  <sodipodi:namedview
     id="base"
     pagecolor="#ffffff"
     bordercolor="#666666"
     borderopacity="1.0"
     inkscape:pageopacity="0.0"
     inkscape:pageshadow="2"
     inkscape:zoom="0.33065201"
     inkscape:cx="232.87323"
     inkscape:cy="18.145966"
     inkscape:document-units="mm"
     inkscape:current-layer="layer1"
     showgrid="false"
     showborder="true"
     width="200mm"
     showguides="true"
     inkscape:guide-bbox="true"
     inkscape:window-width="1003"
     inkscape:window-height="512"
     inkscape:window-x="0"
     inkscape:window-y="38"
     inkscape:window-maximized="0"
     inkscape:pagecheckerboard="0"
     height="60mm">
    <inkscape:grid
       type="xygrid"
       id="grid815"
       units="mm"
       spacingx="10"
       spacingy="10"
       empspacing="4"
       dotted="false" />
  </sodipodi:namedview>
  <metadata
     id="metadata5">
    <rdf:RDF>
      <cc:Work
         rdf:about="">
        <dc:format>image/svg+xml</dc:format>
        <dc:type
           rdf:resource="http://purl.org/dc/dcmitype/StillImage" />
      </cc:Work>
    </rdf:RDF>
  </metadata>
  <g
     inkscape:label="Layer 1"
     inkscape:groupmode="layer"
     id="layer1"
     transform="translate(0,-177)">
    <path
       style="opacity:0.99;fill:none;stroke:#000000;stroke-width:0.265;stroke-linejoin:round;stroke-miterlimit:4;stroke-dasharray:none;stroke-opacity:0.381375"
       id="path845"
       sodipodi:type="arc"
       sodipodi:cx="62.986641"
       sodipodi:cy="208.24892"
       sodipodi:rx="26.933681"
       sodipodi:ry="26.933681"
       sodipodi:start="6.1848709"
       sodipodi:end="6.1778721"
       sodipodi:open="true"
       sodipodi:arc-type="arc"
       d="M 89.790261,205.60521 A 26.933681,26.933681 0 0 1 65.67724,235.04787 26.933681,26.933681 0 0 1 36.192437,210.9864 26.933681,26.933681 0 0 1 60.202279,181.45954 26.933681,26.933681 0 0 1 89.771102,205.41769" />
    <path
       style="opacity:0.99;fill:#000000;fill-opacity:1;stroke:#000000;stroke-width:0.265;stroke-linejoin:round;stroke-miterlimit:4;stroke-dasharray:none;stroke-opacity:0.381375"
       id="path869"
       sodipodi:type="arc"
       sodipodi:cx="86.802765"
       sodipodi:cy="195.99196"
       sodipodi:rx="1.69661"
       sodipodi:ry="1.69661"
       sodipodi:start="6.1848709"
       sodipodi:end="6.1778721"
       sodipodi:open="true"
       sodipodi:arc-type="arc"
       d="m 88.491182,195.82543 a 1.69661,1.69661 0 0 1 -1.518931,1.85465 1.69661,1.69661 0 0 1 -1.85731,-1.51568 1.69661,1.69661 0 0 1 1.512431,-1.85996 1.69661,1.69661 0 0 1 1.862603,1.50917" />
    <path
       style="opacity:0.99;fill:none;stroke:#000000;stroke-width:0.265;stroke-linejoin:round;stroke-miterlimit:4;stroke-dasharray:none;stroke-opacity:0.381375"
       id="path845-7"
       sodipodi:type="arc"
       sodipodi:cx="184.67584"
       sodipodi:cy="208.06139"
       sodipodi:rx="26.933681"
       sodipodi:ry="26.933681"
       sodipodi:start="6.1848709"
       sodipodi:end="6.1778721"
       sodipodi:open="true"
       sodipodi:arc-type="arc"
       d="m 211.47946,205.41768 a 26.933681,26.933681 0 0 1 -24.11302,29.44266 26.933681,26.933681 0 0 1 -29.4848,-24.06147 26.933681,26.933681 0 0 1 24.00984,-29.52686 26.933681,26.933681 0 0 1 29.56882,23.95814" />
    <path
       style="opacity:0.99;fill:#000000;fill-opacity:1;stroke:#000000;stroke-width:0.265;stroke-linejoin:round;stroke-miterlimit:4;stroke-dasharray:none;stroke-opacity:0.381375"
       id="path869-6"
       sodipodi:type="arc"
       sodipodi:cx="208.49202"
       sodipodi:cy="195.80443"
       sodipodi:rx="1.69661"
       sodipodi:ry="1.69661"
       sodipodi:start="6.1848709"
       sodipodi:end="6.1778721"
       sodipodi:open="true"
       sodipodi:arc-type="arc"
       d="m 210.18044,195.6379 a 1.69661,1.69661 0 0 1 -1.51893,1.85465 1.69661,1.69661 0 0 1 -1.85731,-1.51568 1.69661,1.69661 0 0 1 1.51243,-1.85996 1.69661,1.69661 0 0 1 1.8626,1.50917" />
    <path
       style="opacity:0.99;fill:#000000;fill-opacity:1;stroke:#000000;stroke-width:0.265;stroke-linejoin:round;stroke-miterlimit:4;stroke-dasharray:none;stroke-opacity:0.381375"
       id="path869-6-3"
       sodipodi:type="arc"
       sodipodi:cx="158.02049"
       sodipodi:cy="212.99571"
       sodipodi:rx="1.69661"
       sodipodi:ry="1.69661"
       sodipodi:start="6.1848709"
       sodipodi:end="6.1778721"
       sodipodi:open="true"
       sodipodi:arc-type="arc"
       d="m 159.70891,212.82918 a 1.69661,1.69661 0 0 1 -1.51893,1.85466 1.69661,1.69661 0 0 1 -1.85731,-1.51569 1.69661,1.69661 0 0 1 1.51243,-1.85996 1.69661,1.69661 0 0 1 1.8626,1.50918" />
  </g>
</svg>
