<?xml version="1.0" encoding="UTF-8" standalone="no"?>
<!-- Created with Inkscape (http://www.inkscape.org/) -->

<svg
   width="240mm"
   height="52mm"
   viewBox="0 0 240 52"
   version="1.1"
   id="svg8"
   inkscape:version="1.1.1 (c3084ef, 2021-09-22)"
   sodipodi:docname="eg:degree-m-map-disks-computation.svg"
   xmlns:inkscape="http://www.inkscape.org/namespaces/inkscape"
   xmlns:sodipodi="http://sodipodi.sourceforge.net/DTD/sodipodi-0.dtd"
   xmlns="http://www.w3.org/2000/svg"
   xmlns:svg="http://www.w3.org/2000/svg"
   xmlns:rdf="http://www.w3.org/1999/02/22-rdf-syntax-ns#"
   xmlns:cc="http://creativecommons.org/ns#"
   xmlns:dc="http://purl.org/dc/elements/1.1/">
  <defs
     id="defs2">
    <inkscape:path-effect
       effect="spiro"
       id="path-effect2708"
       is_visible="true"
       lpeversion="1" />
    <marker
       id="marker-arrow-1"
       orient="auto-start-reverse"
       refY="0"
       refX="0"
       markerHeight="3"
       markerWidth="2">
      <g
         transform="scale(1.3933333)"
         id="g2712"><path
   d="M -1.55415,2.0722 C -1.42464,1.29512 0,0.1295 0.38852,0 0,-0.1295 -1.42464,-1.29512 -1.55415,-2.0722"
   style="fill:none;stroke:#000000;stroke-linecap:round;stroke-linejoin:round;stroke-miterlimit:10;stroke-dasharray:none;stroke-opacity:1"
   id="path2710" />
0&quot; /&gt;
   </g>
    </marker>
  </defs>
  <sodipodi:namedview
     id="base"
     pagecolor="#ffffff"
     bordercolor="#666666"
     borderopacity="1.0"
     inkscape:pageopacity="0.0"
     inkscape:pageshadow="2"
     inkscape:zoom="0.57606185"
     inkscape:cx="282.95573"
     inkscape:cy="26.906833"
     inkscape:document-units="mm"
     inkscape:current-layer="layer1"
     showgrid="false"
     showborder="true"
     width="200mm"
     showguides="true"
     inkscape:guide-bbox="true"
     inkscape:window-width="1280"
     inkscape:window-height="680"
     inkscape:window-x="1728"
     inkscape:window-y="25"
     inkscape:window-maximized="0"
     inkscape:pagecheckerboard="0">
    <inkscape:grid
       type="xygrid"
       id="grid815"
       units="mm"
       spacingx="10"
       spacingy="10"
       empspacing="4"
       dotted="false" />
  </sodipodi:namedview>
  <metadata
     id="metadata5">
    <rdf:RDF>
      <cc:Work
         rdf:about="">
        <dc:format>image/svg+xml</dc:format>
        <dc:type
           rdf:resource="http://purl.org/dc/dcmitype/StillImage" />
      </cc:Work>
    </rdf:RDF>
  </metadata>
  <g
     inkscape:label="Layer 1"
     inkscape:groupmode="layer"
     id="layer1"
     transform="translate(0,-177)">
    <path
       style="font-variation-settings:normal;opacity:0.99;vector-effect:none;fill:none;fill-opacity:1;fill-rule:evenodd;stroke:#000000;stroke-width:0.264567;stroke-linecap:butt;stroke-linejoin:round;stroke-miterlimit:4;stroke-dasharray:none;stroke-dashoffset:0;stroke-opacity:1;-inkscape-stroke:none;stop-color:#000000;stop-opacity:1"
       id="path845"
       sodipodi:type="arc"
       sodipodi:cx="74.706238"
       sodipodi:cy="202.83707"
       sodipodi:rx="24.745472"
       sodipodi:ry="24.745472"
       sodipodi:start="3.2066062"
       sodipodi:end="3.2056129"
       sodipodi:open="true"
       sodipodi:arc-type="arc"
       d="m 50.013044,201.22941 a 24.745472,24.745472 0 0 1 26.29472,-23.08594 24.745472,24.745472 0 0 1 23.092463,26.28899 24.745472,24.745472 0 0 1 -26.283251,23.09899 24.745472,24.745472 0 0 1 -23.105517,-26.27751" />
    <path
       style="font-variation-settings:normal;opacity:0.99;vector-effect:none;fill:none;fill-opacity:1;fill-rule:evenodd;stroke:#000000;stroke-width:0.264567;stroke-linecap:butt;stroke-linejoin:round;stroke-miterlimit:4;stroke-dasharray:none;stroke-dashoffset:0;stroke-opacity:1;-inkscape-stroke:none;stop-color:#000000;stop-opacity:1"
       id="path888"
       sodipodi:type="arc"
       sodipodi:cx="74.730095"
       sodipodi:cy="203.05908"
       sodipodi:rx="24.53134"
       sodipodi:ry="3.2460241"
       sodipodi:start="6.2811655"
       sodipodi:end="3.1722987"
       sodipodi:arc-type="arc"
       sodipodi:open="true"
       d="m 99.261385,203.05253 a 24.53134,3.2460241 0 0 1 -12.454943,2.83201 24.53134,3.2460241 0 0 1 -24.760178,-0.047 24.53134,3.2460241 0 0 1 -11.835945,-2.87811" />
    <path
       style="font-variation-settings:normal;opacity:0.99;vector-effect:none;fill:none;fill-opacity:1;fill-rule:evenodd;stroke:#000000;stroke-width:0.264583;stroke-linecap:butt;stroke-linejoin:round;stroke-miterlimit:4;stroke-dasharray:0.79375, 0.79375;stroke-dashoffset:0;stroke-opacity:1;-inkscape-stroke:none;marker-start:none;marker-end:none;stop-color:#000000;stop-opacity:1"
       id="path1169"
       sodipodi:type="arc"
       sodipodi:cx="74.730095"
       sodipodi:cy="203.05908"
       sodipodi:rx="24.53134"
       sodipodi:ry="3.2460241"
       sodipodi:start="3.2066062"
       sodipodi:end="0.1827284"
       sodipodi:open="true"
       sodipodi:arc-type="arc"
       d="m 50.250581,202.8482 a 24.53134,3.2460241 0 0 1 14.491234,-2.75389 24.53134,3.2460241 0 0 1 25.165858,0.41461 24.53134,3.2460241 0 0 1 8.945353,3.14001" />
    <path
       style="font-variation-settings:normal;opacity:0.99;vector-effect:none;fill:none;fill-opacity:1;fill-rule:evenodd;stroke:#000000;stroke-width:0.264567;stroke-linecap:butt;stroke-linejoin:round;stroke-miterlimit:4;stroke-dasharray:none;stroke-dashoffset:0;stroke-opacity:1;-inkscape-stroke:none;stop-color:#000000;stop-opacity:1"
       id="path1818"
       sodipodi:type="arc"
       sodipodi:cx="75.951637"
       sodipodi:cy="219.46304"
       sodipodi:rx="7.6544623"
       sodipodi:ry="8.0381384"
       sodipodi:start="3.2066062"
       sodipodi:end="3.190968"
       sodipodi:open="true"
       sodipodi:arc-type="arc"
       d="m 68.313346,218.94082 a 7.6544623,8.0381384 0 0 1 8.105719,-7.50091 7.6544623,8.0381384 0 0 1 7.174518,8.48262 7.6544623,8.0381384 0 0 1 -8.04962,7.56724 7.6544623,8.0381384 0 0 1 -7.237459,-8.42345" />
    <path
       style="font-variation-settings:normal;opacity:0.99;vector-effect:none;fill:none;fill-opacity:1;fill-rule:evenodd;stroke:#000000;stroke-width:0.264567;stroke-linecap:butt;stroke-linejoin:round;stroke-miterlimit:4;stroke-dasharray:none;stroke-dashoffset:0;stroke-opacity:1;-inkscape-stroke:none;stop-color:#000000;stop-opacity:1"
       id="path1839"
       sodipodi:type="arc"
       sodipodi:cx="66.067467"
       sodipodi:cy="192.46301"
       sodipodi:rx="9.3936243"
       sodipodi:ry="6.5288277"
       sodipodi:start="3.2066062"
       sodipodi:end="3.190968"
       sodipodi:open="true"
       sodipodi:arc-type="arc"
       d="m 56.693688,192.03885 a 9.3936243,6.5288277 0 0 1 9.94741,-6.09248 9.3936243,6.5288277 0 0 1 8.804633,6.88985 9.3936243,6.5288277 0 0 1 -9.878566,6.14635 9.3936243,6.5288277 0 0 1 -8.881874,-6.84179" />
    <path
       style="font-variation-settings:normal;opacity:0.99;vector-effect:none;fill:none;fill-opacity:1;fill-rule:evenodd;stroke:#000000;stroke-width:0.264567;stroke-linecap:butt;stroke-linejoin:round;stroke-miterlimit:4;stroke-dasharray:none;stroke-dashoffset:0;stroke-opacity:1;-inkscape-stroke:none;stop-color:#000000;stop-opacity:1"
       id="path1981"
       sodipodi:type="arc"
       sodipodi:cx="87.216209"
       sodipodi:cy="195.0538"
       sodipodi:rx="9.178093"
       sodipodi:ry="7.9405584"
       sodipodi:start="3.2066062"
       sodipodi:end="3.190968"
       sodipodi:open="true"
       sodipodi:arc-type="arc"
       d="m 78.057506,194.53792 a 9.178093,7.9405584 0 0 1 9.719173,-7.40986 9.178093,7.9405584 0 0 1 8.602616,8.37965 9.178093,7.9405584 0 0 1 -9.651908,7.47538 9.178093,7.9405584 0 0 1 -8.678085,-8.3212" />
    <path
       style="opacity:0.99;fill:#df2626;fill-opacity:0.12;stroke:none;stroke-width:0.147181;stroke-linejoin:round;stroke-dasharray:none;stroke-opacity:1;marker-start:none;marker-end:none"
       d="m 70.470747,226.99662 c -5.067668,-0.89316 -9.834785,-3.44446 -13.390613,-7.16648 -4.034872,-4.22346 -6.295104,-9.22683 -6.850861,-15.16543 l -0.09989,-1.06735 0.67332,0.37632 c 5.943145,3.32169 41.335872,3.34725 47.84708,0.0346 l 0.57477,-0.29242 -0.0995,1.29441 c -0.67861,8.82851 -6.586987,16.90393 -14.950704,20.43422 -1.339292,0.56531 -4.025439,1.40656 -4.495043,1.40776 -0.07987,1.5e-4 0.19286,-0.2273 0.606068,-0.50557 1.531726,-1.03153 2.847911,-3.00008 3.302759,-4.93977 0.652468,-2.78243 -0.268999,-5.9976 -2.267056,-7.91019 -1.605909,-1.53721 -3.285564,-2.24532 -5.325959,-2.24532 -2.13169,0 -3.902977,0.74215 -5.444813,2.28131 -1.603475,1.60069 -2.426705,3.59014 -2.426705,5.86446 0,3.3158 1.714854,6.16688 4.543311,7.5536 l 0.68163,0.33419 -0.662318,-0.007 c -0.364273,-0.004 -1.361239,-0.13047 -2.215483,-0.28102 z"
       id="path11970" />
    <path
       style="opacity:0.99;fill:#df2626;fill-opacity:0.12;stroke:none;stroke-width:0.147181;stroke-linejoin:round;stroke-dasharray:none;stroke-opacity:1;marker-start:none;marker-end:none"
       d="m 68.638743,206.00106 c -8.667695,-0.29231 -16.411808,-1.39423 -17.882539,-2.54453 -0.314108,-0.24568 -0.340895,-0.32639 -0.183042,-0.55154 0.43157,-0.61556 0.408488,-1.00203 -0.03773,-0.6317 -0.125336,0.10402 -0.271219,0.1458 -0.324181,0.0928 -0.182136,-0.18213 0.274058,-3.6867 0.698858,-5.36872 0.734274,-2.9074 1.894572,-5.53399 3.465951,-7.84592 1.053418,-1.54987 1.286923,-1.83348 2.758303,-3.3501 4.066788,-4.19186 9.175202,-6.69303 15.0427,-7.36518 6.5435,-0.74959 13.543285,1.47659 18.628433,5.92452 2.456598,2.14875 4.320167,4.57175 5.796297,7.53628 1.51952,3.05169 2.36663,6.08286 2.5376,9.08015 0.0801,1.40374 0.0763,1.42539 -0.23393,1.34426 -0.3758,-0.0983 -0.40367,0.0518 -0.0767,0.41315 0.3385,0.37404 0.18461,0.62319 -0.61793,1.00043 -3.03159,1.42501 -13.11377,2.40312 -24.052803,2.33344 -2.388018,-0.0152 -4.871704,-0.0455 -5.519301,-0.0674 z m 21.562075,-3.21453 c 2.941376,-0.91549 5.167555,-2.94021 6.020825,-5.47597 0.44148,-1.31201 0.42347,-3.3026 -0.0418,-4.62065 -0.85307,-2.4166 -2.82379,-4.28171 -5.50535,-5.21033 -1.541613,-0.53385 -4.172789,-0.66932 -5.831692,-0.30025 -3.390704,0.75436 -6.219319,3.39205 -6.842567,6.38071 -0.524565,2.51546 0.228087,4.86431 2.180511,6.80485 1.411034,1.40244 3.162768,2.31836 5.163092,2.6996 0.817267,0.15576 4.059674,-0.0298 4.856988,-0.27796 z m 7.947795,-0.80189 c 0,-0.0683 -0.19361,-0.19159 -0.43025,-0.27408 -0.33243,-0.11589 -0.44766,-0.10459 -0.50686,0.0497 -0.0471,0.12279 0.0761,0.25236 0.31986,0.3365 0.40938,0.14128 0.61725,0.10353 0.61725,-0.1121 z m -46.006225,0.0521 c 0.259992,-0.0998 0.32077,-0.49939 0.07595,-0.49939 -0.251653,0 -0.726231,0.29193 -0.726231,0.44673 0,0.16088 0.304078,0.18551 0.650278,0.0527 z m 44.342665,-0.67722 c -0.0969,-0.0616 -0.33075,-0.11304 -0.51963,-0.11427 -0.44326,-0.003 -0.34409,0.32788 0.13356,0.4455 0.38737,0.0954 0.67244,-0.14918 0.38607,-0.33123 z m -42.732962,0.23924 c 0.122934,-0.0472 0.190148,-0.17272 0.149368,-0.27899 -0.08921,-0.23248 -0.81344,-0.0811 -0.903414,0.18881 -0.06161,0.18484 0.372178,0.23672 0.754046,0.0902 z m 1.481106,-0.29793 c 0.128045,-0.0491 0.23281,-0.18868 0.23281,-0.31011 0,-0.14084 -0.08428,-0.18842 -0.23281,-0.13143 -0.128045,0.0491 -0.326739,0.0893 -0.441545,0.0893 -0.114802,0 -0.208732,0.0993 -0.208732,0.22077 0,0.23108 0.255847,0.28279 0.650277,0.13143 z m 39.824606,-0.13143 c 0,-0.1462 -0.14622,-0.22077 -0.432858,-0.22077 -0.459869,0 -0.723831,0.21899 -0.41435,0.34376 0.395017,0.15926 0.847208,0.0936 0.847208,-0.12299 z m -37.9728,-0.30369 c 0,-0.17002 -0.121931,-0.21805 -0.467006,-0.18397 -0.67473,0.0666 -0.725405,0.41407 -0.06039,0.41407 0.380177,0 0.5274,-0.0642 0.5274,-0.2301 z m 1.277651,-0.007 c 0.176538,-0.0473 0.289902,-0.16706 0.251923,-0.26603 -0.09442,-0.24607 -0.940847,-0.10926 -0.940847,0.15206 0,0.21974 0.182163,0.24988 0.688924,0.11397 z m 1.813158,-0.44174 c 0,-0.22653 -0.06958,-0.24057 -0.551931,-0.1113 -0.507233,0.13593 -0.41397,0.45713 0.110386,0.38017 0.24714,-0.0363 0.441545,-0.15465 0.441545,-0.26887 z m 1.618996,-0.14718 c 0,-0.22654 -0.06958,-0.24057 -0.551931,-0.1113 -0.507233,0.13593 -0.41397,0.45713 0.110386,0.38017 0.24714,-0.0363 0.441545,-0.15465 0.441545,-0.26887 z m 1.435018,0.0923 c 0.101187,-0.001 0.183978,-0.0682 0.183978,-0.14919 0,-0.081 -0.231812,-0.14718 -0.515136,-0.14718 -0.376295,0 -0.515136,0.0641 -0.515136,0.23794 0,0.17492 0.0877,0.21443 0.331158,0.14919 0.182139,-0.0488 0.413949,-0.0897 0.515136,-0.0908 z m 1.655792,-0.22278 c 0,-0.14718 -0.147183,-0.22077 -0.441545,-0.22077 -0.294362,0 -0.441545,0.0736 -0.441545,0.22077 0,0.14718 0.147183,0.22077 0.441545,0.22077 0.294362,0 0.441545,-0.0736 0.441545,-0.22077 z m 1.618993,-0.14718 c 0,-0.14718 -0.14718,-0.22077 -0.441542,-0.22077 -0.294365,0 -0.441545,0.0736 -0.441545,0.22077 0,0.14718 0.14718,0.22077 0.441545,0.22077 0.294362,0 0.441542,-0.0736 0.441542,-0.22077 z m 1.583116,-0.0368 c 0.03956,-0.12046 -0.09625,-0.18397 -0.393399,-0.18397 -0.313817,0 -0.453808,0.0711 -0.453808,0.23055 0,0.28047 0.753417,0.23905 0.847207,-0.0466 z m 1.654876,-0.12755 c 0,-0.17492 -0.0877,-0.21443 -0.331158,-0.14919 -0.182136,0.0488 -0.413948,0.0897 -0.515136,0.0908 -0.101187,0.001 -0.183975,0.0682 -0.183975,0.14919 0,0.081 0.231809,0.14718 0.515133,0.14718 0.376296,0 0.515136,-0.0641 0.515136,-0.23794 z m 1.618996,0.0172 c 0,-0.15419 -0.155361,-0.22077 -0.515136,-0.22077 -0.359775,0 -0.515136,0.0666 -0.515136,0.22077 0,0.15419 0.155361,0.22078 0.515136,0.22078 0.359775,0 0.515136,-0.0666 0.515136,-0.22078 z m 1.471813,0 c 0,-0.14718 -0.147182,-0.22077 -0.441544,-0.22077 -0.294362,0 -0.441545,0.0736 -0.441545,0.22077 0,0.14718 0.147183,0.22078 0.441545,0.22078 0.294362,0 0.441544,-0.0736 0.441544,-0.22078 z m 1.618996,0 c 0,-0.14718 -0.147182,-0.22077 -0.441544,-0.22077 -0.294362,0 -0.441545,0.0736 -0.441545,0.22077 0,0.14718 0.147183,0.22078 0.441545,0.22078 0.294362,0 0.441544,-0.0736 0.441544,-0.22078 z m 1.618994,0 c 0,-0.14718 -0.14718,-0.22077 -0.441542,-0.22077 -0.294365,0 -0.441545,0.0736 -0.441545,0.22077 0,0.14718 0.14718,0.22078 0.441545,0.22078 0.294362,0 0.441542,-0.0736 0.441542,-0.22078 z m 1.618996,0 c 0,-0.15419 -0.155358,-0.22077 -0.515133,-0.22077 -0.359778,0 -0.515136,0.0666 -0.515136,0.22077 0,0.15419 0.155358,0.22078 0.515136,0.22078 0.359775,0 0.515133,-0.0666 0.515133,-0.22078 z m 1.471813,0 c 0,-0.14718 -0.147179,-0.22077 -0.441542,-0.22077 -0.294364,0 -0.441544,0.0736 -0.441544,0.22077 0,0.14718 0.14718,0.22078 0.441544,0.22078 0.294363,0 0.441542,-0.0736 0.441542,-0.22078 z m -9.861153,-1.03043 c 2.624212,-0.67997 4.93817,-2.32167 5.828668,-4.13529 0.374658,-0.76304 0.426543,-1.02984 0.426543,-2.19335 0,-1.13722 -0.05722,-1.44678 -0.404448,-2.18805 -0.833974,-1.78038 -3.12929,-3.45711 -5.70358,-4.16647 -1.362861,-0.37554 -5.407486,-0.37554 -6.770346,0 -2.574288,0.70936 -4.869606,2.38609 -5.703581,4.16647 -0.347707,0.74229 -0.40427,1.04926 -0.403188,2.18805 0.0011,1.15965 0.05411,1.43273 0.425606,2.19243 0.999247,2.04345 3.420655,3.6268 6.564252,4.29235 1.258311,0.2664 4.443775,0.17976 5.740074,-0.15614 z"
       id="path12009" />
    <path
       style="font-variation-settings:normal;opacity:0.99;vector-effect:none;fill:none;fill-opacity:1;fill-rule:evenodd;stroke:#000000;stroke-width:0.264567;stroke-linecap:butt;stroke-linejoin:round;stroke-miterlimit:4;stroke-dasharray:none;stroke-dashoffset:0;stroke-opacity:1;-inkscape-stroke:none;stop-color:#000000;stop-opacity:1"
       id="path12343"
       sodipodi:type="arc"
       sodipodi:cx="74.706238"
       sodipodi:cy="202.83707"
       sodipodi:rx="24.745472"
       sodipodi:ry="24.745472"
       sodipodi:start="3.2066062"
       sodipodi:end="3.2056129"
       sodipodi:open="true"
       sodipodi:arc-type="arc"
       d="m 50.013044,201.22941 a 24.745472,24.745472 0 0 1 26.29472,-23.08594 24.745472,24.745472 0 0 1 23.092463,26.28899 24.745472,24.745472 0 0 1 -26.283251,23.09899 24.745472,24.745472 0 0 1 -23.105517,-26.27751" />
    <path
       style="font-variation-settings:normal;opacity:0.99;vector-effect:none;fill:none;fill-opacity:1;fill-rule:evenodd;stroke:#000000;stroke-width:0.264567;stroke-linecap:butt;stroke-linejoin:round;stroke-miterlimit:4;stroke-dasharray:none;stroke-dashoffset:0;stroke-opacity:1;-inkscape-stroke:none;stop-color:#000000;stop-opacity:1"
       id="path12408"
       sodipodi:type="arc"
       sodipodi:cx="180.56503"
       sodipodi:cy="203.03455"
       sodipodi:rx="24.53134"
       sodipodi:ry="3.2460241"
       sodipodi:start="6.2811655"
       sodipodi:end="3.1722987"
       sodipodi:arc-type="arc"
       sodipodi:open="true"
       d="m 205.09632,203.02799 a 24.53134,3.2460241 0 0 1 -12.45494,2.83201 24.53134,3.2460241 0 0 1 -24.76018,-0.047 24.53134,3.2460241 0 0 1 -11.83594,-2.87812" />
    <path
       style="font-variation-settings:normal;opacity:0.99;vector-effect:none;fill:none;fill-opacity:1;fill-rule:evenodd;stroke:#000000;stroke-width:0.264583;stroke-linecap:butt;stroke-linejoin:round;stroke-miterlimit:4;stroke-dasharray:0.79375, 0.79375;stroke-dashoffset:0;stroke-opacity:1;-inkscape-stroke:none;marker-start:none;marker-end:none;stop-color:#000000;stop-opacity:1"
       id="path12410"
       sodipodi:type="arc"
       sodipodi:cx="180.56503"
       sodipodi:cy="203.03455"
       sodipodi:rx="24.53134"
       sodipodi:ry="3.2460241"
       sodipodi:start="3.2066062"
       sodipodi:end="0.1827284"
       sodipodi:open="true"
       sodipodi:arc-type="arc"
       d="m 156.08552,202.82366 a 24.53134,3.2460241 0 0 1 14.49123,-2.75389 24.53134,3.2460241 0 0 1 25.16586,0.41461 24.53134,3.2460241 0 0 1 8.94535,3.14001" />
    <path
       style="font-variation-settings:normal;opacity:0.99;vector-effect:none;fill:none;fill-opacity:1;fill-rule:evenodd;stroke:#000000;stroke-width:0.264567;stroke-linecap:butt;stroke-linejoin:round;stroke-miterlimit:4;stroke-dasharray:none;stroke-dashoffset:0;stroke-opacity:1;-inkscape-stroke:none;stop-color:#000000;stop-opacity:1"
       id="path12434"
       sodipodi:type="arc"
       sodipodi:cx="180.5412"
       sodipodi:cy="202.81253"
       sodipodi:rx="24.745472"
       sodipodi:ry="24.745472"
       sodipodi:start="3.2066062"
       sodipodi:end="3.2056129"
       sodipodi:open="true"
       sodipodi:arc-type="arc"
       d="m 155.848,201.20487 a 24.745472,24.745472 0 0 1 26.29472,-23.08593 24.745472,24.745472 0 0 1 23.09247,26.28898 24.745472,24.745472 0 0 1 -26.28325,23.099 24.745472,24.745472 0 0 1 -23.10552,-26.27752" />
    <path
       style="font-variation-settings:normal;opacity:0.99;vector-effect:none;fill:#000000;fill-opacity:1;fill-rule:evenodd;stroke:none;stroke-width:0.264567;stroke-linecap:butt;stroke-linejoin:round;stroke-miterlimit:4;stroke-dasharray:none;stroke-dashoffset:0;stroke-opacity:1;-inkscape-stroke:none;marker-start:none;marker-end:none;stop-color:#000000;stop-opacity:1"
       id="path1181"
       sodipodi:type="arc"
       sodipodi:cx="177.96118"
       sodipodi:cy="190.46432"
       sodipodi:rx="0.63076991"
       sodipodi:ry="0.63076991"
       sodipodi:start="3.2066062"
       sodipodi:end="3.1996772"
       sodipodi:open="true"
       sodipodi:arc-type="arc"
       d="m 177.33174,190.42335 a 0.63076991,0.63076991 0 0 1 0.66933,-0.58853 0.63076991,0.63076991 0 0 1 0.58969,0.6683 0.63076991,0.63076991 0 0 1 -0.66729,0.59085 0.63076991,0.63076991 0 0 1 -0.59199,-0.66626" />
    <text
       xml:space="preserve"
       style="font-size:5.64444px;line-height:1.25;font-family:sans-serif;letter-spacing:0px;word-spacing:0px;stroke-width:0.264583"
       x="180.75502"
       y="192.45993"
       id="text1600"><tspan
         sodipodi:role="line"
         id="tspan1598"
         style="stroke-width:0.264583"
         x="180.75502"
         y="192.45993">\(y\)</tspan></text>
    <path
       style="font-variation-settings:normal;opacity:0.99;vector-effect:none;fill:#000000;fill-opacity:1;fill-rule:evenodd;stroke:none;stroke-width:0.264567;stroke-linecap:butt;stroke-linejoin:round;stroke-miterlimit:4;stroke-dasharray:none;stroke-dashoffset:0;stroke-opacity:1;-inkscape-stroke:none;marker-start:none;marker-end:none;stop-color:#000000;stop-opacity:1"
       id="path1181-8"
       sodipodi:type="arc"
       sodipodi:cx="64.563286"
       sodipodi:cy="192.51508"
       sodipodi:rx="0.63076991"
       sodipodi:ry="0.63076991"
       sodipodi:start="3.2066062"
       sodipodi:end="3.1996772"
       sodipodi:open="true"
       sodipodi:arc-type="arc"
       d="m 63.933849,192.4741 a 0.63076991,0.63076991 0 0 1 0.669326,-0.58853 0.63076991,0.63076991 0 0 1 0.589686,0.6683 0.63076991,0.63076991 0 0 1 -0.667283,0.59085 0.63076991,0.63076991 0 0 1 -0.591998,-0.66626" />
    <path
       style="font-variation-settings:normal;opacity:0.99;vector-effect:none;fill:#000000;fill-opacity:1;fill-rule:evenodd;stroke:none;stroke-width:0.264567;stroke-linecap:butt;stroke-linejoin:round;stroke-miterlimit:4;stroke-dasharray:none;stroke-dashoffset:0;stroke-opacity:1;-inkscape-stroke:none;marker-start:none;marker-end:none;stop-color:#000000;stop-opacity:1"
       id="path1181-8-6"
       sodipodi:type="arc"
       sodipodi:cx="88.203209"
       sodipodi:cy="195.9584"
       sodipodi:rx="0.63076991"
       sodipodi:ry="0.63076991"
       sodipodi:start="3.2066062"
       sodipodi:end="3.1996772"
       sodipodi:open="true"
       sodipodi:arc-type="arc"
       d="m 87.573772,195.91742 a 0.63076991,0.63076991 0 0 1 0.669326,-0.58852 0.63076991,0.63076991 0 0 1 0.589686,0.6683 0.63076991,0.63076991 0 0 1 -0.667283,0.59085 0.63076991,0.63076991 0 0 1 -0.591998,-0.66626" />
    <path
       style="font-variation-settings:normal;opacity:0.99;vector-effect:none;fill:#000000;fill-opacity:1;fill-rule:evenodd;stroke:none;stroke-width:0.264567;stroke-linecap:butt;stroke-linejoin:round;stroke-miterlimit:4;stroke-dasharray:none;stroke-dashoffset:0;stroke-opacity:1;-inkscape-stroke:none;marker-start:none;marker-end:none;stop-color:#000000;stop-opacity:1"
       id="path1181-8-0"
       sodipodi:type="arc"
       sodipodi:cx="76.106392"
       sodipodi:cy="219.27002"
       sodipodi:rx="0.63076991"
       sodipodi:ry="0.63076991"
       sodipodi:start="3.2066062"
       sodipodi:end="3.1996772"
       sodipodi:open="true"
       sodipodi:arc-type="arc"
       d="m 75.476955,219.22904 a 0.63076991,0.63076991 0 0 1 0.669326,-0.58853 0.63076991,0.63076991 0 0 1 0.589686,0.66831 0.63076991,0.63076991 0 0 1 -0.667283,0.59084 0.63076991,0.63076991 0 0 1 -0.591998,-0.66626" />
    <path
       style="fill:none;fill-opacity:1;stroke:#000000;stroke-width:0.264583;stroke-linecap:butt;stroke-linejoin:miter;stroke-dasharray:none;stroke-opacity:1;marker-start:none;marker-end:url(#marker-arrow-1)"
       d="m 105.21437,205.40909 h 43.72498"
       id="path2706"
       inkscape:path-effect="#path-effect2708"
       inkscape:original-d="m 105.21437,205.40909 c 14.57526,2.6e-4 29.15026,2.6e-4 43.72498,0" />
  </g>
</svg>
