<?xml version="1.0" encoding="UTF-8" standalone="no"?>
<!-- Created with Inkscape (http://www.inkscape.org/) -->

<svg
   width="240mm"
   height="60mm"
   viewBox="0 0 240 60"
   version="1.1"
   id="svg8"
   inkscape:version="1.1.1 (c3084ef, 2021-09-22)"
   sodipodi:docname="eg:degree-m-map-disks.svg"
   xmlns:inkscape="http://www.inkscape.org/namespaces/inkscape"
   xmlns:sodipodi="http://sodipodi.sourceforge.net/DTD/sodipodi-0.dtd"
   xmlns="http://www.w3.org/2000/svg"
   xmlns:svg="http://www.w3.org/2000/svg"
   xmlns:rdf="http://www.w3.org/1999/02/22-rdf-syntax-ns#"
   xmlns:cc="http://creativecommons.org/ns#"
   xmlns:dc="http://purl.org/dc/elements/1.1/">
  <defs
     id="defs2">
    <inkscape:path-effect
       effect="spiro"
       id="path-effect13287"
       is_visible="true"
       lpeversion="1" />
    <inkscape:path-effect
       effect="spiro"
       id="path-effect13148"
       is_visible="true"
       lpeversion="1" />
    <inkscape:path-effect
       effect="spiro"
       id="path-effect9227"
       is_visible="true"
       lpeversion="1" />
    <inkscape:path-effect
       effect="spiro"
       id="path-effect9223"
       is_visible="true"
       lpeversion="1" />
    <inkscape:path-effect
       effect="spiro"
       id="path-effect9219"
       is_visible="true"
       lpeversion="1" />
    <inkscape:path-effect
       effect="spiro"
       id="path-effect8874"
       is_visible="true"
       lpeversion="1" />
    <inkscape:path-effect
       effect="spiro"
       id="path-effect8870"
       is_visible="true"
       lpeversion="1" />
    <inkscape:path-effect
       effect="spiro"
       id="path-effect8866"
       is_visible="true"
       lpeversion="1" />
    <inkscape:path-effect
       effect="spiro"
       id="path-effect6460"
       is_visible="true"
       lpeversion="1" />
    <inkscape:path-effect
       effect="spiro"
       id="path-effect6423"
       is_visible="true"
       lpeversion="1" />
    <inkscape:path-effect
       effect="spiro"
       id="path-effect5818"
       is_visible="true"
       lpeversion="1" />
    <inkscape:path-effect
       effect="spiro"
       id="path-effect5726"
       is_visible="true"
       lpeversion="1" />
    <marker
       id="marker-arrow-1"
       orient="auto-start-reverse"
       refY="0"
       refX="0"
       markerHeight="3"
       markerWidth="2">
      <g
         transform="scale(1.3933333)"
         id="g5730"><path
   d="M -1.55415,2.0722 C -1.42464,1.29512 0,0.1295 0.38852,0 0,-0.1295 -1.42464,-1.29512 -1.55415,-2.0722"
   style="fill:none;stroke:#000000;stroke-linecap:round;stroke-linejoin:round;stroke-miterlimit:10;stroke-dasharray:none;stroke-opacity:1"
   id="path5728" />


0&quot; /&gt;
   </g>
    </marker>
  </defs>
  <sodipodi:namedview
     id="base"
     pagecolor="#ffffff"
     bordercolor="#666666"
     borderopacity="1.0"
     inkscape:pageopacity="0.0"
     inkscape:pageshadow="2"
     inkscape:zoom="0.89099553"
     inkscape:cx="350.17011"
     inkscape:cy="102.69412"
     inkscape:document-units="mm"
     inkscape:current-layer="layer1"
     showgrid="false"
     showborder="true"
     width="200mm"
     showguides="true"
     inkscape:guide-bbox="true"
     inkscape:window-width="1280"
     inkscape:window-height="680"
     inkscape:window-x="1728"
     inkscape:window-y="25"
     inkscape:window-maximized="0"
     inkscape:pagecheckerboard="0">
    <inkscape:grid
       type="xygrid"
       id="grid815"
       units="mm"
       spacingx="10"
       spacingy="10"
       empspacing="4"
       dotted="false" />
  </sodipodi:namedview>
  <metadata
     id="metadata5">
    <rdf:RDF>
      <cc:Work
         rdf:about="">
        <dc:format>image/svg+xml</dc:format>
        <dc:type
           rdf:resource="http://purl.org/dc/dcmitype/StillImage" />
      </cc:Work>
    </rdf:RDF>
  </metadata>
  <g
     inkscape:label="Layer 1"
     inkscape:groupmode="layer"
     id="layer1"
     transform="translate(0,-177)">
    <path
       style="font-variation-settings:normal;opacity:0.99;vector-effect:none;fill:none;fill-opacity:1;fill-rule:evenodd;stroke:#000000;stroke-width:0.264567;stroke-linecap:butt;stroke-linejoin:round;stroke-miterlimit:4;stroke-dasharray:none;stroke-dashoffset:0;stroke-opacity:1;-inkscape-stroke:none;stop-color:#000000;stop-opacity:1"
       id="path845"
       sodipodi:type="arc"
       sodipodi:cx="37.371002"
       sodipodi:cy="202.8996"
       sodipodi:rx="24.745472"
       sodipodi:ry="24.745472"
       sodipodi:start="3.2066062"
       sodipodi:end="3.2056129"
       sodipodi:open="true"
       sodipodi:arc-type="arc"
       d="M 12.677808,201.29194 A 24.745472,24.745472 0 0 1 38.972527,178.206 24.745472,24.745472 0 0 1 62.064991,204.49499 24.745472,24.745472 0 0 1 35.781741,227.59398 24.745472,24.745472 0 0 1 12.676224,201.31647" />
    <path
       style="font-variation-settings:normal;opacity:0.99;vector-effect:none;fill:none;fill-opacity:1;fill-rule:evenodd;stroke:#000000;stroke-width:0.264567;stroke-linecap:butt;stroke-linejoin:round;stroke-miterlimit:4;stroke-dasharray:none;stroke-dashoffset:0;stroke-opacity:1;-inkscape-stroke:none;stop-color:#000000;stop-opacity:1"
       id="path888"
       sodipodi:type="arc"
       sodipodi:cx="37.394859"
       sodipodi:cy="203.12161"
       sodipodi:rx="24.53134"
       sodipodi:ry="3.2460241"
       sodipodi:start="6.2811655"
       sodipodi:end="3.1722987"
       sodipodi:arc-type="arc"
       d="m 61.926149,203.11506 a 24.53134,3.2460241 0 0 1 -12.454943,2.83201 24.53134,3.2460241 0 0 1 -24.760177,-0.047 24.53134,3.2460241 0 0 1 -11.835945,-2.87811"
       sodipodi:open="true" />
    <path
       style="font-variation-settings:normal;opacity:0.99;vector-effect:none;fill:none;fill-opacity:1;fill-rule:evenodd;stroke:#000000;stroke-width:0.264583;stroke-linecap:butt;stroke-linejoin:round;stroke-miterlimit:4;stroke-dasharray:0.79375, 0.79375;stroke-dashoffset:0;stroke-opacity:1;-inkscape-stroke:none;marker-start:none;marker-end:none;stop-color:#000000;stop-opacity:1"
       id="path1169"
       sodipodi:type="arc"
       sodipodi:cx="37.394859"
       sodipodi:cy="203.12161"
       sodipodi:rx="24.53134"
       sodipodi:ry="3.2460241"
       sodipodi:start="3.2066062"
       sodipodi:end="0.1827284"
       sodipodi:open="true"
       sodipodi:arc-type="arc"
       d="m 12.915345,202.91073 a 24.53134,3.2460241 0 0 1 14.491234,-2.75389 24.53134,3.2460241 0 0 1 25.165859,0.41461 24.53134,3.2460241 0 0 1 8.945353,3.14001" />
    <path
       style="font-variation-settings:normal;opacity:0.99;vector-effect:none;fill:none;fill-opacity:1;fill-rule:evenodd;stroke:#000000;stroke-width:0.264567;stroke-linecap:butt;stroke-linejoin:round;stroke-miterlimit:4;stroke-dasharray:none;stroke-dashoffset:0;stroke-opacity:1;-inkscape-stroke:none;stop-color:#000000;stop-opacity:1"
       id="path1818"
       sodipodi:type="arc"
       sodipodi:cx="38.616402"
       sodipodi:cy="219.52556"
       sodipodi:rx="7.6544623"
       sodipodi:ry="8.0381384"
       sodipodi:start="3.2066062"
       sodipodi:end="3.190968"
       sodipodi:open="true"
       sodipodi:arc-type="arc"
       d="m 30.97811,219.00334 a 7.6544623,8.0381384 0 0 1 8.105719,-7.50092 7.6544623,8.0381384 0 0 1 7.174519,8.48262 7.6544623,8.0381384 0 0 1 -8.049621,7.56725 7.6544623,8.0381384 0 0 1 -7.237459,-8.42346" />
    <path
       style="font-variation-settings:normal;opacity:0.99;vector-effect:none;fill:none;fill-opacity:1;fill-rule:evenodd;stroke:#000000;stroke-width:0.264567;stroke-linecap:butt;stroke-linejoin:round;stroke-miterlimit:4;stroke-dasharray:none;stroke-dashoffset:0;stroke-opacity:1;-inkscape-stroke:none;stop-color:#000000;stop-opacity:1"
       id="path1839"
       sodipodi:type="arc"
       sodipodi:cx="28.732225"
       sodipodi:cy="192.52554"
       sodipodi:rx="9.3936243"
       sodipodi:ry="6.5288277"
       sodipodi:start="3.2066062"
       sodipodi:end="3.190968"
       sodipodi:open="true"
       sodipodi:arc-type="arc"
       d="m 19.358446,192.10138 a 9.3936243,6.5288277 0 0 1 9.94741,-6.09248 9.3936243,6.5288277 0 0 1 8.804634,6.88985 9.3936243,6.5288277 0 0 1 -9.878566,6.14635 9.3936243,6.5288277 0 0 1 -8.881875,-6.84179" />
    <path
       style="font-variation-settings:normal;opacity:0.99;vector-effect:none;fill:none;fill-opacity:1;fill-rule:evenodd;stroke:#000000;stroke-width:0.264567;stroke-linecap:butt;stroke-linejoin:round;stroke-miterlimit:4;stroke-dasharray:none;stroke-dashoffset:0;stroke-opacity:1;-inkscape-stroke:none;stop-color:#000000;stop-opacity:1"
       id="path1981"
       sodipodi:type="arc"
       sodipodi:cx="49.880978"
       sodipodi:cy="195.11633"
       sodipodi:rx="9.178093"
       sodipodi:ry="7.9405584"
       sodipodi:start="3.2066062"
       sodipodi:end="3.190968"
       sodipodi:open="true"
       sodipodi:arc-type="arc"
       d="m 40.722275,194.60045 a 9.178093,7.9405584 0 0 1 9.719172,-7.40986 9.178093,7.9405584 0 0 1 8.602616,8.37965 9.178093,7.9405584 0 0 1 -9.651908,7.47538 9.178093,7.9405584 0 0 1 -8.678085,-8.3212" />
    <text
       xml:space="preserve"
       style="font-size:5.64444px;line-height:1.25;font-family:sans-serif;letter-spacing:0px;word-spacing:0px;stroke-width:0.264583"
       x="24.785427"
       y="194.97672"
       id="text2257"><tspan
         sodipodi:role="line"
         id="tspan2255"
         style="stroke-width:0.264583"
         x="24.785427"
         y="194.97672">\(D_1\)</tspan></text>
    <text
       xml:space="preserve"
       style="font-size:5.64444px;line-height:1.25;font-family:sans-serif;letter-spacing:0px;word-spacing:0px;stroke-width:0.264583"
       x="143.507"
       y="184.92586"
       id="text2257-9"><tspan
         sodipodi:role="line"
         id="tspan2255-37"
         style="stroke-width:0.264583"
         x="143.507"
         y="184.92586">\(D_1\)</tspan></text>
    <text
       xml:space="preserve"
       style="font-size:5.64444px;line-height:1.25;font-family:sans-serif;letter-spacing:0px;word-spacing:0px;stroke-width:0.264583"
       x="47.20797"
       y="197.73062"
       id="text2257-4"><tspan
         sodipodi:role="line"
         id="tspan2255-3"
         style="stroke-width:0.264583"
         x="47.20797"
         y="197.73062">\(D_3\)</tspan></text>
    <text
       xml:space="preserve"
       style="font-size:5.64444px;line-height:1.25;font-family:sans-serif;letter-spacing:0px;word-spacing:0px;stroke-width:0.264583"
       x="36.225494"
       y="222.01555"
       id="text2257-5"><tspan
         sodipodi:role="line"
         id="tspan2255-5"
         style="stroke-width:0.264583"
         x="36.225494"
         y="222.01555">\(D_2\)</tspan></text>
    <path
       style="fill:none;stroke:#000000;stroke-width:0.264583px;stroke-linecap:butt;stroke-linejoin:miter;stroke-opacity:1"
       d="m 121.43837,204.83786 c 1.35427,-3.67666 2.8271,-7.30964 4.41544,-10.89141 0.75103,-1.6936 1.53125,-3.38199 2.52872,-4.94319 0.99747,-1.56121 2.22352,-2.9997 3.74226,-4.06071 1.51874,-1.06101 3.34728,-1.72802 5.19939,-1.68358 1.85212,0.0444 3.71382,0.84795 4.86677,2.29813 1.00312,1.26173 1.41846,2.93943 1.27137,4.54461 -0.14709,1.60517 -0.82848,3.13523 -1.8013,4.42048 -1.94563,2.57049 -4.9284,4.11627 -7.85941,5.45869 -4.0276,1.84467 -8.15704,3.46695 -12.36324,4.85698 z"
       id="path5816"
       inkscape:path-effect="#path-effect5818"
       inkscape:original-d="m 121.43837,204.83786 c 0,0 3.74417,-2.11222 4.41544,-10.89141 0.67128,-8.7792 11.25943,-12.74436 16.33714,-8.38935 5.07772,4.35501 -9.32122,11.97102 -8.38934,14.42378 0.93189,2.45276 -12.36324,4.85698 -12.36324,4.85698 z"
       sodipodi:nodetypes="czzsc" />
    <path
       style="fill:none;stroke:#000000;stroke-width:0.264583px;stroke-linecap:butt;stroke-linejoin:miter;stroke-opacity:1"
       d="m 128.94462,188.50073 c 0.18949,2.09176 0.90424,4.13389 2.06054,5.88726 1.29971,1.97083 3.15662,3.56983 5.29853,4.56262"
       id="path6421"
       inkscape:path-effect="#path-effect6423"
       inkscape:original-d="m 128.94462,188.50073 c 0.68712,1.96268 1.37396,3.9251 2.06054,5.88726 0.68659,1.96215 3.53262,3.04201 5.29853,4.56262" />
    <path
       style="fill:none;fill-opacity:1;stroke:#000000;stroke-width:0.264583;stroke-linecap:butt;stroke-linejoin:miter;stroke-dasharray:0.79375, 0.79375;stroke-opacity:1;marker-start:none;marker-end:none"
       d="m 128.94462,188.50073 c 2.14778,0.21986 4.19568,1.29771 5.5929,2.94363 1.72709,2.03451 2.40487,4.91509 1.76617,7.50625"
       id="path6458"
       inkscape:path-effect="#path-effect6460"
       inkscape:original-d="m 128.94462,188.50073 c 1.86456,0.98147 3.72886,1.96268 5.5929,2.94363 1.86403,0.98094 1.17771,5.00443 1.76617,7.50625" />
    <path
       style="fill:none;stroke:#000000;stroke-width:0.264583px;stroke-linecap:butt;stroke-linejoin:miter;stroke-opacity:1"
       d="m 121.43837,204.83786 c 3.69472,1.3042 7.34738,2.72755 10.95039,4.26709 1.70364,0.72795 3.40247,1.48517 4.97708,2.46134 1.57462,0.97617 3.02963,2.18257 4.11117,3.68676 1.08154,1.50419 1.77332,3.3235 1.75404,5.17605 -0.0193,1.85255 -0.79742,3.72499 -2.23181,4.89753 -1.24799,1.02017 -2.91989,1.45826 -4.52692,1.33298 -1.60702,-0.12527 -3.1462,-0.78582 -4.44454,-1.74109 -2.59668,-1.91054 -4.18283,-4.87204 -5.56494,-7.78454 -1.89921,-4.00217 -3.57743,-8.10919 -5.02447,-12.29612 z"
       id="path5816-5"
       inkscape:path-effect="#path-effect8866"
       inkscape:original-d="m 121.43837,204.83786 c 0,0 2.16289,3.71513 10.95039,4.26709 8.7875,0.55197 12.89612,11.08528 8.61048,16.22168 -4.28564,5.1364 -12.09653,-9.15776 -14.5364,-8.19265 -2.43988,0.96512 -5.02447,-12.29612 -5.02447,-12.29612 z"
       sodipodi:nodetypes="czzsc" />
    <path
       style="fill:none;stroke:black;stroke-width:0.26458333;stroke-linecap:butt;stroke-linejoin:miter;stroke-opacity:1;fill-opacity:1;marker-end:none;marker-start:none;stroke-dasharray:0.79375,0.79375"
       d="m 137.87596,212.1215 c -2.08899,0.21789 -4.12122,0.96031 -5.85873,2.14032 -1.95299,1.32636 -3.52663,3.20482 -4.49023,5.36002"
       id="path6421-7"
       inkscape:path-effect="#path-effect8870"
       inkscape:original-d="m 137.87596,212.1215 c -1.95317,0.71372 -3.90608,1.42715 -5.85873,2.14032 -1.95265,0.71318 -2.99375,3.57362 -4.49023,5.36002" />
    <path
       style="fill:none;fill-opacity:1;stroke:black;stroke-width:0.26458333;stroke-linecap:butt;stroke-linejoin:miter;stroke-dasharray:none;stroke-opacity:1;marker-start:none;marker-end:none"
       d="m 137.87596,212.1215 c -0.19067,2.15057 -1.2406,4.21292 -2.86739,5.63237 -2.01086,1.75456 -4.88197,2.47141 -7.48157,1.86797"
       id="path6458-2"
       inkscape:path-effect="#path-effect8874"
       inkscape:original-d="m 137.87596,212.1215 c -0.95606,1.87772 -1.91185,3.75518 -2.86739,5.63237 -0.95553,1.87718 -4.98797,1.24558 -7.48157,1.86797" />
    <path
       style="fill:none;stroke:#000000;stroke-width:0.264583px;stroke-linecap:butt;stroke-linejoin:miter;stroke-opacity:1"
       d="m 121.43837,204.83786 c -1.05847,3.77247 -2.2386,7.5108 -3.53793,11.20723 -0.61437,1.74782 -1.25826,3.49275 -2.1288,5.12814 -0.87053,1.63538 -1.97866,3.16656 -3.40849,4.34466 -1.42983,1.17809 -3.19972,1.98798 -5.04953,2.09054 -1.84981,0.10256 -3.76937,-0.55079 -5.03367,-1.90499 -1.10001,-1.17822 -1.64707,-2.8177 -1.62772,-4.42949 0.0193,-1.61178 0.57728,-3.19105 1.44512,-4.54939 1.73569,-2.71667 4.58649,-4.4941 7.40183,-6.0647 3.86865,-2.15822 7.85645,-4.10282 11.93919,-5.822 z"
       id="path5816-9"
       inkscape:path-effect="#path-effect9219"
       inkscape:original-d="m 121.43837,204.83786 c 0,0 -3.56489,2.40246 -3.53793,11.20723 0.027,8.80479 -10.21344,13.59702 -15.62049,9.65835 -5.407037,-3.93867 8.34267,-12.67243 7.21923,-15.04358 -1.12344,-2.37115 11.9392,-5.82199 11.93919,-5.822 z"
       sodipodi:nodetypes="czzsc" />
    <path
       style="fill:none;stroke:black;stroke-width:0.26458333;stroke-linecap:butt;stroke-linejoin:miter;stroke-opacity:1;fill-opacity:1;marker-end:none;marker-start:none;stroke-dasharray:0.79375,0.79375"
       d="m 115.25117,221.71875 c -0.35476,-2.07015 -1.22918,-4.04917 -2.52087,-5.70534 -1.45189,-1.86157 -3.42974,-3.3083 -5.64363,-4.12812"
       id="path6421-75"
       inkscape:path-effect="#path-effect9223"
       inkscape:original-d="m 115.25117,221.71875 c -0.84058,-1.90202 -1.68086,-3.8038 -2.52087,-5.70534 -0.84001,-1.90153 -3.7627,-2.75232 -5.64363,-4.12812" />
    <path
       style="fill:none;fill-opacity:1;stroke:black;stroke-width:0.26458333;stroke-linecap:butt;stroke-linejoin:miter;stroke-dasharray:none;stroke-opacity:1;marker-start:none;marker-end:none"
       d="m 115.25117,221.71875 c -2.15845,-0.0489 -4.28537,-0.96094 -5.8087,-2.49089 -1.88297,-1.89116 -2.78702,-4.70892 -2.3558,-7.34257"
       id="path6458-6"
       inkscape:path-effect="#path-effect9227"
       inkscape:original-d="m 115.25117,221.71875 c -1.93651,-0.83054 -3.87275,-1.66083 -5.8087,-2.49089 -1.93594,-0.83006 -1.57081,-4.8953 -2.3558,-7.34257" />
    <text
       xml:space="preserve"
       style="font-size:5.64444px;line-height:1.25;font-family:sans-serif;letter-spacing:0px;word-spacing:0px;stroke-width:0.264583"
       x="137.47256"
       y="234.08444"
       id="text2257-5-5"><tspan
         sodipodi:role="line"
         id="tspan2255-5-4"
         style="stroke-width:0.264583"
         x="137.47256"
         y="234.08444">\(D_2\)</tspan></text>
    <text
       xml:space="preserve"
       style="font-size:5.64444px;line-height:1.25;font-family:sans-serif;letter-spacing:0px;word-spacing:0px;stroke-width:0.264583"
       x="103.17931"
       y="234.52599"
       id="text2257-5-2"><tspan
         sodipodi:role="line"
         id="tspan2255-5-1"
         style="stroke-width:0.264583"
         x="103.17931"
         y="234.52599">\(D_3\)</tspan></text>
    <path
       style="opacity:0.99;fill:#df2626;fill-opacity:0.12;stroke:none;stroke-width:0.147181;stroke-linejoin:round;stroke-dasharray:none;stroke-opacity:1;marker-start:none;marker-end:none"
       d="m 33.135505,227.05911 c -5.067668,-0.89316 -9.834785,-3.44446 -13.390613,-7.16648 -4.034872,-4.22346 -6.295104,-9.22683 -6.850861,-15.16543 l -0.09989,-1.06735 0.67332,0.37632 c 5.943145,3.32169 41.335872,3.34725 47.847083,0.0346 l 0.57477,-0.29242 -0.0995,1.29441 c -0.678614,8.82851 -6.58699,16.90393 -14.950707,20.43422 -1.339292,0.56531 -4.025439,1.40656 -4.495043,1.40776 -0.07987,1.5e-4 0.19286,-0.2273 0.606068,-0.50557 1.531726,-1.03153 2.847911,-3.00008 3.302759,-4.93977 0.652468,-2.78243 -0.268999,-5.9976 -2.267056,-7.91019 -1.605909,-1.53721 -3.285564,-2.24532 -5.325959,-2.24532 -2.13169,0 -3.902977,0.74215 -5.444813,2.28131 -1.603475,1.60069 -2.426705,3.59014 -2.426705,5.86446 0,3.3158 1.714854,6.16688 4.543311,7.5536 l 0.68163,0.33419 -0.662318,-0.007 c -0.364273,-0.004 -1.361239,-0.13047 -2.215483,-0.28102 z"
       id="path11970" />
    <path
       style="opacity:0.99;fill:#df2626;fill-opacity:0.12;stroke:none;stroke-width:0.147181;stroke-linejoin:round;stroke-dasharray:none;stroke-opacity:1;marker-start:none;marker-end:none"
       d="m 31.303501,206.06355 c -8.667695,-0.29231 -16.411808,-1.39423 -17.882539,-2.54453 -0.314108,-0.24568 -0.340895,-0.32639 -0.183042,-0.55154 0.43157,-0.61556 0.408488,-1.00203 -0.03773,-0.6317 -0.125336,0.10402 -0.271219,0.1458 -0.324181,0.0928 -0.182136,-0.18213 0.274058,-3.6867 0.698858,-5.36872 0.734274,-2.9074 1.894572,-5.53399 3.465951,-7.84592 1.053418,-1.54987 1.286923,-1.83348 2.758303,-3.3501 4.066788,-4.19186 9.175202,-6.69303 15.0427,-7.36518 6.5435,-0.74959 13.543285,1.47659 18.628433,5.92452 2.456598,2.14875 4.320165,4.57175 5.796294,7.53628 1.519525,3.05169 2.366637,6.08286 2.537605,9.08015 0.08007,1.40374 0.0763,1.42539 -0.233929,1.34426 -0.375806,-0.0983 -0.403669,0.0518 -0.07668,0.41315 0.3385,0.37404 0.184608,0.62319 -0.617932,1.00043 -3.031587,1.42501 -13.113771,2.40312 -24.052804,2.33344 -2.388018,-0.0152 -4.871704,-0.0455 -5.519301,-0.0674 z m 21.562075,-3.21453 c 2.941376,-0.91549 5.167556,-2.94021 6.020827,-5.47597 0.441481,-1.31201 0.423471,-3.3026 -0.04181,-4.62065 -0.853075,-2.4166 -2.823792,-4.28171 -5.505352,-5.21033 -1.541613,-0.53385 -4.172789,-0.66932 -5.831692,-0.30025 -3.390704,0.75436 -6.219319,3.39205 -6.842567,6.38071 -0.524565,2.51546 0.228087,4.86431 2.180511,6.80485 1.411034,1.40244 3.162768,2.31836 5.163092,2.6996 0.817267,0.15576 4.059674,-0.0298 4.856988,-0.27796 z m 7.947795,-0.80189 c 0,-0.0683 -0.193611,-0.19159 -0.430247,-0.27408 -0.332433,-0.11589 -0.447664,-0.10459 -0.506867,0.0497 -0.04712,0.12279 0.07605,0.25236 0.319862,0.3365 0.40938,0.14128 0.617252,0.10353 0.617252,-0.1121 z m -46.006225,0.0521 c 0.259992,-0.0998 0.32077,-0.49939 0.07595,-0.49939 -0.251653,0 -0.726231,0.29193 -0.726231,0.44673 0,0.16088 0.304078,0.18551 0.650278,0.0527 z m 44.342665,-0.67722 c -0.09691,-0.0616 -0.330747,-0.11304 -0.519631,-0.11427 -0.443259,-0.003 -0.344088,0.32788 0.133562,0.4455 0.387374,0.0954 0.672441,-0.14918 0.386069,-0.33123 z m -42.732962,0.23924 c 0.122934,-0.0472 0.190148,-0.17272 0.149368,-0.27899 -0.08921,-0.23248 -0.81344,-0.0811 -0.903414,0.18881 -0.06161,0.18484 0.372178,0.23672 0.754046,0.0902 z m 1.481106,-0.29793 c 0.128045,-0.0491 0.23281,-0.18868 0.23281,-0.31011 0,-0.14084 -0.08428,-0.18842 -0.23281,-0.13143 -0.128045,0.0491 -0.326739,0.0893 -0.441545,0.0893 -0.114802,0 -0.208732,0.0993 -0.208732,0.22077 0,0.23108 0.255847,0.28279 0.650277,0.13143 z m 39.824607,-0.13143 c 0,-0.1462 -0.146217,-0.22077 -0.432859,-0.22077 -0.459869,0 -0.723831,0.21899 -0.41435,0.34376 0.395017,0.15926 0.847209,0.0936 0.847209,-0.12299 z M 19.749761,200.9282 c 0,-0.17002 -0.121931,-0.21805 -0.467006,-0.18397 -0.67473,0.0666 -0.725405,0.41407 -0.06039,0.41407 0.380177,0 0.5274,-0.0642 0.5274,-0.2301 z m 1.277651,-0.007 c 0.176538,-0.0473 0.289902,-0.16706 0.251923,-0.26603 -0.09442,-0.24607 -0.940847,-0.10926 -0.940847,0.15206 0,0.21974 0.182163,0.24988 0.688924,0.11397 z m 1.813158,-0.44174 c 0,-0.22653 -0.06958,-0.24057 -0.551931,-0.1113 -0.507233,0.13593 -0.41397,0.45713 0.110386,0.38017 0.24714,-0.0363 0.441545,-0.15465 0.441545,-0.26887 z m 1.618996,-0.14718 c 0,-0.22654 -0.06958,-0.24057 -0.551931,-0.1113 -0.507233,0.13593 -0.41397,0.45713 0.110386,0.38017 0.24714,-0.0363 0.441545,-0.15465 0.441545,-0.26887 z m 1.435018,0.0923 c 0.101187,-0.001 0.183978,-0.0682 0.183978,-0.14919 0,-0.081 -0.231812,-0.14718 -0.515136,-0.14718 -0.376295,0 -0.515136,0.0641 -0.515136,0.23794 0,0.17492 0.0877,0.21443 0.331158,0.14919 0.182139,-0.0488 0.413949,-0.0897 0.515136,-0.0908 z m 1.655792,-0.22278 c 0,-0.14718 -0.147183,-0.22077 -0.441545,-0.22077 -0.294362,0 -0.441545,0.0736 -0.441545,0.22077 0,0.14718 0.147183,0.22077 0.441545,0.22077 0.294362,0 0.441545,-0.0736 0.441545,-0.22077 z m 1.618993,-0.14718 c 0,-0.14718 -0.14718,-0.22077 -0.441542,-0.22077 -0.294365,0 -0.441545,0.0736 -0.441545,0.22077 0,0.14718 0.14718,0.22077 0.441545,0.22077 0.294362,0 0.441542,-0.0736 0.441542,-0.22077 z m 1.583116,-0.0368 c 0.03956,-0.12046 -0.09625,-0.18397 -0.393399,-0.18397 -0.313817,0 -0.453808,0.0711 -0.453808,0.23055 0,0.28047 0.753417,0.23905 0.847207,-0.0466 z m 1.654876,-0.12755 c 0,-0.17492 -0.0877,-0.21443 -0.331158,-0.14919 -0.182136,0.0488 -0.413948,0.0897 -0.515136,0.0908 -0.101187,10e-4 -0.183975,0.0682 -0.183975,0.14919 0,0.081 0.231809,0.14718 0.515133,0.14718 0.376296,0 0.515136,-0.0641 0.515136,-0.23794 z m 1.618996,0.0172 c 0,-0.15419 -0.155361,-0.22077 -0.515136,-0.22077 -0.359775,0 -0.515136,0.0666 -0.515136,0.22077 0,0.15419 0.155361,0.22078 0.515136,0.22078 0.359775,0 0.515136,-0.0666 0.515136,-0.22078 z m 1.471813,0 c 0,-0.14718 -0.147182,-0.22077 -0.441544,-0.22077 -0.294362,0 -0.441545,0.0736 -0.441545,0.22077 0,0.14718 0.147183,0.22078 0.441545,0.22078 0.294362,0 0.441544,-0.0736 0.441544,-0.22078 z m 1.618996,0 c 0,-0.14718 -0.147182,-0.22077 -0.441544,-0.22077 -0.294362,0 -0.441545,0.0736 -0.441545,0.22077 0,0.14718 0.147183,0.22078 0.441545,0.22078 0.294362,0 0.441544,-0.0736 0.441544,-0.22078 z m 1.618994,0 c 0,-0.14718 -0.14718,-0.22077 -0.441542,-0.22077 -0.294365,0 -0.441545,0.0736 -0.441545,0.22077 0,0.14718 0.14718,0.22078 0.441545,0.22078 0.294362,0 0.441542,-0.0736 0.441542,-0.22078 z m 1.618996,0 c 0,-0.15419 -0.155358,-0.22077 -0.515133,-0.22077 -0.359778,0 -0.515136,0.0666 -0.515136,0.22077 0,0.15419 0.155358,0.22078 0.515136,0.22078 0.359775,0 0.515133,-0.0666 0.515133,-0.22078 z m 1.471813,0 c 0,-0.14718 -0.147179,-0.22077 -0.441542,-0.22077 -0.294364,0 -0.441544,0.0736 -0.441544,0.22077 0,0.14718 0.14718,0.22078 0.441544,0.22078 0.294363,0 0.441542,-0.0736 0.441542,-0.22078 z m -9.861153,-1.03043 c 2.624212,-0.67997 4.93817,-2.32167 5.828668,-4.13529 0.374658,-0.76304 0.426543,-1.02984 0.426543,-2.19335 0,-1.13722 -0.05722,-1.44678 -0.404448,-2.18805 -0.833974,-1.78038 -3.12929,-3.45711 -5.70358,-4.16647 -1.362861,-0.37554 -5.407486,-0.37554 -6.770346,0 -2.574288,0.70936 -4.869606,2.38609 -5.703581,4.16647 -0.347707,0.74229 -0.40427,1.04926 -0.403188,2.18805 0.0011,1.15965 0.05411,1.43273 0.425606,2.19243 0.999247,2.04345 3.420655,3.6268 6.564252,4.29235 1.258311,0.2664 4.443775,0.17976 5.740074,-0.15614 z"
       id="path12009" />
    <path
       style="font-variation-settings:normal;opacity:0.99;vector-effect:none;fill:none;fill-opacity:1;fill-rule:evenodd;stroke:#000000;stroke-width:0.264567;stroke-linecap:butt;stroke-linejoin:round;stroke-miterlimit:4;stroke-dasharray:none;stroke-dashoffset:0;stroke-opacity:1;-inkscape-stroke:none;stop-color:#000000;stop-opacity:1"
       id="path12406"
       sodipodi:type="arc"
       sodipodi:cx="212.52522"
       sodipodi:cy="202.8996"
       sodipodi:rx="24.745472"
       sodipodi:ry="24.745472"
       sodipodi:start="3.2066062"
       sodipodi:end="3.2056129"
       sodipodi:open="true"
       sodipodi:arc-type="arc"
       d="m 187.83203,201.29194 a 24.745472,24.745472 0 0 1 26.29472,-23.08594 24.745472,24.745472 0 0 1 23.09246,26.28899 24.745472,24.745472 0 0 1 -26.28325,23.09899 24.745472,24.745472 0 0 1 -23.10552,-26.27751" />
    <path
       style="font-variation-settings:normal;opacity:0.99;vector-effect:none;fill:none;fill-opacity:1;fill-rule:evenodd;stroke:#000000;stroke-width:0.264567;stroke-linecap:butt;stroke-linejoin:round;stroke-miterlimit:4;stroke-dasharray:none;stroke-dashoffset:0;stroke-opacity:1;-inkscape-stroke:none;stop-color:#000000;stop-opacity:1"
       id="path12408"
       sodipodi:type="arc"
       sodipodi:cx="212.54909"
       sodipodi:cy="203.12161"
       sodipodi:rx="24.53134"
       sodipodi:ry="3.2460241"
       sodipodi:start="6.2811655"
       sodipodi:end="3.1722987"
       sodipodi:arc-type="arc"
       d="m 237.08038,203.11506 a 24.53134,3.2460241 0 0 1 -12.45495,2.83201 24.53134,3.2460241 0 0 1 -24.76017,-0.047 24.53134,3.2460241 0 0 1 -11.83595,-2.87811"
       sodipodi:open="true" />
    <path
       style="font-variation-settings:normal;opacity:0.99;vector-effect:none;fill:none;fill-opacity:1;fill-rule:evenodd;stroke:#000000;stroke-width:0.264583;stroke-linecap:butt;stroke-linejoin:round;stroke-miterlimit:4;stroke-dasharray:0.79375, 0.79375;stroke-dashoffset:0;stroke-opacity:1;-inkscape-stroke:none;marker-start:none;marker-end:none;stop-color:#000000;stop-opacity:1"
       id="path12410"
       sodipodi:type="arc"
       sodipodi:cx="212.54909"
       sodipodi:cy="203.12161"
       sodipodi:rx="24.53134"
       sodipodi:ry="3.2460241"
       sodipodi:start="3.2066062"
       sodipodi:end="0.1827284"
       sodipodi:open="true"
       sodipodi:arc-type="arc"
       d="m 188.06957,202.91073 a 24.53134,3.2460241 0 0 1 14.49124,-2.75389 24.53134,3.2460241 0 0 1 25.16586,0.41461 24.53134,3.2460241 0 0 1 8.94535,3.14001" />
    <path
       style="fill:none;fill-opacity:1;stroke:#000000;stroke-width:0.264583;stroke-linecap:butt;stroke-linejoin:miter;stroke-dasharray:none;stroke-opacity:1;marker-start:none;marker-end:url(#marker-arrow-1)"
       d="M 70.848452,204.69068 H 103.18788"
       id="path13144"
       inkscape:path-effect="#path-effect13148"
       inkscape:original-d="m 70.848452,204.69068 c 7.114035,2.7e-4 25.225931,2.7e-4 32.339428,0"
       sodipodi:nodetypes="cc" />
    <path
       style="fill:none;fill-opacity:1;stroke:#000000;stroke-width:0.264583;stroke-linecap:butt;stroke-linejoin:miter;stroke-dasharray:none;stroke-opacity:1;marker-start:none;marker-end:url(#marker-arrow-1)"
       d="m 144.93181,204.69068 h 32.33945"
       id="path13283"
       inkscape:path-effect="#path-effect13287"
       inkscape:original-d="m 144.93181,204.69068 c 7.11404,2.7e-4 25.22595,2.7e-4 32.33945,0"
       sodipodi:nodetypes="cc" />
  </g>
</svg>
