<?xml version="1.0" encoding="UTF-8" standalone="no"?>
<!-- Created with Inkscape (http://www.inkscape.org/) -->

<svg
   width="240mm"
   height="80mm"
   viewBox="0 0 240 80"
   version="1.1"
   id="svg8"
   inkscape:version="1.1.1 (c3084ef, 2021-09-22)"
   sodipodi:docname="eg:homotopy.svg"
   xmlns:inkscape="http://www.inkscape.org/namespaces/inkscape"
   xmlns:sodipodi="http://sodipodi.sourceforge.net/DTD/sodipodi-0.dtd"
   xmlns="http://www.w3.org/2000/svg"
   xmlns:svg="http://www.w3.org/2000/svg"
   xmlns:rdf="http://www.w3.org/1999/02/22-rdf-syntax-ns#"
   xmlns:cc="http://creativecommons.org/ns#"
   xmlns:dc="http://purl.org/dc/elements/1.1/">
  <defs
     id="defs2">
    <rect
       x="-74.264776"
       y="25.707038"
       width="1196.8054"
       height="659.81397"
       id="rect9622" />
    <linearGradient
       id="linearGradient3824"
       inkscape:swatch="solid">
      <stop
         style="stop-color:#ff0000;stop-opacity:1;"
         offset="0"
         id="stop3822" />
    </linearGradient>
  </defs>
  <sodipodi:namedview
     id="base"
     pagecolor="#ffffff"
     bordercolor="#666666"
     borderopacity="1.0"
     inkscape:pageopacity="0.0"
     inkscape:pageshadow="2"
     inkscape:zoom="0.84080247"
     inkscape:cx="352.63931"
     inkscape:cy="192.67308"
     inkscape:document-units="mm"
     inkscape:current-layer="layer1"
     showgrid="false"
     showborder="true"
     width="200mm"
     showguides="true"
     inkscape:guide-bbox="true"
     inkscape:window-width="1280"
     inkscape:window-height="680"
     inkscape:window-x="1728"
     inkscape:window-y="25"
     inkscape:window-maximized="0"
     inkscape:pagecheckerboard="0"
     height="80mm">
    <inkscape:grid
       type="xygrid"
       id="grid815"
       units="mm"
       spacingx="10"
       spacingy="10"
       empspacing="4"
       dotted="false" />
  </sodipodi:namedview>
  <metadata
     id="metadata5">
    <rdf:RDF>
      <cc:Work
         rdf:about="">
        <dc:format>image/svg+xml</dc:format>
        <dc:type
           rdf:resource="http://purl.org/dc/dcmitype/StillImage" />
      </cc:Work>
    </rdf:RDF>
  </metadata>
  <g
     inkscape:label="Layer 1"
     inkscape:groupmode="layer"
     id="layer1"
     transform="translate(0,-177)">
    <path
       style="opacity:0.99;fill:black;fill-opacity:0.12;stroke:black;stroke-width:0.70220417;stroke-miterlimit:4;stroke-dasharray:none;stroke-dashoffset:0;stroke-opacity:1;marker-start:none;marker-end:none"
       id="path845"
       sodipodi:type="arc"
       sodipodi:cx="41.095184"
       sodipodi:cy="211.28172"
       sodipodi:rx="29.133398"
       sodipodi:ry="29.133398"
       sodipodi:start="6.1848709"
       sodipodi:end="6.1778721"
       sodipodi:open="true"
       sodipodi:arc-type="arc"
       d="M 70.087898,208.4221 A 29.133398,29.133398 0 0 1 44.005529,240.26939 29.133398,29.133398 0 0 1 12.112655,214.24278 29.133398,29.133398 0 0 1 38.083418,182.30442 29.133398,29.133398 0 0 1 70.067174,208.21926" />
    <path
       style="opacity:0.99;fill:none;fill-opacity:1;stroke:#ff0000;stroke-width:0.702204;stroke-miterlimit:4;stroke-dasharray:none;stroke-dashoffset:0;stroke-opacity:1;marker-start:none;marker-end:none"
       id="path845-2"
       sodipodi:type="arc"
       sodipodi:cx="41.095184"
       sodipodi:cy="211.28172"
       sodipodi:rx="29.133398"
       sodipodi:ry="29.133398"
       sodipodi:start="6.1848709"
       sodipodi:end="6.1778721"
       sodipodi:open="true"
       sodipodi:arc-type="arc"
       d="M 70.087898,208.4221 A 29.133398,29.133398 0 0 1 44.005529,240.26939 29.133398,29.133398 0 0 1 12.112655,214.24278 29.133398,29.133398 0 0 1 38.083418,182.30442 29.133398,29.133398 0 0 1 70.067174,208.21926" />
    <path
       style="opacity:0.99;fill:black;fill-opacity:0.12;stroke:black;stroke-width:0.70220417;stroke-miterlimit:4;stroke-dasharray:none;stroke-dashoffset:0;stroke-opacity:1;marker-start:none;marker-end:none"
       id="path845-8"
       sodipodi:type="arc"
       sodipodi:cx="120.44945"
       sodipodi:cy="211.07889"
       sodipodi:rx="29.133398"
       sodipodi:ry="29.133398"
       sodipodi:start="6.1848709"
       sodipodi:end="6.1778721"
       sodipodi:open="true"
       sodipodi:arc-type="arc"
       d="m 149.44216,208.21927 a 29.133398,29.133398 0 0 1 -26.08237,31.84728 29.133398,29.133398 0 0 1 -31.892872,-26.0266 29.133398,29.133398 0 0 1 25.970762,-31.93837 29.133398,29.133398 0 0 1 31.98376,25.91484" />
    <path
       style="opacity:0.99;fill:black;fill-opacity:0.12;stroke:black;stroke-width:0.70220417;stroke-miterlimit:4;stroke-dasharray:none;stroke-dashoffset:0;stroke-opacity:1;marker-start:none;marker-end:none"
       id="path845-1"
       sodipodi:type="arc"
       sodipodi:cx="199.84521"
       sodipodi:cy="211.28172"
       sodipodi:rx="29.133398"
       sodipodi:ry="29.133398"
       sodipodi:start="6.1848709"
       sodipodi:end="6.1778721"
       sodipodi:open="true"
       sodipodi:arc-type="arc"
       d="m 228.83793,208.4221 a 29.133398,29.133398 0 0 1 -26.08237,31.84729 29.133398,29.133398 0 0 1 -31.89287,-26.02661 29.133398,29.133398 0 0 1 25.97076,-31.93836 29.133398,29.133398 0 0 1 31.98375,25.91484" />
    <path
       style="opacity:0.99;fill:none;stroke:#ff0000;stroke-width:0.70220417;stroke-miterlimit:4;stroke-dasharray:none;stroke-dashoffset:0;stroke-opacity:1;fill-opacity:1;marker-start:none;marker-end:none"
       id="path1177"
       sodipodi:type="arc"
       sodipodi:cx="120.76712"
       sodipodi:cy="211.70308"
       sodipodi:rx="14.061163"
       sodipodi:ry="14.061163"
       sodipodi:start="6.1848709"
       sodipodi:end="6.1778721"
       sodipodi:open="true"
       sodipodi:arc-type="arc"
       d="m 134.76038,210.32289 a 14.061163,14.061163 0 0 1 -12.58859,15.37101 14.061163,14.061163 0 0 1 -15.39302,-12.56167 14.061163,14.061163 0 0 1 12.53473,-15.41498 14.061163,14.061163 0 0 1 15.43688,12.50774" />
    <path
       style="opacity:0.99;fill:#ff0000;fill-opacity:1;stroke:#ff0000;stroke-width:0.265;stroke-miterlimit:4;stroke-dasharray:none;stroke-dashoffset:0;stroke-opacity:1"
       id="path1179"
       sodipodi:type="arc"
       sodipodi:cx="200.16902"
       sodipodi:cy="213.0896"
       sodipodi:rx="0.95945227"
       sodipodi:ry="0.95945227"
       sodipodi:start="6.1848709"
       sodipodi:end="6.1778721"
       sodipodi:open="true"
       sodipodi:arc-type="arc"
       d="m 201.12384,212.99542 a 0.95945227,0.95945227 0 0 1 -0.85897,1.04883 0.95945227,0.95945227 0 0 1 -1.05033,-0.85713 0.95945227,0.95945227 0 0 1 0.85529,-1.05183 0.95945227,0.95945227 0 0 1 1.05333,0.85345" />
    <text
       xml:space="preserve"
       style="font-size:5.64444px;line-height:1.25;font-family:sans-serif;letter-spacing:0px;word-spacing:0px;stroke-width:0.264583"
       x="32.641285"
       y="252.31255"
       id="text4200"><tspan
         sodipodi:role="line"
         id="tspan4198"
         style="stroke-width:0.264583"
         x="32.641285"
         y="252.31255">\(t=0\)</tspan></text>
    <text
       xml:space="preserve"
       style="font-size:5.64444px;line-height:1.25;font-family:sans-serif;letter-spacing:0px;word-spacing:0px;stroke-width:0.264583"
       x="114.13628"
       y="252.3831"
       id="text4200-2"><tspan
         sodipodi:role="line"
         id="tspan4198-6"
         style="stroke-width:0.264583"
         x="114.13628"
         y="252.3831">\(t=\frac{1}{2}\)</tspan></text>
    <text
       xml:space="preserve"
       style="font-size:5.64444px;line-height:1.25;font-family:sans-serif;letter-spacing:0px;word-spacing:0px;stroke-width:0.264583"
       x="193.94614"
       y="252.24309"
       id="text4200-2-7"><tspan
         sodipodi:role="line"
         id="tspan4198-6-5"
         style="stroke-width:0.264583"
         x="193.94614"
         y="252.24309">\(t=1\)</tspan></text>
    <text
       xml:space="preserve"
       transform="matrix(0.26458333,0,0,0.26458333,0,177)"
       id="text9620"
       style="line-height:1.25;font-family:sans-serif;font-size:21.33333333px;letter-spacing:0px;word-spacing:0px;white-space:pre;shape-inside:url(#rect9622)" />
  </g>
</svg>
