<?xml version="1.0" encoding="UTF-8" standalone="no"?>
<!-- Created with Inkscape (http://www.inkscape.org/) -->

<svg
   width="240mm"
   height="70mm"
   viewBox="0 0 240 70"
   version="1.1"
   id="svg8"
   inkscape:version="1.1.1 (c3084ef, 2021-09-22)"
   sodipodi:docname="eg:lec14:1.svg"
   xmlns:inkscape="http://www.inkscape.org/namespaces/inkscape"
   xmlns:sodipodi="http://sodipodi.sourceforge.net/DTD/sodipodi-0.dtd"
   xmlns="http://www.w3.org/2000/svg"
   xmlns:svg="http://www.w3.org/2000/svg"
   xmlns:rdf="http://www.w3.org/1999/02/22-rdf-syntax-ns#"
   xmlns:cc="http://creativecommons.org/ns#"
   xmlns:dc="http://purl.org/dc/elements/1.1/">
  <defs
     id="defs2">
    <marker
       style="overflow:visible;"
       id="marker2439"
       refX="0.0"
       refY="0.0"
       orient="auto"
       inkscape:stockid="Arrow1Mend"
       inkscape:isstock="true">
      <path
         transform="scale(0.4) rotate(180) translate(10,0)"
         style="fill-rule:evenodd;fill:context-stroke;stroke:context-stroke;stroke-width:1.0pt;"
         d="M 0.0,0.0 L 5.0,-5.0 L -12.5,0.0 L 5.0,5.0 L 0.0,0.0 z "
         id="path2185" />
    </marker>
    <inkscape:path-effect
       effect="spiro"
       id="path-effect2112"
       is_visible="true"
       lpeversion="1" />
    <inkscape:path-effect
       effect="spiro"
       id="path-effect1372"
       is_visible="true"
       lpeversion="1" />
    <inkscape:path-effect
       effect="spiro"
       id="path-effect7427"
       is_visible="true"
       lpeversion="1" />
    <inkscape:path-effect
       effect="spiro"
       id="path-effect7086"
       is_visible="true"
       lpeversion="1" />
    <inkscape:path-effect
       effect="spiro"
       id="path-effect7082"
       is_visible="true"
       lpeversion="1" />
    <inkscape:path-effect
       effect="spiro"
       id="path-effect4806"
       is_visible="true"
       lpeversion="1" />
    <inkscape:path-effect
       effect="spiro"
       id="path-effect3884"
       is_visible="true"
       lpeversion="1" />
    <inkscape:path-effect
       effect="spiro"
       id="path-effect3562"
       is_visible="true"
       lpeversion="1" />
    <inkscape:path-effect
       effect="spiro"
       id="path-effect3379"
       is_visible="true"
       lpeversion="1" />
    <inkscape:path-effect
       effect="spiro"
       id="path-effect1168"
       is_visible="true"
       lpeversion="1" />
    <inkscape:path-effect
       effect="spiro"
       id="path-effect1048"
       is_visible="true"
       lpeversion="1" />
    <inkscape:path-effect
       effect="spiro"
       id="path-effect5454"
       is_visible="true"
       lpeversion="1" />
    <inkscape:path-effect
       effect="spiro"
       id="path-effect5446"
       is_visible="true"
       lpeversion="1" />
    <inkscape:path-effect
       effect="spiro"
       id="path-effect5407"
       is_visible="true"
       lpeversion="1" />
    <inkscape:path-effect
       effect="spiro"
       id="path-effect5403"
       is_visible="true"
       lpeversion="1" />
    <inkscape:path-effect
       effect="spiro"
       id="path-effect5234"
       is_visible="true"
       lpeversion="1" />
    <inkscape:path-effect
       effect="spiro"
       id="path-effect5178"
       is_visible="true"
       lpeversion="1" />
    <inkscape:path-effect
       effect="spiro"
       id="path-effect4981"
       is_visible="true"
       lpeversion="1" />
    <marker
       style="overflow:visible"
       id="Arrow1Mstart"
       refX="0"
       refY="0"
       orient="auto"
       inkscape:stockid="Arrow1Mstart"
       inkscape:isstock="true">
      <path
         transform="matrix(0.4,0,0,0.4,4,0)"
         style="fill:context-stroke;fill-rule:evenodd;stroke:context-stroke;stroke-width:1pt"
         d="M 0,0 5,-5 -12.5,0 5,5 Z"
         id="path2888" />
    </marker>
    <marker
       style="overflow:visible"
       id="Arrow1Mend"
       refX="0"
       refY="0"
       orient="auto"
       inkscape:stockid="Arrow1Mend"
       inkscape:isstock="true">
      <path
         transform="matrix(-0.4,0,0,-0.4,-4,0)"
         style="fill:context-stroke;fill-rule:evenodd;stroke:context-stroke;stroke-width:1pt"
         d="M 0,0 5,-5 -12.5,0 5,5 Z"
         id="path2891" />
    </marker>
    <marker
       style="overflow:visible"
       id="Arrow2Lend"
       refX="0"
       refY="0"
       orient="auto"
       inkscape:stockid="Arrow2Lend"
       inkscape:isstock="true">
      <path
         transform="matrix(-1.1,0,0,-1.1,-1.1,0)"
         d="M 8.7185878,4.0337352 -2.2072895,0.01601326 8.7185884,-4.0017078 c -1.7454984,2.3720609 -1.7354408,5.6174519 -6e-7,8.035443 z"
         style="fill:context-stroke;fill-rule:evenodd;stroke:context-stroke;stroke-width:0.625;stroke-linejoin:round"
         id="path2903" />
    </marker>
    <inkscape:path-effect
       effect="spiro"
       id="path-effect4818"
       is_visible="true"
       lpeversion="1" />
    <inkscape:path-effect
       effect="spiro"
       id="path-effect4814"
       is_visible="true"
       lpeversion="1" />
    <inkscape:path-effect
       effect="spiro"
       id="path-effect4810"
       is_visible="true"
       lpeversion="1" />
    <marker
       style="overflow:visible"
       id="Arrow1Lstart"
       refX="0"
       refY="0"
       orient="auto"
       inkscape:stockid="Arrow1Lstart"
       inkscape:isstock="true">
      <path
         transform="matrix(0.8,0,0,0.8,10,0)"
         style="fill:context-stroke;fill-rule:evenodd;stroke:context-stroke;stroke-width:1pt"
         d="M 0,0 5,-5 -12.5,0 5,5 Z"
         id="path2882" />
    </marker>
    <marker
       style="overflow:visible"
       id="marker4571"
       refX="0"
       refY="0"
       orient="auto"
       inkscape:stockid="Arrow1Lend"
       inkscape:isstock="true">
      <path
         transform="matrix(-0.8,0,0,-0.8,-10,0)"
         style="fill:context-stroke;fill-rule:evenodd;stroke:context-stroke;stroke-width:1pt"
         d="M 0,0 5,-5 -12.5,0 5,5 Z"
         id="path4569" />
    </marker>
    <marker
       style="overflow:visible"
       id="marker4561"
       refX="0"
       refY="0"
       orient="auto"
       inkscape:stockid="Arrow1Lend"
       inkscape:isstock="true">
      <path
         transform="matrix(-0.8,0,0,-0.8,-10,0)"
         style="fill:context-stroke;fill-rule:evenodd;stroke:context-stroke;stroke-width:1pt"
         d="M 0,0 5,-5 -12.5,0 5,5 Z"
         id="path4559" />
    </marker>
    <inkscape:path-effect
       effect="spiro"
       id="path-effect4497"
       is_visible="true"
       lpeversion="1" />
    <inkscape:path-effect
       effect="spiro"
       id="path-effect4487"
       is_visible="true"
       lpeversion="1" />
    <inkscape:path-effect
       effect="spiro"
       id="path-effect4317"
       is_visible="true"
       lpeversion="1" />
    <inkscape:path-effect
       effect="spiro"
       id="path-effect3479"
       is_visible="true"
       lpeversion="1" />
    <marker
       style="overflow:visible"
       id="Arrow1Lend"
       refX="0"
       refY="0"
       orient="auto"
       inkscape:stockid="Arrow1Lend"
       inkscape:isstock="true">
      <path
         transform="matrix(-0.8,0,0,-0.8,-10,0)"
         style="fill:context-stroke;fill-rule:evenodd;stroke:context-stroke;stroke-width:1pt"
         d="M 0,0 5,-5 -12.5,0 5,5 Z"
         id="path2885" />
    </marker>
    <inkscape:path-effect
       effect="spiro"
       id="path-effect2880"
       is_visible="true"
       lpeversion="1" />
    <inkscape:path-effect
       effect="spiro"
       id="path-effect1074"
       is_visible="true"
       lpeversion="1" />
    <inkscape:path-effect
       effect="spiro"
       id="path-effect858"
       is_visible="true"
       lpeversion="1" />
    <marker
       style="overflow:visible"
       id="Arrow1Mstart-4"
       refX="0"
       refY="0"
       orient="auto"
       inkscape:stockid="Arrow1Mstart"
       inkscape:isstock="true">
      <path
         transform="matrix(0.4,0,0,0.4,4,0)"
         style="fill:context-stroke;fill-rule:evenodd;stroke:context-stroke;stroke-width:1pt"
         d="M 0,0 5,-5 -12.5,0 5,5 Z"
         id="path2888-4" />
    </marker>
    <marker
       style="overflow:visible"
       id="Arrow1Mstart-4-0"
       refX="0"
       refY="0"
       orient="auto"
       inkscape:stockid="Arrow1Mstart"
       inkscape:isstock="true">
      <path
         transform="matrix(0.4,0,0,0.4,4,0)"
         style="fill:context-stroke;fill-rule:evenodd;stroke:context-stroke;stroke-width:1pt"
         d="M 0,0 5,-5 -12.5,0 5,5 Z"
         id="path2888-4-2" />
    </marker>
    <marker
       style="overflow:visible"
       id="Arrow1Mstart-4-0-9"
       refX="0"
       refY="0"
       orient="auto"
       inkscape:stockid="Arrow1Mstart"
       inkscape:isstock="true">
      <path
         transform="matrix(0.4,0,0,0.4,4,0)"
         style="fill:context-stroke;fill-rule:evenodd;stroke:context-stroke;stroke-width:1pt"
         d="M 0,0 5,-5 -12.5,0 5,5 Z"
         id="path2888-4-2-0" />
    </marker>
  </defs>
  <sodipodi:namedview
     id="base"
     pagecolor="#ffffff"
     bordercolor="#666666"
     borderopacity="1.0"
     inkscape:pageopacity="0.0"
     inkscape:pageshadow="2"
     inkscape:zoom="1.597727"
     inkscape:cx="591.46525"
     inkscape:cy="192.77386"
     inkscape:document-units="mm"
     inkscape:current-layer="layer1"
     showgrid="false"
     showborder="true"
     width="200mm"
     showguides="true"
     inkscape:guide-bbox="true"
     inkscape:window-width="985"
     inkscape:window-height="512"
     inkscape:window-x="0"
     inkscape:window-y="38"
     inkscape:window-maximized="0"
     inkscape:pagecheckerboard="0">
    <inkscape:grid
       type="xygrid"
       id="grid815"
       units="mm"
       spacingx="10"
       spacingy="10"
       empspacing="4"
       dotted="false" />
  </sodipodi:namedview>
  <metadata
     id="metadata5">
    <rdf:RDF>
      <cc:Work
         rdf:about="">
        <dc:format>image/svg+xml</dc:format>
        <dc:type
           rdf:resource="http://purl.org/dc/dcmitype/StillImage" />
      </cc:Work>
    </rdf:RDF>
  </metadata>
  <g
     inkscape:label="Layer 1"
     inkscape:groupmode="layer"
     id="layer1"
     transform="translate(0,-177)">
    <path
       style="fill:none;stroke:#000000;stroke-width:0.264583px;stroke-linecap:butt;stroke-linejoin:miter;stroke-opacity:1"
       d="M 163.77887,200.94433 H 222.6578"
       id="path1072"
       inkscape:path-effect="#path-effect1074"
       inkscape:original-d="m 163.77887,200.94433 c 19.62658,2.6e-4 39.25288,2.6e-4 58.87893,0" />
    <text
       xml:space="preserve"
       style="font-size:5.64444px;line-height:1.25;font-family:sans-serif;letter-spacing:0px;word-spacing:0px;stroke-width:0.264583"
       x="166.26439"
       y="207.71538"
       id="text2090"><tspan
         sodipodi:role="line"
         id="tspan2088"
         style="stroke-width:0.264583"
         x="166.26439"
         y="207.71538">\(a\)</tspan></text>
    <text
       xml:space="preserve"
       style="font-size:5.64444px;line-height:1.25;font-family:sans-serif;letter-spacing:0px;word-spacing:0px;stroke-width:0.264583"
       x="187.43108"
       y="207.71538"
       id="text2824"><tspan
         sodipodi:role="line"
         id="tspan2822"
         style="stroke-width:0.264583"
         x="187.43108"
         y="207.71538">\(a\)</tspan></text>
    <text
       xml:space="preserve"
       style="font-size:5.64444px;line-height:1.25;font-family:sans-serif;letter-spacing:0px;word-spacing:0px;stroke-width:0.264583"
       x="208.59776"
       y="207.71538"
       id="text2828"><tspan
         sodipodi:role="line"
         id="tspan2826"
         style="stroke-width:0.264583"
         x="208.59776"
         y="207.71538">\(a\)</tspan></text>
    <path
       style="fill:none;stroke:#000000;stroke-width:0.264583px;stroke-linecap:butt;stroke-linejoin:miter;stroke-opacity:1;marker-end:url(#Arrow1Lend)"
       d="m 169.23071,200.74262 c -0.91344,-0.56355 -1.66093,-1.39259 -2.12724,-2.3593 -0.4663,-0.96671 -0.64982,-2.06778 -0.52227,-3.13347 0.0653,-0.5458 0.21171,-1.0846 0.46124,-1.5744 0.24953,-0.48979 0.60431,-0.92973 1.04983,-1.25172 0.44552,-0.32199 0.98329,-0.52254 1.53274,-0.53918 0.54944,-0.0166 1.10797,0.15619 1.53297,0.50481 0.34913,0.28639 0.60007,0.68097 0.75693,1.10442 0.15686,0.42345 0.22345,0.8759 0.24424,1.32699 0.0529,1.14813 -0.19032,2.30868 -0.6998,3.33894 -0.50948,1.03027 -1.28411,1.92803 -2.22864,2.58291"
       id="path2878"
       inkscape:path-effect="#path-effect2880"
       inkscape:original-d="m 169.23071,200.74262 c -1.14446,1.9544 -1.93413,-3.68086 -2.64951,-5.49277 -0.71539,-1.81191 3.05145,-1.90673 4.57678,-2.86049 1.52533,-0.95376 0.66771,1.62121 1.00117,2.43141 0.33346,0.81021 -1.95202,3.94816 -2.92844,5.92185"
       sodipodi:nodetypes="csssc" />
    <path
       style="fill:none;stroke:#0000ff;stroke-width:0.264583px;stroke-linecap:butt;stroke-linejoin:miter;stroke-opacity:1;marker-end:url(#Arrow1Lend)"
       d="m 169.23071,200.74262 c -0.91344,-0.56355 -1.66093,-1.39259 -2.12724,-2.3593 -0.4663,-0.96671 -0.64982,-2.06778 -0.52227,-3.13347 0.0653,-0.5458 0.21171,-1.0846 0.46124,-1.5744 0.24953,-0.48979 0.60431,-0.92973 1.04983,-1.25172 0.44552,-0.32199 0.98329,-0.52254 1.53274,-0.53918 0.54944,-0.0166 1.10797,0.15619 1.53297,0.50481 0.34913,0.28639 0.60007,0.68097 0.75693,1.10442 0.15686,0.42345 0.22345,0.8759 0.24424,1.32699 0.0529,1.14813 -0.19032,2.30868 -0.6998,3.33894 -0.50948,1.03027 -1.28411,1.92803 -2.22864,2.58291"
       id="path3475"
       inkscape:path-effect="#path-effect3479"
       inkscape:original-d="m 169.23071,200.74262 c -1.14446,1.9544 -1.93413,-3.68086 -2.64951,-5.49277 -0.71539,-1.81191 3.05145,-1.90673 4.57678,-2.86049 1.52533,-0.95376 0.66771,1.62121 1.00117,2.43141 0.33346,0.81021 -1.95202,3.94816 -2.92844,5.92185"
       sodipodi:nodetypes="csssc" />
    <text
       xml:space="preserve"
       style="font-size:5.64444px;line-height:1.25;font-family:sans-serif;letter-spacing:0px;word-spacing:0px;stroke-width:0.264583"
       x="165.82068"
       y="190.52855"
       id="text3643"><tspan
         sodipodi:role="line"
         id="tspan3641"
         style="stroke-width:0.264583"
         x="165.82068"
         y="190.52855">\(b\)</tspan></text>
    <path
       style="fill:none;stroke:#0000ff;stroke-width:0.264583px;stroke-linecap:butt;stroke-linejoin:miter;stroke-opacity:1;marker-end:url(#Arrow1Lend)"
       d="m 190.39739,200.74262 c -0.91344,-0.56355 -1.66093,-1.39259 -2.12724,-2.3593 -0.4663,-0.96671 -0.64982,-2.06778 -0.52227,-3.13347 0.0653,-0.5458 0.21171,-1.0846 0.46124,-1.5744 0.24953,-0.48979 0.60431,-0.92973 1.04983,-1.25172 0.44552,-0.32199 0.98329,-0.52254 1.53274,-0.53918 0.54944,-0.0166 1.10797,0.15619 1.53297,0.50481 0.34913,0.28639 0.60007,0.68097 0.75693,1.10442 0.15686,0.42345 0.22345,0.8759 0.24424,1.32699 0.0529,1.14813 -0.19032,2.30868 -0.6998,3.33894 -0.50948,1.03027 -1.28411,1.92803 -2.22864,2.58291"
       id="path4483"
       inkscape:path-effect="#path-effect4487"
       inkscape:original-d="m 190.39739,200.74262 c -1.14446,1.9544 -1.93413,-3.68086 -2.64951,-5.49277 -0.71539,-1.81191 3.05145,-1.90673 4.57678,-2.86049 1.52533,-0.95376 0.66771,1.62121 1.00117,2.43141 0.33346,0.81021 -1.95202,3.94816 -2.92844,5.92185"
       sodipodi:nodetypes="csssc" />
    <text
       xml:space="preserve"
       style="font-size:5.64444px;line-height:1.25;font-family:sans-serif;letter-spacing:0px;word-spacing:0px;stroke-width:0.264583"
       x="186.98737"
       y="190.52855"
       id="text4491"><tspan
         sodipodi:role="line"
         id="tspan4489"
         style="stroke-width:0.264583"
         x="186.98737"
         y="190.52855">\(b\)</tspan></text>
    <path
       style="fill:none;stroke:#0000ff;stroke-width:0.264583px;stroke-linecap:butt;stroke-linejoin:miter;stroke-opacity:1;marker-end:url(#Arrow1Lend)"
       d="m 211.56407,200.74262 c -0.91344,-0.56355 -1.66093,-1.39259 -2.12724,-2.3593 -0.4663,-0.96671 -0.64982,-2.06778 -0.52227,-3.13347 0.0653,-0.5458 0.21171,-1.0846 0.46124,-1.5744 0.24953,-0.48979 0.60431,-0.92973 1.04983,-1.25172 0.44552,-0.32199 0.98329,-0.52254 1.53274,-0.53918 0.54944,-0.0166 1.10797,0.15619 1.53297,0.50481 0.34913,0.28639 0.60007,0.68097 0.75693,1.10442 0.15686,0.42345 0.22345,0.8759 0.24424,1.32699 0.0529,1.14813 -0.19032,2.30868 -0.6998,3.33894 -0.50948,1.03027 -1.28411,1.92803 -2.22864,2.58291"
       id="path4493"
       inkscape:path-effect="#path-effect4497"
       inkscape:original-d="m 211.56407,200.74262 c -1.14446,1.9544 -1.93413,-3.68086 -2.64951,-5.49277 -0.71539,-1.81191 3.05145,-1.90673 4.57678,-2.86049 1.52533,-0.95376 0.66771,1.62121 1.00117,2.43141 0.33346,0.81021 -1.95202,3.94816 -2.92844,5.92185"
       sodipodi:nodetypes="csssc" />
    <text
       xml:space="preserve"
       style="font-size:5.64444px;line-height:1.25;font-family:sans-serif;letter-spacing:0px;word-spacing:0px;stroke-width:0.264583"
       x="208.15405"
       y="190.52855"
       id="text4501"><tspan
         sodipodi:role="line"
         id="tspan4499"
         style="stroke-width:0.264583"
         x="208.15405"
         y="190.52855">\(b\)</tspan></text>
    <path
       style="font-variation-settings:normal;opacity:0.99;vector-effect:none;fill:none;fill-opacity:1;fill-rule:evenodd;stroke:#fe0000;stroke-width:0.264567;stroke-linecap:butt;stroke-linejoin:round;stroke-miterlimit:4;stroke-dasharray:none;stroke-dashoffset:0;stroke-opacity:1;-inkscape-stroke:none;marker-start:url(#Arrow1Lstart);stop-color:#000000;stop-opacity:1"
       id="path4557"
       sodipodi:type="arc"
       sodipodi:cx="120.34422"
       sodipodi:cy="196.96808"
       sodipodi:rx="14.423855"
       sodipodi:ry="14.423855"
       sodipodi:start="6.1848709"
       sodipodi:end="6.1778721"
       sodipodi:open="true"
       sodipodi:arc-type="arc"
       d="m 134.69843,195.55229 a 14.423855,14.423855 0 0 1 -12.9133,15.76749 14.423855,14.423855 0 0 1 -15.79007,-12.88569 14.423855,14.423855 0 0 1 12.85805,-15.81258 14.423855,14.423855 0 0 1 15.83506,12.83035" />
    <path
       style="font-variation-settings:normal;opacity:0.99;vector-effect:none;fill:#000000;fill-opacity:1;fill-rule:evenodd;stroke:none;stroke-width:0.264567;stroke-linecap:butt;stroke-linejoin:round;stroke-miterlimit:4;stroke-dasharray:none;stroke-dashoffset:0;stroke-opacity:1;-inkscape-stroke:none;stop-color:#000000;stop-opacity:1"
       id="path4609"
       sodipodi:type="arc"
       sodipodi:cx="124.41183"
       sodipodi:cy="183.08276"
       sodipodi:rx="0.47095066"
       sodipodi:ry="0.47095066"
       sodipodi:start="6.1848709"
       sodipodi:end="6.1778721"
       sodipodi:open="true"
       sodipodi:arc-type="arc"
       d="m 124.8805,183.03654 a 0.47095066,0.47095066 0 0 1 -0.42163,0.51482 0.47095066,0.47095066 0 0 1 -0.51555,-0.42073 0.47095066,0.47095066 0 0 1 0.41982,-0.51629 0.47095066,0.47095066 0 0 1 0.51703,0.41892" />
    <path
       style="font-variation-settings:normal;opacity:0.99;vector-effect:none;fill:#000000;fill-opacity:1;fill-rule:evenodd;stroke:none;stroke-width:0.264567;stroke-linecap:butt;stroke-linejoin:round;stroke-miterlimit:4;stroke-dasharray:none;stroke-dashoffset:0;stroke-opacity:1;-inkscape-stroke:none;stop-color:#000000;stop-opacity:1"
       id="path4609-1"
       sodipodi:type="arc"
       sodipodi:cx="107.09016"
       sodipodi:cy="203.05566"
       sodipodi:rx="0.47095066"
       sodipodi:ry="0.47095066"
       sodipodi:start="6.1848709"
       sodipodi:end="6.1778721"
       sodipodi:open="true"
       sodipodi:arc-type="arc"
       d="m 107.55883,203.00944 a 0.47095066,0.47095066 0 0 1 -0.42163,0.51482 0.47095066,0.47095066 0 0 1 -0.51556,-0.42073 0.47095066,0.47095066 0 0 1 0.41983,-0.51629 0.47095066,0.47095066 0 0 1 0.51703,0.41892" />
    <path
       style="font-variation-settings:normal;opacity:0.99;vector-effect:none;fill:#000000;fill-opacity:1;fill-rule:evenodd;stroke:none;stroke-width:0.264567;stroke-linecap:butt;stroke-linejoin:round;stroke-miterlimit:4;stroke-dasharray:none;stroke-dashoffset:0;stroke-opacity:1;-inkscape-stroke:none;stop-color:#000000;stop-opacity:1"
       id="path4609-0"
       sodipodi:type="arc"
       sodipodi:cx="131.04761"
       sodipodi:cy="206.79825"
       sodipodi:rx="0.47095066"
       sodipodi:ry="0.47095066"
       sodipodi:start="6.1848709"
       sodipodi:end="6.1778721"
       sodipodi:open="true"
       sodipodi:arc-type="arc"
       d="m 131.51628,206.75202 a 0.47095066,0.47095066 0 0 1 -0.42163,0.51482 0.47095066,0.47095066 0 0 1 -0.51555,-0.42073 0.47095066,0.47095066 0 0 1 0.41982,-0.51629 0.47095066,0.47095066 0 0 1 0.51703,0.41892" />
    <text
       xml:space="preserve"
       style="font-size:5.64444px;line-height:1.25;font-family:sans-serif;letter-spacing:0px;word-spacing:0px;stroke-width:0.264583"
       x="15.169929"
       y="208.87724"
       id="text5896"><tspan
         sodipodi:role="line"
         id="tspan5894"
         style="stroke-width:0.264583"
         x="15.169929"
         y="208.87724">\(b\)</tspan></text>
    <text
       xml:space="preserve"
       style="font-size:5.64444px;line-height:1.25;font-family:sans-serif;letter-spacing:0px;word-spacing:0px;stroke-width:0.264583"
       x="154.28203"
       y="242.22844"
       id="text5896-8"><tspan
         sodipodi:role="line"
         id="tspan5894-4"
         style="stroke-width:0.264583"
         x="154.28203"
         y="242.22844">\(b\)</tspan></text>
    <text
       xml:space="preserve"
       style="font-size:5.64444px;line-height:1.25;font-family:sans-serif;letter-spacing:0px;word-spacing:0px;stroke-width:0.264583"
       x="77.028572"
       y="203.88066"
       id="text6334"><tspan
         sodipodi:role="line"
         id="tspan6332"
         style="stroke-width:0.264583"
         x="77.028572"
         y="203.88066">\(b\)</tspan></text>
    <text
       xml:space="preserve"
       style="font-size:5.64444px;line-height:1.25;font-family:sans-serif;letter-spacing:0px;word-spacing:0px;stroke-width:0.264583"
       x="48.299294"
       y="205.9445"
       id="text7502"><tspan
         sodipodi:role="line"
         id="tspan7500"
         style="stroke-width:0.264583"
         x="48.299294"
         y="205.9445">\(a\)</tspan></text>
    <text
       xml:space="preserve"
       style="font-size:5.64444px;line-height:1.25;font-family:sans-serif;letter-spacing:0px;word-spacing:0px;stroke-width:0.264583"
       x="122.1259"
       y="244.81172"
       id="text7502-0"><tspan
         sodipodi:role="line"
         id="tspan7500-0"
         style="stroke-width:0.264583"
         x="122.1259"
         y="244.81172">\(a\)</tspan></text>
    <path
       style="fill:none;stroke:#000000;stroke-width:0.264583;stroke-linecap:butt;stroke-linejoin:miter;stroke-miterlimit:4;stroke-dasharray:1.05833, 1.05833;stroke-dashoffset:0;stroke-opacity:1"
       d="m 222.6578,200.94433 h 16.14704"
       id="path1046"
       inkscape:path-effect="#path-effect1048"
       inkscape:original-d="m 222.6578,200.94433 c 5.38261,2.6e-4 10.76496,2.6e-4 16.14704,0" />
    <path
       style="fill:none;stroke:#000000;stroke-width:0.264583;stroke-linecap:butt;stroke-linejoin:miter;stroke-miterlimit:4;stroke-dasharray:1.05833, 1.05833;stroke-dashoffset:0;stroke-opacity:1"
       d="m 147.63183,200.94433 h 16.14704"
       id="path1046-0"
       inkscape:path-effect="#path-effect1168"
       inkscape:original-d="m 147.63183,200.94433 c 5.38261,2.6e-4 10.76496,2.6e-4 16.14704,0" />
    <path
       style="fill:none;stroke:#0000ff;stroke-width:0.265;stroke-linecap:butt;stroke-linejoin:miter;stroke-miterlimit:4;stroke-dasharray:none;stroke-opacity:1;marker-mid:url(#Arrow1Mstart)"
       d="m 130.98711,206.75202 c -2.5664,-2.85693 -4.52989,-6.25292 -5.7254,-9.90247 -1.44056,-4.39761 -1.75685,-9.15847 -0.9107,-13.708"
       id="path3377"
       inkscape:path-effect="#path-effect3379"
       inkscape:original-d="m 130.98711,206.75202 c -3.28115,-3.49909 -2.44372,-6.40285 -5.7254,-9.90247 -3.28167,-3.49962 -0.4097,-9.13949 -0.9107,-13.708"
       sodipodi:nodetypes="csc" />
    <path
       style="fill:none;stroke:#0000ff;stroke-width:0.264583px;stroke-linecap:butt;stroke-linejoin:miter;stroke-opacity:1;marker-mid:url(#Arrow1Mend)"
       d="m 130.98711,206.75202 c -3.33196,-2.76245 -7.43422,-4.58574 -11.71743,-5.20795 -4.11375,-0.59759 -8.38309,-0.0876 -12.24035,1.46209"
       id="path3560"
       inkscape:path-effect="#path-effect3562"
       inkscape:original-d="m 130.98711,206.75202 c -3.98227,-1.93504 -7.73463,-3.27237 -11.71743,-5.20795 -3.9828,-1.93557 -8.2368,0.77457 -12.24035,1.46209"
       sodipodi:nodetypes="csc" />
    <path
       style="fill:none;stroke:#0000ff;stroke-width:0.264583px;stroke-linecap:butt;stroke-linejoin:miter;stroke-opacity:1;marker-mid:url(#Arrow1Mend)"
       d="m 107.02933,203.00616 c 4.46546,-1.52854 8.5044,-4.28313 11.55762,-7.88239 2.89848,-3.41685 4.90357,-7.58499 5.76406,-11.98222"
       id="path4804"
       inkscape:path-effect="#path-effect4806"
       inkscape:original-d="m 107.02933,203.00616 c 2.82935,-2.74167 8.7288,-5.1402 11.55762,-7.88239 2.82882,-2.7422 4.38963,-7.90491 5.76406,-11.98222"
       sodipodi:nodetypes="csc" />
    <path
       style="fill:none;stroke:#0000ff;stroke-width:0.264583px;stroke-linecap:butt;stroke-linejoin:miter;stroke-opacity:1;marker-mid:url(#Arrow1Mstart)"
       d="m 57.605744,194.21105 c 3.331898,-3.2605 7.632942,-5.51806 12.208954,-6.40831 1.930548,-0.37558 3.994517,-0.4996 5.806751,0.26453 0.906117,0.38206 1.728321,0.98799 2.29736,1.79 0.56904,0.802 0.872078,1.80512 0.763807,2.78251 -0.07973,0.71975 -0.37776,1.40804 -0.813288,1.98658 -0.435528,0.57853 -1.00522,1.04962 -1.63397,1.40888 -1.2575,0.71851 -2.721209,0.98598 -4.163372,1.11912 -4.970751,0.45891 -10.069991,-0.57858 -14.466242,-2.94331"
       id="path7080"
       inkscape:path-effect="#path-effect7082"
       inkscape:original-d="m 57.605744,194.21105 c 4.069916,-2.13584 8.139568,-4.27194 12.208954,-6.40831 4.069387,-2.13637 5.91221,3.22496 8.867918,4.83704 2.955708,1.61209 -4.40682,3.00998 -6.61063,4.51458 -2.203807,1.50459 -9.643896,-1.96194 -14.466242,-2.94331" />
    <path
       style="fill:none;stroke:#0000ff;stroke-width:0.264583px;stroke-linecap:butt;stroke-linejoin:miter;stroke-opacity:1;marker-mid:url(#Arrow1Mstart)"
       d="m 30.119185,195.93977 c -2.457235,-2.62633 -5.497082,-4.70456 -8.836182,-6.04098 -2.323227,-0.92983 -4.912986,-1.50212 -7.325855,-0.83877 -1.206435,0.33167 -2.339263,0.97835 -3.164077,1.91919 -0.8248135,0.94083 -1.3241081,2.18373 -1.2802136,3.43416 0.043798,1.24767 0.6199556,2.44101 1.4559676,3.3682 0.836011,0.9272 1.918331,1.60548 3.058609,2.11378 2.715635,1.21055 5.836443,1.4895 8.723722,0.77977 2.887279,-0.70974 5.523104,-2.40375 7.368029,-4.73535"
       id="path7084"
       inkscape:path-effect="#path-effect7086"
       inkscape:original-d="m 30.119185,195.93977 c -2.94513,-2.0134 -5.890524,-4.02706 -8.836182,-6.04098 -2.945658,-2.01392 -7.846499,3.00998 -11.7701456,4.51458 -3.9236465,1.50459 3.0099826,3.65492 4.5145766,5.48198 1.504594,1.82707 10.728098,-2.63679 16.091751,-3.95558" />
    <path
       style="fill:none;stroke:#0000e9;stroke-width:0.265;stroke-linecap:butt;stroke-linejoin:miter;stroke-opacity:1;stroke-miterlimit:4;stroke-dasharray:none;marker-mid:url(#Arrow1Mend)"
       d="m 134.19753,232.72835 c 1.26552,-1.73463 2.71006,-3.33859 4.30323,-4.77813 1.48353,-1.34047 3.1063,-2.54475 4.90609,-3.41567 1.79979,-0.87091 3.78555,-1.40102 5.78464,-1.36405 1.99909,0.037 4.00989,0.66373 5.57368,1.90963 1.56379,1.24591 2.64393,3.1314 2.7613,5.12738 0.1134,1.92861 -0.66917,3.85255 -1.94037,5.30736 -1.27119,1.45481 -2.99936,2.46392 -4.8315,3.07685 -2.99065,1.0005 -6.31526,0.9714 -9.28794,-0.0813 -2.97267,-1.05272 -5.57465,-3.1224 -7.26913,-5.78205"
       id="path7425"
       inkscape:path-effect="#path-effect7427"
       inkscape:original-d="m 134.19753,232.72835 c 2.29459,3.7283 -0.62672,0.15171 4.30323,-4.77813 4.21879,-4.21869 18.21979,-5.58921 19.02571,2.25729 0.33236,3.23591 -4.51431,5.58974 -6.77187,8.38421 -2.25755,2.79447 -11.03778,-3.90865 -16.55707,-5.86337"
       sodipodi:nodetypes="csssc" />
    <path
       style="fill:none;stroke:#ff0000;stroke-width:0.264583px;stroke-linecap:butt;stroke-linejoin:miter;stroke-opacity:1;marker-mid:url(#Arrow1Mstart-4)"
       d="m 134.19753,232.72837 c -2.70247,-3.08876 -6.66036,-5.04547 -10.75546,-5.31731 -1.26842,-0.0842 -2.56652,-0.009 -3.76359,0.41836 -1.19706,0.42782 -2.28958,1.23696 -2.88305,2.36114 -0.64835,1.22813 -0.64335,2.74169 -0.14715,4.03879 0.4962,1.29709 1.44688,2.38719 2.56411,3.21209 2.45225,1.81061 5.78285,2.36739 8.69068,1.45283 2.90782,-0.91455 5.3201,-3.27756 6.29446,-6.1659"
       id="path5176"
       inkscape:path-effect="#path-effect5178"
       inkscape:original-d="m 134.19753,232.72837 c -3.58489,-1.77217 -7.17005,-3.54461 -10.75546,-5.31731 -3.58542,-1.7727 -4.43083,1.85326 -6.64664,2.7795 -2.21581,0.92624 1.61157,4.83418 2.41696,7.25088 0.80539,2.41669 10.95714,-3.70574 14.98514,-4.71307"
       sodipodi:nodetypes="csssc" />
    <path
       style="fill:none;stroke:#ff0000;stroke-width:0.264583px;stroke-linecap:butt;stroke-linejoin:miter;stroke-opacity:1;marker-mid:url(#Arrow1Mstart-4-0)"
       d="m 57.605744,194.21105 c -1.975148,-3.6921 -5.557423,-6.48741 -9.618907,-7.50581 -4.716482,-1.18264 -9.971506,0.0921 -13.646225,3.27649 -1.85726,1.60944 -3.318799,3.67222 -4.221427,5.95804"
       id="path5176-4"
       inkscape:path-effect="#path-effect1372"
       inkscape:original-d="m 57.605744,194.21105 c -3.35145,-3.79275 -1.483899,-10.52291 -9.618907,-7.50581 -2.21581,0.92624 -14.451615,0.85979 -13.646225,3.27649 0.80539,2.41669 -8.249427,6.96537 -4.221427,5.95804"
       sodipodi:nodetypes="ccsc" />
    <path
       style="fill:none;stroke:#ff0000;stroke-width:0.265;stroke-linecap:butt;stroke-linejoin:miter;stroke-miterlimit:4;stroke-dasharray:none;stroke-opacity:1;marker-mid:url(#marker2439)"
       d="m 57.605744,194.21105 c -1.825872,2.89379 -4.603942,5.17565 -7.797309,6.40458 -4.702868,1.80984 -10.153958,1.26643 -14.639824,-1.02911 -1.855443,-0.94948 -3.564719,-2.18394 -5.049426,-3.64675"
       id="path5176-4-2"
       inkscape:path-effect="#path-effect2112"
       inkscape:original-d="m 57.605744,194.21105 c -3.35145,-3.79275 0.337699,3.38748 -7.797309,6.40458 -2.21581,0.92624 -15.445214,-3.44581 -14.639824,-1.02911 0.80539,2.41669 -9.077426,-2.63942 -5.049426,-3.64675"
       sodipodi:nodetypes="ccsc" />
  </g>
</svg>
