<?xml version="1.0" encoding="UTF-8" standalone="no"?>
<!-- Created with Inkscape (http://www.inkscape.org/) -->

<svg
   width="240mm"
   height="30mm"
   viewBox="0 0 240 30"
   version="1.1"
   id="svg8"
   inkscape:version="1.1.1 (c3084ef, 2021-09-22)"
   sodipodi:docname="eg:lec17:regular.svg"
   xmlns:inkscape="http://www.inkscape.org/namespaces/inkscape"
   xmlns:sodipodi="http://sodipodi.sourceforge.net/DTD/sodipodi-0.dtd"
   xmlns="http://www.w3.org/2000/svg"
   xmlns:svg="http://www.w3.org/2000/svg"
   xmlns:rdf="http://www.w3.org/1999/02/22-rdf-syntax-ns#"
   xmlns:cc="http://creativecommons.org/ns#"
   xmlns:dc="http://purl.org/dc/elements/1.1/">
  <defs
     id="defs2">
    <marker
       style="overflow:visible"
       id="Arrow1Lstart"
       refX="0"
       refY="0"
       orient="auto"
       inkscape:stockid="Arrow1Lstart"
       inkscape:isstock="true">
      <path
         transform="matrix(0.8,0,0,0.8,10,0)"
         style="fill:context-stroke;fill-rule:evenodd;stroke:context-stroke;stroke-width:1pt"
         d="M 0,0 5,-5 -12.5,0 5,5 Z"
         id="path1843" />
    </marker>
    <inkscape:path-effect
       effect="spiro"
       id="path-effect1524"
       is_visible="true"
       lpeversion="1" />
    <inkscape:path-effect
       effect="spiro"
       id="path-effect1520"
       is_visible="true"
       lpeversion="1" />
    <inkscape:path-effect
       effect="spiro"
       id="path-effect1430"
       is_visible="true"
       lpeversion="1" />
    <inkscape:path-effect
       effect="spiro"
       id="path-effect1274"
       is_visible="true"
       lpeversion="1" />
    <inkscape:path-effect
       effect="spiro"
       id="path-effect1270"
       is_visible="true"
       lpeversion="1" />
    <inkscape:path-effect
       effect="spiro"
       id="path-effect1266"
       is_visible="true"
       lpeversion="1" />
    <inkscape:path-effect
       effect="spiro"
       id="path-effect1262"
       is_visible="true"
       lpeversion="1" />
    <marker
       style="overflow:visible"
       id="Arrow1Mstart"
       refX="0"
       refY="0"
       orient="auto"
       inkscape:stockid="Arrow1Mstart"
       inkscape:isstock="true">
      <path
         transform="matrix(0.4,0,0,0.4,4,0)"
         style="fill:context-stroke;fill-rule:evenodd;stroke:context-stroke;stroke-width:1pt"
         d="M 0,0 5,-5 -12.5,0 5,5 Z"
         id="path2888" />
    </marker>
    <inkscape:path-effect
       effect="spiro"
       id="path-effect7082"
       is_visible="true"
       lpeversion="1" />
    <marker
       style="overflow:visible"
       id="marker1062"
       refX="0"
       refY="0"
       orient="auto"
       inkscape:stockid="Arrow1Mstart"
       inkscape:isstock="true">
      <path
         transform="matrix(0.4,0,0,0.4,4,0)"
         style="fill:context-stroke;fill-rule:evenodd;stroke:context-stroke;stroke-width:1pt"
         d="M 0,0 5,-5 -12.5,0 5,5 Z"
         id="path1060" />
    </marker>
    <inkscape:path-effect
       effect="spiro"
       id="path-effect7086"
       is_visible="true"
       lpeversion="1" />
    <marker
       style="overflow:visible"
       id="Arrow1Mstart-4-0"
       refX="0"
       refY="0"
       orient="auto"
       inkscape:stockid="Arrow1Mstart"
       inkscape:isstock="true">
      <path
         transform="matrix(0.4,0,0,0.4,4,0)"
         style="fill:context-stroke;fill-rule:evenodd;stroke:context-stroke;stroke-width:1pt"
         d="M 0,0 5,-5 -12.5,0 5,5 Z"
         id="path2888-4-2" />
    </marker>
    <inkscape:path-effect
       effect="spiro"
       id="path-effect1372"
       is_visible="true"
       lpeversion="1" />
    <marker
       style="overflow:visible"
       id="marker2439"
       refX="0"
       refY="0"
       orient="auto"
       inkscape:stockid="Arrow1Mend"
       inkscape:isstock="true">
      <path
         transform="matrix(-0.4,0,0,-0.4,-4,0)"
         style="fill:context-stroke;fill-rule:evenodd;stroke:context-stroke;stroke-width:1pt"
         d="M 0,0 5,-5 -12.5,0 5,5 Z"
         id="path2185" />
    </marker>
    <inkscape:path-effect
       effect="spiro"
       id="path-effect2112"
       is_visible="true"
       lpeversion="1" />
    <marker
       style="overflow:visible"
       id="Arrow1Mstart-2"
       refX="0"
       refY="0"
       orient="auto"
       inkscape:stockid="Arrow1Mstart"
       inkscape:isstock="true">
      <path
         transform="matrix(0.4,0,0,0.4,4,0)"
         style="fill:context-stroke;fill-rule:evenodd;stroke:context-stroke;stroke-width:1pt"
         d="M 0,0 5,-5 -12.5,0 5,5 Z"
         id="path2888-4" />
    </marker>
    <marker
       style="overflow:visible"
       id="marker1132"
       refX="0"
       refY="0"
       orient="auto"
       inkscape:stockid="Arrow1Mstart"
       inkscape:isstock="true">
      <path
         transform="matrix(0.4,0,0,0.4,4,0)"
         style="fill:context-stroke;fill-rule:evenodd;stroke:context-stroke;stroke-width:1pt"
         d="M 0,0 5,-5 -12.5,0 5,5 Z"
         id="path1130" />
    </marker>
    <marker
       style="overflow:visible"
       id="Arrow1Mstart-4-0-8"
       refX="0"
       refY="0"
       orient="auto"
       inkscape:stockid="Arrow1Mstart"
       inkscape:isstock="true">
      <path
         transform="matrix(0.4,0,0,0.4,4,0)"
         style="fill:context-stroke;fill-rule:evenodd;stroke:context-stroke;stroke-width:1pt"
         d="M 0,0 5,-5 -12.5,0 5,5 Z"
         id="path2888-4-2-3" />
    </marker>
    <marker
       style="overflow:visible"
       id="marker2439-9"
       refX="0"
       refY="0"
       orient="auto"
       inkscape:stockid="Arrow1Mend"
       inkscape:isstock="true">
      <path
         transform="matrix(-0.4,0,0,-0.4,-4,0)"
         style="fill:context-stroke;fill-rule:evenodd;stroke:context-stroke;stroke-width:1pt"
         d="M 0,0 5,-5 -12.5,0 5,5 Z"
         id="path2185-0" />
    </marker>
    <marker
       style="overflow:visible"
       id="marker2439-97"
       refX="0"
       refY="0"
       orient="auto"
       inkscape:stockid="Arrow1Mend"
       inkscape:isstock="true">
      <path
         transform="matrix(-0.4,0,0,-0.4,-4,0)"
         style="fill:context-stroke;fill-rule:evenodd;stroke:context-stroke;stroke-width:1pt"
         d="M 0,0 5,-5 -12.5,0 5,5 Z"
         id="path2185-03" />
    </marker>
    <marker
       style="overflow:visible"
       id="Arrow1Mstart-4-0-8-8"
       refX="0"
       refY="0"
       orient="auto"
       inkscape:stockid="Arrow1Mstart"
       inkscape:isstock="true">
      <path
         transform="matrix(0.4,0,0,0.4,4,0)"
         style="fill:context-stroke;fill-rule:evenodd;stroke:context-stroke;stroke-width:1pt"
         d="M 0,0 5,-5 -12.5,0 5,5 Z"
         id="path2888-4-2-3-6" />
    </marker>
    <marker
       style="overflow:visible"
       id="marker2439-9-5"
       refX="0"
       refY="0"
       orient="auto"
       inkscape:stockid="Arrow1Mend"
       inkscape:isstock="true">
      <path
         transform="matrix(-0.4,0,0,-0.4,-4,0)"
         style="fill:context-stroke;fill-rule:evenodd;stroke:context-stroke;stroke-width:1pt"
         d="M 0,0 5,-5 -12.5,0 5,5 Z"
         id="path2185-0-7" />
    </marker>
    <marker
       style="overflow:visible"
       id="marker2439-9-9"
       refX="0"
       refY="0"
       orient="auto"
       inkscape:stockid="Arrow1Mend"
       inkscape:isstock="true">
      <path
         transform="matrix(-0.4,0,0,-0.4,-4,0)"
         style="fill:context-stroke;fill-rule:evenodd;stroke:context-stroke;stroke-width:1pt"
         d="M 0,0 5,-5 -12.5,0 5,5 Z"
         id="path2185-0-4" />
    </marker>
    <marker
       style="overflow:visible"
       id="marker2439-3"
       refX="0"
       refY="0"
       orient="auto"
       inkscape:stockid="Arrow1Mend"
       inkscape:isstock="true">
      <path
         transform="matrix(-0.4,0,0,-0.4,-4,0)"
         style="fill:context-stroke;fill-rule:evenodd;stroke:context-stroke;stroke-width:1pt"
         d="M 0,0 5,-5 -12.5,0 5,5 Z"
         id="path2185-9" />
    </marker>
  </defs>
  <sodipodi:namedview
     id="base"
     pagecolor="#ffffff"
     bordercolor="#666666"
     borderopacity="1.0"
     inkscape:pageopacity="0.0"
     inkscape:pageshadow="2"
     inkscape:zoom="1.1508493"
     inkscape:cx="516.57502"
     inkscape:cy="46.921869"
     inkscape:document-units="mm"
     inkscape:current-layer="layer1"
     showgrid="false"
     showborder="true"
     width="200mm"
     showguides="true"
     inkscape:guide-bbox="true"
     inkscape:window-width="1280"
     inkscape:window-height="680"
     inkscape:window-x="1728"
     inkscape:window-y="25"
     inkscape:window-maximized="0"
     inkscape:pagecheckerboard="0">
    <inkscape:grid
       type="xygrid"
       id="grid815"
       units="mm"
       spacingx="10"
       spacingy="10"
       empspacing="4"
       dotted="false" />
  </sodipodi:namedview>
  <metadata
     id="metadata5">
    <rdf:RDF>
      <cc:Work
         rdf:about="">
        <dc:format>image/svg+xml</dc:format>
        <dc:type
           rdf:resource="http://purl.org/dc/dcmitype/StillImage" />
      </cc:Work>
    </rdf:RDF>
  </metadata>
  <g
     inkscape:label="Layer 1"
     inkscape:groupmode="layer"
     id="layer1"
     transform="translate(0,-177)">
    <path
       style="fill:none;stroke:#ff7e00;stroke-width:0.264583px;stroke-linecap:butt;stroke-linejoin:miter;stroke-opacity:1;marker-mid:url(#marker2439-9)"
       d="m 178.4918,191.19521 c -1.97515,-3.6921 -5.55743,-6.48741 -9.61891,-7.50581 -4.71648,-1.18263 -9.9715,0.0921 -13.64622,3.27649 -1.85726,1.60943 -3.3188,3.67222 -4.22143,5.95804"
       id="path5176-4-27"
       inkscape:path-effect="#path-effect1270"
       inkscape:original-d="m 178.4918,191.19521 c -3.35145,-3.79275 -1.4839,-10.52291 -9.61891,-7.50581 -2.21581,0.92624 -14.45161,0.85979 -13.64622,3.27649 0.80539,2.41669 -8.24943,6.96537 -4.22143,5.95804"
       sodipodi:nodetypes="ccsc" />
    <path
       style="fill:none;stroke:#ff7e00;stroke-width:0.265;stroke-linecap:butt;stroke-linejoin:miter;stroke-miterlimit:4;stroke-dasharray:none;stroke-opacity:1;marker-mid:url(#Arrow1Mstart-4-0-8)"
       d="m 178.4918,191.19521 c -1.82587,2.89379 -4.60394,5.17565 -7.79731,6.40458 -4.70287,1.80984 -10.15395,1.26642 -14.63982,-1.02911 -1.85544,-0.94948 -3.56472,-2.18394 -5.04943,-3.64675"
       id="path5176-4-2-3"
       inkscape:path-effect="#path-effect1274"
       inkscape:original-d="m 178.4918,191.19521 c -3.35145,-3.79275 0.3377,3.38748 -7.79731,6.40458 -2.21581,0.92624 -15.44521,-3.44581 -14.63982,-1.02911 0.80539,2.41669 -9.07743,-2.63942 -5.04943,-3.64675"
       sodipodi:nodetypes="ccsc" />
    <path
       style="fill:none;stroke:#f96afd;stroke-width:0.264583px;stroke-linecap:butt;stroke-linejoin:miter;stroke-opacity:1;marker-mid:url(#marker2439-9-9)"
       d="m 151.35289,192.95048 c -2.45723,-2.62633 -5.49708,-4.70456 -8.83618,-6.04098 -2.32323,-0.92983 -4.91299,-1.50212 -7.32586,-0.83878 -1.20643,0.33168 -2.33926,0.97836 -3.16408,1.9192 -0.82481,0.94083 -1.3241,2.18373 -1.28021,3.43416 0.0438,1.24767 0.61996,2.44101 1.45597,3.3682 0.83601,0.9272 1.91833,1.60548 3.05861,2.11378 2.71564,1.21055 5.83644,1.4895 8.72372,0.77977 2.88728,-0.70974 5.5231,-2.40375 7.36803,-4.73535"
       id="path7084-2"
       inkscape:path-effect="#path-effect1266"
       inkscape:original-d="m 151.35289,192.95048 c -2.94513,-2.0134 -5.89052,-4.02706 -8.83618,-6.04098 -2.94566,-2.01392 -7.8465,3.00998 -11.77015,4.51458 -3.92364,1.50459 3.00999,3.65492 4.51458,5.48198 1.5046,1.82707 10.7281,-2.63679 16.09175,-3.95558" />
    <path
       style="fill:none;stroke:#f96afd;stroke-width:0.264583px;stroke-linecap:butt;stroke-linejoin:miter;stroke-opacity:1;marker-mid:url(#marker2439)"
       d="m 205.97836,189.46649 c -1.97515,-3.6921 -5.55743,-6.48741 -9.61891,-7.50581 -4.71648,-1.18263 -9.9715,0.0921 -13.64622,3.27649 -1.85726,1.60943 -3.3188,3.67222 -4.22143,5.95804"
       id="path5176-4-27-6"
       inkscape:path-effect="#path-effect1520"
       inkscape:original-d="m 205.97836,189.46649 c -3.35145,-3.79275 -1.4839,-10.52291 -9.61891,-7.50581 -2.21581,0.92624 -14.45161,0.85979 -13.64622,3.27649 0.80539,2.41669 -8.24943,6.96537 -4.22143,5.95804"
       sodipodi:nodetypes="ccsc" />
    <path
       style="fill:none;stroke:#f96afd;stroke-width:0.265;stroke-linecap:butt;stroke-linejoin:miter;stroke-miterlimit:4;stroke-dasharray:none;stroke-opacity:1;marker-mid:url(#Arrow1Mstart-4-0-8-8)"
       d="m 205.97836,189.46649 c -1.82587,2.89379 -4.60394,5.17565 -7.79731,6.40458 -4.70287,1.80984 -10.15395,1.26642 -14.63982,-1.02911 -1.85544,-0.94948 -3.56472,-2.18394 -5.04943,-3.64675"
       id="path5176-4-2-3-2"
       inkscape:path-effect="#path-effect1524"
       inkscape:original-d="m 205.97836,189.46649 c -3.35145,-3.79275 0.3377,3.38748 -7.79731,6.40458 -2.21581,0.92624 -15.44521,-3.44581 -14.63982,-1.02911 0.80539,2.41669 -9.07743,-2.63942 -5.04943,-3.64675"
       sodipodi:nodetypes="ccsc" />
    <path
       style="fill:none;stroke:#f96afd;stroke-width:0.264583px;stroke-linecap:butt;stroke-linejoin:miter;stroke-opacity:1;marker-mid:url(#marker2439)"
       d="m 72.11804,190.99245 c 3.331898,-3.2605 7.632942,-5.51806 12.208954,-6.40831 1.930548,-0.37558 3.994517,-0.4996 5.806751,0.26453 0.906117,0.38206 1.728321,0.98799 2.29736,1.79 0.56904,0.802 0.872078,1.80512 0.763807,2.78251 -0.07973,0.71975 -0.37776,1.40804 -0.813288,1.98658 -0.435528,0.57853 -1.00522,1.04962 -1.63397,1.40888 -1.2575,0.71851 -2.721209,0.98598 -4.163372,1.11912 -4.970751,0.45891 -10.069991,-0.57858 -14.466242,-2.94331"
       id="path7080"
       inkscape:path-effect="#path-effect7082"
       inkscape:original-d="m 72.11804,190.99245 c 4.069916,-2.13584 8.139568,-4.27194 12.208954,-6.40831 4.069387,-2.13637 5.91221,3.22496 8.867918,4.83704 2.955708,1.61209 -4.40682,3.00998 -6.61063,4.51458 -2.203807,1.50459 -9.643896,-1.96194 -14.466242,-2.94331" />
    <path
       style="fill:none;stroke:#ff7e00;stroke-width:0.264583px;stroke-linecap:butt;stroke-linejoin:miter;stroke-opacity:1;marker-mid:url(#Arrow1Mstart-4-0)"
       d="m 72.11804,190.99245 c -1.975148,-3.6921 -5.557423,-6.48741 -9.618907,-7.50581 -4.716482,-1.18264 -9.971506,0.0921 -13.646225,3.27649 -1.85726,1.60944 -3.318799,3.67222 -4.221427,5.95804"
       id="path5176-4"
       inkscape:path-effect="#path-effect1372"
       inkscape:original-d="m 72.11804,190.99245 c -3.35145,-3.79275 -1.483899,-10.52291 -9.618907,-7.50581 -2.21581,0.92624 -14.451615,0.85979 -13.646225,3.27649 0.80539,2.41669 -8.249427,6.96537 -4.221427,5.95804"
       sodipodi:nodetypes="ccsc" />
    <path
       style="fill:none;stroke:#ff7e00;stroke-width:0.265;stroke-linecap:butt;stroke-linejoin:miter;stroke-miterlimit:4;stroke-dasharray:none;stroke-opacity:1;marker-mid:url(#marker2439-3)"
       d="m 72.465681,191.01902 c -1.825872,2.89379 -4.603942,5.17565 -7.797309,6.40458 -4.702868,1.80984 -10.153958,1.26643 -14.639824,-1.02911 -1.855443,-0.94948 -3.564719,-2.18394 -5.049426,-3.64675"
       id="path5176-4-2"
       inkscape:path-effect="#path-effect2112"
       inkscape:original-d="m 72.465681,191.01902 c -3.35145,-3.79275 0.337699,3.38748 -7.797309,6.40458 -2.21581,0.92624 -15.445214,-3.44581 -14.639824,-1.02911 0.80539,2.41669 -9.077426,-2.63942 -5.049426,-3.64675"
       sodipodi:nodetypes="ccsc" />
    <path
       style="fill:none;stroke:#f96afd;stroke-width:0.264583px;stroke-linecap:butt;stroke-linejoin:miter;stroke-opacity:1;marker-mid:url(#Arrow1Mstart)"
       d="m 44.631481,192.72117 c -2.457235,-2.62633 -5.497082,-4.70456 -8.836182,-6.04098 -2.323227,-0.92983 -4.912986,-1.50212 -7.325856,-0.83877 -1.206434,0.33167 -2.339262,0.97835 -3.164076,1.91919 -0.824814,0.94083 -1.324108,2.18373 -1.280214,3.43416 0.0438,1.24767 0.619956,2.44101 1.455968,3.3682 0.836011,0.9272 1.918331,1.60548 3.058609,2.11378 2.715635,1.21055 5.836443,1.4895 8.723722,0.77977 2.887279,-0.70974 5.523104,-2.40375 7.368029,-4.73535"
       id="path7084"
       inkscape:path-effect="#path-effect7086"
       inkscape:original-d="m 44.631481,192.72117 c -2.94513,-2.0134 -5.890524,-4.02706 -8.836182,-6.04098 -2.945658,-2.01392 -7.846499,3.00998 -11.770146,4.51458 -3.923646,1.50459 3.009983,3.65492 4.514577,5.48198 1.504594,1.82707 10.728098,-2.63679 16.091751,-3.95558" />
    <path
       style="font-variation-settings:normal;opacity:0.99;vector-effect:none;fill:#000000;fill-opacity:1;fill-rule:evenodd;stroke:none;stroke-width:0.264567;stroke-linecap:butt;stroke-linejoin:round;stroke-miterlimit:4;stroke-dasharray:none;stroke-dashoffset:0;stroke-opacity:1;-inkscape-stroke:none;stop-color:#000000;stop-opacity:1"
       id="path4609-0-4"
       sodipodi:type="arc"
       sodipodi:cx="44.51078"
       sodipodi:cy="192.79724"
       sodipodi:rx="0.47095066"
       sodipodi:ry="0.47095066"
       sodipodi:start="6.1848709"
       sodipodi:end="6.1778721"
       sodipodi:open="true"
       sodipodi:arc-type="arc"
       d="m 44.979457,192.75101 a 0.47095066,0.47095066 0 0 1 -0.42163,0.51483 0.47095066,0.47095066 0 0 1 -0.515558,-0.42073 0.47095066,0.47095066 0 0 1 0.419825,-0.5163 0.47095066,0.47095066 0 0 1 0.517028,0.41893" />
    <path
       style="font-variation-settings:normal;opacity:0.99;vector-effect:none;fill:#000000;fill-opacity:1;fill-rule:evenodd;stroke:none;stroke-width:0.264567;stroke-linecap:butt;stroke-linejoin:round;stroke-miterlimit:4;stroke-dasharray:none;stroke-dashoffset:0;stroke-opacity:1;-inkscape-stroke:none;stop-color:#000000;stop-opacity:1"
       id="path4609-0-3"
       sodipodi:type="arc"
       sodipodi:cx="72.241951"
       sodipodi:cy="191.13443"
       sodipodi:rx="0.47095066"
       sodipodi:ry="0.47095066"
       sodipodi:start="6.1848709"
       sodipodi:end="6.1778721"
       sodipodi:open="true"
       sodipodi:arc-type="arc"
       d="m 72.710627,191.0882 a 0.47095066,0.47095066 0 0 1 -0.421629,0.51482 0.47095066,0.47095066 0 0 1 -0.515559,-0.42072 0.47095066,0.47095066 0 0 1 0.419826,-0.5163 0.47095066,0.47095066 0 0 1 0.517027,0.41892" />
    <path
       style="font-variation-settings:normal;opacity:0.99;vector-effect:none;fill:#000000;fill-opacity:1;fill-rule:evenodd;stroke:none;stroke-width:0.264567;stroke-linecap:butt;stroke-linejoin:round;stroke-miterlimit:4;stroke-dasharray:none;stroke-dashoffset:0;stroke-opacity:1;-inkscape-stroke:none;stop-color:#000000;stop-opacity:1"
       id="path4609-0-4-7"
       sodipodi:type="arc"
       sodipodi:cx="150.88455"
       sodipodi:cy="192.99998"
       sodipodi:rx="0.47095066"
       sodipodi:ry="0.47095066"
       sodipodi:start="6.1848709"
       sodipodi:end="6.1778721"
       sodipodi:open="true"
       sodipodi:arc-type="arc"
       d="m 151.35323,192.95376 a 0.47095066,0.47095066 0 0 1 -0.42163,0.51482 0.47095066,0.47095066 0 0 1 -0.51556,-0.42073 0.47095066,0.47095066 0 0 1 0.41983,-0.51629 0.47095066,0.47095066 0 0 1 0.51702,0.41892" />
    <path
       style="fill:none;stroke:#ff7e00;stroke-width:0.264583px;stroke-linecap:butt;stroke-linejoin:miter;stroke-opacity:1;marker-mid:url(#marker2439-97)"
       d="m 205.97836,189.46649 c 3.3319,-3.2605 7.63294,-5.51806 12.20895,-6.40831 1.93055,-0.37558 3.99452,-0.4996 5.80675,0.26453 0.90612,0.38206 1.72832,0.98799 2.29736,1.79 0.56904,0.802 0.87208,1.80512 0.76381,2.78251 -0.0797,0.71975 -0.37776,1.40804 -0.81329,1.98658 -0.43553,0.57853 -1.00522,1.04962 -1.63397,1.40888 -1.2575,0.71851 -2.72121,0.98598 -4.16337,1.11912 -4.97075,0.45891 -10.06999,-0.57858 -14.46624,-2.94331"
       id="path7080-9"
       inkscape:path-effect="#path-effect1430"
       inkscape:original-d="m 205.97836,189.46649 c 4.06992,-2.13584 8.13957,-4.27194 12.20895,-6.40831 4.06939,-2.13637 5.91221,3.22496 8.86792,4.83704 2.95571,1.61209 -4.40682,3.00998 -6.61063,4.51458 -2.20381,1.50459 -9.64389,-1.96194 -14.46624,-2.94331" />
    <path
       style="font-variation-settings:normal;opacity:0.99;vector-effect:none;fill:#000000;fill-opacity:1;fill-rule:evenodd;stroke:none;stroke-width:0.264567;stroke-linecap:butt;stroke-linejoin:round;stroke-miterlimit:4;stroke-dasharray:none;stroke-dashoffset:0;stroke-opacity:1;-inkscape-stroke:none;stop-color:#000000;stop-opacity:1"
       id="path4609-0-3-9-7"
       sodipodi:type="arc"
       sodipodi:cx="206.10226"
       sodipodi:cy="189.60846"
       sodipodi:rx="0.47095066"
       sodipodi:ry="0.47095066"
       sodipodi:start="6.1848709"
       sodipodi:end="6.1778721"
       sodipodi:open="true"
       sodipodi:arc-type="arc"
       d="m 206.57094,189.56223 a 0.47095066,0.47095066 0 0 1 -0.42163,0.51482 0.47095066,0.47095066 0 0 1 -0.51556,-0.42072 0.47095066,0.47095066 0 0 1 0.41983,-0.5163 0.47095066,0.47095066 0 0 1 0.51703,0.41892" />
    <path
       style="font-variation-settings:normal;opacity:0.99;vector-effect:none;fill:#000000;fill-opacity:1;fill-rule:evenodd;stroke:none;stroke-width:0.264567;stroke-linecap:butt;stroke-linejoin:round;stroke-miterlimit:4;stroke-dasharray:none;stroke-dashoffset:0;stroke-opacity:1;-inkscape-stroke:none;stop-color:#000000;stop-opacity:1"
       id="path4609-0-3-9"
       sodipodi:type="arc"
       sodipodi:cx="178.61571"
       sodipodi:cy="191.33717"
       sodipodi:rx="0.47095066"
       sodipodi:ry="0.47095066"
       sodipodi:start="6.1848709"
       sodipodi:end="6.1778721"
       sodipodi:open="true"
       sodipodi:arc-type="arc"
       d="m 179.08438,191.29095 a 0.47095066,0.47095066 0 0 1 -0.42163,0.51482 0.47095066,0.47095066 0 0 1 -0.51555,-0.42073 0.47095066,0.47095066 0 0 1 0.41982,-0.51629 0.47095066,0.47095066 0 0 1 0.51703,0.41892" />
    <text
       xml:space="preserve"
       style="font-size:5.64444px;line-height:1.25;font-family:sans-serif;letter-spacing:0px;word-spacing:0px;stroke-width:0.264583"
       x="147.77266"
       y="202.36806"
       id="text2201"><tspan
         sodipodi:role="line"
         id="tspan2199"
         style="stroke-width:0.264583"
         x="147.77266"
         y="202.36806">\(\widetilde{x}_0\)</tspan></text>
    <text
       xml:space="preserve"
       style="font-size:5.64444px;line-height:1.25;font-family:sans-serif;letter-spacing:0px;word-spacing:0px;stroke-width:0.264583"
       x="174.74013"
       y="184.67744"
       id="text2201-9"><tspan
         sodipodi:role="line"
         id="tspan2199-1"
         style="stroke-width:0.264583"
         x="174.74013"
         y="184.67744">\(\widetilde{x}_1\)</tspan></text>
    <text
       xml:space="preserve"
       style="font-size:5.64444px;line-height:1.25;font-family:sans-serif;letter-spacing:0px;word-spacing:0px;stroke-width:0.264583"
       x="204.43912"
       y="197.2383"
       id="text2201-9-3"><tspan
         sodipodi:role="line"
         id="tspan2199-1-5"
         style="stroke-width:0.264583"
         x="204.43912"
         y="197.2383">\(\widetilde{x}_2\)</tspan></text>
  </g>
</svg>
