<?xml version="1.0" encoding="UTF-8" standalone="no"?>
<!-- Created with Inkscape (http://www.inkscape.org/) -->

<svg
   width="240mm"
   height="70mm"
   viewBox="0 0 240 70"
   version="1.1"
   id="svg8"
   inkscape:version="1.1.1 (c3084ef, 2021-09-22)"
   sodipodi:docname="eg:lec14:2.svg"
   xmlns:inkscape="http://www.inkscape.org/namespaces/inkscape"
   xmlns:sodipodi="http://sodipodi.sourceforge.net/DTD/sodipodi-0.dtd"
   xmlns="http://www.w3.org/2000/svg"
   xmlns:svg="http://www.w3.org/2000/svg"
   xmlns:rdf="http://www.w3.org/1999/02/22-rdf-syntax-ns#"
   xmlns:cc="http://creativecommons.org/ns#"
   xmlns:dc="http://purl.org/dc/elements/1.1/">
  <defs
     id="defs2">
    <marker
       style="overflow:visible;"
       id="Arrow1Lend"
       refX="0.0"
       refY="0.0"
       orient="auto"
       inkscape:stockid="Arrow1Lend"
       inkscape:isstock="true">
      <path
         transform="scale(0.8) rotate(180) translate(12.5,0)"
         style="fill-rule:evenodd;fill:context-stroke;stroke:context-stroke;stroke-width:1.0pt;"
         d="M 0.0,0.0 L 5.0,-5.0 L -12.5,0.0 L 5.0,5.0 L 0.0,0.0 z "
         id="path1271" />
    </marker>
    <inkscape:path-effect
       effect="spiro"
       id="path-effect1186"
       is_visible="true"
       lpeversion="1" />
    <inkscape:path-effect
       effect="spiro"
       id="path-effect6013"
       is_visible="true"
       lpeversion="1" />
    <inkscape:path-effect
       effect="spiro"
       id="path-effect4171"
       is_visible="true"
       lpeversion="1" />
    <inkscape:path-effect
       effect="spiro"
       id="path-effect4167"
       is_visible="true"
       lpeversion="1" />
    <marker
       style="overflow:visible"
       id="marker2806"
       refX="0"
       refY="0"
       orient="auto"
       inkscape:stockid="Arrow1Mend"
       inkscape:isstock="true">
      <path
         transform="matrix(-0.4,0,0,-0.4,-4,0)"
         style="fill:context-stroke;fill-rule:evenodd;stroke:context-stroke;stroke-width:1pt"
         d="M 0,0 5,-5 -12.5,0 5,5 Z"
         id="path2554" />
    </marker>
    <inkscape:path-effect
       effect="spiro"
       id="path-effect2271"
       is_visible="true"
       lpeversion="1" />
    <inkscape:path-effect
       effect="spiro"
       id="path-effect1801"
       is_visible="true"
       lpeversion="1" />
    <inkscape:path-effect
       effect="spiro"
       id="path-effect5709"
       is_visible="true"
       lpeversion="1" />
    <inkscape:path-effect
       effect="spiro"
       id="path-effect4208"
       is_visible="true"
       lpeversion="1" />
    <inkscape:path-effect
       effect="spiro"
       id="path-effect4153"
       is_visible="true"
       lpeversion="1" />
    <inkscape:path-effect
       effect="spiro"
       id="path-effect4147"
       is_visible="true"
       lpeversion="1" />
    <inkscape:path-effect
       effect="spiro"
       id="path-effect4141"
       is_visible="true"
       lpeversion="1" />
    <inkscape:path-effect
       effect="spiro"
       id="path-effect4135"
       is_visible="true"
       lpeversion="1" />
    <marker
       style="overflow:visible"
       id="Arrow1Mend"
       refX="0"
       refY="0"
       orient="auto"
       inkscape:stockid="Arrow1Mend"
       inkscape:isstock="true">
      <path
         transform="matrix(-0.4,0,0,-0.4,-4,0)"
         style="fill:context-stroke;fill-rule:evenodd;stroke:context-stroke;stroke-width:1pt"
         d="M 0,0 5,-5 -12.5,0 5,5 Z"
         id="path2891" />
    </marker>
    <inkscape:path-effect
       effect="spiro"
       id="path-effect5403"
       is_visible="true"
       lpeversion="1" />
    <marker
       style="overflow:visible"
       id="marker11546"
       refX="0"
       refY="0"
       orient="auto"
       inkscape:stockid="Arrow1Mend"
       inkscape:isstock="true">
      <path
         transform="matrix(-0.4,0,0,-0.4,-4,0)"
         style="fill:context-stroke;fill-rule:evenodd;stroke:context-stroke;stroke-width:1pt"
         d="M 0,0 5,-5 -12.5,0 5,5 Z"
         id="path11544" />
    </marker>
    <inkscape:path-effect
       effect="spiro"
       id="path-effect5407"
       is_visible="true"
       lpeversion="1" />
    <marker
       style="overflow:visible"
       id="marker11551"
       refX="0"
       refY="0"
       orient="auto"
       inkscape:stockid="Arrow1Mend"
       inkscape:isstock="true">
      <path
         transform="matrix(-0.4,0,0,-0.4,-4,0)"
         style="fill:context-stroke;fill-rule:evenodd;stroke:context-stroke;stroke-width:1pt"
         d="M 0,0 5,-5 -12.5,0 5,5 Z"
         id="path11549" />
    </marker>
    <inkscape:path-effect
       effect="spiro"
       id="path-effect5446"
       is_visible="true"
       lpeversion="1" />
    <marker
       style="overflow:visible"
       id="Arrow1Mstart"
       refX="0"
       refY="0"
       orient="auto"
       inkscape:stockid="Arrow1Mstart"
       inkscape:isstock="true">
      <path
         transform="matrix(0.4,0,0,0.4,4,0)"
         style="fill:context-stroke;fill-rule:evenodd;stroke:context-stroke;stroke-width:1pt"
         d="M 0,0 5,-5 -12.5,0 5,5 Z"
         id="path2888" />
    </marker>
    <inkscape:path-effect
       effect="spiro"
       id="path-effect5454"
       is_visible="true"
       lpeversion="1" />
    <marker
       style="overflow:visible"
       id="Arrow1Mstart-2"
       refX="0"
       refY="0"
       orient="auto"
       inkscape:stockid="Arrow1Mstart"
       inkscape:isstock="true">
      <path
         transform="matrix(0.4,0,0,0.4,4,0)"
         style="fill:context-stroke;fill-rule:evenodd;stroke:context-stroke;stroke-width:1pt"
         d="M 0,0 5,-5 -12.5,0 5,5 Z"
         id="path2888-4" />
    </marker>
    <inkscape:path-effect
       effect="spiro"
       id="path-effect5178"
       is_visible="true"
       lpeversion="1" />
    <marker
       style="overflow:visible"
       id="marker11658"
       refX="0"
       refY="0"
       orient="auto"
       inkscape:stockid="Arrow1Mstart"
       inkscape:isstock="true">
      <path
         transform="matrix(0.4,0,0,0.4,4,0)"
         style="fill:context-stroke;fill-rule:evenodd;stroke:context-stroke;stroke-width:1pt"
         d="M 0,0 5,-5 -12.5,0 5,5 Z"
         id="path11656" />
    </marker>
    <inkscape:path-effect
       effect="spiro"
       id="path-effect5234"
       is_visible="true"
       lpeversion="1" />
    <marker
       style="overflow:visible"
       id="Arrow1Mend-9"
       refX="0"
       refY="0"
       orient="auto"
       inkscape:stockid="Arrow1Mend"
       inkscape:isstock="true">
      <path
         transform="matrix(-0.4,0,0,-0.4,-4,0)"
         style="fill:context-stroke;fill-rule:evenodd;stroke:context-stroke;stroke-width:1pt"
         d="M 0,0 5,-5 -12.5,0 5,5 Z"
         id="path2891-3" />
    </marker>
    <marker
       style="overflow:visible"
       id="marker961"
       refX="0"
       refY="0"
       orient="auto"
       inkscape:stockid="Arrow1Mend"
       inkscape:isstock="true">
      <path
         transform="matrix(-0.4,0,0,-0.4,-4,0)"
         style="fill:context-stroke;fill-rule:evenodd;stroke:context-stroke;stroke-width:1pt"
         d="M 0,0 5,-5 -12.5,0 5,5 Z"
         id="path959" />
    </marker>
    <marker
       style="overflow:visible"
       id="Arrow1Mstart-24"
       refX="0"
       refY="0"
       orient="auto"
       inkscape:stockid="Arrow1Mstart"
       inkscape:isstock="true">
      <path
         transform="matrix(0.4,0,0,0.4,4,0)"
         style="fill:context-stroke;fill-rule:evenodd;stroke:context-stroke;stroke-width:1pt"
         d="M 0,0 5,-5 -12.5,0 5,5 Z"
         id="path2888-8" />
    </marker>
    <marker
       style="overflow:visible"
       id="Arrow1Mend-9-0"
       refX="0"
       refY="0"
       orient="auto"
       inkscape:stockid="Arrow1Mend"
       inkscape:isstock="true">
      <path
         transform="matrix(-0.4,0,0,-0.4,-4,0)"
         style="fill:context-stroke;fill-rule:evenodd;stroke:context-stroke;stroke-width:1pt"
         d="M 0,0 5,-5 -12.5,0 5,5 Z"
         id="path2891-3-3" />
    </marker>
    <marker
       style="overflow:visible"
       id="marker4019"
       refX="0"
       refY="0"
       orient="auto"
       inkscape:stockid="Arrow1Mend"
       inkscape:isstock="true">
      <path
         transform="matrix(-0.4,0,0,-0.4,-4,0)"
         style="fill:context-stroke;fill-rule:evenodd;stroke:context-stroke;stroke-width:1pt"
         d="M 0,0 5,-5 -12.5,0 5,5 Z"
         id="path4017" />
    </marker>
    <marker
       style="overflow:visible"
       id="Arrow1Mstart-2-6"
       refX="0"
       refY="0"
       orient="auto"
       inkscape:stockid="Arrow1Mstart"
       inkscape:isstock="true">
      <path
         transform="matrix(0.4,0,0,0.4,4,0)"
         style="fill:context-stroke;fill-rule:evenodd;stroke:context-stroke;stroke-width:1pt"
         d="M 0,0 5,-5 -12.5,0 5,5 Z"
         id="path2888-4-2" />
    </marker>
    <marker
       style="overflow:visible"
       id="Arrow1Mstart-3"
       refX="0"
       refY="0"
       orient="auto"
       inkscape:stockid="Arrow1Mstart"
       inkscape:isstock="true">
      <path
         transform="matrix(0.4,0,0,0.4,4,0)"
         style="fill:context-stroke;fill-rule:evenodd;stroke:context-stroke;stroke-width:1pt"
         d="M 0,0 5,-5 -12.5,0 5,5 Z"
         id="path2888-9" />
    </marker>
  </defs>
  <sodipodi:namedview
     id="base"
     pagecolor="#ffffff"
     bordercolor="#666666"
     borderopacity="1.0"
     inkscape:pageopacity="0.0"
     inkscape:pageshadow="2"
     inkscape:zoom="8.0795024"
     inkscape:cx="475.33868"
     inkscape:cy="56.810429"
     inkscape:document-units="mm"
     inkscape:current-layer="layer1"
     showgrid="false"
     showborder="true"
     width="200mm"
     showguides="true"
     inkscape:guide-bbox="true"
     inkscape:window-width="1280"
     inkscape:window-height="680"
     inkscape:window-x="1728"
     inkscape:window-y="25"
     inkscape:window-maximized="0"
     inkscape:pagecheckerboard="0">
    <inkscape:grid
       type="xygrid"
       id="grid815"
       units="mm"
       spacingx="10"
       spacingy="10"
       empspacing="4"
       dotted="false" />
  </sodipodi:namedview>
  <metadata
     id="metadata5">
    <rdf:RDF>
      <cc:Work
         rdf:about="">
        <dc:format>image/svg+xml</dc:format>
        <dc:type
           rdf:resource="http://purl.org/dc/dcmitype/StillImage" />
      </cc:Work>
    </rdf:RDF>
  </metadata>
  <g
     inkscape:label="Layer 1"
     inkscape:groupmode="layer"
     id="layer1"
     transform="translate(0,-177)">
    <path
       style="fill:none;stroke:#0000e5;stroke-width:0.265;stroke-linecap:butt;stroke-linejoin:miter;stroke-miterlimit:4;stroke-dasharray:none;stroke-opacity:1;marker-mid:url(#Arrow1Mstart-2)"
       d="m 124.86261,234.64692 c 0.92168,-2.782 2.90488,-5.19769 5.45411,-6.64352 2.54923,-1.44583 5.64033,-1.90811 8.50102,-1.27133 1.14084,0.25395 2.2512,0.67998 3.22239,1.33022 0.97118,0.65023 1.79986,1.53117 2.31259,2.58146 0.41017,0.84022 0.61309,1.78334 0.56482,2.71708 -0.0483,0.93375 -0.34984,1.85577 -0.87915,2.62651 -0.55469,0.8077 -1.3492,1.43791 -2.23551,1.85566 -0.88631,0.41775 -1.8622,0.62838 -2.84058,0.68155 -1.95677,0.10634 -3.89092,-0.40353 -5.76824,-0.96557 -2.81928,-0.84404 -5.60024,-1.81606 -8.33145,-2.91206"
       id="path5232"
       inkscape:path-effect="#path-effect5234"
       inkscape:original-d="m 124.86261,234.64692 c -2.77741,-0.97095 9.30369,-5.2763 13.95513,-7.91485 4.65145,-2.63854 3.69025,2.60805 5.53498,3.91168 1.84473,1.30363 -0.20929,3.56266 -0.31433,5.34359 -0.10504,1.78093 -7.22929,1.04802 -10.84433,1.57164 -3.61505,0.52362 -5.94753,-2.20456 -8.33145,-2.91206"
       sodipodi:nodetypes="cssssc" />
    <text
       xml:space="preserve"
       style="font-size:5.64444px;line-height:1.25;font-family:sans-serif;letter-spacing:0px;word-spacing:0px;stroke-width:0.264583"
       x="146.32487"
       y="238.66388"
       id="text5896-8"><tspan
         sodipodi:role="line"
         id="tspan5894-4"
         style="stroke-width:0.264583"
         x="146.32487"
         y="238.66388">\(b\)</tspan></text>
    <text
       xml:space="preserve"
       style="font-size:5.64444px;line-height:1.25;font-family:sans-serif;letter-spacing:0px;word-spacing:0px;stroke-width:0.264583"
       x="105.2763"
       y="245.39079"
       id="text7502-0"><tspan
         sodipodi:role="line"
         id="tspan7500-0"
         style="stroke-width:0.264583"
         x="105.2763"
         y="245.39079">\(a\)</tspan></text>
    <text
       xml:space="preserve"
       style="font-size:5.64444px;line-height:1.25;font-family:sans-serif;letter-spacing:0px;word-spacing:0px;stroke-width:0.264583"
       x="119.28419"
       y="228.49239"
       id="text1257-7"><tspan
         sodipodi:role="line"
         id="tspan1255-8"
         style="stroke-width:0.264583"
         x="119.28419"
         y="228.49239">\(x_0\)</tspan></text>
    <path
       style="fill:none;stroke:#ff0000;stroke-width:0.264583px;stroke-linecap:butt;stroke-linejoin:miter;stroke-opacity:1;marker-mid:url(#Arrow1Mstart)"
       d="m 113.26804,193.82593 c 4.02653,4.00763 9.98126,5.98351 15.60488,5.17798 3.12221,-0.44723 6.12438,-1.71365 8.61887,-3.64386 1.21973,-0.94381 2.31902,-2.04311 3.26283,-3.26284"
       id="path4149"
       inkscape:path-effect="#path-effect4153"
       inkscape:original-d="m 113.26804,193.82593 c 5.20189,1.72626 10.40352,3.45225 15.60488,5.17798 5.20137,1.72573 5.94738,-2.43777 8.61887,-3.64386 2.67147,-1.2061 2.17548,-2.17496 3.26283,-3.26284"
       sodipodi:nodetypes="cssc" />
    <text
       xml:space="preserve"
       style="font-size:5.64444px;line-height:1.25;font-family:sans-serif;letter-spacing:0px;word-spacing:0px;stroke-width:0.264583"
       x="92.265259"
       y="203.42345"
       id="text4157"><tspan
         sodipodi:role="line"
         id="tspan4155"
         style="stroke-width:0.264583"
         x="92.265259"
         y="203.42345">\(b\)</tspan></text>
    <text
       xml:space="preserve"
       style="font-size:5.64444px;line-height:1.25;font-family:sans-serif;letter-spacing:0px;word-spacing:0px;stroke-width:0.264583"
       x="159.60326"
       y="196.08473"
       id="text4161"><tspan
         sodipodi:role="line"
         id="tspan4159"
         style="stroke-width:0.264583"
         x="159.60326"
         y="196.08473">\(b\)</tspan></text>
    <text
       xml:space="preserve"
       style="font-size:5.64444px;line-height:1.25;font-family:sans-serif;letter-spacing:0px;word-spacing:0px;stroke-width:0.264583"
       x="131.44814"
       y="203.83057"
       id="text4165"><tspan
         sodipodi:role="line"
         id="tspan4163"
         style="stroke-width:0.264583"
         x="131.44814"
         y="203.83057">\(a\)</tspan></text>
    <text
       xml:space="preserve"
       style="font-size:5.64444px;line-height:1.25;font-family:sans-serif;letter-spacing:0px;word-spacing:0px;stroke-width:0.264583"
       x="111.36891"
       y="202.20473"
       id="text4171"><tspan
         sodipodi:role="line"
         id="tspan4169"
         style="stroke-width:0.264583"
         x="111.36891"
         y="202.20473">\(\widetilde{x}_0\)</tspan></text>
    <text
       xml:space="preserve"
       style="font-size:5.64444px;line-height:1.25;font-family:sans-serif;letter-spacing:0px;word-spacing:0px;stroke-width:0.264583"
       x="114.67757"
       y="183.60289"
       id="text5094"><tspan
         sodipodi:role="line"
         id="tspan5092"
         style="stroke-width:0.264583"
         x="114.67757"
         y="183.60289">max tree</tspan></text>
    <path
       style="fill:none;stroke:#007c00;stroke-width:0.264583px;stroke-linecap:butt;stroke-linejoin:miter;stroke-opacity:1;marker-end:url(#Arrow1Mend)"
       d="m 115.99502,193.06986 c 2.1061,-1.8838 4.64736,-3.27808 7.3677,-4.04235 2.87462,-0.80761 6.00046,-0.90004 8.81809,0.0882 0.91654,0.32147 1.81066,0.76552 2.49826,1.45151 0.34381,0.343 0.63219,0.74454 0.82518,1.1902 0.19298,0.44565 0.28888,0.93603 0.25384,1.42041 -0.0434,0.6002 -0.28527,1.17354 -0.61727,1.67543 -0.88583,1.33913 -2.39243,2.17864 -3.95774,2.53612 -1.5653,0.35749 -3.19717,0.27789 -4.79225,0.0943 -2.6032,-0.29959 -5.17498,-0.87149 -7.65982,-1.70336"
       id="path5707"
       inkscape:path-effect="#path-effect5709"
       inkscape:original-d="m 115.99502,193.06986 c 2.88084,-1.0873 4.48739,-2.95452 7.3677,-4.04235 2.88031,-1.08783 5.55567,-0.14671 8.81809,0.0882 3.26243,0.23488 3.16603,3.70966 3.57728,4.06212 0.41124,0.35246 -0.41125,1.11722 -0.61727,1.67543 -0.20602,0.55822 -6.92732,1.7489 -8.74999,2.63044 -1.82267,0.88155 -3.77959,-1.43855 -7.65982,-1.70336"
       sodipodi:nodetypes="csssssc" />
    <path
       style="fill:none;stroke:#0000ff;stroke-width:0.264583px;stroke-linecap:butt;stroke-linejoin:miter;stroke-opacity:1;marker-mid:url(#Arrow1Mend-9)"
       d="m 113.26804,193.82593 c -2.70247,-3.08876 -6.66036,-5.04547 -10.75547,-5.31731 -1.26842,-0.0842 -2.566516,-0.009 -3.763581,0.41837 -1.197065,0.42781 -2.289577,1.23695 -2.883051,2.36113 -0.648354,1.22813 -0.643354,2.74169 -0.147154,4.03879 0.4962,1.29709 1.446882,2.38719 2.564114,3.21209 2.452252,1.81061 5.782852,2.36739 8.690682,1.45283 2.90782,-0.91455 5.3201,-3.27756 6.29446,-6.1659"
       id="path4131"
       sodipodi:nodetypes="csssc"
       inkscape:original-d="m 113.26804,193.82593 c -3.58489,-1.77217 -7.17005,-3.54461 -10.75547,-5.31731 -3.585412,-1.7727 -4.430822,1.85326 -6.646632,2.7795 -2.21581,0.92624 1.61157,4.83418 2.41696,7.25088 0.80539,2.41669 10.957142,-3.70574 14.985142,-4.71307"
       inkscape:path-effect="#path-effect4135" />
    <path
       style="fill:none;stroke:#0000ff;stroke-width:0.264583px;stroke-linecap:butt;stroke-linejoin:miter;stroke-opacity:1;marker-mid:url(#Arrow1Mend-9)"
       d="m 140.75462,192.09721 c 1.04864,-1.44287 2.23946,-2.78236 3.54959,-3.99276 1.6024,-1.48042 3.42997,-2.7904 5.52725,-3.39101 1.04865,-0.3003 2.15567,-0.41678 3.23802,-0.28129 1.08234,0.13549 2.13896,0.52801 3.01303,1.18057 0.81535,0.60872 1.46331,1.44025 1.85043,2.38125 0.38711,0.941 0.51181,1.98896 0.35218,2.99388 -0.15964,1.00492 -0.60362,1.96364 -1.26993,2.73265 -0.66631,0.769 -1.55318,1.34545 -2.52769,1.63815 -0.87576,0.26304 -1.80815,0.29785 -2.7177,0.20374 -0.90955,-0.0941 -1.80112,-0.3141 -2.68373,-0.55312 -2.84206,-0.76965 -5.62876,-1.74367 -8.33145,-2.91206"
       id="path4137"
       sodipodi:nodetypes="cssssc"
       inkscape:original-d="m 140.75462,192.09721 c -2.77741,-0.97095 -1.10185,-1.35421 3.54959,-3.99276 4.65145,-2.63854 9.93357,-3.79536 11.7783,-2.49173 1.84473,1.30363 -1.48997,7.965 -1.59501,9.74593 -0.10504,1.78093 -1.78639,-0.873 -5.40143,-0.34938 -3.61505,0.52362 -5.94753,-2.20456 -8.33145,-2.91206"
       inkscape:path-effect="#path-effect4141" />
    <path
       style="fill:none;stroke:#ff0000;stroke-width:0.264583px;stroke-linecap:butt;stroke-linejoin:miter;stroke-opacity:1;marker-mid:url(#marker2806)"
       d="m 113.26804,193.82593 c 3.30155,-4.47327 8.77465,-7.262 14.3342,-7.30377 4.8966,-0.0368 9.77381,2.03057 13.15238,5.57505"
       id="path2267"
       inkscape:path-effect="#path-effect2271"
       inkscape:original-d="m 113.26804,193.82593 c 5.20189,1.72626 9.01334,-5.992 14.3342,-7.30377 5.27785,-1.41799 13.04657,5.65675 13.15238,5.57505"
       sodipodi:nodetypes="ccc" />
    <path
       style="fill:none;stroke:#00f800;stroke-width:0.264583px;stroke-linecap:butt;stroke-linejoin:miter;stroke-opacity:1"
       d="m 113.26804,193.82593 c 2.55241,-3.18085 6.17744,-5.48512 10.14091,-6.44611 3.0383,-0.73668 6.26264,-0.69207 9.2794,0.12838 3.01676,0.82045 5.81957,2.415 8.06627,4.58901"
       id="path4206"
       inkscape:path-effect="#path-effect4208"
       inkscape:original-d="m 113.26804,193.82593 c 3.60615,-2.47847 5.76532,-6.4385 10.14091,-6.44611 5.19914,-0.009 11.78962,2.81516 17.34567,4.71739"
       sodipodi:nodetypes="csc" />
    <path
       style="fill:none;stroke:#ff0000;stroke-width:0.264583px;stroke-linecap:butt;stroke-linejoin:miter;stroke-opacity:1;marker-mid:url(#Arrow1Mstart-2-6)"
       d="m 124.86261,234.64692 c -2.70247,-3.08876 -6.66036,-5.04547 -10.75546,-5.31731 -1.26842,-0.0842 -2.56652,-0.009 -3.76359,0.41836 -1.19706,0.42782 -2.28958,1.23696 -2.88305,2.36114 -0.64835,1.22813 -0.64335,2.74169 -0.14715,4.03879 0.4962,1.29709 1.44688,2.38719 2.56411,3.21209 2.45225,1.81061 5.78285,2.36739 8.69068,1.45283 2.90782,-0.91455 5.3201,-3.27756 6.29446,-6.1659"
       id="path5176"
       sodipodi:nodetypes="csssc"
       inkscape:original-d="m 124.86261,234.64692 c -3.58489,-1.77217 -7.17005,-3.54461 -10.75546,-5.31731 -3.58542,-1.7727 -4.43083,1.85326 -6.64664,2.7795 -2.21581,0.92624 1.61157,4.83418 2.41696,7.25088 0.80539,2.41669 10.95714,-3.70574 14.98514,-4.71307"
       inkscape:path-effect="#path-effect5178" />
    <path
       style="fill:none;stroke:#000000;stroke-width:0.264583px;stroke-linecap:butt;stroke-linejoin:miter;stroke-opacity:1;marker-end:url(#Arrow1Lend)"
       d="m 127.52594,205.42935 v 16.65148"
       id="path1184"
       inkscape:path-effect="#path-effect1186"
       inkscape:original-d="m 127.52594,205.42935 c 2.6e-4,5.55076 2.6e-4,11.10125 0,16.65148" />
    <text
       xml:space="preserve"
       style="font-size:5.64444px;line-height:1.25;font-family:sans-serif;letter-spacing:0px;word-spacing:0px;stroke-width:0.264583"
       x="129.32652"
       y="216.56142"
       id="text1692"><tspan
         sodipodi:role="line"
         id="tspan1690"
         style="stroke-width:0.264583"
         x="129.32652"
         y="216.56142">\(p\)</tspan></text>
    <text
       xml:space="preserve"
       style="font-size:5.64444px;line-height:1.25;font-family:sans-serif;letter-spacing:0px;word-spacing:0px;stroke-width:0.264583"
       x="129.32652"
       y="216.56142"
       id="text1776"><tspan
         sodipodi:role="line"
         id="tspan1774"
         style="stroke-width:0.264583"
         x="129.32652"
         y="216.56142">\(p\)</tspan></text>
    <text
       xml:space="preserve"
       style="font-size:5.64444px;line-height:1.25;font-family:sans-serif;letter-spacing:0px;word-spacing:0px;stroke-width:0.264583"
       x="80.74231"
       y="238.53999"
       id="text1802"><tspan
         sodipodi:role="line"
         id="tspan1800"
         style="stroke-width:0.264583"
         x="80.74231"
         y="238.53999">\(X\)</tspan></text>
    <text
       xml:space="preserve"
       style="font-size:5.64444px;line-height:1.25;font-family:sans-serif;letter-spacing:0px;word-spacing:0px;stroke-width:0.264583"
       x="80.74231"
       y="196.20662"
       id="text2005"><tspan
         sodipodi:role="line"
         id="tspan2003"
         style="stroke-width:0.264583"
         x="80.74231"
         y="196.20662">\(\widetilde{X}\)</tspan></text>
    <path
       style="font-variation-settings:normal;opacity:0.99;vector-effect:none;fill:#000000;fill-opacity:1;fill-rule:evenodd;stroke:none;stroke-width:0.264567;stroke-linecap:butt;stroke-linejoin:round;stroke-miterlimit:4;stroke-dasharray:none;stroke-dashoffset:0;stroke-opacity:1;-inkscape-stroke:none;stop-color:#000000;stop-opacity:1"
       id="path975-3"
       sodipodi:type="arc"
       sodipodi:cx="124.79423"
       sodipodi:cy="234.70999"
       sodipodi:rx="0.60087842"
       sodipodi:ry="0.60087842"
       sodipodi:start="6.1848709"
       sodipodi:end="6.1778721"
       sodipodi:open="true"
       sodipodi:arc-type="arc"
       d="m 125.3922,234.65101 a 0.60087842,0.60087842 0 0 1 -0.53795,0.65685 0.60087842,0.60087842 0 0 1 -0.65779,-0.5368 0.60087842,0.60087842 0 0 1 0.53565,-0.65873 0.60087842,0.60087842 0 0 1 0.65967,0.5345" />
    <path
       style="font-variation-settings:normal;opacity:0.99;vector-effect:none;fill:#000000;fill-opacity:1;fill-rule:evenodd;stroke:none;stroke-width:0.264567;stroke-linecap:butt;stroke-linejoin:round;stroke-miterlimit:4;stroke-dasharray:none;stroke-dashoffset:0;stroke-opacity:1;-inkscape-stroke:none;stop-color:#000000;stop-opacity:1"
       id="path975-3-8"
       sodipodi:type="arc"
       sodipodi:cx="140.77919"
       sodipodi:cy="192.14462"
       sodipodi:rx="0.60087842"
       sodipodi:ry="0.60087842"
       sodipodi:start="6.1848709"
       sodipodi:end="6.1778721"
       sodipodi:open="true"
       sodipodi:arc-type="arc"
       d="m 141.37717,192.08564 a 0.60087842,0.60087842 0 0 1 -0.53795,0.65686 0.60087842,0.60087842 0 0 1 -0.6578,-0.53681 0.60087842,0.60087842 0 0 1 0.53565,-0.65873 0.60087842,0.60087842 0 0 1 0.65967,0.5345" />
    <path
       style="font-variation-settings:normal;opacity:0.99;vector-effect:none;fill:#000000;fill-opacity:1;fill-rule:evenodd;stroke:none;stroke-width:0.264567;stroke-linecap:butt;stroke-linejoin:round;stroke-miterlimit:4;stroke-dasharray:none;stroke-dashoffset:0;stroke-opacity:1;-inkscape-stroke:none;stop-color:#000000;stop-opacity:1"
       id="path4167"
       sodipodi:type="arc"
       sodipodi:cx="113.19921"
       sodipodi:cy="193.88483"
       sodipodi:rx="0.60087842"
       sodipodi:ry="0.60087842"
       sodipodi:start="6.1848709"
       sodipodi:end="6.1778721"
       sodipodi:open="true"
       sodipodi:arc-type="arc"
       d="m 113.79719,193.82585 a 0.60087842,0.60087842 0 0 1 -0.53795,0.65685 0.60087842,0.60087842 0 0 1 -0.6578,-0.5368 0.60087842,0.60087842 0 0 1 0.53565,-0.65873 0.60087842,0.60087842 0 0 1 0.65967,0.53449" />
  </g>
</svg>
