<?xml version="1.0" encoding="UTF-8" standalone="no"?>
<!-- Created with Inkscape (http://www.inkscape.org/) -->

<svg
   width="240mm"
   height="80mm"
   viewBox="0 0 240 80"
   version="1.1"
   id="svg8"
   inkscape:version="1.1.1 (c3084ef, 2021-09-22)"
   sodipodi:docname="eg:rel-homotopy.svg"
   xmlns:inkscape="http://www.inkscape.org/namespaces/inkscape"
   xmlns:sodipodi="http://sodipodi.sourceforge.net/DTD/sodipodi-0.dtd"
   xmlns="http://www.w3.org/2000/svg"
   xmlns:svg="http://www.w3.org/2000/svg"
   xmlns:rdf="http://www.w3.org/1999/02/22-rdf-syntax-ns#"
   xmlns:cc="http://creativecommons.org/ns#"
   xmlns:dc="http://purl.org/dc/elements/1.1/">
  <defs
     id="defs2">
    <inkscape:path-effect
       effect="bspline"
       id="path-effect6208"
       is_visible="true"
       lpeversion="1"
       weight="33.333333"
       steps="2"
       helper_size="0"
       apply_no_weight="true"
       apply_with_weight="true"
       only_selected="false" />
    <inkscape:path-effect
       effect="bspline"
       id="path-effect6204"
       is_visible="true"
       lpeversion="1"
       weight="33.333333"
       steps="2"
       helper_size="0"
       apply_no_weight="true"
       apply_with_weight="true"
       only_selected="false" />
    <inkscape:path-effect
       effect="bspline"
       id="path-effect6200"
       is_visible="true"
       lpeversion="1"
       weight="33.333333"
       steps="2"
       helper_size="0"
       apply_no_weight="true"
       apply_with_weight="true"
       only_selected="false" />
  </defs>
  <sodipodi:namedview
     id="base"
     pagecolor="#ffffff"
     bordercolor="#666666"
     borderopacity="1.0"
     inkscape:pageopacity="0.0"
     inkscape:pageshadow="2"
     inkscape:zoom="2.4953628"
     inkscape:cx="727.34915"
     inkscape:cy="163.90402"
     inkscape:document-units="mm"
     inkscape:current-layer="layer1"
     showgrid="false"
     showborder="true"
     width="200mm"
     showguides="true"
     inkscape:guide-bbox="true"
     inkscape:window-width="1003"
     inkscape:window-height="512"
     inkscape:window-x="2459"
     inkscape:window-y="269"
     inkscape:window-maximized="0"
     inkscape:pagecheckerboard="0">
    <inkscape:grid
       type="xygrid"
       id="grid815"
       units="mm"
       spacingx="10"
       spacingy="10"
       empspacing="4"
       dotted="false" />
  </sodipodi:namedview>
  <metadata
     id="metadata5">
    <rdf:RDF>
      <cc:Work
         rdf:about="">
        <dc:format>image/svg+xml</dc:format>
        <dc:type
           rdf:resource="http://purl.org/dc/dcmitype/StillImage" />
      </cc:Work>
    </rdf:RDF>
  </metadata>
  <g
     inkscape:label="Layer 1"
     inkscape:groupmode="layer"
     id="layer1"
     transform="translate(0,-177)">
    <text
       xml:space="preserve"
       style="font-size:5.64444px;line-height:1.25;font-family:sans-serif;letter-spacing:0px;word-spacing:0px;stroke-width:0.264583"
       x="57.068909"
       y="229.44667"
       id="text1167"><tspan
         sodipodi:role="line"
         id="tspan1165"
         style="stroke-width:0.264583"
         x="57.068909"
         y="229.44667">\(F_0(0)\)</tspan></text>
    <text
       xml:space="preserve"
       style="font-size:5.64444px;line-height:1.25;font-family:sans-serif;letter-spacing:0px;word-spacing:0px;stroke-width:0.264583"
       x="166.58673"
       y="230.29272"
       id="text1167-9"><tspan
         sodipodi:role="line"
         id="tspan1165-8"
         style="stroke-width:0.264583"
         x="166.58673"
         y="230.29272">\(F_0(1)\)</tspan></text>
    <path
       style="fill:none;stroke:black;stroke-width:0.70220417;stroke-linecap:butt;stroke-linejoin:miter;stroke-opacity:1;stroke-dasharray:none;fill-opacity:1;marker-start:none;marker-end:none"
       d="m 166.20406,222.69084 c -0.13503,0.0541 -0.2683,0.10742 -0.33489,0.13408 -0.0666,0.0267 -0.0666,0.0267 -0.56028,-0.46165 -0.49369,-0.48831 -1.48427,-1.46811 -3.40043,-1.87885 -1.91616,-0.41074 -4.73544,-0.25036 -7.88667,-1.58165 -3.15123,-1.33129 -6.62461,-4.15851 -10.92819,-4.36358 -4.30359,-0.20507 -9.42007,2.20931 -13.49731,4.92791 -4.07723,2.71859 -7.10741,5.73825 -10.57311,6.93362 -3.46571,1.19537 -7.36105,0.56616 -10.62418,-0.9445 -3.26314,-1.51066 -5.88596,-3.90023 -9.85657,-5.43566 -3.970611,-1.53542 -9.292671,-2.21774 -13.816949,-1.36106 -4.524277,0.85668 -8.248712,3.25329 -9.462269,3.65974 -1.213558,0.40644 0.08216,-1.17481 3.245519,-4.69827 3.163361,-3.52346 8.175272,-8.96783 12.323609,-11.83052 4.148338,-2.86268 7.42345,-3.1356 9.94814,-3.27197 2.52468,-0.13636 4.2987,-0.13636 6.34592,0.34192 2.04722,0.47828 4.36709,1.43352 7.57392,2.38847 3.20684,0.95494 7.30073,1.91018 11.80321,1.50016 4.50248,-0.41002 9.41515,-2.18404 13.09862,-3.61651 3.68348,-1.43247 6.13927,-2.52393 9.85074,-3.42828 3.71148,-0.90436 8.66602,-1.61929 11.67165,0.0887 3.00563,1.70796 4.04515,5.82765 4.23099,9.22204 0.18584,3.3944 -0.4842,6.05037 -0.48552,8.20453 -0.001,2.15417 0.6663,3.81066 1.33353,5.4662"
       id="path6198"
       inkscape:path-effect="#path-effect6200"
       inkscape:original-d="m 166.20406,222.69084 c -0.13489,0.0544 -0.26817,0.10774 -0.40148,0.16074 2.6e-4,2.6e-4 2.6e-4,2.6e-4 0,0 -0.98738,-0.97662 -1.97796,-1.95642 -2.97175,-2.93938 -2.83851,0.16176 -5.65779,0.32214 -8.49114,0.48304 -3.46915,-2.82373 -6.94253,-5.65095 -10.42015,-8.48167 -5.12938,2.42087 -10.24586,4.83525 -15.37136,7.25351 -3.02886,3.01888 -6.05903,6.03854 -9.09054,9.059 -3.9002,-0.62978 -7.79554,-1.25899 -11.69731,-1.88946 -2.62448,-2.39105 -5.2473,-4.78062 -7.869391,-7.16954 -5.319411,-0.67967 -10.641471,-1.36199 -15.966176,-2.04695 -3.723359,2.39636 -7.447797,4.79297 -11.173319,7.18985 1.298498,-1.58406 2.594216,-3.16531 3.893846,-4.75193 5.027079,-5.46029 10.038988,-10.90466 15.057867,-16.35715 3.277758,-0.27028 6.552871,-0.5432 9.825343,-0.81878 1.77666,0.003 3.55068,0.003 5.32206,0 2.32251,0.95789 4.64238,1.91313 6.95961,2.86573 4.09654,0.95789 8.19043,1.91313 12.28167,2.86572 4.91532,-1.77137 9.82799,-3.54539 14.73801,-5.32206 2.45592,-1.09114 4.91171,-2.1826 7.369,-3.27511 4.96556,-0.71622 9.9201,-1.43116 14.88847,-2.14839 1.04303,4.1328 2.08256,8.25249 3.12465,12.38312 -0.67029,2.65829 -1.34033,5.31426 -2.01012,7.96793 0.66698,1.65452 2.00169,4.96661 2.00169,4.96661"
       sodipodi:nodetypes="cccccccccccccccccccccccc" />
    <path
       style="fill:none;stroke:black;stroke-width:0.70220417;stroke-linecap:butt;stroke-linejoin:miter;stroke-opacity:1;stroke-dasharray:none;fill-opacity:1;marker-start:none;marker-end:none"
       d="m 74.910303,222.69084 c 4.918425,1.28256 9.833729,2.56431 13.10826,4.02322 3.274531,1.4589 4.912289,3.09666 8.871527,4.80313 3.95924,1.70647 10.23653,3.48049 15.42099,3.20687 5.18446,-0.27362 9.27835,-2.59349 12.07555,-4.36738 2.7972,-1.77389 4.2983,-3.00206 5.88639,-4.18715 1.58809,-1.18509 3.25389,-2.32081 6.39572,-1.97923 3.14183,0.34157 7.74227,2.16123 12.28014,2.59896 4.53788,0.43773 9.00581,-0.50866 11.86951,-1.42225 2.8637,-0.9136 4.1248,-1.79496 5.38567,-2.67617"
       id="path6202"
       sodipodi:nodetypes="cccccccccc"
       inkscape:original-d="m 74.910303,222.69084 c 4.917948,1.28439 9.833251,2.56614 14.745909,3.84524 1.636885,1.63688 3.274639,3.27464 4.91267,4.91267 6.279948,1.77667 12.557248,3.55068 18.831898,5.32206 4.09654,-2.31723 8.19043,-4.6371 12.28167,-6.95962 1.50374,-1.22552 3.00484,-2.45369 4.50328,-3.6845 1.67559,-1.14194 3.34139,-2.27766 5.01412,-3.41855 4.61066,1.82387 9.2111,3.64353 13.81778,5.4655 4.46919,-0.94634 8.93713,-1.89273 13.40381,-2.83918 1.26086,-0.88075 3.78262,-2.64362 3.78262,-2.64362"
       inkscape:path-effect="#path-effect6204" />
    <path
       style="fill:none;stroke:black;stroke-width:0.70220417;stroke-linecap:butt;stroke-linejoin:miter;stroke-opacity:1;stroke-dasharray:none;fill-opacity:1;marker-start:none;marker-end:none"
       d="m 74.910303,222.69084 c 1.641239,4.96943 3.281426,9.93567 4.784331,13.44221 1.502905,3.50654 2.867534,5.55348 6.552177,6.23414 3.684643,0.68065 9.689014,-0.002 15.864399,0.80058 6.17539,0.80223 12.51829,3.08666 17.70638,1.78955 5.18808,-1.2971 9.21199,-6.17591 13.20323,-7.93121 3.99124,-1.75529 7.94867,-0.39066 11.83653,-1.07371 3.88786,-0.68304 7.70882,-3.41231 10.98291,-5.21312 3.27408,-1.80081 6.0007,-2.67318 7.63628,-3.8594 1.63557,-1.18622 2.18167,-2.68796 2.72752,-4.18904"
       id="path6206"
       inkscape:path-effect="#path-effect6208"
       inkscape:original-d="m 74.910303,222.69084 c 1.642835,4.9689 3.283027,9.93514 4.92057,14.89875 1.367277,2.04959 2.731908,4.09653 4.09389,6.14083 6.007021,-0.67967 12.011393,-1.36198 18.013117,-2.04694 6.34867,2.28667 12.69157,4.5711 19.04183,6.85801 4.02624,-4.88104 8.05016,-9.75984 12.07175,-14.6364 3.96007,1.36727 7.9175,2.7319 11.87228,4.09389 3.82361,-2.72662 7.64458,-5.45588 11.46289,-8.18779 2.72781,-0.8724 5.45443,-1.74477 8.17987,-2.61711 0.54593,-1.50031 1.63756,-4.50324 1.63756,-4.50324"
       sodipodi:nodetypes="cccccccccc" />
    <text
       xml:space="preserve"
       style="font-size:5.64444px;line-height:1.25;font-family:sans-serif;letter-spacing:0px;word-spacing:0px;stroke-width:0.264583"
       x="109.7417"
       y="199.29581"
       id="text4207"><tspan
         sodipodi:role="line"
         id="tspan4205"
         style="stroke-width:0.264583"
         x="109.7417"
         y="199.29581">\(F_0(t)\)</tspan></text>
    <text
       xml:space="preserve"
       style="font-size:5.64444px;line-height:1.25;font-family:sans-serif;letter-spacing:0px;word-spacing:0px;stroke-width:0.264583"
       x="93.816116"
       y="230.56784"
       id="text6885"><tspan
         sodipodi:role="line"
         id="tspan6883"
         style="stroke-width:0.264583"
         x="93.816116"
         y="230.56784" /></text>
    <path
       style="opacity:0.99;fill:#000003;stroke:#000000;stroke-width:1.00157;stroke-linejoin:round"
       id="path10078"
       sodipodi:type="arc"
       sodipodi:cx="166.52376"
       sodipodi:cy="222.76369"
       sodipodi:rx="0.74221003"
       sodipodi:ry="0.74221003"
       sodipodi:start="6.1848709"
       sodipodi:end="6.1778721"
       sodipodi:open="true"
       sodipodi:arc-type="arc"
       d="m 167.26238,222.69083 a 0.74221003,0.74221003 0 0 1 -0.66448,0.81135 0.74221003,0.74221003 0 0 1 -0.81251,-0.66306 0.74221003,0.74221003 0 0 1 0.66164,-0.81367 0.74221003,0.74221003 0 0 1 0.81483,0.66022" />
    <path
       style="opacity:0.99;fill:#000003;stroke:#000000;stroke-width:1.00157;stroke-linejoin:round"
       id="path10078-8"
       sodipodi:type="arc"
       sodipodi:cx="74.172203"
       sodipodi:cy="222.76886"
       sodipodi:rx="0.74221003"
       sodipodi:ry="0.74221003"
       sodipodi:start="6.1848709"
       sodipodi:end="6.1778721"
       sodipodi:open="true"
       sodipodi:arc-type="arc"
       d="m 74.910829,222.69601 a 0.74221003,0.74221003 0 0 1 -0.664481,0.81135 0.74221003,0.74221003 0 0 1 -0.812511,-0.66306 0.74221003,0.74221003 0 0 1 0.661638,-0.81367 0.74221003,0.74221003 0 0 1 0.814826,0.66021" />
  </g>
</svg>
