<?xml version="1.0" encoding="UTF-8" standalone="no"?>
<!-- Created with Inkscape (http://www.inkscape.org/) -->

<svg
   width="240mm"
   height="50mm"
   viewBox="0 0 240 50"
   version="1.1"
   id="svg8"
   inkscape:version="1.1.1 (c3084ef, 2021-09-22)"
   sodipodi:docname="eg:rel-homotopy.svg"
   xmlns:inkscape="http://www.inkscape.org/namespaces/inkscape"
   xmlns:sodipodi="http://sodipodi.sourceforge.net/DTD/sodipodi-0.dtd"
   xmlns="http://www.w3.org/2000/svg"
   xmlns:svg="http://www.w3.org/2000/svg"
   xmlns:rdf="http://www.w3.org/1999/02/22-rdf-syntax-ns#"
   xmlns:cc="http://creativecommons.org/ns#"
   xmlns:dc="http://purl.org/dc/elements/1.1/">
  <defs
     id="defs2">
    <inkscape:path-effect
       effect="spiro"
       id="path-effect1679"
       is_visible="true"
       lpeversion="1" />
    <inkscape:path-effect
       effect="spiro"
       id="path-effect1603"
       is_visible="true"
       lpeversion="1" />
    <inkscape:path-effect
       effect="spiro"
       id="path-effect1287"
       is_visible="true"
       lpeversion="1" />
    <inkscape:path-effect
       effect="spiro"
       id="path-effect1053"
       is_visible="true"
       lpeversion="1" />
    <inkscape:path-effect
       effect="bspline"
       id="path-effect6208"
       is_visible="true"
       lpeversion="1"
       weight="33.333333"
       steps="2"
       helper_size="0"
       apply_no_weight="true"
       apply_with_weight="true"
       only_selected="false" />
    <inkscape:path-effect
       effect="bspline"
       id="path-effect6204"
       is_visible="true"
       lpeversion="1"
       weight="33.333333"
       steps="2"
       helper_size="0"
       apply_no_weight="true"
       apply_with_weight="true"
       only_selected="false" />
    <inkscape:path-effect
       effect="bspline"
       id="path-effect6200"
       is_visible="true"
       lpeversion="1"
       weight="33.333333"
       steps="2"
       helper_size="0"
       apply_no_weight="true"
       apply_with_weight="true"
       only_selected="false" />
  </defs>
  <sodipodi:namedview
     id="base"
     pagecolor="#ffffff"
     bordercolor="#666666"
     borderopacity="1.0"
     inkscape:pageopacity="0.0"
     inkscape:pageshadow="2"
     inkscape:zoom="0.55745991"
     inkscape:cx="477.16436"
     inkscape:cy="73.54789"
     inkscape:document-units="mm"
     inkscape:current-layer="layer1"
     showgrid="false"
     showborder="true"
     width="200mm"
     showguides="true"
     inkscape:guide-bbox="true"
     inkscape:window-width="1003"
     inkscape:window-height="512"
     inkscape:window-x="2459"
     inkscape:window-y="213"
     inkscape:window-maximized="0"
     inkscape:pagecheckerboard="0">
    <inkscape:grid
       type="xygrid"
       id="grid815"
       units="mm"
       spacingx="10"
       spacingy="10"
       empspacing="4"
       dotted="false" />
  </sodipodi:namedview>
  <metadata
     id="metadata5">
    <rdf:RDF>
      <cc:Work
         rdf:about="">
        <dc:format>image/svg+xml</dc:format>
        <dc:type
           rdf:resource="http://purl.org/dc/dcmitype/StillImage" />
      </cc:Work>
    </rdf:RDF>
  </metadata>
  <g
     inkscape:label="Layer 1"
     inkscape:groupmode="layer"
     id="layer1"
     transform="translate(0,-177)">
    <text
       xml:space="preserve"
       style="font-size:5.64444px;line-height:1.25;font-family:sans-serif;letter-spacing:0px;word-spacing:0px;stroke-width:0.264583"
       x="43.115364"
       y="212.75093"
       id="text1167"><tspan
         sodipodi:role="line"
         id="tspan1165"
         style="stroke-width:0.264583"
         x="43.115364"
         y="212.75093">\(F_0(0)\)</tspan></text>
    <text
       xml:space="preserve"
       style="font-size:5.64444px;line-height:1.25;font-family:sans-serif;letter-spacing:0px;word-spacing:0px;stroke-width:0.264583"
       x="152.63318"
       y="213.59698"
       id="text1167-9"><tspan
         sodipodi:role="line"
         id="tspan1165-8"
         style="stroke-width:0.264583"
         x="152.63318"
         y="213.59698">\(F_0(1)\)</tspan></text>
    <text
       xml:space="preserve"
       style="font-size:5.64444px;line-height:1.25;font-family:sans-serif;letter-spacing:0px;word-spacing:0px;stroke-width:0.264583"
       x="95.788155"
       y="182.60007"
       id="text4207"><tspan
         sodipodi:role="line"
         id="tspan4205"
         style="stroke-width:0.264583"
         x="95.788155"
         y="182.60007">\(F_0(t)\)</tspan></text>
    <text
       xml:space="preserve"
       style="font-size:5.64444px;line-height:1.25;font-family:sans-serif;letter-spacing:0px;word-spacing:0px;stroke-width:0.264583"
       x="79.862572"
       y="213.8721"
       id="text6885"><tspan
         sodipodi:role="line"
         id="tspan6883"
         style="stroke-width:0.264583"
         x="79.862572"
         y="213.8721" /></text>
    <path
       style="opacity:0.99;fill:#000003;stroke:#000000;stroke-width:1.00157;stroke-linejoin:round"
       id="path10078"
       sodipodi:type="arc"
       sodipodi:cx="152.57021"
       sodipodi:cy="206.06795"
       sodipodi:rx="0.74221003"
       sodipodi:ry="0.74221003"
       sodipodi:start="6.1848709"
       sodipodi:end="6.1778721"
       sodipodi:open="true"
       sodipodi:arc-type="arc"
       d="m 153.30883,205.99509 a 0.74221003,0.74221003 0 0 1 -0.66448,0.81135 0.74221003,0.74221003 0 0 1 -0.81251,-0.66306 0.74221003,0.74221003 0 0 1 0.66164,-0.81367 0.74221003,0.74221003 0 0 1 0.81482,0.66022" />
    <path
       style="opacity:0.99;fill:#000003;stroke:#000000;stroke-width:1.00157;stroke-linejoin:round"
       id="path10078-8"
       sodipodi:type="arc"
       sodipodi:cx="60.218658"
       sodipodi:cy="206.07312"
       sodipodi:rx="0.74221003"
       sodipodi:ry="0.74221003"
       sodipodi:start="6.1848709"
       sodipodi:end="6.1778721"
       sodipodi:open="true"
       sodipodi:arc-type="arc"
       d="m 60.957284,206.00027 a 0.74221003,0.74221003 0 0 1 -0.664481,0.81135 0.74221003,0.74221003 0 0 1 -0.812511,-0.66306 0.74221003,0.74221003 0 0 1 0.661638,-0.81367 0.74221003,0.74221003 0 0 1 0.814826,0.66021" />
    <path
       style="fill:none;fill-opacity:1;stroke:#000000;stroke-width:0.702204;stroke-linecap:butt;stroke-linejoin:miter;stroke-dasharray:none;stroke-opacity:1;marker-start:none;marker-end:none"
       d="m 60.956756,205.99511 c 0.273597,-3.68191 1.639156,-7.2759 3.879547,-10.21052 2.24039,-2.93461 5.347414,-5.19911 8.827038,-6.43342 4.728184,-1.67721 10.027076,-1.4213 14.761544,0.23809 2.195472,0.76949 4.281796,1.82681 6.480054,2.5883 2.198259,0.7615 4.576088,1.22261 6.852941,0.74495 2.80107,-0.58763 5.10078,-2.49904 7.47228,-4.10132 1.18575,-0.80114 2.42694,-1.54239 3.77964,-2.00933 1.3527,-0.46694 2.83157,-0.64831 4.22389,-0.31776 1.87922,0.44614 3.4427,1.78382 4.58967,3.33784 1.14696,1.55403 1.93962,3.33405 2.80824,5.05916 0.86861,1.72512 1.84528,3.43948 3.27007,4.74352 0.71239,0.65201 1.53339,1.19355 2.43724,1.53365 0.90386,0.34011 1.89255,0.47409 2.84677,0.32546 1.09436,-0.17046 2.10465,-0.70213 2.99856,-1.35605 0.89391,-0.65393 1.68808,-1.43209 2.5133,-2.1708 0.82522,-0.73872 1.69458,-1.44689 2.69177,-1.92885 0.9972,-0.48197 2.14102,-0.72547 3.22466,-0.49653 0.64339,0.13593 1.24699,0.43415 1.77327,0.82842 0.52629,0.39426 0.97728,0.88308 1.36476,1.41437 0.77497,1.0626 1.29466,2.28476 1.86184,3.47135 0.78014,1.63213 1.66127,3.21597 2.63667,4.73947"
       id="path1051"
       inkscape:path-effect="#path-effect1053"
       inkscape:original-d="m 60.956756,205.99511 c 4.235791,-5.54771 8.47132,-11.09569 12.706585,-16.64394 4.235265,-5.54824 9.841291,0.15899 14.761544,0.23809 4.92025,0.0791 8.88893,2.22243 13.332995,3.33325 4.44407,1.11082 10.31747,-4.28534 15.47581,-6.42841 5.15834,-2.14307 10.63492,10.00002 15.95199,14.99963 5.31706,4.99961 7.61912,-3.96789 11.42829,-5.95223 3.80916,-1.98435 3.33351,3.80969 4.99987,5.71414 1.66637,1.90445 1.75804,3.15991 2.63667,4.73947" />
    <path
       style="fill:none;fill-opacity:1;stroke:#000000;stroke-width:0.702204;stroke-linecap:butt;stroke-linejoin:miter;stroke-dasharray:none;stroke-opacity:1;marker-start:none;marker-end:none"
       d="m 60.957282,206.00028 c 5.645337,-2.36612 11.832873,-3.42749 17.944026,-3.07801 2.820541,0.1613 5.637997,0.62281 8.299168,1.5713 2.661172,0.94849 5.166341,2.39594 7.176639,4.38093 0.868441,0.85751 1.644865,1.81371 2.5977,2.57634 0.476418,0.38132 0.997013,0.71285 1.563969,0.93854 0.566955,0.2257 1.18229,0.34331 1.790566,0.29455 0.77059,-0.0618 1.50896,-0.39165 2.10613,-0.88258 0.59716,-0.49093 1.05679,-1.13753 1.37707,-1.84112 0.64054,-1.40719 0.72499,-3.00074 0.68426,-4.54633 -0.0407,-1.54558 -0.19579,-3.0994 0.005,-4.63242 0.10041,-0.76651 0.29113,-1.52539 0.61856,-2.22568 0.32743,-0.7003 0.79515,-1.3415 1.39926,-1.82386 0.58675,-0.4685 1.29198,-0.77883 2.02513,-0.9409 0.73315,-0.16208 1.49409,-0.1789 2.24038,-0.0964 1.4926,0.16507 2.91114,0.71834 4.30571,1.27535 1.58902,0.63468 3.20008,1.29652 4.52369,2.38089 2.00364,1.64148 3.19331,4.12407 5.23797,5.71415 2.0206,1.57137 4.69424,2.10503 7.25134,1.98987 2.55709,-0.11516 5.04533,-0.82345 7.5102,-1.51369 2.18149,-0.61088 4.40123,-1.21602 6.6665,-1.19045 2.08693,0.0236 4.16524,0.596 5.96992,1.64431"
       id="path1285"
       inkscape:path-effect="#path-effect1287"
       inkscape:original-d="m 60.957282,206.00028 c 5.981608,-1.02574 11.962948,-2.05175 17.944026,-3.07801 5.981075,-1.02627 10.317467,3.96842 15.475807,5.95223 5.15834,1.98381 3.96842,2.53988 5.952235,3.80943 1.98381,1.26954 4.12714,-10.63439 6.19032,-15.95199 2.06318,-5.31759 5.71441,0.15899 8.57122,0.23809 2.8568,0.0791 3.01606,1.58753 4.52369,2.38089 1.50764,0.79337 3.49224,3.8097 5.23797,5.71415 1.74572,1.90445 9.84129,0.31772 14.76154,0.47618 4.92025,0.15846 4.4446,-0.79337 6.6665,-1.19045 2.22191,-0.39708 3.98021,1.09647 5.96992,1.64431" />
    <path
       style="fill:none;fill-opacity:1;stroke:#000000;stroke-width:0.702204;stroke-linecap:butt;stroke-linejoin:miter;stroke-dasharray:none;stroke-opacity:1;marker-start:none;marker-end:none"
       d="m 60.957282,206.00028 c 6.242273,2.84334 11.863308,7.04136 16.361756,12.21963 1.045182,1.20313 2.033046,2.46096 3.178877,3.56866 1.145831,1.10771 2.47188,2.07192 3.99042,2.55563 1.697142,0.5406 3.54694,0.4496 5.275374,0.0194 1.728433,-0.43019 3.356792,-1.18534 4.956368,-1.96886 1.599575,-0.78351 3.18967,-1.60276 4.876871,-2.17364 1.687202,-0.57087 3.493292,-0.88768 5.256092,-0.63259 2.51093,0.36335 4.70979,1.83719 7.11933,2.63149 1.20477,0.39715 2.49063,0.62416 3.74544,0.43804 0.62741,-0.0931 1.24185,-0.29005 1.79279,-0.6043 0.55095,-0.31425 1.03727,-0.74744 1.38971,-1.27478 0.50218,-0.75139 0.71637,-1.66504 0.76219,-2.56763 0.0458,-0.9026 -0.0669,-1.80472 -0.1688,-2.70271 -0.10191,-0.89799 -0.19326,-1.80452 -0.10484,-2.70394 0.0884,-0.89942 0.36913,-1.80101 0.93999,-2.50165 0.44225,-0.54279 1.04528,-0.94567 1.70261,-1.18674 0.65733,-0.24108 1.36743,-0.32392 2.06642,-0.28368 1.39797,0.0805 2.72472,0.64049 3.95637,1.3067 1.23165,0.66621 2.40301,1.44712 3.67706,2.02815 1.27406,0.58102 2.68804,0.95881 4.07335,0.75455 1.15854,-0.17082 2.22437,-0.73742 3.18125,-1.41254 0.95688,-0.67511 1.82793,-1.4645 2.77098,-2.1588 3.01007,-2.2161 6.75621,-3.41401 10.49362,-3.35557"
       id="path1601"
       inkscape:path-effect="#path-effect1603"
       inkscape:original-d="m 60.957282,206.00028 c 5.743517,7.54548 4.976763,6.19368 16.361756,12.21963 8.380497,4.4357 -0.211208,6.75946 7.169297,6.12429 7.3805,-0.63517 18.857075,-2.37452 20.364705,-4.75568 1.50764,-2.38116 9.36512,0.7939 14.04727,1.19045 4.68216,0.39655 0.95263,-6.98369 1.42854,-10.47593 0.47591,-3.49225 10.31747,1.74625 15.47581,2.61898 5.15834,0.87273 3.96842,-2.38063 5.95223,-3.57134 1.98382,-1.19071 6.99601,-2.23678 10.49362,-3.35557"
       sodipodi:nodetypes="csssssssc" />
    <path
       style="fill:none;fill-opacity:1;stroke:#000000;stroke-width:0.702204;stroke-linecap:butt;stroke-linejoin:miter;stroke-dasharray:none;stroke-opacity:1;marker-start:none;marker-end:none"
       d="m 60.957282,206.00028 c 5.49866,-0.2831 11.048693,0.46518 16.276044,2.1944 5.61694,1.8581 10.797081,4.81033 16.186319,7.25137 1.896963,0.85922 3.86956,1.66739 5.948814,1.7833 1.039631,0.0579 2.096491,-0.0627 3.072091,-0.42652 0.97559,-0.36387 1.86736,-0.97797 2.49685,-1.80738 0.90572,-1.19338 1.21046,-2.7199 1.5934,-4.16829 0.19147,-0.72419 0.40992,-1.44575 0.74334,-2.11654 0.33342,-0.67078 0.78805,-1.29275 1.38833,-1.74084 0.58973,-0.44022 1.30261,-0.69867 2.02999,-0.81045 0.72738,-0.11179 1.47072,-0.0817 2.20015,0.0158 1.45886,0.19504 2.87568,0.65707 4.34108,0.79466 2.53507,0.23802 5.12275,-0.50267 7.61886,0 1.32211,0.26625 2.54776,0.8691 3.77481,1.42876 1.22704,0.55966 2.49924,1.08854 3.84405,1.19023 1.29054,0.0976 2.58191,-0.20548 3.79899,-0.64564 1.21707,-0.44017 2.37982,-1.01726 3.58178,-1.49717 3.90938,-1.56091 8.23419,-2.067 12.39833,-1.45085"
       id="path1677"
       inkscape:path-effect="#path-effect1679"
       inkscape:original-d="m 60.957282,206.00028 c 5.426065,4.92649 9.776198,-1.18992 16.276044,2.1944 7.377726,3.84141 8.116727,5.67247 16.186319,7.25137 8.694585,1.70119 8.184765,0.42266 11.517755,-0.4506 3.33299,-0.87326 2.77298,-4.77151 3.72507,-8.02567 0.95209,-3.25415 5.71441,2.7e-4 8.57122,0 2.85681,-2.6e-4 5.0795,2.7e-4 7.61886,0 2.53936,-2.6e-4 5.0795,1.74626 7.61886,2.61899 2.53935,0.87273 4.92078,-1.42827 7.38077,-2.14281 2.45999,-0.71453 8.26582,-0.96697 12.39833,-1.45085"
       sodipodi:nodetypes="cssssssssc" />
  </g>
</svg>
