<?xml version="1.0" encoding="UTF-8" standalone="no"?>
<!-- Created with Inkscape (http://www.inkscape.org/) -->

<svg
   width="240mm"
   height="80mm"
   viewBox="0 0 240 80"
   version="1.1"
   id="svg8"
   inkscape:version="1.1.1 (c3084ef, 2021-09-22)"
   sodipodi:docname="eg:seifert-van-kampen-theorem.svg"
   xmlns:inkscape="http://www.inkscape.org/namespaces/inkscape"
   xmlns:sodipodi="http://sodipodi.sourceforge.net/DTD/sodipodi-0.dtd"
   xmlns="http://www.w3.org/2000/svg"
   xmlns:svg="http://www.w3.org/2000/svg"
   xmlns:rdf="http://www.w3.org/1999/02/22-rdf-syntax-ns#"
   xmlns:cc="http://creativecommons.org/ns#"
   xmlns:dc="http://purl.org/dc/elements/1.1/">
  <defs
     id="defs2">
    <inkscape:path-effect
       effect="spiro"
       id="path-effect5783"
       is_visible="true"
       lpeversion="1" />
    <inkscape:path-effect
       effect="spiro"
       id="path-effect5373"
       is_visible="true"
       lpeversion="1" />
    <inkscape:path-effect
       effect="spiro"
       id="path-effect5176"
       is_visible="true"
       lpeversion="1" />
    <inkscape:path-effect
       effect="spiro"
       id="path-effect4283"
       is_visible="true"
       lpeversion="1" />
    <inkscape:path-effect
       effect="spiro"
       id="path-effect4279"
       is_visible="true"
       lpeversion="1" />
    <inkscape:path-effect
       effect="spiro"
       id="path-effect3991"
       is_visible="true"
       lpeversion="1" />
    <inkscape:path-effect
       effect="spiro"
       id="path-effect1629"
       is_visible="true"
       lpeversion="1" />
    <inkscape:path-effect
       effect="spiro"
       id="path-effect1353"
       is_visible="true"
       lpeversion="1" />
    <inkscape:path-effect
       effect="spiro"
       id="path-effect1233"
       is_visible="true"
       lpeversion="1" />
    <inkscape:path-effect
       effect="spiro"
       id="path-effect1194"
       is_visible="true"
       lpeversion="1" />
    <inkscape:path-effect
       effect="spiro"
       id="path-effect1190"
       is_visible="true"
       lpeversion="1" />
    <inkscape:path-effect
       effect="spiro"
       id="path-effect979"
       is_visible="true"
       lpeversion="1" />
    <inkscape:path-effect
       effect="spiro"
       id="path-effect862"
       is_visible="true"
       lpeversion="1" />
    <inkscape:path-effect
       effect="spiro"
       id="path-effect858"
       is_visible="true"
       lpeversion="1" />
  </defs>
  <sodipodi:namedview
     id="base"
     pagecolor="#ffffff"
     bordercolor="#666666"
     borderopacity="1.0"
     inkscape:pageopacity="0.0"
     inkscape:pageshadow="2"
     inkscape:zoom="2.1653829"
     inkscape:cx="493.44621"
     inkscape:cy="156.55429"
     inkscape:document-units="mm"
     inkscape:current-layer="layer1"
     showgrid="false"
     showborder="true"
     width="200mm"
     showguides="true"
     inkscape:guide-bbox="true"
     inkscape:window-width="1280"
     inkscape:window-height="680"
     inkscape:window-x="1728"
     inkscape:window-y="25"
     inkscape:window-maximized="0"
     inkscape:pagecheckerboard="0"
     height="80mm">
    <inkscape:grid
       type="xygrid"
       id="grid815"
       units="mm"
       spacingx="10"
       spacingy="10"
       empspacing="4"
       dotted="false" />
  </sodipodi:namedview>
  <metadata
     id="metadata5">
    <rdf:RDF>
      <cc:Work
         rdf:about="">
        <dc:format>image/svg+xml</dc:format>
        <dc:type
           rdf:resource="http://purl.org/dc/dcmitype/StillImage" />
      </cc:Work>
    </rdf:RDF>
  </metadata>
  <g
     inkscape:label="Layer 1"
     inkscape:groupmode="layer"
     id="layer1"
     transform="translate(0,-177)">
    <path
       style="fill:none;stroke:black;stroke-width:0.26458333;stroke-linecap:butt;stroke-linejoin:miter;stroke-opacity:1;stroke-dasharray:none;fill-opacity:1;marker-start:none;marker-end:none"
       d="m 71.958723,195.05275 c -3.427268,2.56258 -6.42914,5.7246 -8.634744,9.39179 -2.205604,3.66719 -3.600487,7.84649 -3.834906,12.11943 -0.23442,4.27294 0.715769,8.63257 2.883752,12.32212 2.167982,3.68955 5.57203,6.67532 9.585898,8.15918 5.019793,1.85573 10.635992,1.30896 15.789111,-0.13583 5.153118,-1.44479 10.02583,-3.74223 15.111046,-5.41035 11.0039,-3.60964 23.2551,-4.1432 34.0694,0 7.18557,2.75295 13.57723,7.4659 20.99626,9.50774 5.95681,1.63942 12.44286,1.43395 18.20492,-0.79538 5.76206,-2.22932 10.74774,-6.50776 13.62729,-11.97397 2.87954,-5.4662 3.5773,-12.0886 1.68669,-17.97051 -1.8906,-5.8819 -6.40022,-10.91374 -12.12649,-13.23344 -3.23418,-1.31016 -6.77005,-1.76522 -10.2585,-1.6804 -3.48845,0.0848 -6.94385,0.69561 -10.34999,1.45365 -6.81229,1.51609 -13.61709,3.64208 -20.59171,3.39599 -7.1339,-0.25171 -13.92477,-2.97009 -20.49204,-5.76774 -6.56727,-2.79765 -13.21467,-5.74921 -20.312017,-6.51309 -8.93641,-0.96182 -18.155621,1.74859 -25.35397,7.13081 z"
       id="path856"
       inkscape:path-effect="#path-effect858"
       inkscape:original-d="m 71.958723,195.05275 c -8.451588,2.37667 2.64e-4,27.99528 0,41.99252 -2.65e-4,13.99724 20.600368,-3.69719 30.900157,-5.54618 10.29978,-1.84899 22.7132,2.6e-4 34.0694,0 11.3562,-2.7e-4 13.99777,6.33876 20.99626,9.50774 6.99849,3.16898 14.26187,-29.31527 21.39241,-43.9733 7.13055,-14.65803 -27.46654,2.11309 -41.2002,3.16924 -13.73367,1.05616 -27.20244,-8.18695 -40.804057,-12.28083 -13.60161,-4.09387 -16.90238,4.75414 -25.35397,7.13081 z" />
    <path
       style="fill:none;stroke:black;stroke-width:0.26458333;stroke-linecap:butt;stroke-linejoin:miter;stroke-opacity:1;stroke-dasharray:none;fill-opacity:1;marker-start:none;marker-end:none"
       d="m 75.692493,211.93567 c 3.712678,2.56107 8.110793,4.11841 12.607837,4.46434 4.497043,0.34592 9.081597,-0.52044 13.14229,-2.48356 1.38834,-0.67118 2.71601,-1.46779 3.96156,-2.37694"
       id="path860"
       inkscape:path-effect="#path-effect862"
       inkscape:original-d="m 75.692493,211.93567 c 8.583642,0.66052 17.167019,1.32078 25.750127,1.98078 8.58312,0.65999 2.64131,-1.58436 3.96156,-2.37694" />
    <path
       style="fill:none;stroke:black;stroke-width:0.26458333;stroke-linecap:butt;stroke-linejoin:miter;stroke-opacity:1;stroke-dasharray:none;fill-opacity:1;marker-start:none;marker-end:none"
       d="m 80.646885,214.64661 c 3.930976,-2.69306 9.012026,-3.64227 13.650146,-2.55003 1.972186,0.46443 3.86087,1.28116 5.550057,2.40003"
       id="path977"
       inkscape:path-effect="#path-effect979"
       inkscape:original-d="m 80.646885,214.64661 c 4.550314,-0.84974 9.100365,-1.69975 13.650146,-2.55003 4.549787,-0.85027 3.70031,1.60029 5.550057,2.40003" />
    <path
       style="fill:none;stroke:black;stroke-width:0.26458333;stroke-linecap:butt;stroke-linejoin:miter;stroke-opacity:1;stroke-dasharray:none;fill-opacity:1;marker-start:none;marker-end:none"
       d="m 149.08619,216.925 c 3.71268,2.56107 8.11079,4.11841 12.60784,4.46434 4.49704,0.34592 9.0816,-0.52044 13.14229,-2.48356 1.38834,-0.67118 2.71601,-1.46779 3.96156,-2.37694"
       id="path860-7"
       inkscape:path-effect="#path-effect1190"
       inkscape:original-d="m 149.08619,216.925 c 8.58364,0.66052 17.16702,1.32078 25.75013,1.98078 8.58312,0.65999 2.64131,-1.58436 3.96156,-2.37694" />
    <path
       style="fill:none;stroke:black;stroke-width:0.26458333;stroke-linecap:butt;stroke-linejoin:miter;stroke-opacity:1;stroke-dasharray:none;fill-opacity:1;marker-start:none;marker-end:none"
       d="m 154.04058,219.63594 c 3.93098,-2.69306 9.01203,-3.64227 13.65015,-2.55003 1.97219,0.46443 3.86087,1.28116 5.55006,2.40003"
       id="path977-0"
       inkscape:path-effect="#path-effect1194"
       inkscape:original-d="m 154.04058,219.63594 c 4.55032,-0.84974 9.10037,-1.69975 13.65015,-2.55003 4.54979,-0.85027 3.70031,1.60029 5.55006,2.40003" />
    <path
       style="fill:none;stroke:black;stroke-width:0.26458333;stroke-linecap:butt;stroke-linejoin:miter;stroke-opacity:1;stroke-dasharray:none;fill-opacity:1;marker-start:none;marker-end:none"
       d="m 119.49092,195.36812 c -4.9792,8.06801 -7.26049,17.76974 -6.39851,27.21125 0.19515,2.13753 0.54639,4.26079 1.05001,6.34729"
       id="path1231"
       inkscape:path-effect="#path-effect1233"
       inkscape:original-d="m 119.49092,195.36812 c -2.09976,8.25035 -4.29822,18.96142 -6.39851,27.21125 -2.10029,8.24983 0.70027,4.34753 1.05001,6.34729"
       sodipodi:nodetypes="csc" />
    <path
       style="fill:none;stroke:black;stroke-width:0.26458333;stroke-linecap:butt;stroke-linejoin:miter;stroke-opacity:1;stroke-dasharray:none;fill-opacity:1;marker-start:none;marker-end:none"
       d="m 145.42481,199.68692 c -6.32502,7.37061 -9.33563,17.48291 -8.07198,27.11281 0.22401,1.70712 0.57531,3.39751 1.05001,5.05253"
       id="path1231-7"
       inkscape:path-effect="#path-effect1353"
       inkscape:original-d="m 145.42481,199.68692 c -2.09976,8.25035 -5.97169,18.86298 -8.07198,27.11281 -2.10029,8.24983 0.70027,3.05277 1.05001,5.05253"
       sodipodi:nodetypes="csc" />
    <text
       xml:space="preserve"
       style="font-size:5.64444px;line-height:1.25;font-family:sans-serif;letter-spacing:0px;word-spacing:0px;stroke-width:0.264583"
       x="89.324661"
       y="242.88033"
       id="text1707"><tspan
         sodipodi:role="line"
         id="tspan1705"
         style="stroke-width:0.264583"
         x="89.324661"
         y="242.88033">\(A\)</tspan></text>
    <text
       xml:space="preserve"
       style="font-size:5.64444px;line-height:1.25;font-family:sans-serif;letter-spacing:0px;word-spacing:0px;stroke-width:0.264583"
       x="153.84912"
       y="248.24149"
       id="text1707-8"><tspan
         sodipodi:role="line"
         id="tspan1705-1"
         style="stroke-width:0.264583"
         x="153.84912"
         y="248.24149">\(B\)</tspan></text>
    <text
       xml:space="preserve"
       style="font-size:5.64444px;line-height:1.25;font-family:sans-serif;letter-spacing:0px;word-spacing:0px;stroke-width:0.264583"
       x="121.76695"
       y="225.80212"
       id="text3168"><tspan
         sodipodi:role="line"
         id="tspan3166"
         style="stroke-width:0.264583"
         x="121.76695"
         y="225.80212">\(x_0\)</tspan></text>
    <text
       xml:space="preserve"
       style="font-size:5.64444px;line-height:1.25;font-family:sans-serif;letter-spacing:0px;word-spacing:0px;stroke-width:0.264583"
       x="188.12839"
       y="196.57405"
       id="text1066"><tspan
         sodipodi:role="line"
         id="tspan1064"
         style="stroke-width:0.264583"
         x="188.12839"
         y="196.57405">\(X=A\cup B\)</tspan></text>
    <text
       xml:space="preserve"
       style="font-size:5.64444px;line-height:1.25;font-family:sans-serif;letter-spacing:0px;word-spacing:0px;stroke-width:0.264583"
       x="125.74065"
       y="193.99944"
       id="text1399"><tspan
         sodipodi:role="line"
         id="tspan1397"
         style="stroke-width:0.264583"
         x="125.74065"
         y="193.99944">\(A\cap B\)</tspan></text>
    <path
       style="fill:none;fill-opacity:1;stroke:#ed8d31;stroke-width:0.264583;stroke-linecap:butt;stroke-linejoin:miter;stroke-dasharray:none;stroke-opacity:1;marker-start:none;marker-end:none"
       d="m 127.37128,219.27519 c -7.74807,-0.89617 -15.65975,-0.35766 -23.21493,1.58012 -4.379481,1.12327 -8.637957,2.7108 -13.063577,3.63571 -4.42562,0.92492 -9.137213,1.15491 -13.378593,-0.41106 -2.013,-0.74323 -3.890436,-1.89037 -5.381243,-3.43376 -1.490808,-1.54339 -2.583886,-3.49075 -3.00286,-5.59527 -0.595319,-2.99031 0.216575,-6.18335 1.966762,-8.67999 1.750187,-2.49664 4.383185,-4.31187 7.263731,-5.31128 2.880545,-0.9994 5.998428,-1.21231 9.029329,-0.88066 3.030901,0.33165 5.984007,1.19479 8.82728,2.29577 6.239951,2.41624 11.965821,5.96256 17.735601,9.3515 4.36043,2.56114 8.7674,5.04304 13.21801,7.44406"
       id="path1627"
       inkscape:path-effect="#path-effect1629"
       inkscape:original-d="m 127.37128,219.27519 c -6.65972,-4.08377 -14.40114,0.50497 -23.21493,1.58012 -8.813792,1.07514 -23.647733,6.23406 -26.44217,3.22465 -2.794436,-3.00941 -17.413401,-4.83725 -8.384103,-9.02903 9.029298,-4.19179 21.174969,-15.69359 27.087102,-12.57616 5.912131,3.11743 13.215501,9.13034 17.735601,9.3515 4.5201,0.22117 8.69844,7.22342 13.21801,7.44406"
       sodipodi:nodetypes="csssssc" />
    <text
       xml:space="preserve"
       style="font-size:5.64444px;line-height:1.25;font-family:sans-serif;letter-spacing:0px;word-spacing:0px;stroke-width:0.264583"
       x="168.97192"
       y="236.63126"
       id="text1853"><tspan
         sodipodi:role="line"
         id="tspan1851"
         style="stroke-width:0.264583"
         x="168.97192"
         y="236.63126">\(\beta\)</tspan></text>
    <text
       xml:space="preserve"
       style="font-size:5.64444px;line-height:1.25;font-family:sans-serif;letter-spacing:0px;word-spacing:0px;stroke-width:0.264583"
       x="78.096092"
       y="231.78328"
       id="text1853-5"><tspan
         sodipodi:role="line"
         id="tspan1851-8"
         style="stroke-width:0.264583"
         x="78.096092"
         y="231.78328">\(\alpha\)</tspan></text>
    <path
       style="fill:none;fill-opacity:1;stroke:#c9008e;stroke-width:0.264583;stroke-linecap:butt;stroke-linejoin:miter;stroke-dasharray:none;stroke-opacity:1;marker-start:none;marker-end:none"
       d="m 127.37128,219.27519 c 7.12931,-5.80593 15.23116,-10.41471 23.86503,-13.57576 4.84288,-1.77308 9.95239,-3.10447 15.10211,-2.82572 2.57486,0.13938 5.13926,0.68735 7.49324,1.74001 2.35399,1.05266 4.49354,2.61901 6.10408,4.63283 1.85126,2.31482 2.97453,5.22151 3.0646,8.18418 0.0901,2.96267 -0.87154,5.96234 -2.74214,8.26156 -2.02811,2.49283 -5.03994,4.08521 -8.19288,4.7068 -3.15294,0.6216 -6.43963,0.32086 -9.54272,-0.51475 -4.55924,-1.22773 -8.74208,-3.57478 -12.65016,-6.22447 -3.73823,-2.53453 -7.43406,-5.43855 -11.85722,-6.35168 -3.62299,-0.74794 -7.52754,-0.0264 -10.64394,1.967"
       id="path3989"
       inkscape:path-effect="#path-effect3991"
       inkscape:original-d="m 127.37128,219.27519 c 7.84144,-2.26454 16.02412,-11.3107 23.86503,-13.57576 7.84091,-2.26507 19.13321,2.36501 28.69943,3.54712 9.56621,1.18211 0.21524,10.96409 0.32246,16.44574 0.10723,5.48165 -11.82347,2.79496 -17.7356,4.19205 -5.91213,1.39708 -7.38296,-4.28941 -12.65016,-6.22447 -5.2672,-1.93506 -8.95476,-4.09416 -11.85722,-6.35168 -2.90245,-2.25753 -7.20953,3.57205 -10.64394,1.967"
       sodipodi:nodetypes="cssssssc" />
    <path
       style="fill:none;stroke:black;stroke-width:0.26458333;stroke-linecap:butt;stroke-linejoin:miter;stroke-opacity:1;stroke-dasharray:none;fill-opacity:1;marker-start:none;marker-end:none"
       d="m 117.94971,208.40898 c 3.37404,2.44713 7.66818,3.59223 11.8127,3.15005 2.77358,-0.29591 5.47041,-1.28589 7.77671,-2.85474"
       id="path5174"
       inkscape:path-effect="#path-effect5176"
       inkscape:original-d="m 117.94971,208.40898 c 3.93783,1.05028 7.8754,2.1003 11.8127,3.15005 3.93731,1.04976 5.18474,-1.90289 7.77671,-2.85474" />
    <path
       style="fill:none;stroke:black;stroke-width:0.26458333;stroke-linecap:butt;stroke-linejoin:miter;stroke-opacity:1;stroke-dasharray:none;fill-opacity:1;marker-start:none;marker-end:none"
       d="m 121.1982,210.27932 c 2.45785,-2.07175 5.96028,-2.83315 9.05641,-1.96878 1.41144,0.39404 2.73322,1.10577 3.83914,2.06722"
       id="path5371"
       inkscape:path-effect="#path-effect5373"
       inkscape:original-d="m 121.1982,210.27932 c 3.01907,-0.65599 6.03787,-1.31226 9.05641,-1.96878 3.01854,-0.65653 2.55969,1.37841 3.83914,2.06722" />
    <path
       style="fill:none;fill-opacity:1;stroke:#ff0009;stroke-width:0.264583;stroke-linecap:butt;stroke-linejoin:miter;stroke-dasharray:none;stroke-opacity:1;marker-start:none;marker-end:none"
       d="m 127.37128,219.27519 c -0.67949,-2.58364 -2.51972,-4.83828 -4.91483,-6.02164 -1.17091,-0.57851 -2.44887,-0.9062 -3.65011,-1.41877 -0.60062,-0.25628 -1.18437,-0.56048 -1.70532,-0.95423 -0.52094,-0.39375 -0.97882,-0.88023 -1.29105,-1.45376 -0.47757,-0.87725 -0.59093,-1.93165 -0.38592,-2.9092 0.20501,-0.97756 0.71568,-1.87802 1.39296,-2.61214 1.35457,-1.46823 3.30072,-2.24365 5.23663,-2.73641 4.70211,-1.19687 9.78091,-0.96074 14.30001,0.80563 0.75048,0.29334 1.4919,0.63151 2.13518,1.11674 0.64327,0.48524 1.18727,1.12998 1.44137,1.89463 0.30451,0.91635 0.16562,1.94678 -0.26639,2.81036 -0.43201,0.86359 -1.13778,1.56952 -1.93724,2.11107 -1.07344,0.72714 -2.30879,1.17127 -3.52878,1.61015 -1.21999,0.43888 -2.45432,0.88746 -3.52282,1.62183 -1.98817,1.36646 -3.25739,3.72371 -3.30369,6.13574"
       id="path5781"
       inkscape:path-effect="#path-effect5783"
       inkscape:original-d="m 127.37128,219.27519 c -1.63801,-2.00695 -3.27629,-4.01416 -4.91483,-6.02164 -1.63854,-2.00747 -4.43072,-2.55091 -6.64648,-3.82676 -2.21576,-1.27585 4.16271,-5.5049 6.24367,-8.25775 2.08096,-2.75285 9.5336,0.53735 14.30001,0.80563 4.76641,0.26828 2.38463,2.00784 3.57655,3.01137 1.19192,1.00352 -1.46882,3.28122 -2.20363,4.92143 -0.7348,1.64021 -4.7008,2.15492 -7.0516,3.23198 -2.3508,1.07707 -2.20219,4.09076 -3.30369,6.13574" />
    <text
       xml:space="preserve"
       style="font-size:5.64444px;line-height:1.25;font-family:sans-serif;letter-spacing:0px;word-spacing:0px;stroke-width:0.264583"
       x="131.71831"
       y="206.1463"
       id="text6106"><tspan
         sodipodi:role="line"
         id="tspan6104"
         style="stroke-width:0.264583"
         x="131.71831"
         y="206.1463">\(\gamma\)</tspan></text>
    <path
       style="font-variation-settings:normal;opacity:0.99;vector-effect:none;fill:#000000;fill-opacity:1;fill-rule:evenodd;stroke:#000000;stroke-width:0.264567;stroke-linecap:butt;stroke-linejoin:round;stroke-miterlimit:4;stroke-dasharray:none;stroke-dashoffset:0;stroke-opacity:1;-inkscape-stroke:none;stop-color:#000000;stop-opacity:1"
       id="path3272"
       sodipodi:type="arc"
       sodipodi:cx="127.35951"
       sodipodi:cy="219.29494"
       sodipodi:rx="0.6982038"
       sodipodi:ry="0.6982038"
       sodipodi:start="6.1848709"
       sodipodi:end="6.1778721"
       sodipodi:open="true"
       sodipodi:arc-type="arc"
       d="m 128.05434,219.2264 a 0.6982038,0.6982038 0 0 1 -0.62508,0.76325 0.6982038,0.6982038 0 0 1 -0.76434,-0.62375 0.6982038,0.6982038 0 0 1 0.62241,-0.76543 0.6982038,0.6982038 0 0 1 0.76652,0.62107" />
    <path
       style="opacity:0.99;fill:#000000;fill-opacity:0.12;stroke:none;stroke-width:0.264583;stroke-linejoin:round;stroke-dasharray:none;stroke-opacity:1;marker-start:none;marker-end:none"
       d="m 135.31429,230.68488 c -4.91934,-1.71437 -10.19464,-2.44198 -16.70038,-2.30343 l -4.34435,0.0925 -0.47365,-2.63294 c -0.32792,-1.82283 -0.47829,-4.01013 -0.48871,-7.10894 -0.0181,-5.37251 0.56511,-9.15477 2.13595,-13.85302 0.98635,-2.95007 3.36899,-8.14726 4.06376,-8.86416 0.2646,-0.27302 0.82457,-0.14023 2.94225,0.69771 7.02795,2.78085 10.8921,3.5889 17.16252,3.5889 4.40149,0 5.24124,0.0943 4.56461,0.51245 -0.50879,0.31445 -2.79665,4.05925 -3.86565,6.32735 -1.29641,2.7506 -2.25795,5.65636 -2.92064,8.82619 -0.67712,3.23884 -0.62848,10.08174 0.0941,13.23051 0.34138,1.48773 0.42711,2.2903 0.24201,2.26565 -0.15765,-0.021 -1.24295,-0.37145 -2.41178,-0.77879 z m -2.90024,-19.37096 c 2.27706,-0.56411 6.37956,-2.71865 5.17662,-2.71865 -0.15113,0 -0.94416,0.34276 -1.76229,0.76167 l -1.48752,0.76167 -1.18765,-0.75319 c -1.99141,-1.26291 -3.5071,-1.63578 -6.13802,-1.50999 -2.03878,0.0975 -2.5682,0.231 -4.16558,1.05056 l -1.82996,0.93889 -1.59781,-0.88559 c -1.09446,-0.6066 -1.59781,-0.77223 -1.59781,-0.52576 0,0.4433 3.19331,2.15013 5.05959,2.70436 2.94531,0.87466 6.4491,0.93938 9.53043,0.17603 z"
       id="path1098" />
  </g>
</svg>
