<?xml version="1.0" encoding="UTF-8" standalone="no"?>
<!-- Created with Inkscape (http://www.inkscape.org/) -->

<svg
   width="240mm"
   height="50mm"
   viewBox="0 0 240 50"
   version="1.1"
   id="svg8"
   inkscape:version="1.1.1 (c3084ef, 2021-09-22)"
   sodipodi:docname="fundamental-group-hole-detector.svg"
   xmlns:inkscape="http://www.inkscape.org/namespaces/inkscape"
   xmlns:sodipodi="http://sodipodi.sourceforge.net/DTD/sodipodi-0.dtd"
   xmlns="http://www.w3.org/2000/svg"
   xmlns:svg="http://www.w3.org/2000/svg"
   xmlns:rdf="http://www.w3.org/1999/02/22-rdf-syntax-ns#"
   xmlns:cc="http://creativecommons.org/ns#"
   xmlns:dc="http://purl.org/dc/elements/1.1/">
  <defs
     id="defs2">
    <inkscape:path-effect
       effect="spiro"
       id="path-effect1079"
       is_visible="true"
       lpeversion="1" />
    <inkscape:path-effect
       effect="spiro"
       id="path-effect2692"
       is_visible="true"
       lpeversion="1" />
    <inkscape:path-effect
       effect="spiro"
       id="path-effect1304"
       is_visible="true"
       lpeversion="1" />
    <inkscape:path-effect
       effect="spiro"
       id="path-effect1300"
       is_visible="true"
       lpeversion="1" />
    <inkscape:path-effect
       effect="spiro"
       id="path-effect1169"
       is_visible="true"
       lpeversion="1" />
    <inkscape:path-effect
       effect="spiro"
       id="path-effect880"
       is_visible="true"
       lpeversion="1" />
    <inkscape:path-effect
       effect="spiro"
       id="path-effect2124"
       is_visible="true"
       lpeversion="1" />
  </defs>
  <sodipodi:namedview
     id="base"
     pagecolor="#ffffff"
     bordercolor="#666666"
     borderopacity="1.0"
     inkscape:pageopacity="0.0"
     inkscape:pageshadow="2"
     inkscape:zoom="2.0052445"
     inkscape:cx="458.79692"
     inkscape:cy="86.273769"
     inkscape:document-units="mm"
     inkscape:current-layer="layer1"
     showgrid="false"
     showborder="true"
     width="200mm"
     showguides="true"
     inkscape:guide-bbox="true"
     inkscape:window-width="985"
     inkscape:window-height="512"
     inkscape:window-x="0"
     inkscape:window-y="38"
     inkscape:window-maximized="0"
     inkscape:pagecheckerboard="0">
    <inkscape:grid
       type="xygrid"
       id="grid815"
       units="mm"
       spacingx="10"
       spacingy="10"
       empspacing="4"
       dotted="false" />
  </sodipodi:namedview>
  <metadata
     id="metadata5">
    <rdf:RDF>
      <cc:Work
         rdf:about="">
        <dc:format>image/svg+xml</dc:format>
        <dc:type
           rdf:resource="http://purl.org/dc/dcmitype/StillImage" />
      </cc:Work>
    </rdf:RDF>
  </metadata>
  <g
     inkscape:label="Layer 1"
     inkscape:groupmode="layer"
     id="layer1"
     transform="translate(0,-177)">
    <path
       style="fill:none;stroke:#000000;stroke-width:0.264583px;stroke-linecap:butt;stroke-linejoin:miter;stroke-opacity:1"
       d="m 80.933021,180.43226 -23.544924,40.781"
       id="path878"
       inkscape:path-effect="#path-effect880"
       inkscape:original-d="m 80.933021,180.43226 -23.544924,40.781" />
    <path
       style="fill:none;stroke:#000000;stroke-width:0.264583px;stroke-linecap:butt;stroke-linejoin:miter;stroke-opacity:1"
       d="M 57.388097,221.21326 H 159.39079"
       id="path1167"
       inkscape:path-effect="#path-effect1169"
       inkscape:original-d="m 57.388097,221.21326 c 34.001159,2.6e-4 68.002063,2.6e-4 102.002693,0" />
    <path
       style="fill:none;stroke:#000000;stroke-width:0.264583px;stroke-linecap:butt;stroke-linejoin:miter;stroke-opacity:1"
       d="m 182.93572,180.43226 -23.54492,40.781"
       id="path878-7"
       inkscape:path-effect="#path-effect1300"
       inkscape:original-d="m 182.93572,180.43226 -23.54492,40.781" />
    <path
       style="fill:none;stroke:#000000;stroke-width:0.264583px;stroke-linecap:butt;stroke-linejoin:miter;stroke-opacity:1"
       d="M 80.933021,180.43226 H 182.93572"
       id="path1167-0"
       inkscape:path-effect="#path-effect1304"
       inkscape:original-d="m 80.933021,180.43226 c 34.001169,2.6e-4 68.002069,2.6e-4 102.002699,0" />
    <path
       style="font-variation-settings:normal;opacity:0.99;fill:#000000;fill-opacity:1;fill-rule:evenodd;stroke:#000000;stroke-width:0.265;stroke-linecap:butt;stroke-linejoin:round;stroke-miterlimit:4;stroke-dasharray:none;stroke-dashoffset:0;stroke-opacity:1;stop-color:#000000;stop-opacity:1"
       id="path1330"
       sodipodi:type="arc"
       sodipodi:cx="93.631554"
       sodipodi:cy="210.23947"
       sodipodi:rx="0.68264604"
       sodipodi:ry="0.68264604"
       sodipodi:start="6.1848709"
       sodipodi:end="6.1778721"
       sodipodi:open="true"
       sodipodi:arc-type="arc"
       d="m 94.310903,210.17247 a 0.68264604,0.68264604 0 0 1 -0.611155,0.74623 0.68264604,0.68264604 0 0 1 -0.747305,-0.60985 0.68264604,0.68264604 0 0 1 0.60854,-0.74837 0.68264604,0.68264604 0 0 1 0.749435,0.60723" />
    <path
       style="font-variation-settings:normal;opacity:0.99;fill:none;fill-opacity:1;fill-rule:evenodd;stroke:#000000;stroke-width:0.265;stroke-linecap:butt;stroke-linejoin:round;stroke-miterlimit:4;stroke-dasharray:none;stroke-dashoffset:0;stroke-opacity:1;stop-color:#000000;stop-opacity:1"
       id="path1967"
       sodipodi:type="arc"
       sodipodi:cx="95.022049"
       sodipodi:cy="196.68721"
       sodipodi:rx="1.2799612"
       sodipodi:ry="1.2799612"
       sodipodi:start="6.1848709"
       sodipodi:end="6.1778721"
       sodipodi:open="true"
       sodipodi:arc-type="arc"
       d="m 96.295829,196.56157 a 1.2799612,1.2799612 0 0 1 -1.145916,1.3992 1.2799612,1.2799612 0 0 1 -1.401197,-1.14347 1.2799612,1.2799612 0 0 1 1.141013,-1.40319 1.2799612,1.2799612 0 0 1 1.40519,1.13855" />
    <path
       style="font-variation-settings:normal;opacity:0.99;fill:none;fill-opacity:1;fill-rule:evenodd;stroke:#000000;stroke-width:0.265;stroke-linecap:butt;stroke-linejoin:round;stroke-miterlimit:4;stroke-dasharray:none;stroke-dashoffset:0;stroke-opacity:1;stop-color:#000000;stop-opacity:1"
       id="path1967-5"
       sodipodi:type="arc"
       sodipodi:cx="126.21783"
       sodipodi:cy="212.56555"
       sodipodi:rx="1.2799612"
       sodipodi:ry="1.2799612"
       sodipodi:start="6.1848709"
       sodipodi:end="6.1778721"
       sodipodi:open="true"
       sodipodi:arc-type="arc"
       d="m 127.49161,212.43992 a 1.2799612,1.2799612 0 0 1 -1.14592,1.39919 1.2799612,1.2799612 0 0 1 -1.4012,-1.14347 1.2799612,1.2799612 0 0 1 1.14102,-1.40319 1.2799612,1.2799612 0 0 1 1.40519,1.13855" />
    <path
       style="font-variation-settings:normal;opacity:0.99;fill:none;fill-opacity:1;fill-rule:evenodd;stroke:#000000;stroke-width:0.265;stroke-linecap:butt;stroke-linejoin:round;stroke-miterlimit:4;stroke-dasharray:none;stroke-dashoffset:0;stroke-opacity:1;stop-color:#000000;stop-opacity:1"
       id="path1967-9"
       sodipodi:type="arc"
       sodipodi:cx="135.22508"
       sodipodi:cy="195.91103"
       sodipodi:rx="1.2799612"
       sodipodi:ry="1.2799612"
       sodipodi:start="6.1848709"
       sodipodi:end="6.1778721"
       sodipodi:open="true"
       sodipodi:arc-type="arc"
       d="m 136.49886,195.78539 a 1.2799612,1.2799612 0 0 1 -1.14591,1.39919 1.2799612,1.2799612 0 0 1 -1.4012,-1.14346 1.2799612,1.2799612 0 0 1 1.14101,-1.4032 1.2799612,1.2799612 0 0 1 1.40519,1.13856" />
    <path
       style="fill:none;stroke:#0000ff;stroke-width:0.264583px;stroke-linecap:butt;stroke-linejoin:miter;stroke-opacity:1"
       d="m 93.781259,210.16771 c 0.806028,-0.0575 1.60471,-0.21721 2.370841,-0.47417 1.99915,-0.67051 3.727384,-1.98368 5.21584,-3.47723 3.39176,-3.40336 5.67751,-7.77161 9.00741,-11.23552 3.43582,-3.57409 7.88943,-6.06644 12.58594,-7.65444 4.69652,-1.58799 9.64558,-2.30765 14.58889,-2.68536 1.71401,-0.13097 3.44139,-0.22149 5.14865,-0.0208 1.70726,0.20064 3.40559,0.70626 4.82143,1.68113 1.4041,0.96679 2.48154,2.36616 3.19764,3.91322 0.71611,1.54706 1.08326,3.2393 1.22792,4.93791 0.11221,1.31762 0.0926,2.65299 -0.15806,3.9514 -0.70589,3.65588 -3.1837,6.73873 -6.00612,9.16724 -5.62338,4.83857 -12.7862,7.61798 -20.07309,9.00918 -7.15792,1.36658 -14.78712,1.42347 -21.49561,-1.4225 -0.69451,-0.29463 -1.37601,-0.61894 -2.05472,-0.94834 -0.74192,-0.36007 -1.48087,-0.72639 -2.21278,-1.10639 -2.118128,-1.09969 -4.176845,-2.31381 -6.164181,-3.63528 z"
       id="path2690"
       inkscape:path-effect="#path-effect2692"
       inkscape:original-d="m 93.781259,210.16771 c 0.97393,0 1.167162,0.0554 2.370841,-0.47417 1.87,-0.82281 0,0 5.21584,-3.47723 9.03723,-6.0538 0,0 9.00741,-11.23552 9.35322,-10.45708 18.55661,-9.21462 27.17483,-10.3398 6.81612,-0.94032 9.55889,1.409 9.97008,1.66028 3.52337,2.15318 4.42556,4.88319 4.42556,8.85113 0,0.91016 0.0569,3.02001 -0.15806,3.9514 -0.8221,3.56243 -3.5514,6.62484 -6.00612,9.16724 -5.2347,5.42165 -12.57834,8.5928 -20.07309,9.00918 -7.07541,-0.0138 -15.30208,0.23727 -21.49561,-1.4225 -0.46003,-0.1278 -1.60297,-0.72246 -2.05472,-0.94834 -0.7376,-0.3688 -1.50046,-0.69087 -2.21278,-1.10639 -2.21568,-1.28566 -4.01451,-2.55875 -6.164181,-3.63528 z"
       sodipodi:nodetypes="cccccsscsccscc" />
    <path
       style="fill:none;stroke:#ef0000;stroke-width:0.264583px;stroke-linecap:butt;stroke-linejoin:miter;stroke-opacity:1"
       d="m 93.781259,210.16771 c -1.995144,-1.4314 -3.572179,-3.43854 -4.490907,-5.7157 -1.201426,-2.97786 -1.243843,-6.42969 0,-9.39008 0.610953,-1.45409 1.519722,-2.78229 2.653717,-3.87851 0.710532,-0.92661 1.622287,-1.69809 2.653718,-2.24546 1.113081,-0.5907 2.383004,-0.92039 3.638744,-0.81557 1.25574,0.10481 2.490589,0.66779 3.301749,1.6321 0.46373,0.55129 0.78117,1.21879 0.95505,1.91788 0.17389,0.6991 0.2068,1.42938 0.13656,2.14635 -0.14047,1.43392 -0.68443,2.79638 -1.29574,4.10106 -0.78835,1.68253 -1.697589,3.306 -2.65372,4.89917 -1.515527,2.52528 -3.151038,4.97855 -4.899171,7.34876 z"
       id="path1077"
       inkscape:path-effect="#path-effect1079"
       inkscape:original-d="m 93.781259,210.16771 c -1.284824,-2.02405 -3.413807,-3.5615 -4.490907,-5.7157 -1.324264,-2.64853 -1.149792,-6.70724 0,-9.39008 0.649427,-1.51533 1.604761,-2.65473 2.653717,-3.87851 0.775053,-1.25065 1.413724,-1.92842 2.653718,-2.24546 2.408576,-0.65688 5.204693,-1.49787 6.940493,0.81653 1.34039,1.78718 0.46729,6.41959 -0.20413,8.16529 -0.66864,1.73847 -1.827493,3.24671 -2.65372,4.89917 -1.25578,2.52451 -2.926165,5.20502 -4.899171,7.34876 z"
       sodipodi:nodetypes="cssccsscc" />
  </g>
</svg>
