<?xml version="1.0" encoding="UTF-8" standalone="no"?>
<!-- Created with Inkscape (http://www.inkscape.org/) -->

<svg
   width="240mm"
   height="50mm"
   viewBox="0 0 240 50"
   version="1.1"
   id="svg8"
   inkscape:version="1.1.1 (c3084ef, 2021-09-22)"
   sodipodi:docname="fundamental-group-hole-detector.svg"
   xmlns:inkscape="http://www.inkscape.org/namespaces/inkscape"
   xmlns:sodipodi="http://sodipodi.sourceforge.net/DTD/sodipodi-0.dtd"
   xmlns="http://www.w3.org/2000/svg"
   xmlns:svg="http://www.w3.org/2000/svg"
   xmlns:rdf="http://www.w3.org/1999/02/22-rdf-syntax-ns#"
   xmlns:cc="http://creativecommons.org/ns#"
   xmlns:dc="http://purl.org/dc/elements/1.1/">
  <defs
     id="defs2">
    <inkscape:path-effect
       effect="spiro"
       id="path-effect1079"
       is_visible="true"
       lpeversion="1" />
    <inkscape:path-effect
       effect="spiro"
       id="path-effect2692"
       is_visible="true"
       lpeversion="1" />
    <inkscape:path-effect
       effect="spiro"
       id="path-effect1304"
       is_visible="true"
       lpeversion="1" />
    <inkscape:path-effect
       effect="spiro"
       id="path-effect1300"
       is_visible="true"
       lpeversion="1" />
    <inkscape:path-effect
       effect="spiro"
       id="path-effect1169"
       is_visible="true"
       lpeversion="1" />
    <inkscape:path-effect
       effect="spiro"
       id="path-effect880"
       is_visible="true"
       lpeversion="1" />
    <inkscape:path-effect
       effect="spiro"
       id="path-effect2124"
       is_visible="true"
       lpeversion="1" />
  </defs>
  <sodipodi:namedview
     id="base"
     pagecolor="#ffffff"
     bordercolor="#666666"
     borderopacity="1.0"
     inkscape:pageopacity="0.0"
     inkscape:pageshadow="2"
     inkscape:zoom="0.99046892"
     inkscape:cx="483.10451"
     inkscape:cy="92.885297"
     inkscape:document-units="mm"
     inkscape:current-layer="layer1"
     showgrid="false"
     showborder="true"
     width="200mm"
     showguides="true"
     inkscape:guide-bbox="true"
     inkscape:window-width="1280"
     inkscape:window-height="680"
     inkscape:window-x="1728"
     inkscape:window-y="25"
     inkscape:window-maximized="0"
     inkscape:pagecheckerboard="0">
    <inkscape:grid
       type="xygrid"
       id="grid815"
       units="mm"
       spacingx="10"
       spacingy="10"
       empspacing="4"
       dotted="false" />
  </sodipodi:namedview>
  <metadata
     id="metadata5">
    <rdf:RDF>
      <cc:Work
         rdf:about="">
        <dc:format>image/svg+xml</dc:format>
        <dc:type
           rdf:resource="http://purl.org/dc/dcmitype/StillImage" />
      </cc:Work>
    </rdf:RDF>
  </metadata>
  <g
     inkscape:label="Layer 1"
     inkscape:groupmode="layer"
     id="layer1"
     transform="translate(0,-177)">
    <path
       style="fill:none;stroke:black;stroke-width:0.70220417;stroke-linecap:butt;stroke-linejoin:miter;stroke-opacity:1;stroke-dasharray:none;fill-opacity:1;marker-start:none;marker-end:none"
       d="m 80.933021,180.43226 -23.544924,40.781"
       id="path878"
       inkscape:path-effect="#path-effect880"
       inkscape:original-d="m 80.933021,180.43226 -23.544924,40.781" />
    <path
       style="fill:none;stroke:black;stroke-width:0.70220417;stroke-linecap:butt;stroke-linejoin:miter;stroke-opacity:1;stroke-dasharray:none;fill-opacity:1;marker-start:none;marker-end:none"
       d="M 57.388097,221.21326 H 159.39079"
       id="path1167"
       inkscape:path-effect="#path-effect1169"
       inkscape:original-d="m 57.388097,221.21326 c 34.001159,2.6e-4 68.002063,2.6e-4 102.002693,0" />
    <path
       style="fill:none;stroke:black;stroke-width:0.70220417;stroke-linecap:butt;stroke-linejoin:miter;stroke-opacity:1;stroke-dasharray:none;fill-opacity:1;marker-start:none;marker-end:none"
       d="m 182.93572,180.43226 -23.54492,40.781"
       id="path878-7"
       inkscape:path-effect="#path-effect1300"
       inkscape:original-d="m 182.93572,180.43226 -23.54492,40.781" />
    <path
       style="fill:none;stroke:black;stroke-width:0.70220417;stroke-linecap:butt;stroke-linejoin:miter;stroke-opacity:1;stroke-dasharray:none;fill-opacity:1;marker-start:none;marker-end:none"
       d="M 80.933021,180.43226 H 182.93572"
       id="path1167-0"
       inkscape:path-effect="#path-effect1304"
       inkscape:original-d="m 80.933021,180.43226 c 34.001169,2.6e-4 68.002069,2.6e-4 102.002699,0" />
    <path
       style="font-variation-settings:normal;opacity:0.99;fill:none;fill-opacity:1;fill-rule:evenodd;stroke:black;stroke-width:0.70220417;stroke-linecap:butt;stroke-linejoin:round;stroke-miterlimit:4;stroke-dasharray:none;stroke-dashoffset:0;stroke-opacity:1;stop-color:#000000;stop-opacity:1;marker-start:none;marker-end:none"
       id="path1967"
       sodipodi:type="arc"
       sodipodi:cx="95.022049"
       sodipodi:cy="196.68721"
       sodipodi:rx="1.2799612"
       sodipodi:ry="1.2799612"
       sodipodi:start="6.1848709"
       sodipodi:end="6.1778721"
       sodipodi:open="true"
       sodipodi:arc-type="arc"
       d="m 96.295829,196.56157 a 1.2799612,1.2799612 0 0 1 -1.145916,1.3992 1.2799612,1.2799612 0 0 1 -1.401197,-1.14347 1.2799612,1.2799612 0 0 1 1.141013,-1.40319 1.2799612,1.2799612 0 0 1 1.40519,1.13855" />
    <path
       style="font-variation-settings:normal;opacity:0.99;fill:none;fill-opacity:1;fill-rule:evenodd;stroke:black;stroke-width:0.70220417;stroke-linecap:butt;stroke-linejoin:round;stroke-miterlimit:4;stroke-dasharray:none;stroke-dashoffset:0;stroke-opacity:1;stop-color:#000000;stop-opacity:1;marker-start:none;marker-end:none"
       id="path1967-5"
       sodipodi:type="arc"
       sodipodi:cx="126.21783"
       sodipodi:cy="212.56555"
       sodipodi:rx="1.2799612"
       sodipodi:ry="1.2799612"
       sodipodi:start="6.1848709"
       sodipodi:end="6.1778721"
       sodipodi:open="true"
       sodipodi:arc-type="arc"
       d="m 127.49161,212.43992 a 1.2799612,1.2799612 0 0 1 -1.14592,1.39919 1.2799612,1.2799612 0 0 1 -1.4012,-1.14347 1.2799612,1.2799612 0 0 1 1.14102,-1.40319 1.2799612,1.2799612 0 0 1 1.40519,1.13855" />
    <path
       style="font-variation-settings:normal;opacity:0.99;fill:none;fill-opacity:1;fill-rule:evenodd;stroke:black;stroke-width:0.70220417;stroke-linecap:butt;stroke-linejoin:round;stroke-miterlimit:4;stroke-dasharray:none;stroke-dashoffset:0;stroke-opacity:1;stop-color:#000000;stop-opacity:1;marker-start:none;marker-end:none"
       id="path1967-9"
       sodipodi:type="arc"
       sodipodi:cx="142.4821"
       sodipodi:cy="195.64714"
       sodipodi:rx="1.2799612"
       sodipodi:ry="1.2799612"
       sodipodi:start="6.1848709"
       sodipodi:end="6.1778721"
       sodipodi:open="true"
       sodipodi:arc-type="arc"
       d="m 143.75588,195.5215 a 1.2799612,1.2799612 0 0 1 -1.14591,1.3992 1.2799612,1.2799612 0 0 1 -1.4012,-1.14347 1.2799612,1.2799612 0 0 1 1.14101,-1.40319 1.2799612,1.2799612 0 0 1 1.40519,1.13855" />
    <path
       style="fill:none;stroke:black;stroke-width:0.70220417;stroke-linecap:butt;stroke-linejoin:miter;stroke-opacity:1;stroke-dasharray:none;fill-opacity:1;marker-start:none;marker-end:none"
       d="m 93.781259,210.16771 c 0.78271,-0.19318 1.574038,-0.35145 2.370841,-0.47417 5.04144,-0.77646 10.17571,-0.11968 15.26774,0.1807 5.09203,0.30039 10.39014,0.20303 15.01778,-1.94264 2.6365,-1.22245 5.03851,-3.17805 6.23655,-5.82574 0.64296,-1.42095 0.91699,-2.98266 1.04317,-4.53719 0.12618,-1.55453 0.11032,-3.11722 0.20387,-4.67405 0.0935,-1.55684 0.30067,-3.12355 0.85301,-4.58211 0.55234,-1.45856 1.47468,-2.81177 2.77596,-3.67152 1.51461,-1.0007 3.45343,-1.25737 5.23086,-0.88837 1.77744,0.369 3.39824,1.32505 4.73922,2.54865 2.49062,2.27261 4.06255,5.49909 4.42556,8.85113 0.14249,1.31574 0.10566,2.65451 -0.15806,3.9514 -0.74115,3.64473 -3.21098,6.71355 -6.00612,9.16724 -5.58727,4.90474 -12.72164,7.90003 -20.07309,9.00918 -11.02982,1.66413 -22.64686,-0.92383 -31.927291,-7.11251 z"
       id="path2690"
       inkscape:path-effect="#path-effect2692"
       inkscape:original-d="m 93.781259,210.16771 c 0.97393,0 1.167162,0.0554 2.370841,-0.47417 1.87,-0.82281 25.06968,1.71529 30.28552,-1.76194 9.03723,-6.0538 -2.77086,5.40978 6.23655,-5.82574 9.35322,-10.45708 -3.74221,-16.33969 4.87601,-17.46487 6.81612,-0.94032 9.55889,1.409 9.97008,1.66028 3.52337,2.15318 4.42556,4.88319 4.42556,8.85113 0,0.91016 0.0569,3.02001 -0.15806,3.9514 -0.8221,3.56243 -3.5514,6.62484 -6.00612,9.16724 -5.2347,5.42165 -12.57834,8.5928 -20.07309,9.00918 -13.42462,0.20683 -21.64863,-1.90022 -31.927291,-7.11251 z"
       sodipodi:nodetypes="cccccsscscc" />
    <path
       style="fill:none;stroke:black;stroke-width:0.70220417;stroke-linecap:butt;stroke-linejoin:miter;stroke-opacity:1;stroke-dasharray:none;fill-opacity:1;marker-start:none;marker-end:none"
       d="m 93.781259,210.16771 c -1.995144,-1.4314 -3.572179,-3.43854 -4.490907,-5.7157 -1.201426,-2.97786 -1.243843,-6.42969 0,-9.39008 0.610953,-1.45409 1.519722,-2.78229 2.653717,-3.87851 0.710532,-0.92661 1.622287,-1.69809 2.653718,-2.24546 1.113081,-0.5907 2.383004,-0.92039 3.638744,-0.81557 1.25574,0.10481 2.490589,0.66779 3.301749,1.6321 0.46373,0.55129 0.78117,1.21879 0.95505,1.91788 0.17389,0.6991 0.2068,1.42938 0.13656,2.14635 -0.14047,1.43392 -0.68443,2.79638 -1.29574,4.10106 -0.78835,1.68253 -1.697589,3.306 -2.65372,4.89917 -1.515527,2.52528 -3.151038,4.97855 -4.899171,7.34876 z"
       id="path1077"
       inkscape:path-effect="#path-effect1079"
       inkscape:original-d="m 93.781259,210.16771 c -1.284824,-2.02405 -3.413807,-3.5615 -4.490907,-5.7157 -1.324264,-2.64853 -1.149792,-6.70724 0,-9.39008 0.649427,-1.51533 1.604761,-2.65473 2.653717,-3.87851 0.775053,-1.25065 1.413724,-1.92842 2.653718,-2.24546 2.408576,-0.65688 5.204693,-1.49787 6.940493,0.81653 1.34039,1.78718 0.46729,6.41959 -0.20413,8.16529 -0.66864,1.73847 -1.827493,3.24671 -2.65372,4.89917 -1.25578,2.52451 -2.926165,5.20502 -4.899171,7.34876 z"
       sodipodi:nodetypes="cssccsscc" />
    <path
       style="font-variation-settings:normal;opacity:0.99;fill:#000000;fill-opacity:1;fill-rule:evenodd;stroke:#000000;stroke-width:0.265;stroke-linecap:butt;stroke-linejoin:round;stroke-miterlimit:4;stroke-dasharray:none;stroke-dashoffset:0;stroke-opacity:1;stop-color:#000000;stop-opacity:1"
       id="path1330"
       sodipodi:type="arc"
       sodipodi:cx="93.631554"
       sodipodi:cy="210.23947"
       sodipodi:rx="0.68264604"
       sodipodi:ry="0.68264604"
       sodipodi:start="6.1848709"
       sodipodi:end="6.1778721"
       sodipodi:open="true"
       sodipodi:arc-type="arc"
       d="m 94.310903,210.17247 a 0.68264604,0.68264604 0 0 1 -0.611155,0.74623 0.68264604,0.68264604 0 0 1 -0.747305,-0.60985 0.68264604,0.68264604 0 0 1 0.60854,-0.74837 0.68264604,0.68264604 0 0 1 0.749435,0.60723" />
  </g>
</svg>
