<?xml version="1.0" encoding="UTF-8" standalone="no"?>
<!-- Created with Inkscape (http://www.inkscape.org/) -->

<svg
   width="240mm"
   height="38mm"
   viewBox="0 0 240 38"
   version="1.1"
   id="svg8"
   inkscape:version="1.1.1 (c3084ef, 2021-09-22)"
   sodipodi:docname="lec-41-3.svg"
   xmlns:inkscape="http://www.inkscape.org/namespaces/inkscape"
   xmlns:sodipodi="http://sodipodi.sourceforge.net/DTD/sodipodi-0.dtd"
   xmlns="http://www.w3.org/2000/svg"
   xmlns:svg="http://www.w3.org/2000/svg"
   xmlns:rdf="http://www.w3.org/1999/02/22-rdf-syntax-ns#"
   xmlns:cc="http://creativecommons.org/ns#"
   xmlns:dc="http://purl.org/dc/elements/1.1/">
  <defs
     id="defs2">
    <inkscape:path-effect
       effect="spiro"
       id="path-effect4811"
       is_visible="true"
       lpeversion="1" />
    <inkscape:path-effect
       effect="spiro"
       id="path-effect4347"
       is_visible="true"
       lpeversion="1" />
    <inkscape:path-effect
       effect="spiro"
       id="path-effect903"
       is_visible="true"
       lpeversion="1" />
    <inkscape:path-effect
       effect="spiro"
       id="path-effect899"
       is_visible="true"
       lpeversion="1" />
    <inkscape:path-effect
       effect="spiro"
       id="path-effect895"
       is_visible="true"
       lpeversion="1" />
    <inkscape:path-effect
       effect="spiro"
       id="path-effect858"
       is_visible="true"
       lpeversion="1" />
  </defs>
  <sodipodi:namedview
     id="base"
     pagecolor="#ffffff"
     bordercolor="#666666"
     borderopacity="1.0"
     inkscape:pageopacity="0.0"
     inkscape:pageshadow="2"
     inkscape:zoom="2.5214338"
     inkscape:cx="670.05528"
     inkscape:cy="119.97142"
     inkscape:document-units="mm"
     inkscape:current-layer="layer1"
     showgrid="false"
     showborder="true"
     width="200mm"
     showguides="false"
     inkscape:guide-bbox="true"
     inkscape:window-width="932"
     inkscape:window-height="512"
     inkscape:window-x="0"
     inkscape:window-y="38"
     inkscape:window-maximized="0"
     inkscape:pagecheckerboard="0">
    <inkscape:grid
       type="xygrid"
       id="grid815"
       units="mm"
       spacingx="10"
       spacingy="10"
       empspacing="4"
       dotted="false" />
  </sodipodi:namedview>
  <metadata
     id="metadata5">
    <rdf:RDF>
      <cc:Work
         rdf:about="">
        <dc:format>image/svg+xml</dc:format>
        <dc:type
           rdf:resource="http://purl.org/dc/dcmitype/StillImage" />
      </cc:Work>
    </rdf:RDF>
  </metadata>
  <g
     inkscape:label="Layer 1"
     inkscape:groupmode="layer"
     id="layer1"
     transform="translate(0,-177)">
    <path
       style="fill:none;stroke:#000000;stroke-width:0.264583px;stroke-linecap:butt;stroke-linejoin:miter;stroke-opacity:1"
       d="m 50.873787,179.35766 c -4.817541,-1.44235 -10.257992,-0.63899 -14.453041,2.13422 -4.195049,2.7732 -7.065661,7.46398 -7.626036,12.46149 -0.536269,4.78252 1.043067,9.76389 4.236964,13.36377 3.193897,3.59988 7.951732,5.76121 12.764083,5.79831"
       id="path856"
       inkscape:path-effect="#path-effect858"
       inkscape:original-d="m 50.873787,179.35766 c 0,0 -16.047659,7.23442 -22.079077,14.59571 -6.031418,7.36129 12.566638,11.71209 17.001047,19.16208"
       sodipodi:nodetypes="csc" />
    <path
       style="fill:none;stroke:#000000;stroke-width:0.264583px;stroke-linecap:butt;stroke-linejoin:miter;stroke-opacity:1"
       d="m 45.795757,213.11545 c -3.397706,-4.75854 -5.011116,-10.76058 -4.45724,-16.58135 0.638221,-6.70717 4.180298,-13.08772 9.53527,-17.17644"
       id="path893"
       inkscape:path-effect="#path-effect895"
       inkscape:original-d="m 45.795757,213.11545 c -2.217073,-6.38566 -20.276441,-115.322892 -4.45724,-16.58135 13.069997,81.58133 9.53527,-17.17644 9.53527,-17.17644"
       sodipodi:nodetypes="csc" />
    <path
       style="fill:none;stroke:#000000;stroke-width:0.264583px;stroke-linecap:butt;stroke-linejoin:miter;stroke-opacity:1"
       d="m 50.873787,179.35766 c 5.131023,0.12632 10.149197,2.68905 13.259803,6.77163 3.110606,4.08259 4.249583,9.60095 3.009584,14.58149 -1.108806,4.45359 -4.081737,8.4117 -8.049967,10.71758 -3.96823,2.30588 -8.879108,2.92894 -13.29745,1.68709"
       id="path897"
       inkscape:path-effect="#path-effect899"
       inkscape:original-d="m 50.873787,179.35766 c 5.410565,5.58795 10.859351,15.7657 16.269387,21.35312 5.410033,5.58743 -14.340372,3.18081 -21.347417,12.40467"
       sodipodi:nodetypes="csc" />
    <path
       style="fill:none;stroke:#000000;stroke-width:0.264583px;stroke-linecap:butt;stroke-linejoin:miter;stroke-opacity:1"
       d="m 50.873787,179.35766 c 3.227609,5.05123 4.626015,11.24455 3.881954,17.19255 -0.797438,6.3747 -4.06127,12.40888 -8.959984,16.56524"
       id="path901"
       inkscape:path-effect="#path-effect903"
       inkscape:original-d="m 50.873787,179.35766 c 3.281921,7.00705 0.600563,10.18603 3.881954,17.19255 3.281395,7.00652 -4.081581,8.76048 -8.959984,16.56524"
       sodipodi:nodetypes="csc" />
    <path
       style="font-variation-settings:normal;opacity:0.99;vector-effect:none;fill:none;fill-opacity:1;fill-rule:evenodd;stroke:#000000;stroke-width:0.264567;stroke-linecap:butt;stroke-linejoin:round;stroke-miterlimit:4;stroke-dasharray:none;stroke-dashoffset:0;stroke-opacity:1;-inkscape-stroke:none;stop-color:#000000;stop-opacity:1"
       id="path1048"
       sodipodi:type="arc"
       sodipodi:cx="88.961143"
       sodipodi:cy="186.78598"
       sodipodi:rx="6.284699"
       sodipodi:ry="2.9201629"
       sodipodi:start="0.11770456"
       sodipodi:end="3.1504049"
       sodipodi:open="true"
       sodipodi:arc-type="arc"
       d="m 95.202357,187.1289 a 6.284699,2.9201629 0 0 1 -6.638508,2.5714 6.284699,2.9201629 0 0 1 -5.88716,-2.94005"
       transform="rotate(8.2463763)" />
    <path
       style="font-variation-settings:normal;opacity:0.99;vector-effect:none;fill:none;fill-opacity:1;fill-rule:evenodd;stroke:#000000;stroke-width:0.264583;stroke-linecap:butt;stroke-linejoin:round;stroke-miterlimit:4;stroke-dasharray:0.79375, 0.79375;stroke-dashoffset:0;stroke-opacity:1;-inkscape-stroke:none;marker-start:none;marker-end:none;stop-color:#000000;stop-opacity:1"
       id="path1130"
       sodipodi:type="arc"
       sodipodi:cx="88.961143"
       sodipodi:cy="186.78598"
       sodipodi:rx="6.284699"
       sodipodi:ry="2.9201629"
       sodipodi:start="3.2066062"
       sodipodi:end="0.21197048"
       sodipodi:open="true"
       sodipodi:arc-type="arc"
       d="m 82.689722,186.59626 a 6.284699,2.9201629 0 0 1 3.76859,-2.48889 6.284699,2.9201629 0 0 1 6.486693,0.42011 6.284699,2.9201629 0 0 1 2.160175,2.87286"
       transform="rotate(8.2463763)" />
    <path
       style="font-variation-settings:normal;opacity:0.99;vector-effect:none;fill:none;fill-opacity:1;fill-rule:evenodd;stroke:#000000;stroke-width:0.264567;stroke-linecap:butt;stroke-linejoin:round;stroke-miterlimit:4;stroke-dasharray:none;stroke-dashoffset:0;stroke-opacity:1;-inkscape-stroke:none;stop-color:#000000;stop-opacity:1"
       id="path1048-8"
       sodipodi:type="arc"
       sodipodi:cx="67.554985"
       sodipodi:cy="186.5004"
       sodipodi:rx="6.284699"
       sodipodi:ry="2.9201629"
       sodipodi:start="0.11770456"
       sodipodi:end="3.1504049"
       sodipodi:open="true"
       sodipodi:arc-type="arc"
       d="m 73.796199,186.84332 a 6.284699,2.9201629 0 0 1 -6.638509,2.5714 6.284699,2.9201629 0 0 1 -5.88716,-2.94006"
       transform="rotate(9.7415648)" />
    <path
       style="font-variation-settings:normal;opacity:0.99;vector-effect:none;fill:none;fill-opacity:1;fill-rule:evenodd;stroke:#000000;stroke-width:0.264583;stroke-linecap:butt;stroke-linejoin:round;stroke-miterlimit:4;stroke-dasharray:0.79375, 0.79375;stroke-dashoffset:0;stroke-opacity:1;-inkscape-stroke:none;marker-start:none;marker-end:none;stop-color:#000000;stop-opacity:1"
       id="path1130-6"
       sodipodi:type="arc"
       sodipodi:cx="67.554985"
       sodipodi:cy="186.5004"
       sodipodi:rx="6.284699"
       sodipodi:ry="2.9201629"
       sodipodi:start="3.2066062"
       sodipodi:end="0.21197048"
       sodipodi:open="true"
       sodipodi:arc-type="arc"
       d="m 61.283563,186.31068 a 6.284699,2.9201629 0 0 1 3.768591,-2.48889 6.284699,2.9201629 0 0 1 6.486693,0.42011 6.284699,2.9201629 0 0 1 2.160174,2.87286"
       transform="rotate(9.7415648)" />
    <path
       style="font-variation-settings:normal;opacity:0.99;vector-effect:none;fill:#000000;fill-opacity:1;fill-rule:evenodd;stroke:none;stroke-width:0.264567;stroke-linecap:butt;stroke-linejoin:round;stroke-miterlimit:4;stroke-dasharray:none;stroke-dashoffset:0;stroke-opacity:1;-inkscape-stroke:none;marker-start:none;marker-end:none;stop-color:#000000;stop-opacity:1"
       id="path1317"
       sodipodi:type="arc"
       sodipodi:cx="51.032181"
       sodipodi:cy="179.39481"
       sodipodi:rx="0.68857002"
       sodipodi:ry="0.68857002"
       sodipodi:start="3.2066062"
       sodipodi:end="3.195663"
       sodipodi:open="true"
       sodipodi:arc-type="arc"
       d="m 50.345065,179.35007 a 0.68857002,0.68857002 0 0 1 0.729971,-0.6425 0.68857002,0.68857002 0 0 1 0.644495,0.72821 0.68857002,0.68857002 0 0 1 -0.726444,0.64649 0.68857002,0.68857002 0 0 1 -0.64847,-0.72468" />
    <path
       style="font-variation-settings:normal;opacity:0.99;vector-effect:none;fill:#000000;fill-opacity:1;fill-rule:evenodd;stroke:none;stroke-width:0.264567;stroke-linecap:butt;stroke-linejoin:round;stroke-miterlimit:4;stroke-dasharray:none;stroke-dashoffset:0;stroke-opacity:1;-inkscape-stroke:none;marker-start:none;marker-end:none;stop-color:#000000;stop-opacity:1"
       id="path1317-4"
       sodipodi:type="arc"
       sodipodi:cx="125.76469"
       sodipodi:cy="199.07448"
       sodipodi:rx="0.68857002"
       sodipodi:ry="0.68857002"
       sodipodi:start="3.2066062"
       sodipodi:end="3.195663"
       sodipodi:open="true"
       sodipodi:arc-type="arc"
       d="m 125.07757,199.02974 a 0.68857002,0.68857002 0 0 1 0.72997,-0.6425 0.68857002,0.68857002 0 0 1 0.6445,0.72821 0.68857002,0.68857002 0 0 1 -0.72645,0.64649 0.68857002,0.68857002 0 0 1 -0.64847,-0.72467" />
    <path
       style="font-variation-settings:normal;opacity:0.99;vector-effect:none;fill:#000000;fill-opacity:1;fill-rule:evenodd;stroke:none;stroke-width:0.264567;stroke-linecap:butt;stroke-linejoin:round;stroke-miterlimit:4;stroke-dasharray:none;stroke-dashoffset:0;stroke-opacity:1;-inkscape-stroke:none;marker-start:none;marker-end:none;stop-color:#000000;stop-opacity:1"
       id="path1317-7"
       sodipodi:type="arc"
       sodipodi:cx="45.954151"
       sodipodi:cy="213.1526"
       sodipodi:rx="0.68857002"
       sodipodi:ry="0.68857002"
       sodipodi:start="3.2066062"
       sodipodi:end="3.195663"
       sodipodi:open="true"
       sodipodi:arc-type="arc"
       d="m 45.267036,213.10787 a 0.68857002,0.68857002 0 0 1 0.72997,-0.6425 0.68857002,0.68857002 0 0 1 0.644495,0.72821 0.68857002,0.68857002 0 0 1 -0.726444,0.64648 0.68857002,0.68857002 0 0 1 -0.64847,-0.72467" />
    <path
       style="font-variation-settings:normal;opacity:0.99;vector-effect:none;fill:none;fill-opacity:1;fill-rule:evenodd;stroke:#000000;stroke-width:0.264567;stroke-linecap:butt;stroke-linejoin:round;stroke-miterlimit:4;stroke-dasharray:none;stroke-dashoffset:0;stroke-opacity:1;-inkscape-stroke:none;stop-color:#000000;stop-opacity:1"
       id="path3934"
       sodipodi:type="arc"
       sodipodi:cx="111.72938"
       sodipodi:cy="199.3746"
       sodipodi:rx="13.906331"
       sodipodi:ry="13.906331"
       sodipodi:start="3.2066062"
       sodipodi:end="3.195663"
       sodipodi:open="true"
       sodipodi:arc-type="arc"
       d="m 97.852426,198.47114 a 13.906331,13.906331 0 0 1 14.742444,-12.97591 13.906331,13.906331 0 0 1 13.0162,14.70689 13.906331,13.906331 0 0 1 -14.67123,13.05638 13.906331,13.906331 0 0 1 -13.09647,-14.63545" />
    <path
       style="font-variation-settings:normal;opacity:0.99;vector-effect:none;fill:none;fill-opacity:1;fill-rule:evenodd;stroke:#000000;stroke-width:0.264583;stroke-linecap:butt;stroke-linejoin:round;stroke-miterlimit:4;stroke-dasharray:0.79375, 0.79375;stroke-dashoffset:0;stroke-opacity:1;-inkscape-stroke:none;marker-start:none;marker-end:none;stop-color:#000000;stop-opacity:1"
       id="path3958"
       sodipodi:type="arc"
       sodipodi:cx="111.70565"
       sodipodi:cy="198.79865"
       sodipodi:rx="13.891643"
       sodipodi:ry="2.7027583"
       sodipodi:start="3.2066062"
       sodipodi:end="0.11671067"
       sodipodi:open="true"
       sodipodi:arc-type="arc"
       d="m 97.843356,198.62305 a 13.891643,2.7027583 0 0 1 7.928294,-2.26817 13.891643,2.7027583 0 0 1 14.04028,0.24889 13.891643,2.7027583 0 0 1 5.69086,2.5096" />
    <path
       style="font-variation-settings:normal;opacity:0.99;vector-effect:none;fill:none;fill-opacity:1;fill-rule:evenodd;stroke:#000000;stroke-width:0.264567;stroke-linecap:butt;stroke-linejoin:round;stroke-miterlimit:4;stroke-dasharray:none;stroke-dashoffset:0;stroke-opacity:1;-inkscape-stroke:none;stop-color:#000000;stop-opacity:1"
       id="path4040"
       sodipodi:type="arc"
       sodipodi:cx="111.70565"
       sodipodi:cy="198.79865"
       sodipodi:rx="13.891643"
       sodipodi:ry="2.7027583"
       sodipodi:start="0.018660658"
       sodipodi:end="3.1204086"
       sodipodi:open="true"
       sodipodi:arc-type="arc"
       d="m 125.59487,198.84908 a 13.891643,2.7027583 0 0 1 -13.87169,2.65232 13.891643,2.7027583 0 0 1 -13.906055,-2.6455" />
    <path
       style="font-variation-settings:normal;opacity:0.99;vector-effect:none;fill:none;fill-opacity:1;fill-rule:evenodd;stroke:#000000;stroke-width:0.264567;stroke-linecap:butt;stroke-linejoin:round;stroke-miterlimit:4;stroke-dasharray:none;stroke-dashoffset:0;stroke-opacity:1;-inkscape-stroke:none;stop-color:#000000;stop-opacity:1"
       id="path4264"
       sodipodi:type="arc"
       sodipodi:cx="139.77521"
       sodipodi:cy="199.3746"
       sodipodi:rx="13.906331"
       sodipodi:ry="13.906331"
       sodipodi:start="3.2066062"
       sodipodi:end="3.195663"
       sodipodi:open="true"
       sodipodi:arc-type="arc"
       d="m 125.89826,198.47114 a 13.906331,13.906331 0 0 1 14.74244,-12.97591 13.906331,13.906331 0 0 1 13.0162,14.70689 13.906331,13.906331 0 0 1 -14.67123,13.05638 13.906331,13.906331 0 0 1 -13.09647,-14.63545" />
    <path
       style="font-variation-settings:normal;opacity:0.99;vector-effect:none;fill:none;fill-opacity:1;fill-rule:evenodd;stroke:#000000;stroke-width:0.264583;stroke-linecap:butt;stroke-linejoin:round;stroke-miterlimit:4;stroke-dasharray:0.79375, 0.79375;stroke-dashoffset:0;stroke-opacity:1;-inkscape-stroke:none;marker-start:none;marker-end:none;stop-color:#000000;stop-opacity:1"
       id="path4266"
       sodipodi:type="arc"
       sodipodi:cx="139.75148"
       sodipodi:cy="198.79865"
       sodipodi:rx="13.891643"
       sodipodi:ry="2.7027583"
       sodipodi:start="3.2066062"
       sodipodi:end="0.11671067"
       sodipodi:open="true"
       sodipodi:arc-type="arc"
       d="m 125.88919,198.62305 a 13.891643,2.7027583 0 0 1 7.92829,-2.26817 13.891643,2.7027583 0 0 1 14.04028,0.24889 13.891643,2.7027583 0 0 1 5.69086,2.5096" />
    <path
       style="font-variation-settings:normal;opacity:0.99;vector-effect:none;fill:none;fill-opacity:1;fill-rule:evenodd;stroke:#000000;stroke-width:0.264567;stroke-linecap:butt;stroke-linejoin:round;stroke-miterlimit:4;stroke-dasharray:none;stroke-dashoffset:0;stroke-opacity:1;-inkscape-stroke:none;stop-color:#000000;stop-opacity:1"
       id="path4268"
       sodipodi:type="arc"
       sodipodi:cx="139.75148"
       sodipodi:cy="198.79865"
       sodipodi:rx="13.891643"
       sodipodi:ry="2.7027583"
       sodipodi:start="0.018660658"
       sodipodi:end="3.1204086"
       sodipodi:open="true"
       sodipodi:arc-type="arc"
       d="m 153.6407,198.84908 a 13.891643,2.7027583 0 0 1 -13.87169,2.65232 13.891643,2.7027583 0 0 1 -13.90606,-2.6455" />
    <path
       style="font-variation-settings:normal;opacity:0.99;vector-effect:none;fill:#000000;fill-opacity:1;fill-rule:evenodd;stroke:none;stroke-width:0.264567;stroke-linecap:butt;stroke-linejoin:round;stroke-miterlimit:4;stroke-dasharray:none;stroke-dashoffset:0;stroke-opacity:1;-inkscape-stroke:none;marker-start:none;marker-end:none;stop-color:#000000;stop-opacity:1"
       id="path1317-2"
       sodipodi:type="arc"
       sodipodi:cx="111.62934"
       sodipodi:cy="185.66837"
       sodipodi:rx="0.68857002"
       sodipodi:ry="0.68857002"
       sodipodi:start="3.2066062"
       sodipodi:end="3.195663"
       sodipodi:open="true"
       sodipodi:arc-type="arc"
       d="m 110.94223,185.62363 a 0.68857002,0.68857002 0 0 1 0.72997,-0.6425 0.68857002,0.68857002 0 0 1 0.64449,0.72821 0.68857002,0.68857002 0 0 1 -0.72644,0.64648 0.68857002,0.68857002 0 0 1 -0.64847,-0.72467" />
    <path
       style="font-variation-settings:normal;opacity:0.99;vector-effect:none;fill:#000000;fill-opacity:1;fill-rule:evenodd;stroke:none;stroke-width:0.264567;stroke-linecap:butt;stroke-linejoin:round;stroke-miterlimit:4;stroke-dasharray:none;stroke-dashoffset:0;stroke-opacity:1;-inkscape-stroke:none;marker-start:none;marker-end:none;stop-color:#000000;stop-opacity:1"
       id="path4310"
       sodipodi:type="arc"
       sodipodi:cx="139.47508"
       sodipodi:cy="185.66837"
       sodipodi:rx="0.68857002"
       sodipodi:ry="0.68857002"
       sodipodi:start="3.2066062"
       sodipodi:end="3.195663"
       sodipodi:open="true"
       sodipodi:arc-type="arc"
       d="m 138.78797,185.62363 a 0.68857002,0.68857002 0 0 1 0.72997,-0.6425 0.68857002,0.68857002 0 0 1 0.64449,0.72821 0.68857002,0.68857002 0 0 1 -0.72644,0.64648 0.68857002,0.68857002 0 0 1 -0.64847,-0.72467" />
    <path
       style="fill:none;stroke:#000000;stroke-width:0.264583px;stroke-linecap:butt;stroke-linejoin:miter;stroke-opacity:1"
       d="m 111.47096,185.63116 c 2.77133,-4.31557 7.64799,-7.20632 12.76412,-7.56624 2.94307,-0.20704 5.93883,0.39143 8.57646,1.71333 2.63763,1.32191 4.91004,3.36371 6.50559,5.84539"
       id="path4345"
       inkscape:path-effect="#path-effect4347"
       inkscape:original-d="m 111.47096,185.63116 c 4.43136,-2.52181 8.33328,-5.0439 12.76412,-7.56624 4.43083,-2.52235 10.23135,5.03941 15.08205,7.55872"
       sodipodi:nodetypes="csc" />
    <path
       style="font-variation-settings:normal;opacity:0.99;vector-effect:none;fill:#000000;fill-opacity:1;fill-rule:evenodd;stroke:none;stroke-width:0.264567;stroke-linecap:butt;stroke-linejoin:round;stroke-miterlimit:4;stroke-dasharray:none;stroke-dashoffset:0;stroke-opacity:1;-inkscape-stroke:none;marker-start:none;marker-end:none;stop-color:#000000;stop-opacity:1"
       id="path4598"
       sodipodi:type="arc"
       sodipodi:cx="205.13976"
       sodipodi:cy="199.07448"
       sodipodi:rx="0.68857002"
       sodipodi:ry="0.68857002"
       sodipodi:start="3.2066062"
       sodipodi:end="3.195663"
       sodipodi:open="true"
       sodipodi:arc-type="arc"
       d="m 204.45264,199.02974 a 0.68857002,0.68857002 0 0 1 0.72997,-0.6425 0.68857002,0.68857002 0 0 1 0.6445,0.72821 0.68857002,0.68857002 0 0 1 -0.72645,0.64649 0.68857002,0.68857002 0 0 1 -0.64847,-0.72467" />
    <path
       style="font-variation-settings:normal;opacity:0.99;vector-effect:none;fill:none;fill-opacity:1;fill-rule:evenodd;stroke:#000000;stroke-width:0.264567;stroke-linecap:butt;stroke-linejoin:round;stroke-miterlimit:4;stroke-dasharray:none;stroke-dashoffset:0;stroke-opacity:1;-inkscape-stroke:none;stop-color:#000000;stop-opacity:1"
       id="path4600"
       sodipodi:type="arc"
       sodipodi:cx="191.10443"
       sodipodi:cy="199.3746"
       sodipodi:rx="13.906331"
       sodipodi:ry="13.906331"
       sodipodi:start="3.2066062"
       sodipodi:end="3.195663"
       sodipodi:open="true"
       sodipodi:arc-type="arc"
       d="m 177.22748,198.47114 a 13.906331,13.906331 0 0 1 14.74245,-12.97591 13.906331,13.906331 0 0 1 13.01619,14.70689 13.906331,13.906331 0 0 1 -14.67123,13.05638 13.906331,13.906331 0 0 1 -13.09647,-14.63545" />
    <path
       style="font-variation-settings:normal;opacity:0.99;vector-effect:none;fill:none;fill-opacity:1;fill-rule:evenodd;stroke:#000000;stroke-width:0.264583;stroke-linecap:butt;stroke-linejoin:round;stroke-miterlimit:4;stroke-dasharray:0.79375, 0.79375;stroke-dashoffset:0;stroke-opacity:1;-inkscape-stroke:none;marker-start:none;marker-end:none;stop-color:#000000;stop-opacity:1"
       id="path4602"
       sodipodi:type="arc"
       sodipodi:cx="191.0807"
       sodipodi:cy="198.79865"
       sodipodi:rx="13.891643"
       sodipodi:ry="2.7027583"
       sodipodi:start="3.2066062"
       sodipodi:end="0.11671067"
       sodipodi:open="true"
       sodipodi:arc-type="arc"
       d="m 177.21841,198.62305 a 13.891643,2.7027583 0 0 1 7.9283,-2.26817 13.891643,2.7027583 0 0 1 14.04028,0.24889 13.891643,2.7027583 0 0 1 5.69085,2.5096" />
    <path
       style="font-variation-settings:normal;opacity:0.99;vector-effect:none;fill:none;fill-opacity:1;fill-rule:evenodd;stroke:#000000;stroke-width:0.264567;stroke-linecap:butt;stroke-linejoin:round;stroke-miterlimit:4;stroke-dasharray:none;stroke-dashoffset:0;stroke-opacity:1;-inkscape-stroke:none;stop-color:#000000;stop-opacity:1"
       id="path4604"
       sodipodi:type="arc"
       sodipodi:cx="191.0807"
       sodipodi:cy="198.79865"
       sodipodi:rx="13.891643"
       sodipodi:ry="2.7027583"
       sodipodi:start="0.018660658"
       sodipodi:end="3.1204086"
       sodipodi:open="true"
       sodipodi:arc-type="arc"
       d="m 204.96993,198.84908 a 13.891643,2.7027583 0 0 1 -13.8717,2.65232 13.891643,2.7027583 0 0 1 -13.90605,-2.6455" />
    <path
       style="font-variation-settings:normal;opacity:0.99;vector-effect:none;fill:none;fill-opacity:1;fill-rule:evenodd;stroke:#000000;stroke-width:0.264567;stroke-linecap:butt;stroke-linejoin:round;stroke-miterlimit:4;stroke-dasharray:none;stroke-dashoffset:0;stroke-opacity:1;-inkscape-stroke:none;stop-color:#000000;stop-opacity:1"
       id="path4606"
       sodipodi:type="arc"
       sodipodi:cx="219.15028"
       sodipodi:cy="199.3746"
       sodipodi:rx="13.906331"
       sodipodi:ry="13.906331"
       sodipodi:start="3.2066062"
       sodipodi:end="3.195663"
       sodipodi:open="true"
       sodipodi:arc-type="arc"
       d="m 205.27333,198.47114 a 13.906331,13.906331 0 0 1 14.74245,-12.97591 13.906331,13.906331 0 0 1 13.01619,14.70689 13.906331,13.906331 0 0 1 -14.67123,13.05638 13.906331,13.906331 0 0 1 -13.09646,-14.63545" />
    <path
       style="font-variation-settings:normal;opacity:0.99;vector-effect:none;fill:none;fill-opacity:1;fill-rule:evenodd;stroke:#000000;stroke-width:0.264583;stroke-linecap:butt;stroke-linejoin:round;stroke-miterlimit:4;stroke-dasharray:0.79375, 0.79375;stroke-dashoffset:0;stroke-opacity:1;-inkscape-stroke:none;marker-start:none;marker-end:none;stop-color:#000000;stop-opacity:1"
       id="path4608"
       sodipodi:type="arc"
       sodipodi:cx="219.12656"
       sodipodi:cy="198.79865"
       sodipodi:rx="13.891643"
       sodipodi:ry="2.7027583"
       sodipodi:start="3.2066062"
       sodipodi:end="0.11671067"
       sodipodi:open="true"
       sodipodi:arc-type="arc"
       d="m 205.26426,198.62305 a 13.891643,2.7027583 0 0 1 7.9283,-2.26817 13.891643,2.7027583 0 0 1 14.04028,0.24889 13.891643,2.7027583 0 0 1 5.69085,2.5096" />
    <path
       style="font-variation-settings:normal;opacity:0.99;vector-effect:none;fill:none;fill-opacity:1;fill-rule:evenodd;stroke:#000000;stroke-width:0.264567;stroke-linecap:butt;stroke-linejoin:round;stroke-miterlimit:4;stroke-dasharray:none;stroke-dashoffset:0;stroke-opacity:1;-inkscape-stroke:none;stop-color:#000000;stop-opacity:1"
       id="path4610"
       sodipodi:type="arc"
       sodipodi:cx="219.12656"
       sodipodi:cy="198.79865"
       sodipodi:rx="13.891643"
       sodipodi:ry="2.7027583"
       sodipodi:start="0.018660658"
       sodipodi:end="3.1204086"
       sodipodi:open="true"
       sodipodi:arc-type="arc"
       d="m 233.01578,198.84908 a 13.891643,2.7027583 0 0 1 -13.8717,2.65232 13.891643,2.7027583 0 0 1 -13.90605,-2.6455" />
    <path
       style="fill:none;stroke:#000000;stroke-width:0.264583px;stroke-linecap:butt;stroke-linejoin:miter;stroke-opacity:1"
       d="m 204.87784,199.11338 c 0.50906,2.29856 0.20257,4.7692 -0.8527,6.8737 -0.54134,1.07959 -1.26951,2.06022 -1.7704,3.15916 -0.25044,0.54947 -0.44327,1.12973 -0.51469,1.72935 -0.0714,0.59961 -0.0178,1.22049 0.20857,1.78032 0.27352,0.67649 0.79932,1.24551 1.44703,1.58153 0.64772,0.33603 1.41157,0.43852 2.12724,0.29621 0.71568,-0.14232 1.37924,-0.52662 1.86738,-1.06899 0.48813,-0.54238 0.79978,-1.23896 0.89023,-1.96302 0.12319,-0.98621 -0.15597,-1.98322 -0.56395,-2.8895 -0.40798,-0.90628 -0.94433,-1.74905 -1.37863,-2.64302 -1.02768,-2.11538 -1.46505,-4.51378 -1.25021,-6.85574"
       id="path4809"
       inkscape:path-effect="#path-effect4811"
       inkscape:original-d="m 204.87784,199.11338 c -0.46864,4.98958 -0.38353,1.88466 -0.8527,6.8737 -0.46916,4.98905 -0.27543,4.86828 -2.07652,6.66883 -1.80108,1.80056 3.20286,0.17716 6.33188,-1.15427 7.26972,-3.09333 -3.20956,-1.73053 -1.94258,-5.53252 1.26698,-3.802 0.0153,-1.33259 -1.25021,-6.85574"
       sodipodi:nodetypes="cssssc" />
    <text
       xml:space="preserve"
       style="font-size:5.64444px;line-height:1.25;font-family:sans-serif;letter-spacing:0px;word-spacing:0px;stroke-width:0.264583"
       x="78.711571"
       y="200.95105"
       id="text5658"><tspan
         sodipodi:role="line"
         id="tspan5656"
         style="font-size:5.64444px;stroke-width:0.264583"
         x="78.711571"
         y="200.95105">\(\simeq\)</tspan></text>
    <text
       xml:space="preserve"
       style="font-size:5.64444px;line-height:1.25;font-family:sans-serif;letter-spacing:0px;word-spacing:0px;stroke-width:0.264583"
       x="163.37827"
       y="200.95105"
       id="text6798"><tspan
         sodipodi:role="line"
         id="tspan6796"
         style="font-size:5.64444px;stroke-width:0.264583"
         x="163.37827"
         y="200.95105">\(\simeq\)</tspan></text>
  </g>
</svg>
