<?xml version="1.0" encoding="UTF-8" standalone="no"?>
<!-- Created with Inkscape (http://www.inkscape.org/) -->

<svg
   width="240mm"
   height="60mm"
   viewBox="0 0 240 60"
   version="1.1"
   id="svg8"
   inkscape:version="1.1.1 (c3084ef, 2021-09-22)"
   sodipodi:docname="lec11:eg-3:2.svg"
   xmlns:inkscape="http://www.inkscape.org/namespaces/inkscape"
   xmlns:sodipodi="http://sodipodi.sourceforge.net/DTD/sodipodi-0.dtd"
   xmlns="http://www.w3.org/2000/svg"
   xmlns:svg="http://www.w3.org/2000/svg"
   xmlns:rdf="http://www.w3.org/1999/02/22-rdf-syntax-ns#"
   xmlns:cc="http://creativecommons.org/ns#"
   xmlns:dc="http://purl.org/dc/elements/1.1/">
  <defs
     id="defs2">
    <inkscape:path-effect
       effect="spiro"
       id="path-effect3381"
       is_visible="true"
       lpeversion="1" />
    <inkscape:path-effect
       effect="spiro"
       id="path-effect3377"
       is_visible="true"
       lpeversion="1" />
    <inkscape:path-effect
       effect="spiro"
       id="path-effect1819"
       is_visible="true"
       lpeversion="1" />
    <inkscape:path-effect
       effect="spiro"
       id="path-effect1815"
       is_visible="true"
       lpeversion="1" />
    <clipPath
       clipPathUnits="userSpaceOnUse"
       id="clipPath4790-7-5-3">
      <path
         id="path4792-1-6-1"
         style="fill:#ff0000;fill-opacity:1;fill-rule:nonzero;stroke:none;stroke-width:0.264583"
         d="m 136.12967,278.44342 -5.66632,5.3e-4 v 4.36924 c 0.0512,-0.11651 0.0953,-0.23554 0.12247,-0.3607 0.14791,-0.61698 0.51968,-1.16207 0.59118,-1.80247 l 0.002,-5.3e-4 c 0.0316,-0.28317 0.14504,-0.46222 0.28422,-0.55294 0.006,-0.47618 0.24929,-0.71469 0.49299,-0.71469 0.24692,0 0.49403,0.24441 0.49403,0.73329 v 2.83962 0.74672 c -0.005,0.44491 -0.21577,0.63916 -0.4563,0.97772 -0.16504,-0.0185 -0.33001,-0.0372 -0.49506,-0.0558 -0.97165,-0.10917 1.49788,-0.81662 0.52038,-0.83922 -0.14036,-0.004 -0.2808,-0.007 -0.42116,-0.01 -0.0863,0.14541 -0.14223,0.31376 -0.2589,0.43615 -0.0407,0.0422 -0.002,-0.11747 0.009,-0.17467 0.017,-0.0891 0.0462,-0.17581 0.0744,-0.26199 0.004,-0.0117 0.009,-0.033 0.0212,-0.03 0.0123,0.003 0.0177,0.03 0.0196,0.0475 -5.3e-4,-0.0148 -0.001,-0.0418 -0.001,-0.0899 v -0.42272 c -0.0135,0.008 -0.027,0.0163 -0.0408,0.0238 -0.008,0.0237 -0.0186,0.0518 -0.032,0.0863 -0.0972,0.24748 -0.19966,0.48721 -0.32246,0.72037 0.0227,0.05 -0.0687,0.12248 -0.0946,0.1819 -0.002,-1.1e-4 -0.004,5e-5 -0.006,0 -1.9e-4,2.6e-4 -2.5e-4,7.9e-4 -5.3e-4,10e-4 8e-4,0.0149 0.002,0.0292 0.002,0.0439 -9e-5,0.0146 -2.5e-4,0.0293 -5.3e-4,0.0439 0.014,0.17116 0.009,0.34377 0.004,0.51573 0.005,0.11572 0.003,0.23171 -0.002,0.34778 7.9e-4,0.004 0.003,-0.0118 0.007,-0.078 0.0848,0.15059 0.13366,0.33362 0.1111,0.50695 0.006,0.0142 0.0108,0.0337 0.0155,0.0444 0.0927,0.20129 0.16139,0.40268 0.22789,0.6134 0.0444,0.22284 0.1325,0.41815 0.24443,0.61133 0.19018,0.29594 0.22841,0.51414 0.19172,0.85163 0,-0.004 0.003,-0.0148 0.005,-0.0109 0.1456,0.27112 0.17233,0.36274 0.22273,0.66817 -0.006,0.0678 -0.0179,0.13499 -0.0176,0.20309 1.9e-4,0.0364 0.0151,-0.0713 0.0181,-0.10748 0.001,-0.0122 -0.0102,-0.0476 -0.006,-0.0362 0.0804,0.20432 0.13513,0.41451 0.21704,0.61753 0.0945,0.16342 0.0824,0.23869 0.0289,0.31058 0.006,0.004 0.012,0.009 0.0176,0.0129 8e-4,-0.0113 5.3e-4,-0.0223 0.003,-0.0331 0.0153,0.0264 0.0299,0.0524 0.0424,0.078 -0.0112,-0.0148 -0.0272,-0.0303 -0.045,-0.045 -0.003,0.0498 -1.4e-4,0.10416 -0.007,0.15245 0.0165,-0.007 0.0331,-0.0149 0.0491,-0.0238 0.0175,-0.01 0.0239,-0.0231 0.0227,-0.0388 -0.006,-0.0146 -0.0124,-0.0295 -0.0196,-0.0444 0.0117,0.0157 0.0186,0.0309 0.0196,0.0444 0.0614,0.14334 0.0759,0.27389 0.0305,0.38861 0.28417,-0.0586 0.44079,-0.0686 0.1297,0.0966 -0.0537,0.0285 -0.10641,0.0587 -0.15916,0.0894 0.003,0.008 0.007,0.0153 0.009,0.0233 0.0513,0.0456 0.0895,0.0821 0.10232,0.0915 0.0143,0.0877 0.0459,0.17423 0.0429,0.26303 -0.004,0.10869 -0.0416,0.21729 -0.10645,0.30644 -0.038,0.10937 -0.0812,0.14188 -0.12765,0.12402 -0.08,0.0539 -0.17825,0.0854 -0.29093,0.0822 -0.29735,-0.009 -0.47947,-0.24182 -0.49248,-0.48731 -0.11048,-0.0387 -0.18823,-0.10964 -0.19172,-0.21807 -0.01,-0.0273 -0.0124,-0.0568 -0.009,-0.0879 -0.0605,-0.079 -0.1151,-0.17801 -0.15917,-0.2992 -0.18988,-0.52221 -0.21637,-0.5572 -0.35604,-1.09451 -0.0135,-0.0516 -0.0265,-0.10374 -0.0377,-0.15606 -0.0307,-0.0453 -0.0631,-0.0928 -0.15658,-0.22841 -0.004,-0.006 0.0105,0.0105 0.0155,0.0165 0.0366,-0.0527 0.006,-0.001 -0.0956,-0.11731 v 3.14451 h 5.66426 z m -3.8902,12.48037 c 0.0499,-0.0336 0.0927,-0.0761 0.12764,-0.12402 0.0102,-0.0293 0.0201,-0.064 0.0295,-0.1049 0.0155,-0.0674 0.0461,-0.13286 0.0465,-0.20206 5.3e-4,-0.10154 -0.0341,-0.2008 -0.0951,-0.28215 0.0112,0.0562 0.0142,0.11723 0.008,0.18345 0.0305,0.0238 0.0292,0.0569 -0.0171,0.10335 -8e-4,0.003 -0.002,0.007 -0.003,0.0104 -0.003,0.01 0.002,0.0315 -0.008,0.0294 -0.007,-0.002 -0.014,-0.003 -0.0212,-0.005 -0.0619,0.0775 -0.11855,0.19395 -0.18087,0.27233 0.0392,0.0613 0.0773,0.10505 0.11317,0.11886 z m -0.11317,-0.11885 c -0.0456,-0.0714 -0.0928,-0.16702 -0.14056,-0.26614 -0.005,0.001 -0.0103,0.002 -0.0155,0.003 -0.071,0.14162 -0.134,0.26814 -0.16226,0.23306 -0.0655,-0.0813 -0.11909,-0.15544 -0.16382,-0.22221 -0.0524,-0.003 -0.10319,-0.009 -0.14934,-0.0217 0.01,0.0355 0.0257,0.07 0.0357,0.10543 0.14,0.0792 0.27851,0.16141 0.42013,0.2377 0.0666,0.0359 0.12313,-0.003 0.1757,-0.0692 z m -0.48214,-0.25218 c 0.0388,0.002 0.078,0.002 0.11782,-10e-4 -0.0437,-0.003 -0.0877,-0.008 -0.13022,-0.0171 0.004,0.006 0.008,0.0119 0.0124,0.0181 z m 0.11782,-10e-4 c 0.0718,0.005 0.14287,0.002 0.20826,-0.01 0.003,-0.006 0.006,-0.0113 0.009,-0.0171 -0.002,-0.004 -0.004,-0.008 -0.006,-0.0124 -0.0663,0.0207 -0.13859,0.0339 -0.21084,0.0393 z m 0.21084,-0.0393 c 0.005,-0.002 0.01,-0.004 0.015,-0.005 0.006,-0.0117 0.0116,-0.0234 0.0176,-0.0351 -0.0197,-0.004 -0.038,-0.007 -0.0568,-0.0103 0.008,0.017 0.0161,0.0336 0.0243,0.0506 z m 0.015,-0.005 c -0.003,0.006 -0.006,0.0117 -0.009,0.0176 0.002,0.005 0.004,0.009 0.007,0.0139 0.0489,-0.01 0.0942,-0.0246 0.13281,-0.045 -0.022,-0.004 -0.0429,-0.008 -0.0641,-0.0124 -0.0212,0.01 -0.0435,0.0181 -0.0667,0.0258 z m 0.13074,-0.0134 c 0.0601,0.0117 0.12227,0.0243 0.18862,0.0388 0.01,-0.0122 0.0199,-0.0236 0.03,-0.0336 5.3e-4,-5.3e-4 0.001,-10e-4 0.002,-0.002 0.008,-0.0356 0.0138,-0.0702 0.0171,-0.10335 -0.0223,-0.0174 -0.062,-0.0302 -0.11265,-0.0393 -0.0181,0.0605 -0.0631,0.10664 -0.12454,0.13901 z m -1.21182,-1.8588 c -0.004,0.002 -0.008,0.0167 -0.0108,0.0357 0.009,-10e-6 0.018,0 0.0269,0 -0.002,-0.008 -0.005,-0.0163 -0.007,-0.0243 -0.003,-0.009 -0.006,-0.0127 -0.009,-0.0114 z m -0.19275,0.0295 c -2.5e-4,10e-5 1.1e-4,10e-4 0,0.002 0.004,0.004 0.007,0.006 0.0119,0.007 -0.006,-0.006 -0.0105,-0.009 -0.0119,-0.009 z m 1.31362,0.69505 c -0.008,5.3e-4 -0.0165,0.002 -0.0238,0.004 -0.01,0.003 -0.0186,0.007 -0.0279,0.0109 0.036,0.0469 0.0736,0.0981 0.11369,0.15606 -0.005,-0.0531 -0.003,-0.1082 0,-0.16329 -0.0222,-0.006 -0.0434,-0.009 -0.062,-0.008 z m 0.15399,0.0455 c -0.001,0.0303 -0.003,0.0628 -0.007,0.10129 0.022,-0.0239 0.0432,-0.0458 0.0594,-0.0677 -0.0162,-0.012 -0.0343,-0.0234 -0.0527,-0.0336 z m 0.0636,0.19947 c -0.0175,0.008 -0.0353,0.0152 -0.0532,0.0217 0.009,0.004 0.0189,0.008 0.0284,0.0124 0.005,-0.002 0.0106,-0.005 0.016,-0.007 0.002,-0.003 0.003,-0.007 0.005,-0.007 0.001,-0.006 0.003,-0.0129 0.004,-0.0196 z m 0.0233,0.0145 5.3e-4,5.3e-4 c -0.003,-2.7e-4 -0.005,-6e-5 -0.008,0.001 -0.005,0.002 -0.0112,0.004 -0.0165,0.007 0.002,0.004 0.004,0.0116 0.005,0.0238 0.001,5.3e-4 0.002,10e-4 0.003,0.002 2.1e-4,1.1e-4 -8e-4,0.005 -0.002,0.0104 0.004,0.059 0.002,0.16878 0.002,0.2191 -2.7e-4,0.0228 -5.3e-4,0.0455 -5.3e-4,0.0682 0.0283,-0.006 0.0586,-0.0131 0.0853,-0.0186 0.0147,-0.0894 0.01,-0.22624 -0.0227,-0.26148 -0.0145,-0.0157 -0.0278,-0.0491 -0.046,-0.0512 z m 0.0605,0.34985 c -2.6e-4,7.9e-4 -7.9e-4,10e-4 -0.001,0.002 h 5.3e-4 c 1.8e-4,-5.3e-4 2.5e-4,-0.001 5.3e-4,-0.002 z" />
    </clipPath>
    <clipPath
       clipPathUnits="userSpaceOnUse"
       id="clipPath4800-7-0">
      <path
         id="path4802-9-2"
         style="fill:#ff0000;fill-opacity:1;fill-rule:nonzero;stroke:none;stroke-width:0.264583"
         d="m 124.18467,278.338 v 13.03538 h 5.66477 v -3.81114 c -0.17871,-0.27238 -0.14947,-0.51731 0,-0.64699 V 278.338 Z" />
    </clipPath>
    <inkscape:path-effect
       effect="spiro"
       id="path-effect18628"
       is_visible="true"
       lpeversion="1" />
    <inkscape:path-effect
       effect="spiro"
       id="path-effect20874"
       is_visible="true"
       lpeversion="1" />
    <clipPath
       clipPathUnits="userSpaceOnUse"
       id="clipPath4790-7-5-3-1">
      <path
         id="path4792-1-6-1-7"
         style="fill:#ff0000;fill-opacity:1;fill-rule:nonzero;stroke:none;stroke-width:0.264583"
         d="m 136.12967,278.44342 -5.66632,5.3e-4 v 4.36924 c 0.0512,-0.11651 0.0953,-0.23554 0.12247,-0.3607 0.14791,-0.61698 0.51968,-1.16207 0.59118,-1.80247 l 0.002,-5.3e-4 c 0.0316,-0.28317 0.14504,-0.46222 0.28422,-0.55294 0.006,-0.47618 0.24929,-0.71469 0.49299,-0.71469 0.24692,0 0.49403,0.24441 0.49403,0.73329 v 2.83962 0.74672 c -0.005,0.44491 -0.21577,0.63916 -0.4563,0.97772 -0.16504,-0.0185 -0.33001,-0.0372 -0.49506,-0.0558 -0.97165,-0.10917 1.49788,-0.81662 0.52038,-0.83922 -0.14036,-0.004 -0.2808,-0.007 -0.42116,-0.01 -0.0863,0.14541 -0.14223,0.31376 -0.2589,0.43615 -0.0407,0.0422 -0.002,-0.11747 0.009,-0.17467 0.017,-0.0891 0.0462,-0.17581 0.0744,-0.26199 0.004,-0.0117 0.009,-0.033 0.0212,-0.03 0.0123,0.003 0.0177,0.03 0.0196,0.0475 -5.3e-4,-0.0148 -0.001,-0.0418 -0.001,-0.0899 v -0.42272 c -0.0135,0.008 -0.027,0.0163 -0.0408,0.0238 -0.008,0.0237 -0.0186,0.0518 -0.032,0.0863 -0.0972,0.24748 -0.19966,0.48721 -0.32246,0.72037 0.0227,0.05 -0.0687,0.12248 -0.0946,0.1819 -0.002,-1.1e-4 -0.004,5e-5 -0.006,0 -1.9e-4,2.6e-4 -2.5e-4,7.9e-4 -5.3e-4,10e-4 8e-4,0.0149 0.002,0.0292 0.002,0.0439 -9e-5,0.0146 -2.5e-4,0.0293 -5.3e-4,0.0439 0.014,0.17116 0.009,0.34377 0.004,0.51573 0.005,0.11572 0.003,0.23171 -0.002,0.34778 7.9e-4,0.004 0.003,-0.0118 0.007,-0.078 0.0848,0.15059 0.13366,0.33362 0.1111,0.50695 0.006,0.0142 0.0108,0.0337 0.0155,0.0444 0.0927,0.20129 0.16139,0.40268 0.22789,0.6134 0.0444,0.22284 0.1325,0.41815 0.24443,0.61133 0.19018,0.29594 0.22841,0.51414 0.19172,0.85163 0,-0.004 0.003,-0.0148 0.005,-0.0109 0.1456,0.27112 0.17233,0.36274 0.22273,0.66817 -0.006,0.0678 -0.0179,0.13499 -0.0176,0.20309 1.9e-4,0.0364 0.0151,-0.0713 0.0181,-0.10748 0.001,-0.0122 -0.0102,-0.0476 -0.006,-0.0362 0.0804,0.20432 0.13513,0.41451 0.21704,0.61753 0.0945,0.16342 0.0824,0.23869 0.0289,0.31058 0.006,0.004 0.012,0.009 0.0176,0.0129 8e-4,-0.0113 5.3e-4,-0.0223 0.003,-0.0331 0.0153,0.0264 0.0299,0.0524 0.0424,0.078 -0.0112,-0.0148 -0.0272,-0.0303 -0.045,-0.045 -0.003,0.0498 -1.4e-4,0.10416 -0.007,0.15245 0.0165,-0.007 0.0331,-0.0149 0.0491,-0.0238 0.0175,-0.01 0.0239,-0.0231 0.0227,-0.0388 -0.006,-0.0146 -0.0124,-0.0295 -0.0196,-0.0444 0.0117,0.0157 0.0186,0.0309 0.0196,0.0444 0.0614,0.14334 0.0759,0.27389 0.0305,0.38861 0.28417,-0.0586 0.44079,-0.0686 0.1297,0.0966 -0.0537,0.0285 -0.10641,0.0587 -0.15916,0.0894 0.003,0.008 0.007,0.0153 0.009,0.0233 0.0513,0.0456 0.0895,0.0821 0.10232,0.0915 0.0143,0.0877 0.0459,0.17423 0.0429,0.26303 -0.004,0.10869 -0.0416,0.21729 -0.10645,0.30644 -0.038,0.10937 -0.0812,0.14188 -0.12765,0.12402 -0.08,0.0539 -0.17825,0.0854 -0.29093,0.0822 -0.29735,-0.009 -0.47947,-0.24182 -0.49248,-0.48731 -0.11048,-0.0387 -0.18823,-0.10964 -0.19172,-0.21807 -0.01,-0.0273 -0.0124,-0.0568 -0.009,-0.0879 -0.0605,-0.079 -0.1151,-0.17801 -0.15917,-0.2992 -0.18988,-0.52221 -0.21637,-0.5572 -0.35604,-1.09451 -0.0135,-0.0516 -0.0265,-0.10374 -0.0377,-0.15606 -0.0307,-0.0453 -0.0631,-0.0928 -0.15658,-0.22841 -0.004,-0.006 0.0105,0.0105 0.0155,0.0165 0.0366,-0.0527 0.006,-0.001 -0.0956,-0.11731 v 3.14451 h 5.66426 z m -3.8902,12.48037 c 0.0499,-0.0336 0.0927,-0.0761 0.12764,-0.12402 0.0102,-0.0293 0.0201,-0.064 0.0295,-0.1049 0.0155,-0.0674 0.0461,-0.13286 0.0465,-0.20206 5.3e-4,-0.10154 -0.0341,-0.2008 -0.0951,-0.28215 0.0112,0.0562 0.0142,0.11723 0.008,0.18345 0.0305,0.0238 0.0292,0.0569 -0.0171,0.10335 -8e-4,0.003 -0.002,0.007 -0.003,0.0104 -0.003,0.01 0.002,0.0315 -0.008,0.0294 -0.007,-0.002 -0.014,-0.003 -0.0212,-0.005 -0.0619,0.0775 -0.11855,0.19395 -0.18087,0.27233 0.0392,0.0613 0.0773,0.10505 0.11317,0.11886 z m -0.11317,-0.11885 c -0.0456,-0.0714 -0.0928,-0.16702 -0.14056,-0.26614 -0.005,0.001 -0.0103,0.002 -0.0155,0.003 -0.071,0.14162 -0.134,0.26814 -0.16226,0.23306 -0.0655,-0.0813 -0.11909,-0.15544 -0.16382,-0.22221 -0.0524,-0.003 -0.10319,-0.009 -0.14934,-0.0217 0.01,0.0355 0.0257,0.07 0.0357,0.10543 0.14,0.0792 0.27851,0.16141 0.42013,0.2377 0.0666,0.0359 0.12313,-0.003 0.1757,-0.0692 z m -0.48214,-0.25218 c 0.0388,0.002 0.078,0.002 0.11782,-10e-4 -0.0437,-0.003 -0.0877,-0.008 -0.13022,-0.0171 0.004,0.006 0.008,0.0119 0.0124,0.0181 z m 0.11782,-10e-4 c 0.0718,0.005 0.14287,0.002 0.20826,-0.01 0.003,-0.006 0.006,-0.0113 0.009,-0.0171 -0.002,-0.004 -0.004,-0.008 -0.006,-0.0124 -0.0663,0.0207 -0.13859,0.0339 -0.21084,0.0393 z m 0.21084,-0.0393 c 0.005,-0.002 0.01,-0.004 0.015,-0.005 0.006,-0.0117 0.0116,-0.0234 0.0176,-0.0351 -0.0197,-0.004 -0.038,-0.007 -0.0568,-0.0103 0.008,0.017 0.0161,0.0336 0.0243,0.0506 z m 0.015,-0.005 c -0.003,0.006 -0.006,0.0117 -0.009,0.0176 0.002,0.005 0.004,0.009 0.007,0.0139 0.0489,-0.01 0.0942,-0.0246 0.13281,-0.045 -0.022,-0.004 -0.0429,-0.008 -0.0641,-0.0124 -0.0212,0.01 -0.0435,0.0181 -0.0667,0.0258 z m 0.13074,-0.0134 c 0.0601,0.0117 0.12227,0.0243 0.18862,0.0388 0.01,-0.0122 0.0199,-0.0236 0.03,-0.0336 5.3e-4,-5.3e-4 0.001,-10e-4 0.002,-0.002 0.008,-0.0356 0.0138,-0.0702 0.0171,-0.10335 -0.0223,-0.0174 -0.062,-0.0302 -0.11265,-0.0393 -0.0181,0.0605 -0.0631,0.10664 -0.12454,0.13901 z m -1.21182,-1.8588 c -0.004,0.002 -0.008,0.0167 -0.0108,0.0357 0.009,-10e-6 0.018,0 0.0269,0 -0.002,-0.008 -0.005,-0.0163 -0.007,-0.0243 -0.003,-0.009 -0.006,-0.0127 -0.009,-0.0114 z m -0.19275,0.0295 c -2.5e-4,10e-5 1.1e-4,10e-4 0,0.002 0.004,0.004 0.007,0.006 0.0119,0.007 -0.006,-0.006 -0.0105,-0.009 -0.0119,-0.009 z m 1.31362,0.69505 c -0.008,5.3e-4 -0.0165,0.002 -0.0238,0.004 -0.01,0.003 -0.0186,0.007 -0.0279,0.0109 0.036,0.0469 0.0736,0.0981 0.11369,0.15606 -0.005,-0.0531 -0.003,-0.1082 0,-0.16329 -0.0222,-0.006 -0.0434,-0.009 -0.062,-0.008 z m 0.15399,0.0455 c -0.001,0.0303 -0.003,0.0628 -0.007,0.10129 0.022,-0.0239 0.0432,-0.0458 0.0594,-0.0677 -0.0162,-0.012 -0.0343,-0.0234 -0.0527,-0.0336 z m 0.0636,0.19947 c -0.0175,0.008 -0.0353,0.0152 -0.0532,0.0217 0.009,0.004 0.0189,0.008 0.0284,0.0124 0.005,-0.002 0.0106,-0.005 0.016,-0.007 0.002,-0.003 0.003,-0.007 0.005,-0.007 0.001,-0.006 0.003,-0.0129 0.004,-0.0196 z m 0.0233,0.0145 5.3e-4,5.3e-4 c -0.003,-2.7e-4 -0.005,-6e-5 -0.008,0.001 -0.005,0.002 -0.0112,0.004 -0.0165,0.007 0.002,0.004 0.004,0.0116 0.005,0.0238 0.001,5.3e-4 0.002,10e-4 0.003,0.002 2.1e-4,1.1e-4 -8e-4,0.005 -0.002,0.0104 0.004,0.059 0.002,0.16878 0.002,0.2191 -2.7e-4,0.0228 -5.3e-4,0.0455 -5.3e-4,0.0682 0.0283,-0.006 0.0586,-0.0131 0.0853,-0.0186 0.0147,-0.0894 0.01,-0.22624 -0.0227,-0.26148 -0.0145,-0.0157 -0.0278,-0.0491 -0.046,-0.0512 z m 0.0605,0.34985 c -2.6e-4,7.9e-4 -7.9e-4,10e-4 -0.001,0.002 h 5.3e-4 c 1.8e-4,-5.3e-4 2.5e-4,-0.001 5.3e-4,-0.002 z" />
    </clipPath>
    <clipPath
       clipPathUnits="userSpaceOnUse"
       id="clipPath4800-7-0-5">
      <path
         id="path4802-9-2-5"
         style="fill:#ff0000;fill-opacity:1;fill-rule:nonzero;stroke:none;stroke-width:0.264583"
         d="m 124.18467,278.338 v 13.03538 h 5.66477 v -3.81114 c -0.17871,-0.27238 -0.14947,-0.51731 0,-0.64699 V 278.338 Z" />
    </clipPath>
  </defs>
  <sodipodi:namedview
     id="base"
     pagecolor="#ffffff"
     bordercolor="#666666"
     borderopacity="1.0"
     inkscape:pageopacity="0.0"
     inkscape:pageshadow="2"
     inkscape:zoom="2.7613445"
     inkscape:cx="650.58887"
     inkscape:cy="79.309192"
     inkscape:document-units="mm"
     inkscape:current-layer="layer1"
     showgrid="false"
     showborder="true"
     width="200mm"
     showguides="true"
     inkscape:guide-bbox="true"
     inkscape:window-width="1280"
     inkscape:window-height="680"
     inkscape:window-x="1728"
     inkscape:window-y="25"
     inkscape:window-maximized="0"
     inkscape:pagecheckerboard="0">
    <inkscape:grid
       type="xygrid"
       id="grid815"
       units="mm"
       spacingx="10"
       spacingy="10"
       empspacing="4"
       dotted="false" />
  </sodipodi:namedview>
  <metadata
     id="metadata5">
    <rdf:RDF>
      <cc:Work
         rdf:about="">
        <dc:format>image/svg+xml</dc:format>
        <dc:type
           rdf:resource="http://purl.org/dc/dcmitype/StillImage" />
      </cc:Work>
    </rdf:RDF>
  </metadata>
  <g
     inkscape:label="Layer 1"
     inkscape:groupmode="layer"
     id="layer1"
     transform="translate(0,-177)">
    <path
       style="opacity:0.99;fill:none;stroke:black;stroke-width:0.26458333;stroke-linejoin:round;stroke-miterlimit:4;stroke-dasharray:none;stroke-opacity:1;fill-opacity:1;marker-start:none;marker-end:none"
       id="path4448-7-4-3"
       sodipodi:type="arc"
       sodipodi:cx="133.15407"
       sodipodi:cy="285.17828"
       sodipodi:rx="2.5577617"
       sodipodi:ry="6.1687193"
       sodipodi:start="6.1848709"
       sodipodi:end="6.1772918"
       sodipodi:open="true"
       sodipodi:arc-type="arc"
       clip-path="url(#clipPath4790-7-5-3)"
       transform="translate(-33.848843,-99.058081)"
       d="m 135.69948,284.57279 a 2.5577617,6.1687193 0 0 1 -2.28953,6.74327 2.5577617,6.1687193 0 0 1 -2.80032,-5.50902 2.5577617,6.1687193 0 0 1 2.27891,-6.76415 2.5577617,6.1687193 0 0 1 2.80896,5.48339" />
    <path
       style="opacity:0.99;fill:none;stroke:black;stroke-width:0.26458333;stroke-linejoin:round;stroke-miterlimit:4;stroke-dasharray:0.396875,0.396875;stroke-dashoffset:0;stroke-opacity:1;fill-opacity:1;marker-start:none;marker-end:none"
       id="path4448-0-1-7"
       sodipodi:type="arc"
       sodipodi:cx="126.87568"
       sodipodi:cy="285.07281"
       sodipodi:rx="2.5577617"
       sodipodi:ry="6.1687193"
       sodipodi:start="1.3350802"
       sodipodi:end="4.8214282"
       sodipodi:open="true"
       sodipodi:arc-type="arc"
       clip-path="url(#clipPath4800-7-0)"
       transform="translate(-27.568618,-98.952661)"
       d="m 127.47302,291.07095 a 2.5577617,6.1687193 0 0 1 -2.64218,-2.29249 2.5577617,6.1687193 0 0 1 -0.17773,-6.75854 2.5577617,6.1687193 0 0 1 2.50091,-3.07919" />
    <path
       style="opacity:0.99;fill:none;stroke:black;stroke-width:0.26458333;stroke-linejoin:round;stroke-miterlimit:4;stroke-dasharray:none;stroke-opacity:1;fill-opacity:1;marker-start:none;marker-end:none"
       id="path4448-7-4-3-4"
       sodipodi:type="arc"
       sodipodi:cx="133.15407"
       sodipodi:cy="285.17828"
       sodipodi:rx="2.5577617"
       sodipodi:ry="6.1687193"
       sodipodi:start="6.1848709"
       sodipodi:end="6.1772918"
       sodipodi:open="true"
       sodipodi:arc-type="arc"
       clip-path="url(#clipPath4790-7-5-3-1)"
       transform="translate(-32.503433,-56.641938)"
       d="m 135.69948,284.57279 a 2.5577617,6.1687193 0 0 1 -2.28953,6.74327 2.5577617,6.1687193 0 0 1 -2.80032,-5.50902 2.5577617,6.1687193 0 0 1 2.27891,-6.76415 2.5577617,6.1687193 0 0 1 2.80896,5.48339" />
    <path
       style="opacity:0.99;fill:none;stroke:black;stroke-width:0.26458333;stroke-linejoin:round;stroke-miterlimit:4;stroke-dasharray:0.396875,0.396875;stroke-dashoffset:0;stroke-opacity:1;fill-opacity:1;marker-start:none;marker-end:none"
       id="path4448-0-1-7-1"
       sodipodi:type="arc"
       sodipodi:cx="126.87568"
       sodipodi:cy="285.07281"
       sodipodi:rx="2.5577617"
       sodipodi:ry="6.1687193"
       sodipodi:start="1.3350802"
       sodipodi:end="4.8214282"
       sodipodi:open="true"
       sodipodi:arc-type="arc"
       clip-path="url(#clipPath4800-7-0-5)"
       transform="translate(-26.2232,-56.536518)"
       d="m 127.47302,291.07095 a 2.5577617,6.1687193 0 0 1 -2.64218,-2.29249 2.5577617,6.1687193 0 0 1 -0.17773,-6.75854 2.5577617,6.1687193 0 0 1 2.50091,-3.07919" />
    <path
       style="fill:none;stroke:black;stroke-width:0.26458333;stroke-linecap:butt;stroke-linejoin:miter;stroke-opacity:1;stroke-dasharray:none;fill-opacity:1;marker-start:none;marker-end:none"
       d="m 86.179155,207.45147 c -0.8198,-2.52808 -1.452844,-5.11671 -1.89227,-7.73781 -0.371573,-2.21637 -0.605039,-4.47015 -0.436794,-6.71114 0.168245,-2.241 0.752678,-4.47798 1.924734,-6.39544 1.39147,-2.27642 3.57127,-4.01893 6.011245,-5.09818 2.439974,-1.07925 5.131319,-1.51975 7.799326,-1.52085 2.360804,-9.7e-4 4.735074,0.33931 6.949654,1.15724 2.21459,0.81792 4.26684,2.12505 5.82854,3.89549 1.99856,2.26569 3.12574,5.21479 3.5082,8.21168 0.38245,2.99688 0.0551,6.04854 -0.59496,8.99896 -0.38857,1.76358 -0.89207,3.50182 -1.50625,5.20005"
       id="path20872"
       inkscape:path-effect="#path-effect20874"
       inkscape:original-d="m 86.179155,207.45147 c -0.43098,-3.92356 0.725717,1.32411 -1.89227,-7.73781 -2.23727,-7.42795 -5.865517,-6.89779 1.48794,-13.10658 8.764714,-7.97576 5.631097,-6.58437 13.810571,-6.61903 11.040704,-0.16703 10.445544,-0.74888 12.778194,5.05273 3.25817,9.04211 2.91824,15.17402 2.91324,17.21064 0,1.74708 -1.1913,3.4729 -1.50625,5.20005"
       sodipodi:nodetypes="ccccccc" />
    <path
       style="fill:none;stroke:black;stroke-width:0.26458333;stroke-linecap:butt;stroke-linejoin:miter;stroke-opacity:1;stroke-dasharray:none;fill-opacity:1;marker-start:none;marker-end:none"
       d="m 113.77058,207.45147 c 0.55594,-3.89095 -0.70099,-8.00316 -3.33729,-10.91838 -2.6363,-2.91521 -6.60183,-4.57797 -10.528904,-4.41482 -3.794185,0.15763 -7.464701,1.99259 -9.965347,4.85047 -2.500646,2.85788 -3.826805,6.68586 -3.759884,10.48273 0.06677,3.78834 1.520755,7.55946 4.11309,10.32275 2.592336,2.76329 6.317205,4.46564 10.106075,4.48643 3.75335,0.0206 7.48548,-1.62564 10.00095,-4.41141 2.51547,-2.78576 3.77356,-6.66598 3.37131,-10.39777"
       id="path3375"
       inkscape:path-effect="#path-effect3377"
       inkscape:original-d="m 113.77058,207.45147 c -4.6218,-5.1108 -9.29139,-20.44453 -13.866194,-15.3332 -4.574817,5.11133 -9.149894,10.2224 -13.725231,15.3332 -4.57534,5.1108 9.479704,9.87305 14.219165,14.80918 4.73945,4.93612 8.9151,-9.87252 13.37226,-14.80918" />
    <path
       style="fill:none;stroke:black;stroke-width:0.26458333;stroke-linecap:butt;stroke-linejoin:miter;stroke-opacity:1;stroke-dasharray:none;fill-opacity:1;marker-start:none;marker-end:none"
       d="m 86.179155,207.45147 c -1.758545,3.3618 -2.702059,7.14635 -2.72748,10.94023 -0.01455,2.17116 0.270574,4.355 0.972567,6.40959 0.701993,2.05458 1.829623,3.97831 3.37666,5.50173 1.647998,1.62284 3.735715,2.75828 5.936276,3.47034 2.200561,0.71206 4.516401,1.01452 6.827142,1.1144 2.4755,0.10701 4.98816,-0.0196 7.36313,-0.72604 2.37496,-0.70648 4.61568,-2.02955 6.12255,-3.99651 1.23864,-1.61683 1.9352,-3.60283 2.22848,-5.61836 0.29328,-2.01553 0.20031,-4.06883 -0.019,-6.09375 -0.40564,-3.74624 -1.24256,-7.4456 -2.48895,-11.00163"
       id="path3379"
       inkscape:path-effect="#path-effect3381"
       inkscape:original-d="m 86.179155,207.45147 c 0.22088,7.15436 -54.815523,-27.33423 -2.72748,10.94023 5.767577,4.23804 2.38645,9.49756 4.349227,11.91132 2.57753,3.16974 14.894718,32.09299 12.763418,4.58474 -16.584936,-214.057145 -4.451751,16.72662 13.48568,-4.72255 6.29487,-7.52725 2.44232,-3.26863 2.20953,-11.71211 -0.17144,-6.21831 -1.33907,-5.52101 -2.48895,-11.00163"
       sodipodi:nodetypes="csssssc" />
    <text
       xml:space="preserve"
       style="font-size:5.64444px;line-height:1.25;font-family:sans-serif;letter-spacing:0px;word-spacing:0px;stroke-width:0.264583"
       x="127.19724"
       y="210.04008"
       id="text13291"><tspan
         sodipodi:role="line"
         id="tspan13289"
         style="stroke-width:0.264583"
         x="127.19724"
         y="210.04008">\(\simeq\)</tspan></text>
    <path
       style="font-variation-settings:normal;opacity:0.99;fill:none;fill-opacity:1;fill-rule:evenodd;stroke:black;stroke-width:0.26458333;stroke-linecap:butt;stroke-linejoin:round;stroke-miterlimit:4;stroke-dasharray:none;stroke-dashoffset:0;stroke-opacity:1;stop-color:#000000;stop-opacity:1;marker-start:none;marker-end:none"
       id="path4738"
       sodipodi:type="arc"
       sodipodi:cx="154.84641"
       sodipodi:cy="207.8244"
       sodipodi:rx="14.102258"
       sodipodi:ry="14.102258"
       sodipodi:start="6.1848709"
       sodipodi:end="6.1778721"
       sodipodi:open="true"
       sodipodi:arc-type="arc"
       d="m 168.88056,206.44018 a 14.102258,14.102258 0 0 1 -12.62538,15.41594 14.102258,14.102258 0 0 1 -15.438,-12.59839 14.102258,14.102258 0 0 1 12.57136,-15.46003 14.102258,14.102258 0 0 1 15.48199,12.54429" />
    <path
       style="font-variation-settings:normal;opacity:0.99;fill:none;fill-opacity:1;fill-rule:evenodd;stroke:black;stroke-width:0.26458333;stroke-linecap:butt;stroke-linejoin:round;stroke-miterlimit:4;stroke-dasharray:none;stroke-dashoffset:0;stroke-opacity:1;stop-color:#000000;stop-opacity:1;marker-start:none;marker-end:none"
       id="path4762"
       sodipodi:type="arc"
       sodipodi:cx="154.85654"
       sodipodi:cy="207.97397"
       sodipodi:rx="14.105251"
       sodipodi:ry="4.523366"
       sodipodi:start="6.1848709"
       sodipodi:end="6.1778721"
       sodipodi:open="true"
       sodipodi:arc-type="arc"
       d="m 168.89367,207.52997 a 14.105251,4.523366 0 0 1 -12.62806,4.94474 14.105251,4.523366 0 0 1 -15.44128,-4.041 14.105251,4.523366 0 0 1 12.57403,-4.95887 14.105251,4.523366 0 0 1 15.48528,4.02364" />
    <path
       style="font-variation-settings:normal;opacity:0.99;fill:none;fill-opacity:1;fill-rule:evenodd;stroke:black;stroke-width:0.26458333;stroke-linecap:butt;stroke-linejoin:round;stroke-miterlimit:4;stroke-dasharray:none;stroke-dashoffset:0;stroke-opacity:1;stop-color:#000000;stop-opacity:1;marker-start:none;marker-end:none"
       id="path4738-1"
       sodipodi:type="arc"
       sodipodi:cx="182.9229"
       sodipodi:cy="207.37369"
       sodipodi:rx="14.102258"
       sodipodi:ry="14.102258"
       sodipodi:start="6.1848709"
       sodipodi:end="6.1778721"
       sodipodi:open="true"
       sodipodi:arc-type="arc"
       d="m 196.95706,205.98947 a 14.102258,14.102258 0 0 1 -12.62539,15.41593 14.102258,14.102258 0 0 1 -15.438,-12.59839 14.102258,14.102258 0 0 1 12.57136,-15.46002 14.102258,14.102258 0 0 1 15.48199,12.54429" />
    <path
       style="font-variation-settings:normal;opacity:0.99;fill:none;fill-opacity:1;fill-rule:evenodd;stroke:black;stroke-width:0.26458333;stroke-linecap:butt;stroke-linejoin:round;stroke-miterlimit:4;stroke-dasharray:none;stroke-dashoffset:0;stroke-opacity:1;stop-color:#000000;stop-opacity:1;marker-start:none;marker-end:none"
       id="path4762-8"
       sodipodi:type="arc"
       sodipodi:cx="182.93303"
       sodipodi:cy="207.52325"
       sodipodi:rx="14.105251"
       sodipodi:ry="4.523366"
       sodipodi:start="6.1848709"
       sodipodi:end="6.1778721"
       sodipodi:open="true"
       sodipodi:arc-type="arc"
       d="m 196.97017,207.07926 a 14.105251,4.523366 0 0 1 -12.62807,4.94473 14.105251,4.523366 0 0 1 -15.44128,-4.04099 14.105251,4.523366 0 0 1 12.57403,-4.95888 14.105251,4.523366 0 0 1 15.48528,4.02364" />
    <path
       style="font-variation-settings:normal;opacity:0.99;fill:#ff7f2a;fill-opacity:1;fill-rule:evenodd;stroke:none;stroke-width:0.265;stroke-linecap:butt;stroke-linejoin:round;stroke-miterlimit:4;stroke-dasharray:none;stroke-dashoffset:0;stroke-opacity:1;stop-color:#000000;stop-opacity:1"
       id="path7501-7"
       sodipodi:type="arc"
       sodipodi:cx="168.86017"
       sodipodi:cy="206.03094"
       sodipodi:rx="0.5414598"
       sodipodi:ry="0.5414598"
       sodipodi:start="6.1848709"
       sodipodi:end="6.1778721"
       sodipodi:open="true"
       sodipodi:arc-type="arc"
       d="m 169.39901,205.9778 a 0.5414598,0.5414598 0 0 1 -0.48475,0.5919 0.5414598,0.5414598 0 0 1 -0.59275,-0.48372 0.5414598,0.5414598 0 0 1 0.48268,-0.59359 0.5414598,0.5414598 0 0 1 0.59444,0.48164" />
    <path
       style="font-variation-settings:normal;opacity:0.99;fill:#ff7f2a;fill-opacity:1;fill-rule:evenodd;stroke:none;stroke-width:0.265;stroke-linecap:butt;stroke-linejoin:round;stroke-miterlimit:4;stroke-dasharray:none;stroke-dashoffset:0;stroke-opacity:1;stop-color:#000000;stop-opacity:1"
       id="path7501-7-9"
       sodipodi:type="arc"
       sodipodi:cx="168.96469"
       sodipodi:cy="210.14137"
       sodipodi:rx="0.5414598"
       sodipodi:ry="0.5414598"
       sodipodi:start="6.1848709"
       sodipodi:end="6.1778721"
       sodipodi:open="true"
       sodipodi:arc-type="arc"
       d="m 169.50354,210.08823 a 0.5414598,0.5414598 0 0 1 -0.48476,0.59189 0.5414598,0.5414598 0 0 1 -0.59274,-0.48371 0.5414598,0.5414598 0 0 1 0.48268,-0.5936 0.5414598,0.5414598 0 0 1 0.59443,0.48165" />
    <path
       style="font-variation-settings:normal;opacity:0.99;fill:#ff7f2a;fill-opacity:1;fill-rule:evenodd;stroke:none;stroke-width:0.265;stroke-linecap:butt;stroke-linejoin:round;stroke-miterlimit:4;stroke-dasharray:none;stroke-dashoffset:0;stroke-opacity:1;stop-color:#000000;stop-opacity:1"
       id="path7501-7-5"
       sodipodi:type="arc"
       sodipodi:cx="113.79357"
       sodipodi:cy="207.60751"
       sodipodi:rx="0.5414598"
       sodipodi:ry="0.5414598"
       sodipodi:start="6.1848709"
       sodipodi:end="6.1778721"
       sodipodi:open="true"
       sodipodi:arc-type="arc"
       d="m 114.33242,207.55437 a 0.5414598,0.5414598 0 0 1 -0.48476,0.59189 0.5414598,0.5414598 0 0 1 -0.59274,-0.48371 0.5414598,0.5414598 0 0 1 0.48268,-0.5936 0.5414598,0.5414598 0 0 1 0.59443,0.48165" />
    <path
       style="font-variation-settings:normal;opacity:0.99;fill:#ff7f2a;fill-opacity:1;fill-rule:evenodd;stroke:none;stroke-width:0.265;stroke-linecap:butt;stroke-linejoin:round;stroke-miterlimit:4;stroke-dasharray:none;stroke-dashoffset:0;stroke-opacity:1;stop-color:#000000;stop-opacity:1"
       id="path7501-7-2"
       sodipodi:type="arc"
       sodipodi:cx="86.202576"
       sodipodi:cy="207.48685"
       sodipodi:rx="0.5414598"
       sodipodi:ry="0.5414598"
       sodipodi:start="6.1848709"
       sodipodi:end="6.1778721"
       sodipodi:open="true"
       sodipodi:arc-type="arc"
       d="m 86.741421,207.4337 a 0.5414598,0.5414598 0 0 1 -0.484755,0.5919 0.5414598,0.5414598 0 0 1 -0.592746,-0.48372 0.5414598,0.5414598 0 0 1 0.48268,-0.59359 0.5414598,0.5414598 0 0 1 0.594436,0.48164" />
  </g>
</svg>
