<?xml version="1.0" encoding="UTF-8" standalone="no"?>
<!-- Created with Inkscape (http://www.inkscape.org/) -->

<svg
   width="240mm"
   height="33mm"
   viewBox="0 0 240 33"
   version="1.1"
   id="svg8"
   inkscape:version="1.1.1 (c3084ef, 2021-09-22)"
   sodipodi:docname="lec21-3-torus.svg"
   xmlns:inkscape="http://www.inkscape.org/namespaces/inkscape"
   xmlns:sodipodi="http://sodipodi.sourceforge.net/DTD/sodipodi-0.dtd"
   xmlns="http://www.w3.org/2000/svg"
   xmlns:svg="http://www.w3.org/2000/svg"
   xmlns:rdf="http://www.w3.org/1999/02/22-rdf-syntax-ns#"
   xmlns:cc="http://creativecommons.org/ns#"
   xmlns:dc="http://purl.org/dc/elements/1.1/">
  <defs
     id="defs2">
    <marker
       style="overflow:visible"
       id="Arrow2Sstart-4"
       refX="0"
       refY="0"
       orient="auto"
       inkscape:stockid="Arrow2Sstart"
       inkscape:isstock="true">
      <path
         transform="matrix(0.3,0,0,0.3,-0.69,0)"
         d="M 8.7185878,4.0337352 -2.2072895,0.01601326 8.7185884,-4.0017078 c -1.7454984,2.3720609 -1.7354408,5.6174519 -6e-7,8.035443 z"
         style="fill:context-stroke;fill-rule:evenodd;stroke:context-stroke;stroke-width:0.625;stroke-linejoin:round"
         id="path1097-0" />
    </marker>
    <marker
       style="overflow:visible"
       id="Arrow2Sstart-0"
       refX="0"
       refY="0"
       orient="auto"
       inkscape:stockid="Arrow2Sstart"
       inkscape:isstock="true">
      <path
         transform="matrix(0.3,0,0,0.3,-0.69,0)"
         d="M 8.7185878,4.0337352 -2.2072895,0.01601326 8.7185884,-4.0017078 c -1.7454984,2.3720609 -1.7354408,5.6174519 -6e-7,8.035443 z"
         style="fill:context-stroke;fill-rule:evenodd;stroke:context-stroke;stroke-width:0.625;stroke-linejoin:round"
         id="path1097-1" />
    </marker>
    <marker
       style="overflow:visible"
       id="Arrow2Sstart-00"
       refX="0"
       refY="0"
       orient="auto"
       inkscape:stockid="Arrow2Sstart"
       inkscape:isstock="true">
      <path
         transform="matrix(0.3,0,0,0.3,-0.69,0)"
         d="M 8.7185878,4.0337352 -2.2072895,0.01601326 8.7185884,-4.0017078 c -1.7454984,2.3720609 -1.7354408,5.6174519 -6e-7,8.035443 z"
         style="fill:context-stroke;fill-rule:evenodd;stroke:context-stroke;stroke-width:0.625;stroke-linejoin:round"
         id="path1097-3" />
    </marker>
    <inkscape:path-effect
       effect="spiro"
       id="path-effect9968"
       is_visible="true"
       lpeversion="1" />
    <inkscape:path-effect
       effect="spiro"
       id="path-effect11469"
       is_visible="true"
       lpeversion="1" />
    <inkscape:path-effect
       effect="spiro"
       id="path-effect11473"
       is_visible="true"
       lpeversion="1" />
    <inkscape:path-effect
       effect="spiro"
       id="path-effect11628"
       is_visible="true"
       lpeversion="1" />
    <inkscape:path-effect
       effect="spiro"
       id="path-effect11632"
       is_visible="true"
       lpeversion="1" />
    <inkscape:path-effect
       effect="spiro"
       id="path-effect11649"
       is_visible="true"
       lpeversion="1" />
    <inkscape:path-effect
       effect="spiro"
       id="path-effect11653"
       is_visible="true"
       lpeversion="1" />
  </defs>
  <sodipodi:namedview
     id="base"
     pagecolor="#ffffff"
     bordercolor="#666666"
     borderopacity="1.0"
     inkscape:pageopacity="0.0"
     inkscape:pageshadow="2"
     inkscape:zoom="0.57376086"
     inkscape:cx="410.44975"
     inkscape:cy="201.30338"
     inkscape:document-units="mm"
     inkscape:current-layer="layer1"
     showgrid="false"
     showborder="true"
     width="200mm"
     showguides="true"
     inkscape:guide-bbox="true"
     inkscape:window-width="1312"
     inkscape:window-height="969"
     inkscape:window-x="2240"
     inkscape:window-y="25"
     inkscape:window-maximized="0"
     inkscape:pagecheckerboard="0">
    <inkscape:grid
       type="xygrid"
       id="grid815"
       units="mm"
       spacingx="10"
       spacingy="10"
       empspacing="4"
       dotted="false" />
  </sodipodi:namedview>
  <metadata
     id="metadata5">
    <rdf:RDF>
      <cc:Work
         rdf:about="">
        <dc:format>image/svg+xml</dc:format>
        <dc:type
           rdf:resource="http://purl.org/dc/dcmitype/StillImage" />
      </cc:Work>
    </rdf:RDF>
  </metadata>
  <g
     inkscape:label="Layer 1"
     inkscape:groupmode="layer"
     id="layer1"
     transform="translate(0,-177)">
    <path
       style="font-variation-settings:normal;opacity:0.99;fill:none;fill-opacity:1;fill-rule:evenodd;stroke:#0000d8;stroke-width:0.702;stroke-linecap:butt;stroke-linejoin:round;stroke-miterlimit:4;stroke-dasharray:0.702, 0.702;stroke-dashoffset:0;stroke-opacity:1;marker-start:none;stop-color:#000000;stop-opacity:1"
       id="path2585-8-9"
       sodipodi:type="arc"
       sodipodi:cx="106.41933"
       sodipodi:cy="194.18762"
       sodipodi:rx="2.6283967"
       sodipodi:ry="9.3306799"
       sodipodi:start="4.6807179"
       sodipodi:end="1.8282527"
       sodipodi:open="true"
       sodipodi:arc-type="arc"
       d="m 106.3361,184.86162 a 2.6283967,9.3306799 0 0 1 2.4397,5.19291 2.6283967,9.3306799 0 0 1 -0.32046,10.03404 2.6283967,9.3306799 0 0 1 -2.70526,3.1222" />
    <path
       style="font-variation-settings:normal;opacity:0.99;vector-effect:none;fill:none;fill-opacity:1;fill-rule:evenodd;stroke:#0000d8;stroke-width:0.702204;stroke-linecap:butt;stroke-linejoin:round;stroke-miterlimit:4;stroke-dasharray:none;stroke-dashoffset:0;stroke-opacity:1;-inkscape-stroke:none;marker-start:url(#Arrow2Sstart-4);stop-color:#000000;stop-opacity:1"
       id="path2773-3-2"
       sodipodi:type="arc"
       sodipodi:cx="106.41934"
       sodipodi:cy="194.18762"
       sodipodi:rx="2.6283967"
       sodipodi:ry="9.3306799"
       sodipodi:start="2.0598142"
       sodipodi:end="4.7494607"
       sodipodi:open="true"
       sodipodi:arc-type="arc"
       d="m 105.18463,202.4247 a 2.6283967,9.3306799 0 0 1 -1.30328,-10.66326 2.6283967,9.3306799 0 0 1 2.63541,-6.89809" />
    <path
       style="font-variation-settings:normal;opacity:0.99;fill:none;fill-opacity:1;fill-rule:evenodd;stroke:#ff0000;stroke-width:0.702;stroke-linecap:butt;stroke-linejoin:round;stroke-miterlimit:4;stroke-dasharray:0.702, 0.702;stroke-dashoffset:0;stroke-opacity:1;marker-start:none;stop-color:#000000;stop-opacity:1"
       id="path2585-8-0"
       sodipodi:type="arc"
       sodipodi:cx="125.63626"
       sodipodi:cy="184.56917"
       sodipodi:rx="2.7149487"
       sodipodi:ry="7.0303741"
       sodipodi:start="4.6807179"
       sodipodi:end="1.8282527"
       sodipodi:open="true"
       sodipodi:arc-type="arc"
       d="m 125.55029,177.54232 a 2.7149487,7.0303741 0 0 1 2.52004,3.9127 2.7149487,7.0303741 0 0 1 -0.33101,7.56033 2.7149487,7.0303741 0 0 1 -2.79434,2.35248" />
    <path
       style="font-variation-settings:normal;opacity:0.99;vector-effect:none;fill:none;fill-opacity:1;fill-rule:evenodd;stroke:#ff0000;stroke-width:0.702204;stroke-linecap:butt;stroke-linejoin:round;stroke-miterlimit:4;stroke-dasharray:none;stroke-dashoffset:0;stroke-opacity:1;-inkscape-stroke:none;marker-start:url(#Arrow2Sstart-0);stop-color:#000000;stop-opacity:1"
       id="path2773-3-3"
       sodipodi:type="arc"
       sodipodi:cx="125.63626"
       sodipodi:cy="184.56917"
       sodipodi:rx="2.7149487"
       sodipodi:ry="7.0303741"
       sodipodi:start="2.0598142"
       sodipodi:end="4.7494607"
       sodipodi:open="true"
       sodipodi:arc-type="arc"
       d="m 124.36089,190.77554 a 2.7149487,7.0303741 0 0 1 -1.34619,-8.03442 2.7149487,7.0303741 0 0 1 2.72219,-5.1975" />
    <path
       style="font-variation-settings:normal;opacity:0.99;fill:none;fill-opacity:1;fill-rule:evenodd;stroke:#ff0000;stroke-width:0.702;stroke-linecap:butt;stroke-linejoin:round;stroke-miterlimit:4;stroke-dasharray:0.702, 0.702;stroke-dashoffset:0;stroke-opacity:1;marker-start:none;stop-color:#000000;stop-opacity:1"
       id="path2585-8-8"
       sodipodi:type="arc"
       sodipodi:cx="125.67686"
       sodipodi:cy="202.77348"
       sodipodi:rx="2.0621037"
       sodipodi:ry="5.4946089"
       sodipodi:start="4.6807179"
       sodipodi:end="1.8282527"
       sodipodi:open="true"
       sodipodi:arc-type="arc"
       d="m 125.61156,197.28163 a 2.0621037,5.4946089 0 0 1 1.91406,3.05798 2.0621037,5.4946089 0 0 1 -0.25141,5.9088 2.0621037,5.4946089 0 0 1 -2.12241,1.83858" />
    <path
       style="font-variation-settings:normal;opacity:0.99;vector-effect:none;fill:none;fill-opacity:1;fill-rule:evenodd;stroke:#ff0000;stroke-width:0.702204;stroke-linecap:butt;stroke-linejoin:round;stroke-miterlimit:4;stroke-dasharray:none;stroke-dashoffset:0;stroke-opacity:1;-inkscape-stroke:none;marker-start:url(#Arrow2Sstart-00);stop-color:#000000;stop-opacity:1"
       id="path2773-3-36"
       sodipodi:type="arc"
       sodipodi:cx="125.67686"
       sodipodi:cy="202.77348"
       sodipodi:rx="2.0621037"
       sodipodi:ry="5.4946089"
       sodipodi:start="2.0598142"
       sodipodi:end="4.7494607"
       sodipodi:open="true"
       sodipodi:arc-type="arc"
       d="m 124.70816,207.62409 a 2.0621037,5.4946089 0 0 1 -1.02248,-6.27932 2.0621037,5.4946089 0 0 1 2.06761,-4.06212" />
    <path
       style="fill:none;fill-opacity:1;stroke:#000000;stroke-width:0.702204;stroke-linecap:butt;stroke-linejoin:miter;stroke-dasharray:none;stroke-opacity:1;marker-start:none;marker-end:none"
       d="m 106.51676,184.56286 c -3.26422,0.43569 -6.549531,-0.42194 -9.716768,-1.32391 -3.167238,-0.90198 -6.402231,-1.866 -9.688056,-1.64621 -3.699664,0.24747 -7.267039,2.07248 -9.635342,4.92553 -2.368303,2.85305 -3.505331,6.69382 -3.07545,10.37675 0.429881,3.68293 2.419792,7.15742 5.376681,9.39473 2.956888,2.23732 6.83989,3.20773 10.502241,2.62813 2.725442,-0.43133 5.247947,-1.66082 7.75944,-2.80383 2.511494,-1.14302 5.126234,-2.23005 7.883224,-2.34438 3.63362,-0.15069 7.09346,1.39228 10.44577,2.80222 1.67616,0.70497 3.37018,1.38659 5.13545,1.82283 1.76527,0.43625 3.61371,0.62206 5.40768,0.32516 2.8554,-0.47257 5.35761,-2.11261 7.82151,-3.63111 2.4639,-1.5185 5.11788,-2.99214 8.0112,-3.06536 1.76851,-0.0448 3.50666,0.44203 5.17799,1.02191 1.67134,0.57987 3.31684,1.25954 5.04779,1.62483 3.75827,0.79312 7.83484,-0.003 10.99067,-2.19239 3.15583,-2.18961 5.33513,-5.75108 5.79936,-9.56397 0.46423,-3.81289 -0.80929,-7.81286 -3.4287,-10.6222 -2.6194,-2.80933 -6.54444,-4.36195 -10.37329,-4.05604 -2.37115,0.18944 -4.63125,1.04208 -6.8665,1.85566 -2.23524,0.81358 -4.52755,1.60515 -6.90553,1.66372 -3.009,0.0741 -5.90754,-1.02664 -8.72,-2.09886 -2.81246,-1.07222 -5.72529,-2.14885 -8.73259,-2.0235 -3.27159,0.13637 -6.30128,1.67906 -9.17276,3.25276 -2.87147,1.57371 -5.79837,3.24432 -9.04402,3.67753 z"
       id="path9966"
       inkscape:path-effect="#path-effect9968"
       inkscape:original-d="m 106.51676,184.56286 c -4.29172,0.83534 -12.672274,-8.44809 -19.404824,-2.97012 -4.2171,3.43127 9.10865,27.25941 3.16813,27.32514 -6.69234,0.0741 4.95048,-8.38208 15.642664,-5.14821 10.69221,3.23387 11.22076,3.2344 20.9889,4.95021 9.76815,1.7158 7.71463,-4.58411 15.83271,-6.69647 8.11807,-2.11235 4.87982,0.66692 10.22578,2.64674 5.34596,1.97982 -1028.31548,29.33738 2.98804,-26.4346 6.7134,-0.36305 -3.14532,6.35776 -13.77203,3.51938 -10.62671,-2.83838 -8.7269,-2.41135 -17.45259,-4.12236 -10.86724,-2.13094 -8.39467,5.01854 -18.21678,6.93029 z"
       sodipodi:nodetypes="sssssssssss" />
    <path
       style="fill:none;fill-opacity:1;stroke:#000000;stroke-width:0.702204;stroke-linecap:butt;stroke-linejoin:miter;stroke-dasharray:none;stroke-opacity:1;marker-start:none;marker-end:none"
       d="m 83.943806,194.06726 c 1.475843,1.80079 3.637018,3.02545 5.94025,3.36614 1.610308,0.23819 3.281468,0.0521 4.799904,-0.53461 1.518436,-0.58667 2.880618,-1.57251 3.912456,-2.83153"
       id="path11467"
       inkscape:path-effect="#path-effect11469"
       inkscape:original-d="m 83.943806,194.06726 c 1.98034,1.12231 3.96043,2.24436 5.94025,3.36614 1.97982,1.12179 5.80851,-2.24383 8.71236,-3.36614" />
    <path
       style="fill:none;fill-opacity:1;stroke:#000000;stroke-width:0.702204;stroke-linecap:butt;stroke-linejoin:miter;stroke-dasharray:none;stroke-opacity:1;marker-start:none;marker-end:none"
       d="m 87.111936,196.64137 c 1.113227,-1.17227 2.740521,-1.83798 4.35618,-1.78207 1.390357,0.0481 2.75613,0.62317 3.76216,1.58406"
       id="path11471"
       inkscape:path-effect="#path-effect11473"
       inkscape:original-d="m 87.111936,196.64137 c 1.45233,-0.59376 2.90439,-1.18779 4.35618,-1.78207 1.4518,-0.5943 2.50837,1.0563 3.76216,1.58406" />
    <path
       style="fill:none;fill-opacity:1;stroke:#000000;stroke-width:0.702204;stroke-linecap:butt;stroke-linejoin:miter;stroke-dasharray:none;stroke-opacity:1;marker-start:none;marker-end:none"
       d="m 148.46966,189.8844 c 1.47584,1.80079 3.63702,3.02545 5.94025,3.36614 1.61031,0.23819 3.28147,0.0521 4.7999,-0.53461 1.51844,-0.58667 2.88062,-1.57251 3.91246,-2.83153"
       id="path11467-5"
       inkscape:path-effect="#path-effect11628"
       inkscape:original-d="m 148.46966,189.8844 c 1.98034,1.12231 3.96043,2.24436 5.94025,3.36614 1.97982,1.12179 5.80851,-2.24383 8.71236,-3.36614" />
    <path
       style="fill:none;fill-opacity:1;stroke:#000000;stroke-width:0.702204;stroke-linecap:butt;stroke-linejoin:miter;stroke-dasharray:none;stroke-opacity:1;marker-start:none;marker-end:none"
       d="m 151.63779,192.45851 c 1.11323,-1.17227 2.74052,-1.83798 4.35618,-1.78207 1.39036,0.0481 2.75613,0.62317 3.76216,1.58406"
       id="path11471-8"
       inkscape:path-effect="#path-effect11632"
       inkscape:original-d="m 151.63779,192.45851 c 1.45233,-0.59376 2.90439,-1.18779 4.35618,-1.78207 1.4518,-0.5943 2.50837,1.0563 3.76216,1.58406" />
    <path
       style="fill:none;fill-opacity:1;stroke:#000000;stroke-width:0.702204;stroke-linecap:butt;stroke-linejoin:miter;stroke-dasharray:none;stroke-opacity:1;marker-start:none;marker-end:none"
       d="m 115.74718,192.60446 c 1.68629,1.55847 3.73675,2.7204 5.94025,3.36614 2.84697,0.83432 5.94361,0.79496 8.76846,-0.11145 2.82485,-0.9064 5.36626,-2.67611 7.1963,-5.01113"
       id="path11467-9"
       inkscape:path-effect="#path-effect11649"
       inkscape:original-d="m 115.74718,192.60446 c 1.98034,1.12231 3.96043,2.24436 5.94025,3.36614 1.97982,1.12179 13.06091,-4.00027 15.96476,-5.12258"
       sodipodi:nodetypes="csc" />
    <path
       style="fill:none;fill-opacity:1;stroke:#000000;stroke-width:0.702204;stroke-linecap:butt;stroke-linejoin:miter;stroke-dasharray:none;stroke-opacity:1;marker-start:none;marker-end:none"
       d="m 118.91531,195.17857 c 1.88141,-2.04983 4.69293,-3.21065 7.47245,-3.08524 2.34876,0.10598 4.64542,1.11531 6.31183,2.77391"
       id="path11471-6"
       inkscape:path-effect="#path-effect11653"
       inkscape:original-d="m 118.91531,195.17857 c 1.45233,-0.59376 6.02066,-2.49096 7.47245,-3.08524 1.4518,-0.5943 5.05804,2.24615 6.31183,2.77391"
       sodipodi:nodetypes="csc" />
    <text
       xml:space="preserve"
       style="font-size:5.64444px;line-height:1.25;font-family:sans-serif;letter-spacing:0px;word-spacing:0px;stroke-width:0.264583"
       x="103.72535"
       y="210.30312"
       id="text12621"><tspan
         sodipodi:role="line"
         id="tspan12619"
         style="stroke-width:0.264583"
         x="103.72535"
         y="210.30312">\(c\)</tspan></text>
    <text
       xml:space="preserve"
       style="font-size:5.64444px;line-height:1.25;font-family:sans-serif;letter-spacing:0px;word-spacing:0px;stroke-width:0.264583"
       x="128.27971"
       y="204.5023"
       id="text12621-4"><tspan
         sodipodi:role="line"
         id="tspan12619-0"
         style="stroke-width:0.264583"
         x="128.27971"
         y="204.5023">\(b\)</tspan></text>
    <text
       xml:space="preserve"
       style="font-size:5.64444px;line-height:1.25;font-family:sans-serif;letter-spacing:0px;word-spacing:0px;stroke-width:0.264583"
       x="129.31715"
       y="187.90338"
       id="text12621-3"><tspan
         sodipodi:role="line"
         id="tspan12619-8"
         style="stroke-width:0.264583"
         x="129.31715"
         y="187.90338">\(a\)</tspan></text>
    <path
       style="opacity:0.99;fill:#000000;fill-opacity:0.12;stroke:none;stroke-width:0.702204;stroke-linejoin:round;stroke-miterlimit:4;stroke-dasharray:none;stroke-dashoffset:0;stroke-opacity:1;marker-start:none;marker-end:none"
       d="m 122.92805,207.98406 c -1.50924,-0.31676 -3.20322,-0.87883 -6.2924,-2.08787 -4.28098,-1.67547 -6.45186,-2.30966 -8.45138,-2.46895 -0.64619,-0.0515 -0.95268,-0.13145 -1.134,-0.29592 -0.20335,-0.18443 -0.29295,-0.20159 -0.49314,-0.0944 -0.13455,0.072 -0.21419,0.1802 -0.17698,0.24042 0.0372,0.0602 -0.0669,0.10949 -0.23136,0.10949 -0.27034,0 -0.2863,-0.0238 -0.1663,-0.24802 0.11113,-0.20766 0.10413,-0.23705 -0.043,-0.18058 -0.2015,0.0773 -0.25761,-0.0934 -0.37069,-1.12755 -0.10393,-0.95052 -0.16308,-1.12316 -0.35902,-1.04797 -0.22681,0.087 -0.35358,-0.28743 -0.63837,-1.8856 -0.30208,-1.69526 -0.42011,-5.83532 -0.22093,-7.74951 0.35665,-3.4275 1.24109,-5.81198 2.14902,-5.79383 0.19922,0.004 0.41,-0.0834 0.51559,-0.21383 0.11579,-0.14299 0.62738,-0.33368 1.45464,-0.54219 1.87664,-0.47301 3.02743,-0.96732 7.24377,-3.11145 4.54855,-2.31307 5.67538,-2.77907 7.92799,-3.27863 l 0.32017,-0.071 -0.33602,0.6658 c -0.72783,1.44213 -1.0622,3.28082 -1.06016,5.82968 0.002,1.83964 0.17559,3.1848 0.57873,4.47095 0.29098,0.92834 0.29191,0.91239 -0.0534,0.91239 -0.5109,0 -0.3069,0.27383 0.687,0.92216 0.53456,0.34869 0.93144,0.67469 0.88196,0.72443 -0.0495,0.0498 -0.52647,0.19418 -1.06,0.32096 -1.21406,0.2885 -2.80853,1.05529 -3.82088,1.83751 l -0.77598,0.59957 -0.53428,-0.31311 c -0.29385,-0.17221 -0.97561,-0.64984 -1.51502,-1.0614 l -0.98073,-0.7483 -0.28249,0.28249 -0.28249,0.2825 0.52241,0.45984 c 1.28922,1.13482 3.40266,2.31286 5.20091,2.89901 1.06571,0.34737 2.90704,0.71055 3.60253,0.71055 h 0.39198 l -0.35094,0.2953 c -0.50537,0.42524 -1.02393,1.56573 -1.28315,2.82206 -0.28281,1.37071 -0.3026,3.8908 -0.0411,5.23973 0.0983,0.50719 0.20612,1.06481 0.2396,1.23916 0.0539,0.28047 0.0262,0.31699 -0.2404,0.31699 -0.4857,0 -0.34835,0.25653 0.39311,0.73425 0.38079,0.24534 0.72056,0.49173 0.75505,0.54754 0.0967,0.15644 -0.47926,0.10725 -1.66978,-0.14261 z M 108.0295,202.6321 c 0.18725,-0.41096 0.17376,-0.45807 -0.17686,-0.61783 -0.27749,-0.12643 -0.33257,-0.11303 -0.51616,0.12558 -0.27317,0.35508 -0.26468,0.40335 0.10636,0.60464 0.42159,0.22872 0.43217,0.22669 0.58666,-0.11239 z m 0.5249,-1.27198 c 0.14589,-0.3802 0.0696,-0.59965 -0.23489,-0.67608 -0.35144,-0.0882 -0.45616,-0.0107 -0.56142,0.41579 -0.059,0.23912 -0.0291,0.31866 0.13593,0.36126 0.41251,0.10647 0.59127,0.0791 0.66038,-0.10097 z m 0.34581,-1.38324 c 0.11661,-0.30388 0.0787,-0.62447 -0.0741,-0.62614 -0.0793,-7.9e-4 -0.25349,-0.0309 -0.38721,-0.0668 -0.20215,-0.0543 -0.25578,-0.002 -0.31834,0.31093 -0.0498,0.24901 -0.0261,0.4074 0.0702,0.46851 0.24337,0.15449 0.63534,0.10672 0.70947,-0.0865 z m 0.23054,-1.38325 c 0.13867,-0.36136 0.075,-0.62456 -0.15114,-0.62456 -0.12162,0 -0.29682,-0.029 -0.38935,-0.0645 -0.20904,-0.0802 -0.35216,0.65283 -0.15293,0.78323 0.22648,0.14822 0.62098,0.0947 0.69342,-0.0941 z m 0.18524,-1.60435 c 0,-0.24507 -0.0566,-0.40407 -0.14409,-0.40502 -0.0793,-8e-4 -0.2608,-0.0328 -0.40344,-0.0711 -0.23315,-0.0625 -0.25936,-0.0283 -0.25936,0.33778 0,0.4195 0.10019,0.51697 0.54753,0.53266 0.2213,0.008 0.25936,-0.0501 0.25936,-0.39434 z m 0.11527,-1.44088 c 0,-0.4501 -0.01,-0.46108 -0.40345,-0.46108 -0.38267,0 -0.40344,0.0203 -0.40344,0.39543 0,0.31842 0.0505,0.40515 0.25936,0.44538 0.53167,0.10241 0.54753,0.0914 0.54753,-0.37973 z m 0,-1.44088 c 0,-0.38423 -0.0192,-0.40344 -0.40345,-0.40344 -0.38423,0 -0.40344,0.0192 -0.40344,0.40344 0,0.38424 0.0192,0.40345 0.40344,0.40345 0.38424,0 0.40345,-0.0192 0.40345,-0.40345 z m 0,-1.38324 c 0,-0.38423 -0.0192,-0.40345 -0.40345,-0.40345 -0.38423,0 -0.40344,0.0192 -0.40344,0.40345 0,0.38423 0.0192,0.40345 0.40344,0.40345 0.38424,0 0.40345,-0.0192 0.40345,-0.40345 z m -0.11527,-1.38324 c 0,-0.38424 -0.0192,-0.40345 -0.40345,-0.40345 -0.38423,0 -0.40344,0.0192 -0.40344,0.40345 0,0.38423 0.0192,0.40344 0.40344,0.40344 0.38424,0 0.40345,-0.0192 0.40345,-0.40344 z m -0.11685,-1.18152 c -0.004,-0.54431 -0.11507,-0.67399 -0.53415,-0.62506 -0.34939,0.0408 -0.39692,0.0817 -0.34023,0.29301 0.0362,0.13508 0.0666,0.31044 0.0675,0.38968 0.001,0.0875 0.15996,0.14409 0.40503,0.14409 0.30799,0 0.40308,-0.0477 0.40187,-0.20172 z m -0.29391,-1.28495 c 0.0351,-0.0569 0.0322,-0.26188 -0.007,-0.45554 -0.0646,-0.32294 -0.10036,-0.34642 -0.43176,-0.28346 -0.46477,0.0883 -0.45415,0.074 -0.36314,0.48838 0.0647,0.29462 0.13313,0.35405 0.40762,0.35405 0.18142,0 0.35862,-0.0465 0.39378,-0.10343 z m -0.556,-1.27981 c 0.23467,0 0.30479,-0.25281 0.1691,-0.6097 -0.10626,-0.27948 -0.14332,-0.29392 -0.46579,-0.1815 -0.36287,0.12649 -0.39609,0.20518 -0.27599,0.65363 0.0458,0.17105 0.13084,0.243 0.2384,0.20172 0.0919,-0.0353 0.24238,-0.0641 0.33428,-0.0641 z m -0.52604,-1.32857 c 0.39515,-0.20434 0.40517,-0.25159 0.12945,-0.60997 -0.18358,-0.23862 -0.23866,-0.25202 -0.51615,-0.12559 -0.35063,0.15975 -0.36412,0.20687 -0.17687,0.61782 0.15765,0.34602 0.13235,0.34073 0.56357,0.11774 z"
       id="path16854" />
    <text
       xml:space="preserve"
       style="font-size:5.64444px;line-height:1.25;font-family:sans-serif;letter-spacing:0px;word-spacing:0px;stroke-width:0.264583"
       x="113.7321"
       y="189.26004"
       id="text3495-9"><tspan
         sodipodi:role="line"
         id="tspan3493-4"
         style="stroke-width:0.264583"
         x="113.7321"
         y="189.26004">\(S\)</tspan></text>
  </g>
</svg>
