<?xml version="1.0" encoding="UTF-8" standalone="no"?>
<!-- Created with Inkscape (http://www.inkscape.org/) -->

<svg
   width="240mm"
   height="35mm"
   viewBox="0 0 240 35"
   version="1.1"
   id="svg8"
   inkscape:version="1.1.1 (c3084ef, 2021-09-22)"
   sodipodi:docname="lec21-torus.svg"
   xmlns:inkscape="http://www.inkscape.org/namespaces/inkscape"
   xmlns:sodipodi="http://sodipodi.sourceforge.net/DTD/sodipodi-0.dtd"
   xmlns="http://www.w3.org/2000/svg"
   xmlns:svg="http://www.w3.org/2000/svg"
   xmlns:rdf="http://www.w3.org/1999/02/22-rdf-syntax-ns#"
   xmlns:cc="http://creativecommons.org/ns#"
   xmlns:dc="http://purl.org/dc/elements/1.1/">
  <defs
     id="defs2">
    <inkscape:path-effect
       effect="spiro"
       id="path-effect11653"
       is_visible="true"
       lpeversion="1" />
    <inkscape:path-effect
       effect="spiro"
       id="path-effect11649"
       is_visible="true"
       lpeversion="1" />
    <inkscape:path-effect
       effect="spiro"
       id="path-effect11632"
       is_visible="true"
       lpeversion="1" />
    <inkscape:path-effect
       effect="spiro"
       id="path-effect11628"
       is_visible="true"
       lpeversion="1" />
    <inkscape:path-effect
       effect="spiro"
       id="path-effect11473"
       is_visible="true"
       lpeversion="1" />
    <inkscape:path-effect
       effect="spiro"
       id="path-effect11469"
       is_visible="true"
       lpeversion="1" />
    <inkscape:path-effect
       effect="spiro"
       id="path-effect9968"
       is_visible="true"
       lpeversion="1" />
    <inkscape:path-effect
       effect="spiro"
       id="path-effect8889"
       is_visible="true"
       lpeversion="1" />
    <marker
       style="overflow:visible"
       id="Arrow2Sstart"
       refX="0"
       refY="0"
       orient="auto"
       inkscape:stockid="Arrow2Sstart"
       inkscape:isstock="true">
      <path
         transform="matrix(0.3,0,0,0.3,-0.69,0)"
         d="M 8.7185878,4.0337352 -2.2072895,0.01601326 8.7185884,-4.0017078 c -1.7454984,2.3720609 -1.7354408,5.6174519 -6e-7,8.035443 z"
         style="fill:context-stroke;fill-rule:evenodd;stroke:context-stroke;stroke-width:0.625;stroke-linejoin:round"
         id="path1097" />
    </marker>
    <marker
       style="overflow:visible"
       id="Arrow1Sstart"
       refX="0"
       refY="0"
       orient="auto"
       inkscape:stockid="Arrow1Sstart"
       inkscape:isstock="true">
      <path
         transform="matrix(0.2,0,0,0.2,1.2,0)"
         style="fill:context-stroke;fill-rule:evenodd;stroke:context-stroke;stroke-width:1pt"
         d="M 0,0 5,-5 -12.5,0 5,5 Z"
         id="path1079" />
    </marker>
    <marker
       style="overflow:visible"
       id="Arrow1Lend"
       refX="0"
       refY="0"
       orient="auto"
       inkscape:stockid="Arrow1Lend"
       inkscape:isstock="true">
      <path
         transform="matrix(-0.8,0,0,-0.8,-10,0)"
         style="fill:context-stroke;fill-rule:evenodd;stroke:context-stroke;stroke-width:1pt"
         d="M 0,0 5,-5 -12.5,0 5,5 Z"
         id="path1070" />
    </marker>
    <marker
       style="overflow:visible"
       id="Arrow2Send-9"
       refX="0"
       refY="0"
       orient="auto"
       inkscape:stockid="Arrow2Send"
       inkscape:isstock="true">
      <path
         transform="matrix(-0.3,0,0,-0.3,0.69,0)"
         d="M 8.7185878,4.0337352 -2.2072895,0.01601326 8.7185884,-4.0017078 c -1.7454984,2.3720609 -1.7354408,5.6174519 -6e-7,8.035443 z"
         style="fill:context-stroke;fill-rule:evenodd;stroke:context-stroke;stroke-width:0.625;stroke-linejoin:round"
         id="path1337-1" />
    </marker>
    <marker
       style="overflow:visible"
       id="Arrow2Send"
       refX="0"
       refY="0"
       orient="auto"
       inkscape:stockid="Arrow2Send"
       inkscape:isstock="true">
      <path
         transform="matrix(-0.3,0,0,-0.3,0.69,0)"
         d="M 8.7185878,4.0337352 -2.2072895,0.01601326 8.7185884,-4.0017078 c -1.7454984,2.3720609 -1.7354408,5.6174519 -6e-7,8.035443 z"
         style="fill:context-stroke;fill-rule:evenodd;stroke:context-stroke;stroke-width:0.625;stroke-linejoin:round"
         id="path1337" />
    </marker>
    <marker
       style="overflow:visible"
       id="Arrow2Send-2"
       refX="0"
       refY="0"
       orient="auto"
       inkscape:stockid="Arrow2Send"
       inkscape:isstock="true">
      <path
         transform="matrix(-0.3,0,0,-0.3,0.69,0)"
         d="M 8.7185878,4.0337352 -2.2072895,0.01601326 8.7185884,-4.0017078 c -1.7454984,2.3720609 -1.7354408,5.6174519 -6e-7,8.035443 z"
         style="fill:context-stroke;fill-rule:evenodd;stroke:context-stroke;stroke-width:0.625;stroke-linejoin:round"
         id="path1337-4" />
    </marker>
    <marker
       id="marker-arrow-2.654"
       orient="auto-start-reverse"
       refY="0"
       refX="0"
       markerHeight="3"
       markerWidth="2">
      <g
         transform="scale(0.85737252)"
         id="g1005"><path
   d="M -1.55415,2.0722 C -1.42464,1.29512 0,0.1295 0.38852,0 0,-0.1295 -1.42464,-1.29512 -1.55415,-2.0722"
   style="fill:none;stroke:#000000;stroke-linecap:round;stroke-linejoin:round;stroke-miterlimit:10;stroke-dasharray:none;stroke-opacity:1"
   id="path1003" />
0&quot; /&gt;
   </g>
    </marker>
    <marker
       id="marker-arrow-2.654-6"
       orient="auto-start-reverse"
       refY="0"
       refX="0"
       markerHeight="3"
       markerWidth="2">
      <g
         transform="scale(0.85737252)"
         id="g6755"><path
   d="M -1.55415,2.0722 C -1.42464,1.29512 0,0.1295 0.38852,0 0,-0.1295 -1.42464,-1.29512 -1.55415,-2.0722"
   style="fill:none;stroke:#000000;stroke-linecap:round;stroke-linejoin:round;stroke-miterlimit:10;stroke-dasharray:none;stroke-opacity:1"
   id="path6753" />
0&quot; /&gt;
   </g>
    </marker>
    <marker
       id="marker-arrow-2.654-7"
       orient="auto-start-reverse"
       refY="0"
       refX="0"
       markerHeight="3"
       markerWidth="2">
      <g
         transform="scale(0.85737252)"
         id="g7351"><path
   d="M -1.55415,2.0722 C -1.42464,1.29512 0,0.1295 0.38852,0 0,-0.1295 -1.42464,-1.29512 -1.55415,-2.0722"
   style="fill:none;stroke:#000000;stroke-linecap:round;stroke-linejoin:round;stroke-miterlimit:10;stroke-dasharray:none;stroke-opacity:1"
   id="path7349" />
0&quot; /&gt;
   </g>
    </marker>
    <marker
       style="overflow:visible"
       id="Arrow2Sstart-0"
       refX="0"
       refY="0"
       orient="auto"
       inkscape:stockid="Arrow2Sstart"
       inkscape:isstock="true">
      <path
         transform="matrix(0.3,0,0,0.3,-0.69,0)"
         d="M 8.7185878,4.0337352 -2.2072895,0.01601326 8.7185884,-4.0017078 c -1.7454984,2.3720609 -1.7354408,5.6174519 -6e-7,8.035443 z"
         style="fill:context-stroke;fill-rule:evenodd;stroke:context-stroke;stroke-width:0.625;stroke-linejoin:round"
         id="path1097-1" />
    </marker>
    <marker
       style="overflow:visible"
       id="Arrow2Sstart-00"
       refX="0"
       refY="0"
       orient="auto"
       inkscape:stockid="Arrow2Sstart"
       inkscape:isstock="true">
      <path
         transform="matrix(0.3,0,0,0.3,-0.69,0)"
         d="M 8.7185878,4.0337352 -2.2072895,0.01601326 8.7185884,-4.0017078 c -1.7454984,2.3720609 -1.7354408,5.6174519 -6e-7,8.035443 z"
         style="fill:context-stroke;fill-rule:evenodd;stroke:context-stroke;stroke-width:0.625;stroke-linejoin:round"
         id="path1097-3" />
    </marker>
    <marker
       style="overflow:visible"
       id="Arrow2Sstart-4"
       refX="0"
       refY="0"
       orient="auto"
       inkscape:stockid="Arrow2Sstart"
       inkscape:isstock="true">
      <path
         transform="matrix(0.3,0,0,0.3,-0.69,0)"
         d="M 8.7185878,4.0337352 -2.2072895,0.01601326 8.7185884,-4.0017078 c -1.7454984,2.3720609 -1.7354408,5.6174519 -6e-7,8.035443 z"
         style="fill:context-stroke;fill-rule:evenodd;stroke:context-stroke;stroke-width:0.625;stroke-linejoin:round"
         id="path1097-0" />
    </marker>
  </defs>
  <sodipodi:namedview
     id="base"
     pagecolor="#ffffff"
     bordercolor="#666666"
     borderopacity="1.0"
     inkscape:pageopacity="0.0"
     inkscape:pageshadow="2"
     inkscape:zoom="0.37099436"
     inkscape:cx="260.11177"
     inkscape:cy="-180.59574"
     inkscape:document-units="mm"
     inkscape:current-layer="layer1"
     showgrid="false"
     showborder="true"
     width="200mm"
     showguides="true"
     inkscape:guide-bbox="true"
     inkscape:window-width="1280"
     inkscape:window-height="680"
     inkscape:window-x="1728"
     inkscape:window-y="25"
     inkscape:window-maximized="0"
     inkscape:pagecheckerboard="0">
    <inkscape:grid
       type="xygrid"
       id="grid815"
       units="mm"
       spacingx="10"
       spacingy="10"
       empspacing="4"
       dotted="false" />
  </sodipodi:namedview>
  <metadata
     id="metadata5">
    <rdf:RDF>
      <cc:Work
         rdf:about="">
        <dc:format>image/svg+xml</dc:format>
        <dc:type
           rdf:resource="http://purl.org/dc/dcmitype/StillImage" />
      </cc:Work>
    </rdf:RDF>
  </metadata>
  <g
     inkscape:label="Layer 1"
     inkscape:groupmode="layer"
     id="layer1"
     transform="translate(0,-177)">
    <path
       style="fill:#ffffff;fill-opacity:1;stroke:#000000;stroke-width:0.702204;stroke-linecap:butt;stroke-linejoin:miter;stroke-dasharray:none;stroke-opacity:1;marker-start:none;marker-end:none"
       d="m 106.43283,192.8143 c 0,0 24.32873,12.45908 43.1282,-0.44251"
       id="path3047"
       sodipodi:nodetypes="cc" />
    <path
       style="font-variation-settings:normal;opacity:0.99;vector-effect:none;fill:none;fill-opacity:1;fill-rule:evenodd;stroke:#000000;stroke-width:0.702204;stroke-linecap:butt;stroke-linejoin:round;stroke-miterlimit:4;stroke-dasharray:none;stroke-dashoffset:0;stroke-opacity:1;-inkscape-stroke:none;marker-start:none;marker-end:none;stop-color:#000000;stop-opacity:1"
       id="path2273"
       sodipodi:type="arc"
       sodipodi:cx="128.36649"
       sodipodi:cy="194.19963"
       sodipodi:rx="38.064465"
       sodipodi:ry="16.784332"
       sodipodi:start="6.1848709"
       sodipodi:end="6.1778721"
       sodipodi:open="true"
       sodipodi:arc-type="arc"
       d="M 166.24714,192.55215 A 38.064465,16.784332 0 0 1 132.16902,210.9 38.064465,16.784332 0 0 1 90.49914,195.90556 a 38.064465,16.784332 0 0 1 33.9323,-18.40033 38.064465,16.784332 0 0 1 41.78862,14.93005" />
    <path
       style="font-variation-settings:normal;opacity:0.99;fill:none;fill-opacity:1;fill-rule:evenodd;stroke:#0000eb;stroke-width:0.702204;stroke-linecap:butt;stroke-linejoin:round;stroke-miterlimit:4;stroke-dasharray:0.702204, 0.702204;stroke-dashoffset:0;stroke-opacity:1;marker-start:none;marker-end:none;stop-color:#000000;stop-opacity:1"
       id="path2585"
       sodipodi:type="arc"
       sodipodi:cx="130.58051"
       sodipodi:cy="204.79738"
       sodipodi:rx="2.9972019"
       sodipodi:ry="6.1442642"
       sodipodi:start="4.6807179"
       sodipodi:end="1.7097886"
       sodipodi:open="true"
       sodipodi:arc-type="arc"
       d="m 130.4856,198.6562 a 2.9972019,6.1442642 0 0 1 2.72752,3.20419 2.9972019,6.1442642 0 0 1 -0.16861,6.43517 2.9972019,6.1442642 0 0 1 -2.87925,2.58683" />
    <path
       style="font-variation-settings:normal;opacity:0.99;vector-effect:none;fill:none;fill-opacity:1;fill-rule:evenodd;stroke:#0000eb;stroke-width:0.702204;stroke-linecap:butt;stroke-linejoin:round;stroke-miterlimit:4;stroke-dasharray:none;stroke-dashoffset:0;stroke-opacity:1;-inkscape-stroke:none;marker-start:none;marker-end:url(#Arrow2Send-2);stop-color:#000000;stop-opacity:1"
       id="path2773"
       sodipodi:type="arc"
       sodipodi:cx="130.58055"
       sodipodi:cy="204.79738"
       sodipodi:rx="2.9972019"
       sodipodi:ry="6.1442642"
       sodipodi:start="1.7297348"
       sodipodi:end="4.1849018"
       sodipodi:open="true"
       sodipodi:arc-type="arc"
       d="m 130.10618,210.8642 a 2.9972019,6.1442642 0 0 1 -2.47209,-4.94099 2.9972019,6.1442642 0 0 1 1.43778,-6.43493" />
    <path
       style="font-variation-settings:normal;opacity:0.99;fill:none;fill-opacity:1;fill-rule:evenodd;stroke:#ff0000;stroke-width:0.702;stroke-linecap:butt;stroke-linejoin:round;stroke-miterlimit:4;stroke-dasharray:0.702, 0.702;stroke-dashoffset:0;stroke-opacity:1;marker-start:none;stop-color:#000000;stop-opacity:1"
       id="path2585-8"
       sodipodi:type="arc"
       sodipodi:cx="129.18982"
       sodipodi:cy="184.79759"
       sodipodi:rx="3.4294508"
       sodipodi:ry="7.0303741"
       sodipodi:start="4.6807179"
       sodipodi:end="1.8282527"
       sodipodi:open="true"
       sodipodi:arc-type="arc"
       d="m 129.08122,177.77074 a 3.4294508,7.0303741 0 0 1 3.18325,3.9127 3.4294508,7.0303741 0 0 1 -0.41812,7.56033 3.4294508,7.0303741 0 0 1 -3.52974,2.35248" />
    <path
       style="font-variation-settings:normal;opacity:0.99;vector-effect:none;fill:none;fill-opacity:1;fill-rule:evenodd;stroke:#ff0000;stroke-width:0.702204;stroke-linecap:butt;stroke-linejoin:round;stroke-miterlimit:4;stroke-dasharray:none;stroke-dashoffset:0;stroke-opacity:1;-inkscape-stroke:none;marker-start:url(#Arrow2Sstart);stop-color:#000000;stop-opacity:1"
       id="path2773-3"
       sodipodi:type="arc"
       sodipodi:cx="129.18983"
       sodipodi:cy="184.79759"
       sodipodi:rx="3.4294508"
       sodipodi:ry="7.0303741"
       sodipodi:start="2.0598142"
       sodipodi:end="4.7494607"
       sodipodi:open="true"
       sodipodi:arc-type="arc"
       d="m 127.57882,191.00397 a 3.4294508,7.0303741 0 0 1 -1.70047,-8.03443 3.4294508,7.0303741 0 0 1 3.43859,-5.19749" />
    <text
       xml:space="preserve"
       style="font-size:5.64444px;line-height:1.25;font-family:sans-serif;letter-spacing:0px;word-spacing:0px;stroke-width:0.264583"
       x="121.29185"
       y="206.0358"
       id="text2390"><tspan
         sodipodi:role="line"
         id="tspan2388"
         style="stroke-width:0.264583"
         x="121.29185"
         y="206.0358">\(a\)</tspan></text>
    <text
       xml:space="preserve"
       style="font-size:5.64444px;line-height:1.25;font-family:sans-serif;letter-spacing:0px;word-spacing:0px;stroke-width:0.264583"
       x="121.00032"
       y="187.45517"
       id="text2390-1"><tspan
         sodipodi:role="line"
         id="tspan2388-3"
         style="stroke-width:0.264583"
         x="121.00032"
         y="187.45517">\(b\)</tspan></text>
    <text
       xml:space="preserve"
       style="font-size:5.64444px;line-height:1.25;font-family:sans-serif;letter-spacing:0px;word-spacing:0px;stroke-width:0.264583"
       x="144.51909"
       y="188.68121"
       id="text3495"><tspan
         sodipodi:role="line"
         id="tspan3493"
         style="stroke-width:0.264583"
         x="144.51909"
         y="188.68121">\(S\)</tspan></text>
    <path
       style="fill:#ffffff;fill-opacity:1;stroke:#000000;stroke-width:0.702204;stroke-linecap:butt;stroke-linejoin:miter;stroke-dasharray:none;stroke-opacity:1;marker-start:none;marker-end:none"
       d="m 114.91102,195.98435 c 0,0 14.37607,-8.84681 27.27766,0"
       id="path3045" />
    <path
       style="fill:#ffffff;fill-opacity:1;stroke:#000000;stroke-width:0.702204;stroke-linecap:butt;stroke-linejoin:miter;stroke-dasharray:none;stroke-opacity:1;marker-start:none;marker-end:none"
       d="m 114.91102,195.98435 c 4.64569,1.69854 9.60641,2.53104 14.55207,2.44211 4.49389,-0.0808 8.9732,-0.92092 13.19096,-2.47401"
       id="path8887"
       inkscape:path-effect="#path-effect8889"
       inkscape:original-d="m 114.91102,195.98435 c 4.85095,0.8143 9.70165,1.62834 14.55207,2.44211 4.85043,0.81377 8.94935,-1.65971 13.19096,-2.47401"
       sodipodi:nodetypes="csc" />
    <path
       style="opacity:0.99;fill:#000000;fill-opacity:0.12;stroke:none;stroke-width:0.774647;stroke-linejoin:round;stroke-miterlimit:4;stroke-dasharray:none;stroke-dashoffset:0;stroke-opacity:1;marker-start:none;marker-end:none"
       d="m 129.5322,209.71746 c -0.38627,-0.45905 -0.87224,-1.44159 -1.07994,-2.18341 -0.48228,-1.72257 -0.27066,-5.52784 0.34686,-6.23678 0.2439,-0.28002 0.57132,-0.90316 0.72759,-1.38476 0.22637,-0.69766 0.42467,-0.85495 0.97559,-0.77384 0.38031,0.056 0.84072,0.30591 1.02314,0.55538 0.40677,0.5563 1.00398,0.24194 1.00398,-0.52847 0,-0.43867 0.20374,-0.56653 0.90276,-0.56653 1.62259,0 6.76234,-1.18469 9.33953,-2.15272 2.96022,-1.11191 6.97859,-3.33778 6.97859,-3.86563 0,-0.73173 -0.47848,-0.59905 -2.9188,0.80937 -3.80771,2.19762 -4.18668,2.2593 -6.28285,1.02272 -2.06832,-1.22016 -4.48856,-2.06355 -7.29094,-2.54071 -1.12296,-0.19121 -2.25599,-0.53525 -2.51784,-0.76455 -0.39072,-0.34214 -0.54775,-0.34899 -0.87564,-0.0382 -0.78387,0.74297 -1.42977,0.51482 -1.90501,-0.67292 -0.25032,-0.62561 -0.56604,-1.13748 -0.7016,-1.13748 -0.87333,0 -1.15994,-6.01398 -0.39377,-8.26255 0.5022,-1.47387 1.9167,-2.90505 2.60874,-2.63949 0.24527,0.0941 0.43787,-0.005 0.44842,-0.23111 0.0102,-0.21784 0.14136,-0.0895 0.29152,0.2851 0.30397,0.75841 1.02789,0.70324 0.96001,-0.0732 -0.0373,-0.4269 0.16773,-0.47493 1.4594,-0.34185 0.82655,0.0851 2.55358,0.23531 3.83785,0.33368 5.3931,0.41309 12.70139,2.10556 17.57096,4.06913 5.0733,2.04572 9.43782,5.34196 10.88226,8.21866 4.24137,8.44703 -7.05881,16.68304 -26.35204,19.20639 -3.89862,0.50989 -5.74967,0.57102 -5.74967,0.18985 0,-0.52327 -0.89856,-0.60399 -1.10575,-0.0993 -0.33882,0.82529 -1.40413,0.72928 -2.18335,-0.19677 z m 3.74264,-0.63619 c 0.30079,-0.48669 -0.37571,-1.04479 -0.77836,-0.64214 -0.33681,0.33681 -0.12601,0.95945 0.32482,0.95945 0.14159,0 0.34568,-0.14279 0.45354,-0.31731 z m 0.4221,-1.57991 c 0,-0.2408 -0.19702,-0.43781 -0.43782,-0.43781 -0.2408,0 -0.43782,0.19701 -0.43782,0.43781 0,0.2408 0.19702,0.43782 0.43782,0.43782 0.2408,0 0.43782,-0.19702 0.43782,-0.43782 z m 0.29188,-1.45939 c 0,-0.2408 -0.19702,-0.43782 -0.43782,-0.43782 -0.2408,0 -0.43782,0.19702 -0.43782,0.43782 0,0.2408 0.19702,0.43782 0.43782,0.43782 0.2408,0 0.43782,-0.19702 0.43782,-0.43782 z m 0,-1.31346 c 0,-0.32431 -0.19459,-0.58376 -0.43782,-0.58376 -0.24323,0 -0.43782,0.25945 -0.43782,0.58376 0,0.32431 0.19459,0.58376 0.43782,0.58376 0.24323,0 0.43782,-0.25945 0.43782,-0.58376 z m 0,-1.45939 c 0,-0.32107 -0.17513,-0.58376 -0.38917,-0.58376 -0.54899,0 -0.76424,0.28088 -0.58107,0.75823 0.23824,0.62085 0.97024,0.48921 0.97024,-0.17447 z m -0.29188,-1.4594 c 0,-0.63983 -0.0382,-0.6628 -0.6874,-0.41366 -0.52676,0.20214 -0.30286,0.99742 0.28081,0.99742 0.22362,0 0.40659,-0.26269 0.40659,-0.58376 z m -0.29188,-1.2079 c 0,-0.33118 -0.83647,-0.67983 -1.07022,-0.44608 -0.0932,0.0932 -0.0925,0.36988 0.002,0.6149 0.17695,0.46116 1.06867,0.3203 1.06867,-0.16882 z m -1.64148,-10.04049 c 0.0992,-0.25848 -0.0167,-0.52138 -0.27324,-0.61982 -0.5711,-0.21915 -0.83171,0.0444 -0.61147,0.61828 0.22156,0.57738 0.66344,0.57815 0.88471,0.002 z m 0.76137,-1.66726 c 0.002,-0.1204 -0.25822,-0.21891 -0.57929,-0.21891 -0.63663,0 -0.8086,0.74904 -0.21891,0.95349 0.35137,0.12182 0.78894,-0.28087 0.7982,-0.73458 z m 0.29635,-1.09454 c 0,-0.32107 -0.18926,-0.58376 -0.42059,-0.58376 -0.51563,0 -0.8453,0.48033 -0.60098,0.87564 0.31741,0.51358 1.02157,0.3124 1.02157,-0.29188 z m 0.29188,-1.28223 c 0,-0.44028 -0.709,-0.83027 -0.99304,-0.54623 -0.38438,0.38438 -0.1402,0.95282 0.40928,0.95282 0.32107,0 0.58376,-0.18297 0.58376,-0.40659 z m 0,-1.49063 c 0,-0.2408 -0.19702,-0.43781 -0.43782,-0.43781 -0.2408,0 -0.43781,0.19701 -0.43781,0.43781 0,0.24081 0.19701,0.43782 0.43781,0.43782 0.2408,0 0.43782,-0.19701 0.43782,-0.43782 z m 0,-1.45939 c 0,-0.24323 -0.25945,-0.43782 -0.58376,-0.43782 -0.3243,0 -0.58376,0.19459 -0.58376,0.43782 0,0.24323 0.25946,0.43782 0.58376,0.43782 0.32431,0 0.58376,-0.19459 0.58376,-0.43782 z m -0.34344,-1.41061 c 0.0559,-0.28802 -0.093,-0.4866 -0.36485,-0.4866 -0.27076,0 -0.45923,0.24955 -0.45923,0.60808 0,0.71132 0.68206,0.61077 0.82408,-0.12148 z m -0.24032,-1.36224 c 0,-0.63983 -0.0382,-0.6628 -0.68739,-0.41366 -0.52677,0.20213 -0.30287,0.99742 0.2808,0.99742 0.22363,0 0.40659,-0.26269 0.40659,-0.58376 z m -0.68447,-1.03417 c 0.22023,-0.57391 -0.0404,-0.83742 -0.61147,-0.61827 -0.25653,0.0984 -0.37243,0.36134 -0.27325,0.61981 0.22127,0.57662 0.66315,0.57585 0.88472,-0.002 z"
       id="path19720" />
  </g>
</svg>
