<?xml version="1.0" encoding="UTF-8" standalone="no"?>
<!-- Created with Inkscape (http://www.inkscape.org/) -->

<svg
   width="240mm"
   height="120mm"
   viewBox="0 0 240 120"
   version="1.1"
   id="svg8"
   inkscape:version="1.1.1 (c3084ef, 2021-09-22)"
   sodipodi:docname="pf:col:lec14-6.svg"
   xmlns:inkscape="http://www.inkscape.org/namespaces/inkscape"
   xmlns:sodipodi="http://sodipodi.sourceforge.net/DTD/sodipodi-0.dtd"
   xmlns="http://www.w3.org/2000/svg"
   xmlns:svg="http://www.w3.org/2000/svg"
   xmlns:rdf="http://www.w3.org/1999/02/22-rdf-syntax-ns#"
   xmlns:cc="http://creativecommons.org/ns#"
   xmlns:dc="http://purl.org/dc/elements/1.1/">
  <defs
     id="defs2">
    <inkscape:path-effect
       effect="spiro"
       id="path-effect1160"
       is_visible="true"
       lpeversion="1" />
    <marker
       id="marker-arrow-1"
       orient="auto-start-reverse"
       refY="0"
       refX="0"
       markerHeight="3"
       markerWidth="2">
      <g
         transform="scale(1.3933333)"
         id="g1070"><path
   d="M -1.55415,2.0722 C -1.42464,1.29512 0,0.1295 0.38852,0 0,-0.1295 -1.42464,-1.29512 -1.55415,-2.0722"
   style="fill:none;stroke:#000000;stroke-linecap:round;stroke-linejoin:round;stroke-miterlimit:10;stroke-dasharray:none;stroke-opacity:1"
   id="path1068" />



0&quot; /&gt;
   </g>
    </marker>
    <inkscape:path-effect
       effect="spiro"
       id="path-effect24817"
       is_visible="true"
       lpeversion="1" />
    <marker
       id="marker2778"
       orient="auto-start-reverse"
       refY="0"
       refX="0"
       markerHeight="3"
       markerWidth="2">
      <g
         transform="scale(1.3933333)"
         id="g2776"><path
   d="M -1.55415,2.0722 C -1.42464,1.29512 0,0.1295 0.38852,0 0,-0.1295 -1.42464,-1.29512 -1.55415,-2.0722"
   style="fill:none;stroke:#000000;stroke-linecap:round;stroke-linejoin:round;stroke-miterlimit:10;stroke-dasharray:none;stroke-opacity:1"
   id="path2774" />



0&quot; /&gt;
   </g>
    </marker>
    <inkscape:path-effect
       effect="spiro"
       id="path-effect1651"
       is_visible="true"
       lpeversion="1" />
    <inkscape:path-effect
       effect="spiro"
       id="path-effect1180"
       is_visible="true"
       lpeversion="1" />
    <marker
       id="marker2786"
       orient="auto-start-reverse"
       refY="0"
       refX="0"
       markerHeight="3"
       markerWidth="2">
      <g
         transform="scale(1.3933333)"
         id="g2784"><path
   d="M -1.55415,2.0722 C -1.42464,1.29512 0,0.1295 0.38852,0 0,-0.1295 -1.42464,-1.29512 -1.55415,-2.0722"
   style="fill:none;stroke:#000000;stroke-linecap:round;stroke-linejoin:round;stroke-miterlimit:10;stroke-dasharray:none;stroke-opacity:1"
   id="path2782" />



0&quot; /&gt;
   </g>
    </marker>
    <inkscape:path-effect
       effect="spiro"
       id="path-effect1066"
       is_visible="true"
       lpeversion="1" />
    <inkscape:path-effect
       effect="spiro"
       id="path-effect1404"
       is_visible="true"
       lpeversion="1" />
  </defs>
  <sodipodi:namedview
     id="base"
     pagecolor="#ffffff"
     bordercolor="#666666"
     borderopacity="1.0"
     inkscape:pageopacity="0.0"
     inkscape:pageshadow="2"
     inkscape:zoom="1.782231"
     inkscape:cx="185.44173"
     inkscape:cy="377.6166"
     inkscape:document-units="mm"
     inkscape:current-layer="layer1"
     showgrid="false"
     showborder="true"
     width="200mm"
     showguides="true"
     inkscape:guide-bbox="true"
     inkscape:window-width="1280"
     inkscape:window-height="680"
     inkscape:window-x="1728"
     inkscape:window-y="732"
     inkscape:window-maximized="0"
     inkscape:pagecheckerboard="0">
    <inkscape:grid
       type="xygrid"
       id="grid815"
       units="mm"
       spacingx="10"
       spacingy="10"
       empspacing="4"
       dotted="false" />
  </sodipodi:namedview>
  <metadata
     id="metadata5">
    <rdf:RDF>
      <cc:Work
         rdf:about="">
        <dc:format>image/svg+xml</dc:format>
        <dc:type
           rdf:resource="http://purl.org/dc/dcmitype/StillImage" />
      </cc:Work>
    </rdf:RDF>
  </metadata>
  <g
     inkscape:label="Layer 1"
     inkscape:groupmode="layer"
     id="layer1"
     transform="translate(0,-177)">
    <rect
       style="font-variation-settings:normal;vector-effect:none;fill:none;fill-opacity:1;fill-rule:evenodd;stroke:#000000;stroke-width:0.264583;stroke-linecap:butt;stroke-linejoin:miter;stroke-miterlimit:4;stroke-dasharray:none;stroke-dashoffset:0;stroke-opacity:1;-inkscape-stroke:none;marker-start:none;marker-end:none;stop-color:#000000"
       id="rect845"
       width="43.371094"
       height="43.371094"
       x="27.160748"
       y="241.70152" />
    <path
       style="fill:none;fill-opacity:1;stroke:#000000;stroke-width:0.264583;stroke-linecap:butt;stroke-linejoin:miter;stroke-dasharray:none;stroke-opacity:1;marker-start:none;marker-end:url(#marker-arrow-1)"
       d="M 86.657954,263.52606 H 126.03788"
       id="path1064"
       inkscape:path-effect="#path-effect1066"
       inkscape:original-d="m 86.657954,263.52606 c 13.126915,2.7e-4 26.253556,2.7e-4 39.379926,0" />
    <path
       style="fill:none;stroke:#000000;stroke-width:0.264583px;stroke-linecap:butt;stroke-linejoin:miter;stroke-opacity:1"
       d="m 144.77424,257.40023 c -0.77986,-3.26697 -1.10695,-6.72836 -0.21512,-9.96656 0.44592,-1.6191 1.19798,-3.16326 2.27227,-4.45407 1.07429,-1.29082 2.47693,-2.32174 4.0627,-2.87459 2.3473,-0.81835 4.93362,-0.55869 7.36025,-0.0193 2.42663,0.53942 4.80265,1.34909 7.27417,1.61575 3.34895,0.36132 6.71886,-0.28946 10.00394,-1.03399 3.28508,-0.74452 6.58388,-1.59077 9.95208,-1.62681 2.91012,-0.0311 5.87012,0.57165 8.3745,2.05416 2.50439,1.4825 4.51482,3.89695 5.1956,6.72649 0.45277,1.88186 0.31485,3.85833 -0.0104,5.76637 -0.32531,1.90803 -0.83426,3.78232 -1.12315,5.6962 -0.28889,1.91389 -0.35069,3.90189 0.20885,5.75481 0.27977,0.92646 0.71514,1.81049 1.31902,2.56676 0.60388,0.75626 1.37911,1.38224 2.26653,1.76837 1.43847,0.6259 3.0739,0.59444 4.63216,0.41351 1.55827,-0.18094 3.11434,-0.50073 4.68065,-0.41351 2.47312,0.13772 4.858,1.3336 6.49652,3.19116 1.63853,1.85756 2.52444,4.3465 2.49324,6.82326 -0.0312,2.47675 -0.96598,4.92188 -2.54477,6.83047 -1.57879,1.90859 -3.784,3.27717 -6.17891,3.90937 -3.33608,0.88064 -6.92262,0.34097 -10.14159,-0.90128 -3.21897,-1.24225 -6.13082,-3.15276 -8.98821,-5.08675 -2.85739,-1.93398 -5.70872,-3.91766 -8.85635,-5.33096 -3.14763,-1.4133 -6.65205,-2.23677 -10.06333,-1.71894 -3.97127,0.60284 -7.43232,2.93095 -11.13543,4.48703 -1.85155,0.77804 -3.80891,1.37253 -5.81625,1.43728 -2.00733,0.0648 -4.07781,-0.43661 -5.66515,-1.66703 -1.13771,-0.88189 -1.9858,-2.10293 -2.5509,-3.42686 -0.56509,-1.32393 -0.85799,-2.75084 -1.00841,-4.18245 -0.30083,-2.86322 -0.0446,-5.76878 -0.4319,-8.62159 -0.35617,-2.62373 -1.24778,-5.1409 -1.86256,-7.71633 z"
       id="path1178"
       inkscape:path-effect="#path-effect1180"
       inkscape:original-d="m 144.77424,257.40023 c -0.62112,-2.57237 4.08016,-11.52988 6.11985,-17.29522 2.03968,-5.76534 9.75654,1.06459 14.63442,1.59648 4.87787,0.5319 13.30428,-1.7736 19.95602,-2.6608 6.65174,-0.8872 9.047,5.85403 13.5701,8.78065 4.5231,2.92662 1.77413,14.3686 2.6608,21.55251 0.88667,7.1839 6.20881,2.6e-4 9.31281,0 3.10401,-2.7e-4 0.17765,13.83644 0.26608,20.75426 0.0884,6.91783 -25.36606,-8.69169 -38.04948,-13.03793 -12.68343,-4.34625 -15.07762,2.83845 -22.61683,4.25728 -7.53921,1.41883 -2.66054,-10.82033 -3.99121,-16.2309 -1.33066,-5.41056 -1.24144,-5.14395 -1.86256,-7.71633 z" />
    <path
       style="fill:none;fill-opacity:1;stroke:#000000;stroke-width:0.264583;stroke-linecap:butt;stroke-linejoin:miter;stroke-dasharray:none;stroke-opacity:1;marker-start:none;marker-end:url(#marker-arrow-1)"
       d="m 173.24484,217.22213 v 17.82739"
       id="path1649"
       inkscape:path-effect="#path-effect1651"
       inkscape:original-d="m 173.24484,217.22213 c 2.6e-4,5.94273 2.6e-4,11.88519 0,17.82739" />
    <text
       xml:space="preserve"
       style="font-size:5.64444px;line-height:1.25;font-family:sans-serif;letter-spacing:0px;word-spacing:0px;stroke-width:0.264583"
       x="175.37346"
       y="229.72791"
       id="text1864"><tspan
         sodipodi:role="line"
         id="tspan1862"
         style="stroke-width:0.264583"
         x="175.37346"
         y="229.72791">\(p\)</tspan></text>
    <text
       xml:space="preserve"
       style="font-size:5.64444px;line-height:1.25;font-family:sans-serif;letter-spacing:0px;word-spacing:0px;stroke-width:0.264583"
       x="205.44055"
       y="249.95"
       id="text2632"><tspan
         sodipodi:role="line"
         style="stroke-width:0.264583"
         x="205.44055"
         y="249.95"
         id="tspan2638">\(X\)</tspan></text>
    <text
       xml:space="preserve"
       style="font-size:5.64444px;line-height:1.25;font-family:sans-serif;letter-spacing:0px;word-spacing:0px;stroke-width:0.264583"
       x="18.990889"
       y="283.63443"
       id="text3170"><tspan
         sodipodi:role="line"
         id="tspan3168"
         style="stroke-width:0.264583"
         x="18.990889"
         y="283.63443">\(x_0\)</tspan></text>
    <text
       xml:space="preserve"
       style="font-size:5.64444px;line-height:1.25;font-family:sans-serif;letter-spacing:0px;word-spacing:0px;stroke-width:0.264583"
       x="71.907555"
       y="283.63443"
       id="text3334"><tspan
         sodipodi:role="line"
         id="tspan3332"
         style="stroke-width:0.264583"
         x="71.907555"
         y="283.63443">\(x_1\)</tspan></text>
    <text
       xml:space="preserve"
       style="font-size:5.64444px;line-height:1.25;font-family:sans-serif;letter-spacing:0px;word-spacing:0px;stroke-width:0.264583"
       x="99.540581"
       y="261.12534"
       id="text4798"><tspan
         sodipodi:role="line"
         id="tspan4796"
         style="stroke-width:0.264583"
         x="99.540581"
         y="261.12534">\(F(s, t)\)</tspan></text>
    <path
       style="font-variation-settings:normal;opacity:0.99;vector-effect:none;fill:#000000;fill-opacity:1;fill-rule:evenodd;stroke:none;stroke-width:0.264567;stroke-linecap:butt;stroke-linejoin:round;stroke-miterlimit:4;stroke-dasharray:none;stroke-dashoffset:0;stroke-opacity:1;-inkscape-stroke:none;marker-start:none;marker-end:none;stop-color:#000000;stop-opacity:1"
       id="path5660-4"
       sodipodi:type="arc"
       sodipodi:cx="179.89694"
       sodipodi:cy="262.41757"
       sodipodi:rx="0.57755047"
       sodipodi:ry="0.57755047"
       sodipodi:start="4.761712"
       sodipodi:end="4.7580992"
       sodipodi:open="true"
       sodipodi:arc-type="arc"
       d="m 179.92542,261.84072 a 0.57755047,0.57755047 0 0 1 0.5484,0.60481 0.57755047,0.57755047 0 0 1 -0.60431,0.54894 0.57755047,0.57755047 0 0 1 -0.54949,-0.60381 0.57755047,0.57755047 0 0 1 0.60331,-0.55004" />
    <path
       style="font-variation-settings:normal;opacity:0.99;vector-effect:none;fill:#000000;fill-opacity:1;fill-rule:evenodd;stroke:none;stroke-width:0.264567;stroke-linecap:butt;stroke-linejoin:round;stroke-miterlimit:4;stroke-dasharray:none;stroke-dashoffset:0;stroke-opacity:1;-inkscape-stroke:none;marker-start:none;marker-end:none;stop-color:#000000;stop-opacity:1"
       id="path5660-4-0"
       sodipodi:type="arc"
       sodipodi:cx="52.998878"
       sodipodi:cy="263.25308"
       sodipodi:rx="0.57755047"
       sodipodi:ry="0.57755047"
       sodipodi:start="4.761712"
       sodipodi:end="4.7580992"
       sodipodi:open="true"
       sodipodi:arc-type="arc"
       d="m 53.027353,262.67623 a 0.57755047,0.57755047 0 0 1 0.548399,0.60481 0.57755047,0.57755047 0 0 1 -0.604306,0.54894 0.57755047,0.57755047 0 0 1 -0.549491,-0.60381 0.57755047,0.57755047 0 0 1 0.603314,-0.55003" />
    <text
       xml:space="preserve"
       style="font-size:5.64444px;line-height:1.25;font-family:sans-serif;letter-spacing:0px;word-spacing:0px;stroke-width:0.264583"
       x="179.78856"
       y="268.04971"
       id="text11043"><tspan
         sodipodi:role="line"
         id="tspan11041"
         style="stroke-width:0.264583"
         x="179.78856"
         y="268.04971">\(x_1\)</tspan></text>
    <path
       style="font-variation-settings:normal;opacity:0.99;vector-effect:none;fill:#000000;fill-opacity:1;fill-rule:evenodd;stroke:none;stroke-width:0.264567;stroke-linecap:butt;stroke-linejoin:round;stroke-miterlimit:4;stroke-dasharray:none;stroke-dashoffset:0;stroke-opacity:1;-inkscape-stroke:none;marker-start:none;marker-end:none;stop-color:#000000;stop-opacity:1"
       id="path5660-4-1"
       sodipodi:type="arc"
       sodipodi:cx="156.16782"
       sodipodi:cy="197.50949"
       sodipodi:rx="0.57755047"
       sodipodi:ry="0.57755047"
       sodipodi:start="4.761712"
       sodipodi:end="4.7580992"
       sodipodi:open="true"
       sodipodi:arc-type="arc"
       d="m 156.19629,196.93264 a 0.57755047,0.57755047 0 0 1 0.5484,0.6048 0.57755047,0.57755047 0 0 1 -0.60431,0.54895 0.57755047,0.57755047 0 0 1 -0.54949,-0.60381 0.57755047,0.57755047 0 0 1 0.60332,-0.55004" />
    <text
       xml:space="preserve"
       style="font-size:5.64444px;line-height:1.25;font-family:sans-serif;letter-spacing:0px;word-spacing:0px;stroke-width:0.264583"
       x="153.98105"
       y="205.07158"
       id="text11043-1"><tspan
         sodipodi:role="line"
         id="tspan11041-0"
         style="stroke-width:0.264583"
         x="153.98105"
         y="205.07158">\(\widetilde{x}_1\)</tspan></text>
    <text
       xml:space="preserve"
       style="font-size:5.64444px;line-height:1.25;font-family:sans-serif;letter-spacing:0px;word-spacing:0px;stroke-width:0.264583"
       x="-9.8403082"
       y="248.76793"
       id="text15339"><tspan
         sodipodi:role="line"
         id="tspan15337"
         style="stroke-width:0.264583"
         x="-9.8403082"
         y="248.76793">\([0, 1]\times[0, 1]\)</tspan></text>
    <path
       style="fill:none;fill-opacity:1;stroke:#000000;stroke-width:0.264583;stroke-linecap:butt;stroke-linejoin:miter;stroke-dasharray:none;stroke-opacity:1;marker-start:none;marker-end:url(#marker-arrow-1)"
       d="M 80.648451,242.46028 140.57102,209.70907"
       id="path24815"
       inkscape:path-effect="#path-effect24817"
       inkscape:original-d="M 80.648451,242.46028 C 100.62291,231.54348 120.5971,220.62641 140.57102,209.70907" />
    <text
       xml:space="preserve"
       style="font-size:5.64444px;line-height:1.25;font-family:sans-serif;letter-spacing:0px;word-spacing:0px;stroke-width:0.264583"
       x="105.87901"
       y="221.11136"
       id="text25242"><tspan
         sodipodi:role="line"
         id="tspan25240"
         style="stroke-width:0.264583"
         x="105.87901"
         y="221.11136">\(\widetilde{F}\)</tspan></text>
    <path
       style="fill:none;stroke:#000000;stroke-width:0.264583px;stroke-linecap:butt;stroke-linejoin:miter;stroke-opacity:1"
       d="M 37.744081,285.0726 V 241.7015"
       id="path1158"
       inkscape:original-d="m 37.744081,285.0726 c 2.64e-4,-14.45677 2.64e-4,-28.9138 0,-43.3711"
       inkscape:path-effect="#path-effect1160" />
    <path
       style="opacity:0.99;fill:#000000;fill-opacity:0.12;stroke:none;stroke-width:0.212921;stroke-linejoin:round;stroke-dasharray:0.638762, 0.638762;stroke-opacity:1;marker-start:none;marker-end:none"
       d="m 27.595262,263.34649 v -21.39855 h 5.003641 5.003641 v 21.39855 21.39854 h -5.003641 -5.003641 z"
       id="path1788" />
    <text
       xml:space="preserve"
       style="font-size:5.64444px;line-height:1.25;font-family:sans-serif;letter-spacing:0px;word-spacing:0px;stroke-width:0.264583"
       x="26.417927"
       y="290.80389"
       id="text7541"><tspan
         sodipodi:role="line"
         id="tspan7539"
         style="stroke-width:0.264583"
         x="26.417927"
         y="290.80389">\(0\)</tspan></text>
    <text
       xml:space="preserve"
       style="font-size:5.64444px;line-height:1.25;font-family:sans-serif;letter-spacing:0px;word-spacing:0px;stroke-width:0.264583"
       x="35.942928"
       y="290.80389"
       id="text7705"><tspan
         sodipodi:role="line"
         id="tspan7703"
         style="stroke-width:0.264583"
         x="35.942928"
         y="290.80389">\(\epsilon\)</tspan></text>
    <text
       xml:space="preserve"
       style="font-size:5.64444px;line-height:1.25;font-family:sans-serif;letter-spacing:0px;word-spacing:0px;stroke-width:0.264583"
       x="185.83534"
       y="277.10904"
       id="text1459"><tspan
         sodipodi:role="line"
         id="tspan1457"
         style="stroke-width:0.264583"
         x="185.83534"
         y="277.10904">\(U_{x_1}\)</tspan></text>
    <text
       xml:space="preserve"
       style="font-size:5.64444px;line-height:1.25;font-family:sans-serif;letter-spacing:0px;word-spacing:0px;stroke-width:0.264583"
       x="202.18529"
       y="195.31853"
       id="text2171"><tspan
         sodipodi:role="line"
         id="tspan2169"
         style="stroke-width:0.264583"
         x="202.18529"
         y="195.31853">\(\widetilde{X}\)</tspan></text>
    <text
       xml:space="preserve"
       style="font-size:5.64444px;line-height:1.25;font-family:sans-serif;letter-spacing:0px;word-spacing:0px;stroke-width:0.264583"
       x="46.763721"
       y="269.93359"
       id="text2479"><tspan
         sodipodi:role="line"
         id="tspan2477"
         style="stroke-width:0.264583"
         x="46.763721"
         y="269.93359">\((s_1, t_0)\)</tspan></text>
    <path
       style="fill:none;stroke:#000000;stroke-width:0.264583px;stroke-linecap:butt;stroke-linejoin:miter;stroke-opacity:1"
       d="m 142.53681,196.37338 c 0.18217,-2.18514 1.1497,-4.27438 2.59117,-5.92671 1.44146,-1.65233 3.33995,-2.87745 5.39124,-3.65218 4.80093,-1.81321 10.18286,-1.17034 15.16658,-2.39473 3.03572,-0.74581 5.85412,-2.16682 8.68858,-3.48503 2.83446,-1.31822 5.76558,-2.55813 8.87272,-2.90089 2.94917,-0.32534 6.02927,0.20628 8.56782,1.74224 2.53856,1.53597 4.48309,4.11713 5.00228,7.03841 0.34788,1.9574 0.0656,3.97385 -0.38457,5.91029 -0.45013,1.93644 -1.06761,3.83549 -1.40253,5.79514 -0.33492,1.95966 -0.37428,4.02207 0.31352,5.88737 0.34389,0.93265 0.8694,1.80413 1.57433,2.50497 0.70493,0.70084 1.59255,1.22658 2.56005,1.45474 1.53612,0.36225 3.13422,-0.0319 4.68611,-0.31917 0.77594,-0.14365 1.56168,-0.26098 2.35059,-0.24234 0.78891,0.0186 1.58598,0.17883 2.27611,0.56151 0.73334,0.40664 1.32293,1.05779 1.68384,1.81468 0.36091,0.75689 0.4959,1.61523 0.41664,2.45002 -0.15852,1.66956 -1.16838,3.18897 -2.51677,4.18617 -1.34839,0.99721 -3.00691,1.51068 -4.67247,1.70685 -1.66556,0.19617 -3.35092,0.0915 -5.02229,-0.0467 -9.23344,-0.76339 -18.40859,-2.5433 -27.67235,-2.39472 -3.02308,0.0485 -6.04548,0.30266 -9.06648,0.18037 -3.021,-0.12229 -6.08209,-0.64103 -8.7609,-2.04294 -4.02503,-2.10644 -6.82282,-6.01168 -8.78066,-10.11105 -1.15407,-2.41642 -2.08504,-5.04772 -1.86256,-7.71633 z"
       id="path1178-6"
       inkscape:path-effect="#path-effect1404"
       inkscape:original-d="m 142.53681,196.37338 c -0.62112,-2.57237 5.94272,-3.81355 7.98241,-9.57889 2.03968,-5.76534 10.2887,-2.92663 15.16658,-2.39473 4.87787,0.5319 20.82393,22.26152 17.5613,-6.38592 -0.75936,-6.66754 9.047,5.85403 13.5701,8.78065 4.5231,2.92662 1.77413,14.3686 2.6608,21.55251 0.88667,7.1839 6.20881,2.6e-4 9.31281,0 3.10401,-2.7e-4 -10.19948,3.19323 -10.11105,10.11105 0.0884,6.91783 -14.98893,1.95152 -27.67235,-2.39472 -12.68343,-4.34625 -10.28817,-3.2814 -17.82738,-1.86257 -7.53921,1.41883 -7.44999,-4.70048 -8.78066,-10.11105 -1.33066,-5.41056 -1.24144,-5.14395 -1.86256,-7.71633 z"
       sodipodi:nodetypes="ssssssssssss" />
    <path
       style="font-variation-settings:normal;opacity:0.99;vector-effect:none;fill:none;fill-opacity:1;fill-rule:evenodd;stroke:black;stroke-width:0.26458333;stroke-linecap:butt;stroke-linejoin:round;stroke-miterlimit:4;stroke-dasharray:0.79375,0.79375;stroke-dashoffset:0;stroke-opacity:1;-inkscape-stroke:none;stop-color:#000000;stop-opacity:1;marker-start:none;marker-end:none"
       id="path5939"
       sodipodi:type="arc"
       sodipodi:cx="180.15166"
       sodipodi:cy="262.36237"
       sodipodi:rx="10.317709"
       sodipodi:ry="10.391937"
       sodipodi:start="4.761712"
       sodipodi:end="4.7580992"
       sodipodi:open="true"
       sodipodi:arc-type="arc"
       d="m 180.66035,251.98307 a 10.317709,10.391937 0 0 1 9.79692,10.88227 10.317709,10.391937 0 0 1 -10.79569,9.87723 10.317709,10.391937 0 0 1 -9.81642,-10.86443 10.317709,10.391937 0 0 1 10.77796,-9.89686" />
  </g>
</svg>
