<?xml version="1.0" encoding="UTF-8" standalone="no"?>
<!-- Created with Inkscape (http://www.inkscape.org/) -->

<svg
   width="240mm"
   height="120mm"
   viewBox="0 0 240 120"
   version="1.1"
   id="svg8"
   inkscape:version="1.1.1 (c3084ef, 2021-09-22)"
   sodipodi:docname="pf:lec16:prop:1.svg"
   xmlns:inkscape="http://www.inkscape.org/namespaces/inkscape"
   xmlns:sodipodi="http://sodipodi.sourceforge.net/DTD/sodipodi-0.dtd"
   xmlns="http://www.w3.org/2000/svg"
   xmlns:svg="http://www.w3.org/2000/svg"
   xmlns:rdf="http://www.w3.org/1999/02/22-rdf-syntax-ns#"
   xmlns:cc="http://creativecommons.org/ns#"
   xmlns:dc="http://purl.org/dc/elements/1.1/">
  <defs
     id="defs2">
    <inkscape:path-effect
       effect="spiro"
       id="path-effect9978"
       is_visible="true"
       lpeversion="1" />
    <inkscape:path-effect
       effect="spiro"
       id="path-effect9857"
       is_visible="true"
       lpeversion="1" />
    <inkscape:path-effect
       effect="spiro"
       id="path-effect9771"
       is_visible="true"
       lpeversion="1" />
    <inkscape:path-effect
       effect="spiro"
       id="path-effect9706"
       is_visible="true"
       lpeversion="1" />
    <inkscape:path-effect
       effect="spiro"
       id="path-effect9702"
       is_visible="true"
       lpeversion="1" />
    <inkscape:path-effect
       effect="spiro"
       id="path-effect935"
       is_visible="true"
       lpeversion="1" />
    <inkscape:path-effect
       effect="spiro"
       id="path-effect931"
       is_visible="true"
       lpeversion="1" />
    <inkscape:path-effect
       effect="spiro"
       id="path-effect927"
       is_visible="true"
       lpeversion="1" />
  </defs>
  <sodipodi:namedview
     id="base"
     pagecolor="#ffffff"
     bordercolor="#666666"
     borderopacity="1.0"
     inkscape:pageopacity="0.0"
     inkscape:pageshadow="2"
     inkscape:zoom="0.99437388"
     inkscape:cx="463.60832"
     inkscape:cy="194.09198"
     inkscape:document-units="mm"
     inkscape:current-layer="layer1"
     showgrid="false"
     showborder="true"
     width="200mm"
     showguides="true"
     inkscape:guide-bbox="true"
     inkscape:window-width="985"
     inkscape:window-height="512"
     inkscape:window-x="0"
     inkscape:window-y="38"
     inkscape:window-maximized="0"
     inkscape:pagecheckerboard="0">
    <inkscape:grid
       type="xygrid"
       id="grid815"
       units="mm"
       spacingx="10"
       spacingy="10"
       empspacing="4"
       dotted="false" />
  </sodipodi:namedview>
  <metadata
     id="metadata5">
    <rdf:RDF>
      <cc:Work
         rdf:about="">
        <dc:format>image/svg+xml</dc:format>
        <dc:type
           rdf:resource="http://purl.org/dc/dcmitype/StillImage" />
      </cc:Work>
    </rdf:RDF>
  </metadata>
  <g
     inkscape:label="Layer 1"
     inkscape:groupmode="layer"
     id="layer1"
     transform="translate(0,-177)">
    <path
       style="font-variation-settings:normal;opacity:0.99;vector-effect:none;fill:#000000;fill-opacity:1;fill-rule:evenodd;stroke:#000000;stroke-width:0.264567;stroke-linecap:butt;stroke-linejoin:round;stroke-miterlimit:4;stroke-dasharray:none;stroke-dashoffset:0;stroke-opacity:1;-inkscape-stroke:none;stop-color:#000000;stop-opacity:1"
       id="path4754-0"
       sodipodi:type="arc"
       sodipodi:cx="62.262794"
       sodipodi:cy="-258.15451"
       sodipodi:rx="0.68370736"
       sodipodi:ry="0.68369782"
       sodipodi:start="6.1848709"
       sodipodi:end="6.1778721"
       sodipodi:open="true"
       sodipodi:arc-type="arc"
       transform="scale(1,-1)"
       d="m 62.9432,-258.22162 a 0.68370736,0.68369782 0 0 1 -0.612105,0.74739 0.68370736,0.68369782 0 0 1 -0.748467,-0.61079 0.68370736,0.68369782 0 0 1 0.609486,-0.74953 0.68370736,0.68369782 0 0 1 0.7506,0.60817" />
    <path
       style="font-variation-settings:normal;opacity:0.99;vector-effect:none;fill:#000000;fill-opacity:1;fill-rule:evenodd;stroke:#000000;stroke-width:0.264567;stroke-linecap:butt;stroke-linejoin:round;stroke-miterlimit:4;stroke-dasharray:none;stroke-dashoffset:0;stroke-opacity:1;-inkscape-stroke:none;stop-color:#000000;stop-opacity:1"
       id="path4754-0-9"
       sodipodi:type="arc"
       sodipodi:cx="153.79443"
       sodipodi:cy="-257.88843"
       sodipodi:rx="0.68370736"
       sodipodi:ry="0.68369782"
       sodipodi:start="6.1848709"
       sodipodi:end="6.1778721"
       sodipodi:open="true"
       sodipodi:arc-type="arc"
       transform="scale(1,-1)"
       d="m 154.47484,-257.95554 a 0.68370736,0.68369782 0 0 1 -0.61211,0.74739 0.68370736,0.68369782 0 0 1 -0.74846,-0.61079 0.68370736,0.68369782 0 0 1 0.60948,-0.74952 0.68370736,0.68369782 0 0 1 0.7506,0.60816" />
    <path
       style="font-variation-settings:normal;opacity:0.99;vector-effect:none;fill:#000000;fill-opacity:1;fill-rule:evenodd;stroke:#000000;stroke-width:0.264567;stroke-linecap:butt;stroke-linejoin:round;stroke-miterlimit:4;stroke-dasharray:none;stroke-dashoffset:0;stroke-opacity:1;-inkscape-stroke:none;stop-color:#000000;stop-opacity:1"
       id="path4754-0-3"
       sodipodi:type="arc"
       sodipodi:cx="153.79443"
       sodipodi:cy="-227.0231"
       sodipodi:rx="0.68370736"
       sodipodi:ry="0.68369782"
       sodipodi:start="6.1848709"
       sodipodi:end="6.1778721"
       sodipodi:open="true"
       sodipodi:arc-type="arc"
       transform="scale(1,-1)"
       d="m 154.47484,-227.09021 a 0.68370736,0.68369782 0 0 1 -0.61211,0.74739 0.68370736,0.68369782 0 0 1 -0.74846,-0.61079 0.68370736,0.68369782 0 0 1 0.60948,-0.74953 0.68370736,0.68369782 0 0 1 0.7506,0.60817" />
    <path
       style="font-variation-settings:normal;opacity:0.99;vector-effect:none;fill:#000000;fill-opacity:1;fill-rule:evenodd;stroke:#000000;stroke-width:0.264567;stroke-linecap:butt;stroke-linejoin:round;stroke-miterlimit:4;stroke-dasharray:none;stroke-dashoffset:0;stroke-opacity:1;-inkscape-stroke:none;stop-color:#000000;stop-opacity:1"
       id="path4754-0-8"
       sodipodi:type="arc"
       sodipodi:cx="152.19795"
       sodipodi:cy="-216.91205"
       sodipodi:rx="0.68370736"
       sodipodi:ry="0.68369782"
       sodipodi:start="6.1848709"
       sodipodi:end="6.1778721"
       sodipodi:open="true"
       sodipodi:arc-type="arc"
       transform="scale(1,-1)"
       d="m 152.87836,-216.97916 a 0.68370736,0.68369782 0 0 1 -0.61211,0.74739 0.68370736,0.68369782 0 0 1 -0.74846,-0.61079 0.68370736,0.68369782 0 0 1 0.60948,-0.74952 0.68370736,0.68369782 0 0 1 0.7506,0.60816" />
    <path
       style="fill:none;stroke:#000000;stroke-width:0.264583px;stroke-linecap:butt;stroke-linejoin:miter;stroke-opacity:1"
       d="M 87.274349,260.8153 H 125.32384"
       id="path925"
       inkscape:path-effect="#path-effect927"
       inkscape:original-d="m 87.274349,260.8153 c 12.683426,2.7e-4 25.366591,2.7e-4 38.049491,0" />
    <path
       style="fill:none;stroke:#000000;stroke-width:0.264583px;stroke-linecap:butt;stroke-linejoin:miter;stroke-opacity:1"
       d="M 83.283143,254.1633 125.58829,229.73841"
       id="path929"
       inkscape:path-effect="#path-effect931"
       inkscape:original-d="m 83.283143,254.1633 c 14.101982,-8.14137 28.203697,-16.283 42.305147,-24.42489" />
    <path
       style="fill:none;stroke:#000000;stroke-width:0.264583px;stroke-linecap:butt;stroke-linejoin:miter;stroke-opacity:1"
       d="M 83.283141,254.1633 113.35022,219.83893"
       id="path933"
       inkscape:path-effect="#path-effect935"
       inkscape:original-d="M 83.283141,254.1633 C 93.305766,242.72211 103.32812,231.28065 113.35022,219.83893" />
    <text
       xml:space="preserve"
       style="font-size:5.64444px;line-height:1.25;font-family:sans-serif;letter-spacing:0px;word-spacing:0px;stroke-width:0.264583"
       x="61.996716"
       y="268.53165"
       id="text1027"><tspan
         sodipodi:role="line"
         id="tspan1025"
         style="stroke-width:0.264583"
         x="61.996716"
         y="268.53165">\(x\)</tspan></text>
    <text
       xml:space="preserve"
       style="font-size:5.64444px;line-height:1.25;font-family:sans-serif;letter-spacing:0px;word-spacing:0px;stroke-width:0.264583"
       x="160.44644"
       y="256.29193"
       id="text2783"><tspan
         sodipodi:role="line"
         id="tspan2781"
         style="stroke-width:0.264583"
         x="160.44644"
         y="256.29193">\(f(x)\)</tspan></text>
    <text
       xml:space="preserve"
       style="font-size:5.64444px;line-height:1.25;font-family:sans-serif;letter-spacing:0px;word-spacing:0px;stroke-width:0.264583"
       x="169.75925"
       y="246.18089"
       id="text4065"><tspan
         sodipodi:role="line"
         id="tspan4063"
         style="stroke-width:0.264583"
         x="169.75925"
         y="246.18089">\(U\)</tspan></text>
    <text
       xml:space="preserve"
       style="font-size:5.64444px;line-height:1.25;font-family:sans-serif;letter-spacing:0px;word-spacing:0px;stroke-width:0.264583"
       x="190.51352"
       y="278.90875"
       id="text6019"><tspan
         sodipodi:role="line"
         id="tspan6017"
         style="stroke-width:0.264583"
         x="190.51352"
         y="278.90875">\(Y\)</tspan></text>
    <path
       style="fill:none;stroke:#000000;stroke-width:0.264583px;stroke-linecap:butt;stroke-linejoin:miter;stroke-opacity:1"
       d="m 145.54594,257.88842 c -0.0461,1.54593 0.45156,3.08622 1.30104,4.37866 0.84949,1.29243 2.03908,2.34333 3.37125,3.12904 2.66434,1.5714 5.81561,2.0764 8.89781,2.33727 1.76457,0.14935 3.54977,0.22783 5.29934,-0.046 1.74958,-0.27384 3.47499,-0.92109 4.81171,-2.08264 0.96734,-0.84058 1.71565,-1.95188 2.03554,-3.19284 0.31989,-1.24097 0.19154,-2.60961 -0.43906,-3.72525 -0.47186,-0.8348 -1.20413,-1.50485 -2.03108,-1.99035 -0.82694,-0.48551 -1.74751,-0.79437 -2.68238,-1.00781 -1.86976,-0.42689 -3.81462,-0.48388 -5.66367,-0.99304 -1.75024,-0.48195 -3.36413,-1.35483 -5.05754,-2.00905 -1.6934,-0.65422 -3.55818,-1.09112 -5.31959,-0.65176 -1.28445,0.32039 -2.44131,1.10684 -3.24105,2.16178 -0.79973,1.05494 -1.24289,2.36877 -1.28232,3.69199 z"
       id="path9700"
       inkscape:path-effect="#path-effect9702"
       inkscape:original-d="m 145.54594,257.88842 c -1.50805,1.95099 9.047,6.56358 13.5701,9.84497 4.5231,3.2814 6.74096,-1.41883 10.11105,-2.12864 3.37009,-0.70981 1.06459,-4.6118 1.59648,-6.91809 0.5319,-2.30629 -6.91782,-2.66054 -10.37713,-3.9912 -3.45931,-1.33067 -6.91782,-1.77361 -10.37713,-2.66081 -3.45931,-0.8872 -3.01532,3.90278 -4.52337,5.85377 z" />
    <path
       style="fill:none;stroke:#000000;stroke-width:0.264583px;stroke-linecap:butt;stroke-linejoin:miter;stroke-opacity:1"
       d="m 187.32055,267.73339 c -1.29,2.11932 -3.14424,3.89584 -5.33027,5.06925 -2.18603,1.17341 -4.69928,1.73746 -7.1755,1.58276 -2.22183,-0.1388 -4.36446,-0.8374 -6.49531,-1.48181 -2.13085,-0.64441 -4.31745,-1.24511 -6.54263,-1.17899 -2.14744,0.0638 -4.22281,0.74534 -6.25891,1.4308 -2.0361,0.68546 -4.10121,1.3879 -6.24687,1.49608 -2.80627,0.14149 -5.61668,-0.7667 -7.95222,-2.32888 -2.33555,-1.56217 -4.21217,-3.75275 -5.61787,-6.18569 -1.84977,-3.20152 -2.91462,-6.87374 -2.91684,-10.57121 -0.002,-3.69748 1.07715,-7.40987 3.18292,-10.44913 1.63471,-2.35939 3.92744,-4.32669 6.65111,-5.23259 1.36183,-0.45294 2.81837,-0.63524 4.24545,-0.48296 1.42708,0.15227 2.8227,0.64314 4.00394,1.45826 1.14142,0.78765 2.05772,1.85178 2.98888,2.87948 0.93116,1.0277 1.91171,2.04741 3.13096,2.70821 1.59335,0.86355 3.47814,1.04486 5.28492,0.90327 1.80677,-0.14158 3.57409,-0.58534 5.3583,-0.90327 2.89143,-0.51522 5.86506,-0.6994 8.76703,-0.24727 2.90196,0.45213 5.73608,1.56448 7.99603,3.44023 2.56187,2.12634 4.30481,5.20967 4.82873,8.49753 0.52392,3.28787 -0.17079,6.752 -1.90185,9.59593 z"
       id="path9704"
       inkscape:path-effect="#path-effect9706"
       inkscape:original-d="m 187.32055,267.73339 c 0.97537,6.03089 -8.33692,4.43494 -12.50577,6.65201 -4.16886,2.21707 -8.6917,-1.7736 -13.03794,-2.6608 -4.34624,-0.8872 -8.33692,1.95152 -12.50578,2.92688 -4.16885,0.97536 -9.04646,-5.67612 -13.57009,-8.51457 -4.52363,-2.83845 0.17765,-14.0133 0.26608,-21.02034 0.0884,-7.00705 9.93393,-2.83793 14.9005,-4.25729 4.96657,-1.41936 4.08016,3.72539 6.11984,5.58769 2.03969,1.86229 7.09575,2.6e-4 10.64322,0 3.54747,-2.7e-4 11.17564,2.1289 16.76306,3.19296 5.58742,1.06406 1.95152,12.06257 2.92688,18.09346 z" />
    <path
       style="fill:none;stroke:#000000;stroke-width:0.264583px;stroke-linecap:butt;stroke-linejoin:miter;stroke-opacity:1"
       d="m 134.63665,213.98517 c 4.25739,4.8869 10.55532,7.93746 17.02914,8.24849 6.6368,0.31886 13.36241,-2.2527 18.09346,-6.91809"
       id="path9769"
       inkscape:path-effect="#path-effect9771"
       inkscape:original-d="m 134.63665,213.98517 c 5.67664,2.74976 11.35302,5.49925 17.02914,8.24849 5.67611,2.74923 12.06257,-4.6118 18.09346,-6.91809" />
    <path
       style="fill:none;stroke:#000000;stroke-width:0.264583px;stroke-linecap:butt;stroke-linejoin:miter;stroke-opacity:1"
       d="m 141.55474,220.90325 c -0.70595,0.82577 -1.18487,1.8437 -1.37102,2.91404 -0.18615,1.07033 -0.079,2.19018 0.30669,3.20581 0.39782,1.04753 1.08503,1.97473 1.92831,2.7126 0.84327,0.73787 1.83954,1.29045 2.88993,1.68064 2.10079,0.78039 4.38222,0.91285 6.62322,0.92837 3.19438,0.0221 6.38569,-0.17662 9.57889,-0.26608 1.29247,-0.0362 2.60788,-0.0581 3.83725,-0.45867 0.61469,-0.20027 1.2028,-0.4962 1.69957,-0.90992 0.49678,-0.41371 0.89985,-0.94872 1.11519,-1.55829 0.32811,-0.92879 0.2027,-1.96462 -0.11034,-2.8986 -0.31305,-0.93398 -0.8033,-1.79655 -1.22006,-2.68909 -0.59463,-1.27348 -1.04202,-2.61565 -1.3304,-3.99121"
       id="path9976"
       inkscape:path-effect="#path-effect9978"
       inkscape:original-d="m 141.55474,220.90325 c -0.35451,2.04022 -0.70929,4.08017 -1.06433,6.11985 -0.35503,2.03969 7.6279,3.548 11.44146,5.32161 3.81355,1.7736 6.38619,-0.17712 9.57889,-0.26608 3.1927,-0.089 4.43494,-1.95099 6.65201,-2.92688 2.21707,-0.9759 -0.88667,-3.72486 -1.3304,-5.58769 -0.44373,-1.86283 -0.88667,-2.66054 -1.3304,-3.99121" />
    <text
       xml:space="preserve"
       style="font-size:5.64444px;line-height:1.25;font-family:sans-serif;letter-spacing:0px;word-spacing:0px;stroke-width:0.264583"
       x="173.75046"
       y="229.11574"
       id="text10004"><tspan
         sodipodi:role="line"
         id="tspan10002"
         style="stroke-width:0.264583"
         x="173.75046"
         y="229.11574">\(\widetilde{U}_1\)</tspan></text>
    <text
       xml:space="preserve"
       style="font-size:5.64444px;line-height:1.25;font-family:sans-serif;letter-spacing:0px;word-spacing:0px;stroke-width:0.264583"
       x="173.75046"
       y="218.53239"
       id="text10088"><tspan
         sodipodi:role="line"
         id="tspan10086"
         style="stroke-width:0.264583"
         x="173.75046"
         y="218.53239">\(\widetilde{U}_2\)</tspan></text>
    <text
       xml:space="preserve"
       style="font-size:5.64444px;line-height:1.25;font-family:sans-serif;letter-spacing:0px;word-spacing:0px;stroke-width:0.264583"
       x="151.93187"
       y="206.26883"
       id="text11896"><tspan
         sodipodi:role="line"
         id="tspan11894"
         style="stroke-width:0.264583"
         x="151.93187"
         y="206.26883">\(\widetilde{f}_1(x)\)</tspan></text>
    <text
       xml:space="preserve"
       style="font-size:5.64444px;line-height:1.25;font-family:sans-serif;letter-spacing:0px;word-spacing:0px;stroke-width:0.264583"
       x="156.01292"
       y="238.19225"
       id="text11896-8"><tspan
         sodipodi:role="line"
         id="tspan11894-9"
         style="stroke-width:0.264583"
         x="156.01292"
         y="238.19225">\(\widetilde{f}_2(x)\)</tspan></text>
    <text
       xml:space="preserve"
       style="font-size:5.64444px;line-height:1.25;font-family:sans-serif;letter-spacing:0px;word-spacing:0px;stroke-width:0.264583"
       x="101.73254"
       y="248.83546"
       id="text11896-8-3"><tspan
         sodipodi:role="line"
         id="tspan11894-9-1"
         style="stroke-width:0.264583"
         x="101.73254"
         y="248.83546">\(\widetilde{f}_2\)</tspan></text>
    <text
       xml:space="preserve"
       style="font-size:5.64444px;line-height:1.25;font-family:sans-serif;letter-spacing:0px;word-spacing:0px;stroke-width:0.264583"
       x="74.839981"
       y="230.47592"
       id="text11896-8-3-0"><tspan
         sodipodi:role="line"
         id="tspan11894-9-1-6"
         style="stroke-width:0.264583"
         x="74.839981"
         y="230.47592">\(\widetilde{f}_1\)</tspan></text>
  </g>
</svg>
