<?xml version="1.0" encoding="UTF-8" standalone="no"?>
<!-- Created with Inkscape (http://www.inkscape.org/) -->

<svg
   width="240mm"
   height="120mm"
   viewBox="0 0 240 120"
   version="1.1"
   id="svg8"
   inkscape:version="1.1.1 (c3084ef, 2021-09-22)"
   sodipodi:docname="pf:prop:lifting-criterion.svg"
   xmlns:inkscape="http://www.inkscape.org/namespaces/inkscape"
   xmlns:sodipodi="http://sodipodi.sourceforge.net/DTD/sodipodi-0.dtd"
   xmlns="http://www.w3.org/2000/svg"
   xmlns:svg="http://www.w3.org/2000/svg"
   xmlns:rdf="http://www.w3.org/1999/02/22-rdf-syntax-ns#"
   xmlns:cc="http://creativecommons.org/ns#"
   xmlns:dc="http://purl.org/dc/elements/1.1/">
  <defs
     id="defs2">
    <inkscape:path-effect
       effect="spiro"
       id="path-effect21644"
       is_visible="true"
       lpeversion="1" />
    <inkscape:path-effect
       effect="spiro"
       id="path-effect20714"
       is_visible="true"
       lpeversion="1" />
    <inkscape:path-effect
       effect="spiro"
       id="path-effect20710"
       is_visible="true"
       lpeversion="1" />
    <inkscape:path-effect
       effect="spiro"
       id="path-effect10548"
       is_visible="true"
       lpeversion="1" />
    <inkscape:path-effect
       effect="spiro"
       id="path-effect9322"
       is_visible="true"
       lpeversion="1" />
    <inkscape:path-effect
       effect="spiro"
       id="path-effect8915"
       is_visible="true"
       lpeversion="1" />
    <marker
       style="overflow:visible;"
       id="Arrow1Lend"
       refX="0.0"
       refY="0.0"
       orient="auto"
       inkscape:stockid="Arrow1Lend"
       inkscape:isstock="true">
      <path
         transform="scale(0.8) rotate(180) translate(12.5,0)"
         style="fill-rule:evenodd;fill:context-stroke;stroke:context-stroke;stroke-width:1.0pt;"
         d="M 0.0,0.0 L 5.0,-5.0 L -12.5,0.0 L 5.0,5.0 L 0.0,0.0 z "
         id="path5192" />
    </marker>
    <inkscape:path-effect
       effect="spiro"
       id="path-effect5187"
       is_visible="true"
       lpeversion="1" />
    <inkscape:path-effect
       effect="spiro"
       id="path-effect5150"
       is_visible="true"
       lpeversion="1" />
    <inkscape:path-effect
       effect="spiro"
       id="path-effect3355"
       is_visible="true"
       lpeversion="1" />
    <inkscape:path-effect
       effect="spiro"
       id="path-effect3205"
       is_visible="true"
       lpeversion="1" />
    <inkscape:path-effect
       effect="spiro"
       id="path-effect2336"
       is_visible="true"
       lpeversion="1" />
    <inkscape:path-effect
       effect="spiro"
       id="path-effect858"
       is_visible="true"
       lpeversion="1" />
  </defs>
  <sodipodi:namedview
     id="base"
     pagecolor="#ffffff"
     bordercolor="#666666"
     borderopacity="1.0"
     inkscape:pageopacity="0.0"
     inkscape:pageshadow="2"
     inkscape:zoom="0.96133897"
     inkscape:cx="581.48064"
     inkscape:cy="369.27661"
     inkscape:document-units="mm"
     inkscape:current-layer="layer1"
     showgrid="false"
     showborder="true"
     width="200mm"
     showguides="true"
     inkscape:guide-bbox="true"
     inkscape:window-width="985"
     inkscape:window-height="512"
     inkscape:window-x="0"
     inkscape:window-y="38"
     inkscape:window-maximized="0"
     inkscape:pagecheckerboard="0">
    <inkscape:grid
       type="xygrid"
       id="grid815"
       units="mm"
       spacingx="10"
       spacingy="10"
       empspacing="4"
       dotted="false" />
  </sodipodi:namedview>
  <metadata
     id="metadata5">
    <rdf:RDF>
      <cc:Work
         rdf:about="">
        <dc:format>image/svg+xml</dc:format>
        <dc:type
           rdf:resource="http://purl.org/dc/dcmitype/StillImage" />
      </cc:Work>
    </rdf:RDF>
  </metadata>
  <g
     inkscape:label="Layer 1"
     inkscape:groupmode="layer"
     id="layer1"
     transform="translate(0,-177)">
    <path
       style="fill:none;stroke:#000000;stroke-width:0.264583px;stroke-linecap:butt;stroke-linejoin:miter;stroke-opacity:1"
       d="m 37.517327,260.22327 c -1.726467,-0.49206 -3.19485,-1.76475 -4.014704,-3.36183 -0.819853,-1.59707 -1.003545,-3.49217 -0.602029,-5.24191 0.401516,-1.74974 1.370127,-3.35004 2.665858,-4.59257 1.295731,-1.24253 2.909099,-2.13387 4.622696,-2.66903 3.427194,-1.07032 7.157689,-0.71928 10.624075,0.21635 3.466387,0.93563 6.751091,2.43149 10.119173,3.67538 4.455104,1.64534 9.098796,2.85781 13.836177,3.19296 3.627848,0.25666 7.345886,0.007 10.830488,1.04864 1.742301,0.52075 3.410264,1.37535 4.705534,2.6517 1.29527,1.27635 2.194402,2.99836 2.291359,4.81423 0.06002,1.12411 -0.184615,2.25354 -0.628585,3.28801 -0.443971,1.03446 -1.083263,1.97743 -1.817301,2.8309 -1.468077,1.70695 -3.300246,3.05294 -5.004363,4.5243 -2.810053,2.42625 -5.287009,5.20896 -7.935388,7.81072 -2.648378,2.60176 -5.516732,5.05516 -8.870006,6.64847 -3.353273,1.5933 -7.261509,2.26547 -10.822618,1.21591 -1.780554,-0.52478 -3.444773,-1.47713 -4.737163,-2.8096 -1.292391,-1.33248 -2.201541,-3.04957 -2.491347,-4.88309 -0.246059,-1.55674 -0.04949,-3.15169 0.281845,-4.69254 0.331334,-1.54085 0.796561,-3.05144 1.096774,-4.59865 0.300214,-1.54721 0.432153,-3.15491 0.09247,-4.69394 -0.339678,-1.53903 -1.196712,-3.01046 -2.535414,-3.84225 -0.843729,-0.52424 -1.836795,-0.77336 -2.827717,-0.84251 -0.990922,-0.0691 -1.985708,0.0342 -2.969485,0.17165 -1.967553,0.27489 -3.999753,0.68323 -5.910333,0.1387 z"
       id="path856"
       inkscape:path-effect="#path-effect858"
       inkscape:original-d="m 37.517327,260.22327 c -3.902776,-0.17765 15.610311,-7.98214 23.415069,-11.97361 7.804759,-3.99147 9.224381,2.12891 13.836177,3.19296 4.611793,1.06406 11.885186,5.67664 17.827381,8.51457 5.942198,2.83793 -4.966568,7.09574 -7.450249,10.64321 -2.48368,3.54748 -23.237417,5.32188 -34.856522,7.98241 -11.619106,2.66054 -0.709285,-11.88465 -1.064321,-17.82738 -0.355039,-5.94272 -7.804759,-0.35451 -11.707535,-0.53216 z" />
    <text
       xml:space="preserve"
       style="font-size:5.64444px;line-height:1.25;font-family:sans-serif;letter-spacing:0px;word-spacing:0px;stroke-width:0.264583"
       x="34.626541"
       y="255.06114"
       id="text1610"><tspan
         sodipodi:role="line"
         id="tspan1608"
         style="stroke-width:0.264583"
         x="34.626541"
         y="255.06114">\(x_0\)</tspan></text>
    <text
       xml:space="preserve"
       style="font-size:5.64444px;line-height:1.25;font-family:sans-serif;letter-spacing:0px;word-spacing:0px;stroke-width:0.264583"
       x="77.296349"
       y="270.92538"
       id="text1610-9"><tspan
         sodipodi:role="line"
         id="tspan1608-1"
         style="stroke-width:0.264583"
         x="77.296349"
         y="270.92538">\(x\)</tspan></text>
    <path
       style="fill:none;stroke:#e60000;stroke-width:0.264583px;stroke-linecap:butt;stroke-linejoin:miter;stroke-opacity:1"
       d="m 43.897359,253.19329 c 1.168776,-1.77739 2.861574,-3.20557 4.810365,-4.05842 1.948791,-0.85285 4.146509,-1.12728 6.24518,-0.77982 2.09867,0.34745 4.090683,1.31552 5.660635,2.75092 1.569951,1.43541 2.712148,3.33295 3.245741,5.39218 0.652199,2.51695 0.404616,5.20133 1.06432,7.71632 0.65595,2.50068 2.227784,4.75027 4.350365,6.22619 2.12258,1.47591 4.778677,2.16618 7.351278,1.91044"
       id="path2334"
       inkscape:path-effect="#path-effect2336"
       inkscape:original-d="m 43.897359,253.19329 c 6.654239,1.10188 13.308211,2.2035 19.961921,3.30486 6.653707,1.10135 0.70981,5.14448 1.06432,7.71632 0.35451,2.57185 7.801359,5.42469 11.701643,8.13663" />
    <text
       xml:space="preserve"
       style="font-size:5.64444px;line-height:1.25;font-family:sans-serif;letter-spacing:0px;word-spacing:0px;stroke-width:0.264583"
       x="159.89131"
       y="251.99899"
       id="text1610-4"><tspan
         sodipodi:role="line"
         id="tspan1608-9"
         style="stroke-width:0.264583"
         x="159.89131"
         y="251.99899">\(y_0\)</tspan></text>
    <text
       xml:space="preserve"
       style="font-size:5.64444px;line-height:1.25;font-family:sans-serif;letter-spacing:0px;word-spacing:0px;stroke-width:0.264583"
       x="185.95692"
       y="282.26379"
       id="text1610-9-1"><tspan
         sodipodi:role="line"
         id="tspan1608-1-7"
         style="stroke-width:0.264583"
         x="185.95692"
         y="282.26379">\(f(x)\)</tspan></text>
    <path
       style="font-variation-settings:normal;opacity:0.99;vector-effect:none;fill:#000000;fill-opacity:1;fill-rule:evenodd;stroke:none;stroke-width:0.264567;stroke-linecap:butt;stroke-linejoin:round;stroke-miterlimit:4;stroke-dasharray:none;stroke-dashoffset:0;stroke-opacity:1;-inkscape-stroke:none;stop-color:#000000;stop-opacity:1"
       id="path1714-5"
       sodipodi:type="arc"
       sodipodi:cx="161.18478"
       sodipodi:cy="256.38565"
       sodipodi:rx="1.0643213"
       sodipodi:ry="1.0643213"
       sodipodi:start="6.1848709"
       sodipodi:end="6.1778721"
       sodipodi:open="true"
       sodipodi:arc-type="arc"
       d="m 162.24397,256.28118 a 1.0643213,1.0643213 0 0 1 -0.95286,1.16347 1.0643213,1.0643213 0 0 1 -1.16514,-0.95082 1.0643213,1.0643213 0 0 1 0.94879,-1.1668 1.0643213,1.0643213 0 0 1 1.16845,0.94674" />
    <path
       style="font-variation-settings:normal;opacity:0.99;vector-effect:none;fill:#000000;fill-opacity:1;fill-rule:evenodd;stroke:none;stroke-width:0.264567;stroke-linecap:butt;stroke-linejoin:round;stroke-miterlimit:4;stroke-dasharray:none;stroke-dashoffset:0;stroke-opacity:1;-inkscape-stroke:none;stop-color:#000000;stop-opacity:1"
       id="path1714-5-8"
       sodipodi:type="arc"
       sodipodi:cx="182.75525"
       sodipodi:cy="277.20154"
       sodipodi:rx="1.0643213"
       sodipodi:ry="1.0643213"
       sodipodi:start="6.1848709"
       sodipodi:end="6.1778721"
       sodipodi:open="true"
       sodipodi:arc-type="arc"
       d="m 183.81443,277.09707 a 1.0643213,1.0643213 0 0 1 -0.95286,1.16347 1.0643213,1.0643213 0 0 1 -1.16513,-0.95083 1.0643213,1.0643213 0 0 1 0.94878,-1.16679 1.0643213,1.0643213 0 0 1 1.16845,0.94674" />
    <text
       xml:space="preserve"
       style="font-size:5.64444px;line-height:1.25;font-family:sans-serif;letter-spacing:0px;word-spacing:0px;stroke-width:0.264583"
       x="65.987923"
       y="262.30878"
       id="text3088"><tspan
         sodipodi:role="line"
         id="tspan3086"
         style="stroke-width:0.264583"
         x="65.987923"
         y="262.30878">\(\gamma\)</tspan></text>
    <text
       xml:space="preserve"
       style="font-size:5.64444px;line-height:1.25;font-family:sans-serif;letter-spacing:0px;word-spacing:0px;stroke-width:0.264583"
       x="53.776314"
       y="277.25647"
       id="text3088-4"><tspan
         sodipodi:role="line"
         id="tspan3086-9"
         style="stroke-width:0.264583"
         x="53.776314"
         y="277.25647">\(\gamma^\prime\)</tspan></text>
    <path
       style="fill:none;stroke:#000000;stroke-width:0.264583px;stroke-linecap:butt;stroke-linejoin:miter;stroke-opacity:1"
       d="m 149.94552,269.75129 c -0.0402,-3.99801 -0.88024,-8.01516 -0.2791,-11.96792 0.43615,-2.86789 1.64722,-5.62473 3.52577,-7.83517 1.87856,-2.21044 4.42629,-3.85966 7.23308,-4.59239 2.8068,-0.73274 5.86124,-0.53256 8.51796,0.63228 2.65672,1.16485 4.88968,3.29967 6.10286,5.93467 0.64177,1.39391 1.00208,2.90853 1.69902,4.2757 0.34847,0.68358 0.78367,1.33042 1.34512,1.85338 0.56145,0.52297 1.25546,0.91824 2.01023,1.05624 1.10551,0.20213 2.23603,-0.15411 3.26421,-0.60782 1.02819,-0.45371 2.024,-1.01385 3.12172,-1.25475 1.6583,-0.36392 3.45388,0.061 4.83079,1.0542 1.3769,0.99324 2.3338,2.52466 2.71821,4.17833 0.38441,1.65367 0.21115,3.41749 -0.39582,5.00305 -0.60698,1.58555 -1.63604,2.99471 -2.89589,4.13276 -1.63855,1.48014 -3.65719,2.51371 -5.19213,4.10104 -0.76747,0.79366 -1.40929,1.73314 -1.72017,2.79251 -0.31088,1.05937 -0.26644,2.24721 0.26029,3.2175 0.54429,1.00263 1.52464,1.6753 2.37865,2.43173 0.427,0.37822 0.83227,0.78931 1.13472,1.27295 0.30245,0.48364 0.49821,1.04687 0.47783,1.61693 -0.0149,0.41687 -0.14591,0.82752 -0.36523,1.18235 -0.21932,0.35482 -0.52564,0.65386 -0.87949,0.87476 -0.7077,0.44179 -1.59133,0.55989 -2.41156,0.40743 -0.82022,-0.15245 -1.57898,-0.56078 -2.22216,-1.09214 -0.64317,-0.53136 -1.17731,-1.18328 -1.65438,-1.86769 -0.95414,-1.36882 -1.70591,-2.89497 -2.86867,-4.09165 -0.58137,-0.59835 -1.26686,-1.10872 -2.0459,-1.40724 -0.77903,-0.29852 -1.65684,-0.37464 -2.4531,-0.12567 -0.63133,0.1974 -1.1908,0.59075 -1.64223,1.07424 -0.45143,0.48349 -0.79973,1.05535 -1.08656,1.6514 -0.57366,1.19211 -0.91134,2.49011 -1.5285,3.66029 -0.90987,1.72516 -2.42213,3.11611 -4.19689,3.92498 -1.77475,0.80888 -3.79986,1.03909 -5.72041,0.69918 -1.92055,-0.3399 -3.73127,-1.24206 -5.19377,-2.53246 -1.4625,-1.2904 -2.57733,-2.96204 -3.25536,-4.79079 -0.86785,-2.34072 -1.02013,-4.88644 -0.94782,-7.38182 0.0723,-2.49538 0.35977,-4.98409 0.33468,-7.48039 z"
       id="path3203"
       inkscape:path-effect="#path-effect3205"
       inkscape:original-d="m 149.94552,269.75129 c -1.15328,-3.72539 -1.34316,-8.86339 -0.2791,-11.96792 1.06406,-3.10454 20.85657,-3.55432 25.37967,-5.86061 4.5231,-2.30629 2.8373,5.32302 5.05437,7.18532 2.21708,1.86229 4.25756,-1.24145 6.38593,-1.86257 2.12838,-0.62111 2.83846,9.57916 4.25729,14.36834 1.41883,4.78919 -4.43441,6.74097 -6.65201,10.11105 -2.2176,3.37009 2.66107,3.54801 3.9912,5.32161 1.33014,1.77361 -9.9334,-4.07963 -14.90049,-6.11985 -4.9671,-2.04021 -2.83793,4.25755 -4.25729,6.38593 -1.41936,2.12838 -15.43928,-0.57018 -18.36643,-2.69909 -2.92715,-2.1289 0.54013,-11.13682 -0.61314,-14.86221 z"
       sodipodi:nodetypes="ssssssssssss" />
    <path
       style="fill:none;stroke:#e60000;stroke-width:0.264583px;stroke-linecap:butt;stroke-linejoin:miter;stroke-opacity:1"
       d="m 161.71482,256.81042 c 0.44444,2.18996 1.58809,4.23249 3.22288,5.75594 2.18869,2.03964 5.0994,3.07343 7.71632,4.52334 4.19685,2.32528 7.73384,5.82676 10.10136,9.99992"
       id="path5148"
       inkscape:path-effect="#path-effect5150"
       inkscape:original-d="m 161.71482,256.81042 c 2.7753,0.19209 0.4481,5.56438 3.22288,5.75594 2.77477,0.19156 10.85412,2.62473 7.71632,4.52334 -2.55055,1.54327 8.95058,6.22366 10.10136,9.99992"
       sodipodi:nodetypes="cssc" />
    <path
       style="fill:none;stroke:#000000;stroke-width:0.264583px;stroke-linecap:butt;stroke-linejoin:miter;stroke-opacity:1;marker-end:url(#Arrow1Lend)"
       d="M 95.963651,267.40744 H 139.95825"
       id="path5185"
       inkscape:path-effect="#path-effect5187"
       inkscape:original-d="m 95.963651,267.40744 c 10.200009,2.6e-4 33.706429,2.6e-4 43.994599,0"
       sodipodi:nodetypes="cc" />
    <text
       xml:space="preserve"
       style="font-size:5.64444px;line-height:1.25;font-family:sans-serif;letter-spacing:0px;word-spacing:0px;stroke-width:0.264583"
       x="114.86533"
       y="275.32581"
       id="text6075"><tspan
         sodipodi:role="line"
         id="tspan6073"
         style="stroke-width:0.264583"
         x="114.86533"
         y="275.32581">\(f\)</tspan></text>
    <text
       xml:space="preserve"
       style="font-size:5.64444px;line-height:1.25;font-family:sans-serif;letter-spacing:0px;word-spacing:0px;stroke-width:0.264583"
       x="169.22708"
       y="295.0498"
       id="text7369"><tspan
         sodipodi:role="line"
         id="tspan7367"
         style="stroke-width:0.264583"
         x="169.22708"
         y="295.0498">\(Y\)</tspan></text>
    <text
       xml:space="preserve"
       style="font-size:5.64444px;line-height:1.25;font-family:sans-serif;letter-spacing:0px;word-spacing:0px;stroke-width:0.264583"
       x="58.102058"
       y="295.0498"
       id="text7453"><tspan
         sodipodi:role="line"
         id="tspan7451"
         style="stroke-width:0.264583"
         x="58.102058"
         y="295.0498">\(X\)</tspan></text>
    <path
       style="fill:none;stroke:#000000;stroke-width:0.264583;stroke-linecap:butt;stroke-linejoin:miter;stroke-miterlimit:4;stroke-dasharray:0.264583, 0.793749;stroke-dashoffset:0;stroke-opacity:1;marker-end:url(#Arrow1Lend)"
       d="M 88.327655,248.09149 148.56825,200.86554"
       id="path8913"
       inkscape:path-effect="#path-effect8915"
       inkscape:original-d="M 88.327655,248.09149 C 109.114,236.09091 127.78244,212.86665 148.56825,200.86554"
       sodipodi:nodetypes="cc" />
    <text
       xml:space="preserve"
       style="font-size:5.64444px;line-height:1.25;font-family:sans-serif;letter-spacing:0px;word-spacing:0px;stroke-width:0.264583"
       x="107.22466"
       y="223.7569"
       id="text9205"><tspan
         sodipodi:role="line"
         id="tspan9203"
         style="stroke-width:0.264583"
         x="107.22466"
         y="223.7569">\(\widetilde{f}\)</tspan></text>
    <path
       style="fill:none;stroke:#000000;stroke-width:0.264583px;stroke-linecap:butt;stroke-linejoin:miter;stroke-opacity:1"
       d="m 160.9786,211.32436 c -0.96338,-0.23696 -1.98533,-0.25612 -2.94625,-0.009 -0.96092,0.24674 -1.85744,0.76427 -2.51765,1.50479 -0.66021,0.74051 -1.07522,1.70556 -1.11293,2.69693 -0.0377,0.99138 0.31225,2.00044 0.98914,2.72575 0.60938,0.65297 1.44829,1.05517 2.31186,1.28314 0.86356,0.22798 1.76016,0.29466 2.6503,0.36786 0.89014,0.0732 1.78691,0.15527 2.64231,0.41218 0.8554,0.25691 1.67644,0.70338 2.24051,1.39587 0.57783,0.70938 0.84586,1.61863 1.3304,2.39472 0.73913,1.18387 1.97044,2.01351 3.3039,2.42554 1.33346,0.41204 2.76449,0.43107 4.14635,0.23526 2.53658,-0.35944 4.92709,-1.41854 7.45024,-1.86256 2.66443,-0.46888 5.40314,-0.24015 8.09236,-0.53529 1.34461,-0.14758 2.68521,-0.42976 3.92171,-0.97823 1.2365,-0.54848 2.36871,-1.37523 3.15251,-2.47769 0.69049,-0.97121 1.08971,-2.12014 1.36921,-3.27854 0.27949,-1.15841 0.44786,-2.34136 0.72647,-3.49998 0.53046,-2.20592 1.4544,-4.29962 2.03054,-6.49405 0.82276,-3.1338 0.8942,-6.57507 -0.46701,-9.51526 -1.33304,-2.87935 -3.86623,-4.98105 -6.05393,-7.27924 -2.99778,-3.14919 -5.53982,-6.88604 -9.31281,-9.04673 -2.37842,-1.36206 -5.11307,-2.00502 -7.84365,-2.24167 -2.73059,-0.23666 -5.478,-0.0836 -8.21548,0.0517 -1.79627,0.0888 -3.59937,0.17057 -5.36856,0.4937 -1.76919,0.32313 -3.51577,0.89803 -5.00857,1.90102 -0.75505,0.5073 -1.43517,1.11674 -2.15553,1.6722 -0.72036,0.55545 -1.49583,1.06416 -2.36606,1.329 -0.43512,0.13242 -0.89135,0.20197 -1.3457,0.18138 -0.45436,-0.0206 -0.90688,-0.13281 -1.30761,-0.34794 -0.40073,-0.21512 -0.7481,-0.53499 -0.97569,-0.92877 -0.2276,-0.39378 -0.33163,-0.86177 -0.26967,-1.31235 0.0638,-0.464 0.2939,-0.88533 0.49176,-1.30985 0.0989,-0.21226 0.19094,-0.42883 0.25092,-0.65521 0.06,-0.22637 0.0873,-0.46373 0.0556,-0.69575 -0.0584,-0.42662 -0.32175,-0.81498 -0.68194,-1.05094 -0.36019,-0.23596 -0.80941,-0.32285 -1.23632,-0.26662 -0.42692,0.0562 -0.83046,0.25055 -1.16036,0.52728 -0.3299,0.27673 -0.58799,0.63352 -0.77517,1.0213 -0.37436,0.77558 -0.46494,1.65562 -0.49519,2.51628 -0.0303,0.86067 -0.007,1.72962 -0.17439,2.57431 -0.23555,1.18562 -0.83493,2.26169 -1.27801,3.38634 -0.22154,0.56233 -0.40568,1.14347 -0.48213,1.74301 -0.0764,0.59954 -0.0419,1.22037 0.16366,1.78874 0.33146,0.91653 1.09741,1.64027 1.98894,2.03407 0.89153,0.3938 1.89808,0.4784 2.86616,0.3656 1.93616,-0.22559 3.69237,-1.19524 5.52203,-1.86751 3.39794,-1.24849 7.22618,-1.46135 10.64321,-0.26608 1.34792,0.4715 2.67417,1.20176 3.45905,2.39472 0.50018,0.76024 0.74782,1.66034 0.88617,2.55978 0.13836,0.89945 0.1747,1.81162 0.29269,2.71396 0.11799,0.90234 0.32332,1.80881 0.77084,2.60119 0.44753,0.79238 1.16346,1.46486 2.04151,1.70396 0.55302,0.15059 1.14083,0.12444 1.70526,0.0248 0.56443,-0.0997 1.11337,-0.27076 1.6695,-0.40944 0.55613,-0.13868 1.12729,-0.24561 1.69952,-0.21295 0.57223,0.0327 1.15041,0.21563 1.57772,0.59762 0.3169,0.28329 0.53889,0.6671 0.64496,1.07872 0.10606,0.41162 0.0982,0.8496 -0.004,1.26221 -0.20431,0.82521 -0.77568,1.52632 -1.46706,2.02101 -0.69138,0.49469 -1.49882,0.80178 -2.3132,1.0457 -0.81439,0.24392 -1.64638,0.43033 -2.44842,0.71221 -1.33958,0.4708 -2.57165,1.19907 -3.86608,1.78265 -1.29443,0.58357 -2.70443,1.02869 -4.11633,0.87815 -0.93759,-0.1 -1.82684,-0.45747 -2.68855,-0.84025 -0.86172,-0.38278 -1.71745,-0.7971 -2.63306,-1.02231 z"
       id="path9320"
       inkscape:path-effect="#path-effect9322"
       inkscape:original-d="m 160.9786,211.32436 c -1.77414,-0.62112 -3.72486,4.61233 -5.58769,6.91809 -1.86282,2.30576 6.56358,2.30629 9.84498,3.45905 3.28139,1.15275 0.88719,1.59674 1.3304,2.39472 0.4432,0.79797 4.96709,1.77413 7.45025,2.6608 2.48315,0.88667 4.96709,-1.24144 7.45024,-1.86256 2.48316,-0.62112 10.11132,-2.66054 15.16658,-3.99121 5.05527,-1.33066 -0.13261,-8.82816 2.09568,-6.77852 34.29388,31.54438 3.80467,-5.16339 2.03054,-6.49405 -1.77414,-1.33067 -1.79715,-6.94289 -0.46701,-9.51526 1.33014,-2.57238 -5.96497,-4.17471 -6.05393,-7.27924 -0.089,-3.10454 -6.20828,-6.03089 -9.31281,-9.04673 -3.10454,-3.01585 -10.47118,-2.18974 -16.05913,-2.19 -5.58795,-2.7e-4 -6.91783,1.59674 -10.37713,2.39472 -3.45931,0.79798 -5.84789,1.12594 -8.42026,0.59352 -2.57238,-0.53243 0.53242,-1.77361 0.79824,-2.66081 0.26581,-0.8872 -3.01532,3.54801 -4.52337,5.32161 -1.50805,1.7736 -1.06406,4.61232 -1.59648,6.91809 -0.53243,2.30576 6.91835,0.35504 10.37713,0.53216 3.45878,0.17712 7.09574,-0.17712 10.64321,-0.26608 3.54748,-0.089 2.3063,1.59675 3.45905,2.39472 1.15275,0.79798 2.66107,6.38619 3.99121,9.57889 1.33013,3.1927 4.43493,2.7e-4 6.652,0 2.21707,-2.6e-4 -3.72486,4.08017 -5.58768,6.11985 -1.86283,2.03969 -5.32135,1.77414 -7.98241,2.6608 -2.66107,0.88667 -3.54748,-1.24144 -5.32161,-1.86256 z"
       sodipodi:nodetypes="sssssssssscsssssssscssssss" />
    <text
       xml:space="preserve"
       style="font-size:5.64444px;line-height:1.25;font-family:sans-serif;letter-spacing:0px;word-spacing:0px;stroke-width:0.264583"
       x="165.26994"
       y="220.4893"
       id="text10128"><tspan
         sodipodi:role="line"
         id="tspan10126"
         style="stroke-width:0.264583"
         x="165.26994"
         y="220.4893">\(\widetilde{y}_0\)</tspan></text>
    <text
       xml:space="preserve"
       style="font-size:5.64444px;line-height:1.25;font-family:sans-serif;letter-spacing:0px;word-spacing:0px;stroke-width:0.264583"
       x="158.42299"
       y="189.46278"
       id="text10128-9"><tspan
         sodipodi:role="line"
         id="tspan10126-3"
         style="stroke-width:0.264583"
         x="158.42299"
         y="189.46278">\(\widetilde{f}(x)\)</tspan></text>
    <text
       xml:space="preserve"
       style="font-size:5.64444px;line-height:1.25;font-family:sans-serif;letter-spacing:0px;word-spacing:0px;stroke-width:0.264583"
       x="184.34492"
       y="206.83662"
       id="text10128-9-9"><tspan
         sodipodi:role="line"
         id="tspan10126-3-7"
         style="stroke-width:0.264583"
         x="184.34492"
         y="206.83662">\(\widetilde{f\circ \gamma}\)</tspan></text>
    <path
       style="fill:none;stroke:#e60000;stroke-width:0.264583px;stroke-linecap:butt;stroke-linejoin:miter;stroke-opacity:1"
       d="m 162.38675,216.52477 c 1.87322,-1.95141 4.55716,-3.09933 7.26213,-3.10603 2.70498,-0.007 5.39457,1.12792 7.27743,3.07003 0.54561,0.56278 1.0238,1.187 1.55204,1.76611 0.52825,0.5791 1.11723,1.12023 1.82066,1.46606 1.05662,0.51947 2.32758,0.55311 3.43413,0.1508 1.10654,-0.40231 2.04369,-1.22296 2.6468,-2.23417 0.6031,-1.01122 0.87896,-2.20364 0.84934,-3.38068 -0.0296,-1.17704 -0.35769,-2.33782 -0.88751,-3.38929 -0.70614,-1.40138 -1.75315,-2.59751 -2.61988,-3.90567 -0.43337,-0.65408 -0.8241,-1.34123 -1.09491,-2.07763 -0.27081,-0.73641 -0.41934,-1.52552 -0.36056,-2.30793 0.0918,-1.22201 0.67652,-2.34955 1.3188,-3.3932 0.64228,-1.04366 1.36104,-2.05748 1.77285,-3.21167 0.48391,-1.35627 0.51197,-2.87077 0.0786,-4.24403 -0.43335,-1.37326 -1.32562,-2.59735 -2.50035,-3.4302 -1.17473,-0.83286 -2.62515,-1.26967 -4.06444,-1.22407 -1.43929,0.0456 -2.85915,0.57335 -3.9788,1.4789"
       id="path10546"
       inkscape:path-effect="#path-effect10548"
       inkscape:original-d="m 162.38675,216.52477 c 4.84679,-0.0117 9.69331,-0.0238 14.53956,-0.036 4.84626,-0.0123 2.24874,2.15504 3.3727,3.23217 1.12397,1.07713 4.02877,-5.90197 6.04276,-8.85334 2.01399,-2.95138 -2.71663,-5.52722 -4.07535,-8.29123 -1.35871,-2.764 2.06136,-4.40298 3.09165,-6.60487 1.03028,-2.20189 -6.97639,-4.94601 -10.46498,-7.4194" />
    <text
       xml:space="preserve"
       style="font-size:5.64444px;line-height:1.25;font-family:sans-serif;letter-spacing:0px;word-spacing:0px;stroke-width:0.264583"
       x="194.18518"
       y="185.14886"
       id="text12907"><tspan
         sodipodi:role="line"
         id="tspan12905"
         style="stroke-width:0.264583"
         x="194.18518"
         y="185.14886">\(\widetilde{Y}\)</tspan></text>
    <text
       xml:space="preserve"
       style="font-size:5.64444px;line-height:1.25;font-family:sans-serif;letter-spacing:0px;word-spacing:0px;stroke-width:0.264583"
       x="175.12021"
       y="267.01712"
       id="text13211"><tspan
         sodipodi:role="line"
         id="tspan13209"
         style="stroke-width:0.264583"
         x="175.12021"
         y="267.01712">\(f\circ \gamma\)</tspan></text>
    <text
       xml:space="preserve"
       style="font-size:5.64444px;line-height:1.25;font-family:sans-serif;letter-spacing:0px;word-spacing:0px;stroke-width:0.264583"
       x="154.30891"
       y="278.7467"
       id="text13211-9"><tspan
         sodipodi:role="line"
         id="tspan13209-8"
         style="stroke-width:0.264583"
         x="154.30891"
         y="278.7467">\(f\circ \gamma^\prime\)</tspan></text>
    <path
       style="fill:none;stroke:#0000f9;stroke-width:0.264583px;stroke-linecap:butt;stroke-linejoin:miter;stroke-opacity:1"
       d="m 160.52327,256.75054 c -1.60261,-0.39526 -3.35911,-0.12276 -4.76664,0.73947 -1.40752,0.86224 -2.4482,2.30327 -2.82408,3.91053 -0.37588,1.60726 -0.0822,3.36035 0.79696,4.75736 0.87917,1.39702 2.33266,2.42022 3.94434,2.77667 1.66157,0.36748 3.386,0.0461 5.07375,-0.17143 0.84388,-0.10878 1.69504,-0.19145 2.54477,-0.14772 0.84974,0.0437 1.70204,0.21784 2.46214,0.60021 0.8084,0.40666 1.48369,1.03191 2.12576,1.66958 0.64206,0.63768 1.26895,1.30138 2.01702,1.81058 1.17381,0.79899 2.57569,1.17251 3.93098,1.59608 2.37948,0.74365 4.6986,1.68033 6.9271,2.79779"
       id="path20708"
       inkscape:path-effect="#path-effect20710"
       inkscape:original-d="m 160.52327,256.75054 c 0.0672,3.04483 -2.91613,9.13974 -2.84942,12.18403 0.0667,3.0443 8.44142,0.18764 10.08066,0.28106 1.63925,0.0934 3.67462,1.98144 4.14278,3.48016 0.46817,1.49871 1.91699,1.69003 3.93098,1.59608 2.01399,-0.094 4.61833,1.86546 6.9271,2.79779"
       sodipodi:nodetypes="cssscc" />
    <path
       style="fill:none;stroke:#0000f9;stroke-width:0.264583px;stroke-linecap:butt;stroke-linejoin:miter;stroke-opacity:1"
       d="m 43.898118,253.2007 c 3.509926,0.0709 6.984169,1.351 9.701076,3.57429 2.716907,2.2233 4.659075,5.37558 5.423087,8.80208 0.233356,1.04657 0.360042,2.11547 0.615516,3.15687 0.255474,1.0414 0.652363,2.07321 1.351894,2.88588 0.666561,0.77437 1.564876,1.30362 2.420923,1.86141 0.856047,0.55779 1.711282,1.18534 2.21654,2.07341 0.272257,0.47853 0.436873,1.02346 0.790021,1.44584 0.176574,0.21119 0.402121,0.38837 0.664706,0.47101 0.131292,0.0413 0.270709,0.0584 0.407663,0.0447 0.136954,-0.0137 0.271301,-0.0587 0.386079,-0.13465 0.206221,-0.13649 0.338356,-0.36598 0.397321,-0.60614 0.05897,-0.24017 0.0511,-0.49182 0.02403,-0.73763 -0.02706,-0.24581 -0.07293,-0.48962 -0.08902,-0.73639 -0.0161,-0.24677 -0.0012,-0.50025 0.08926,-0.73042 0.08706,-0.2216 0.242541,-0.41396 0.433804,-0.55575 0.191263,-0.14179 0.417327,-0.23389 0.651178,-0.27861 0.467704,-0.0894 0.954657,0.009 1.396777,0.18614 0.442119,0.17685 0.849081,0.4293 1.26421,0.66257 0.415128,0.23327 0.846911,0.45067 1.313084,0.54777 0.806228,0.16793 1.684795,-0.0556 2.312724,-0.58844 0.627929,-0.53283 0.991483,-1.3633 0.957012,-2.18611"
       id="path20712"
       inkscape:path-effect="#path-effect20714"
       inkscape:original-d="m 43.898118,253.2007 c 5.041652,4.12572 10.083038,8.25118 15.124163,12.37637 5.041122,4.12519 1.31187,4.02877 1.96741,6.04275 0.655537,2.01399 3.091907,2.62348 4.637463,3.93482 1.545558,1.31134 1.499243,1.21819 2.248469,1.82688 0.749223,0.6087 0.281323,-1.87345 0.421587,-2.81058 0.140266,-0.93713 3.372966,0.37501 5.059053,0.56212 1.686086,0.1871 2.18009,-1.84944 3.269736,-2.77455" />
    <path
       style="fill:none;stroke:#000000;stroke-width:0.264583px;stroke-linecap:butt;stroke-linejoin:miter;stroke-opacity:1;marker-end:url(#Arrow1Lend)"
       d="m 175.12778,229.94068 v 15.88221"
       id="path21642"
       inkscape:path-effect="#path-effect21644"
       inkscape:original-d="m 175.12778,229.94068 c 2.6e-4,5.29434 2.6e-4,10.5884 0,15.88221" />
    <text
       xml:space="preserve"
       style="font-size:5.64444px;line-height:1.25;font-family:sans-serif;letter-spacing:0px;word-spacing:0px;stroke-width:0.264583"
       x="177.24541"
       y="239.25824"
       id="text22278"><tspan
         sodipodi:role="line"
         id="tspan22276"
         style="stroke-width:0.264583"
         x="177.24541"
         y="239.25824">\(p\)</tspan></text>
    <path
       style="font-variation-settings:normal;opacity:0.99;vector-effect:none;fill:#000000;fill-opacity:1;fill-rule:evenodd;stroke:none;stroke-width:0.264567;stroke-linecap:butt;stroke-linejoin:round;stroke-miterlimit:4;stroke-dasharray:none;stroke-dashoffset:0;stroke-opacity:1;-inkscape-stroke:none;stop-color:#000000;stop-opacity:1"
       id="path1714-5-8-9"
       sodipodi:type="arc"
       sodipodi:cx="162.38589"
       sodipodi:cy="216.62924"
       sodipodi:rx="1.0643213"
       sodipodi:ry="1.0643213"
       sodipodi:start="6.1848709"
       sodipodi:end="6.1778721"
       sodipodi:open="true"
       sodipodi:arc-type="arc"
       d="m 163.44508,216.52477 a 1.0643213,1.0643213 0 0 1 -0.95286,1.16347 1.0643213,1.0643213 0 0 1 -1.16513,-0.95082 1.0643213,1.0643213 0 0 1 0.94878,-1.1668 1.0643213,1.0643213 0 0 1 1.16845,0.94674" />
    <path
       style="font-variation-settings:normal;opacity:0.99;vector-effect:none;fill:#000000;fill-opacity:1;fill-rule:evenodd;stroke:none;stroke-width:0.264567;stroke-linecap:butt;stroke-linejoin:round;stroke-miterlimit:4;stroke-dasharray:none;stroke-dashoffset:0;stroke-opacity:1;-inkscape-stroke:none;stop-color:#000000;stop-opacity:1"
       id="path1714-5-8-1"
       sodipodi:type="arc"
       sodipodi:cx="174.89299"
       sodipodi:cy="188.66393"
       sodipodi:rx="1.0643213"
       sodipodi:ry="1.0643213"
       sodipodi:start="6.1848709"
       sodipodi:end="6.1778721"
       sodipodi:open="true"
       sodipodi:arc-type="arc"
       d="m 175.95217,188.55946 a 1.0643213,1.0643213 0 0 1 -0.95286,1.16346 1.0643213,1.0643213 0 0 1 -1.16513,-0.95082 1.0643213,1.0643213 0 0 1 0.94878,-1.16679 1.0643213,1.0643213 0 0 1 1.16845,0.94674" />
    <path
       style="font-variation-settings:normal;opacity:0.99;vector-effect:none;fill:#000000;fill-opacity:1;fill-rule:evenodd;stroke:none;stroke-width:0.264567;stroke-linecap:butt;stroke-linejoin:round;stroke-miterlimit:4;stroke-dasharray:none;stroke-dashoffset:0;stroke-opacity:1;-inkscape-stroke:none;stop-color:#000000;stop-opacity:1"
       id="path1714"
       sodipodi:type="arc"
       sodipodi:cx="43.82209"
       sodipodi:cy="253.18228"
       sodipodi:rx="1.0643213"
       sodipodi:ry="1.0643213"
       sodipodi:start="6.1848709"
       sodipodi:end="6.1778721"
       sodipodi:open="true"
       sodipodi:arc-type="arc"
       d="m 44.881272,253.07781 a 1.0643213,1.0643213 0 0 1 -0.952859,1.16347 1.0643213,1.0643213 0 0 1 -1.165132,-0.95082 1.0643213,1.0643213 0 0 1 0.948781,-1.1668 1.0643213,1.0643213 0 0 1 1.168453,0.94674" />
    <path
       style="font-variation-settings:normal;opacity:0.99;vector-effect:none;fill:#000000;fill-opacity:1;fill-rule:evenodd;stroke:none;stroke-width:0.264567;stroke-linecap:butt;stroke-linejoin:round;stroke-miterlimit:4;stroke-dasharray:none;stroke-dashoffset:0;stroke-opacity:1;-inkscape-stroke:none;stop-color:#000000;stop-opacity:1"
       id="path1714-9"
       sodipodi:type="arc"
       sodipodi:cx="76.672867"
       sodipodi:cy="272.58585"
       sodipodi:rx="1.0643213"
       sodipodi:ry="1.0643213"
       sodipodi:start="6.1848709"
       sodipodi:end="6.1778721"
       sodipodi:open="true"
       sodipodi:arc-type="arc"
       d="m 77.732049,272.48138 a 1.0643213,1.0643213 0 0 1 -0.952859,1.16346 1.0643213,1.0643213 0 0 1 -1.165133,-0.95082 1.0643213,1.0643213 0 0 1 0.948782,-1.16679 1.0643213,1.0643213 0 0 1 1.168452,0.94674" />
  </g>
</svg>
