<?xml version="1.0" encoding="UTF-8" standalone="no"?>
<!-- Created with Inkscape (http://www.inkscape.org/) -->

<svg
   width="240mm"
   height="58mm"
   viewBox="0 0 240 58"
   version="1.1"
   id="svg8"
   inkscape:version="1.1.1 (c3084ef, 2021-09-22)"
   sodipodi:docname="pf:prop:lec17-2.svg"
   xmlns:inkscape="http://www.inkscape.org/namespaces/inkscape"
   xmlns:sodipodi="http://sodipodi.sourceforge.net/DTD/sodipodi-0.dtd"
   xmlns="http://www.w3.org/2000/svg"
   xmlns:svg="http://www.w3.org/2000/svg"
   xmlns:rdf="http://www.w3.org/1999/02/22-rdf-syntax-ns#"
   xmlns:cc="http://creativecommons.org/ns#"
   xmlns:dc="http://purl.org/dc/elements/1.1/">
  <defs
     id="defs2">
    <marker
       style="overflow:visible"
       id="Arrow1Lend"
       refX="0"
       refY="0"
       orient="auto"
       inkscape:stockid="Arrow1Lend"
       inkscape:isstock="true">
      <path
         transform="matrix(-0.8,0,0,-0.8,-10,0)"
         style="fill:context-stroke;fill-rule:evenodd;stroke:context-stroke;stroke-width:1pt"
         d="M 0,0 5,-5 -12.5,0 5,5 Z"
         id="path1351" />
    </marker>
    <inkscape:path-effect
       effect="spiro"
       id="path-effect1266"
       is_visible="true"
       lpeversion="1" />
    <inkscape:path-effect
       effect="spiro"
       id="path-effect1229"
       is_visible="true"
       lpeversion="1" />
    <inkscape:path-effect
       effect="spiro"
       id="path-effect1225"
       is_visible="true"
       lpeversion="1" />
    <inkscape:path-effect
       effect="spiro"
       id="path-effect858"
       is_visible="true"
       lpeversion="1" />
    <marker
       id="marker-arrow-2.654"
       orient="auto-start-reverse"
       refY="0"
       refX="0"
       markerHeight="3"
       markerWidth="2">
      <g
         transform="scale(0.85737252)"
         id="g1055"><path
   d="M -1.55415,2.0722 C -1.42464,1.29512 0,0.1295 0.38852,0 0,-0.1295 -1.42464,-1.29512 -1.55415,-2.0722"
   style="fill:none;stroke:#000000;stroke-linecap:round;stroke-linejoin:round;stroke-miterlimit:10;stroke-dasharray:none;stroke-opacity:1"
   id="path1053" />



0&quot; /&gt;
   </g>
    </marker>
    <marker
       id="marker-arrow-1.0"
       orient="auto-start-reverse"
       refY="0"
       refX="0"
       markerHeight="3"
       markerWidth="2">
      <g
         transform="scale(1.3933333)"
         id="g891"><path
   d="M -1.55415,2.0722 C -1.42464,1.29512 0,0.1295 0.38852,0 0,-0.1295 -1.42464,-1.29512 -1.55415,-2.0722"
   style="fill:none;stroke:#000000;stroke-linecap:round;stroke-linejoin:round;stroke-miterlimit:10;stroke-dasharray:none;stroke-opacity:1"
   id="path889" />


0&quot; /&gt;
   </g>
    </marker>
  </defs>
  <sodipodi:namedview
     id="base"
     pagecolor="#ffffff"
     bordercolor="#666666"
     borderopacity="1.0"
     inkscape:pageopacity="0.0"
     inkscape:pageshadow="2"
     inkscape:zoom="0.72166537"
     inkscape:cx="331.17842"
     inkscape:cy="25.63515"
     inkscape:document-units="mm"
     inkscape:current-layer="layer1"
     showgrid="false"
     showborder="true"
     width="200mm"
     showguides="true"
     inkscape:guide-bbox="true"
     inkscape:window-width="1280"
     inkscape:window-height="680"
     inkscape:window-x="1728"
     inkscape:window-y="697"
     inkscape:window-maximized="0"
     inkscape:pagecheckerboard="0">
    <inkscape:grid
       type="xygrid"
       id="grid815"
       units="mm"
       spacingx="10"
       spacingy="10"
       empspacing="4"
       dotted="false" />
  </sodipodi:namedview>
  <metadata
     id="metadata5">
    <rdf:RDF>
      <cc:Work
         rdf:about="">
        <dc:format>image/svg+xml</dc:format>
        <dc:type
           rdf:resource="http://purl.org/dc/dcmitype/StillImage" />
      </cc:Work>
    </rdf:RDF>
  </metadata>
  <g
     inkscape:label="Layer 1"
     inkscape:groupmode="layer"
     id="layer1"
     transform="translate(0,-177)">
    <path
       style="fill:none;fill-opacity:1;stroke:#000000;stroke-width:0.264583;stroke-linecap:butt;stroke-linejoin:miter;stroke-dasharray:none;stroke-opacity:1;marker-start:none;marker-end:none"
       d="m 67.112632,178.6974 c 3.617572,-1.382 7.634686,-1.47805 11.448275,-0.80478 3.813589,0.67327 7.457103,2.08441 10.997804,3.65291 3.5407,1.56849 7.011392,3.30405 10.633139,4.67508 3.62174,1.37104 7.42952,2.37809 11.30191,2.41437 7.11789,0.0667 13.80066,-3.10141 20.6161,-5.15535 3.40772,-1.02696 6.93563,-1.78714 10.49397,-1.71362 3.55835,0.0735 7.16925,1.03047 10.01625,3.1663 2.01761,1.51362 3.58631,3.56308 4.80901,5.76916 1.22271,2.20607 2.1174,4.57642 2.97106,6.94983 1.70732,4.7468 3.39082,9.74303 7.02477,13.24182 1.50615,1.45013 3.28706,2.57722 4.9428,3.85389 1.65574,1.27667 3.23086,2.76091 4.10393,4.66068 0.68223,1.48449 0.8977,3.17023 0.67238,4.78837 -0.22532,1.61814 -0.88396,3.16631 -1.84315,4.48885 -1.91837,2.64507 -4.98232,4.32014 -8.18132,4.98571 -3.19899,0.66558 -6.53231,0.39223 -9.72599,-0.2984 -3.19368,-0.69064 -6.28175,-1.78928 -9.39251,-2.78915 -18.89921,-6.07465 -38.74123,-8.53233 -58.455448,-10.86283 -5.230309,-0.6183 -10.496851,-1.23711 -15.525048,-2.80417 -5.028196,-1.56705 -9.86038,-4.15789 -13.29386,-8.15159 -3.911594,-4.54982 -5.750675,-10.88765 -4.59619,-16.77565 0.577242,-2.94401 1.874975,-5.74877 3.775779,-8.06983 1.900805,-2.32106 4.403819,-4.15097 7.206339,-5.2216 z"
       id="path856"
       inkscape:path-effect="#path-effect858"
       inkscape:original-d="m 67.112632,178.6974 c 2.12838,-10.02262 34.536418,14.10643 44.381128,9.93758 9.8447,-4.16886 22.05749,-6.18582 41.12632,-3.70267 19.06882,2.48315 10.28174,13.544 14.80484,25.96081 4.5231,12.41682 6.03142,5.67665 9.04673,8.51457 3.01532,2.83793 -18.98013,7.45052 -28.47059,11.17538 -9.49046,3.72486 -36.4592,-9.97564 -58.455448,-10.86283 -21.996241,-0.8872 -21.723166,-4.56957 -28.818908,-10.95576 -7.095738,-6.38619 4.257551,-20.04445 6.385928,-30.06708 z"
       sodipodi:nodetypes="sssssssss" />
    <path
       style="font-variation-settings:normal;opacity:0.99;vector-effect:none;fill:#000000;fill-opacity:1;fill-rule:evenodd;stroke:#000000;stroke-width:0.264567;stroke-linecap:butt;stroke-linejoin:round;stroke-miterlimit:4;stroke-dasharray:none;stroke-dashoffset:0;stroke-opacity:1;-inkscape-stroke:none;stop-color:#000000;stop-opacity:1"
       id="path962"
       sodipodi:type="arc"
       sodipodi:cx="73.232483"
       sodipodi:cy="193.06569"
       sodipodi:rx="0.53216064"
       sodipodi:ry="0.53216064"
       sodipodi:start="6.1848709"
       sodipodi:end="6.1778721"
       sodipodi:open="true"
       sodipodi:arc-type="arc"
       d="m 73.762074,193.01345 a 0.53216064,0.53216064 0 0 1 -0.47643,0.58174 0.53216064,0.53216064 0 0 1 -0.582566,-0.47541 0.53216064,0.53216064 0 0 1 0.474391,-0.5834 0.53216064,0.53216064 0 0 1 0.584226,0.47337" />
    <path
       style="font-variation-settings:normal;opacity:0.99;vector-effect:none;fill:#000000;fill-opacity:1;fill-rule:evenodd;stroke:#000000;stroke-width:0.264567;stroke-linecap:butt;stroke-linejoin:round;stroke-miterlimit:4;stroke-dasharray:none;stroke-dashoffset:0;stroke-opacity:1;-inkscape-stroke:none;stop-color:#000000;stop-opacity:1"
       id="path962-9"
       sodipodi:type="arc"
       sodipodi:cx="87.600815"
       sodipodi:cy="210.36092"
       sodipodi:rx="0.53216064"
       sodipodi:ry="0.53216064"
       sodipodi:start="6.1848709"
       sodipodi:end="6.1778721"
       sodipodi:open="true"
       sodipodi:arc-type="arc"
       d="m 88.130406,210.30868 a 0.53216064,0.53216064 0 0 1 -0.47643,0.58173 0.53216064,0.53216064 0 0 1 -0.582566,-0.47541 0.53216064,0.53216064 0 0 1 0.474391,-0.58339 0.53216064,0.53216064 0 0 1 0.584226,0.47337" />
    <path
       style="font-variation-settings:normal;opacity:0.99;vector-effect:none;fill:#000000;fill-opacity:1;fill-rule:evenodd;stroke:#000000;stroke-width:0.264567;stroke-linecap:butt;stroke-linejoin:round;stroke-miterlimit:4;stroke-dasharray:none;stroke-dashoffset:0;stroke-opacity:1;-inkscape-stroke:none;stop-color:#000000;stop-opacity:1"
       id="path962-0"
       sodipodi:type="arc"
       sodipodi:cx="137.62392"
       sodipodi:cy="189.34056"
       sodipodi:rx="0.53216064"
       sodipodi:ry="0.53216064"
       sodipodi:start="6.1848709"
       sodipodi:end="6.1778721"
       sodipodi:open="true"
       sodipodi:arc-type="arc"
       d="m 138.15351,189.28833 a 0.53216064,0.53216064 0 0 1 -0.47643,0.58173 0.53216064,0.53216064 0 0 1 -0.58257,-0.47541 0.53216064,0.53216064 0 0 1 0.47439,-0.5834 0.53216064,0.53216064 0 0 1 0.58423,0.47337" />
    <path
       style="font-variation-settings:normal;opacity:0.99;vector-effect:none;fill:#000000;fill-opacity:1;fill-rule:evenodd;stroke:#000000;stroke-width:0.264567;stroke-linecap:butt;stroke-linejoin:round;stroke-miterlimit:4;stroke-dasharray:none;stroke-dashoffset:0;stroke-opacity:1;-inkscape-stroke:none;stop-color:#000000;stop-opacity:1"
       id="path962-5"
       sodipodi:type="arc"
       sodipodi:cx="154.91914"
       sodipodi:cy="221.53629"
       sodipodi:rx="0.53216064"
       sodipodi:ry="0.53216064"
       sodipodi:start="6.1848709"
       sodipodi:end="6.1778721"
       sodipodi:open="true"
       sodipodi:arc-type="arc"
       d="m 155.44873,221.48405 a 0.53216064,0.53216064 0 0 1 -0.47642,0.58173 0.53216064,0.53216064 0 0 1 -0.58257,-0.47541 0.53216064,0.53216064 0 0 1 0.47439,-0.58339 0.53216064,0.53216064 0 0 1 0.58423,0.47337" />
    <path
       style="fill:none;fill-opacity:1;stroke:#000000;stroke-width:0.264583;stroke-linecap:butt;stroke-linejoin:miter;stroke-dasharray:none;stroke-opacity:1;marker-start:none;marker-end:none"
       d="m 73.762077,193.01351 c -0.637331,0.62418 -1.104989,1.41996 -1.340165,2.28047 -0.235176,0.86051 -0.237265,1.78354 -0.006,2.6451 0.23128,0.86157 0.695333,1.65946 1.329833,2.28652 0.6345,0.62705 1.437813,1.08166 2.30205,1.30275 0.997556,0.2552 2.051696,0.2 3.065183,0.0181 1.013486,-0.18192 2.000072,-0.48727 3.000128,-0.73249 1.000056,-0.24523 2.027254,-0.43134 3.054967,-0.36768 1.027713,0.0637 2.064342,0.39588 2.832054,1.08208 0.509365,0.45528 0.879532,1.04373 1.213309,1.63982 0.333777,0.59609 0.640269,1.2115 1.051345,1.75716 0.392908,0.52155 0.873935,0.9694 1.303013,1.46162 0.429078,0.49222 0.814714,1.04749 0.96164,1.68373 0.126568,0.54809 0.0644,1.13793 -0.173643,1.64758 -0.238048,0.50966 -0.650467,0.93591 -1.152002,1.19062 -0.501535,0.25472 -1.089005,0.33629 -1.640965,0.22786 -0.55196,-0.10844 -1.06491,-0.40619 -1.43281,-0.83171"
       id="path1223"
       inkscape:path-effect="#path-effect1225"
       inkscape:original-d="m 73.762077,193.01351 c 0.762175,2.83854 1.524088,5.67682 2.285733,8.51484 0.761648,2.83802 7.968488,2.7e-4 11.952332,0 3.983848,-2.6e-4 1.510036,2.26492 2.264654,3.39698 0.754621,1.13206 1.510032,2.09716 2.264653,3.14535 0.754618,1.04819 -2.932681,1.48983 -4.39942,2.23435" />
    <path
       style="fill:none;fill-opacity:1;stroke:#000000;stroke-width:0.264583;stroke-linecap:butt;stroke-linejoin:miter;stroke-dasharray:none;stroke-opacity:1;marker-start:none;marker-end:none"
       d="m 138.15351,189.28838 c -1.00544,0.13283 -1.9687,0.56969 -2.73102,1.23858 -0.76232,0.66889 -1.3207,1.56718 -1.58311,2.54682 -0.26241,0.97963 -0.22782,2.03676 0.0981,2.99715 0.32589,0.96039 0.94179,1.82025 1.74621,2.43788 0.72245,0.55469 1.5823,0.91004 2.46478,1.13551 0.88248,0.22548 1.79159,0.32607 2.6984,0.41149 1.81363,0.17085 3.70466,0.30511 5.27939,1.22091 0.9041,0.52579 1.66307,1.2972 2.17808,2.20748 0.51501,0.91028 0.78524,1.9569 0.77986,3.00276 -0.005,1.04585 -0.28585,2.08852 -0.80189,2.99822 -0.51604,0.90969 -1.26611,1.68469 -2.15605,2.23411 -1.57424,0.97189 -3.47716,1.20319 -5.25054,1.73039 -0.88668,0.2636 -1.75951,0.61024 -2.51327,1.14647 -0.75376,0.53623 -1.38525,1.2763 -1.67224,2.1557 -0.29306,0.89798 -0.20566,1.90621 0.20166,2.75847 0.40732,0.85226 1.12373,1.54541 1.97174,1.96152 0.848,0.41611 1.8211,0.5592 2.75889,0.446 0.93779,-0.11319 1.83904,-0.47772 2.61655,-1.01413 1.65229,-1.13992 2.67247,-2.9603 3.77626,-4.63694 0.5519,-0.83832 1.14164,-1.65941 1.86076,-2.35958 0.71912,-0.70016 1.57711,-1.27865 2.54089,-1.55883 1.18134,-0.34343 2.49378,-0.21124 3.5829,0.36088 1.08912,0.57212 1.94273,1.57777 2.33032,2.74536 0.38759,1.1676 0.30482,2.48408 -0.22596,3.59394 -0.53078,1.10985 -1.50363,2.00066 -2.65583,2.43186"
       id="path1227"
       inkscape:path-effect="#path-effect1229"
       inkscape:original-d="m 138.15351,189.28838 c -0.82302,3.07374 -1.6463,6.14722 -2.46985,9.22043 -0.82354,3.07322 6.96198,1.84554 10.44257,2.76791 3.48059,0.92237 2.6e-4,6.96198 0,10.44257 -2.7e-4,3.48059 -6.29044,3.3553 -9.43605,5.03256 -3.14562,1.67725 5.03282,2.76817 7.54884,4.15186 2.51601,1.38369 5.4522,-5.7033 8.17791,-8.55535 2.72571,-2.85205 2.02122,6.08829 3.03143,9.13204" />
    <path
       style="fill:none;fill-opacity:1;stroke:#000000;stroke-width:0.264583;stroke-linecap:butt;stroke-linejoin:miter;stroke-dasharray:none;stroke-opacity:1;marker-start:none;marker-end:url(#marker-arrow-1.0)"
       d="m 101.72556,200.73282 h 21.45356"
       id="path1264"
       inkscape:path-effect="#path-effect1266"
       inkscape:original-d="m 101.72556,200.73282 c 7.15145,2.6e-4 14.30264,2.6e-4 21.45356,0" />
    <text
       xml:space="preserve"
       style="font-size:5.64444px;line-height:1.25;font-family:sans-serif;letter-spacing:0px;word-spacing:0px;stroke-width:0.264583"
       x="111.10775"
       y="197.98671"
       id="text1640"><tspan
         sodipodi:role="line"
         id="tspan1638"
         style="stroke-width:0.264583"
         x="111.10775"
         y="197.98671">\(\tau\)</tspan></text>
    <text
       xml:space="preserve"
       style="font-size:5.64444px;line-height:1.25;font-family:sans-serif;letter-spacing:0px;word-spacing:0px;stroke-width:0.264583"
       x="69.406357"
       y="190.25188"
       id="text2408"><tspan
         sodipodi:role="line"
         id="tspan2406"
         style="stroke-width:0.264583"
         x="69.406357"
         y="190.25188">\(\widetilde{x}_0\)</tspan></text>
    <text
       xml:space="preserve"
       style="font-size:5.64444px;line-height:1.25;font-family:sans-serif;letter-spacing:0px;word-spacing:0px;stroke-width:0.264583"
       x="137.14211"
       y="187.19437"
       id="text2408-9"><tspan
         sodipodi:role="line"
         id="tspan2406-0"
         style="stroke-width:0.264583"
         x="137.14211"
         y="187.19437">\(\widetilde{x}_2\)</tspan></text>
    <text
       xml:space="preserve"
       style="font-size:5.64444px;line-height:1.25;font-family:sans-serif;letter-spacing:0px;word-spacing:0px;stroke-width:0.264583"
       x="75.985275"
       y="208.81955"
       id="text2408-1"><tspan
         sodipodi:role="line"
         id="tspan2406-7"
         style="stroke-width:0.264583"
         x="75.985275"
         y="208.81955">\(\widetilde{\gamma}^\prime\)</tspan></text>
    <text
       xml:space="preserve"
       style="font-size:5.64444px;line-height:1.25;font-family:sans-serif;letter-spacing:0px;word-spacing:0px;stroke-width:0.264583"
       x="141.85181"
       y="198.29634"
       id="text2408-1-1"><tspan
         sodipodi:role="line"
         id="tspan2406-7-8"
         style="stroke-width:0.264583"
         x="141.85181"
         y="198.29634">\(\tau(\widetilde{\gamma}^\prime)\)</tspan></text>
  </g>
</svg>
