<?xml version="1.0" encoding="UTF-8" standalone="no"?>
<!-- Created with Inkscape (http://www.inkscape.org/) -->

<svg
   width="240mm"
   height="120mm"
   viewBox="0 0 240 120"
   version="1.1"
   id="svg8"
   inkscape:version="1.1.1 (c3084ef, 2021-09-22)"
   sodipodi:docname="pf:prop:lifting-criterion-2.svg"
   xmlns:inkscape="http://www.inkscape.org/namespaces/inkscape"
   xmlns:sodipodi="http://sodipodi.sourceforge.net/DTD/sodipodi-0.dtd"
   xmlns="http://www.w3.org/2000/svg"
   xmlns:svg="http://www.w3.org/2000/svg"
   xmlns:rdf="http://www.w3.org/1999/02/22-rdf-syntax-ns#"
   xmlns:cc="http://creativecommons.org/ns#"
   xmlns:dc="http://purl.org/dc/elements/1.1/">
  <defs
     id="defs2">
    <marker
       style="overflow:visible;"
       id="Arrow1Lend"
       refX="0.0"
       refY="0.0"
       orient="auto"
       inkscape:stockid="Arrow1Lend"
       inkscape:isstock="true">
      <path
         transform="scale(0.8) rotate(180) translate(12.5,0)"
         style="fill-rule:evenodd;fill:context-stroke;stroke:context-stroke;stroke-width:1.0pt;"
         d="M 0.0,0.0 L 5.0,-5.0 L -12.5,0.0 L 5.0,5.0 L 0.0,0.0 z "
         id="path29189" />
    </marker>
    <inkscape:path-effect
       effect="spiro"
       id="path-effect18582"
       is_visible="true"
       lpeversion="1" />
    <inkscape:path-effect
       effect="spiro"
       id="path-effect18578"
       is_visible="true"
       lpeversion="1" />
    <inkscape:path-effect
       effect="spiro"
       id="path-effect18566"
       is_visible="true"
       lpeversion="1" />
    <inkscape:path-effect
       effect="spiro"
       id="path-effect10759"
       is_visible="true"
       lpeversion="1" />
    <inkscape:path-effect
       effect="spiro"
       id="path-effect4650"
       is_visible="true"
       lpeversion="1" />
    <inkscape:path-effect
       effect="spiro"
       id="path-effect4533"
       is_visible="true"
       lpeversion="1" />
    <inkscape:path-effect
       effect="spiro"
       id="path-effect4455"
       is_visible="true"
       lpeversion="1" />
    <inkscape:path-effect
       effect="spiro"
       id="path-effect858"
       is_visible="true"
       lpeversion="1" />
  </defs>
  <sodipodi:namedview
     id="base"
     pagecolor="#ffffff"
     bordercolor="#666666"
     borderopacity="1.0"
     inkscape:pageopacity="0.0"
     inkscape:pageshadow="2"
     inkscape:zoom="1.1728028"
     inkscape:cx="845.83699"
     inkscape:cy="285.64052"
     inkscape:document-units="mm"
     inkscape:current-layer="layer1"
     showgrid="false"
     showborder="true"
     width="200mm"
     showguides="true"
     inkscape:guide-bbox="true"
     inkscape:window-width="985"
     inkscape:window-height="512"
     inkscape:window-x="0"
     inkscape:window-y="38"
     inkscape:window-maximized="0"
     inkscape:pagecheckerboard="0">
    <inkscape:grid
       type="xygrid"
       id="grid815"
       units="mm"
       spacingx="10"
       spacingy="10"
       empspacing="4"
       dotted="false" />
  </sodipodi:namedview>
  <metadata
     id="metadata5">
    <rdf:RDF>
      <cc:Work
         rdf:about="">
        <dc:format>image/svg+xml</dc:format>
        <dc:type
           rdf:resource="http://purl.org/dc/dcmitype/StillImage" />
      </cc:Work>
    </rdf:RDF>
  </metadata>
  <g
     inkscape:label="Layer 1"
     inkscape:groupmode="layer"
     id="layer1"
     transform="translate(0,-177)">
    <path
       style="fill:none;stroke:#000000;stroke-width:0.264583px;stroke-linecap:butt;stroke-linejoin:miter;stroke-opacity:1"
       d="m 20.534248,234.90453 c 1.343268,-3.94872 3.765942,-7.60993 7.211795,-9.96001 1.722926,-1.17503 3.685598,-2.00987 5.740326,-2.36663 2.054729,-0.35676 4.200322,-0.22909 6.177052,0.43553 2.620151,0.88096 4.835757,2.64459 6.987927,4.37936 2.15217,1.73478 4.358546,3.50678 6.971204,4.40972 2.5884,0.89456 5.435655,0.86943 8.105306,0.25868 2.669651,-0.61074 5.180786,-1.78412 7.557836,-3.14415 4.754099,-2.72006 9.125082,-6.24523 14.323132,-7.97163 2.782358,-0.92409 5.762482,-1.30129 8.672413,-0.94385 2.90993,0.35744 5.744783,1.46461 8.033681,3.29666 2.2889,1.83204 4.00942,4.40025 4.68683,7.25272 0.67741,2.85247 0.276,5.97405 -1.22975,8.48964 -1.04506,1.74593 -2.58776,3.17039 -4.346575,4.19362 -1.758817,1.02323 -3.72931,1.65492 -5.737492,1.98301 -4.016365,0.65616 -8.122795,0.11582 -12.147125,-0.48958 -8.419773,-1.26664 -17.131257,-2.80272 -25.333234,-0.517 -5.58624,1.55677 -10.556005,4.7985 -16.027146,6.72106 -3.336484,1.17244 -6.924991,1.84728 -10.420343,1.30947 -1.747677,-0.26891 -3.455861,-0.84303 -4.969673,-1.75684 -1.513811,-0.91382 -2.829276,-2.17249 -3.739161,-3.68867 -1.053957,-1.75625 -1.541819,-3.81942 -1.568894,-5.86747 -0.02707,-2.04805 0.392251,-4.08454 1.051891,-6.02364 z"
       id="path856"
       inkscape:path-effect="#path-effect858"
       inkscape:original-d="m 20.534248,234.90453 c -0.172601,-3.96396 12.753046,-7.92714 19.129173,-11.89111 6.376128,-3.96396 9.306351,5.85966 13.959131,8.78908 4.652777,2.92943 19.991115,-7.2378 29.986274,-10.8571 9.995162,-3.61929 13.442393,12.06371 20.163174,18.09517 6.7208,6.03146 -14.820525,3.79163 -22.231192,5.68705 -7.410667,1.89542 -16.888557,-0.3444 -25.333234,-0.517 -8.444675,-0.1726 -10.6845,4.48097 -16.027146,6.72106 -5.342647,2.24009 -12.75252,-2.75709 -19.129177,-4.13604 -6.376657,-1.37894 -0.344405,-7.92714 -0.517003,-11.89111 z" />
    <text
       xml:space="preserve"
       style="font-size:5.64444px;line-height:1.25;font-family:sans-serif;letter-spacing:0px;word-spacing:0px;stroke-width:0.264583"
       x="63.114594"
       y="219.11632"
       id="text1412"><tspan
         sodipodi:role="line"
         id="tspan1410"
         style="stroke-width:0.264583"
         x="63.114594"
         y="219.11632">\(V\)</tspan></text>
    <path
       style="fill:none;stroke:#000000;stroke-width:0.264583px;stroke-linecap:butt;stroke-linejoin:miter;stroke-opacity:1;marker-end:url(#Arrow1Lend)"
       d="m 124.1012,235.2518 h 33.09139"
       id="path4453"
       inkscape:path-effect="#path-effect4455"
       inkscape:original-d="m 124.1012,235.2518 c 11.03073,2.6e-4 22.06119,2.6e-4 33.09139,0" />
    <path
       style="fill:none;stroke:#000000;stroke-width:0.264583px;stroke-linecap:butt;stroke-linejoin:miter;stroke-opacity:1"
       d="m 162.11528,239.35403 c -0.25753,-0.92044 -0.12081,-1.92073 0.24439,-2.804 0.3652,-0.88326 0.9466,-1.66139 1.58511,-2.37261 1.27702,-1.42243 2.83534,-2.66139 3.64016,-4.39528 0.83646,-1.80205 0.73608,-3.91111 0.25894,-5.83967 -0.47714,-1.92857 -1.30522,-3.75096 -1.89984,-5.6466 -1.12872,-3.59836 -1.38211,-7.58091 -0.0307,-11.10168 0.67571,-1.76039 1.74889,-3.37835 3.17016,-4.61752 1.42127,-1.23917 3.19494,-2.08906 5.06501,-2.33065 1.78381,-0.23044 3.60744,0.0904 5.29806,0.70434 1.69062,0.61391 3.26244,1.51335 4.78712,2.46751 3.04936,1.90833 6.06844,4.10413 9.60557,4.75915 2.05872,0.38124 4.18203,0.21231 6.24797,-0.12768 2.06593,-0.33998 4.10228,-0.84905 6.17408,-1.15127 2.0718,-0.30222 4.20676,-0.3931 6.24153,0.10026 2.03477,0.49335 3.97198,1.62184 5.12941,3.36655 0.82368,1.24161 1.21694,2.73313 1.31049,4.22017 0.0936,1.48704 -0.0994,2.97794 -0.37062,4.44303 -0.54246,2.93017 -1.40362,5.89602 -0.93987,8.83968 0.38246,2.42766 1.65026,4.64038 3.20533,6.54342 1.55507,1.90304 3.40247,3.54172 5.16226,5.25723 1.75978,1.71551 3.45779,3.54144 4.62597,5.70366 1.16817,2.16222 1.77172,4.71253 1.22753,7.10913 -0.31771,1.39917 -1.01392,2.69678 -1.91536,3.81303 -0.90143,1.11626 -2.0046,2.0576 -3.18457,2.87385 -2.35993,1.63252 -5.02175,2.77252 -7.48027,4.25242 -2.20814,1.32919 -4.25025,2.93141 -6.52539,4.14233 -2.27515,1.21092 -4.88,2.02478 -7.42222,1.60081 -1.65685,-0.27632 -3.19413,-1.06487 -4.55154,-2.05429 -1.35741,-0.98941 -2.55366,-2.17963 -3.74939,-3.35935 -1.19573,-1.17972 -2.40371,-2.35976 -3.77891,-3.3243 -1.3752,-0.96454 -2.93679,-1.71207 -4.6026,-1.92788 -1.82711,-0.23671 -3.68048,0.17493 -5.42245,0.77485 -1.74197,0.59992 -3.4159,1.38901 -5.17175,1.94698 -1.75586,0.55797 -3.6374,0.88057 -5.44276,0.5131 -0.90268,-0.18373 -1.77529,-0.54173 -2.51597,-1.08943 -0.74068,-0.54771 -1.34565,-1.28901 -1.68479,-2.1455 -0.39695,-1.00249 -0.41883,-2.12131 -0.24979,-3.18619 0.16905,-1.06488 0.52041,-2.09079 0.85447,-3.11595 0.33407,-1.02515 0.65419,-2.06448 0.75726,-3.13776 0.10306,-1.07328 -0.0242,-2.1943 -0.54149,-3.1403 -0.39525,-0.72278 -0.99996,-1.31267 -1.66317,-1.80132 -0.66321,-0.48866 -1.3888,-0.88468 -2.10048,-1.29958 -0.71168,-0.41491 -1.41662,-0.85389 -2.02004,-1.4147 -0.60343,-0.56081 -1.1049,-1.25467 -1.32686,-2.04799 z"
       id="path4531"
       inkscape:path-effect="#path-effect4533"
       inkscape:original-d="m 162.11528,239.35403 c -2.37044,-2.18812 3.6467,-6.38099 5.46966,-9.57189 1.82295,-3.19089 -1.09367,-7.65725 -1.6409,-11.48627 -0.54723,-3.82902 5.46992,-12.03297 8.20448,-18.04985 2.73456,-6.01688 13.12743,5.28759 19.69075,7.931 6.56332,2.6434 15.86225,1.45883 23.79299,2.18786 7.93073,0.72902 2.6e-4,11.66885 0,17.50288 -2.7e-4,5.83404 9.48099,16.40923 14.22109,24.61344 4.7401,8.20421 -8.38654,7.29313 -12.5802,10.9393 -4.19366,3.64617 -9.29814,3.82903 -13.94761,5.74314 -4.64947,1.91411 -11.12136,-7.11029 -16.68244,-10.66582 -5.56108,-3.55554 -13.49155,2.6e-4 -20.23772,0 -6.74616,-2.7e-4 0.54723,-8.38654 0.82045,-12.5802 0.27322,-4.19367 -4.7401,-4.37546 -7.11055,-6.56359 z" />
    <path
       style="fill:none;stroke:#000000;stroke-width:0.264583px;stroke-linecap:butt;stroke-linejoin:miter;stroke-opacity:1"
       d="m 182.07952,215.01408 c -1.33503,-0.12447 -2.68242,0.41484 -3.6904,1.29903 -1.00797,0.88419 -1.69853,2.08751 -2.1371,3.35458 -0.87714,2.53414 -0.79018,5.29063 -1.28305,7.92659 -0.46375,2.48021 -1.442,4.85539 -1.7344,7.36158 -0.1462,1.2531 -0.11557,2.54056 0.23567,3.75228 0.35124,1.21171 1.03964,2.346 2.04569,3.10724 1.02669,0.77686 2.3273,1.12774 3.61313,1.1929 1.28583,0.0652 2.5694,-0.13763 3.83491,-0.37448 1.2655,-0.23685 2.52967,-0.50913 3.81489,-0.5853 1.28522,-0.0762 2.60731,0.0529 3.77861,0.58733 1.07723,0.49155 1.98524,1.30938 2.69406,2.25786 0.70883,0.94848 1.2278,2.02634 1.65354,3.13123 0.85148,2.20979 1.353,4.56649 2.48947,6.64414 0.88378,1.61569 2.2027,3.06763 3.92237,3.72663 0.85983,0.32949 1.80632,0.4499 2.71349,0.292 0.90716,-0.15789 1.77083,-0.6014 2.38907,-1.2838 0.56462,-0.62321 0.90886,-1.41854 1.12523,-2.23117 0.21637,-0.81263 0.31358,-1.65127 0.44399,-2.48204 0.13041,-0.83077 0.2972,-1.6648 0.64206,-2.43178 0.34486,-0.76698 0.88356,-1.46938 1.61747,-1.87994 0.44627,-0.24965 0.94985,-0.38407 1.45709,-0.44872 0.50725,-0.0647 1.02052,-0.0617 1.53175,-0.0509 1.02248,0.0215 2.08172,0.0676 3.02778,-0.32081 0.66837,-0.27442 1.24375,-0.75891 1.65538,-1.3527 0.41162,-0.59378 0.6618,-1.29367 0.75301,-2.0104 0.18241,-1.43346 -0.2682,-2.89474 -1.01886,-4.12948 -1.50132,-2.46949 -4.07634,-4.05992 -6.03873,-6.18155 -1.41463,-1.52942 -2.50138,-3.32563 -3.68489,-5.04016 -1.18351,-1.71452 -2.50466,-3.38821 -4.24611,-4.53173 -2.22266,-1.45951 -4.92899,-1.93249 -7.54721,-2.39648 -2.61823,-0.46399 -5.3247,-0.98897 -7.49433,-2.52621 -1.09094,-0.77296 -1.99955,-1.77187 -3.01967,-2.63613 -1.02013,-0.86426 -2.21267,-1.61547 -3.54391,-1.73959 z"
       id="path4648"
       inkscape:path-effect="#path-effect4650"
       inkscape:original-d="m 182.07952,215.01408 c -2.18813,-1.45884 -4.74011,8.38707 -7.11055,12.5802 -2.37045,4.19314 0.3649,9.481 0.54696,14.2211 0.18206,4.7401 10.02796,0.54723 15.04154,0.82045 5.01359,0.27321 4.55831,8.02242 6.83707,12.03323 2.27876,4.01081 6.01688,1.82348 9.02493,2.73483 3.00804,0.91134 2.55277,-6.01636 3.82875,-9.02493 1.27599,-3.00857 4.01135,-0.5467 6.01662,-0.82045 2.00527,-0.27374 -3.0992,-9.11582 -4.6492,-13.67413 -1.55,-4.55831 -5.28707,-6.38099 -7.931,-9.57189 -2.64393,-3.19089 -10.02743,-3.28153 -15.04154,-4.92269 -5.01412,-1.64116 -4.37546,-2.91688 -6.56358,-4.37572 z" />
    <path
       style="font-variation-settings:normal;opacity:0.99;vector-effect:none;fill:#000000;fill-opacity:1;fill-rule:evenodd;stroke:#000000;stroke-width:0.264567;stroke-linecap:butt;stroke-linejoin:round;stroke-miterlimit:4;stroke-dasharray:none;stroke-dashoffset:0;stroke-opacity:1;-inkscape-stroke:none;stop-color:#000000;stop-opacity:1"
       id="path4754"
       sodipodi:type="arc"
       sodipodi:cx="61.063465"
       sodipodi:cy="-237.84988"
       sodipodi:rx="0.68370736"
       sodipodi:ry="0.68369782"
       sodipodi:start="6.1848709"
       sodipodi:end="6.1778721"
       sodipodi:open="true"
       sodipodi:arc-type="arc"
       d="m 61.743871,-237.91699 a 0.68370736,0.68369782 0 0 1 -0.612105,0.74738 0.68370736,0.68369782 0 0 1 -0.748468,-0.61078 0.68370736,0.68369782 0 0 1 0.609487,-0.74953 0.68370736,0.68369782 0 0 1 0.7506,0.60817"
       transform="scale(1,-1)" />
    <path
       style="font-variation-settings:normal;opacity:0.99;vector-effect:none;fill:#000000;fill-opacity:1;fill-rule:evenodd;stroke:#000000;stroke-width:0.264567;stroke-linecap:butt;stroke-linejoin:round;stroke-miterlimit:4;stroke-dasharray:none;stroke-dashoffset:0;stroke-opacity:1;-inkscape-stroke:none;stop-color:#000000;stop-opacity:1"
       id="path4754-6"
       sodipodi:type="arc"
       sodipodi:cx="194.93321"
       sodipodi:cy="-234.43135"
       sodipodi:rx="0.68370736"
       sodipodi:ry="0.68369782"
       sodipodi:start="6.1848709"
       sodipodi:end="6.1778721"
       sodipodi:open="true"
       sodipodi:arc-type="arc"
       transform="scale(1,-1)"
       d="m 195.61362,-234.49846 a 0.68370736,0.68369782 0 0 1 -0.61211,0.74739 0.68370736,0.68369782 0 0 1 -0.74846,-0.61079 0.68370736,0.68369782 0 0 1 0.60948,-0.74953 0.68370736,0.68369782 0 0 1 0.7506,0.60817" />
    <path
       style="font-variation-settings:normal;opacity:0.99;vector-effect:none;fill:#000000;fill-opacity:1;fill-rule:evenodd;stroke:#000000;stroke-width:0.264567;stroke-linecap:butt;stroke-linejoin:round;stroke-miterlimit:4;stroke-dasharray:none;stroke-dashoffset:0;stroke-opacity:1;-inkscape-stroke:none;stop-color:#000000;stop-opacity:1"
       id="path4754-1"
       sodipodi:type="arc"
       sodipodi:cx="7.324131"
       sodipodi:cy="-258.49783"
       sodipodi:rx="0.68370736"
       sodipodi:ry="0.68369782"
       sodipodi:start="6.1848709"
       sodipodi:end="6.1778721"
       sodipodi:open="true"
       sodipodi:arc-type="arc"
       transform="scale(1,-1)"
       d="m 8.0045368,-258.56494 a 0.68370736,0.68369782 0 0 1 -0.6121053,0.74738 0.68370736,0.68369782 0 0 1 -0.7484672,-0.61078 0.68370736,0.68369782 0 0 1 0.6094861,-0.74953 0.68370736,0.68369782 0 0 1 0.7506,0.60817" />
    <text
       xml:space="preserve"
       style="font-size:5.64444px;line-height:1.25;font-family:sans-serif;letter-spacing:0px;word-spacing:0px;stroke-width:0.264583"
       x="6.2302003"
       y="265.60837"
       id="text8068"><tspan
         sodipodi:role="line"
         id="tspan8066"
         style="stroke-width:0.264583"
         x="6.2302003"
         y="265.60837">\(x_0\)</tspan></text>
    <path
       style="fill:none;stroke:#000000;stroke-width:0.264583px;stroke-linecap:butt;stroke-linejoin:miter;stroke-opacity:1"
       d="m 8.0040509,258.5697 c 3.6596651,-10.95263 12.6968121,-19.96356 23.6600321,-23.59139 9.847348,-3.25858 21.05045,-2.16229 30.079301,2.94344"
       id="path10757"
       inkscape:path-effect="#path-effect10759"
       inkscape:original-d="m 8.0040509,258.5697 c 7.8869411,-7.86353 15.7736181,-15.72733 23.6600321,-23.59139 7.886414,-7.86406 20.053133,1.96256 30.079301,2.94344" />
    <text
       xml:space="preserve"
       style="font-size:5.64444px;line-height:1.25;font-family:sans-serif;letter-spacing:0px;word-spacing:0px;stroke-width:0.264583"
       x="33.304977"
       y="244.00323"
       id="text11181"><tspan
         sodipodi:role="line"
         id="tspan11179"
         style="stroke-width:0.264583"
         x="33.304977"
         y="244.00323">\(\gamma\)</tspan></text>
    <text
       xml:space="preserve"
       style="font-size:5.64444px;line-height:1.25;font-family:sans-serif;letter-spacing:0px;word-spacing:0px;stroke-width:0.264583"
       x="68.03727"
       y="235.52528"
       id="text13933"><tspan
         sodipodi:role="line"
         id="tspan13931"
         style="stroke-width:0.264583"
         x="68.03727"
         y="235.52528">\(x\)</tspan></text>
    <path
       style="font-variation-settings:normal;opacity:0.99;vector-effect:none;fill:#000000;fill-opacity:1;fill-rule:evenodd;stroke:#000000;stroke-width:0.264567;stroke-linecap:butt;stroke-linejoin:round;stroke-miterlimit:4;stroke-dasharray:none;stroke-dashoffset:0;stroke-opacity:1;-inkscape-stroke:none;stop-color:#000000;stop-opacity:1"
       id="path4754-5"
       sodipodi:type="arc"
       sodipodi:cx="93.744644"
       sodipodi:cy="-228.41473"
       sodipodi:rx="0.68370736"
       sodipodi:ry="0.68369782"
       sodipodi:start="6.1848709"
       sodipodi:end="6.1778721"
       sodipodi:open="true"
       sodipodi:arc-type="arc"
       transform="scale(1,-1)"
       d="m 94.42505,-228.48184 a 0.68370736,0.68369782 0 0 1 -0.612105,0.74738 0.68370736,0.68369782 0 0 1 -0.748468,-0.61078 0.68370736,0.68369782 0 0 1 0.609487,-0.74953 0.68370736,0.68369782 0 0 1 0.7506,0.60817" />
    <text
       xml:space="preserve"
       style="font-size:5.64444px;line-height:1.25;font-family:sans-serif;letter-spacing:0px;word-spacing:0px;stroke-width:0.264583"
       x="95.932503"
       y="236.89268"
       id="text17149"><tspan
         sodipodi:role="line"
         id="tspan17147"
         style="stroke-width:0.264583"
         x="95.932503"
         y="236.89268">\(x^\prime\)</tspan></text>
    <text
       xml:space="preserve"
       style="font-size:5.64444px;line-height:1.25;font-family:sans-serif;letter-spacing:0px;word-spacing:0px;stroke-width:0.264583"
       x="82.531853"
       y="225.6799"
       id="text18047"><tspan
         sodipodi:role="line"
         id="tspan18045"
         style="stroke-width:0.264583"
         x="82.531853"
         y="225.6799">\(\alpha\)</tspan></text>
    <path
       style="fill:none;stroke:#000000;stroke-width:0.264583px;stroke-linecap:butt;stroke-linejoin:miter;stroke-opacity:1"
       d="m 61.743384,237.92175 c 1.723703,-2.4684 4.18901,-4.41177 6.991664,-5.51145 2.802655,-1.09967 5.931726,-1.35135 8.874115,-0.71378 2.119906,0.45935 4.13851,1.36582 6.290099,1.6409 2.01951,0.2582 4.109772,-0.0627 5.958799,-0.9149 1.849027,-0.85217 3.45089,-2.23283 4.566498,-3.93592"
       id="path18564"
       inkscape:path-effect="#path-effect18566"
       inkscape:original-d="m 61.743384,237.92175 c 5.288857,-2.07481 10.577449,-4.14989 15.865779,-6.22523 5.288328,-2.07534 4.193665,1.0942 6.290099,1.6409 2.096436,0.5467 7.017131,-3.23361 10.525297,-4.85082" />
    <path
       style="font-variation-settings:normal;opacity:0.99;vector-effect:none;fill:#000000;fill-opacity:1;fill-rule:evenodd;stroke:#000000;stroke-width:0.264567;stroke-linecap:butt;stroke-linejoin:round;stroke-miterlimit:4;stroke-dasharray:none;stroke-dashoffset:0;stroke-opacity:1;-inkscape-stroke:none;stop-color:#000000;stop-opacity:1"
       id="path4754-0"
       sodipodi:type="arc"
       sodipodi:cx="170.0463"
       sodipodi:cy="-274.08633"
       sodipodi:rx="0.68370736"
       sodipodi:ry="0.68369782"
       sodipodi:start="6.1848709"
       sodipodi:end="6.1778721"
       sodipodi:open="true"
       sodipodi:arc-type="arc"
       transform="scale(1,-1)"
       d="m 170.7267,-274.15344 a 0.68370736,0.68369782 0 0 1 -0.6121,0.74738 0.68370736,0.68369782 0 0 1 -0.74847,-0.61078 0.68370736,0.68369782 0 0 1 0.60948,-0.74953 0.68370736,0.68369782 0 0 1 0.7506,0.60817" />
    <path
       style="font-variation-settings:normal;opacity:0.99;vector-effect:none;fill:#000000;fill-opacity:1;fill-rule:evenodd;stroke:#000000;stroke-width:0.264567;stroke-linecap:butt;stroke-linejoin:round;stroke-miterlimit:4;stroke-dasharray:none;stroke-dashoffset:0;stroke-opacity:1;-inkscape-stroke:none;stop-color:#000000;stop-opacity:1"
       id="path4754-0-3"
       sodipodi:type="arc"
       sodipodi:cx="212.51442"
       sodipodi:cy="-240.84456"
       sodipodi:rx="0.68370736"
       sodipodi:ry="0.68369782"
       sodipodi:start="6.1848709"
       sodipodi:end="6.1778721"
       sodipodi:open="true"
       sodipodi:arc-type="arc"
       transform="scale(1,-1)"
       d="m 213.19483,-240.91167 a 0.68370736,0.68369782 0 0 1 -0.61211,0.74739 0.68370736,0.68369782 0 0 1 -0.74847,-0.61079 0.68370736,0.68369782 0 0 1 0.60949,-0.74952 0.68370736,0.68369782 0 0 1 0.7506,0.60816" />
    <path
       style="fill:none;stroke:#000000;stroke-width:0.264583px;stroke-linecap:butt;stroke-linejoin:miter;stroke-opacity:1"
       d="m 170.72668,274.15344 c 6.54371,-4.16045 11.53423,-10.70539 13.81418,-18.11696 0.9508,-3.09083 1.44388,-6.35711 1.09393,-9.57189 -0.20657,-1.89768 -0.7029,-3.75532 -0.89843,-5.65417 -0.19553,-1.89885 -0.0631,-3.90961 0.89843,-5.55862 0.98719,-1.69296 2.83812,-2.85052 4.79239,-2.99713 1.95427,-0.14661 3.95719,0.72183 5.18593,2.24855"
       id="path18576"
       inkscape:path-effect="#path-effect18578"
       inkscape:original-d="m 170.72668,274.15344 c 4.60499,-6.03872 9.20971,-12.07771 13.81418,-18.11696 4.60446,-6.03926 0.72955,-6.381 1.09393,-9.57189 0.36438,-3.1909 2.6e-4,-7.47493 0,-11.21279 -2.7e-4,-3.73786 6.65248,-0.49879 9.97832,-0.74858" />
    <path
       style="fill:none;stroke:#000000;stroke-width:0.264583px;stroke-linecap:butt;stroke-linejoin:miter;stroke-opacity:1"
       d="m 195.61311,234.50322 c 0.57946,-1.04958 1.52462,-1.89259 2.63335,-2.34875 1.10874,-0.45616 2.3735,-0.52237 3.5238,-0.18446 1.28921,0.37871 2.38968,1.23216 3.33111,2.19091 0.94142,0.95875 1.75475,2.03616 2.68551,3.00526 1.40969,1.46776 3.08615,2.67853 4.92269,3.55527"
       id="path18580"
       inkscape:path-effect="#path-effect18582"
       inkscape:original-d="m 195.61311,234.50322 c 2.05265,-0.84414 4.10503,-1.68854 6.15715,-2.53321 2.05212,-0.84467 4.01134,3.46437 6.01662,5.19617 2.00527,1.73179 3.28206,2.37044 4.92269,3.55527" />
    <text
       xml:space="preserve"
       style="font-size:5.64444px;line-height:1.25;font-family:sans-serif;letter-spacing:0px;word-spacing:0px;stroke-width:0.264583"
       x="217.90575"
       y="258.49783"
       id="text19070"><tspan
         sodipodi:role="line"
         id="tspan19068"
         style="stroke-width:0.264583"
         x="217.90575"
         y="258.49783">\(f(V)\)</tspan></text>
    <text
       xml:space="preserve"
       style="font-size:5.64444px;line-height:1.25;font-family:sans-serif;letter-spacing:0px;word-spacing:0px;stroke-width:0.264583"
       x="219.54665"
       y="273.2659"
       id="text20562"><tspan
         sodipodi:role="line"
         id="tspan20560"
         style="stroke-width:0.264583"
         x="219.54665"
         y="273.2659">\(ut\)</tspan></text>
    <text
       xml:space="preserve"
       style="font-size:5.64444px;line-height:1.25;font-family:sans-serif;letter-spacing:0px;word-spacing:0px;stroke-width:0.264583"
       x="184.54088"
       y="269.16367"
       id="text21724"><tspan
         sodipodi:role="line"
         id="tspan21722"
         style="stroke-width:0.264583"
         x="184.54088"
         y="269.16367">\(f\gamma\)</tspan></text>
    <text
       xml:space="preserve"
       style="font-size:5.64444px;line-height:1.25;font-family:sans-serif;letter-spacing:0px;word-spacing:0px;stroke-width:0.264583"
       x="210.24823"
       y="232.24348"
       id="text28012"><tspan
         sodipodi:role="line"
         id="tspan28010"
         style="stroke-width:0.264583"
         x="210.24823"
         y="232.24348">\(f\alpha\)</tspan></text>
    <text
       xml:space="preserve"
       style="font-size:5.64444px;line-height:1.25;font-family:sans-serif;letter-spacing:0px;word-spacing:0px;stroke-width:0.264583"
       x="139.68973"
       y="247.01155"
       id="text29068"><tspan
         sodipodi:role="line"
         id="tspan29066"
         style="stroke-width:0.264583"
         x="139.68973"
         y="247.01155">\(f\)</tspan></text>
  </g>
</svg>
