<?xml version="1.0" encoding="UTF-8" standalone="no"?>
<!-- Created with Inkscape (http://www.inkscape.org/) -->

<svg
   width="240mm"
   height="65mm"
   viewBox="0 0 240 65"
   version="1.1"
   id="svg8"
   inkscape:version="1.1.1 (c3084ef, 2021-09-22)"
   sodipodi:docname="rmk:lec17:1.svg"
   xmlns:inkscape="http://www.inkscape.org/namespaces/inkscape"
   xmlns:sodipodi="http://sodipodi.sourceforge.net/DTD/sodipodi-0.dtd"
   xmlns="http://www.w3.org/2000/svg"
   xmlns:svg="http://www.w3.org/2000/svg"
   xmlns:rdf="http://www.w3.org/1999/02/22-rdf-syntax-ns#"
   xmlns:cc="http://creativecommons.org/ns#"
   xmlns:dc="http://purl.org/dc/elements/1.1/">
  <defs
     id="defs2">
    <inkscape:path-effect
       effect="spiro"
       id="path-effect5820"
       is_visible="true"
       lpeversion="1" />
    <inkscape:path-effect
       effect="spiro"
       id="path-effect5783"
       is_visible="true"
       lpeversion="1" />
    <marker
       style="overflow:visible"
       id="Arrow2Lend"
       refX="0"
       refY="0"
       orient="auto"
       inkscape:stockid="Arrow2Lend"
       inkscape:isstock="true">
      <path
         transform="matrix(-1.1,0,0,-1.1,-1.1,0)"
         d="M 8.7185878,4.0337352 -2.2072895,0.01601326 8.7185884,-4.0017078 c -1.7454984,2.3720609 -1.7354408,5.6174519 -6e-7,8.035443 z"
         style="fill:context-stroke;fill-rule:evenodd;stroke:context-stroke;stroke-width:0.625;stroke-linejoin:round"
         id="path4867" />
    </marker>
    <inkscape:path-effect
       effect="spiro"
       id="path-effect4844"
       is_visible="true"
       lpeversion="1" />
    <inkscape:path-effect
       effect="spiro"
       id="path-effect4511"
       is_visible="true"
       lpeversion="1" />
    <inkscape:path-effect
       effect="spiro"
       id="path-effect858"
       is_visible="true"
       lpeversion="1" />
  </defs>
  <sodipodi:namedview
     id="base"
     pagecolor="#ffffff"
     bordercolor="#666666"
     borderopacity="1.0"
     inkscape:pageopacity="0.0"
     inkscape:pageshadow="2"
     inkscape:zoom="0.7686164"
     inkscape:cx="413.73044"
     inkscape:cy="228.98289"
     inkscape:document-units="mm"
     inkscape:current-layer="layer1"
     showgrid="false"
     showborder="true"
     width="200mm"
     showguides="true"
     inkscape:guide-bbox="true"
     inkscape:window-width="985"
     inkscape:window-height="512"
     inkscape:window-x="0"
     inkscape:window-y="38"
     inkscape:window-maximized="0"
     inkscape:pagecheckerboard="0">
    <inkscape:grid
       type="xygrid"
       id="grid815"
       units="mm"
       spacingx="10"
       spacingy="10"
       empspacing="4"
       dotted="false" />
  </sodipodi:namedview>
  <metadata
     id="metadata5">
    <rdf:RDF>
      <cc:Work
         rdf:about="">
        <dc:format>image/svg+xml</dc:format>
        <dc:type
           rdf:resource="http://purl.org/dc/dcmitype/StillImage" />
      </cc:Work>
    </rdf:RDF>
  </metadata>
  <g
     inkscape:label="Layer 1"
     inkscape:groupmode="layer"
     id="layer1"
     transform="translate(0,-177)">
    <path
       style="fill:none;stroke:#000000;stroke-width:0.264583px;stroke-linecap:butt;stroke-linejoin:miter;stroke-opacity:1"
       d="m 86.155934,181.50165 c 11.638166,2.3831 23.383906,6.34793 35.122606,4.52337 4.43022,-0.68859 8.69164,-2.18851 13.07348,-3.13749 4.38183,-0.94897 9.05557,-1.3232 13.26846,0.21061 2.95224,1.07484 5.58617,3.10972 7.1743,5.82059 1.58813,2.71087 2.06654,6.09893 1.0742,9.07991 -0.82513,2.47868 -2.61789,4.58351 -4.82478,5.98148 -2.20689,1.39797 -4.80701,2.11376 -7.41492,2.267 -4.44917,0.26143 -8.83195,-1.05813 -13.02656,-2.56435 -4.1946,-1.50623 -8.3662,-3.2272 -12.78323,-3.82157 -4.65136,-0.6259 -9.38465,0.0275 -13.96757,1.03936 -4.58291,1.01182 -9.086548,2.38197 -13.70478,3.21792 -3.08947,0.55923 -6.242665,0.87756 -9.371492,0.6168 -3.128828,-0.26076 -6.242636,-1.12001 -8.905643,-2.78313 -2.663006,-1.66311 -4.851148,-4.16694 -5.852316,-7.14272 -0.500584,-1.48788 -0.701616,-3.08022 -0.546009,-4.64233 0.155607,-1.56211 0.670976,-3.09191 1.526469,-4.40816 0.949437,-1.4608 2.303889,-2.63949 3.832457,-3.47545 1.528568,-0.83596 3.227835,-1.33671 4.953884,-1.57358 3.452099,-0.47374 6.957821,0.0927 10.371444,0.79174 z"
       id="path856"
       inkscape:path-effect="#path-effect858"
       inkscape:original-d="m 86.155934,181.50165 c 6.385664,-1.41935 23.415336,3.01585 35.122606,4.52337 11.70726,1.50752 17.56156,-1.95099 26.34194,-2.92688 8.78039,-0.9759 5.49926,9.93393 8.2485,14.9005 2.74923,4.96656 -8.15954,5.49925 -12.2397,8.24848 -4.08016,2.74924 -17.20626,-4.25701 -25.80979,-6.38592 -8.60353,-2.12891 -18.44797,2.83845 -27.67235,4.25728 -9.224383,1.41883 -15.432397,-12.23943 -23.148991,-18.35954 -7.716594,-6.12011 12.772122,-2.83793 19.157785,-4.25729 z" />
    <text
       xml:space="preserve"
       style="font-size:5.64444px;line-height:1.25;font-family:sans-serif;letter-spacing:0px;word-spacing:0px;stroke-width:0.264583"
       x="81.901733"
       y="201.54596"
       id="text1140"><tspan
         sodipodi:role="line"
         id="tspan1138"
         style="stroke-width:0.264583"
         x="81.901733"
         y="201.54596">\(\widetilde{x}_0\)</tspan></text>
    <text
       xml:space="preserve"
       style="font-size:5.64444px;line-height:1.25;font-family:sans-serif;letter-spacing:0px;word-spacing:0px;stroke-width:0.264583"
       x="136.35558"
       y="201.91554"
       id="text1224"><tspan
         sodipodi:role="line"
         id="tspan1222"
         style="stroke-width:0.264583"
         x="136.35558"
         y="201.91554">\(\widetilde{x}_1\)</tspan></text>
    <path
       style="fill:none;stroke:#ff0000;stroke-width:0.264583px;stroke-linecap:butt;stroke-linejoin:miter;stroke-opacity:1"
       d="m 83.380561,194.40473 c 4.964168,3.20395 11.279881,4.23309 17.004399,2.77084 3.80152,-0.97105 7.25252,-2.95403 10.68068,-4.86248 3.42817,-1.90845 6.9554,-3.78925 10.80968,-4.52345 3.26366,-0.6217 6.68716,-0.38369 9.8334,0.68364 3.14623,1.06733 6.0079,2.9615 8.21962,5.44067"
       id="path4509"
       inkscape:path-effect="#path-effect4511"
       inkscape:original-d="m 83.380561,194.40473 c 5.668399,0.92388 11.336533,1.84749 17.004399,2.77084 5.66787,0.92335 13.60591,-7.29128 21.49036,-9.38593 7.88446,-2.09464 12.75687,5.1174 18.05302,6.12431"
       sodipodi:nodetypes="cssc" />
    <text
       xml:space="preserve"
       style="font-size:5.64444px;line-height:1.25;font-family:sans-serif;letter-spacing:0px;word-spacing:0px;stroke-width:0.264583"
       x="114.36507"
       y="197.18967"
       id="text4669"><tspan
         sodipodi:role="line"
         style="stroke-width:0.264583"
         id="tspan4671"
         x="114.36507"
         y="197.18967">\(\widetilde{\gamma}\)</tspan></text>
    <path
       style="fill:none;stroke:#000000;stroke-width:0.264583px;stroke-linecap:butt;stroke-linejoin:miter;stroke-opacity:1;marker-end:url(#Arrow2Lend)"
       d="m 113.31495,204.57337 v 14.29105"
       id="path4842"
       inkscape:path-effect="#path-effect4844"
       inkscape:original-d="m 113.31495,204.57337 c 2.7e-4,4.76395 2.7e-4,9.52763 0,14.29105" />
    <text
       xml:space="preserve"
       style="font-size:5.64444px;line-height:1.25;font-family:sans-serif;letter-spacing:0px;word-spacing:0px;stroke-width:0.264583"
       x="115.16293"
       y="214.05968"
       id="text5666"><tspan
         sodipodi:role="line"
         id="tspan5664"
         style="stroke-width:0.264583"
         x="115.16293"
         y="214.05968">\(p\)</tspan></text>
    <path
       style="fill:none;stroke:#000000;stroke-width:0.264583px;stroke-linecap:butt;stroke-linejoin:miter;stroke-opacity:1"
       d="m 111.13791,225.51225 c -2.13746,0.8831 -4.27881,1.84967 -6.57007,2.16383 -2.4254,0.33255 -4.902112,-0.084 -7.334435,0.19343 -1.216161,0.1387 -2.429077,0.45844 -3.47541,1.09364 -1.046332,0.63519 -1.916754,1.60823 -2.275621,2.77849 -0.264555,0.86271 -0.242072,1.80451 0.02266,2.66717 0.264735,0.86265 0.766189,1.64585 1.40906,2.27907 1.285742,1.26645 3.091819,1.90429 4.889589,2.06251 3.595534,0.31646 7.101704,-1.12674 10.696224,-1.45451 3.22956,-0.29449 6.4723,0.31743 9.61979,1.09849 3.27981,0.81389 6.58985,1.82332 9.96314,1.62199 1.68664,-0.10067 3.37252,-0.51532 4.83578,-1.36016 1.46326,-0.84485 2.69274,-2.13904 3.31129,-3.71139 0.69209,-1.75929 0.57965,-3.78422 -0.14091,-5.53205 -0.72055,-1.74782 -2.01651,-3.22522 -3.55505,-4.32385 -3.0354,-2.16749 -6.94034,-2.86453 -10.65725,-2.55432 -3.71691,0.31021 -7.29158,1.55344 -10.73879,2.97766 z"
       id="path5781"
       inkscape:path-effect="#path-effect5783"
       inkscape:original-d="m 111.13791,225.51225 c -7.06366,1.10853 -4.31116,2.41049 -6.57007,2.16383 -2.25891,-0.24666 -11.319354,2.71064 -13.085466,4.06556 -1.766112,1.35492 13.157566,4.48678 17.017536,5.55424 3.85996,1.06745 7.19715,-0.0511 9.61979,1.09849 2.42265,1.14959 12.07374,-2.29945 18.11021,-3.44956 6.03648,-1.15012 -2.46371,-6.57034 -3.69596,-9.8559 -1.23225,-3.28557 -14.33238,-0.68518 -21.39604,0.42334 z"
       sodipodi:nodetypes="ssssssss" />
    <path
       style="fill:none;stroke:#f30000;stroke-width:0.264583px;stroke-linecap:butt;stroke-linejoin:miter;stroke-opacity:1"
       d="m 122.28576,232.6684 c -3.30409,0.0497 -6.61743,-0.69684 -9.58093,-2.15875 -1.6021,-0.79033 -3.16237,-1.80495 -4.93873,-1.99437 -0.88819,-0.0947 -1.81792,0.0345 -2.59051,0.4828 -0.38629,0.22414 -0.72913,0.5262 -0.98683,0.89096 -0.2577,0.36476 -0.4288,0.79266 -0.47743,1.23661 -0.0799,0.7291 0.1778,1.47457 0.6333,2.04945 0.4555,0.57488 1.09645,0.9864 1.78545,1.23788 1.378,0.50296 2.89349,0.38281 4.35718,0.28543 2.35401,-0.15662 4.72113,-0.23776 7.04259,-0.65813 1.62634,-0.2945 3.22258,-0.75495 4.75591,-1.37188"
       id="path5818"
       inkscape:path-effect="#path-effect5820"
       inkscape:original-d="m 122.28576,232.6684 c 1.43706,-0.53413 -6.50069,-1.37823 -9.58093,-2.15875 -3.08023,-0.78052 -5.9954,0.41093 -8.9935,0.616 -2.9981,0.20506 4.51755,2.3821 6.77593,3.57276 2.25838,1.19065 4.66101,-0.57573 7.04259,-0.65813 2.38158,-0.0824 3.20519,-0.77708 4.75591,-1.37188"
       sodipodi:nodetypes="cssssc" />
    <path
       style="font-variation-settings:normal;opacity:0.99;vector-effect:none;fill:#000000;fill-opacity:1;fill-rule:evenodd;stroke:none;stroke-width:0.264567;stroke-linecap:butt;stroke-linejoin:round;stroke-miterlimit:4;stroke-dasharray:none;stroke-dashoffset:0;stroke-opacity:1;-inkscape-stroke:none;stop-color:#000000;stop-opacity:1"
       id="path1034"
       sodipodi:type="arc"
       sodipodi:cx="139.84492"
       sodipodi:cy="-193.8492"
       sodipodi:rx="0.61599362"
       sodipodi:ry="0.616"
       sodipodi:start="6.1848709"
       sodipodi:end="6.1778721"
       sodipodi:open="true"
       sodipodi:arc-type="arc"
       d="m 140.45794,-193.90966 a 0.61599362,0.616 0 0 1 -0.55148,0.67338 0.61599362,0.616 0 0 1 -0.67434,-0.55031 0.61599362,0.616 0 0 1 0.54912,-0.67531 0.61599362,0.616 0 0 1 0.67627,0.54795"
       transform="scale(1,-1)" />
    <path
       style="font-variation-settings:normal;opacity:0.99;vector-effect:none;fill:#000000;fill-opacity:1;fill-rule:evenodd;stroke:none;stroke-width:0.264567;stroke-linecap:butt;stroke-linejoin:round;stroke-miterlimit:4;stroke-dasharray:none;stroke-dashoffset:0;stroke-opacity:1;-inkscape-stroke:none;stop-color:#000000;stop-opacity:1"
       id="path1034-3"
       sodipodi:type="arc"
       sodipodi:cx="122.80172"
       sodipodi:cy="-232.80969"
       sodipodi:rx="0.61599362"
       sodipodi:ry="0.616"
       sodipodi:start="6.1848709"
       sodipodi:end="6.1778721"
       sodipodi:open="true"
       sodipodi:arc-type="arc"
       transform="scale(1,-1)"
       d="m 123.41474,-232.87016 a 0.61599362,0.616 0 0 1 -0.55148,0.67339 0.61599362,0.616 0 0 1 -0.67434,-0.55031 0.61599362,0.616 0 0 1 0.54912,-0.67531 0.61599362,0.616 0 0 1 0.67626,0.54794" />
    <text
       xml:space="preserve"
       style="font-size:5.64444px;line-height:1.25;font-family:sans-serif;letter-spacing:0px;word-spacing:0px;stroke-width:0.264583"
       x="122.7423"
       y="238.25063"
       id="text6391"><tspan
         sodipodi:role="line"
         id="tspan6389"
         style="stroke-width:0.264583"
         x="122.7423"
         y="238.25063">\(x_0\)</tspan></text>
    <text
       xml:space="preserve"
       style="font-size:5.64444px;line-height:1.25;font-family:sans-serif;letter-spacing:0px;word-spacing:0px;stroke-width:0.264583"
       x="113.98647"
       y="229.58978"
       id="text7109"><tspan
         sodipodi:role="line"
         id="tspan7107"
         style="stroke-width:0.264583"
         x="113.98647"
         y="229.58978">\(\gamma\)</tspan></text>
    <text
       xml:space="preserve"
       style="font-size:5.64444px;line-height:1.25;font-family:sans-serif;letter-spacing:0px;word-spacing:0px;stroke-width:0.264583"
       x="145.95985"
       y="235.02637"
       id="text7109-1"><tspan
         sodipodi:role="line"
         id="tspan7107-8"
         style="stroke-width:0.264583"
         x="145.95985"
         y="235.02637">\(\gamma = p\circ \widetilde{\gamma}\)</tspan></text>
    <path
       style="font-variation-settings:normal;opacity:0.99;vector-effect:none;fill:#000000;fill-opacity:1;fill-rule:evenodd;stroke:none;stroke-width:0.264567;stroke-linecap:butt;stroke-linejoin:round;stroke-miterlimit:4;stroke-dasharray:none;stroke-dashoffset:0;stroke-opacity:1;-inkscape-stroke:none;stop-color:#000000;stop-opacity:1"
       id="path906"
       sodipodi:type="arc"
       sodipodi:cx="83.134964"
       sodipodi:cy="194.3427"
       sodipodi:rx="0.61599362"
       sodipodi:ry="0.61599362"
       sodipodi:start="6.1848709"
       sodipodi:end="6.1778721"
       sodipodi:open="true"
       sodipodi:arc-type="arc"
       d="m 83.747983,194.28223 a 0.61599362,0.61599362 0 0 1 -0.551483,0.67338 0.61599362,0.61599362 0 0 1 -0.67434,-0.5503 0.61599362,0.61599362 0 0 1 0.549124,-0.67531 0.61599362,0.61599362 0 0 1 0.676261,0.54794" />
  </g>
</svg>
