<?xml version="1.0" encoding="UTF-8" standalone="no"?>
<!-- Created with Inkscape (http://www.inkscape.org/) -->

<svg
   width="240mm"
   height="80mm"
   viewBox="0 0 240 80"
   version="1.1"
   id="svg8"
   inkscape:version="1.1.1 (c3084ef, 2021-09-22)"
   sodipodi:docname="thm:seifert-van-kampen-theorem.svg"
   xmlns:inkscape="http://www.inkscape.org/namespaces/inkscape"
   xmlns:sodipodi="http://sodipodi.sourceforge.net/DTD/sodipodi-0.dtd"
   xmlns="http://www.w3.org/2000/svg"
   xmlns:svg="http://www.w3.org/2000/svg"
   xmlns:rdf="http://www.w3.org/1999/02/22-rdf-syntax-ns#"
   xmlns:cc="http://creativecommons.org/ns#"
   xmlns:dc="http://purl.org/dc/elements/1.1/">
  <defs
     id="defs2">
    <inkscape:path-effect
       effect="spiro"
       id="path-effect1353"
       is_visible="true"
       lpeversion="1" />
    <inkscape:path-effect
       effect="spiro"
       id="path-effect1233"
       is_visible="true"
       lpeversion="1" />
    <inkscape:path-effect
       effect="spiro"
       id="path-effect1194"
       is_visible="true"
       lpeversion="1" />
    <inkscape:path-effect
       effect="spiro"
       id="path-effect1190"
       is_visible="true"
       lpeversion="1" />
    <inkscape:path-effect
       effect="spiro"
       id="path-effect979"
       is_visible="true"
       lpeversion="1" />
    <inkscape:path-effect
       effect="spiro"
       id="path-effect862"
       is_visible="true"
       lpeversion="1" />
    <inkscape:path-effect
       effect="spiro"
       id="path-effect858"
       is_visible="true"
       lpeversion="1" />
  </defs>
  <sodipodi:namedview
     id="base"
     pagecolor="#ffffff"
     bordercolor="#666666"
     borderopacity="1.0"
     inkscape:pageopacity="0.0"
     inkscape:pageshadow="2"
     inkscape:zoom="0.27791704"
     inkscape:cx="420.98894"
     inkscape:cy="-118.74047"
     inkscape:document-units="mm"
     inkscape:current-layer="layer1"
     showgrid="false"
     showborder="true"
     width="200mm"
     showguides="true"
     inkscape:guide-bbox="true"
     inkscape:window-width="985"
     inkscape:window-height="512"
     inkscape:window-x="0"
     inkscape:window-y="361"
     inkscape:window-maximized="0"
     inkscape:pagecheckerboard="0"
     height="80mm">
    <inkscape:grid
       type="xygrid"
       id="grid815"
       units="mm"
       spacingx="10"
       spacingy="10"
       empspacing="4"
       dotted="false" />
  </sodipodi:namedview>
  <metadata
     id="metadata5">
    <rdf:RDF>
      <cc:Work
         rdf:about="">
        <dc:format>image/svg+xml</dc:format>
        <dc:type
           rdf:resource="http://purl.org/dc/dcmitype/StillImage" />
      </cc:Work>
    </rdf:RDF>
  </metadata>
  <g
     inkscape:label="Layer 1"
     inkscape:groupmode="layer"
     id="layer1"
     transform="translate(0,-177)">
    <path
       style="fill:none;stroke:#000000;stroke-width:0.264583px;stroke-linecap:butt;stroke-linejoin:miter;stroke-opacity:1"
       d="m 71.958723,195.05275 c -3.427268,2.56258 -6.42914,5.7246 -8.634744,9.39179 -2.205604,3.66719 -3.600487,7.84649 -3.834906,12.11943 -0.23442,4.27294 0.715769,8.63257 2.883752,12.32212 2.167982,3.68955 5.57203,6.67532 9.585898,8.15918 5.019793,1.85573 10.635992,1.30896 15.789111,-0.13583 5.153118,-1.44479 10.02583,-3.74223 15.111046,-5.41035 11.0039,-3.60964 23.2551,-4.1432 34.0694,0 7.18557,2.75295 13.57723,7.4659 20.99626,9.50774 5.95681,1.63942 12.44286,1.43395 18.20492,-0.79538 5.76206,-2.22932 10.74774,-6.50776 13.62729,-11.97397 2.87954,-5.4662 3.5773,-12.0886 1.68669,-17.97051 -1.8906,-5.8819 -6.40022,-10.91374 -12.12649,-13.23344 -3.23418,-1.31016 -6.77005,-1.76522 -10.2585,-1.6804 -3.48845,0.0848 -6.94385,0.69561 -10.34999,1.45365 -6.81229,1.51609 -13.61709,3.64208 -20.59171,3.39599 -7.1339,-0.25171 -13.92477,-2.97009 -20.49204,-5.76774 -6.56727,-2.79765 -13.21467,-5.74921 -20.312017,-6.51309 -8.93641,-0.96182 -18.155621,1.74859 -25.35397,7.13081 z"
       id="path856"
       inkscape:path-effect="#path-effect858"
       inkscape:original-d="m 71.958723,195.05275 c -8.451588,2.37667 2.64e-4,27.99528 0,41.99252 -2.65e-4,13.99724 20.600368,-3.69719 30.900157,-5.54618 10.29978,-1.84899 22.7132,2.6e-4 34.0694,0 11.3562,-2.7e-4 13.99777,6.33876 20.99626,9.50774 6.99849,3.16898 14.26187,-29.31527 21.39241,-43.9733 7.13055,-14.65803 -27.46654,2.11309 -41.2002,3.16924 -13.73367,1.05616 -27.20244,-8.18695 -40.804057,-12.28083 -13.60161,-4.09387 -16.90238,4.75414 -25.35397,7.13081 z" />
    <path
       style="fill:none;stroke:#000000;stroke-width:0.264583px;stroke-linecap:butt;stroke-linejoin:miter;stroke-opacity:1"
       d="m 77.504905,214.47305 c 3.712678,2.56107 8.110793,4.11841 12.607836,4.46434 4.497043,0.34592 9.081596,-0.52044 13.142289,-2.48356 1.38834,-0.67118 2.71601,-1.46779 3.96156,-2.37694"
       id="path860"
       inkscape:path-effect="#path-effect862"
       inkscape:original-d="m 77.504905,214.47305 c 8.583642,0.66052 17.167019,1.32078 25.750125,1.98078 8.58312,0.65999 2.64131,-1.58436 3.96156,-2.37694" />
    <path
       style="fill:none;stroke:#000000;stroke-width:0.264583px;stroke-linecap:butt;stroke-linejoin:miter;stroke-opacity:1"
       d="m 82.459297,217.18399 c 3.930976,-2.69306 9.012026,-3.64227 13.650146,-2.55003 1.972186,0.46443 3.86087,1.28116 5.550057,2.40003"
       id="path977"
       inkscape:path-effect="#path-effect979"
       inkscape:original-d="m 82.459297,217.18399 c 4.550314,-0.84974 9.100365,-1.69975 13.650146,-2.55003 4.549787,-0.85027 3.70031,1.60029 5.550057,2.40003" />
    <path
       style="fill:none;stroke:#000000;stroke-width:0.264583px;stroke-linecap:butt;stroke-linejoin:miter;stroke-opacity:1"
       d="m 144.85286,213.74998 c 3.71268,2.56107 8.11079,4.11841 12.60784,4.46434 4.49704,0.34592 9.0816,-0.52044 13.14229,-2.48356 1.38834,-0.67118 2.71601,-1.46779 3.96156,-2.37694"
       id="path860-7"
       inkscape:path-effect="#path-effect1190"
       inkscape:original-d="m 144.85286,213.74998 c 8.58364,0.66052 17.16702,1.32078 25.75013,1.98078 8.58312,0.65999 2.64131,-1.58436 3.96156,-2.37694" />
    <path
       style="fill:none;stroke:#000000;stroke-width:0.264583px;stroke-linecap:butt;stroke-linejoin:miter;stroke-opacity:1"
       d="m 149.80725,216.46092 c 3.93098,-2.69306 9.01203,-3.64227 13.65015,-2.55003 1.97219,0.46443 3.86087,1.28116 5.55006,2.40003"
       id="path977-0"
       inkscape:path-effect="#path-effect1194"
       inkscape:original-d="m 149.80725,216.46092 c 4.55032,-0.84974 9.10037,-1.69975 13.65015,-2.55003 4.54979,-0.85027 3.70031,1.60029 5.55006,2.40003" />
    <path
       style="fill:none;stroke:#000000;stroke-width:0.264583px;stroke-linecap:butt;stroke-linejoin:miter;stroke-opacity:1"
       d="m 124.60976,197.53378 c -4.75502,7.25071 -7.00974,16.10854 -6.30007,24.75027 0.17572,2.13972 0.52729,4.26497 1.05001,6.34729"
       id="path1231"
       inkscape:path-effect="#path-effect1233"
       inkscape:original-d="m 124.60976,197.53378 c -2.09976,8.25035 -4.19978,16.50044 -6.30007,24.75027 -2.10029,8.24983 0.70027,4.34753 1.05001,6.34729"
       sodipodi:nodetypes="csc" />
    <path
       style="fill:none;stroke:#000000;stroke-width:0.264583px;stroke-linecap:butt;stroke-linejoin:miter;stroke-opacity:1"
       d="m 137.45123,200.17911 c -5.09366,7.0726 -7.39233,16.10307 -6.30007,24.75027 0.2198,1.74014 0.57113,3.46364 1.05001,5.15097"
       id="path1231-7"
       inkscape:path-effect="#path-effect1353"
       inkscape:original-d="m 137.45123,200.17911 c -2.09976,8.25035 -4.19978,16.50044 -6.30007,24.75027 -2.10029,8.24983 0.70027,3.15121 1.05001,5.15097"
       sodipodi:nodetypes="csc" />
    <text
       xml:space="preserve"
       style="font-size:5.64444px;line-height:1.25;font-family:sans-serif;letter-spacing:0px;word-spacing:0px;stroke-width:0.264583"
       x="89.324661"
       y="242.88033"
       id="text1707"><tspan
         sodipodi:role="line"
         id="tspan1705"
         style="stroke-width:0.264583"
         x="89.324661"
         y="242.88033">\(A\)</tspan></text>
    <text
       xml:space="preserve"
       style="font-size:5.64444px;line-height:1.25;font-family:sans-serif;letter-spacing:0px;word-spacing:0px;stroke-width:0.264583"
       x="153.84912"
       y="248.24149"
       id="text1707-8"><tspan
         sodipodi:role="line"
         id="tspan1705-1"
         style="stroke-width:0.264583"
         x="153.84912"
         y="248.24149">\(B\)</tspan></text>
    <text
       xml:space="preserve"
       style="font-size:5.64444px;line-height:1.25;font-family:sans-serif;letter-spacing:0px;word-spacing:0px;stroke-width:0.264583"
       x="122.10846"
       y="219.02077"
       id="text3168"><tspan
         sodipodi:role="line"
         id="tspan3166"
         style="stroke-width:0.264583"
         x="122.10846"
         y="219.02077">\(x_0\)</tspan></text>
    <path
       style="font-variation-settings:normal;opacity:0.99;vector-effect:none;fill:#000000;fill-opacity:1;fill-rule:evenodd;stroke:#000000;stroke-width:0.264567;stroke-linecap:butt;stroke-linejoin:round;stroke-miterlimit:4;stroke-dasharray:none;stroke-dashoffset:0;stroke-opacity:1;-inkscape-stroke:none;stop-color:#000000;stop-opacity:1"
       id="path3272"
       sodipodi:type="arc"
       sodipodi:cx="127.01795"
       sodipodi:cy="212.56236"
       sodipodi:rx="0.6982038"
       sodipodi:ry="0.6982038"
       sodipodi:start="6.1848709"
       sodipodi:end="6.1778721"
       sodipodi:open="true"
       sodipodi:arc-type="arc"
       d="m 127.71278,212.49383 a 0.6982038,0.6982038 0 0 1 -0.62508,0.76324 0.6982038,0.6982038 0 0 1 -0.76434,-0.62374 0.6982038,0.6982038 0 0 1 0.62241,-0.76543 0.6982038,0.6982038 0 0 1 0.76652,0.62107" />
  </g>
</svg>
