<?xml version="1.0" encoding="UTF-8" standalone="no"?>
<!-- Created with Inkscape (http://www.inkscape.org/) -->

<svg
   width="240mm"
   height="120mm"
   viewBox="0 0 240 120"
   version="1.1"
   id="svg8"
   inkscape:version="1.1.1 (c3084ef, 2021-09-22)"
   sodipodi:docname="pf:inner-regularity-unbounded.svg"
   xmlns:inkscape="http://www.inkscape.org/namespaces/inkscape"
   xmlns:sodipodi="http://sodipodi.sourceforge.net/DTD/sodipodi-0.dtd"
   xmlns="http://www.w3.org/2000/svg"
   xmlns:svg="http://www.w3.org/2000/svg"
   xmlns:rdf="http://www.w3.org/1999/02/22-rdf-syntax-ns#"
   xmlns:cc="http://creativecommons.org/ns#"
   xmlns:dc="http://purl.org/dc/elements/1.1/">
  <defs
     id="defs2">
    <inkscape:path-effect
       effect="spiro"
       id="path-effect2139"
       is_visible="true"
       lpeversion="1" />
    <inkscape:path-effect
       effect="spiro"
       id="path-effect1180"
       is_visible="true"
       lpeversion="1" />
  </defs>
  <sodipodi:namedview
     id="base"
     pagecolor="#ffffff"
     bordercolor="#666666"
     borderopacity="1.0"
     inkscape:pageopacity="0.0"
     inkscape:pageshadow="2"
     inkscape:zoom="1.0273235"
     inkscape:cx="170.34556"
     inkscape:cy="119.72859"
     inkscape:document-units="mm"
     inkscape:current-layer="layer1"
     showgrid="false"
     showborder="true"
     width="200mm"
     showguides="true"
     inkscape:guide-bbox="true"
     inkscape:window-width="985"
     inkscape:window-height="512"
     inkscape:window-x="0"
     inkscape:window-y="38"
     inkscape:window-maximized="0"
     inkscape:pagecheckerboard="0">
    <inkscape:grid
       type="xygrid"
       id="grid815"
       units="mm"
       spacingx="10"
       spacingy="10"
       empspacing="4"
       dotted="false" />
  </sodipodi:namedview>
  <metadata
     id="metadata5">
    <rdf:RDF>
      <cc:Work
         rdf:about="">
        <dc:format>image/svg+xml</dc:format>
        <dc:type
           rdf:resource="http://purl.org/dc/dcmitype/StillImage" />
      </cc:Work>
    </rdf:RDF>
  </metadata>
  <g
     inkscape:label="Layer 1"
     inkscape:groupmode="layer"
     id="layer1"
     transform="translate(0,-177)">
    <path
       style="fill:none;stroke:#000000;stroke-width:0.264583px;stroke-linecap:butt;stroke-linejoin:miter;stroke-opacity:1"
       d="m 38.109112,183.66909 c 2.688412,1.38627 5.592054,2.35415 8.574547,2.85818 1.107149,0.1871 2.224004,0.31061 3.334549,0.47637 3.091831,0.46147 6.136093,1.25213 9.050914,2.38182 4.418593,1.7125 8.630041,4.22516 13.338189,4.76364 3.31501,0.37915 6.66702,0 10.003641,0 h 19.054558 c 4.32567,-0.11359 8.66659,0.36873 12.86182,1.42909 5.60893,1.41767 10.95828,3.86094 16.67273,4.76364 3.80053,0.60036 7.67083,0.50371 11.51718,0.60384 3.84635,0.10013 7.75117,0.41227 11.34829,1.77798 1.99354,0.75688 3.85232,1.82261 5.71637,2.85818 5.86419,3.25785 11.91244,6.28719 17.1491,10.48001 1.97776,1.58353 3.84118,3.33979 5.30836,5.40533 1.46718,2.06555 2.52858,4.46004 2.78982,6.98013 0.1966,1.89657 -0.0599,3.81057 0,5.71636 0.05,1.59185 0.31934,3.20334 0,4.76364 -0.31479,1.53808 -1.17514,2.89752 -1.90545,4.28728 -0.82599,1.57184 -1.50075,3.222 -2.38182,4.76364 -3.21315,5.6222 -8.99809,9.42333 -15.14179,11.46988 -6.14371,2.04655 -12.68791,2.51771 -19.15641,2.82103 -2.63545,0.12358 -5.28766,0.22126 -7.9028,-0.12788 -2.61515,-0.34913 -5.21388,-1.16925 -7.34085,-2.7303 -2.67898,-1.96618 -4.45683,-5.03462 -5.12392,-8.29004 -0.66709,-3.25542 -0.27099,-6.67876 0.83665,-9.81179 0.46939,-1.32769 1.06587,-2.61738 1.37031,-3.9923 0.15222,-0.68746 0.22988,-1.39522 0.17645,-2.0973 -0.0534,-0.70208 -0.24106,-1.39934 -0.59403,-2.00859 -0.45404,-0.7837 -1.15998,-1.39106 -1.90546,-1.90545 -3.18225,-2.19581 -7.14722,-2.88685 -10.99258,-3.28869 -3.84537,-0.40184 -7.77991,-0.58439 -11.39652,-1.95131 -4.841107,-1.82972 -8.665974,-5.61197 -12.049752,-9.52786 -3.383778,-3.9159 -6.534658,-8.11793 -10.665703,-11.23541 -4.87525,-3.67909 -10.806278,-5.61792 -16.598522,-7.55535 -5.792245,-1.93744 -11.700612,-4.00876 -16.420594,-7.88504 -1.131472,-0.92922 -2.183093,-1.95384 -3.334549,-2.85818 -1.852902,-1.45524 -3.957854,-2.58868 -6.192728,-3.33455 z"
       id="path1178"
       inkscape:path-effect="#path-effect1180"
       inkscape:original-d="m 38.109112,183.66909 c 3.31307,-0.40687 5.679728,2.06869 8.574547,2.85818 1.083239,0.29543 2.236671,0.24111 3.334549,0.47637 2.374173,0.50875 6.68129,1.67093 9.050914,2.38182 4.418143,1.32544 8.691399,4.14406 13.338189,4.76364 3.134582,0.41794 6.829559,0 10.003641,0 h 19.054558 c 4.91421,-0.86075 8.84924,0.0897 12.86182,1.42909 5.49554,1.99837 10.7233,4.36701 16.67273,4.76364 7.53636,0.50242 15.58712,-0.13761 22.86547,2.38182 2.01317,0.69686 3.79579,1.93631 5.71637,2.85818 6.31248,3.02999 11.69651,6.04978 17.1491,10.48001 3.82921,3.11123 7.09739,7.38147 8.09818,12.38546 0.37369,1.86845 0,3.81091 0,5.71636 0,1.58788 0.32712,3.20982 0,4.76364 -0.32217,1.53034 -1.23598,2.87394 -1.90545,4.28728 -0.75999,1.6044 -1.37934,3.29846 -2.38182,4.76364 -7.32253,10.70216 -22.17662,13.84196 -34.2982,14.29091 -5.3343,0.19757 -10.90833,0.81016 -15.24365,-2.85818 -5.67642,-4.80313 -4.59275,-11.38126 -4.28727,-18.10183 0.0545,-1.19799 1.81915,-6.58195 0.95273,-8.09819 -0.44565,-0.77989 -1.27031,-1.2703 -1.90546,-1.90545 -6.75822,-6.75822 -13.87259,-1.65255 -22.3891,-5.24 -8.439635,-3.55507 -14.279427,-17.28961 -22.715455,-20.76327 -15.335836,-5.76711 -25.665825,-4.135 -33.019116,-15.44039 -0.829754,-1.24463 -2.367925,-1.89156 -3.334549,-2.85818 -2.212191,-2.2122 -2.673905,-3.33455 -6.192728,-3.33455 z"
       sodipodi:nodetypes="csssssccsssssssscsscssscccc" />
    <path
       style="font-variation-settings:normal;opacity:0.99;fill:none;fill-opacity:1;fill-rule:evenodd;stroke:#000000;stroke-width:0.265;stroke-linecap:butt;stroke-linejoin:round;stroke-miterlimit:4;stroke-dasharray:none;stroke-dashoffset:0;stroke-opacity:1;stop-color:#000000;stop-opacity:1"
       id="path1204"
       sodipodi:type="arc"
       sodipodi:cx="132.55682"
       sodipodi:cy="235.36777"
       sodipodi:rx="16.910917"
       sodipodi:ry="16.910917"
       sodipodi:start="6.1848709"
       sodipodi:end="6.1778721"
       sodipodi:open="true"
       sodipodi:arc-type="arc"
       d="m 149.38608,233.70786 a 16.910917,16.910917 0 0 1 -15.1399,18.48623 16.910917,16.910917 0 0 1 -18.5127,-15.10753 16.910917,16.910917 0 0 1 15.07512,-18.5391 16.910917,16.910917 0 0 1 18.56545,15.04266" />
    <path
       style="font-variation-settings:normal;opacity:0.99;fill:none;fill-opacity:1;fill-rule:evenodd;stroke:#000000;stroke-width:0.265;stroke-linecap:butt;stroke-linejoin:round;stroke-miterlimit:4;stroke-dasharray:none;stroke-dashoffset:0;stroke-opacity:1;stop-color:#000000;stop-opacity:1"
       id="path1308"
       sodipodi:type="arc"
       sodipodi:cx="133.90434"
       sodipodi:cy="234.08142"
       sodipodi:rx="36.441837"
       sodipodi:ry="36.441837"
       sodipodi:start="6.1848709"
       sodipodi:end="6.1778721"
       sodipodi:open="true"
       sodipodi:arc-type="arc"
       d="m 170.1702,230.50443 a 36.441837,36.441837 0 0 1 -32.62542,39.83654 36.441837,36.441837 0 0 1 -39.893559,-32.55567 36.441837,36.441837 0 0 1 32.485819,-39.95046 36.441837,36.441837 0 0 1 40.00724,32.41587" />
    <path
       style="font-variation-settings:normal;opacity:0.99;fill:none;fill-opacity:1;fill-rule:evenodd;stroke:#000000;stroke-width:0.265;stroke-linecap:butt;stroke-linejoin:round;stroke-miterlimit:4;stroke-dasharray:none;stroke-dashoffset:0;stroke-opacity:1;stop-color:#000000;stop-opacity:1"
       id="path1422"
       sodipodi:type="arc"
       sodipodi:cx="132.00237"
       sodipodi:cy="236.50366"
       sodipodi:rx="55.399956"
       sodipodi:ry="55.399956"
       sodipodi:start="6.1848709"
       sodipodi:end="6.1778721"
       sodipodi:open="true"
       sodipodi:arc-type="arc"
       d="M 187.1348,231.06582 A 55.399956,55.399956 0 0 1 137.53667,291.62649 55.399956,55.399956 0 0 1 76.889301,242.1344 55.399956,55.399956 0 0 1 126.2752,181.40053 55.399956,55.399956 0 0 1 187.09539,230.68009" />
    <path
       style="fill:none;stroke:#ff0000;stroke-width:0.264583px;stroke-linecap:butt;stroke-linejoin:miter;stroke-opacity:1"
       d="m 45.843234,223.61588 c -0.330895,-8.72105 1.774718,-17.52183 6.016911,-25.14875 4.242194,-7.62693 10.608621,-14.05779 18.192438,-18.37657 1.502034,-0.85537 3.050319,-1.62951 4.635833,-2.31792"
       id="path2137"
       inkscape:path-effect="#path-effect2139"
       inkscape:original-d="m 45.843234,223.61588 c 8.241744,-11.24593 15.968134,-32.27887 24.209349,-43.52532 8.241215,-11.24646 3.09082,-1.54502 4.635833,-2.31792"
       sodipodi:nodetypes="csc" />
    <text
       xml:space="preserve"
       style="font-size:5.64444px;line-height:1.25;font-family:sans-serif;letter-spacing:0px;word-spacing:0px;stroke-width:0.264583"
       x="31.163099"
       y="199.66406"
       id="text2403"><tspan
         sodipodi:role="line"
         id="tspan2401"
         style="stroke-width:0.264583"
         x="31.163099"
         y="199.66406">\(\epsilon\)</tspan></text>
  </g>
</svg>
