<?xml version="1.0" encoding="UTF-8" standalone="no"?>
<!-- Created with Inkscape (http://www.inkscape.org/) -->

<svg
   width="240mm"
   height="40mm"
   viewBox="0 0 240 40"
   version="1.1"
   id="svg8"
   inkscape:version="1.3 (0e150ed, 2023-07-21)"
   sodipodi:docname="coordinate-chart.svg"
   xmlns:inkscape="http://www.inkscape.org/namespaces/inkscape"
   xmlns:sodipodi="http://sodipodi.sourceforge.net/DTD/sodipodi-0.dtd"
   xmlns="http://www.w3.org/2000/svg"
   xmlns:svg="http://www.w3.org/2000/svg"
   xmlns:rdf="http://www.w3.org/1999/02/22-rdf-syntax-ns#"
   xmlns:cc="http://creativecommons.org/ns#"
   xmlns:dc="http://purl.org/dc/elements/1.1/">
  <defs
     id="defs2">
    <inkscape:path-effect
       effect="spiro"
       id="path-effect608"
       is_visible="true"
       lpeversion="1" />
    <inkscape:path-effect
       effect="spiro"
       id="path-effect448"
       is_visible="true"
       lpeversion="1" />
    <inkscape:path-effect
       effect="spiro"
       id="path-effect377"
       is_visible="true"
       lpeversion="1" />
    <inkscape:path-effect
       effect="spiro"
       id="path-effect360"
       is_visible="true"
       lpeversion="1" />
    <inkscape:path-effect
       effect="spiro"
       id="path-effect339"
       is_visible="true"
       lpeversion="1" />
    <inkscape:path-effect
       effect="spiro"
       id="path-effect85"
       is_visible="true"
       lpeversion="1" />
    <inkscape:path-effect
       effect="spiro"
       id="path-effect81"
       is_visible="true"
       lpeversion="1" />
    <inkscape:path-effect
       effect="spiro"
       id="path-effect77"
       is_visible="true"
       lpeversion="1" />
    <inkscape:path-effect
       effect="spiro"
       id="path-effect73"
       is_visible="true"
       lpeversion="1" />
    <marker
       id="marker-arrow-1"
       orient="auto-start-reverse"
       refY="0"
       refX="0"
       markerHeight="3"
       markerWidth="2">
      <g
         transform="scale(1.3933333)"
         id="g343"><path
   d="M -1.55415,2.0722 C -1.42464,1.29512 0,0.1295 0.38852,0 0,-0.1295 -1.42464,-1.29512 -1.55415,-2.0722"
   style="fill:none;stroke:#000000;stroke-linecap:round;stroke-linejoin:round;stroke-miterlimit:10;stroke-dasharray:none;stroke-opacity:1"
   id="path341" />
&#10;&#10;0&quot; /&gt;&#10;   </g>
    </marker>
    <marker
       id="marker-arrow-1-3"
       orient="auto-start-reverse"
       refY="0"
       refX="0"
       markerHeight="3"
       markerWidth="2">
      <g
         transform="scale(1.3933333)"
         id="g364"><path
   d="M -1.55415,2.0722 C -1.42464,1.29512 0,0.1295 0.38852,0 0,-0.1295 -1.42464,-1.29512 -1.55415,-2.0722"
   style="fill:none;stroke:#000000;stroke-linecap:round;stroke-linejoin:round;stroke-miterlimit:10;stroke-dasharray:none;stroke-opacity:1"
   id="path362" />
&#10;&#10;0&quot; /&gt;&#10;   </g>
    </marker>
    <marker
       id="marker-arrow-1-38"
       orient="auto-start-reverse"
       refY="0"
       refX="0"
       markerHeight="3"
       markerWidth="2">
      <g
         transform="scale(1.3933333)"
         id="g381"><path
   d="M -1.55415,2.0722 C -1.42464,1.29512 0,0.1295 0.38852,0 0,-0.1295 -1.42464,-1.29512 -1.55415,-2.0722"
   style="fill:none;stroke:#000000;stroke-linecap:round;stroke-linejoin:round;stroke-miterlimit:10;stroke-dasharray:none;stroke-opacity:1"
   id="path379" />
&#10;&#10;0&quot; /&gt;&#10;   </g>
    </marker>
  </defs>
  <sodipodi:namedview
     id="base"
     pagecolor="#ffffff"
     bordercolor="#666666"
     borderopacity="1.0"
     inkscape:pageopacity="0.0"
     inkscape:pageshadow="2"
     inkscape:zoom="2.5072848"
     inkscape:cx="258.84574"
     inkscape:cy="88.741415"
     inkscape:document-units="mm"
     inkscape:current-layer="layer1"
     showgrid="false"
     showborder="true"
     width="200mm"
     showguides="true"
     inkscape:guide-bbox="true"
     inkscape:window-width="1280"
     inkscape:window-height="680"
     inkscape:window-x="1728"
     inkscape:window-y="355"
     inkscape:window-maximized="0"
     inkscape:showpageshadow="2"
     inkscape:pagecheckerboard="0"
     inkscape:deskcolor="#d1d1d1">
    <inkscape:grid
       type="xygrid"
       id="grid815"
       units="mm"
       spacingx="10"
       spacingy="10"
       empspacing="4"
       dotted="false"
       originx="0"
       originy="0"
       visible="false" />
  </sodipodi:namedview>
  <metadata
     id="metadata5">
    <rdf:RDF>
      <cc:Work
         rdf:about="">
        <dc:format>image/svg+xml</dc:format>
        <dc:type
           rdf:resource="http://purl.org/dc/dcmitype/StillImage" />
      </cc:Work>
    </rdf:RDF>
  </metadata>
  <g
     inkscape:label="Layer 1"
     inkscape:groupmode="layer"
     id="layer1"
     transform="translate(0,-177)">
    <path
       style="fill:none;stroke:#000000;stroke-width:0.264583px;stroke-linecap:butt;stroke-linejoin:miter;stroke-opacity:1"
       d="m 65.808285,194.10397 c 6.292278,0.14868 12.683824,-0.3187 18.625621,-2.39473 6.899845,-2.41077 12.874554,-6.86664 19.423864,-10.11105 5.84175,-2.8939 12.41743,-4.84223 18.86015,-3.84623 3.22136,0.49801 6.35199,1.7466 8.89843,3.78149 2.54645,2.03489 4.48273,4.87561 5.2354,8.04715 0.88051,3.71019 0.097,7.72106 -1.82229,11.01607 -1.91931,3.29501 -4.91301,5.89462 -8.29253,7.66088 -6.75905,3.5325 -14.72853,3.7573 -22.347,3.40772 -9.338907,-0.42852 -18.833417,-1.58858 -27.938432,0.53216 -4.518758,1.05251 -8.852606,2.8991 -13.446428,3.55006 -2.29691,0.32548 -4.659101,0.3435 -6.916185,-0.19251 -2.257085,-0.536 -4.408615,-1.65034 -5.97934,-3.35755 -1.126567,-1.22446 -1.93585,-2.73606 -2.344464,-4.34897 -0.408614,-1.61291 -0.417173,-3.32385 -0.039,-4.94417 0.756339,-3.24064 3.099912,-6.04808 6.108592,-7.46992 1.833589,-0.86652 3.867717,-1.23657 5.89184,-1.36237 2.024123,-0.12579 4.054313,-0.0159 6.081776,0.032 z"
       id="path71"
       inkscape:path-effect="#path-effect73"
       inkscape:original-d="m 65.808285,194.10397 c 3.99094,-0.44373 12.417345,-1.59622 18.625621,-2.39473 6.208279,-0.7985 12.949507,-6.74043 19.423864,-10.11105 6.47436,-3.37061 21.99625,5.32187 32.99398,7.98241 10.99772,2.66054 -21.64095,14.72338 -32.46182,22.08467 -10.820864,7.36129 -18.625358,0.35504 -27.938432,0.53216 -9.313076,0.17712 -17.561038,2.7e-4 -26.341953,0 -8.780916,-2.6e-4 2.483681,-11.17511 3.725124,-16.76306 1.241444,-5.58795 7.982675,-0.88667 11.973616,-1.3304 z" />
    <g
       id="g1"
       transform="matrix(0.58849936,0,0,0.58849936,21.409792,84.343384)"
       style="fill:none;fill-opacity:1;stroke:#000000;stroke-width:0.44959;stroke-dasharray:none;stroke-opacity:1;marker-start:none;marker-end:none">
      <path
         style="fill:none;fill-opacity:1;stroke:#000000;stroke-width:0.44959;stroke-linecap:butt;stroke-linejoin:miter;stroke-dasharray:none;stroke-opacity:1;marker-start:none;marker-end:none"
         d="m 55.431151,207.67406 c 3.573091,1.87825 7.683908,2.7191 11.707535,2.39473 4.030494,-0.32492 7.960008,-1.81806 11.189239,-4.25168 3.229231,-2.43363 5.747348,-5.79958 7.170305,-9.5845"
         id="path75"
         inkscape:path-effect="#path-effect77"
         inkscape:original-d="m 55.431151,207.67406 c 3.814083,0.79851 7.805289,1.59675 11.707535,2.39473 3.902247,0.79797 12.239959,-9.22386 18.359544,-13.83618" />
      <path
         style="fill:none;fill-opacity:1;stroke:#000000;stroke-width:0.44959;stroke-linecap:butt;stroke-linejoin:miter;stroke-dasharray:none;stroke-opacity:1;marker-start:none;marker-end:none"
         d="m 63.712012,210.00923 c 1.260998,-2.9295 3.660839,-5.35107 6.578855,-6.63842 3.272538,-1.44376 7.158254,-1.4266 10.417915,0.046"
         id="path79"
         inkscape:path-effect="#path-effect81"
         inkscape:original-d="m 63.712012,210.00923 c 1.41936,-1.68492 5.160024,-4.95298 6.578855,-6.63842 1.418831,-1.68544 5.362653,0.31231 10.417915,0.046"
         sodipodi:nodetypes="csc" />
    </g>
    <text
       xml:space="preserve"
       style="font-size:4.9389px;line-height:1.25;font-family:sans-serif;-inkscape-font-specification:'sans-serif, Normal';text-decoration-color:#000000;letter-spacing:0px;word-spacing:0px;fill:#000000;stroke-width:0.264583;-inkscape-stroke:none;stop-color:#000000"
       x="122.48338"
       y="187.71809"
       id="text285"><tspan
         sodipodi:role="line"
         id="tspan283"
         style="stroke-width:0.264583"
         x="122.48338"
         y="187.71809">\(U\)</tspan></text>
    <path
       style="fill:none;fill-opacity:1;stroke:#000000;stroke-width:0.264583;stroke-linecap:butt;stroke-linejoin:miter;stroke-dasharray:none;stroke-opacity:1;marker-start:none;marker-end:url(#marker-arrow-1)"
       d="m 131.98009,190.3646 c 6.79691,-2.5104 14.48952,-2.5104 21.28643,0 2.65123,0.97922 5.16622,2.32653 7.45024,3.9912"
       id="path337"
       inkscape:path-effect="#path-effect339"
       inkscape:original-d="m 131.98009,190.3646 c 7.00705,2.6e-4 14.19122,2.6e-4 21.28643,0 7.09521,-2.7e-4 4.96709,2.66107 7.45024,3.9912" />
    <text
       xml:space="preserve"
       style="font-size:4.9389px;line-height:1.25;font-family:sans-serif;-inkscape-font-specification:'sans-serif, Normal';text-decoration-color:#000000;letter-spacing:0px;word-spacing:0px;fill:#000000;stroke-width:0.264583;-inkscape-stroke:none;stop-color:#000000"
       x="145.49673"
       y="187.16716"
       id="text356"><tspan
         sodipodi:role="line"
         id="tspan354"
         style="stroke-width:0.264583"
         x="145.49673"
         y="187.16716">\(\varphi\)</tspan></text>
    <path
       style="fill:none;fill-opacity:1;stroke:#000000;stroke-width:0.264583;stroke-linecap:butt;stroke-linejoin:miter;stroke-dasharray:none;stroke-opacity:1;marker-start:none;marker-end:url(#marker-arrow-1)"
       d="m 160.26682,200.75597 h 34.59044"
       id="path358"
       inkscape:path-effect="#path-effect360"
       inkscape:original-d="m 160.26682,200.75597 c 11.35302,2.7e-4 23.06056,2.7e-4 34.59044,0" />
    <path
       style="fill:none;fill-opacity:1;stroke:#000000;stroke-width:0.264583;stroke-linecap:butt;stroke-linejoin:miter;stroke-dasharray:none;stroke-opacity:1;marker-start:none;marker-end:url(#marker-arrow-1)"
       d="M 177.02988,211.1331 V 183.99291"
       id="path375"
       inkscape:path-effect="#path-effect377"
       inkscape:original-d="m 177.02988,211.1331 c 2.7e-4,-8.95777 2.7e-4,-18.09319 0,-27.14019" />
    <path
       style="fill:#000000;fill-opacity:0.12;stroke:#000000;stroke-width:0.264583;stroke-linecap:butt;stroke-linejoin:miter;stroke-dasharray:0.79375, 0.79375;stroke-opacity:1;marker-start:none;marker-end:none"
       d="m 170.64395,191.44316 c -1.08536,0.0725 -2.14538,0.47087 -3.01634,1.12255 -0.87096,0.65168 -1.55081,1.55336 -1.9479,2.56606 -0.39709,1.01271 -0.51149,2.1331 -0.33806,3.20696 0.17343,1.07386 0.63308,2.09879 1.3111,2.9494 0.96034,1.20479 2.31915,2.03071 3.72512,2.66081 1.60999,0.72154 3.31185,1.2172 4.9417,1.89269 1.62984,0.67549 3.22083,1.55902 4.37111,2.89675 0.39698,0.46167 0.73636,0.97166 1.14929,1.41912 0.41293,0.44746 0.91815,0.83904 1.51152,0.9756 0.47587,0.10952 0.98623,0.045 1.42993,-0.15888 0.44371,-0.20391 0.82056,-0.54333 1.08934,-0.95101 0.26878,-0.40769 0.43116,-0.88174 0.4923,-1.36621 0.0611,-0.48448 0.0226,-0.97915 -0.0897,-1.45439 -0.22454,-0.95046 -0.73625,-1.81007 -1.32542,-2.58897 -0.58917,-0.7789 -1.26076,-1.49202 -1.86257,-2.26119 -1.70825,-2.1833 -2.82453,-4.77777 -4.49594,-6.9894 -0.8357,-1.10581 -1.81824,-2.11878 -2.99674,-2.84841 -1.1785,-0.72964 -2.56578,-1.16382 -3.94878,-1.07148 z"
       id="path446"
       inkscape:path-effect="#path-effect448"
       inkscape:original-d="m 170.64395,191.44316 c -3.81408,-3.6367 -2.66054,6.56358 -3.9912,9.84497 -1.33067,3.2814 2.48368,1.77414 3.72512,2.66081 1.24145,0.88667 6.20881,3.19322 9.31281,4.78944 3.10401,1.59622 1.77414,1.59675 2.66081,2.39472 0.88667,0.79798 -0.17713,-5.8535 -0.26608,-8.78065 -0.089,-2.92714 -7.62737,-7.27259 -11.44146,-10.90929 z" />
    <path
       style="fill:#000000;fill-opacity:0.12;stroke:#000000;stroke-width:0.264583;stroke-linecap:butt;stroke-linejoin:miter;stroke-dasharray:0.79375, 0.79375;stroke-opacity:1;marker-start:none;marker-end:none"
       d="m 108.9133,197.56301 c 0.4952,0.15417 1.0245,0.17112 1.54085,0.12239 0.51636,-0.0487 1.02417,-0.16135 1.53294,-0.26211 0.50876,-0.10076 1.02294,-0.19016 1.54159,-0.19144 0.51865,-0.001 1.04565,0.0893 1.50447,0.33116 0.68456,0.36081 1.15842,1.02203 1.52979,1.70092 0.37136,0.67888 0.6694,1.40316 1.13102,2.02421 0.5095,0.68548 1.21042,1.2247 1.99796,1.55523 0.78755,0.33052 1.65936,0.45309 2.50915,0.36743 1.69957,-0.17131 3.26986,-1.19166 4.21166,-2.61676 0.94181,-1.42509 1.26836,-3.21966 1.00183,-4.90693 -0.26654,-1.68726 -1.10396,-3.26206 -2.27035,-4.51003 -1.66424,-1.78064 -3.98181,-2.8976 -6.39156,-3.263 -2.40975,-0.3654 -4.90241,-0.003 -7.17854,0.86828 -0.94094,0.36031 -1.8553,0.8103 -2.65329,1.42544 -0.79799,0.61515 -1.47794,1.40318 -1.87468,2.32935 -0.39674,0.92617 -0.49479,1.9957 -0.17501,2.95117 0.15989,0.47774 0.42202,0.92249 0.77224,1.28462 0.35023,0.36214 0.78892,0.64031 1.26993,0.79007 z"
       id="path606"
       inkscape:path-effect="#path-effect608"
       inkscape:original-d="m 108.9133,197.56301 c -0.8872,2.92662 3.90278,0.7985 6.11985,0 2.21708,-0.79851 1.95152,1.68544 2.66081,3.72513 0.70928,2.03968 4.34624,-6.74044 7.45025,-10.11106 3.10401,-3.37061 -8.42562,-1.59621 -13.5701,-2.39472 -5.14449,-0.7985 -1.77361,5.85403 -2.66081,8.78065 z"
       sodipodi:nodetypes="ssssss" />
    <text
       xml:space="preserve"
       style="font-size:4.9389px;line-height:1.25;font-family:sans-serif;-inkscape-font-specification:'sans-serif, Normal';text-decoration-color:#000000;letter-spacing:0px;word-spacing:0px;fill:#000000;stroke-width:0.264583;-inkscape-stroke:none;stop-color:#000000"
       x="179.71049"
       y="195.99466"
       id="text196"><tspan
         sodipodi:role="line"
         id="tspan194"
         style="stroke-width:0.264583"
         x="179.71049"
         y="195.99466">\(U'\)</tspan></text>
  </g>
</svg>
