<?xml version="1.0" encoding="UTF-8" standalone="no"?>
<!-- Created with Inkscape (http://www.inkscape.org/) -->

<svg
   width="240mm"
   height="38mm"
   viewBox="0 0 240 38"
   version="1.1"
   id="svg8"
   inkscape:version="1.2.2 (b0a84865, 2022-12-01)"
   sodipodi:docname="cylinder-circle-bundle.svg"
   xmlns:inkscape="http://www.inkscape.org/namespaces/inkscape"
   xmlns:sodipodi="http://sodipodi.sourceforge.net/DTD/sodipodi-0.dtd"
   xmlns="http://www.w3.org/2000/svg"
   xmlns:svg="http://www.w3.org/2000/svg"
   xmlns:rdf="http://www.w3.org/1999/02/22-rdf-syntax-ns#"
   xmlns:cc="http://creativecommons.org/ns#"
   xmlns:dc="http://purl.org/dc/elements/1.1/">
  <defs
     id="defs2">
    <inkscape:path-effect
       effect="spiro"
       id="path-effect2908"
       is_visible="true"
       lpeversion="1" />
    <inkscape:path-effect
       effect="spiro"
       id="path-effect2873"
       is_visible="true"
       lpeversion="1" />
    <inkscape:path-effect
       effect="spiro"
       id="path-effect1754"
       is_visible="true"
       lpeversion="1" />
    <inkscape:path-effect
       effect="spiro"
       id="path-effect1748"
       is_visible="true"
       lpeversion="1" />
    <marker
       id="marker-arrow-1"
       orient="auto-start-reverse"
       refY="0"
       refX="0"
       markerHeight="3"
       markerWidth="2">
      <g
         transform="scale(1.3933333)"
         id="g2877"><path
   d="M -1.55415,2.0722 C -1.42464,1.29512 0,0.1295 0.38852,0 0,-0.1295 -1.42464,-1.29512 -1.55415,-2.0722"
   style="fill:none;stroke:#000000;stroke-linecap:round;stroke-linejoin:round;stroke-miterlimit:10;stroke-dasharray:none;stroke-opacity:1"
   id="path2875" />
0&quot; /&gt;
   </g>
    </marker>
    <marker
       id="marker-arrow-1-4"
       orient="auto-start-reverse"
       refY="0"
       refX="0"
       markerHeight="3"
       markerWidth="2">
      <g
         transform="scale(1.3933333)"
         id="g2921"><path
   d="M -1.55415,2.0722 C -1.42464,1.29512 0,0.1295 0.38852,0 0,-0.1295 -1.42464,-1.29512 -1.55415,-2.0722"
   style="fill:none;stroke:#000000;stroke-linecap:round;stroke-linejoin:round;stroke-miterlimit:10;stroke-dasharray:none;stroke-opacity:1"
   id="path2919" />
0&quot; /&gt;
   </g>
    </marker>
  </defs>
  <sodipodi:namedview
     id="base"
     pagecolor="#ffffff"
     bordercolor="#666666"
     borderopacity="1.0"
     inkscape:pageopacity="0.0"
     inkscape:pageshadow="2"
     inkscape:zoom="2.3539424"
     inkscape:cx="417.17248"
     inkscape:cy="-1.4868673"
     inkscape:document-units="mm"
     inkscape:current-layer="layer1"
     showgrid="false"
     showborder="true"
     width="200mm"
     showguides="true"
     inkscape:guide-bbox="true"
     inkscape:window-width="2560"
     inkscape:window-height="1387"
     inkscape:window-x="1728"
     inkscape:window-y="355"
     inkscape:window-maximized="0"
     inkscape:showpageshadow="2"
     inkscape:pagecheckerboard="0"
     inkscape:deskcolor="#d1d1d1">
    <inkscape:grid
       type="xygrid"
       id="grid815"
       units="mm"
       spacingx="10"
       spacingy="10"
       empspacing="4"
       dotted="false"
       originx="0"
       originy="0" />
  </sodipodi:namedview>
  <metadata
     id="metadata5">
    <rdf:RDF>
      <cc:Work
         rdf:about="">
        <dc:format>image/svg+xml</dc:format>
        <dc:type
           rdf:resource="http://purl.org/dc/dcmitype/StillImage" />
      </cc:Work>
    </rdf:RDF>
  </metadata>
  <g
     inkscape:label="Layer 1"
     inkscape:groupmode="layer"
     id="layer1"
     transform="translate(0,-177)">
    <path
       style="font-variation-settings:normal;opacity:1;vector-effect:none;fill:none;fill-opacity:1;fill-rule:evenodd;stroke:#000000;stroke-width:0.264583;stroke-linecap:butt;stroke-linejoin:miter;stroke-miterlimit:4;stroke-dasharray:none;stroke-dashoffset:0;stroke-opacity:1;-inkscape-stroke:none;marker-start:none;marker-end:none;stop-color:#000000;stop-opacity:1"
       id="path1627"
       sodipodi:type="arc"
       sodipodi:cx="120.00289"
       sodipodi:cy="211.74638"
       sodipodi:rx="19.791626"
       sodipodi:ry="2.8386397"
       sodipodi:start="6.192023"
       sodipodi:end="3.1151219"
       sodipodi:open="true"
       sodipodi:arc-type="arc"
       d="m 139.71233,211.48797 a 19.791626,2.8386397 0 0 1 -8.64562,2.61209 19.791626,2.8386397 0 0 1 -20.12522,0.16997 19.791626,2.8386397 0 0 1 -10.72329,-2.44851" />
    <path
       style="fill:none;stroke:#000000;stroke-width:0.264583px;stroke-linecap:butt;stroke-linejoin:miter;stroke-opacity:1"
       d="m 100.21126,179.99635 v 31.75003"
       id="path1746"
       inkscape:path-effect="#path-effect1748"
       inkscape:original-d="m 100.21126,179.99635 c 2.7e-4,10.58361 2.7e-4,21.16695 0,31.75003" />
    <path
       style="fill:none;stroke:#000000;stroke-width:0.264583px;stroke-linecap:butt;stroke-linejoin:miter;stroke-opacity:1"
       d="m 139.79452,179.99635 v 31.75003"
       id="path1750"
       inkscape:path-effect="#path-effect1754"
       inkscape:original-d="m 139.79452,179.99635 c 2.7e-4,10.58361 2.7e-4,21.16695 0,31.75003" />
    <path
       style="font-variation-settings:normal;opacity:1;vector-effect:none;fill:none;fill-opacity:1;fill-rule:evenodd;stroke:#000000;stroke-width:0.264583;stroke-linecap:butt;stroke-linejoin:miter;stroke-miterlimit:4;stroke-dasharray:none;stroke-dashoffset:0;stroke-opacity:1;-inkscape-stroke:none;marker-start:none;marker-end:none;stop-color:#000000;stop-opacity:1"
       id="path1756"
       sodipodi:type="arc"
       sodipodi:cx="120.00289"
       sodipodi:cy="195.87137"
       sodipodi:rx="19.791626"
       sodipodi:ry="2.8386397"
       sodipodi:start="0.17197024"
       sodipodi:end="0.16401113"
       sodipodi:open="true"
       sodipodi:arc-type="arc"
       d="m 139.50258,196.35713 a 19.791626,2.8386397 0 0 1 -22.8477,2.31197 19.791626,2.8386397 0 0 1 -16.165,-3.27236 19.791626,2.8386397 0 0 1 22.78337,-2.32499 19.791626,2.8386397 0 0 1 16.25567,3.2631" />
    <text
       xml:space="preserve"
       style="font-size:4.9389px;line-height:1.25;font-family:sans-serif;-inkscape-font-specification:'sans-serif, Normal';text-decoration-color:#000000;letter-spacing:0px;word-spacing:0px;fill:#000000;stroke-width:0.264583;-inkscape-stroke:none;stop-color:#000000"
       x="94.165794"
       y="181.97388"
       id="text1818"><tspan
         sodipodi:role="line"
         id="tspan1816"
         style="stroke-width:0.264583"
         x="94.165794"
         y="181.97388">\(E\)</tspan></text>
    <text
       xml:space="preserve"
       style="font-size:4.9389px;line-height:1.25;font-family:sans-serif;-inkscape-font-specification:'sans-serif, Normal';text-decoration-color:#000000;letter-spacing:0px;word-spacing:0px;fill:#000000;stroke-width:0.264583;-inkscape-stroke:none;stop-color:#000000"
       x="141.17226"
       y="197.25078"
       id="text1822"><tspan
         sodipodi:role="line"
         id="tspan1820"
         style="stroke-width:0.264583"
         x="141.17226"
         y="197.25078">\(\mathcal{M}\)</tspan></text>
    <path
       style="font-variation-settings:normal;opacity:1;vector-effect:none;fill:#000000;fill-opacity:1;fill-rule:evenodd;stroke:none;stroke-width:0.264583;stroke-linecap:butt;stroke-linejoin:miter;stroke-miterlimit:4;stroke-dasharray:none;stroke-dashoffset:0;stroke-opacity:1;-inkscape-stroke:none;marker-start:none;marker-end:none;stop-color:#000000;stop-opacity:1"
       id="path1876"
       sodipodi:type="arc"
       sodipodi:cx="131.5903"
       sodipodi:cy="188.06187"
       sodipodi:rx="0.57613963"
       sodipodi:ry="0.57613963"
       sodipodi:start="0.17197024"
       sodipodi:end="0.16401113"
       sodipodi:open="true"
       sodipodi:arc-type="arc"
       d="m 132.15794,188.16047 a 0.57613963,0.57613963 0 0 1 -0.6651,0.46924 0.57613963,0.57613963 0 0 1 -0.47057,-0.66417 0.57613963,0.57613963 0 0 1 0.66323,-0.47189 0.57613963,0.57613963 0 0 1 0.47321,0.66229" />
    <path
       style="font-variation-settings:normal;vector-effect:none;fill:#000000;fill-opacity:1;fill-rule:evenodd;stroke:none;stroke-width:0.264583;stroke-linecap:butt;stroke-linejoin:miter;stroke-miterlimit:4;stroke-dasharray:none;stroke-dashoffset:0;stroke-opacity:1;-inkscape-stroke:none;marker-start:none;marker-end:none;stop-color:#000000"
       id="path1876-5"
       sodipodi:type="arc"
       sodipodi:cx="115.86169"
       sodipodi:cy="198.59268"
       sodipodi:rx="0.57613963"
       sodipodi:ry="0.57613963"
       sodipodi:start="0.17197024"
       sodipodi:end="0.16401113"
       sodipodi:open="true"
       sodipodi:arc-type="arc"
       d="m 116.42933,198.69127 a 0.57613963,0.57613963 0 0 1 -0.6651,0.46925 0.57613963,0.57613963 0 0 1 -0.47057,-0.66417 0.57613963,0.57613963 0 0 1 0.66323,-0.47189 0.57613963,0.57613963 0 0 1 0.4732,0.66229" />
    <path
       style="font-variation-settings:normal;vector-effect:none;fill:#000000;fill-opacity:1;fill-rule:evenodd;stroke:none;stroke-width:0.264583;stroke-linecap:butt;stroke-linejoin:miter;stroke-miterlimit:4;stroke-dasharray:none;stroke-dashoffset:0;stroke-opacity:1;-inkscape-stroke:none;marker-start:none;marker-end:none;stop-color:#000000"
       id="path1876-58"
       sodipodi:type="arc"
       sodipodi:cx="119.77944"
       sodipodi:cy="188.17711"
       sodipodi:rx="0.57613963"
       sodipodi:ry="0.57613963"
       sodipodi:start="0.17197024"
       sodipodi:end="0.16401113"
       sodipodi:open="true"
       sodipodi:arc-type="arc"
       d="m 120.34708,188.2757 a 0.57613963,0.57613963 0 0 1 -0.6651,0.46925 0.57613963,0.57613963 0 0 1 -0.47057,-0.66417 0.57613963,0.57613963 0 0 1 0.66323,-0.47189 0.57613963,0.57613963 0 0 1 0.47321,0.66229" />
    <path
       style="font-variation-settings:normal;vector-effect:none;fill:#000000;fill-opacity:1;fill-rule:evenodd;stroke:none;stroke-width:0.264583;stroke-linecap:butt;stroke-linejoin:miter;stroke-miterlimit:4;stroke-dasharray:none;stroke-dashoffset:0;stroke-opacity:1;-inkscape-stroke:none;marker-start:none;marker-end:none;stop-color:#000000"
       id="path1876-2"
       sodipodi:type="arc"
       sodipodi:cx="130.26518"
       sodipodi:cy="198.29456"
       sodipodi:rx="0.57613963"
       sodipodi:ry="0.57613963"
       sodipodi:start="0.17197024"
       sodipodi:end="0.16401113"
       sodipodi:open="true"
       sodipodi:arc-type="arc"
       d="m 130.83282,198.39315 a 0.57613963,0.57613963 0 0 1 -0.6651,0.46924 0.57613963,0.57613963 0 0 1 -0.47057,-0.66417 0.57613963,0.57613963 0 0 1 0.66323,-0.47188 0.57613963,0.57613963 0 0 1 0.47321,0.66229" />
    <path
       style="font-variation-settings:normal;opacity:1;vector-effect:none;fill:none;fill-opacity:1;fill-rule:evenodd;stroke:#000000;stroke-width:0.264583;stroke-linecap:butt;stroke-linejoin:miter;stroke-miterlimit:4;stroke-dasharray:0.79375, 0.79375;stroke-dashoffset:0;stroke-opacity:1;-inkscape-stroke:none;marker-start:none;marker-end:none;stop-color:#000000;stop-opacity:1"
       id="path2705"
       sodipodi:type="arc"
       sodipodi:cx="120.00289"
       sodipodi:cy="211.74638"
       sodipodi:rx="19.791626"
       sodipodi:ry="2.8386397"
       sodipodi:start="3.0821023"
       sodipodi:end="0.006674935"
       sodipodi:arc-type="arc"
       d="m 100.24628,211.91516 a 19.791626,2.8386397 0 0 1 9.22624,-2.57227 19.791626,2.8386397 0 0 1 20.16141,-0.0764 19.791626,2.8386397 0 0 1 10.16015,2.49882"
       sodipodi:open="true" />
    <path
       style="font-variation-settings:normal;opacity:1;vector-effect:none;fill:none;fill-opacity:1;fill-rule:evenodd;stroke:#000000;stroke-width:0.264583;stroke-linecap:butt;stroke-linejoin:miter;stroke-miterlimit:4;stroke-dasharray:none;stroke-dashoffset:0;stroke-opacity:1;-inkscape-stroke:none;marker-start:none;marker-end:none;stop-color:#000000;stop-opacity:1"
       id="path2713"
       sodipodi:type="arc"
       sodipodi:cx="120.00289"
       sodipodi:cy="179.99635"
       sodipodi:rx="19.791626"
       sodipodi:ry="2.8386397"
       sodipodi:start="6.192023"
       sodipodi:end="3.1151219"
       sodipodi:open="true"
       sodipodi:arc-type="arc"
       d="m 139.71233,179.73793 a 19.791626,2.8386397 0 0 1 -8.64562,2.6121 19.791626,2.8386397 0 0 1 -20.12522,0.16997 19.791626,2.8386397 0 0 1 -10.72329,-2.44851" />
    <path
       style="font-variation-settings:normal;opacity:1;vector-effect:none;fill:none;fill-opacity:1;fill-rule:evenodd;stroke:#000000;stroke-width:0.264583;stroke-linecap:butt;stroke-linejoin:miter;stroke-miterlimit:4;stroke-dasharray:none;stroke-dashoffset:0;stroke-opacity:1;-inkscape-stroke:none;marker-start:none;marker-end:none;stop-color:#000000;stop-opacity:1"
       id="path2715"
       sodipodi:type="arc"
       sodipodi:cx="120.00289"
       sodipodi:cy="179.99635"
       sodipodi:rx="19.791626"
       sodipodi:ry="2.8386397"
       sodipodi:start="3.0821023"
       sodipodi:end="0.006674935"
       sodipodi:arc-type="arc"
       d="m 100.24628,180.16513 a 19.791626,2.8386397 0 0 1 9.22624,-2.57227 19.791626,2.8386397 0 0 1 20.16141,-0.0764 19.791626,2.8386397 0 0 1 10.16015,2.49882"
       sodipodi:open="true" />
    <path
       style="fill:#000000;fill-opacity:0.12;stroke:none;stroke-width:0.0576141;stroke-linejoin:round;stroke-dasharray:none;stroke-opacity:1;marker-start:none;marker-end:none;stop-color:#000000"
       d="m 115.71765,214.36256 c -8.18425,-0.29454 -14.26003,-1.24351 -15.21304,-2.3761 l -0.14108,-0.16766 v -15.61289 -15.61289 l 0.17165,0.12222 c 1.27905,0.91077 6.06702,1.73315 12.07132,2.07337 4.42555,0.25077 10.43473,0.25013 14.80679,-0.002 4.08471,-0.23516 7.61108,-0.67897 9.84107,-1.23854 0.77859,-0.19538 1.72609,-0.52557 1.98419,-0.69147 0.0713,-0.0458 0.19468,-0.12534 0.27419,-0.17671 l 0.14455,-0.0934 -0.002,15.56761 c -0.001,13.8901 -0.0111,15.58606 -0.0901,15.73886 -0.4192,0.81062 -3.92329,1.62325 -9.01237,2.09004 -1.13711,0.1043 -3.14827,0.23982 -4.81077,0.32417 -1.56776,0.0796 -8.31371,0.11652 -10.02483,0.0549 z"
       id="path2869" />
    <path
       style="fill:none;fill-opacity:1;stroke:#000000;stroke-width:0.264583;stroke-linecap:butt;stroke-linejoin:miter;stroke-dasharray:none;stroke-opacity:1;marker-start:none;marker-end:url(#marker-arrow-1)"
       d="m 119.86152,188.17711 c -0.3087,-0.14246 -0.65998,-0.19103 -0.99576,-0.13768 -0.33577,0.0534 -0.6547,0.20843 -0.90403,0.43956 -0.24933,0.23114 -0.42807,0.53743 -0.50667,0.8682 -0.0786,0.33078 -0.0567,0.68473 0.062,1.00332 0.11339,0.3043 0.30934,0.5695 0.4995,0.83274 0.19016,0.26324 0.37976,0.53449 0.47737,0.84421 0.11795,0.37424 0.0922,0.78431 -0.0252,1.1587 -0.11747,0.37439 -0.32265,0.71615 -0.55891,1.02944 -0.47251,0.62657 -1.07613,1.15567 -1.47196,1.8333 -0.27749,0.47504 -0.44438,1.01424 -0.48377,1.56298"
       id="path2871"
       inkscape:path-effect="#path-effect2873"
       inkscape:original-d="m 119.86152,188.17711 c -0.78123,0.72473 -1.56272,1.4492 -2.34448,2.1734 -0.78176,0.7242 0.65151,1.11823 0.97687,1.67695 0.32535,0.55872 -1.37046,2.68122 -2.05609,4.02144 -0.68562,1.34021 -0.32225,1.04225 -0.48377,1.56298" />
    <path
       style="fill:none;fill-opacity:1;stroke:#000000;stroke-width:0.264583;stroke-linecap:butt;stroke-linejoin:miter;stroke-dasharray:none;stroke-opacity:1;marker-start:none;marker-end:url(#marker-arrow-1)"
       d="m 131.5903,188.06187 c 1.03375,0.53714 1.78975,1.57888 1.97991,2.72823 0.16526,0.99884 -0.0803,2.03032 -0.50696,2.94843 -0.39135,0.84205 -0.93004,1.60591 -1.47295,2.35921 -0.29841,0.41405 -0.59903,0.82651 -0.90184,1.23736"
       id="path2906"
       inkscape:path-effect="#path-effect2908"
       inkscape:original-d="m 131.5903,188.06187 c 0.66024,0.90968 1.32021,1.81909 1.97991,2.72823 0.65971,0.90914 -0.33771,1.96588 -0.50696,2.94843 -0.16925,0.98255 -0.9817,1.57307 -1.47295,2.35921 -0.49125,0.78614 -0.60096,0.82517 -0.90184,1.23736" />
    <text
       xml:space="preserve"
       style="font-size:4.9389px;line-height:1.25;font-family:sans-serif;-inkscape-font-specification:'sans-serif, Normal';text-decoration-color:#000000;letter-spacing:0px;word-spacing:0px;fill:#000000;stroke-width:0.264583;-inkscape-stroke:none;stop-color:#000000"
       x="120.11363"
       y="188.53691"
       id="text2952"><tspan
         sodipodi:role="line"
         id="tspan2950"
         style="stroke-width:0.264583"
         x="120.11363"
         y="188.53691">\(e\)</tspan></text>
    <text
       xml:space="preserve"
       style="font-size:4.9389px;line-height:1.25;font-family:sans-serif;-inkscape-font-specification:'sans-serif, Normal';text-decoration-color:#000000;letter-spacing:0px;word-spacing:0px;fill:#000000;stroke-width:0.264583;-inkscape-stroke:none;stop-color:#000000"
       x="132.28444"
       y="188.53691"
       id="text2956"><tspan
         sodipodi:role="line"
         id="tspan2954"
         style="stroke-width:0.264583"
         x="132.28444"
         y="188.53691">\(e'\)</tspan></text>
    <text
       xml:space="preserve"
       style="font-size:4.9389px;line-height:1.25;font-family:sans-serif;-inkscape-font-specification:'sans-serif, Normal';text-decoration-color:#000000;letter-spacing:0px;word-spacing:0px;fill:#000000;stroke-width:0.264583;-inkscape-stroke:none;stop-color:#000000"
       x="112.27807"
       y="203.62364"
       id="text2960"><tspan
         sodipodi:role="line"
         id="tspan2958"
         style="stroke-width:0.264583"
         x="112.27807"
         y="203.62364">\(\pi(e)\)</tspan></text>
    <text
       xml:space="preserve"
       style="font-size:4.9389px;line-height:1.25;font-family:sans-serif;-inkscape-font-specification:'sans-serif, Normal';text-decoration-color:#000000;letter-spacing:0px;word-spacing:0px;fill:#000000;stroke-width:0.264583;-inkscape-stroke:none;stop-color:#000000"
       x="126.56556"
       y="203.09448"
       id="text2964"><tspan
         sodipodi:role="line"
         id="tspan2962"
         style="stroke-width:0.264583"
         x="126.56556"
         y="203.09448">\(\pi(e')\)</tspan></text>
  </g>
</svg>
