<?xml version="1.0" encoding="UTF-8" standalone="no"?>
<!-- Created with Inkscape (http://www.inkscape.org/) -->

<svg
   width="240mm"
   height="66mm"
   viewBox="0 0 240 66"
   version="1.1"
   id="svg8"
   inkscape:version="1.2.2 (b0a84865, 2022-12-01)"
   sodipodi:docname="maps-between-manifolds.svg"
   xmlns:inkscape="http://www.inkscape.org/namespaces/inkscape"
   xmlns:sodipodi="http://sodipodi.sourceforge.net/DTD/sodipodi-0.dtd"
   xmlns="http://www.w3.org/2000/svg"
   xmlns:svg="http://www.w3.org/2000/svg"
   xmlns:rdf="http://www.w3.org/1999/02/22-rdf-syntax-ns#"
   xmlns:cc="http://creativecommons.org/ns#"
   xmlns:dc="http://purl.org/dc/elements/1.1/">
  <defs
     id="defs2">
    <inkscape:path-effect
       effect="spiro"
       id="path-effect2208"
       is_visible="true"
       lpeversion="1" />
    <inkscape:path-effect
       effect="spiro"
       id="path-effect1776"
       is_visible="true"
       lpeversion="1" />
    <inkscape:path-effect
       effect="spiro"
       id="path-effect1220"
       is_visible="true"
       lpeversion="1" />
    <inkscape:path-effect
       effect="spiro"
       id="path-effect915"
       is_visible="true"
       lpeversion="1" />
    <inkscape:path-effect
       effect="spiro"
       id="path-effect881"
       is_visible="true"
       lpeversion="1" />
    <inkscape:path-effect
       effect="spiro"
       id="path-effect839"
       is_visible="true"
       lpeversion="1" />
    <inkscape:path-effect
       effect="spiro"
       id="path-effect520"
       is_visible="true"
       lpeversion="1" />
    <inkscape:path-effect
       effect="spiro"
       id="path-effect499"
       is_visible="true"
       lpeversion="1" />
    <inkscape:path-effect
       effect="spiro"
       id="path-effect470"
       is_visible="true"
       lpeversion="1" />
    <inkscape:path-effect
       effect="spiro"
       id="path-effect406"
       is_visible="true"
       lpeversion="1" />
    <inkscape:path-effect
       effect="spiro"
       id="path-effect402"
       is_visible="true"
       lpeversion="1" />
    <inkscape:path-effect
       effect="spiro"
       id="path-effect202"
       is_visible="true"
       lpeversion="1" />
    <inkscape:path-effect
       effect="spiro"
       id="path-effect202-0"
       is_visible="true"
       lpeversion="1" />
    <marker
       id="marker-arrow-1"
       orient="auto-start-reverse"
       refY="0"
       refX="0"
       markerHeight="3"
       markerWidth="2">
      <g
         transform="scale(1.3933333)"
         id="g474"><path
   d="M -1.55415,2.0722 C -1.42464,1.29512 0,0.1295 0.38852,0 0,-0.1295 -1.42464,-1.29512 -1.55415,-2.0722"
   style="fill:none;stroke:#000000;stroke-linecap:round;stroke-linejoin:round;stroke-miterlimit:10;stroke-dasharray:none;stroke-opacity:1"
   id="path472" />
0&quot; /&gt;
   </g>
    </marker>
    <marker
       id="marker-arrow-1-8"
       orient="auto-start-reverse"
       refY="0"
       refX="0"
       markerHeight="3"
       markerWidth="2">
      <g
         transform="scale(1.3933333)"
         id="g503"><path
   d="M -1.55415,2.0722 C -1.42464,1.29512 0,0.1295 0.38852,0 0,-0.1295 -1.42464,-1.29512 -1.55415,-2.0722"
   style="fill:none;stroke:#000000;stroke-linecap:round;stroke-linejoin:round;stroke-miterlimit:10;stroke-dasharray:none;stroke-opacity:1"
   id="path501" />
0&quot; /&gt;
   </g>
    </marker>
    <marker
       id="marker-arrow-1-9"
       orient="auto-start-reverse"
       refY="0"
       refX="0"
       markerHeight="3"
       markerWidth="2">
      <g
         transform="scale(1.3933333)"
         id="g524"><path
   d="M -1.55415,2.0722 C -1.42464,1.29512 0,0.1295 0.38852,0 0,-0.1295 -1.42464,-1.29512 -1.55415,-2.0722"
   style="fill:none;stroke:#000000;stroke-linecap:round;stroke-linejoin:round;stroke-miterlimit:10;stroke-dasharray:none;stroke-opacity:1"
   id="path522" />
0&quot; /&gt;
   </g>
    </marker>
    <inkscape:path-effect
       effect="spiro"
       id="path-effect839-7"
       is_visible="true"
       lpeversion="1" />
    <marker
       id="marker-arrow-1-0"
       orient="auto-start-reverse"
       refY="0"
       refX="0"
       markerHeight="3"
       markerWidth="2">
      <g
         transform="scale(1.3933333)"
         id="g885"><path
   d="M -1.55415,2.0722 C -1.42464,1.29512 0,0.1295 0.38852,0 0,-0.1295 -1.42464,-1.29512 -1.55415,-2.0722"
   style="fill:none;stroke:#000000;stroke-linecap:round;stroke-linejoin:round;stroke-miterlimit:10;stroke-dasharray:none;stroke-opacity:1"
   id="path883" />
0&quot; /&gt;
   </g>
    </marker>
    <marker
       id="marker-arrow-1-2"
       orient="auto-start-reverse"
       refY="0"
       refX="0"
       markerHeight="3"
       markerWidth="2">
      <g
         transform="scale(1.3933333)"
         id="g919"><path
   d="M -1.55415,2.0722 C -1.42464,1.29512 0,0.1295 0.38852,0 0,-0.1295 -1.42464,-1.29512 -1.55415,-2.0722"
   style="fill:none;stroke:#000000;stroke-linecap:round;stroke-linejoin:round;stroke-miterlimit:10;stroke-dasharray:none;stroke-opacity:1"
   id="path917" />
0&quot; /&gt;
   </g>
    </marker>
  </defs>
  <sodipodi:namedview
     id="base"
     pagecolor="#ffffff"
     bordercolor="#666666"
     borderopacity="1.0"
     inkscape:pageopacity="0.0"
     inkscape:pageshadow="2"
     inkscape:zoom="0.5339802"
     inkscape:cx="446.64577"
     inkscape:cy="39.327301"
     inkscape:document-units="mm"
     inkscape:current-layer="layer1"
     showgrid="false"
     showborder="true"
     width="200mm"
     showguides="true"
     inkscape:guide-bbox="true"
     inkscape:window-width="864"
     inkscape:window-height="512"
     inkscape:window-x="0"
     inkscape:window-y="38"
     inkscape:window-maximized="0"
     inkscape:showpageshadow="2"
     inkscape:pagecheckerboard="0"
     inkscape:deskcolor="#d1d1d1">
    <inkscape:grid
       type="xygrid"
       id="grid815"
       units="mm"
       spacingx="10"
       spacingy="10"
       empspacing="4"
       dotted="false"
       originx="0"
       originy="0" />
  </sodipodi:namedview>
  <metadata
     id="metadata5">
    <rdf:RDF>
      <cc:Work
         rdf:about="">
        <dc:format>image/svg+xml</dc:format>
        <dc:type
           rdf:resource="http://purl.org/dc/dcmitype/StillImage" />
      </cc:Work>
    </rdf:RDF>
  </metadata>
  <g
     inkscape:label="Layer 1"
     inkscape:groupmode="layer"
     id="layer1"
     transform="translate(0,-177)">
    <path
       style="fill:none;stroke:#000000;stroke-width:0.264583px;stroke-linecap:butt;stroke-linejoin:miter;stroke-opacity:1"
       d="m 31.710196,202.12707 c -0.07357,-1.30664 0.332273,-2.62111 1.055096,-3.7121 0.722824,-1.09099 1.751307,-1.96337 2.904162,-2.58277 2.305711,-1.2388 5.024328,-1.46064 7.638987,-1.3403 2.61466,0.12035 5.214109,0.55627 7.831406,0.53011 2.617297,-0.0262 5.334014,-0.5657 7.400165,-2.17254 1.789802,-1.39193 2.921126,-3.4378 4.262683,-5.26566 2.263491,-3.08399 5.25117,-5.6549 8.705442,-7.29879 3.454272,-1.6439 7.375131,-2.34168 11.167971,-1.84294 3.792841,0.49873 7.438737,2.2143 10.139072,4.92402 2.700334,2.70971 4.415271,6.41413 4.590462,10.23561 0.215632,4.70361 -1.994993,9.46854 -5.767163,12.28655 -2.156801,1.61124 -4.738367,2.5829 -7.37216,3.14061 -2.633793,0.5577 -5.333924,0.71868 -8.023528,0.83671 -2.689604,0.11802 -5.387897,0.19532 -8.050984,0.59012 -2.663088,0.3948 -5.307662,1.11895 -7.645827,2.45345 -3.332186,1.90183 -5.884097,4.94244 -9.145967,6.9625 -1.630936,1.01003 -3.463566,1.76158 -5.37859,1.87465 -0.957513,0.0565 -1.928009,-0.0488 -2.839357,-0.34793 -0.911349,-0.29911 -1.762324,-0.79457 -2.445014,-1.46834 -1.116746,-1.10215 -1.729641,-2.61096 -2.190574,-4.11075 -0.460933,-1.4998 -0.804854,-3.04949 -1.511485,-4.45039 -0.811713,-1.60923 -2.062555,-2.9454 -3.155972,-4.37821 -1.093417,-1.4328 -2.067502,-3.0641 -2.168825,-4.86361 z"
       id="path200"
       inkscape:path-effect="#path-effect202"
       inkscape:original-d="m 31.710196,202.12707 c 6.017638,-5.93459 17.886809,-6.1848 26.829816,-9.2776 8.943009,-3.0928 2.842054,-3.51018 4.262683,-5.26566 1.420628,-1.75549 23.068891,4.0122 34.602947,6.0179 11.534028,2.0057 -3.844515,8.1913 -5.767163,12.28655 -1.92265,4.09525 -20.728069,4.68085 -31.092499,7.02089 -10.364431,2.34003 -13.205688,4.68085 -19.808928,7.02088 -6.603241,2.34003 5.32506,-8.56087 -3.702059,-8.56114 -9.027119,-2.6e-4 -11.342434,-3.30723 -5.324797,-9.24182 z"
       sodipodi:nodetypes="ssssssscs" />
    <path
       style="fill:none;stroke:#000000;stroke-width:0.264583px;stroke-linecap:butt;stroke-linejoin:miter;stroke-opacity:1"
       d="m 151.73801,184.12166 c 4.17714,-1.7283 8.86474,-1.73476 13.35955,-1.25289 4.49481,0.48187 8.95038,1.42479 13.47026,1.50364 9.01243,0.15722 17.81673,-3.12207 26.82982,-3.00895 1.91908,0.0241 3.86252,0.20858 5.66112,0.87826 1.7986,0.66969 3.45335,1.86725 4.38063,3.54761 0.53586,0.97106 0.81448,2.07685 0.84658,3.18548 0.0321,1.10864 -0.179,2.21937 -0.57449,3.25556 -0.79099,2.07238 -2.29874,3.81323 -4.04519,5.18083 -4.23556,3.31676 -9.74249,4.51556 -15.09318,5.07322 -5.35069,0.55765 -10.79703,0.57763 -15.99932,1.94767 -6.78705,1.7874 -12.89592,5.80877 -19.80893,7.02088 -2.59464,0.45494 -5.27974,0.4983 -7.85203,-0.0696 -2.57229,-0.56786 -5.02912,-1.7645 -6.9319,-3.5862 -1.73889,-1.66479 -2.98538,-3.82982 -3.59331,-6.15913 -0.60792,-2.32931 -0.58046,-4.81571 0.0375,-7.14238 1.23592,-4.65333 4.86399,-8.5333 9.31289,-10.37404 z"
       id="path200-5"
       inkscape:path-effect="#path-effect202-0"
       inkscape:original-d="m 151.73801,184.12166 c 6.01763,-5.93459 17.8868,3.34355 26.82981,0.25075 8.94301,-3.0928 25.4092,-1.25347 26.82982,-3.00895 1.42063,-1.75549 -1.49229,2.42017 10.04175,4.42587 11.53405,2.0057 -1.85045,7.52662 -3.7731,11.62187 -1.92265,4.09525 -20.72807,4.68085 -31.0925,7.02089 -10.36443,2.34003 -13.20569,4.68085 -19.80893,7.02088 -6.60324,2.34003 -5.75681,-3.65549 -14.78393,-3.65576 -9.02712,-2.6e-4 -0.26056,-17.74096 5.75708,-23.67555 z"
       sodipodi:nodetypes="sssssssss" />
    <path
       style="fill:none;stroke:#000000;stroke-width:0.264583px;stroke-linecap:butt;stroke-linejoin:miter;stroke-opacity:1"
       d="m 60.520819,206.45801 c -0.638909,-0.59853 -1.048179,-1.42199 -1.207018,-2.28292 -0.158839,-0.86094 -0.07557,-1.75701 0.172885,-2.59648 0.49691,-1.67894 1.619092,-3.0958 2.789355,-4.3982 1.041512,-1.15911 2.14922,-2.27205 3.425561,-3.16605 1.276341,-0.89401 2.734036,-1.56537 4.279233,-1.767 1.545197,-0.20164 3.182039,0.0946 4.463736,0.98087 0.640849,0.44316 1.186047,1.02848 1.561876,1.71099 0.375829,0.68252 0.579623,1.46224 0.562113,2.24119 -0.01735,0.77201 -0.250051,1.53113 -0.617061,2.21054 -0.367011,0.67941 -0.865531,1.28192 -1.424093,1.81512 -1.117124,1.06641 -2.46358,1.85483 -3.726004,2.74448 -1.573542,1.1089 -3.056393,2.4007 -4.845112,3.11215 -0.89436,0.35573 -1.861442,0.55784 -2.821236,0.48562 -0.959794,-0.0722 -1.911804,-0.43227 -2.614235,-1.09031 z"
       id="path400"
       inkscape:path-effect="#path-effect402"
       inkscape:original-d="m 60.520819,206.45801 c -3.427127,0.83556 1.17041,-6.1848 1.755222,-9.2776 0.584808,-3.0928 9.528608,2.7e-4 14.292519,0 4.763907,-2.6e-4 -3.844507,4.51369 -5.767158,6.77014 -1.92265,2.25645 -6.853459,1.67191 -10.280583,2.50746 z" />
    <path
       style="fill:none;stroke:#000000;stroke-width:0.264583px;stroke-linecap:butt;stroke-linejoin:miter;stroke-opacity:1"
       d="m 164.29036,200.77834 c -0.0537,-0.60834 0.14845,-1.22355 0.49615,-1.72561 0.3477,-0.50207 0.83351,-0.89725 1.36267,-1.20213 1.05832,-0.60975 2.27799,-0.86853 3.40684,-1.33494 2.57968,-1.06584 4.58191,-3.1637 6.98236,-4.588 1.20022,-0.71215 2.5262,-1.26066 3.91755,-1.3695 1.39135,-0.10884 2.85623,0.2603 3.8941,1.19332 0.68444,0.6153 1.15743,1.45191 1.37792,2.34546 0.2205,0.89355 0.19359,1.84096 -0.0309,2.7335 -0.44909,1.78508 -1.66194,3.30314 -3.10219,4.44939 -1.99154,1.585 -4.44459,2.54359 -6.96278,2.91394 -2.5182,0.37035 -5.10089,0.16807 -7.58048,-0.40648 -0.83833,-0.19425 -1.68292,-0.43793 -2.39713,-0.91796 -0.35711,-0.24001 -0.67787,-0.53844 -0.9206,-0.89371 -0.24273,-0.35526 -0.40565,-0.76868 -0.44346,-1.19728 z"
       id="path404"
       inkscape:path-effect="#path-effect406"
       inkscape:original-d="m 164.29036,200.77834 c -1.254,-1.00325 3.51071,-2.84153 5.26566,-4.26268 1.75496,-1.42116 9.86294,-3.17586 14.79401,-4.76418 4.93108,-1.58832 -1.16988,6.3525 -1.75522,9.52835 -0.58533,3.17585 -9.69524,1.6719 -14.54326,2.50746 -4.84802,0.83555 -2.5072,-2.00571 -3.76119,-3.00895 z" />
    <text
       xml:space="preserve"
       style="font-size:4.9389px;line-height:1.25;font-family:sans-serif;-inkscape-font-specification:'sans-serif, Normal';text-decoration-color:#000000;letter-spacing:0px;word-spacing:0px;fill:#000000;stroke-width:0.264583;-inkscape-stroke:none;stop-color:#000000"
       x="72.578094"
       y="190.72528"
       id="text462"><tspan
         sodipodi:role="line"
         id="tspan460"
         style="stroke-width:0.264583"
         x="72.578094"
         y="190.72528">\(U_i\)</tspan></text>
    <text
       xml:space="preserve"
       style="font-size:4.9389px;line-height:1.25;font-family:sans-serif;-inkscape-font-specification:'sans-serif, Normal';text-decoration-color:#000000;letter-spacing:0px;word-spacing:0px;fill:#000000;stroke-width:0.264583;-inkscape-stroke:none;stop-color:#000000"
       x="34.021778"
       y="192.82602"
       id="text466"><tspan
         sodipodi:role="line"
         id="tspan464"
         style="stroke-width:0.264583"
         x="34.021778"
         y="192.82602">\(M\)</tspan></text>
    <path
       style="fill:none;fill-opacity:1;stroke:#000000;stroke-width:0.264583;stroke-linecap:butt;stroke-linejoin:miter;stroke-dasharray:none;stroke-opacity:1;marker-start:none;marker-end:url(#marker-arrow-1)"
       d="m 102.35682,195.39268 c 5.75372,-2.77691 12.11931,-4.27725 18.50753,-4.36215 6.3323,-0.0841 12.67943,1.2222 18.46381,3.8002"
       id="path468"
       inkscape:path-effect="#path-effect470"
       inkscape:original-d="m 102.35682,195.39268 c 3.42713,-2.34003 14.99735,-2.02159 18.50753,-4.36215 3.51018,-2.34056 12.69692,2.79748 18.46381,3.8002"
       sodipodi:nodetypes="csc" />
    <text
       xml:space="preserve"
       style="font-size:4.9389px;line-height:1.25;font-family:sans-serif;-inkscape-font-specification:'sans-serif, Normal';text-decoration-color:#000000;letter-spacing:0px;word-spacing:0px;fill:#000000;stroke-width:0.264583;-inkscape-stroke:none;stop-color:#000000"
       x="119.62257"
       y="188.77213"
       id="text487"><tspan
         sodipodi:role="line"
         id="tspan485"
         style="stroke-width:0.264583"
         x="119.62257"
         y="188.77213">\(h\)</tspan></text>
    <text
       xml:space="preserve"
       style="font-size:4.9389px;line-height:1.25;font-family:sans-serif;-inkscape-font-specification:'sans-serif, Normal';text-decoration-color:#000000;letter-spacing:0px;word-spacing:0px;fill:#000000;stroke-width:0.264583;-inkscape-stroke:none;stop-color:#000000"
       x="211.2132"
       y="182.1321"
       id="text491"><tspan
         sodipodi:role="line"
         id="tspan489"
         style="stroke-width:0.264583"
         x="211.2132"
         y="182.1321">\(N\)</tspan></text>
    <path
       style="fill:none;fill-opacity:1;stroke:#000000;stroke-width:0.264583;stroke-linecap:butt;stroke-linejoin:miter;stroke-dasharray:none;stroke-opacity:1;marker-start:none;marker-end:url(#marker-arrow-1)"
       d="m 68.380089,207.79517 0.250746,18.30446"
       id="path497"
       inkscape:path-effect="#path-effect499"
       inkscape:original-d="m 68.380089,207.79517 c 0.08385,6.10175 0.167429,12.20324 0.250746,18.30446" />
    <text
       xml:space="preserve"
       style="font-size:4.9389px;line-height:1.25;font-family:sans-serif;-inkscape-font-specification:'sans-serif, Normal';text-decoration-color:#000000;letter-spacing:0px;word-spacing:0px;fill:#000000;stroke-width:0.264583;-inkscape-stroke:none;stop-color:#000000"
       x="70.201393"
       y="218.92155"
       id="text516"><tspan
         sodipodi:role="line"
         id="tspan514"
         style="stroke-width:0.264583"
         x="70.201393"
         y="218.92155">\(\varphi\)</tspan></text>
    <path
       style="fill:none;stroke:#000000;stroke-width:0.264583px;stroke-linecap:butt;stroke-linejoin:miter;stroke-opacity:1"
       d="m 164.90516,237.05348 c -0.42652,-0.66267 -0.60687,-1.47233 -0.54447,-2.25792 0.0624,-0.7856 0.36121,-1.54522 0.81584,-2.18894 0.90925,-1.28743 2.39731,-2.0747 3.93153,-2.43581 3.06843,-0.72221 6.31517,0.0981 9.4231,-0.42884 1.65556,-0.28067 3.21993,-0.93497 4.81078,-1.47241 1.59086,-0.53743 3.26825,-0.96492 4.93579,-0.76746 1.70054,0.20137 3.33731,1.1005 4.29775,2.51823 0.48022,0.70886 0.78802,1.53655 0.86746,2.38907 0.0795,0.85252 -0.0719,1.72806 -0.45107,2.49574 -0.39717,0.80411 -1.03611,1.4776 -1.78498,1.97108 -0.74888,0.49348 -1.60504,0.81173 -2.48369,0.99148 -1.75731,0.35948 -3.57533,0.17315 -5.3573,-0.0316 -2.86701,-0.32948 -5.78726,-0.70164 -8.61958,-0.14825 -1.73076,0.33816 -3.39525,1.0174 -5.15124,1.17985 -0.878,0.0812 -1.77868,0.0286 -2.61298,-0.25674 -0.83431,-0.28532 -1.59972,-0.816 -2.07694,-1.55744 z"
       id="path837"
       inkscape:original-d="m 164.90516,237.05348 c -3.10212,-2.88055 9.08427,-4.87407 13.626,-7.31151 4.54174,-2.43743 6.09108,-1.24258 9.74657,-2.23987 3.65549,-0.99729 -1.60008,4.96614 4.71414,7.40304 6.31423,2.43691 -3.42199,-0.39223 -9.62597,2.93092 -6.20397,3.32315 -3.41263,-0.70188 -8.61958,-0.14825 -5.20694,0.55364 -6.73904,2.24623 -9.84116,-0.63433 z"
       inkscape:path-effect="#path-effect839"
       sodipodi:nodetypes="sssssss" />
    <path
       style="fill:none;stroke:#000000;stroke-width:0.264583px;stroke-linecap:butt;stroke-linejoin:miter;stroke-opacity:1"
       d="m 58.529403,237.13172 c -0.144552,-1.17621 0.111574,-2.3844 0.635424,-3.44739 0.52385,-1.06299 1.306886,-1.98567 2.209051,-2.75409 1.80433,-1.53684 4.041855,-2.45007 6.216543,-3.39252 1.755874,-0.76095 3.500995,-1.55822 5.322544,-2.14482 1.821548,-0.58659 3.734461,-0.96036 5.644726,-0.84625 1.273981,0.0761 2.569528,0.38577 3.601761,1.13632 0.516117,0.37527 0.958363,0.85821 1.255851,1.42275 0.297487,0.56454 0.446498,1.21175 0.390903,1.84745 -0.05534,0.63279 -0.310616,1.23882 -0.677294,1.75751 -0.366678,0.51869 -0.841808,0.95387 -1.357023,1.32541 -1.030429,0.74308 -2.217712,1.23698 -3.296856,1.90735 -2.97608,1.84876 -4.999421,4.94845 -7.942581,6.84918 -1.04968,0.6779 -2.209569,1.19431 -3.4301,1.46204 -1.220531,0.26773 -2.50251,0.28282 -3.716179,-0.0145 -1.213669,-0.29729 -2.35593,-0.91252 -3.230937,-1.80456 -0.875008,-0.89204 -1.473415,-2.06369 -1.625833,-3.30391 z"
       id="path837-9"
       inkscape:original-d="m 58.529403,237.13172 c -3.10212,-2.88055 4.519288,-7.15656 9.061018,-9.594 4.54174,-2.43743 7.31178,-1.99378 10.96727,-2.99107 3.65549,-0.99729 -1.065705,1.96962 5.248515,4.40652 6.31423,2.43691 0.872807,1.66712 -5.331173,4.99027 -6.20397,3.32315 -2.735631,6.29555 -7.942581,6.84918 -5.20694,0.55364 -8.900929,-0.78034 -12.003049,-3.6609 z"
       inkscape:path-effect="#path-effect839-7"
       sodipodi:nodetypes="sssssss" />
    <path
       style="fill:none;fill-opacity:1;stroke:#000000;stroke-width:0.264583;stroke-linecap:butt;stroke-linejoin:miter;stroke-dasharray:none;stroke-opacity:1;marker-start:none;marker-end:url(#marker-arrow-1)"
       d="m 89.762391,233.41634 c 11.657319,-4.60805 24.234949,-6.87398 36.767489,-6.62387 10.98709,0.21927 21.93304,2.36654 32.18867,6.31448"
       id="path913"
       inkscape:path-effect="#path-effect915"
       inkscape:original-d="m 89.762391,233.41634 c 6.979428,-1.21832 29.788589,-5.40502 36.767489,-6.62387 6.97891,-1.21886 23.54805,4.20992 32.18867,6.31448"
       sodipodi:nodetypes="csc" />
    <text
       xml:space="preserve"
       style="font-size:4.9389px;line-height:1.25;font-family:sans-serif;-inkscape-font-specification:'sans-serif, Normal';text-decoration-color:#000000;letter-spacing:0px;word-spacing:0px;fill:#000000;stroke-width:0.264583;-inkscape-stroke:none;stop-color:#000000"
       x="114.59139"
       y="223.46915"
       id="text932"><tspan
         sodipodi:role="line"
         id="tspan930"
         style="stroke-width:0.264583"
         x="114.59139"
         y="223.46915">\(\psi\circ h\circ\varphi^{-1}\)</tspan></text>
    <text
       xml:space="preserve"
       style="font-size:4.9389px;line-height:1.25;font-family:sans-serif;-inkscape-font-specification:'sans-serif, Normal';text-decoration-color:#000000;letter-spacing:0px;word-spacing:0px;fill:#000000;stroke-width:0.264583;-inkscape-stroke:none;stop-color:#000000"
       x="186.87527"
       y="194.95627"
       id="text1216"><tspan
         sodipodi:role="line"
         id="tspan1214"
         style="stroke-width:0.264583"
         x="186.87527"
         y="194.95627">\(h(U_i)\)</tspan></text>
    <path
       style="fill:none;stroke:#000000;stroke-width:0.264583px;stroke-linecap:butt;stroke-linejoin:miter;stroke-opacity:1"
       d="m 157.75857,192.73888 c -1.23119,1.31787 -1.84918,3.15483 -1.80243,4.95772 0.0467,1.8029 0.73047,3.56218 1.80243,5.01253 1.31463,1.77869 3.25294,3.12651 5.42191,3.55954 1.08449,0.21651 2.21658,0.20491 3.29087,-0.0575 1.0743,-0.26244 2.08893,-0.7774 2.91917,-1.50795 0.88678,-0.78031 1.55559,-1.80091 1.94229,-2.91704 0.38669,-1.11612 0.49306,-2.32496 0.3337,-3.49538 -0.31871,-2.34083 -1.70796,-4.47674 -3.60535,-5.88422 -1.51042,-1.12043 -3.36459,-1.80924 -5.24517,-1.79753 -1.88059,0.0117 -3.77358,0.75564 -5.05742,2.12987 z"
       id="path1218"
       inkscape:path-effect="#path-effect1220"
       inkscape:original-d="m 157.75857,192.73888 c -3.43446,0.11052 2.7e-4,6.6471 0,9.97025 -2.6e-4,3.32315 7.7549,1.32963 11.63195,1.99405 3.87705,0.66441 -0.88598,-8.1975 -1.32936,-12.29664 -0.44339,-4.09914 -6.86813,0.22183 -10.30259,0.33234 z" />
    <text
       xml:space="preserve"
       style="font-size:4.9389px;line-height:1.25;font-family:sans-serif;-inkscape-font-specification:'sans-serif, Normal';text-decoration-color:#000000;letter-spacing:0px;word-spacing:0px;fill:#000000;stroke-width:0.264583;-inkscape-stroke:none;stop-color:#000000"
       x="152.00949"
       y="191.57918"
       id="text1224"><tspan
         sodipodi:role="line"
         id="tspan1222"
         style="stroke-width:0.264583"
         x="152.00949"
         y="191.57918">\(V_i\)</tspan></text>
    <text
       xml:space="preserve"
       style="font-size:4.9389px;line-height:1.25;font-family:sans-serif;-inkscape-font-specification:'sans-serif, Normal';text-decoration-color:#000000;letter-spacing:0px;word-spacing:0px;fill:#000000;stroke-width:0.264583;-inkscape-stroke:none;stop-color:#000000"
       x="42.590897"
       y="235.0529"
       id="text1290"><tspan
         sodipodi:role="line"
         id="tspan1288"
         style="stroke-width:0.264583"
         x="42.590897"
         y="235.0529">\(\varphi(U_i)\)</tspan></text>
    <text
       xml:space="preserve"
       style="font-size:4.9389px;line-height:1.25;font-family:sans-serif;-inkscape-font-specification:'sans-serif, Normal';text-decoration-color:#000000;letter-spacing:0px;word-spacing:0px;fill:#000000;stroke-width:0.264583;-inkscape-stroke:none;stop-color:#000000"
       x="194.55807"
       y="231.87787"
       id="text1358"><tspan
         sodipodi:role="line"
         id="tspan1356"
         style="stroke-width:0.264583"
         x="194.55807"
         y="231.87787">\(\psi(V_i)\)</tspan></text>
    <path
       style="fill:#000000;fill-opacity:0.12;stroke:none;stroke-width:0.33234;stroke-linejoin:round;stroke-dasharray:none;stroke-opacity:1;marker-start:none;marker-end:none;stop-color:#000000"
       d="m 167.29139,203.22464 c -1.79529,-0.64027 -2.55365,-1.43299 -2.55365,-2.66932 0,-1.40628 0.98022,-2.27225 3.75364,-3.31617 l 2.2448,-0.84494 0.3242,0.8527 c 0.50998,1.34136 0.36777,3.50618 -0.33154,5.04678 -0.71491,1.575 -1.23595,1.71611 -3.43745,0.93095 z"
       id="path1697" />
    <path
       style="fill:none;stroke:#000000;stroke-width:0.264583px;stroke-linecap:butt;stroke-linejoin:miter;stroke-opacity:1"
       d="m 169.99299,229.95673 c 0.86147,1.46743 1.29205,3.18439 1.22497,4.88468 -0.0532,1.34875 -0.41655,2.68434 -1.05396,3.87416"
       id="path1774"
       inkscape:path-effect="#path-effect1776"
       inkscape:original-d="m 169.99299,229.95673 c 1.8132,2.00548 -0.64263,2.82479 1.22497,4.88468 1.86761,2.05989 -1.02626,0.85284 -1.05396,3.87416"
       sodipodi:nodetypes="csc" />
    <path
       style="fill:none;fill-opacity:1;stroke:#000000;stroke-width:0.264583;stroke-linecap:butt;stroke-linejoin:miter;stroke-dasharray:none;stroke-opacity:1;marker-start:none;marker-end:url(#marker-arrow-1)"
       d="m 168.92176,207.79517 0.25074,18.30446"
       id="path2200"
       inkscape:path-effect="#path-effect2208"
       inkscape:original-d="m 168.92176,207.79517 c 0.0838,6.10175 0.16743,12.20324 0.25074,18.30446" />
    <text
       xml:space="preserve"
       style="font-size:4.9389px;line-height:1.25;font-family:sans-serif;-inkscape-font-specification:'sans-serif, Normal';text-decoration-color:#000000;letter-spacing:0px;word-spacing:0px;fill:#000000;stroke-width:0.264583;-inkscape-stroke:none;stop-color:#000000"
       x="170.7431"
       y="218.92155"
       id="text2204"><tspan
         sodipodi:role="line"
         id="tspan2202"
         style="stroke-width:0.264583"
         x="170.7431"
         y="218.92155">\(\psi\)</tspan></text>
    <path
       style="fill:#000000;fill-opacity:0.12;stroke:none;stroke-width:0.0696778;stroke-linejoin:round;stroke-dasharray:none;stroke-opacity:1;marker-start:none;marker-end:none;stop-color:#000000"
       d="m 168.42731,238.71955 c -2.30044,-0.16881 -3.90195,-1.66459 -3.90195,-3.64433 0,-1.08044 0.43972,-2.04189 1.35757,-2.96828 0.65141,-0.65748 1.13466,-0.98394 2.00788,-1.35643 0.43187,-0.18422 1.7447,-0.55237 1.97076,-0.55264 0.11328,-1.3e-4 0.6267,1.13608 0.82308,1.82151 0.27731,0.96789 0.34326,1.43002 0.34659,2.42875 0.004,1.06513 -0.0894,1.69927 -0.38601,2.63311 -0.31923,1.00508 -0.57857,1.53703 -0.76815,1.57565 -0.2515,0.0512 -1.10362,0.0881 -1.44977,0.0627 z"
       id="path2285" />
  </g>
</svg>
