<?xml version="1.0" encoding="UTF-8" standalone="no"?>
<!-- Created with Inkscape (http://www.inkscape.org/) -->

<svg
   width="240mm"
   height="55mm"
   viewBox="0 0 240 55"
   version="1.1"
   id="svg8"
   inkscape:version="1.3 (0e150ed, 2023-07-21)"
   sodipodi:docname="maximizer-lemma-triangle-inequality.svg"
   xmlns:inkscape="http://www.inkscape.org/namespaces/inkscape"
   xmlns:sodipodi="http://sodipodi.sourceforge.net/DTD/sodipodi-0.dtd"
   xmlns="http://www.w3.org/2000/svg"
   xmlns:svg="http://www.w3.org/2000/svg"
   xmlns:rdf="http://www.w3.org/1999/02/22-rdf-syntax-ns#"
   xmlns:cc="http://creativecommons.org/ns#"
   xmlns:dc="http://purl.org/dc/elements/1.1/">
  <defs
     id="defs2">
    <inkscape:path-effect
       effect="spiro"
       id="path-effect2346"
       is_visible="true"
       lpeversion="1" />
    <inkscape:path-effect
       effect="spiro"
       id="path-effect2075"
       is_visible="true"
       lpeversion="1" />
    <marker
       style="overflow:visible"
       id="Arrow2Lend"
       refX="0"
       refY="0"
       orient="auto"
       inkscape:stockid="Arrow2Lend"
       inkscape:isstock="true">
      <path
         transform="matrix(-1.1,0,0,-1.1,-1.1,0)"
         d="M 8.7185878,4.0337352 -2.2072895,0.01601326 8.7185884,-4.0017078 c -1.7454984,2.3720609 -1.7354408,5.6174519 -6e-7,8.035443 z"
         style="fill:context-stroke;fill-rule:evenodd;stroke:context-stroke;stroke-width:0.625;stroke-linejoin:round"
         id="path1080" />
    </marker>
    <marker
       style="overflow:visible"
       id="Arrow2Lstart"
       refX="0"
       refY="0"
       orient="auto"
       inkscape:stockid="Arrow2Lstart"
       inkscape:isstock="true">
      <path
         transform="matrix(1.1,0,0,1.1,1.1,0)"
         d="M 8.7185878,4.0337352 -2.2072895,0.01601326 8.7185884,-4.0017078 c -1.7454984,2.3720609 -1.7354408,5.6174519 -6e-7,8.035443 z"
         style="fill:context-stroke;fill-rule:evenodd;stroke:context-stroke;stroke-width:0.625;stroke-linejoin:round"
         id="path15056" />
    </marker>
    <inkscape:path-effect
       effect="spiro"
       id="path-effect1042"
       is_visible="true"
       lpeversion="1" />
    <marker
       id="marker-arrow-1"
       orient="auto-start-reverse"
       refY="0"
       refX="0"
       markerHeight="3"
       markerWidth="2">
      <g
         transform="scale(1.3933333)"
         id="g1451"><path
   d="M -1.55415,2.0722 C -1.42464,1.29512 0,0.1295 0.38852,0 0,-0.1295 -1.42464,-1.29512 -1.55415,-2.0722"
   style="fill:none;stroke:#000000;stroke-linecap:round;stroke-linejoin:round;stroke-miterlimit:10;stroke-dasharray:none;stroke-opacity:1"
   id="path1449" />
&#10;&#10;0&quot; /&gt;&#10;   </g>
    </marker>
    <marker
       id="marker-arrow-1-8"
       orient="auto-start-reverse"
       refY="0"
       refX="0"
       markerHeight="3"
       markerWidth="2">
      <g
         transform="scale(1.3933333)"
         id="g1586"><path
   d="M -1.55415,2.0722 C -1.42464,1.29512 0,0.1295 0.38852,0 0,-0.1295 -1.42464,-1.29512 -1.55415,-2.0722"
   style="fill:none;stroke:#000000;stroke-linecap:round;stroke-linejoin:round;stroke-miterlimit:10;stroke-dasharray:none;stroke-opacity:1"
   id="path1584" />
&#10;&#10;0&quot; /&gt;&#10;   </g>
    </marker>
    <marker
       id="marker-arrow-1-4"
       orient="auto-start-reverse"
       refY="0"
       refX="0"
       markerHeight="3"
       markerWidth="2">
      <g
         transform="scale(1.3933333)"
         id="g2079"><path
   d="M -1.55415,2.0722 C -1.42464,1.29512 0,0.1295 0.38852,0 0,-0.1295 -1.42464,-1.29512 -1.55415,-2.0722"
   style="fill:none;stroke:#000000;stroke-linecap:round;stroke-linejoin:round;stroke-miterlimit:10;stroke-dasharray:none;stroke-opacity:1"
   id="path2077" />
&#10;&#10;0&quot; /&gt;&#10;   </g>
    </marker>
    <marker
       id="marker-arrow-1-0"
       orient="auto-start-reverse"
       refY="0"
       refX="0"
       markerHeight="3"
       markerWidth="2">
      <g
         transform="scale(1.3933333)"
         id="g2430"><path
   d="M -1.55415,2.0722 C -1.42464,1.29512 0,0.1295 0.38852,0 0,-0.1295 -1.42464,-1.29512 -1.55415,-2.0722"
   style="fill:none;stroke:#000000;stroke-linecap:round;stroke-linejoin:round;stroke-miterlimit:10;stroke-dasharray:none;stroke-opacity:1"
   id="path2428" />
&#10;&#10;0&quot; /&gt;&#10;   </g>
    </marker>
    <marker
       id="marker-arrow-1-1"
       orient="auto-start-reverse"
       refY="0"
       refX="0"
       markerHeight="3"
       markerWidth="2">
      <g
         transform="scale(1.3933333)"
         id="g2470"><path
   d="M -1.55415,2.0722 C -1.42464,1.29512 0,0.1295 0.38852,0 0,-0.1295 -1.42464,-1.29512 -1.55415,-2.0722"
   style="fill:none;stroke:#000000;stroke-linecap:round;stroke-linejoin:round;stroke-miterlimit:10;stroke-dasharray:none;stroke-opacity:1"
   id="path2468" />
&#10;&#10;0&quot; /&gt;&#10;   </g>
    </marker>
  </defs>
  <sodipodi:namedview
     id="base"
     pagecolor="#ffffff"
     bordercolor="#666666"
     borderopacity="1.0"
     inkscape:pageopacity="0.0"
     inkscape:pageshadow="2"
     inkscape:zoom="1.0196667"
     inkscape:cx="565.38082"
     inkscape:cy="139.26119"
     inkscape:document-units="mm"
     inkscape:current-layer="layer1"
     showgrid="false"
     showborder="true"
     width="200mm"
     showguides="true"
     inkscape:guide-bbox="true"
     inkscape:window-width="2560"
     inkscape:window-height="1387"
     inkscape:window-x="1728"
     inkscape:window-y="355"
     inkscape:window-maximized="0"
     inkscape:pagecheckerboard="0"
     inkscape:showpageshadow="2"
     inkscape:deskcolor="#d1d1d1">
    <inkscape:grid
       type="xygrid"
       id="grid815"
       units="mm"
       spacingx="10"
       spacingy="10"
       empspacing="4"
       dotted="false"
       originx="0"
       originy="0"
       visible="false" />
  </sodipodi:namedview>
  <metadata
     id="metadata5">
    <rdf:RDF>
      <cc:Work
         rdf:about="">
        <dc:format>image/svg+xml</dc:format>
        <dc:type
           rdf:resource="http://purl.org/dc/dcmitype/StillImage" />
      </cc:Work>
    </rdf:RDF>
  </metadata>
  <g
     inkscape:label="Layer 1"
     inkscape:groupmode="layer"
     id="layer1"
     transform="translate(0,-177)">
    <path
       style="fill:none;stroke:#000000;stroke-width:0.264583px;stroke-linecap:butt;stroke-linejoin:miter;stroke-opacity:1"
       d="m 132.30819,180.67517 v 50.26968"
       id="path41"
       sodipodi:nodetypes="cc" />
    <path
       style="fill:none;stroke:#000000;stroke-width:0.264621px;stroke-linecap:butt;stroke-linejoin:miter;stroke-opacity:1"
       d="m 131.94502,188.89631 c -3.78024,-2.4145 -8.57489,-3.17995 -12.919,-2.06247 -2.85734,0.73502 -5.45347,2.22049 -8.05314,3.61563 -2.59966,1.39514 -5.30187,2.73489 -8.22504,3.13457 -3.617141,0.49457 -7.318018,-0.48671 -10.932024,0.0303 -1.807003,0.25849 -3.604631,0.92194 -4.930194,2.17691 -0.662781,0.62749 -1.197158,1.39715 -1.511445,2.25403 -0.314287,0.85688 -0.403571,1.80141 -0.211704,2.69371 0.211289,0.98263 0.744804,1.85945 1.213149,2.74876 0.468346,0.8893 0.887626,1.85408 0.837709,2.85793 -0.0515,1.0357 -0.609451,1.99868 -1.35803,2.71628 -0.74858,0.71761 -1.677636,1.21709 -2.620438,1.64889 -0.942802,0.4318 -1.914528,0.80636 -2.816114,1.31867 -0.901586,0.51232 -1.743075,1.17898 -2.280448,2.06586 -0.505684,0.83458 -0.716292,1.83667 -0.632199,2.80887 0.08409,0.9722 0.456644,1.91195 1.026577,2.70405 1.139867,1.58419 3.023445,2.52832 4.952282,2.8259 1.928836,0.29757 3.906299,0.003 5.789062,-0.51081 1.882763,-0.51397 3.69859,-1.24451 5.556259,-1.84286 7.396028,-2.38226 15.397458,-2.62261 23.044208,-1.24288 4.89928,0.88399 9.68012,2.42216 14.17572,4.56085"
       id="path1040"
       inkscape:path-effect="#path-effect1042"
       inkscape:original-d="m 131.94502,188.89631 c -4.50124,-1.76406 -8.16449,-2.06247 -12.919,-2.06247 -6.8759,0 -11.71861,1.21149 -16.27818,6.7502 -3.369027,4.09252 -12.890095,4.10182 -17.585367,7.15491 -7.867747,5.11597 -0.03444,-7.9529 2.050858,5.60669 0.844588,5.49192 -13.336407,5.78217 -9.07503,7.7497 2.863259,1.322 34.667109,-19.2704 16.691981,5.98515 -3.199631,4.49557 25.614718,-24.1301 23.044208,-1.24288 -1.50579,13.40723 3.5274,4.74188 14.17572,4.56085"
       sodipodi:nodetypes="csssssssc" />
    <text
       xml:space="preserve"
       style="font-size:5.64444px;line-height:1.25;font-family:sans-serif;letter-spacing:0px;stroke-width:0.264583"
       x="163.30898"
       y="201.85858"
       id="text1214"><tspan
         sodipodi:role="line"
         id="tspan1212"
         style="stroke-width:0.264583"
         x="163.30898"
         y="201.85858">\(w^{k+1}\)</tspan></text>
    <text
       xml:space="preserve"
       style="font-size:5.64444px;line-height:1.25;font-family:sans-serif;letter-spacing:0px;stroke-width:0.264583"
       x="136.8175"
       y="201.89709"
       id="text2734"><tspan
         sodipodi:role="line"
         id="tspan2732"
         style="stroke-width:0.264583"
         x="136.8175"
         y="201.89709">\(\hat{y}^{k+1}\)</tspan></text>
    <text
       xml:space="preserve"
       style="font-size:5.64444px;line-height:1.25;font-family:sans-serif;letter-spacing:0px;stroke-width:0.264583"
       x="102.21152"
       y="210.45453"
       id="text2734-1"><tspan
         sodipodi:role="line"
         id="tspan2732-1"
         style="stroke-width:0.264583"
         x="102.21152"
         y="210.45453">\(y^\ast\)</tspan></text>
    <text
       xml:space="preserve"
       style="font-size:5.64444px;line-height:1.25;font-family:sans-serif;letter-spacing:0px;stroke-width:0.264583"
       x="79.915588"
       y="185.03221"
       id="text4475"><tspan
         sodipodi:role="line"
         id="tspan4473"
         style="stroke-width:0.264583"
         x="79.915588"
         y="185.03221">\(\mathbb{R}^m\)</tspan></text>
    <text
       xml:space="preserve"
       style="font-size:5.64444px;line-height:1.25;font-family:sans-serif;letter-spacing:0px;stroke-width:0.264583"
       x="120.81961"
       y="230.38208"
       id="text4475-0"><tspan
         sodipodi:role="line"
         id="tspan4473-4"
         style="stroke-width:0.264583"
         x="120.81961"
         y="230.38208">\(\mathbb{R}^m_+\)</tspan></text>
    <text
       xml:space="preserve"
       style="font-size:5.64444px;line-height:1.25;font-family:sans-serif;letter-spacing:0px;stroke-width:0.264583"
       x="137.66838"
       y="230.38208"
       id="text4475-4"><tspan
         sodipodi:role="line"
         id="tspan4473-5"
         style="stroke-width:0.264583"
         x="137.66838"
         y="230.38208">\(\mathbb{R}^m_-\)</tspan></text>
    <circle
       style="fill:#000000;stroke:#000000;stroke-width:0.499999;stroke-opacity:1"
       id="path11779"
       cx="132.37346"
       cy="-205.65053"
       r="0.32606179"
       transform="scale(1,-1)" />
    <circle
       style="fill:#000000;stroke:#000000;stroke-width:0.499999;stroke-opacity:1"
       id="path11779-0"
       cx="106.07146"
       cy="213.71783"
       r="0.32606179" />
    <circle
       style="fill:#000000;stroke:#000000;stroke-width:0.499999;stroke-opacity:1"
       id="path11779-9"
       cx="164.01482"
       cy="205.68677"
       r="0.32606179" />
    <path
       style="fill:none;stroke:#000000;stroke-width:0.264583px;stroke-linecap:butt;stroke-linejoin:miter;stroke-opacity:1"
       d="m 132.24779,205.7954 -26.45162,7.85904 58.41391,-7.95846"
       id="path199"
       sodipodi:nodetypes="ccc" />
    <text
       xml:space="preserve"
       style="font-size:5.64444px;line-height:1.25;font-family:sans-serif;letter-spacing:0px;word-spacing:0px;stroke-width:0.264583"
       x="166.29884"
       y="187.86366"
       id="text1417"><tspan
         sodipodi:role="line"
         id="tspan1415"
         style="stroke-width:0.264583"
         x="166.29884"
         y="187.86366">\(\Proj_{\mathbb{R}^m_+}\)</tspan></text>
    <path
       style="fill:none;fill-opacity:1;stroke:#000000;stroke-width:0.264583;stroke-linecap:butt;stroke-linejoin:miter;stroke-dasharray:none;stroke-opacity:1;marker-start:none;marker-end:url(#marker-arrow-1)"
       d="m 168.23465,189.32879 c -4.86589,0.69997 -9.44523,3.23622 -12.62002,6.98956 -2.16221,2.55624 -3.67792,5.65502 -4.36847,8.93109"
       id="path2073"
       inkscape:path-effect="#path-effect2075"
       inkscape:original-d="m 168.23465,189.32879 c -4.20641,2.33012 -8.41308,4.65997 -12.62002,6.98956 -4.20694,2.32958 -2.91205,5.95433 -4.36847,8.93109" />
    <path
       style="fill:none;fill-opacity:1;stroke:#000000;stroke-width:0.264583;stroke-linecap:butt;stroke-linejoin:miter;stroke-dasharray:0.79375, 0.79375;stroke-opacity:1;marker-start:none;marker-end:url(#marker-arrow-1)"
       d="M 164.33836,205.63471 H 132.17618"
       id="path2344"
       inkscape:path-effect="#path-effect2346"
       inkscape:original-d="m 164.33836,205.63471 c -12.24211,2.7e-4 -19.91954,2.7e-4 -32.16218,0"
       sodipodi:nodetypes="cc" />
    <path
       style="fill-opacity:0.12;stroke-width:0.980713;stroke-linejoin:round;stroke-dasharray:2.94214, 2.94214;stop-color:#000000"
       d="m 488.14618,169.53088 c -35.1393,-14.85948 -79.57472,-19.35645 -115.10962,-11.64935 -4.65335,1.00925 -15.24504,4.06819 -23.5371,6.79765 -8.29205,2.72945 -17.94504,5.35959 -21.45109,5.84474 -7.49776,1.0375 -16.22189,-0.0908 -21.49231,-2.77953 -7.111,-3.62776 -12.8624,-12.236 -12.80562,-19.16643 0.029,-3.54232 3.62015,-9.98787 6.97641,-12.52159 1.81173,-1.36773 7.60186,-4.57375 12.86694,-7.12449 17.54625,-8.5005 20.54839,-15.86315 12.78346,-31.350975 -3.92144,-7.821653 -4.48119,-10.563552 -3.15895,-15.473976 1.42323,-5.285481 4.08478,-8.982004 9.06441,-12.58923 7.15922,-5.186117 12.25765,-6.006432 38.37431,-6.174252 27.74546,-0.178287 25.78354,0.316936 52.52047,-13.257029 23.35902,-11.859044 27.95815,-13.306537 42.17064,-13.272465 9.64146,0.02312 12.35839,0.405099 18.72142,2.632128 4.09377,1.432799 9.05863,3.558204 11.03301,4.723121 l 3.5898,2.118032 v 63.649446 c 0,35.0072 -0.33099,63.60049 -0.73553,63.54063 -0.40455,-0.0598 -4.81933,-1.83573 -9.81065,-3.94643 z"
       id="path1632"
       transform="matrix(0.26458333,0,0,0.26458333,0,177)" />
  </g>
</svg>
