<?xml version="1.0" encoding="UTF-8" standalone="no"?>
<!-- Created with Inkscape (http://www.inkscape.org/) -->

<svg
   width="240mm"
   height="120mm"
   viewBox="0 0 240 120"
   version="1.1"
   id="svg8"
   inkscape:version="1.1.1 (c3084ef, 2021-09-22)"
   sodipodi:docname="random-graph-logn.svg"
   xmlns:inkscape="http://www.inkscape.org/namespaces/inkscape"
   xmlns:sodipodi="http://sodipodi.sourceforge.net/DTD/sodipodi-0.dtd"
   xmlns="http://www.w3.org/2000/svg"
   xmlns:svg="http://www.w3.org/2000/svg"
   xmlns:rdf="http://www.w3.org/1999/02/22-rdf-syntax-ns#"
   xmlns:cc="http://creativecommons.org/ns#"
   xmlns:dc="http://purl.org/dc/elements/1.1/">
  <defs
     id="defs2">
    <marker
       style="overflow:visible;"
       id="Arrow2Lend"
       refX="0.0"
       refY="0.0"
       orient="auto"
       inkscape:stockid="Arrow2Lend"
       inkscape:isstock="true">
      <path
         transform="scale(1.1) rotate(180) translate(1,0)"
         d="M 8.7185878,4.0337352 L -2.2072895,0.016013256 L 8.7185884,-4.0017078 C 6.9730900,-1.6296469 6.9831476,1.6157441 8.7185878,4.0337352 z "
         style="stroke:context-stroke;fill-rule:evenodd;fill:context-stroke;stroke-width:0.62500000;stroke-linejoin:round;"
         id="path2057" />
    </marker>
    <inkscape:path-effect
       effect="spiro"
       id="path-effect1330"
       is_visible="true"
       lpeversion="1" />
    <inkscape:path-effect
       effect="spiro"
       id="path-effect1317"
       is_visible="true"
       lpeversion="1" />
    <inkscape:path-effect
       effect="spiro"
       id="path-effect1288"
       is_visible="true"
       lpeversion="1" />
    <inkscape:path-effect
       effect="spiro"
       id="path-effect1275"
       is_visible="true"
       lpeversion="1" />
    <inkscape:path-effect
       effect="spiro"
       id="path-effect1262"
       is_visible="true"
       lpeversion="1" />
    <inkscape:path-effect
       effect="spiro"
       id="path-effect1249"
       is_visible="true"
       lpeversion="1" />
    <inkscape:path-effect
       effect="spiro"
       id="path-effect1236"
       is_visible="true"
       lpeversion="1" />
    <inkscape:path-effect
       effect="spiro"
       id="path-effect919"
       is_visible="true"
       lpeversion="1" />
    <inkscape:path-effect
       effect="spiro"
       id="path-effect903"
       is_visible="true"
       lpeversion="1" />
    <inkscape:path-effect
       effect="spiro"
       id="path-effect895"
       is_visible="true"
       lpeversion="1" />
  </defs>
  <sodipodi:namedview
     id="base"
     pagecolor="#ffffff"
     bordercolor="#666666"
     borderopacity="1.0"
     inkscape:pageopacity="0.0"
     inkscape:pageshadow="2"
     inkscape:zoom="0.75965146"
     inkscape:cx="267.88601"
     inkscape:cy="113.20981"
     inkscape:document-units="mm"
     inkscape:current-layer="layer1"
     showgrid="false"
     showborder="true"
     width="200mm"
     showguides="true"
     inkscape:guide-bbox="true"
     inkscape:window-width="1280"
     inkscape:window-height="638"
     inkscape:window-x="1680"
     inkscape:window-y="25"
     inkscape:window-maximized="0"
     inkscape:pagecheckerboard="0">
    <inkscape:grid
       type="xygrid"
       id="grid815"
       units="mm"
       spacingx="10"
       spacingy="10"
       empspacing="4"
       dotted="false" />
  </sodipodi:namedview>
  <metadata
     id="metadata5">
    <rdf:RDF>
      <cc:Work
         rdf:about="">
        <dc:format>image/svg+xml</dc:format>
        <dc:type
           rdf:resource="http://purl.org/dc/dcmitype/StillImage" />
        <dc:title />
      </cc:Work>
    </rdf:RDF>
  </metadata>
  <g
     inkscape:label="Layer 1"
     inkscape:groupmode="layer"
     id="layer1"
     transform="translate(0,-177)">
    <path
       style="fill:none;stroke:#000000;stroke-width:0.264583px;stroke-linecap:butt;stroke-linejoin:miter;stroke-opacity:1"
       d="m 38.766443,221.15081 c -1.279374,0.87981 -2.30151,2.12908 -2.910554,3.55734 -0.810923,1.90168 -0.875738,4.07784 -0.36734,6.08171 0.508399,2.00388 1.566108,3.84199 2.89432,5.42624 2.656426,3.16849 6.306805,5.30136 9.762024,7.57235 12.084736,7.94287 22.578673,18.25584 35.250043,25.2248 15.422775,8.48217 33.780124,11.56358 51.096394,8.40826 11.86926,-2.16278 23.10824,-7.14148 33.30967,-13.58258 5.72035,-3.61178 11.23399,-7.77817 15.19957,-13.25919 2.69258,-3.72155 4.63041,-8.05124 5.17431,-12.6124 0.51633,-4.32999 -0.24154,-8.77533 -1.95706,-12.78437 -1.71552,-4.00904 -4.36893,-7.5874 -7.55398,-10.56581 -6.3701,-5.95681 -14.69744,-9.43523 -23.15184,-11.57647 -10.32126,-2.61406 -21.0569,-3.40199 -31.6927,-2.91055 -19.55037,0.90334 -38.687828,6.06853 -58.211081,7.43808 -3.733729,0.26192 -7.580412,0.40838 -10.995428,1.94037 -3.732943,1.67461 -6.555063,4.82333 -9.701847,7.43808 -1.911523,1.58834 -3.971574,2.99785 -6.144501,4.20414 z"
       id="path893"
       inkscape:path-effect="#path-effect895"
       inkscape:original-d="m 38.766443,221.15081 c -0.970184,1.18578 -2.470308,2.08985 -2.910554,3.55734 -2.638496,8.79499 6.251027,14.23349 12.289004,19.0803 11.267485,9.04464 22.658843,18.13795 35.250043,25.2248 13.37834,7.52988 36.088464,11.69877 51.096394,8.40826 11.71262,-2.568 22.81792,-7.77714 33.30967,-13.58258 5.88282,-3.25516 11.03989,-7.97707 15.19957,-13.25919 2.81143,-3.57008 5.53312,-8.08241 5.17431,-12.6124 -1.54453,-19.49973 -14.7054,-29.28287 -32.66288,-34.92665 -10.12062,-3.18077 -21.08525,-2.74819 -31.6927,-2.91055 -27.948954,-0.42779 -32.207584,2.28221 -58.211081,7.43808 -3.650705,0.72385 -7.499694,0.66308 -10.995428,1.94037 -1.01034,0.36916 -8.327138,6.06337 -9.701847,7.43808 -2.477841,2.47784 -2.361914,4.20414 -6.144501,4.20414 z" />
    <path
       style="fill:none;stroke:#000000;stroke-width:0.264583px;stroke-linecap:butt;stroke-linejoin:miter;stroke-opacity:1"
       d="m 63.192128,222.35976 c 0.04935,0.46113 0.257376,0.89535 0.538647,1.26409 0.281272,0.36874 0.634014,0.67695 1.001239,0.96019 2.252847,1.73762 5.069258,2.58224 7.870526,3.07977 1.105476,0.19634 2.234378,0.34448 3.34908,0.21007 1.114701,-0.13442 2.225688,-0.57752 2.981556,-1.40776 0.706729,-0.77626 1.050399,-1.83406 1.109555,-2.88218 0.05916,-1.04812 -0.146324,-2.09418 -0.425155,-3.10626 -0.127362,-0.46229 -0.270951,-0.92219 -0.477371,-1.355 -0.206419,-0.43281 -0.478174,-0.8396 -0.835089,-1.15983 -0.356915,-0.32023 -0.803139,-0.55056 -1.279293,-0.60722 -0.476154,-0.0567 -0.980716,0.0709 -1.343517,0.38447 -0.257181,0.22226 -0.434292,0.5261 -0.548255,0.84634 -0.113963,0.32024 -0.168369,0.65835 -0.211214,0.99555 -0.04284,0.33721 -0.07482,0.67651 -0.146197,1.00884 -0.07138,0.33234 -0.184094,0.66028 -0.375313,0.94131 -0.220701,0.32436 -0.541325,0.5759 -0.900187,0.73445 -0.358862,0.15855 -0.754762,0.2261 -1.147022,0.21901 -0.784522,-0.0142 -1.536974,-0.31991 -2.219197,-0.70752 -0.682224,-0.38762 -1.313285,-0.8599 -1.993265,-1.25144 -0.679979,-0.39154 -1.427797,-0.70561 -2.211956,-0.73336 -0.708773,-0.0251 -1.434781,0.19949 -1.965954,0.66943 -0.265586,0.23497 -0.480418,0.52836 -0.616585,0.85578 -0.136168,0.32743 -0.192764,0.68867 -0.155033,1.04127 z"
       id="path901"
       inkscape:path-effect="#path-effect903"
       inkscape:original-d="m 63.192128,222.35976 c -2.250382,-1.04847 0.730396,1.82689 1.539886,2.22428 2.528919,1.24147 5.077732,2.70964 7.870526,3.07977 2.12903,0.28216 4.393176,-0.27107 6.330636,-1.19769 2.15688,-1.03155 1.76763,-4.59571 0.6844,-5.98844 -0.98104,-1.26134 -2.44666,-2.15666 -3.93527,-2.73758 -0.956345,-0.37321 -1.13604,7.90571 -1.280979,3.79204 -0.102671,-2.91404 -5.855159,-2.49244 -8.471627,-1.73886 -3.855668,1.28185 1.875797,4.67424 -2.737572,2.56648 z"
       sodipodi:nodetypes="csssssscc" />
    <path
       style="fill:none;stroke:#000000;stroke-width:0.264583px;stroke-linecap:butt;stroke-linejoin:miter;stroke-opacity:1"
       d="m 144.32013,261.97837 c -0.18062,0.13439 -0.37876,0.24348 -0.5629,0.37301 -0.18414,0.12954 -0.35758,0.28392 -0.46369,0.48248 -0.11989,0.22436 -0.14444,0.49346 -0.0898,0.74191 0.0546,0.24844 0.18485,0.47662 0.35356,0.66701 0.33742,0.38078 0.81245,0.60595 1.27612,0.81536 2.56831,1.15996 5.21164,2.14594 7.87053,3.07977 1.13595,0.39896 2.31323,0.79398 3.51435,0.71117 0.60056,-0.0414 1.19887,-0.20684 1.70739,-0.52902 0.50852,-0.32218 0.92235,-0.80749 1.1089,-1.37984 0.16244,-0.49836 0.14869,-1.04286 0.0251,-1.55225 -0.12358,-0.50939 -0.35273,-0.98751 -0.61503,-1.44132 -0.52461,-0.90762 -1.19485,-1.75068 -1.49994,-2.75363 -0.15855,-0.52123 -0.2124,-1.06865 -0.34969,-1.59588 -0.0686,-0.26361 -0.15867,-0.52307 -0.28959,-0.76195 -0.13093,-0.23888 -0.30404,-0.45724 -0.52174,-0.62099 -0.38318,-0.28822 -0.88525,-0.38967 -1.36279,-0.34657 -0.47754,0.0431 -0.93408,0.22065 -1.35783,0.44502 -0.84748,0.44874 -1.60536,1.09584 -2.5303,1.34898 -0.73954,0.2024 -1.52143,0.13435 -2.28812,0.12562 -0.38334,-0.004 -0.7686,0.007 -1.14594,0.0744 -0.37734,0.0677 -0.74808,0.19391 -1.06763,0.40571 -0.3372,0.22349 -0.60629,0.53371 -0.86661,0.84337 -0.26031,0.30967 -0.51981,0.62613 -0.84437,0.86762 z"
       id="path901-3"
       inkscape:path-effect="#path-effect1317"
       inkscape:original-d="m 144.32013,261.97837 c -0.3422,0.28516 -0.77951,0.48486 -1.02659,0.85549 -0.50021,0.75032 0.73039,1.82689 1.53988,2.22428 2.52892,1.24147 5.07774,2.70964 7.87053,3.07977 2.12903,0.28216 4.39318,-0.27107 6.33064,-1.19769 2.15688,-1.03155 -1.00662,-4.35447 -2.08985,-5.7472 -0.98104,-1.26134 0.32759,-2.3979 -1.16102,-2.97882 -0.95635,-0.37321 -4.2309,1.33152 -5.25092,1.44743 -2.8972,0.32923 -2.27415,-0.92568 -4.50169,0.60575 -0.94533,0.64992 -0.83894,0.97463 -1.71098,1.71099 z"
       sodipodi:nodetypes="cssssssssc" />
    <path
       style="fill:none;stroke:#000000;stroke-width:0.264583px;stroke-linecap:butt;stroke-linejoin:miter;stroke-opacity:1"
       d="m 129.73251,237.00233 c -0.37866,0.23716 -0.72503,0.5258 -1.02658,0.85549 -0.49378,0.53984 -0.86633,1.19168 -1.06968,1.89445 -0.20336,0.70278 -0.23618,1.45567 -0.0834,2.17114 0.1528,0.71547 0.49207,1.39176 0.98286,1.93432 0.4908,0.54256 1.13278,0.94899 1.83637,1.1495 0.64882,0.18491 1.33919,0.19473 2.00637,0.0946 0.66717,-0.10018 1.31398,-0.30774 1.943,-0.55165 1.25805,-0.4878 2.47093,-1.12783 3.79487,-1.38827 1.06858,-0.21021 2.1687,-0.16452 3.25501,-0.24178 1.08632,-0.0772 2.20815,-0.29747 3.07562,-0.95591 0.87799,-0.66642 1.4058,-1.74184 1.49675,-2.84035 0.0909,-1.09851 -0.23277,-2.2105 -0.81235,-3.14809 -0.86477,-1.39894 -2.31961,-2.43015 -3.93527,-2.73758 -1.01231,-0.19263 -2.05512,-0.10949 -3.07976,0 -2.34134,0.25019 -4.76505,0.67304 -6.67284,2.05318 -0.65626,0.47476 -1.23623,1.05473 -1.71099,1.71099 z"
       id="path901-1"
       inkscape:path-effect="#path-effect1330"
       inkscape:original-d="m 129.73251,237.00233 c -0.34219,0.28516 -0.7795,0.48486 -1.02658,0.85549 -0.50021,0.75032 1.42967,6.2792 1.66617,7.14941 6.95873,25.60544 4.95144,-2.21549 7.74424,-1.84536 2.12903,0.28216 4.39317,-0.27107 6.33063,-1.19769 2.15688,-1.03155 1.76763,-4.59571 0.6844,-5.98844 -0.98104,-1.26134 -2.44666,-2.15666 -3.93527,-2.73758 -0.95634,-0.37321 -2.05974,-0.11591 -3.07976,0 -2.89721,0.32923 -4.4453,0.52175 -6.67284,2.05318 -0.94533,0.64992 -0.39136,1.71099 -1.71099,1.71099 z"
       sodipodi:nodetypes="cssssssssc" />
    <path
       style="fill:none;stroke:#000000;stroke-width:0.264583px;stroke-linecap:butt;stroke-linejoin:miter;stroke-opacity:1"
       d="m 99.001458,220.32315 c 0.579673,-0.0606 1.105202,-0.35513 1.661222,-0.52987 0.83928,-0.26376 1.74425,-0.25119 2.61318,-0.11366 0.86893,0.13753 1.71328,0.39585 2.56431,0.61878 0.85104,0.22294 1.72017,0.41202 2.59989,0.40602 0.87973,-0.006 1.77873,-0.22027 2.48852,-0.74004 0.75333,-0.55165 1.24994,-1.43625 1.34167,-2.36545 0.0917,-0.92921 -0.21914,-1.88882 -0.82837,-2.5964 -0.38614,-0.44848 -0.8829,-0.79521 -1.4215,-1.04045 -0.53861,-0.24525 -1.11882,-0.39131 -1.7052,-0.47124 -1.17278,-0.15985 -2.36291,-0.0585 -3.54614,-0.0282 -1.22314,0.0314 -2.45258,-0.0132 -3.66526,0.14948 -1.212674,0.16272 -2.429836,0.55145 -3.360908,1.34527 -0.465537,0.39692 -0.851908,0.89205 -1.092492,1.45453 -0.240584,0.56248 -0.331647,1.19305 -0.226538,1.79573 0.105109,0.60267 0.411331,1.17389 0.877233,1.57038 0.465902,0.39648 1.091929,0.60874 1.700383,0.54512 z"
       id="path917"
       inkscape:path-effect="#path-effect919"
       inkscape:original-d="m 99.001458,220.32315 c -1.890279,-2.49352 0.740188,-2.19649 1.661222,-0.52987 2.56324,4.63824 8.20194,5.56034 10.2659,0.1711 0.59469,-1.55279 0.64416,-3.30423 0.5133,-4.96185 -0.20677,-2.61906 -5.21281,-1.71165 -6.67284,-1.53989 -0.87633,0.15108 -3.83979,9.69141 -5.767582,6.86051 z"
       sodipodi:nodetypes="cssscc" />
    <path
       style="fill:none;stroke:#000000;stroke-width:0.264583px;stroke-linecap:butt;stroke-linejoin:miter;stroke-opacity:1"
       d="m 80.205632,252.66779 c -0.921703,-0.0248 -1.836558,0.39093 -2.4594,1.0708 -0.622842,0.67986 -0.954978,1.60705 -0.953461,2.52908 0.0015,0.92204 0.327384,1.83304 0.872236,2.57687 0.544852,0.74384 1.301944,1.32249 2.143552,1.69911 1.600335,0.71616 3.415795,0.6972 5.167209,0.77788 0.875707,0.0403 1.754599,0.10939 2.606998,0.31409 0.8524,0.20471 1.681939,0.55072 2.365403,1.09969 0.509735,0.40943 0.940069,0.93123 1.52359,1.22613 0.375934,0.18999 0.802792,0.2755 1.223441,0.25369 0.42065,-0.0218 0.834347,-0.15004 1.19809,-0.36244 0.727487,-0.42479 1.23625,-1.18284 1.418474,-2.00533 0.182224,-0.82248 0.05102,-1.69979 -0.303249,-2.46411 -0.354264,-0.76432 -0.92302,-1.41863 -1.590127,-1.93308 -1.334213,-1.02889 -3.01183,-1.49102 -4.658338,-1.84846 -1.646507,-0.35743 -3.334973,-0.64159 -4.845131,-1.3887 -0.606351,-0.29998 -1.175276,-0.6708 -1.778498,-0.97702 -0.603222,-0.30622 -1.254537,-0.55001 -1.930789,-0.5682 z"
       id="path917-1"
       inkscape:path-effect="#path-effect1236"
       inkscape:original-d="m 80.205632,252.66779 c -1.424268,0.27849 -1.318103,6.20924 -0.397073,7.87586 2.56324,4.63824 8.07565,7.5809 10.13961,2.19166 0.59469,-1.55279 1.65445,2.88375 1.52359,1.22613 -0.20677,-2.61906 -6.09681,-9.92019 -7.55684,-9.74843 -0.87633,0.15108 -2.346524,-1.75223 -3.709287,-1.54522 z"
       sodipodi:nodetypes="cssscc" />
    <path
       style="fill:none;stroke:#000000;stroke-width:0.264583px;stroke-linecap:butt;stroke-linejoin:miter;stroke-opacity:1"
       d="m 156.96685,230.92018 c 0.57652,-0.43691 1.00614,-1.03391 1.46608,-1.59224 0.45994,-0.55832 0.98116,-1.10182 1.65362,-1.36842 0.5413,-0.2146 1.14849,-0.2322 1.71838,-0.1127 0.5699,0.1195 1.10557,0.37063 1.60088,0.67677 0.99063,0.6123 1.8326,1.44488 2.83399,2.0394 0.5007,0.29726 1.04377,0.53426 1.61756,0.63336 0.5738,0.0991 1.18109,0.0542 1.71013,-0.18904 0.52905,-0.24326 0.97145,-0.69601 1.14387,-1.25218 0.0862,-0.27809 0.10441,-0.57804 0.0443,-0.86292 -0.0601,-0.28487 -0.19932,-0.55376 -0.40321,-0.76159 -0.25577,-0.26072 -0.60046,-0.4167 -0.95052,-0.52088 -0.35006,-0.10418 -0.71233,-0.16213 -1.06421,-0.26 -0.93304,-0.2595 -1.76797,-0.79261 -2.52514,-1.39644 -0.75717,-0.60382 -1.45072,-1.2838 -2.20306,-1.89363 -1.69049,-1.37027 -3.72626,-2.38979 -5.89484,-2.57051 -1.08429,-0.0904 -2.19062,0.0321 -3.21426,0.40093 -1.02363,0.36881 -1.96215,0.98744 -2.67088,1.813 -0.70873,0.82557 -1.18149,1.85961 -1.29787,2.94142 -0.11639,1.0818 0.13165,2.20661 0.72946,3.11572 0.59781,0.9091 1.54802,1.58924 2.61134,1.81991 1.06331,0.23067 2.22722,-0.003 3.09438,-0.65996 z"
       id="path917-5"
       inkscape:path-effect="#path-effect1249"
       inkscape:original-d="m 156.96685,230.92018 c -7.28664,0.18036 2.19867,-4.62728 3.1197,-2.96066 2.56324,4.63824 8.20194,5.56034 10.2659,0.1711 0.59469,-1.55279 -1.88387,0.87674 -2.01473,-0.78088 -0.20677,-2.61906 -3.26817,-3.46183 -4.7282,-3.29007 -0.87633,0.15108 -3.06193,6.58 -6.64267,6.86051 z"
       sodipodi:nodetypes="cssscc" />
    <path
       style="fill:none;stroke:#000000;stroke-width:0.264583px;stroke-linecap:butt;stroke-linejoin:miter;stroke-opacity:1"
       d="m 131.75208,216.22896 c 0.0227,0.31485 0.13088,0.62082 0.29453,0.89076 0.16365,0.26994 0.38168,0.5047 0.62661,0.70385 0.48985,0.39829 1.07894,0.6519 1.66378,0.88971 1.6578,0.6741 3.37381,1.26725 5.15751,1.41265 1.7837,0.14541 3.6579,-0.19331 5.10839,-1.24155 0.40576,-0.29323 0.77567,-0.64014 1.0689,-1.0459 0.29323,-0.40576 0.50845,-0.8718 0.59623,-1.36467 0.0878,-0.49287 0.0447,-1.01269 -0.15192,-1.47308 -0.19661,-0.4604 -0.55067,-0.85729 -0.99991,-1.0782 -0.37273,-0.18328 -0.79841,-0.24232 -1.21292,-0.21591 -0.41451,0.0264 -0.81994,0.13511 -1.21165,0.27326 -0.78341,0.27629 -1.53314,0.67458 -2.35399,0.80218 -0.82494,0.12824 -1.66778,-0.0264 -2.47419,-0.24245 -0.80641,-0.21604 -1.59931,-0.49454 -2.42448,-0.62122 -0.82518,-0.12668 -1.70469,-0.0901 -2.44422,0.29722 -0.36977,0.19368 -0.69734,0.47418 -0.92394,0.82474 -0.22661,0.35055 -0.34873,0.77227 -0.31873,1.18861 z"
       id="path917-0"
       inkscape:path-effect="#path-effect1262"
       inkscape:original-d="m 131.75208,216.22896 c 0.92944,3.72932 1.66389,0.8177 2.58492,2.48432 2.56324,4.63824 8.20194,5.56034 10.2659,0.1711 0.59469,-1.55279 0.64416,-3.30423 0.5133,-4.96185 -0.20677,-2.61906 -3.31853,0.68777 -4.77856,0.85953 -0.87633,0.15108 -8.84548,0.53438 -8.58556,1.4469 z"
       sodipodi:nodetypes="cssscc" />
    <path
       style="fill:none;stroke:#000000;stroke-width:0.264583px;stroke-linecap:butt;stroke-linejoin:miter;stroke-opacity:1"
       d="m 115.11474,260.30859 c -0.23093,0.50092 -0.28676,1.07562 -0.18711,1.61813 0.0997,0.54251 0.35076,1.05248 0.69576,1.48286 0.69001,0.86075 1.72671,1.38434 2.7912,1.67392 2.23468,0.6079 4.62228,0.27667 6.8562,-0.33404 1.07975,-0.29518 2.17677,-0.67441 3.00185,-1.43088 0.41254,-0.37823 0.74781,-0.84868 0.92588,-1.37929 0.17806,-0.5306 0.19215,-1.12263 -0.005,-1.64654 -0.21658,-0.57634 -0.67701,-1.0423 -1.21805,-1.33615 -0.54105,-0.29386 -1.15855,-0.42585 -1.7733,-0.46001 -1.22949,-0.0683 -2.45021,0.23987 -3.68149,0.25627 -1.34717,0.0179 -2.68325,-0.31357 -4.02972,-0.26639 -0.67323,0.0236 -1.35148,0.14524 -1.95757,0.43927 -0.6061,0.29402 -1.13689,0.77108 -1.41892,1.38285 z"
       id="path917-2"
       inkscape:path-effect="#path-effect1275"
       inkscape:original-d="m 115.11474,260.30859 c -1.0748,0.10723 2.37882,3.10829 3.29985,4.77491 2.56324,4.63824 4.79224,5.0552 6.8562,-0.33404 0.59469,-1.55279 4.05386,-2.79909 3.923,-4.45671 -0.20677,-2.61906 -5.21281,-1.71165 -6.67284,-1.53989 -0.87633,0.15108 -1.16165,0.6627 -7.40621,1.55573 z"
       sodipodi:nodetypes="cssscc" />
    <path
       style="fill:none;stroke:#000000;stroke-width:0.264583px;stroke-linecap:butt;stroke-linejoin:miter;stroke-opacity:1"
       d="m 106.24638,234.05123 c -0.63454,0.17615 -1.20964,0.55983 -1.61595,1.07808 -0.40631,0.51825 -0.64166,1.1683 -0.66129,1.82654 -0.0168,0.56308 0.12222,1.12805 0.38439,1.62665 0.26218,0.49861 0.64577,0.93079 1.10044,1.26338 0.90934,0.66519 2.08525,0.91606 3.206,0.80079 1.12075,-0.11528 2.1876,-0.57722 3.1165,-1.2148 0.9289,-0.63758 1.72825,-1.44701 2.45857,-2.30492 1.25877,-1.47868 2.36321,-3.20991 2.51967,-5.1455 0.0782,-0.9678 -0.0941,-1.96658 -0.56859,-2.81366 -0.47455,-0.84709 -1.26311,-1.53056 -2.19549,-1.80153 -0.57945,-0.1684 -1.20056,-0.17669 -1.79174,-0.0557 -0.59117,0.121 -1.15289,0.36888 -1.65952,0.69668 -1.01326,0.6556 -1.79367,1.61429 -2.46387,2.61796 -0.72007,1.07835 -1.33371,2.22773 -1.82912,3.42602 z"
       id="path917-06"
       inkscape:path-effect="#path-effect1288"
       inkscape:original-d="m 106.24638,234.05123 c -0.57765,0.66652 -3.19827,1.238 -2.27724,2.90462 2.56324,4.63824 8.20194,5.56034 10.2659,0.1711 0.59469,-1.55279 -0.11355,-8.10307 -0.24441,-9.76069 -0.20677,-2.61906 -4.4551,3.08719 -5.91513,3.25895 -0.87633,0.15108 -2.08904,2.5135 -1.82912,3.42602 z"
       sodipodi:nodetypes="cssscc" />
    <path
       style="fill:none;stroke:#000000;stroke-width:0.265;stroke-linecap:butt;stroke-linejoin:miter;stroke-opacity:1;stroke-miterlimit:4;stroke-dasharray:none;marker-end:url(#Arrow2Lend)"
       d="m 171.33,222.10007 18.01499,-11.19988"
       id="path2015"
       sodipodi:nodetypes="cc" />
    <text
       xml:space="preserve"
       style="font-size:5.64444px;line-height:1.25;font-family:sans-serif;letter-spacing:0px;stroke-width:0.264583"
       x="184.90434"
       y="207.96771"
       id="text2394"><tspan
         sodipodi:role="line"
         id="tspan2392"
         style="stroke-width:0.264583"
         x="184.90434"
         y="207.96771">\(\log(n)\)</tspan></text>
  </g>
</svg>
