<?xml version="1.0" encoding="UTF-8" standalone="no"?>
<!-- Created with Inkscape (http://www.inkscape.org/) -->

<svg
   width="240mm"
   height="120mm"
   viewBox="0 0 240 120"
   version="1.1"
   id="svg8"
   inkscape:version="1.1.1 (c3084ef, 2021-09-22)"
   sodipodi:docname="random-graph-n^c.svg"
   xmlns:inkscape="http://www.inkscape.org/namespaces/inkscape"
   xmlns:sodipodi="http://sodipodi.sourceforge.net/DTD/sodipodi-0.dtd"
   xmlns="http://www.w3.org/2000/svg"
   xmlns:svg="http://www.w3.org/2000/svg"
   xmlns:rdf="http://www.w3.org/1999/02/22-rdf-syntax-ns#"
   xmlns:cc="http://creativecommons.org/ns#"
   xmlns:dc="http://purl.org/dc/elements/1.1/">
  <defs
     id="defs2">
    <inkscape:path-effect
       effect="spiro"
       id="path-effect1205"
       is_visible="true"
       lpeversion="1" />
    <inkscape:path-effect
       effect="spiro"
       id="path-effect895"
       is_visible="true"
       lpeversion="1" />
    <inkscape:path-effect
       effect="spiro"
       id="path-effect903"
       is_visible="true"
       lpeversion="1" />
    <inkscape:path-effect
       effect="spiro"
       id="path-effect1317"
       is_visible="true"
       lpeversion="1" />
    <inkscape:path-effect
       effect="spiro"
       id="path-effect1330"
       is_visible="true"
       lpeversion="1" />
    <inkscape:path-effect
       effect="spiro"
       id="path-effect919"
       is_visible="true"
       lpeversion="1" />
    <inkscape:path-effect
       effect="spiro"
       id="path-effect1236"
       is_visible="true"
       lpeversion="1" />
    <inkscape:path-effect
       effect="spiro"
       id="path-effect1249"
       is_visible="true"
       lpeversion="1" />
    <inkscape:path-effect
       effect="spiro"
       id="path-effect1262"
       is_visible="true"
       lpeversion="1" />
    <inkscape:path-effect
       effect="spiro"
       id="path-effect1275"
       is_visible="true"
       lpeversion="1" />
    <inkscape:path-effect
       effect="spiro"
       id="path-effect1288"
       is_visible="true"
       lpeversion="1" />
    <marker
       style="overflow:visible"
       id="Arrow2Lend"
       refX="0"
       refY="0"
       orient="auto"
       inkscape:stockid="Arrow2Lend"
       inkscape:isstock="true">
      <path
         transform="matrix(-1.1,0,0,-1.1,-1.1,0)"
         d="M 8.7185878,4.0337352 -2.2072895,0.01601326 8.7185884,-4.0017078 c -1.7454984,2.3720609 -1.7354408,5.6174519 -6e-7,8.035443 z"
         style="fill:context-stroke;fill-rule:evenodd;stroke:context-stroke;stroke-width:0.625;stroke-linejoin:round"
         id="path2057" />
    </marker>
  </defs>
  <sodipodi:namedview
     id="base"
     pagecolor="#ffffff"
     bordercolor="#666666"
     borderopacity="1.0"
     inkscape:pageopacity="0.0"
     inkscape:pageshadow="2"
     inkscape:zoom="3.8636279"
     inkscape:cx="290.78888"
     inkscape:cy="204.47104"
     inkscape:document-units="mm"
     inkscape:current-layer="layer1"
     showgrid="false"
     showborder="true"
     width="200mm"
     showguides="true"
     inkscape:guide-bbox="true"
     inkscape:window-width="1280"
     inkscape:window-height="638"
     inkscape:window-x="1680"
     inkscape:window-y="25"
     inkscape:window-maximized="0"
     inkscape:pagecheckerboard="0">
    <inkscape:grid
       type="xygrid"
       id="grid815"
       units="mm"
       spacingx="10"
       spacingy="10"
       empspacing="4"
       dotted="false" />
  </sodipodi:namedview>
  <metadata
     id="metadata5">
    <rdf:RDF>
      <cc:Work
         rdf:about="">
        <dc:format>image/svg+xml</dc:format>
        <dc:type
           rdf:resource="http://purl.org/dc/dcmitype/StillImage" />
        <dc:title />
      </cc:Work>
    </rdf:RDF>
  </metadata>
  <g
     inkscape:label="Layer 1"
     inkscape:groupmode="layer"
     id="layer1"
     transform="translate(0,-177)">
    <path
       style="fill:none;stroke:#000000;stroke-width:0.264583px;stroke-linecap:butt;stroke-linejoin:miter;stroke-opacity:1"
       d="m 44.776325,221.88053 c -1.279374,0.87981 -2.30151,2.12908 -2.910554,3.55734 -0.810923,1.90168 -0.875738,4.07784 -0.36734,6.08171 0.508399,2.00388 1.566108,3.84199 2.89432,5.42624 2.656426,3.16849 6.306805,5.30136 9.762024,7.57235 12.084736,7.94287 22.578673,18.25584 35.250043,25.2248 15.422772,8.48217 33.780122,11.56358 51.096392,8.40826 11.86926,-2.16278 23.10824,-7.14148 33.30967,-13.58258 5.72035,-3.61178 11.23399,-7.77817 15.19957,-13.25919 2.69258,-3.72155 4.63041,-8.05124 5.17431,-12.6124 0.51633,-4.32999 -0.24154,-8.77533 -1.95706,-12.78437 -1.71552,-4.00904 -4.36893,-7.5874 -7.55398,-10.56581 -6.3701,-5.95681 -14.69744,-9.43523 -23.15184,-11.57647 -10.32126,-2.61406 -21.0569,-3.40199 -31.6927,-2.91055 -19.55037,0.90334 -38.687827,6.06853 -58.211079,7.43808 -3.733729,0.26192 -7.580412,0.40838 -10.995428,1.94037 -3.732943,1.67461 -6.555063,4.82333 -9.701847,7.43808 -1.911523,1.58834 -3.971574,2.99785 -6.144501,4.20414 z"
       id="path893"
       inkscape:path-effect="#path-effect895"
       inkscape:original-d="m 44.776325,221.88053 c -0.970184,1.18578 -2.470308,2.08985 -2.910554,3.55734 -2.638496,8.79499 6.251027,14.23349 12.289004,19.0803 11.267485,9.04464 22.658843,18.13795 35.250043,25.2248 13.378342,7.52988 36.088462,11.69877 51.096392,8.40826 11.71262,-2.568 22.81792,-7.77714 33.30967,-13.58258 5.88282,-3.25516 11.03989,-7.97707 15.19957,-13.25919 2.81143,-3.57008 5.53312,-8.08241 5.17431,-12.6124 -1.54453,-19.49973 -14.7054,-29.28287 -32.66288,-34.92665 -10.12062,-3.18077 -21.08525,-2.74819 -31.6927,-2.91055 -27.94895,-0.42779 -32.207582,2.28221 -58.211079,7.43808 -3.650705,0.72385 -7.499694,0.66308 -10.995428,1.94037 -1.01034,0.36916 -8.327138,6.06337 -9.701847,7.43808 -2.477841,2.47784 -2.361914,4.20414 -6.144501,4.20414 z" />
    <path
       style="fill:none;stroke:#000000;stroke-width:0.264583px;stroke-linecap:butt;stroke-linejoin:miter;stroke-opacity:1"
       d="m 62.864423,229.26454 c -0.136832,0.18786 -0.346123,0.31297 -0.566075,0.38804 -0.219951,0.0751 -0.452454,0.10436 -0.68308,0.13309 -0.230626,0.0287 -0.463136,0.0577 -0.683276,0.13224 -0.220139,0.0745 -0.429831,0.19878 -0.567604,0.38595 -0.155524,0.21128 -0.20637,0.49001 -0.162388,0.74864 0.04398,0.25864 0.177239,0.49717 0.354245,0.69081 0.354013,0.38729 0.860495,0.59086 1.348029,0.78483 2.617926,1.04157 5.20905,2.15513 7.870526,3.07977 1.126771,0.39146 2.301088,0.75326 3.490181,0.65886 0.594546,-0.0472 1.185166,-0.21212 1.693388,-0.52424 0.508223,-0.31213 0.930287,-0.77668 1.147067,-1.33231 0.166005,-0.42549 0.208951,-0.89296 0.165184,-1.34758 -0.04377,-0.45462 -0.17192,-0.89784 -0.338012,-1.32329 -0.332186,-0.85091 -0.816001,-1.63755 -1.128708,-2.4958 -0.238667,-0.65504 -0.375168,-1.34527 -0.638587,-1.99076 -0.13171,-0.32274 -0.295759,-0.63439 -0.511569,-0.90814 -0.215811,-0.27374 -0.485141,-0.50915 -0.799178,-0.66045 -0.469501,-0.2262 -1.011324,-0.25351 -1.530396,-0.207 -0.519073,0.0465 -1.030143,0.16225 -1.54937,0.207 -1.278133,0.11017 -2.564553,-0.21218 -3.842436,-0.0991 -0.638941,0.0565 -1.279756,0.22793 -1.810119,0.5887 -0.265181,0.18039 -0.50022,0.40711 -0.679164,0.67327 -0.178943,0.26616 -0.300915,0.57216 -0.341121,0.89035 -0.0328,0.25955 -0.01148,0.52269 -0.02305,0.78404 -0.01157,0.26136 -0.06046,0.53165 -0.214485,0.74312 z"
       id="path901"
       inkscape:path-effect="#path-effect903"
       inkscape:original-d="m 62.864423,229.26454 c -0.513557,0.50548 -2.252951,0.66869 -2.500035,1.03932 -0.50021,0.75032 0.730396,1.82689 1.539886,2.22428 2.528919,1.24147 5.077732,2.70964 7.870526,3.07977 2.12903,0.28216 4.393176,-0.27107 6.330636,-1.19769 2.15688,-1.03155 -0.218306,-3.77394 -1.301536,-5.16667 -0.98104,-1.26134 -0.460724,-2.97843 -1.949334,-3.55935 -0.956345,-0.37321 -2.059742,-0.11591 -3.079766,0 -2.897204,0.32923 -4.445299,0.52175 -6.67284,2.05318 -0.945332,0.64992 1.473446,-0.18383 -0.237537,1.52716 z"
       sodipodi:nodetypes="cssssssssc" />
    <path
       style="fill:none;stroke:#000000;stroke-width:0.264583px;stroke-linecap:butt;stroke-linejoin:miter;stroke-opacity:1"
       d="m 91.967241,250.6552 c -0.393651,0.17352 -0.708081,0.50785 -0.883649,0.90059 -0.175568,0.39274 -0.216153,0.83987 -0.142941,1.26379 0.07856,0.4549 0.284129,0.88235 0.558273,1.25377 0.274144,0.37143 0.615612,0.68916 0.981607,0.97051 1.122621,0.86299 2.46761,1.38599 3.820199,1.80495 1.352589,0.41896 2.736571,0.74656 4.05033,1.27482 1.51089,0.60753 2.90301,1.46986 4.33029,2.25392 1.42728,0.78406 2.92079,1.50104 4.52538,1.77882 1.57349,0.27239 3.22663,0.10315 4.69676,-0.52035 1.47014,-0.6235 2.74907,-1.70422 3.5746,-3.07118 0.82552,-1.36695 1.18694,-3.0159 0.96894,-4.59784 -0.218,-1.58194 -1.0217,-3.0832 -2.24331,-4.11166 -0.84089,-0.70794 -1.85971,-1.18645 -2.92036,-1.47507 -1.06065,-0.28861 -2.16451,-0.39264 -3.26366,-0.40484 -2.19829,-0.0244 -4.39224,0.31342 -6.58887,0.22449 -1.02812,-0.0416 -2.06598,-0.17608 -3.07977,0 -1.122295,0.19493 -2.140769,0.75703 -3.15587,1.27386 -1.015101,0.51683 -2.087355,1.00572 -3.226105,1.03383 -0.337294,0.008 -0.674353,-0.0243 -1.011749,-0.0239 -0.337397,3.5e-4 -0.681362,0.0354 -0.990095,0.1715 z"
       id="path901-3"
       inkscape:path-effect="#path-effect1317"
       inkscape:original-d="m 91.967241,250.6552 c -2.450965,0.32152 -0.77951,1.79375 -1.02659,2.16438 -0.50021,0.75032 0.73039,1.82689 1.53988,2.22428 2.52892,1.24147 5.07774,2.70964 7.870529,3.07977 2.12903,0.28216 6.91821,4.95936 8.85567,4.03274 2.15688,-1.03155 8.08022,-10.9083 6.99699,-12.30103 -0.98104,-1.26134 -11.28428,-1.0745 -12.77289,-1.65542 -0.95635,-0.37321 -2.05975,-0.11591 -3.07977,0 -2.897199,0.32923 -4.154435,0.77626 -6.381975,2.30769 -0.94533,0.64992 0.735748,-0.14327 -2.001844,0.14759 z"
       sodipodi:nodetypes="cssssssssc" />
    <path
       style="fill:none;stroke:#000000;stroke-width:0.264583px;stroke-linecap:butt;stroke-linejoin:miter;stroke-opacity:1"
       d="m 154.47446,251.69632 c -0.40223,0.20058 -0.75676,0.49602 -1.02658,0.85549 -0.39421,0.52518 -0.60119,1.17816 -0.63893,1.83375 -0.0377,0.65558 0.0879,1.314 0.30998,1.93199 0.44407,1.236 1.25592,2.2981 1.99512,3.38367 1.03705,1.52299 1.96553,3.14734 3.2945,4.42359 0.66448,0.63812 1.42834,1.18333 2.28241,1.52874 0.85406,0.34541 1.80221,0.48446 2.70841,0.31849 0.95294,-0.17453 1.82798,-0.68069 2.52441,-1.35414 0.69644,-0.67345 1.22205,-1.50871 1.61988,-2.39205 0.79565,-1.76668 1.09025,-3.71129 1.64526,-5.56768 0.29424,-0.98417 0.66337,-1.94903 0.86205,-2.95685 0.19868,-1.00782 0.21705,-2.08323 -0.17765,-3.03159 -0.32091,-0.77107 -0.90384,-1.4199 -1.60205,-1.87821 -0.69822,-0.4583 -1.50779,-0.7321 -2.33322,-0.85937 -1.01727,-0.15685 -2.055,-0.0965 -3.07976,0 -2.34573,0.22084 -4.76753,0.66718 -6.67284,2.05318 -0.65492,0.47641 -1.23458,1.05607 -1.71099,1.71099 z"
       id="path901-1"
       inkscape:path-effect="#path-effect1330"
       inkscape:original-d="m 154.47446,251.69632 c -0.34219,0.28516 -0.7795,0.48486 -1.02658,0.85549 -0.50021,0.75032 1.42967,6.2792 1.66617,7.14941 6.95873,25.60544 5.49252,5.90069 8.28532,6.27082 2.12903,0.28216 3.85209,-8.38725 5.78955,-9.31387 2.15688,-1.03155 1.76763,-4.59571 0.6844,-5.98844 -0.98104,-1.26134 -2.44666,-2.15666 -3.93527,-2.73758 -0.95634,-0.37321 -2.05974,-0.11591 -3.07976,0 -2.89721,0.32923 -4.4453,0.52175 -6.67284,2.05318 -0.94533,0.64992 -0.39136,1.71099 -1.71099,1.71099 z"
       sodipodi:nodetypes="cssssssssc" />
    <path
       style="fill:none;stroke:#000000;stroke-width:0.264583px;stroke-linecap:butt;stroke-linejoin:miter;stroke-opacity:1"
       d="m 96.546121,222.41426 c -0.750954,0.72315 -1.493047,1.47011 -2.051599,2.35039 -0.558552,0.88028 -0.926384,1.91342 -0.857061,2.95365 0.07633,1.14542 0.696091,2.2293 1.60328,2.93275 0.907189,0.70344 2.081371,1.03271 3.227908,0.97546 1.146536,-0.0572 2.261181,-0.48858 3.192721,-1.15944 0.93154,-0.67086 1.68391,-1.57448 2.24198,-2.57767 0.41952,-0.75413 0.73482,-1.57414 0.84987,-2.4294 0.11505,-0.85526 0.023,-1.74795 -0.33657,-2.53245 -0.54172,-1.18204 -1.6878,-2.05084 -2.95974,-2.32071 -1.27194,-0.26986 -2.642506,0.0429 -3.713103,0.78082 -0.433448,0.29875 -0.818489,0.66144 -1.197686,1.0266 z"
       id="path917"
       inkscape:path-effect="#path-effect919"
       inkscape:original-d="m 96.546121,222.41426 c -1.982064,1.50917 -3.8297,3.63742 -2.90866,5.30404 2.56323,4.63824 8.201929,5.56034 10.265889,0.1711 0.59469,-1.55279 0.64416,-3.30423 0.5133,-4.96185 -0.20677,-2.61906 -5.212813,-1.71165 -6.672843,-1.53989 -0.87633,0.15108 0,0 -1.197686,1.0266 z"
       sodipodi:nodetypes="cssscc" />
    <path
       style="fill:none;stroke:#000000;stroke-width:0.264583px;stroke-linecap:butt;stroke-linejoin:miter;stroke-opacity:1"
       d="m 175.95467,237.46177 c -0.50822,0.86029 -1.38051,1.42654 -2.12006,2.09845 -0.36977,0.33595 -0.7143,0.7084 -0.95471,1.14635 -0.24041,0.43795 -0.37141,0.94807 -0.29678,1.44206 0.052,0.34401 0.20267,0.67087 0.4206,0.94206 0.21793,0.2712 0.50181,0.48715 0.81594,0.63671 0.62825,0.29911 1.3628,0.32736 2.04149,0.1739 0.67869,-0.15346 1.30779,-0.47839 1.89009,-0.85931 0.5823,-0.38092 1.12438,-0.81947 1.68808,-1.2274 0.82831,-0.59942 1.70816,-1.13656 2.45242,-1.83761 0.74425,-0.70105 1.35697,-1.60299 1.47058,-2.6191 0.0895,-0.80073 -0.14761,-1.63037 -0.63399,-2.27273 -0.48638,-0.64235 -1.21454,-1.09349 -2.00308,-1.25901 -0.78854,-0.16551 -1.63095,-0.0473 -2.35101,0.31424 -0.72006,0.36153 -1.31492,0.96178 -1.68476,1.67761 -0.27573,0.53367 -0.42928,1.12659 -0.73481,1.64378 z"
       id="path917-2"
       inkscape:path-effect="#path-effect1275"
       inkscape:original-d="m 175.95467,237.46177 c -1.69628,1.16797 -4.29258,3.02024 -3.37155,4.68686 2.56324,4.63824 4.79224,5.0552 6.8562,-0.33404 0.59469,-1.55279 4.05386,-2.79909 3.923,-4.45671 -0.20677,-2.61906 -5.21281,-1.71165 -6.67284,-1.53989 -0.87633,0.15108 1.70543,-0.15594 -0.73481,1.64378 z"
       sodipodi:nodetypes="cssscc" />
    <path
       style="fill:none;stroke:#000000;stroke-width:0.264583px;stroke-linecap:butt;stroke-linejoin:miter;stroke-opacity:1"
       d="m 131.1221,247.9349 c 3.68226,0.81372 7.71047,0.7396 11.0164,-1.07477 1.84229,-1.01109 3.37094,-2.5082 4.75496,-4.0896 1.38402,-1.58141 2.65029,-3.26729 4.11191,-4.77726 2.54547,-2.62966 5.68209,-4.69955 9.13555,-5.91124 2.55463,-0.89633 5.33713,-1.35881 7.5234,-2.95562 1.86237,-1.36024 3.12281,-3.47456 3.58554,-5.73389 0.46273,-2.25933 0.15304,-4.64684 -0.72662,-6.77871 -0.87967,-2.13187 -2.31232,-4.0133 -4.02979,-5.55245 -1.71747,-1.53915 -3.71554,-2.74493 -5.81514,-3.69907 -8.74918,-3.97596 -18.98535,-3.49151 -28.21275,-0.80608 -2.06759,0.60172 -4.10408,1.30829 -6.17993,1.88085 -2.07799,0.57315 -4.20564,1.01559 -6.17994,1.88085 -3.07682,1.34846 -5.69919,3.73981 -7.2547,6.71732 -0.44743,0.85645 -0.80812,1.75818 -1.07478,2.68693 -0.9452,6.20529 0.55236,12.74967 4.1021,17.92638 3.54974,5.17671 9.1148,8.93195 15.24379,10.28636 z"
       id="path1203"
       inkscape:path-effect="#path-effect1205"
       inkscape:original-d="m 131.1221,247.9349 c 3.52547,1.08811 7.71635,0.57526 11.0164,-1.07477 3.7386,-1.86929 5.63612,-6.21475 8.86687,-8.86686 2.80347,-2.30136 5.93376,-4.20706 9.13555,-5.91124 2.37846,-1.26596 5.67338,-0.99677 7.5234,-2.95562 6.11389,-6.47354 -5.15678,-19.42142 -6.98601,-21.76412 -7.04739,-9.0256 -19.81693,-3.13825 -28.21275,-0.80608 -2.07471,0.57631 -4.11995,1.2539 -6.17993,1.88085 -2.05998,0.62695 -4.24364,0.93887 -6.17994,1.88085 -2.35033,1.14341 -5.63484,4.86604 -7.2547,6.71732 -2.09278,2.28931 -2.04788,2.35442 -1.07478,2.68693 -3.97203,7.24332 11.29872,25.34328 19.34589,28.21274 z"
       sodipodi:nodetypes="cssssssssccc" />
  </g>
</svg>
