<?xml version="1.0" encoding="UTF-8" standalone="no"?>
<!-- Created with Inkscape (http://www.inkscape.org/) -->

<svg
   width="240mm"
   height="40mm"
   viewBox="0 0 240 40"
   version="1.1"
   id="svg8"
   inkscape:version="1.2.2 (b0a84865, 2022-12-01)"
   sodipodi:docname="cell.svg"
   xmlns:inkscape="http://www.inkscape.org/namespaces/inkscape"
   xmlns:sodipodi="http://sodipodi.sourceforge.net/DTD/sodipodi-0.dtd"
   xmlns="http://www.w3.org/2000/svg"
   xmlns:svg="http://www.w3.org/2000/svg"
   xmlns:rdf="http://www.w3.org/1999/02/22-rdf-syntax-ns#"
   xmlns:cc="http://creativecommons.org/ns#"
   xmlns:dc="http://purl.org/dc/elements/1.1/">
  <defs
     id="defs2">
    <inkscape:path-effect
       effect="spiro"
       id="path-effect998"
       is_visible="true"
       lpeversion="1" />
    <inkscape:path-effect
       effect="spiro"
       id="path-effect961"
       is_visible="true"
       lpeversion="1" />
    <inkscape:path-effect
       effect="spiro"
       id="path-effect776"
       is_visible="true"
       lpeversion="1" />
    <inkscape:path-effect
       effect="spiro"
       id="path-effect743"
       is_visible="true"
       lpeversion="1" />
    <inkscape:path-effect
       effect="spiro"
       id="path-effect654"
       is_visible="true"
       lpeversion="1" />
    <inkscape:path-effect
       effect="spiro"
       id="path-effect584"
       is_visible="true"
       lpeversion="1" />
    <inkscape:path-effect
       effect="spiro"
       id="path-effect200"
       is_visible="true"
       lpeversion="1" />
    <inkscape:path-effect
       effect="spiro"
       id="path-effect196"
       is_visible="true"
       lpeversion="1" />
    <marker
       id="marker-arrow-1"
       orient="auto-start-reverse"
       refY="0"
       refX="0"
       markerHeight="3"
       markerWidth="2">
      <g
         transform="scale(1.3933333)"
         id="g204"><path
   d="M -1.55415,2.0722 C -1.42464,1.29512 0,0.1295 0.38852,0 0,-0.1295 -1.42464,-1.29512 -1.55415,-2.0722"
   style="fill:none;stroke:#000000;stroke-linecap:round;stroke-linejoin:round;stroke-miterlimit:10;stroke-dasharray:none;stroke-opacity:1"
   id="path202" />
0&quot; /&gt;
   </g>
    </marker>
    <marker
       id="marker-arrow-1-9"
       orient="auto-start-reverse"
       refY="0"
       refX="0"
       markerHeight="3"
       markerWidth="2">
      <g
         transform="scale(1.3933333)"
         id="g393"><path
   d="M -1.55415,2.0722 C -1.42464,1.29512 0,0.1295 0.38852,0 0,-0.1295 -1.42464,-1.29512 -1.55415,-2.0722"
   style="fill:none;stroke:#000000;stroke-linecap:round;stroke-linejoin:round;stroke-miterlimit:10;stroke-dasharray:none;stroke-opacity:1"
   id="path391" />
0&quot; /&gt;
   </g>
    </marker>
    <marker
       id="marker-arrow-1-2"
       orient="auto-start-reverse"
       refY="0"
       refX="0"
       markerHeight="3"
       markerWidth="2">
      <g
         transform="scale(1.3933333)"
         id="g606"><path
   d="M -1.55415,2.0722 C -1.42464,1.29512 0,0.1295 0.38852,0 0,-0.1295 -1.42464,-1.29512 -1.55415,-2.0722"
   style="fill:none;stroke:#000000;stroke-linecap:round;stroke-linejoin:round;stroke-miterlimit:10;stroke-dasharray:none;stroke-opacity:1"
   id="path604" />
0&quot; /&gt;
   </g>
    </marker>
  </defs>
  <sodipodi:namedview
     id="base"
     pagecolor="#ffffff"
     bordercolor="#666666"
     borderopacity="1.0"
     inkscape:pageopacity="0.0"
     inkscape:pageshadow="2"
     inkscape:zoom="1.0689414"
     inkscape:cx="466.34923"
     inkscape:cy="104.3088"
     inkscape:document-units="mm"
     inkscape:current-layer="layer1"
     showgrid="false"
     showborder="true"
     width="200mm"
     showguides="true"
     inkscape:guide-bbox="true"
     inkscape:window-width="1728"
     inkscape:window-height="1051"
     inkscape:window-x="0"
     inkscape:window-y="38"
     inkscape:window-maximized="0"
     inkscape:showpageshadow="2"
     inkscape:pagecheckerboard="0"
     inkscape:deskcolor="#d1d1d1">
    <inkscape:grid
       type="xygrid"
       id="grid815"
       units="mm"
       spacingx="10"
       spacingy="10"
       empspacing="4"
       dotted="false"
       originx="0"
       originy="0" />
  </sodipodi:namedview>
  <metadata
     id="metadata5">
    <rdf:RDF>
      <cc:Work
         rdf:about="">
        <dc:format>image/svg+xml</dc:format>
        <dc:type
           rdf:resource="http://purl.org/dc/dcmitype/StillImage" />
      </cc:Work>
    </rdf:RDF>
  </metadata>
  <g
     inkscape:label="Layer 1"
     inkscape:groupmode="layer"
     id="layer1"
     transform="translate(0,-177)">
    <path
       style="fill:none;fill-opacity:1;stroke:#000000;stroke-width:0.264583;stroke-linecap:butt;stroke-linejoin:miter;stroke-dasharray:none;stroke-opacity:1;marker-start:none;marker-end:url(#marker-arrow-1)"
       d="M 92.240055,204.75319 H 148.11693"
       id="path194"
       inkscape:path-effect="#path-effect196"
       inkscape:original-d="m 92.240055,204.75319 c 18.625895,2.7e-4 37.251525,2.7e-4 55.876875,0" />
    <path
       style="fill:none;fill-opacity:1;stroke:#000000;stroke-width:0.264583;stroke-linecap:butt;stroke-linejoin:miter;stroke-dasharray:none;stroke-opacity:1;marker-start:none;marker-end:url(#marker-arrow-1)"
       d="M 99.690304,211.4052 V 177.63492"
       id="path198"
       inkscape:path-effect="#path-effect200"
       inkscape:original-d="m 99.690304,211.4052 c 2.64e-4,-16.23064 2.64e-4,-17.53912 0,-33.77028"
       sodipodi:nodetypes="cc" />
    <text
       xml:space="preserve"
       style="font-size:4.9389px;line-height:1.25;font-family:sans-serif;text-decoration-color:#000000;letter-spacing:0px;word-spacing:0px;fill:#000000;stroke-width:0.264999;-inkscape-stroke:none;stop-color:#000000"
       x="123.55234"
       y="215.68347"
       id="text580"><tspan
         sodipodi:role="line"
         id="tspan578"
         style="stroke-width:0.265"
         x="123.55234"
         y="215.68347">\(X\)</tspan></text>
    <path
       style="fill:none;fill-opacity:1;stroke:#000000;stroke-width:0.264583;stroke-linecap:butt;stroke-linejoin:miter;stroke-dasharray:none;stroke-opacity:1;marker-start:none;marker-end:none"
       d="m 111.83582,203.52152 v 2.46334"
       id="path582"
       inkscape:path-effect="#path-effect584"
       inkscape:original-d="m 111.83582,203.52152 c 2.7e-4,0.82138 2.7e-4,1.6425 0,2.46334" />
    <path
       style="fill:none;fill-opacity:1;stroke:#000000;stroke-width:0.264583;stroke-linecap:butt;stroke-linejoin:miter;stroke-dasharray:none;stroke-opacity:1;marker-start:none;marker-end:none"
       d="m 138.29415,203.52152 v 2.46334"
       id="path650"
       inkscape:path-effect="#path-effect654"
       inkscape:original-d="m 138.29415,203.52152 c 2.7e-4,0.82138 2.7e-4,1.6425 0,2.46334" />
    <text
       xml:space="preserve"
       style="font-size:4.9389px;line-height:1.25;font-family:sans-serif;text-decoration-color:#000000;letter-spacing:0px;word-spacing:0px;fill:#000000;stroke-width:0.264999;-inkscape-stroke:none;stop-color:#000000"
       x="110.95716"
       y="210.41159"
       id="text685"><tspan
         sodipodi:role="line"
         id="tspan683"
         style="stroke-width:0.265"
         x="110.95716"
         y="210.41159">\(a\)</tspan></text>
    <text
       xml:space="preserve"
       style="font-size:4.9389px;line-height:1.25;font-family:sans-serif;text-decoration-color:#000000;letter-spacing:0px;word-spacing:0px;fill:#000000;stroke-width:0.264999;-inkscape-stroke:none;stop-color:#000000"
       x="137.4155"
       y="210.41159"
       id="text689"><tspan
         sodipodi:role="line"
         id="tspan687"
         style="stroke-width:0.265"
         x="137.4155"
         y="210.41159">\(b\)</tspan></text>
    <path
       style="fill:none;stroke:#000000;stroke-width:0.264583px;stroke-linecap:butt;stroke-linejoin:miter;stroke-opacity:1"
       d="m 111.70353,200.11436 c 1.03071,-1.81505 3.00608,-3.05761 5.08845,-3.20078 1.43597,-0.0987 2.85397,0.29018 4.2768,0.50767 0.71142,0.10874 1.4337,0.17495 2.15092,0.1155 0.71722,-0.0594 1.43213,-0.24898 2.04688,-0.62317 0.58459,-0.35583 1.05834,-0.86366 1.52798,-1.36145 0.46965,-0.49779 0.95219,-0.99926 1.54728,-1.33725 0.69114,-0.39254 1.49832,-0.54155 2.29298,-0.55836 0.79465,-0.0168 1.58581,0.0919 2.37531,0.1839 0.78949,0.0919 1.58751,0.16732 2.37794,0.0838 0.79044,-0.0835 1.58056,-0.33638 2.19625,-0.83906 0.35375,-0.28882 0.64338,-0.65576 0.84212,-1.06693"
       id="path741"
       inkscape:path-effect="#path-effect743"
       inkscape:original-d="m 111.70353,200.11436 c 1.69641,-1.06666 3.39256,-2.13359 5.08845,-3.20078 1.69588,-1.0672 5.64999,2.6e-4 8.4746,0 2.82459,-2.7e-4 2.05044,-1.79887 3.07526,-2.6987 1.02482,-0.89984 6.16191,-0.75287 9.24248,-1.12969 3.08056,-0.37683 0.56168,-0.71102 0.84212,-1.06693" />
    <path
       style="fill:none;stroke:#000000;stroke-width:0.264583px;stroke-linecap:butt;stroke-linejoin:miter;stroke-opacity:1"
       d="m 111.70353,189.53102 c 0.58207,-2.45403 2.2457,-4.6308 4.46084,-5.83672 1.29129,-0.70298 2.7735,-1.0845 4.23975,-0.9763 1.46625,0.10821 2.90909,0.72564 3.92105,1.79219 0.66779,0.70381 1.13154,1.57273 1.71482,2.34801 0.29164,0.38765 0.61599,0.75455 0.99855,1.05282 0.38256,0.29827 0.82647,0.52667 1.3033,0.61584 0.74142,0.13865 1.50743,-0.0659 2.19706,-0.37143 0.68964,-0.30549 1.33155,-0.71159 2.02458,-1.0093 1.85104,-0.79517 4.04294,-0.75418 5.86296,0.10962"
       id="path772"
       inkscape:path-effect="#path-effect776"
       inkscape:original-d="m 111.70353,189.53102 c 1.69641,-1.06666 2.76495,-4.76953 4.46084,-5.83672 1.69588,-1.0672 5.33619,0.81615 8.1608,0.81589 2.82459,-2.7e-4 2.99185,4.9165 4.01667,4.01667 1.02482,-0.89984 1.14107,-1.00391 4.22164,-1.38073 3.08056,-0.37683 5.58252,0.46553 5.86296,0.10962"
       sodipodi:nodetypes="cssssc" />
    <path
       style="fill:none;fill-opacity:1;stroke:#000000;stroke-width:0.264583;stroke-linecap:butt;stroke-linejoin:miter;stroke-dasharray:0.79375, 0.79375;stroke-opacity:1;marker-start:none;marker-end:none"
       d="m 111.70353,189.53102 v 10.58334"
       id="path959"
       inkscape:path-effect="#path-effect961"
       inkscape:original-d="m 111.70353,189.53102 c 2.6e-4,3.52804 2.6e-4,7.05582 0,10.58334" />
    <path
       style="fill:none;fill-opacity:1;stroke:#000000;stroke-width:0.264583;stroke-linecap:butt;stroke-linejoin:miter;stroke-dasharray:0.79375, 0.79375;stroke-opacity:1;marker-start:none;marker-end:none"
       d="m 138.42644,187.25575 v 4.76251"
       id="path996"
       inkscape:path-effect="#path-effect998"
       inkscape:original-d="m 138.42644,187.25575 c 2.6e-4,1.58777 2.6e-4,3.17527 0,4.76251" />
    <path
       style="opacity:0.3;fill:#000000;fill-opacity:0.12;stroke:none;stroke-width:0.0627605;stroke-linejoin:round;stroke-dasharray:none;stroke-opacity:1;marker-start:none;marker-end:none;stop-color:#000000"
       d="m 111.88146,194.4263 0.0171,-5.10675 0.1795,-0.50208 c 0.26779,-0.74898 0.87222,-1.88355 1.32452,-2.4862 0.81365,-1.08413 2.16508,-2.1941 3.30971,-2.71838 1.21581,-0.55688 2.16134,-0.75361 3.40789,-0.70908 1.02925,0.0368 1.61779,0.17116 2.41179,0.55075 1.12031,0.53559 1.74983,1.13658 2.77854,2.6526 1.35634,1.99887 2.30907,2.67305 3.67904,2.60341 0.72919,-0.0371 1.2844,-0.22203 2.43719,-0.8119 1.17923,-0.60339 1.56768,-0.76792 2.19505,-0.9297 1.39105,-0.35872 3.04252,-0.25706 4.32714,0.26637 l 0.34025,0.13864 6e-5,2.28526 6e-5,2.28527 -0.19086,0.29743 c -0.42334,0.65972 -1.18116,1.16475 -2.13128,1.42032 -0.53056,0.14272 -2.04332,0.14021 -3.13802,-0.005 -2.27662,-0.30242 -3.62041,-0.1593 -4.72574,0.50331 -0.2445,0.14657 -0.74746,0.59275 -1.35255,1.19986 -0.52981,0.53159 -1.12783,1.08764 -1.32892,1.23568 -0.44694,0.32902 -1.00471,0.55853 -1.69946,0.69931 -0.69774,0.14138 -1.95938,0.0895 -3.16301,-0.13017 -1.98688,-0.36255 -2.51822,-0.42124 -3.51459,-0.38821 -1.10174,0.0365 -1.6417,0.15936 -2.51812,0.57284 -0.9719,0.45853 -1.79886,1.10053 -2.41879,1.8778 l -0.2437,0.30557 0.0171,-5.10674 z"
       id="path1114" />
    <text
       xml:space="preserve"
       style="font-size:4.9389px;line-height:1.25;font-family:sans-serif;text-decoration-color:#000000;letter-spacing:0px;word-spacing:0px;fill:#000000;stroke-width:0.264999;-inkscape-stroke:none;stop-color:#000000"
       x="133.60197"
       y="200.55881"
       id="text1205"><tspan
         sodipodi:role="line"
         id="tspan1203"
         style="stroke-width:0.265"
         x="133.60197"
         y="200.55881">\(f\)</tspan></text>
    <text
       xml:space="preserve"
       style="font-size:4.9389px;line-height:1.25;font-family:sans-serif;text-decoration-color:#000000;letter-spacing:0px;word-spacing:0px;fill:#000000;stroke-width:0.264999;-inkscape-stroke:none;stop-color:#000000"
       x="133.60197"
       y="184.68379"
       id="text1209"><tspan
         sodipodi:role="line"
         id="tspan1207"
         style="stroke-width:0.265"
         x="133.60197"
         y="184.68379">\(g\)</tspan></text>
  </g>
</svg>
