<?xml version="1.0" encoding="UTF-8" standalone="no"?>
<!-- Created with Inkscape (http://www.inkscape.org/) -->

<svg
   width="240mm"
   height="10mm"
   viewBox="0 0 240 10"
   version="1.1"
   id="svg8"
   inkscape:version="1.2.2 (b0a84865, 2022-12-01)"
   sodipodi:docname="disjoint-union-finite-graphs.svg"
   xmlns:inkscape="http://www.inkscape.org/namespaces/inkscape"
   xmlns:sodipodi="http://sodipodi.sourceforge.net/DTD/sodipodi-0.dtd"
   xmlns="http://www.w3.org/2000/svg"
   xmlns:svg="http://www.w3.org/2000/svg"
   xmlns:rdf="http://www.w3.org/1999/02/22-rdf-syntax-ns#"
   xmlns:cc="http://creativecommons.org/ns#"
   xmlns:dc="http://purl.org/dc/elements/1.1/">
  <defs
     id="defs2">
    <inkscape:path-effect
       effect="spiro"
       id="path-effect993"
       is_visible="true"
       lpeversion="1" />
  </defs>
  <sodipodi:namedview
     id="base"
     pagecolor="#ffffff"
     bordercolor="#666666"
     borderopacity="1.0"
     inkscape:pageopacity="0.0"
     inkscape:pageshadow="2"
     inkscape:zoom="0.98636659"
     inkscape:cx="413.63931"
     inkscape:cy="-186.03631"
     inkscape:document-units="mm"
     inkscape:current-layer="layer1"
     showgrid="false"
     showborder="true"
     width="200mm"
     showguides="true"
     inkscape:guide-bbox="true"
     inkscape:window-width="1920"
     inkscape:window-height="1027"
     inkscape:window-x="0"
     inkscape:window-y="25"
     inkscape:window-maximized="0"
     inkscape:showpageshadow="2"
     inkscape:pagecheckerboard="0"
     inkscape:deskcolor="#d1d1d1">
    <inkscape:grid
       type="xygrid"
       id="grid815"
       units="mm"
       spacingx="10"
       spacingy="10"
       empspacing="4"
       dotted="false"
       originx="0"
       originy="0" />
  </sodipodi:namedview>
  <metadata
     id="metadata5">
    <rdf:RDF>
      <cc:Work
         rdf:about="">
        <dc:format>image/svg+xml</dc:format>
        <dc:type
           rdf:resource="http://purl.org/dc/dcmitype/StillImage" />
      </cc:Work>
    </rdf:RDF>
  </metadata>
  <g
     inkscape:label="Layer 1"
     inkscape:groupmode="layer"
     id="layer1"
     transform="translate(0,-177)">
    <path
       style="font-variation-settings:normal;opacity:1;vector-effect:none;fill:#000000;fill-opacity:1;fill-rule:evenodd;stroke:none;stroke-width:0.264583;stroke-linecap:butt;stroke-linejoin:miter;stroke-miterlimit:4;stroke-dasharray:none;stroke-dashoffset:0;stroke-opacity:1;-inkscape-stroke:none;marker-start:none;marker-end:none;stop-color:#000000;stop-opacity:1"
       id="path737"
       sodipodi:type="arc"
       sodipodi:cx="78.994453"
       sodipodi:cy="185.0145"
       sodipodi:rx="1.1353418"
       sodipodi:ry="1.1353418"
       sodipodi:start="3.2046469"
       sodipodi:end="3.2045266"
       sodipodi:open="true"
       sodipodi:arc-type="arc"
       d="m 77.861368,184.94296 a 1.1353418,1.1353418 0 0 1 1.204592,-1.06155 1.1353418,1.1353418 0 0 1 1.061583,1.20456 1.1353418,1.1353418 0 0 1 -1.204528,1.06162 1.1353418,1.1353418 0 0 1 -1.061656,-1.2045" />
    <path
       style="font-variation-settings:normal;opacity:1;vector-effect:none;fill:#000000;fill-opacity:1;fill-rule:evenodd;stroke:none;stroke-width:0.264583;stroke-linecap:butt;stroke-linejoin:miter;stroke-miterlimit:4;stroke-dasharray:none;stroke-dashoffset:0;stroke-opacity:1;-inkscape-stroke:none;marker-start:none;marker-end:none;stop-color:#000000;stop-opacity:1"
       id="path868"
       sodipodi:type="arc"
       sodipodi:cx="89.577774"
       sodipodi:cy="185.0145"
       sodipodi:rx="1.1353418"
       sodipodi:ry="1.1353418"
       sodipodi:start="3.2046469"
       sodipodi:end="3.2045266"
       sodipodi:open="true"
       sodipodi:arc-type="arc"
       d="m 88.444689,184.94296 a 1.1353418,1.1353418 0 0 1 1.204592,-1.06155 1.1353418,1.1353418 0 0 1 1.061583,1.20456 1.1353418,1.1353418 0 0 1 -1.204528,1.06162 1.1353418,1.1353418 0 0 1 -1.061656,-1.2045" />
    <path
       style="font-variation-settings:normal;opacity:1;vector-effect:none;fill:#000000;fill-opacity:1;fill-rule:evenodd;stroke:none;stroke-width:0.264583;stroke-linecap:butt;stroke-linejoin:miter;stroke-miterlimit:4;stroke-dasharray:none;stroke-dashoffset:0;stroke-opacity:1;-inkscape-stroke:none;marker-start:none;marker-end:none;stop-color:#000000;stop-opacity:1"
       id="path870"
       sodipodi:type="arc"
       sodipodi:cx="100.1611"
       sodipodi:cy="185.0145"
       sodipodi:rx="1.1353418"
       sodipodi:ry="1.1353418"
       sodipodi:start="3.2046469"
       sodipodi:end="3.2045266"
       sodipodi:open="true"
       sodipodi:arc-type="arc"
       d="m 99.028017,184.94296 a 1.1353418,1.1353418 0 0 1 1.204593,-1.06155 1.1353418,1.1353418 0 0 1 1.06158,1.20456 1.1353418,1.1353418 0 0 1 -1.20453,1.06162 1.1353418,1.1353418 0 0 1 -1.061652,-1.2045" />
    <path
       style="font-variation-settings:normal;opacity:1;vector-effect:none;fill:#000000;fill-opacity:1;fill-rule:evenodd;stroke:none;stroke-width:0.264583;stroke-linecap:butt;stroke-linejoin:miter;stroke-miterlimit:4;stroke-dasharray:none;stroke-dashoffset:0;stroke-opacity:1;-inkscape-stroke:none;marker-start:none;marker-end:none;stop-color:#000000;stop-opacity:1"
       id="path872"
       sodipodi:type="arc"
       sodipodi:cx="94.869438"
       sodipodi:cy="179.72282"
       sodipodi:rx="1.1353418"
       sodipodi:ry="1.1353418"
       sodipodi:start="3.2046469"
       sodipodi:end="3.2045266"
       sodipodi:open="true"
       sodipodi:arc-type="arc"
       d="m 93.736353,179.65128 a 1.1353418,1.1353418 0 0 1 1.204592,-1.06154 1.1353418,1.1353418 0 0 1 1.061583,1.20456 1.1353418,1.1353418 0 0 1 -1.204528,1.06162 1.1353418,1.1353418 0 0 1 -1.061656,-1.2045" />
    <path
       style="fill:none;stroke:#000000;stroke-width:0.264583px;stroke-linecap:butt;stroke-linejoin:miter;stroke-opacity:1"
       d="m 89.577766,185.01452 5.291667,-5.29167 5.291657,5.29167 z"
       id="path1042" />
    <path
       style="font-variation-settings:normal;opacity:1;vector-effect:none;fill:#000000;fill-opacity:1;fill-rule:evenodd;stroke:none;stroke-width:0.264583;stroke-linecap:butt;stroke-linejoin:miter;stroke-miterlimit:4;stroke-dasharray:none;stroke-dashoffset:0;stroke-opacity:1;-inkscape-stroke:none;marker-start:none;marker-end:none;stop-color:#000000;stop-opacity:1"
       id="path1044"
       sodipodi:type="arc"
       sodipodi:cx="110.74444"
       sodipodi:cy="185.0145"
       sodipodi:rx="1.1353418"
       sodipodi:ry="1.1353418"
       sodipodi:start="3.2046469"
       sodipodi:end="3.2045266"
       sodipodi:open="true"
       sodipodi:arc-type="arc"
       d="m 109.61135,184.94296 a 1.1353418,1.1353418 0 0 1 1.20459,-1.06155 1.1353418,1.1353418 0 0 1 1.06159,1.20456 1.1353418,1.1353418 0 0 1 -1.20453,1.06162 1.1353418,1.1353418 0 0 1 -1.06166,-1.2045" />
    <path
       style="font-variation-settings:normal;opacity:1;vector-effect:none;fill:#000000;fill-opacity:1;fill-rule:evenodd;stroke:none;stroke-width:0.264583;stroke-linecap:butt;stroke-linejoin:miter;stroke-miterlimit:4;stroke-dasharray:none;stroke-dashoffset:0;stroke-opacity:1;-inkscape-stroke:none;marker-start:none;marker-end:none;stop-color:#000000;stop-opacity:1"
       id="path1046"
       sodipodi:type="arc"
       sodipodi:cx="121.32777"
       sodipodi:cy="185.0145"
       sodipodi:rx="1.1353418"
       sodipodi:ry="1.1353418"
       sodipodi:start="3.2046469"
       sodipodi:end="3.2045266"
       sodipodi:open="true"
       sodipodi:arc-type="arc"
       d="m 120.19468,184.94296 a 1.1353418,1.1353418 0 0 1 1.20459,-1.06155 1.1353418,1.1353418 0 0 1 1.06159,1.20456 1.1353418,1.1353418 0 0 1 -1.20453,1.06162 1.1353418,1.1353418 0 0 1 -1.06166,-1.2045" />
    <path
       style="font-variation-settings:normal;opacity:1;vector-effect:none;fill:#000000;fill-opacity:1;fill-rule:evenodd;stroke:none;stroke-width:0.264583;stroke-linecap:butt;stroke-linejoin:miter;stroke-miterlimit:4;stroke-dasharray:none;stroke-dashoffset:0;stroke-opacity:1;-inkscape-stroke:none;marker-start:none;marker-end:none;stop-color:#000000;stop-opacity:1"
       id="path1048"
       sodipodi:type="arc"
       sodipodi:cx="116.0361"
       sodipodi:cy="179.72282"
       sodipodi:rx="1.1353418"
       sodipodi:ry="1.1353418"
       sodipodi:start="3.2046469"
       sodipodi:end="3.2045266"
       sodipodi:open="true"
       sodipodi:arc-type="arc"
       d="m 114.90302,179.65128 a 1.1353418,1.1353418 0 0 1 1.20459,-1.06154 1.1353418,1.1353418 0 0 1 1.06158,1.20456 1.1353418,1.1353418 0 0 1 -1.20453,1.06162 1.1353418,1.1353418 0 0 1 -1.06165,-1.2045" />
    <path
       style="fill:none;stroke:#000000;stroke-width:0.264583px;stroke-linecap:butt;stroke-linejoin:miter;stroke-opacity:1"
       d="m 110.74443,185.01452 5.29167,-5.29167 5.29166,5.29167"
       id="path1103" />
    <path
       style="font-variation-settings:normal;opacity:1;vector-effect:none;fill:#000000;fill-opacity:1;fill-rule:evenodd;stroke:none;stroke-width:0.264583;stroke-linecap:butt;stroke-linejoin:miter;stroke-miterlimit:4;stroke-dasharray:none;stroke-dashoffset:0;stroke-opacity:1;-inkscape-stroke:none;marker-start:none;marker-end:none;stop-color:#000000;stop-opacity:1"
       id="path1105"
       sodipodi:type="arc"
       sodipodi:cx="131.91109"
       sodipodi:cy="185.54366"
       sodipodi:rx="1.1353418"
       sodipodi:ry="1.1353418"
       sodipodi:start="3.2046469"
       sodipodi:end="3.2045266"
       sodipodi:open="true"
       sodipodi:arc-type="arc"
       d="m 130.778,185.47211 a 1.1353418,1.1353418 0 0 1 1.20459,-1.06154 1.1353418,1.1353418 0 0 1 1.06159,1.20456 1.1353418,1.1353418 0 0 1 -1.20453,1.06162 1.1353418,1.1353418 0 0 1 -1.06166,-1.2045" />
    <path
       style="font-variation-settings:normal;opacity:1;vector-effect:none;fill:#000000;fill-opacity:1;fill-rule:evenodd;stroke:none;stroke-width:0.264583;stroke-linecap:butt;stroke-linejoin:miter;stroke-miterlimit:4;stroke-dasharray:none;stroke-dashoffset:0;stroke-opacity:1;-inkscape-stroke:none;marker-start:none;marker-end:none;stop-color:#000000;stop-opacity:1"
       id="path1109"
       sodipodi:type="arc"
       sodipodi:cx="131.91109"
       sodipodi:cy="178.66451"
       sodipodi:rx="1.1353418"
       sodipodi:ry="1.1353418"
       sodipodi:start="3.2046469"
       sodipodi:end="3.2045266"
       sodipodi:open="true"
       sodipodi:arc-type="arc"
       d="m 130.778,178.59296 a 1.1353418,1.1353418 0 0 1 1.20459,-1.06154 1.1353418,1.1353418 0 0 1 1.06159,1.20456 1.1353418,1.1353418 0 0 1 -1.20453,1.06162 1.1353418,1.1353418 0 0 1 -1.06166,-1.2045" />
    <path
       style="font-variation-settings:normal;opacity:1;vector-effect:none;fill:#000000;fill-opacity:1;fill-rule:evenodd;stroke:none;stroke-width:0.264583;stroke-linecap:butt;stroke-linejoin:miter;stroke-miterlimit:4;stroke-dasharray:none;stroke-dashoffset:0;stroke-opacity:1;-inkscape-stroke:none;marker-start:none;marker-end:none;stop-color:#000000;stop-opacity:1"
       id="path1113"
       sodipodi:type="arc"
       sodipodi:cx="138.79024"
       sodipodi:cy="185.54366"
       sodipodi:rx="1.1353418"
       sodipodi:ry="1.1353418"
       sodipodi:start="3.2046469"
       sodipodi:end="3.2045266"
       sodipodi:open="true"
       sodipodi:arc-type="arc"
       d="m 137.65715,185.47211 a 1.1353418,1.1353418 0 0 1 1.20459,-1.06154 1.1353418,1.1353418 0 0 1 1.06159,1.20456 1.1353418,1.1353418 0 0 1 -1.20453,1.06162 1.1353418,1.1353418 0 0 1 -1.06166,-1.2045" />
    <path
       style="font-variation-settings:normal;opacity:1;vector-effect:none;fill:#000000;fill-opacity:1;fill-rule:evenodd;stroke:none;stroke-width:0.264583;stroke-linecap:butt;stroke-linejoin:miter;stroke-miterlimit:4;stroke-dasharray:none;stroke-dashoffset:0;stroke-opacity:1;-inkscape-stroke:none;marker-start:none;marker-end:none;stop-color:#000000;stop-opacity:1"
       id="path1115"
       sodipodi:type="arc"
       sodipodi:cx="138.79024"
       sodipodi:cy="178.66451"
       sodipodi:rx="1.1353418"
       sodipodi:ry="1.1353418"
       sodipodi:start="3.2046469"
       sodipodi:end="3.2045266"
       sodipodi:open="true"
       sodipodi:arc-type="arc"
       d="m 137.65715,178.59296 a 1.1353418,1.1353418 0 0 1 1.20459,-1.06154 1.1353418,1.1353418 0 0 1 1.06159,1.20456 1.1353418,1.1353418 0 0 1 -1.20453,1.06162 1.1353418,1.1353418 0 0 1 -1.06166,-1.2045" />
    <path
       style="fill:none;stroke:#000000;stroke-width:0.264583px;stroke-linecap:butt;stroke-linejoin:miter;stroke-opacity:1"
       d="m 131.91109,178.66451 h 6.87915 v 6.97272 l -6.87914,-0.0935 z"
       id="path1117"
       sodipodi:nodetypes="ccccc" />
    <path
       style="fill:none;stroke:#000000;stroke-width:0.264583px;stroke-linecap:butt;stroke-linejoin:miter;stroke-opacity:1"
       d="m 131.91109,178.66451 6.87915,6.97272"
       id="path1119"
       sodipodi:nodetypes="cc" />
    <path
       style="font-variation-settings:normal;opacity:1;vector-effect:none;fill:#000000;fill-opacity:1;fill-rule:evenodd;stroke:none;stroke-width:0.264583;stroke-linecap:butt;stroke-linejoin:miter;stroke-miterlimit:4;stroke-dasharray:none;stroke-dashoffset:0;stroke-opacity:1;-inkscape-stroke:none;marker-start:none;marker-end:none;stop-color:#000000;stop-opacity:1"
       id="path2587"
       sodipodi:type="arc"
       sodipodi:cx="149.90274"
       sodipodi:cy="185.54366"
       sodipodi:rx="1.1353418"
       sodipodi:ry="1.1353418"
       sodipodi:start="3.2046469"
       sodipodi:end="3.2045266"
       sodipodi:open="true"
       sodipodi:arc-type="arc"
       d="m 148.76965,185.47211 a 1.1353418,1.1353418 0 0 1 1.2046,-1.06154 1.1353418,1.1353418 0 0 1 1.06158,1.20456 1.1353418,1.1353418 0 0 1 -1.20453,1.06162 1.1353418,1.1353418 0 0 1 -1.06165,-1.2045" />
    <path
       style="font-variation-settings:normal;opacity:1;vector-effect:none;fill:#000000;fill-opacity:1;fill-rule:evenodd;stroke:none;stroke-width:0.264583;stroke-linecap:butt;stroke-linejoin:miter;stroke-miterlimit:4;stroke-dasharray:none;stroke-dashoffset:0;stroke-opacity:1;-inkscape-stroke:none;marker-start:none;marker-end:none;stop-color:#000000;stop-opacity:1"
       id="path2589"
       sodipodi:type="arc"
       sodipodi:cx="149.90274"
       sodipodi:cy="178.66451"
       sodipodi:rx="1.1353418"
       sodipodi:ry="1.1353418"
       sodipodi:start="3.2046469"
       sodipodi:end="3.2045266"
       sodipodi:open="true"
       sodipodi:arc-type="arc"
       d="m 148.76965,178.59296 a 1.1353418,1.1353418 0 0 1 1.2046,-1.06154 1.1353418,1.1353418 0 0 1 1.06158,1.20456 1.1353418,1.1353418 0 0 1 -1.20453,1.06162 1.1353418,1.1353418 0 0 1 -1.06165,-1.2045" />
    <path
       style="font-variation-settings:normal;opacity:1;vector-effect:none;fill:#000000;fill-opacity:1;fill-rule:evenodd;stroke:none;stroke-width:0.264583;stroke-linecap:butt;stroke-linejoin:miter;stroke-miterlimit:4;stroke-dasharray:none;stroke-dashoffset:0;stroke-opacity:1;-inkscape-stroke:none;marker-start:none;marker-end:none;stop-color:#000000;stop-opacity:1"
       id="path2591"
       sodipodi:type="arc"
       sodipodi:cx="156.78189"
       sodipodi:cy="185.54366"
       sodipodi:rx="1.1353418"
       sodipodi:ry="1.1353418"
       sodipodi:start="3.2046469"
       sodipodi:end="3.2045266"
       sodipodi:open="true"
       sodipodi:arc-type="arc"
       d="m 155.64881,185.47211 a 1.1353418,1.1353418 0 0 1 1.20459,-1.06154 1.1353418,1.1353418 0 0 1 1.06158,1.20456 1.1353418,1.1353418 0 0 1 -1.20453,1.06162 1.1353418,1.1353418 0 0 1 -1.06165,-1.2045" />
    <path
       style="font-variation-settings:normal;opacity:1;vector-effect:none;fill:#000000;fill-opacity:1;fill-rule:evenodd;stroke:none;stroke-width:0.264583;stroke-linecap:butt;stroke-linejoin:miter;stroke-miterlimit:4;stroke-dasharray:none;stroke-dashoffset:0;stroke-opacity:1;-inkscape-stroke:none;marker-start:none;marker-end:none;stop-color:#000000;stop-opacity:1"
       id="path2593"
       sodipodi:type="arc"
       sodipodi:cx="156.78189"
       sodipodi:cy="178.66451"
       sodipodi:rx="1.1353418"
       sodipodi:ry="1.1353418"
       sodipodi:start="3.2046469"
       sodipodi:end="3.2045266"
       sodipodi:open="true"
       sodipodi:arc-type="arc"
       d="m 155.64881,178.59296 a 1.1353418,1.1353418 0 0 1 1.20459,-1.06154 1.1353418,1.1353418 0 0 1 1.06158,1.20456 1.1353418,1.1353418 0 0 1 -1.20453,1.06162 1.1353418,1.1353418 0 0 1 -1.06165,-1.2045" />
    <path
       style="fill:none;stroke:#000000;stroke-width:0.264583px;stroke-linecap:butt;stroke-linejoin:miter;stroke-opacity:1"
       d="m 149.96029,178.6636 h 6.87915 v 6.97272 l -6.87914,-0.0935 z"
       id="path2599"
       sodipodi:nodetypes="ccccc" />
    <path
       style="fill:none;stroke:#000000;stroke-width:0.264583px;stroke-linecap:butt;stroke-linejoin:miter;stroke-opacity:1"
       d="m 149.80857,178.75742 6.87915,6.97272"
       id="path2601"
       sodipodi:nodetypes="cc" />
    <path
       style="fill:none;stroke:#000000;stroke-width:0.264583px;stroke-linecap:butt;stroke-linejoin:miter;stroke-opacity:1"
       d="m 149.9603,185.54282 6.87914,-6.87922"
       id="path2603" />
  </g>
</svg>
