<?xml version="1.0" encoding="UTF-8" standalone="no"?>
<!-- Created with Inkscape (http://www.inkscape.org/) -->

<svg
   width="240mm"
   height="79mm"
   viewBox="0 0 240 79"
   version="1.1"
   id="svg8"
   inkscape:version="1.2.2 (b0a84865, 2022-12-01)"
   sodipodi:docname="linear-order-ap.svg"
   xmlns:inkscape="http://www.inkscape.org/namespaces/inkscape"
   xmlns:sodipodi="http://sodipodi.sourceforge.net/DTD/sodipodi-0.dtd"
   xmlns="http://www.w3.org/2000/svg"
   xmlns:svg="http://www.w3.org/2000/svg"
   xmlns:rdf="http://www.w3.org/1999/02/22-rdf-syntax-ns#"
   xmlns:cc="http://creativecommons.org/ns#"
   xmlns:dc="http://purl.org/dc/elements/1.1/">
  <defs
     id="defs2">
    <marker
       id="marker-arrow-1"
       orient="auto-start-reverse"
       refY="0"
       refX="0"
       markerHeight="3"
       markerWidth="2">
      <g
         transform="scale(1.3933333)"
         id="g1024"><path
   d="M -1.55415,2.0722 C -1.42464,1.29512 0,0.1295 0.38852,0 0,-0.1295 -1.42464,-1.29512 -1.55415,-2.0722"
   style="fill:none;stroke:#000000;stroke-linecap:round;stroke-linejoin:round;stroke-miterlimit:10;stroke-dasharray:none;stroke-opacity:1"
   id="path1022" />
0&quot; /&gt;
   </g>
    </marker>
    <marker
       id="marker-arrow-1-2"
       orient="auto-start-reverse"
       refY="0"
       refX="0"
       markerHeight="3"
       markerWidth="2">
      <g
         transform="scale(1.3933333)"
         id="g1048"><path
   d="M -1.55415,2.0722 C -1.42464,1.29512 0,0.1295 0.38852,0 0,-0.1295 -1.42464,-1.29512 -1.55415,-2.0722"
   style="fill:none;stroke:#000000;stroke-linecap:round;stroke-linejoin:round;stroke-miterlimit:10;stroke-dasharray:none;stroke-opacity:1"
   id="path1046" />
0&quot; /&gt;
   </g>
    </marker>
    <marker
       id="marker-arrow-1-4"
       orient="auto-start-reverse"
       refY="0"
       refX="0"
       markerHeight="3"
       markerWidth="2">
      <g
         transform="scale(1.3933333)"
         id="g1081"><path
   d="M -1.55415,2.0722 C -1.42464,1.29512 0,0.1295 0.38852,0 0,-0.1295 -1.42464,-1.29512 -1.55415,-2.0722"
   style="fill:none;stroke:#000000;stroke-linecap:round;stroke-linejoin:round;stroke-miterlimit:10;stroke-dasharray:none;stroke-opacity:1"
   id="path1079" />
0&quot; /&gt;
   </g>
    </marker>
    <marker
       id="marker-arrow-1-1"
       orient="auto-start-reverse"
       refY="0"
       refX="0"
       markerHeight="3"
       markerWidth="2">
      <g
         transform="scale(1.3933333)"
         id="g1123"><path
   d="M -1.55415,2.0722 C -1.42464,1.29512 0,0.1295 0.38852,0 0,-0.1295 -1.42464,-1.29512 -1.55415,-2.0722"
   style="fill:none;stroke:#000000;stroke-linecap:round;stroke-linejoin:round;stroke-miterlimit:10;stroke-dasharray:none;stroke-opacity:1"
   id="path1121" />
0&quot; /&gt;
   </g>
    </marker>
    <marker
       id="marker-arrow-1-8"
       orient="auto-start-reverse"
       refY="0"
       refX="0"
       markerHeight="3"
       markerWidth="2">
      <g
         transform="scale(1.3933333)"
         id="g1174"><path
   d="M -1.55415,2.0722 C -1.42464,1.29512 0,0.1295 0.38852,0 0,-0.1295 -1.42464,-1.29512 -1.55415,-2.0722"
   style="fill:none;stroke:#000000;stroke-linecap:round;stroke-linejoin:round;stroke-miterlimit:10;stroke-dasharray:none;stroke-opacity:1"
   id="path1172" />
0&quot; /&gt;
   </g>
    </marker>
    <marker
       id="marker-arrow-1-9"
       orient="auto-start-reverse"
       refY="0"
       refX="0"
       markerHeight="3"
       markerWidth="2">
      <g
         transform="scale(1.3933333)"
         id="g1234"><path
   d="M -1.55415,2.0722 C -1.42464,1.29512 0,0.1295 0.38852,0 0,-0.1295 -1.42464,-1.29512 -1.55415,-2.0722"
   style="fill:none;stroke:#000000;stroke-linecap:round;stroke-linejoin:round;stroke-miterlimit:10;stroke-dasharray:none;stroke-opacity:1"
   id="path1232" />
0&quot; /&gt;
   </g>
    </marker>
    <marker
       id="marker-arrow-1-5"
       orient="auto-start-reverse"
       refY="0"
       refX="0"
       markerHeight="3"
       markerWidth="2">
      <g
         transform="scale(1.3933333)"
         id="g1303"><path
   d="M -1.55415,2.0722 C -1.42464,1.29512 0,0.1295 0.38852,0 0,-0.1295 -1.42464,-1.29512 -1.55415,-2.0722"
   style="fill:none;stroke:#000000;stroke-linecap:round;stroke-linejoin:round;stroke-miterlimit:10;stroke-dasharray:none;stroke-opacity:1"
   id="path1301" />
0&quot; /&gt;
   </g>
    </marker>
    <marker
       id="marker-arrow-1-29"
       orient="auto-start-reverse"
       refY="0"
       refX="0"
       markerHeight="3"
       markerWidth="2">
      <g
         transform="scale(1.3933333)"
         id="g1381"><path
   d="M -1.55415,2.0722 C -1.42464,1.29512 0,0.1295 0.38852,0 0,-0.1295 -1.42464,-1.29512 -1.55415,-2.0722"
   style="fill:none;stroke:#000000;stroke-linecap:round;stroke-linejoin:round;stroke-miterlimit:10;stroke-dasharray:none;stroke-opacity:1"
   id="path1379" />
0&quot; /&gt;
   </g>
    </marker>
    <marker
       id="marker-arrow-1-90"
       orient="auto-start-reverse"
       refY="0"
       refX="0"
       markerHeight="3"
       markerWidth="2">
      <g
         transform="scale(1.3933333)"
         id="g1681"><path
   d="M -1.55415,2.0722 C -1.42464,1.29512 0,0.1295 0.38852,0 0,-0.1295 -1.42464,-1.29512 -1.55415,-2.0722"
   style="fill:none;stroke:#000000;stroke-linecap:round;stroke-linejoin:round;stroke-miterlimit:10;stroke-dasharray:none;stroke-opacity:1"
   id="path1679" />
0&quot; /&gt;
   </g>
    </marker>
    <marker
       id="marker-arrow-1-26"
       orient="auto-start-reverse"
       refY="0"
       refX="0"
       markerHeight="3"
       markerWidth="2">
      <g
         transform="scale(1.3933333)"
         id="g1777"><path
   d="M -1.55415,2.0722 C -1.42464,1.29512 0,0.1295 0.38852,0 0,-0.1295 -1.42464,-1.29512 -1.55415,-2.0722"
   style="fill:none;stroke:#000000;stroke-linecap:round;stroke-linejoin:round;stroke-miterlimit:10;stroke-dasharray:none;stroke-opacity:1"
   id="path1775" />
0&quot; /&gt;
   </g>
    </marker>
    <marker
       id="marker-arrow-1-14"
       orient="auto-start-reverse"
       refY="0"
       refX="0"
       markerHeight="3"
       markerWidth="2">
      <g
         transform="scale(1.3933333)"
         id="g1882"><path
   d="M -1.55415,2.0722 C -1.42464,1.29512 0,0.1295 0.38852,0 0,-0.1295 -1.42464,-1.29512 -1.55415,-2.0722"
   style="fill:none;stroke:#000000;stroke-linecap:round;stroke-linejoin:round;stroke-miterlimit:10;stroke-dasharray:none;stroke-opacity:1"
   id="path1880" />
0&quot; /&gt;
   </g>
    </marker>
    <marker
       id="marker-arrow-1-7"
       orient="auto-start-reverse"
       refY="0"
       refX="0"
       markerHeight="3"
       markerWidth="2">
      <g
         transform="scale(1.3933333)"
         id="g1996"><path
   d="M -1.55415,2.0722 C -1.42464,1.29512 0,0.1295 0.38852,0 0,-0.1295 -1.42464,-1.29512 -1.55415,-2.0722"
   style="fill:none;stroke:#000000;stroke-linecap:round;stroke-linejoin:round;stroke-miterlimit:10;stroke-dasharray:none;stroke-opacity:1"
   id="path1994" />
0&quot; /&gt;
   </g>
    </marker>
    <marker
       id="marker-arrow-1-3"
       orient="auto-start-reverse"
       refY="0"
       refX="0"
       markerHeight="3"
       markerWidth="2">
      <g
         transform="scale(1.3933333)"
         id="g2119"><path
   d="M -1.55415,2.0722 C -1.42464,1.29512 0,0.1295 0.38852,0 0,-0.1295 -1.42464,-1.29512 -1.55415,-2.0722"
   style="fill:none;stroke:#000000;stroke-linecap:round;stroke-linejoin:round;stroke-miterlimit:10;stroke-dasharray:none;stroke-opacity:1"
   id="path2117" />
0&quot; /&gt;
   </g>
    </marker>
    <marker
       id="marker-arrow-1-49"
       orient="auto-start-reverse"
       refY="0"
       refX="0"
       markerHeight="3"
       markerWidth="2">
      <g
         transform="scale(1.3933333)"
         id="g2251"><path
   d="M -1.55415,2.0722 C -1.42464,1.29512 0,0.1295 0.38852,0 0,-0.1295 -1.42464,-1.29512 -1.55415,-2.0722"
   style="fill:none;stroke:#000000;stroke-linecap:round;stroke-linejoin:round;stroke-miterlimit:10;stroke-dasharray:none;stroke-opacity:1"
   id="path2249" />
0&quot; /&gt;
   </g>
    </marker>
    <marker
       id="marker-arrow-1-0"
       orient="auto-start-reverse"
       refY="0"
       refX="0"
       markerHeight="3"
       markerWidth="2">
      <g
         transform="scale(1.3933333)"
         id="g2392"><path
   d="M -1.55415,2.0722 C -1.42464,1.29512 0,0.1295 0.38852,0 0,-0.1295 -1.42464,-1.29512 -1.55415,-2.0722"
   style="fill:none;stroke:#000000;stroke-linecap:round;stroke-linejoin:round;stroke-miterlimit:10;stroke-dasharray:none;stroke-opacity:1"
   id="path2390" />
0&quot; /&gt;
   </g>
    </marker>
    <marker
       id="marker-arrow-1-40"
       orient="auto-start-reverse"
       refY="0"
       refX="0"
       markerHeight="3"
       markerWidth="2">
      <g
         transform="scale(1.3933333)"
         id="g2542"><path
   d="M -1.55415,2.0722 C -1.42464,1.29512 0,0.1295 0.38852,0 0,-0.1295 -1.42464,-1.29512 -1.55415,-2.0722"
   style="fill:none;stroke:#000000;stroke-linecap:round;stroke-linejoin:round;stroke-miterlimit:10;stroke-dasharray:none;stroke-opacity:1"
   id="path2540" />
0&quot; /&gt;
   </g>
    </marker>
    <marker
       id="marker-arrow-1-75"
       orient="auto-start-reverse"
       refY="0"
       refX="0"
       markerHeight="3"
       markerWidth="2">
      <g
         transform="scale(1.3933333)"
         id="g2701"><path
   d="M -1.55415,2.0722 C -1.42464,1.29512 0,0.1295 0.38852,0 0,-0.1295 -1.42464,-1.29512 -1.55415,-2.0722"
   style="fill:none;stroke:#000000;stroke-linecap:round;stroke-linejoin:round;stroke-miterlimit:10;stroke-dasharray:none;stroke-opacity:1"
   id="path2699" />
0&quot; /&gt;
   </g>
    </marker>
  </defs>
  <sodipodi:namedview
     id="base"
     pagecolor="#ffffff"
     bordercolor="#666666"
     borderopacity="1.0"
     inkscape:pageopacity="0.0"
     inkscape:pageshadow="2"
     inkscape:zoom="0.57546994"
     inkscape:cx="160.7382"
     inkscape:cy="94.705208"
     inkscape:document-units="mm"
     inkscape:current-layer="layer1"
     showgrid="false"
     showborder="true"
     width="200mm"
     showguides="true"
     inkscape:guide-bbox="true"
     inkscape:window-width="1728"
     inkscape:window-height="1051"
     inkscape:window-x="0"
     inkscape:window-y="38"
     inkscape:window-maximized="0"
     inkscape:showpageshadow="2"
     inkscape:pagecheckerboard="0"
     inkscape:deskcolor="#d1d1d1">
    <inkscape:grid
       type="xygrid"
       id="grid815"
       units="mm"
       spacingx="10"
       spacingy="10"
       empspacing="4"
       dotted="false"
       originx="0"
       originy="0" />
  </sodipodi:namedview>
  <metadata
     id="metadata5">
    <rdf:RDF>
      <cc:Work
         rdf:about="">
        <dc:format>image/svg+xml</dc:format>
        <dc:type
           rdf:resource="http://purl.org/dc/dcmitype/StillImage" />
      </cc:Work>
    </rdf:RDF>
  </metadata>
  <g
     inkscape:label="Layer 1"
     inkscape:groupmode="layer"
     id="layer1"
     transform="translate(0,-177)">
    <path
       style="font-variation-settings:normal;vector-effect:none;fill:#000000;fill-opacity:1;fill-rule:evenodd;stroke:none;stroke-width:0.264583;stroke-linecap:butt;stroke-linejoin:miter;stroke-miterlimit:4;stroke-dasharray:none;stroke-dashoffset:0;stroke-opacity:1;-inkscape-stroke:none;marker-start:none;marker-end:none;stop-color:#000000"
       id="path921"
       sodipodi:type="arc"
       sodipodi:cx="121.72317"
       sodipodi:cy="243.67685"
       sodipodi:rx="0.88718748"
       sodipodi:ry="0.88718748"
       sodipodi:start="3.2046469"
       sodipodi:end="3.2045266"
       sodipodi:open="true"
       sodipodi:arc-type="arc"
       d="m 120.83774,243.62095 a 0.88718748,0.88718748 0 0 1 0.9413,-0.82953 0.88718748,0.88718748 0 0 1 0.82956,0.94128 0.88718748,0.88718748 0 0 1 -0.94126,0.82958 0.88718748,0.88718748 0 0 1 -0.8296,-0.94123" />
    <path
       style="font-variation-settings:normal;vector-effect:none;fill:#000000;fill-opacity:1;fill-rule:evenodd;stroke:none;stroke-width:0.264583;stroke-linecap:butt;stroke-linejoin:miter;stroke-miterlimit:4;stroke-dasharray:none;stroke-dashoffset:0;stroke-opacity:1;-inkscape-stroke:none;marker-start:none;marker-end:none;stop-color:#000000"
       id="path923"
       sodipodi:type="arc"
       sodipodi:cx="121.72317"
       sodipodi:cy="233.09351"
       sodipodi:rx="0.88718748"
       sodipodi:ry="0.88718748"
       sodipodi:start="3.2046469"
       sodipodi:end="3.2045266"
       sodipodi:open="true"
       sodipodi:arc-type="arc"
       d="m 120.83774,233.0376 a 0.88718748,0.88718748 0 0 1 0.9413,-0.82952 0.88718748,0.88718748 0 0 1 0.82956,0.94128 0.88718748,0.88718748 0 0 1 -0.94126,0.82958 0.88718748,0.88718748 0 0 1 -0.8296,-0.94123" />
    <path
       style="font-variation-settings:normal;vector-effect:none;fill:#000000;fill-opacity:1;fill-rule:evenodd;stroke:none;stroke-width:0.264583;stroke-linecap:butt;stroke-linejoin:miter;stroke-miterlimit:4;stroke-dasharray:none;stroke-dashoffset:0;stroke-opacity:1;-inkscape-stroke:none;marker-start:none;marker-end:none;stop-color:#000000"
       id="path931"
       sodipodi:type="arc"
       sodipodi:cx="121.72317"
       sodipodi:cy="238.38518"
       sodipodi:rx="0.88718748"
       sodipodi:ry="0.88718748"
       sodipodi:start="3.2046469"
       sodipodi:end="3.2045266"
       sodipodi:open="true"
       sodipodi:arc-type="arc"
       d="m 120.83774,238.32927 a 0.88718748,0.88718748 0 0 1 0.9413,-0.82952 0.88718748,0.88718748 0 0 1 0.82956,0.94128 0.88718748,0.88718748 0 0 1 -0.94126,0.82958 0.88718748,0.88718748 0 0 1 -0.8296,-0.94123" />
    <path
       style="font-variation-settings:normal;vector-effect:none;fill:#000000;fill-opacity:1;fill-rule:evenodd;stroke:none;stroke-width:0.264583;stroke-linecap:butt;stroke-linejoin:miter;stroke-miterlimit:4;stroke-dasharray:none;stroke-dashoffset:0;stroke-opacity:1;-inkscape-stroke:none;marker-start:none;marker-end:none;stop-color:#000000"
       id="path933"
       sodipodi:type="arc"
       sodipodi:cx="121.72317"
       sodipodi:cy="248.96852"
       sodipodi:rx="0.88718748"
       sodipodi:ry="0.88718748"
       sodipodi:start="3.2046469"
       sodipodi:end="3.2045266"
       sodipodi:open="true"
       sodipodi:arc-type="arc"
       d="m 120.83774,248.91262 a 0.88718748,0.88718748 0 0 1 0.9413,-0.82952 0.88718748,0.88718748 0 0 1 0.82956,0.94127 0.88718748,0.88718748 0 0 1 -0.94126,0.82958 0.88718748,0.88718748 0 0 1 -0.8296,-0.94123" />
    <path
       style="font-variation-settings:normal;opacity:1;vector-effect:none;fill:none;fill-opacity:1;fill-rule:evenodd;stroke:#0e0000;stroke-width:0.264583;stroke-linecap:butt;stroke-linejoin:miter;stroke-miterlimit:4;stroke-dasharray:none;stroke-dashoffset:0;stroke-opacity:1;-inkscape-stroke:none;stop-color:#000000;stop-opacity:1"
       id="path737"
       sodipodi:type="arc"
       sodipodi:cx="89.973167"
       sodipodi:cy="214.57265"
       sodipodi:rx="4.7681026"
       sodipodi:ry="14.304309"
       sodipodi:start="3.2046469"
       sodipodi:end="3.2045266"
       sodipodi:open="true"
       sodipodi:arc-type="arc"
       d="m 85.21454,213.6713 a 4.7681026,14.304309 0 0 1 5.058934,-13.37456 4.7681026,14.304309 0 0 1 4.458339,15.1764 4.7681026,14.304309 0 0 1 -5.058666,13.37547 4.7681026,14.304309 0 0 1 -4.458643,-15.1756" />
    <path
       style="font-variation-settings:normal;opacity:1;vector-effect:none;fill:#000000;fill-opacity:1;fill-rule:evenodd;stroke:none;stroke-width:0.264583;stroke-linecap:butt;stroke-linejoin:miter;stroke-miterlimit:4;stroke-dasharray:none;stroke-dashoffset:0;stroke-opacity:1;-inkscape-stroke:none;marker-start:none;marker-end:none;stop-color:#000000;stop-opacity:1"
       id="path741"
       sodipodi:type="arc"
       sodipodi:cx="89.973167"
       sodipodi:cy="214.57265"
       sodipodi:rx="0.88718748"
       sodipodi:ry="0.88718748"
       sodipodi:start="3.2046469"
       sodipodi:end="3.2045266"
       sodipodi:open="true"
       sodipodi:arc-type="arc"
       d="m 89.087743,214.51674 a 0.88718748,0.88718748 0 0 1 0.941302,-0.82952 0.88718748,0.88718748 0 0 1 0.82955,0.94128 0.88718748,0.88718748 0 0 1 -0.941252,0.82958 0.88718748,0.88718748 0 0 1 -0.829607,-0.94123" />
    <path
       style="font-variation-settings:normal;opacity:1;vector-effect:none;fill:#000000;fill-opacity:1;fill-rule:evenodd;stroke:none;stroke-width:0.264583;stroke-linecap:butt;stroke-linejoin:miter;stroke-miterlimit:4;stroke-dasharray:none;stroke-dashoffset:0;stroke-opacity:1;-inkscape-stroke:none;marker-start:none;marker-end:none;stop-color:#000000;stop-opacity:1"
       id="path907"
       sodipodi:type="arc"
       sodipodi:cx="89.973167"
       sodipodi:cy="203.9893"
       sodipodi:rx="0.88718748"
       sodipodi:ry="0.88718748"
       sodipodi:start="3.2046469"
       sodipodi:end="3.2045266"
       sodipodi:open="true"
       sodipodi:arc-type="arc"
       d="m 89.087743,203.9334 a 0.88718748,0.88718748 0 0 1 0.941302,-0.82952 0.88718748,0.88718748 0 0 1 0.82955,0.94127 0.88718748,0.88718748 0 0 1 -0.941252,0.82958 0.88718748,0.88718748 0 0 1 -0.829607,-0.94122" />
    <path
       style="font-variation-settings:normal;opacity:1;vector-effect:none;fill:#000000;fill-opacity:1;fill-rule:evenodd;stroke:none;stroke-width:0.264583;stroke-linecap:butt;stroke-linejoin:miter;stroke-miterlimit:4;stroke-dasharray:none;stroke-dashoffset:0;stroke-opacity:1;-inkscape-stroke:none;marker-start:none;marker-end:none;stop-color:#000000;stop-opacity:1"
       id="path909"
       sodipodi:type="arc"
       sodipodi:cx="89.973167"
       sodipodi:cy="225.15599"
       sodipodi:rx="0.88718748"
       sodipodi:ry="0.88718748"
       sodipodi:start="3.2046469"
       sodipodi:end="3.2045266"
       sodipodi:open="true"
       sodipodi:arc-type="arc"
       d="m 89.087743,225.10009 a 0.88718748,0.88718748 0 0 1 0.941302,-0.82953 0.88718748,0.88718748 0 0 1 0.82955,0.94128 0.88718748,0.88718748 0 0 1 -0.941252,0.82958 0.88718748,0.88718748 0 0 1 -0.829607,-0.94123" />
    <path
       style="font-variation-settings:normal;opacity:1;vector-effect:none;fill:none;fill-opacity:1;fill-rule:evenodd;stroke:#0e0000;stroke-width:0.264583;stroke-linecap:butt;stroke-linejoin:miter;stroke-miterlimit:4;stroke-dasharray:none;stroke-dashoffset:0;stroke-opacity:1;-inkscape-stroke:none;stop-color:#000000;stop-opacity:1"
       id="path911"
       sodipodi:type="arc"
       sodipodi:cx="121.72317"
       sodipodi:cy="193.40596"
       sodipodi:rx="4.7681026"
       sodipodi:ry="14.304309"
       sodipodi:start="3.2046469"
       sodipodi:end="3.2045266"
       sodipodi:open="true"
       sodipodi:arc-type="arc"
       d="m 116.96454,192.50461 a 4.7681026,14.304309 0 0 1 5.05893,-13.37456 4.7681026,14.304309 0 0 1 4.45834,15.1764 4.7681026,14.304309 0 0 1 -5.05866,13.37547 4.7681026,14.304309 0 0 1 -4.45865,-15.17559" />
    <path
       style="font-variation-settings:normal;opacity:1;vector-effect:none;fill:#000000;fill-opacity:1;fill-rule:evenodd;stroke:none;stroke-width:0.264583;stroke-linecap:butt;stroke-linejoin:miter;stroke-miterlimit:4;stroke-dasharray:none;stroke-dashoffset:0;stroke-opacity:1;-inkscape-stroke:none;marker-start:none;marker-end:none;stop-color:#000000;stop-opacity:1"
       id="path913"
       sodipodi:type="arc"
       sodipodi:cx="121.72317"
       sodipodi:cy="193.40596"
       sodipodi:rx="0.88718748"
       sodipodi:ry="0.88718748"
       sodipodi:start="3.2046469"
       sodipodi:end="3.2045266"
       sodipodi:open="true"
       sodipodi:arc-type="arc"
       d="m 120.83774,193.35006 a 0.88718748,0.88718748 0 0 1 0.9413,-0.82953 0.88718748,0.88718748 0 0 1 0.82956,0.94128 0.88718748,0.88718748 0 0 1 -0.94126,0.82958 0.88718748,0.88718748 0 0 1 -0.8296,-0.94123" />
    <path
       style="font-variation-settings:normal;opacity:1;vector-effect:none;fill:#000000;fill-opacity:1;fill-rule:evenodd;stroke:none;stroke-width:0.264583;stroke-linecap:butt;stroke-linejoin:miter;stroke-miterlimit:4;stroke-dasharray:none;stroke-dashoffset:0;stroke-opacity:1;-inkscape-stroke:none;marker-start:none;marker-end:none;stop-color:#000000;stop-opacity:1"
       id="path915"
       sodipodi:type="arc"
       sodipodi:cx="121.72317"
       sodipodi:cy="182.82262"
       sodipodi:rx="0.88718748"
       sodipodi:ry="0.88718748"
       sodipodi:start="3.2046469"
       sodipodi:end="3.2045266"
       sodipodi:open="true"
       sodipodi:arc-type="arc"
       d="m 120.83774,182.76671 a 0.88718748,0.88718748 0 0 1 0.9413,-0.82952 0.88718748,0.88718748 0 0 1 0.82956,0.94128 0.88718748,0.88718748 0 0 1 -0.94126,0.82958 0.88718748,0.88718748 0 0 1 -0.8296,-0.94123" />
    <path
       style="font-variation-settings:normal;opacity:1;vector-effect:none;fill:#000000;fill-opacity:1;fill-rule:evenodd;stroke:none;stroke-width:0.264583;stroke-linecap:butt;stroke-linejoin:miter;stroke-miterlimit:4;stroke-dasharray:none;stroke-dashoffset:0;stroke-opacity:1;-inkscape-stroke:none;marker-start:none;marker-end:none;stop-color:#000000;stop-opacity:1"
       id="path917"
       sodipodi:type="arc"
       sodipodi:cx="121.72317"
       sodipodi:cy="203.9893"
       sodipodi:rx="0.88718748"
       sodipodi:ry="0.88718748"
       sodipodi:start="3.2046469"
       sodipodi:end="3.2045266"
       sodipodi:open="true"
       sodipodi:arc-type="arc"
       d="m 120.83774,203.9334 a 0.88718748,0.88718748 0 0 1 0.9413,-0.82952 0.88718748,0.88718748 0 0 1 0.82956,0.94127 0.88718748,0.88718748 0 0 1 -0.94126,0.82958 0.88718748,0.88718748 0 0 1 -0.8296,-0.94122" />
    <path
       style="font-variation-settings:normal;opacity:1;vector-effect:none;fill:none;fill-opacity:1;fill-rule:evenodd;stroke:#0e0000;stroke-width:0.264583;stroke-linecap:butt;stroke-linejoin:miter;stroke-miterlimit:4;stroke-dasharray:none;stroke-dashoffset:0;stroke-opacity:1;-inkscape-stroke:none;stop-color:#000000;stop-opacity:1"
       id="path919"
       sodipodi:type="arc"
       sodipodi:cx="121.72317"
       sodipodi:cy="241.03101"
       sodipodi:rx="4.7681026"
       sodipodi:ry="14.304309"
       sodipodi:start="3.2046469"
       sodipodi:end="3.2045266"
       sodipodi:open="true"
       sodipodi:arc-type="arc"
       d="m 116.96454,240.12966 a 4.7681026,14.304309 0 0 1 5.05893,-13.37456 4.7681026,14.304309 0 0 1 4.45834,15.1764 4.7681026,14.304309 0 0 1 -5.05866,13.37547 4.7681026,14.304309 0 0 1 -4.45865,-15.1756" />
    <path
       style="font-variation-settings:normal;opacity:1;vector-effect:none;fill:#000000;fill-opacity:1;fill-rule:evenodd;stroke:none;stroke-width:0.264583;stroke-linecap:butt;stroke-linejoin:miter;stroke-miterlimit:4;stroke-dasharray:none;stroke-dashoffset:0;stroke-opacity:1;-inkscape-stroke:none;marker-start:none;marker-end:none;stop-color:#000000;stop-opacity:1"
       id="path927"
       sodipodi:type="arc"
       sodipodi:cx="121.72317"
       sodipodi:cy="188.11429"
       sodipodi:rx="0.88718748"
       sodipodi:ry="0.88718748"
       sodipodi:start="3.2046469"
       sodipodi:end="3.2045266"
       sodipodi:open="true"
       sodipodi:arc-type="arc"
       d="m 120.83774,188.05838 a 0.88718748,0.88718748 0 0 1 0.9413,-0.82952 0.88718748,0.88718748 0 0 1 0.82956,0.94128 0.88718748,0.88718748 0 0 1 -0.94126,0.82958 0.88718748,0.88718748 0 0 1 -0.8296,-0.94123" />
    <path
       style="font-variation-settings:normal;opacity:1;vector-effect:none;fill:#000000;fill-opacity:1;fill-rule:evenodd;stroke:none;stroke-width:0.264583;stroke-linecap:butt;stroke-linejoin:miter;stroke-miterlimit:4;stroke-dasharray:none;stroke-dashoffset:0;stroke-opacity:1;-inkscape-stroke:none;marker-start:none;marker-end:none;stop-color:#000000;stop-opacity:1"
       id="path929"
       sodipodi:type="arc"
       sodipodi:cx="121.72317"
       sodipodi:cy="198.69763"
       sodipodi:rx="0.88718748"
       sodipodi:ry="0.88718748"
       sodipodi:start="3.2046469"
       sodipodi:end="3.2045266"
       sodipodi:open="true"
       sodipodi:arc-type="arc"
       d="m 120.83774,198.64173 a 0.88718748,0.88718748 0 0 1 0.9413,-0.82952 0.88718748,0.88718748 0 0 1 0.82956,0.94127 0.88718748,0.88718748 0 0 1 -0.94126,0.82958 0.88718748,0.88718748 0 0 1 -0.8296,-0.94123" />
    <path
       style="fill:none;fill-opacity:1;stroke:#000000;stroke-width:0.264583;stroke-linecap:butt;stroke-linejoin:miter;stroke-dasharray:none;stroke-opacity:1;marker-start:none;marker-end:url(#marker-arrow-1)"
       d="m 89.97317,225.15599 v -9.69615"
       id="path1020" />
    <path
       style="fill:none;fill-opacity:1;stroke:#000000;stroke-width:0.264583;stroke-linecap:butt;stroke-linejoin:miter;stroke-dasharray:none;stroke-opacity:1;marker-start:none;marker-end:url(#marker-arrow-1)"
       d="m 89.97317,214.57265 v -9.69616"
       id="path1044" />
    <path
       style="fill:none;fill-opacity:1;stroke:#000000;stroke-width:0.264583;stroke-linecap:butt;stroke-linejoin:miter;stroke-dasharray:0.79375, 0.79375;stroke-opacity:1;marker-start:none;marker-end:url(#marker-arrow-1)"
       d="m 89.97317,203.9893 30.86282,-21.16668"
       id="path1077" />
    <path
       style="fill:none;fill-opacity:1;stroke:#000000;stroke-width:0.264583;stroke-linecap:butt;stroke-linejoin:miter;stroke-dasharray:0.79375, 0.79375;stroke-opacity:1;marker-start:none;marker-end:url(#marker-arrow-1)"
       d="M 89.973168,214.57265 120.83599,193.40596"
       id="path1119" />
    <path
       style="fill:none;fill-opacity:1;stroke:#000000;stroke-width:0.264583;stroke-linecap:butt;stroke-linejoin:miter;stroke-dasharray:0.79375, 0.79375;stroke-opacity:1;marker-start:none;marker-end:url(#marker-arrow-1)"
       d="M 89.973168,225.15599 120.83599,198.69763"
       id="path1170" />
    <path
       style="fill:none;fill-opacity:1;stroke:#000000;stroke-width:0.264583;stroke-linecap:butt;stroke-linejoin:miter;stroke-dasharray:0.79375, 0.79375;stroke-opacity:1;marker-start:none;marker-end:url(#marker-arrow-1)"
       d="m 89.973168,203.9893 30.864582,29.0483"
       id="path1230" />
    <path
       style="fill:none;fill-opacity:1;stroke:#000000;stroke-width:0.264583;stroke-linecap:butt;stroke-linejoin:miter;stroke-dasharray:0.79375, 0.79375;stroke-opacity:1;marker-start:none;marker-end:url(#marker-arrow-1)"
       d="m 89.973168,214.57265 30.862822,29.1042"
       id="path1299" />
    <path
       style="fill:none;fill-opacity:1;stroke:#000000;stroke-width:0.264583;stroke-linecap:butt;stroke-linejoin:miter;stroke-dasharray:0.79375, 0.79375;stroke-opacity:1;marker-start:none;marker-end:url(#marker-arrow-1)"
       d="m 89.973168,225.15599 30.864582,23.75663"
       id="path1377" />
    <path
       style="font-variation-settings:normal;opacity:1;vector-effect:none;fill:none;fill-opacity:1;fill-rule:evenodd;stroke:#0e0000;stroke-width:0.264583;stroke-linecap:butt;stroke-linejoin:miter;stroke-miterlimit:4;stroke-dasharray:none;stroke-dashoffset:0;stroke-opacity:1;-inkscape-stroke:none;stop-color:#000000;stop-opacity:1"
       id="path1464"
       sodipodi:type="arc"
       sodipodi:cx="153.47319"
       sodipodi:cy="214.57265"
       sodipodi:rx="4.7681026"
       sodipodi:ry="14.304309"
       sodipodi:start="3.2046469"
       sodipodi:end="3.2045266"
       sodipodi:open="true"
       sodipodi:arc-type="arc"
       d="m 148.71456,213.6713 a 4.7681026,14.304309 0 0 1 5.05894,-13.37456 4.7681026,14.304309 0 0 1 4.45834,15.1764 4.7681026,14.304309 0 0 1 -5.05867,13.37547 4.7681026,14.304309 0 0 1 -4.45864,-15.1756" />
    <path
       style="font-variation-settings:normal;opacity:1;vector-effect:none;fill:#000000;fill-opacity:1;fill-rule:evenodd;stroke:none;stroke-width:0.264583;stroke-linecap:butt;stroke-linejoin:miter;stroke-miterlimit:4;stroke-dasharray:none;stroke-dashoffset:0;stroke-opacity:1;-inkscape-stroke:none;marker-start:none;marker-end:none;stop-color:#000000;stop-opacity:1"
       id="path1466"
       sodipodi:type="arc"
       sodipodi:cx="153.47319"
       sodipodi:cy="214.57265"
       sodipodi:rx="0.88718748"
       sodipodi:ry="0.88718748"
       sodipodi:start="3.2046469"
       sodipodi:end="3.2045266"
       sodipodi:open="true"
       sodipodi:arc-type="arc"
       d="m 152.58777,214.51674 a 0.88718748,0.88718748 0 0 1 0.9413,-0.82952 0.88718748,0.88718748 0 0 1 0.82955,0.94128 0.88718748,0.88718748 0 0 1 -0.94125,0.82958 0.88718748,0.88718748 0 0 1 -0.82961,-0.94123" />
    <path
       style="font-variation-settings:normal;opacity:1;vector-effect:none;fill:#000000;fill-opacity:1;fill-rule:evenodd;stroke:none;stroke-width:0.264583;stroke-linecap:butt;stroke-linejoin:miter;stroke-miterlimit:4;stroke-dasharray:none;stroke-dashoffset:0;stroke-opacity:1;-inkscape-stroke:none;marker-start:none;marker-end:none;stop-color:#000000;stop-opacity:1"
       id="path1468"
       sodipodi:type="arc"
       sodipodi:cx="153.47319"
       sodipodi:cy="203.9893"
       sodipodi:rx="0.88718748"
       sodipodi:ry="0.88718748"
       sodipodi:start="3.2046469"
       sodipodi:end="3.2045266"
       sodipodi:open="true"
       sodipodi:arc-type="arc"
       d="m 152.58777,203.9334 a 0.88718748,0.88718748 0 0 1 0.9413,-0.82952 0.88718748,0.88718748 0 0 1 0.82955,0.94127 0.88718748,0.88718748 0 0 1 -0.94125,0.82958 0.88718748,0.88718748 0 0 1 -0.82961,-0.94122" />
    <path
       style="font-variation-settings:normal;opacity:1;vector-effect:none;fill:#000000;fill-opacity:1;fill-rule:evenodd;stroke:none;stroke-width:0.264583;stroke-linecap:butt;stroke-linejoin:miter;stroke-miterlimit:4;stroke-dasharray:none;stroke-dashoffset:0;stroke-opacity:1;-inkscape-stroke:none;marker-start:none;marker-end:none;stop-color:#000000;stop-opacity:1"
       id="path1470"
       sodipodi:type="arc"
       sodipodi:cx="153.47319"
       sodipodi:cy="225.15599"
       sodipodi:rx="0.88718748"
       sodipodi:ry="0.88718748"
       sodipodi:start="3.2046469"
       sodipodi:end="3.2045266"
       sodipodi:open="true"
       sodipodi:arc-type="arc"
       d="m 152.58777,225.10009 a 0.88718748,0.88718748 0 0 1 0.9413,-0.82953 0.88718748,0.88718748 0 0 1 0.82955,0.94128 0.88718748,0.88718748 0 0 1 -0.94125,0.82958 0.88718748,0.88718748 0 0 1 -0.82961,-0.94123" />
    <path
       style="font-variation-settings:normal;opacity:1;vector-effect:none;fill:#000000;fill-opacity:1;fill-rule:evenodd;stroke:none;stroke-width:0.264583;stroke-linecap:butt;stroke-linejoin:miter;stroke-miterlimit:4;stroke-dasharray:none;stroke-dashoffset:0;stroke-opacity:1;-inkscape-stroke:none;marker-start:none;marker-end:none;stop-color:#000000;stop-opacity:1"
       id="path1476"
       sodipodi:type="arc"
       sodipodi:cx="153.47319"
       sodipodi:cy="210.86845"
       sodipodi:rx="0.88718748"
       sodipodi:ry="0.88718748"
       sodipodi:start="3.2046469"
       sodipodi:end="3.2045266"
       sodipodi:open="true"
       sodipodi:arc-type="arc"
       d="m 152.58777,210.81255 a 0.88718748,0.88718748 0 0 1 0.9413,-0.82952 0.88718748,0.88718748 0 0 1 0.82955,0.94127 0.88718748,0.88718748 0 0 1 -0.94125,0.82958 0.88718748,0.88718748 0 0 1 -0.82961,-0.94122" />
    <path
       style="font-variation-settings:normal;opacity:1;vector-effect:none;fill:#000000;fill-opacity:1;fill-rule:evenodd;stroke:none;stroke-width:0.264583;stroke-linecap:butt;stroke-linejoin:miter;stroke-miterlimit:4;stroke-dasharray:none;stroke-dashoffset:0;stroke-opacity:1;-inkscape-stroke:none;marker-start:none;marker-end:none;stop-color:#000000;stop-opacity:1"
       id="path1478"
       sodipodi:type="arc"
       sodipodi:cx="153.47319"
       sodipodi:cy="207.6935"
       sodipodi:rx="0.88718748"
       sodipodi:ry="0.88718748"
       sodipodi:start="3.2046469"
       sodipodi:end="3.2045266"
       sodipodi:open="true"
       sodipodi:arc-type="arc"
       d="m 152.58777,207.63759 a 0.88718748,0.88718748 0 0 1 0.9413,-0.82952 0.88718748,0.88718748 0 0 1 0.82955,0.94128 0.88718748,0.88718748 0 0 1 -0.94125,0.82958 0.88718748,0.88718748 0 0 1 -0.82961,-0.94123" />
    <path
       style="font-variation-settings:normal;opacity:1;vector-effect:none;fill:#000000;fill-opacity:1;fill-rule:evenodd;stroke:none;stroke-width:0.264583;stroke-linecap:butt;stroke-linejoin:miter;stroke-miterlimit:4;stroke-dasharray:none;stroke-dashoffset:0;stroke-opacity:1;-inkscape-stroke:none;marker-start:none;marker-end:none;stop-color:#000000;stop-opacity:1"
       id="path1480"
       sodipodi:type="arc"
       sodipodi:cx="153.47319"
       sodipodi:cy="219.86432"
       sodipodi:rx="0.88718748"
       sodipodi:ry="0.88718748"
       sodipodi:start="3.2046469"
       sodipodi:end="3.2045266"
       sodipodi:open="true"
       sodipodi:arc-type="arc"
       d="m 152.58777,219.80841 a 0.88718748,0.88718748 0 0 1 0.9413,-0.82952 0.88718748,0.88718748 0 0 1 0.82955,0.94128 0.88718748,0.88718748 0 0 1 -0.94125,0.82958 0.88718748,0.88718748 0 0 1 -0.82961,-0.94123" />
    <text
       xml:space="preserve"
       style="font-size:4.9389px;line-height:1.25;font-family:sans-serif;-inkscape-font-specification:'sans-serif, Normal';text-decoration-color:#000000;letter-spacing:0px;word-spacing:0px;fill:#000000;stroke-width:0.264583;-inkscape-stroke:none;stop-color:#000000"
       x="81.529312"
       y="198.59125"
       id="text1536"><tspan
         sodipodi:role="line"
         id="tspan1534"
         style="stroke-width:0.264583"
         x="81.529312"
         y="198.59125">\(\mathcal{A}\)</tspan></text>
    <text
       xml:space="preserve"
       style="font-size:4.9389px;line-height:1.25;font-family:sans-serif;-inkscape-font-specification:'sans-serif, Normal';text-decoration-color:#000000;letter-spacing:0px;word-spacing:0px;fill:#000000;stroke-width:0.264583;-inkscape-stroke:none;stop-color:#000000"
       x="112.39255"
       y="181.54422"
       id="text1536-6"><tspan
         sodipodi:role="line"
         id="tspan1534-2"
         style="stroke-width:0.264583"
         x="112.39255"
         y="181.54422">\(\mathcal{B}\)</tspan></text>
    <text
       xml:space="preserve"
       style="font-size:4.9389px;line-height:1.25;font-family:sans-serif;-inkscape-font-specification:'sans-serif, Normal';text-decoration-color:#000000;letter-spacing:0px;word-spacing:0px;fill:#000000;stroke-width:0.264583;-inkscape-stroke:none;stop-color:#000000"
       x="111.78024"
       y="254.41002"
       id="text1536-6-1"><tspan
         sodipodi:role="line"
         id="tspan1534-2-5"
         style="stroke-width:0.264583"
         x="111.78024"
         y="254.41002">\(\mathcal{C}\)</tspan></text>
    <text
       xml:space="preserve"
       style="font-size:4.9389px;line-height:1.25;font-family:sans-serif;-inkscape-font-specification:'sans-serif, Normal';text-decoration-color:#000000;letter-spacing:0px;word-spacing:0px;fill:#000000;stroke-width:0.264583;-inkscape-stroke:none;stop-color:#000000"
       x="156.02441"
       y="200.96423"
       id="text1536-6-7"><tspan
         sodipodi:role="line"
         id="tspan1534-2-9"
         style="stroke-width:0.264583"
         x="156.02441"
         y="200.96423">\(\mathcal{D}\)</tspan></text>
    <path
       style="fill:none;fill-opacity:1;stroke:#000000;stroke-width:0.264583;stroke-linecap:butt;stroke-linejoin:miter;stroke-dasharray:0.79375, 0.79375;stroke-opacity:1;marker-start:none;marker-end:url(#marker-arrow-1)"
       d="m 121.72317,182.82262 30.86459,21.11078"
       id="path1677" />
    <path
       style="fill:none;fill-opacity:1;stroke:#000000;stroke-width:0.264583;stroke-linecap:butt;stroke-linejoin:miter;stroke-dasharray:none;stroke-opacity:1;marker-start:none;marker-end:url(#marker-arrow-1)"
       d="M 121.72317,188.11429 152.586,207.6935"
       id="path1773" />
    <path
       style="fill:none;fill-opacity:1;stroke:#000000;stroke-width:0.264583;stroke-linecap:butt;stroke-linejoin:miter;stroke-dasharray:0.79375, 0.79375;stroke-opacity:1;marker-start:none;marker-end:url(#marker-arrow-1)"
       d="m 121.72317,193.40596 30.86459,21.11078"
       id="path1878" />
    <path
       style="fill:none;fill-opacity:1;stroke:#000000;stroke-width:0.264583;stroke-linecap:butt;stroke-linejoin:miter;stroke-dasharray:0.79375, 0.79375;stroke-opacity:1;marker-start:none;marker-end:url(#marker-arrow-1)"
       d="M 121.72317,198.69763 152.586,219.86432"
       id="path1992" />
    <path
       style="fill:none;fill-opacity:1;stroke:#000000;stroke-width:0.264583;stroke-linecap:butt;stroke-linejoin:miter;stroke-dasharray:none;stroke-opacity:1;marker-start:none;marker-end:url(#marker-arrow-1)"
       d="M 121.72317,203.9893 152.586,225.15599"
       id="path2115" />
    <path
       style="fill:none;fill-opacity:1;stroke:#000000;stroke-width:0.264583;stroke-linecap:butt;stroke-linejoin:miter;stroke-dasharray:0.79375, 0.79375;stroke-opacity:1;marker-start:none;marker-end:url(#marker-arrow-1)"
       d="M 121.72317,233.0935 152.586,203.9893"
       id="path2247" />
    <path
       style="fill:none;fill-opacity:1;stroke:#000000;stroke-width:0.264583;stroke-linecap:butt;stroke-linejoin:miter;stroke-dasharray:none;stroke-opacity:1;marker-start:none;marker-end:url(#marker-arrow-1)"
       d="M 121.72317,238.38518 152.586,210.86845"
       id="path2388" />
    <path
       style="fill:none;fill-opacity:1;stroke:#000000;stroke-width:0.264583;stroke-linecap:butt;stroke-linejoin:miter;stroke-dasharray:0.79375, 0.79375;stroke-opacity:1;marker-start:none;marker-end:url(#marker-arrow-1)"
       d="M 121.72317,243.67685 152.586,214.57265"
       id="path2538" />
    <path
       style="fill:none;fill-opacity:1;stroke:#000000;stroke-width:0.264583;stroke-linecap:butt;stroke-linejoin:miter;stroke-dasharray:0.79375, 0.79375;stroke-opacity:1;marker-start:none;marker-end:url(#marker-arrow-1)"
       d="m 121.72317,248.96852 30.86459,-29.16011"
       id="path2697" />
    <path
       style="font-variation-settings:normal;opacity:1;vector-effect:none;fill:none;fill-opacity:1;fill-rule:evenodd;stroke:#0e0000;stroke-width:0.264583;stroke-linecap:butt;stroke-linejoin:miter;stroke-miterlimit:4;stroke-dasharray:none;stroke-dashoffset:0;stroke-opacity:1;-inkscape-stroke:none;stop-color:#000000;stop-opacity:1"
       id="path2865"
       sodipodi:type="arc"
       sodipodi:cx="153.47319"
       sodipodi:cy="209.23181"
       sodipodi:rx="2.0144396"
       sodipodi:ry="3.9904613"
       sodipodi:start="3.2046469"
       sodipodi:end="3.2045266"
       sodipodi:open="true"
       sodipodi:arc-type="arc"
       d="m 151.46275,208.98036 a 2.0144396,3.9904613 0 0 1 2.13731,-3.73109 2.0144396,3.9904613 0 0 1 1.88357,4.23375 2.0144396,3.9904613 0 0 1 -2.13719,3.73135 2.0144396,3.9904613 0 0 1 -1.8837,-4.23353" />
  </g>
</svg>
