<?xml version="1.0" encoding="UTF-8" standalone="no"?>
<!-- Created with Inkscape (http://www.inkscape.org/) -->

<svg
   width="240mm"
   height="32mm"
   viewBox="0 0 240 32"
   version="1.1"
   id="svg8"
   inkscape:version="1.2.2 (b0a84865, 2022-12-01)"
   sodipodi:docname="random-graph-theory.svg"
   xmlns:inkscape="http://www.inkscape.org/namespaces/inkscape"
   xmlns:sodipodi="http://sodipodi.sourceforge.net/DTD/sodipodi-0.dtd"
   xmlns="http://www.w3.org/2000/svg"
   xmlns:svg="http://www.w3.org/2000/svg"
   xmlns:rdf="http://www.w3.org/1999/02/22-rdf-syntax-ns#"
   xmlns:cc="http://creativecommons.org/ns#"
   xmlns:dc="http://purl.org/dc/elements/1.1/">
  <defs
     id="defs2">
    <inkscape:path-effect
       effect="spiro"
       id="path-effect3701"
       is_visible="true"
       lpeversion="1" />
    <inkscape:path-effect
       effect="spiro"
       id="path-effect3668"
       is_visible="true"
       lpeversion="1" />
    <inkscape:path-effect
       effect="spiro"
       id="path-effect3664"
       is_visible="true"
       lpeversion="1" />
    <inkscape:path-effect
       effect="spiro"
       id="path-effect3476"
       is_visible="true"
       lpeversion="1" />
    <inkscape:path-effect
       effect="spiro"
       id="path-effect1068"
       is_visible="true"
       lpeversion="1" />
    <inkscape:path-effect
       effect="spiro"
       id="path-effect1060"
       is_visible="true"
       lpeversion="1" />
    <inkscape:path-effect
       effect="spiro"
       id="path-effect802"
       is_visible="true"
       lpeversion="1" />
  </defs>
  <sodipodi:namedview
     id="base"
     pagecolor="#ffffff"
     bordercolor="#666666"
     borderopacity="1.0"
     inkscape:pageopacity="0.0"
     inkscape:pageshadow="2"
     inkscape:zoom="3.8603048"
     inkscape:cx="418.1017"
     inkscape:cy="42.872262"
     inkscape:document-units="mm"
     inkscape:current-layer="layer1"
     showgrid="false"
     showborder="true"
     width="200mm"
     showguides="true"
     inkscape:guide-bbox="true"
     inkscape:window-width="1728"
     inkscape:window-height="1051"
     inkscape:window-x="108"
     inkscape:window-y="1118"
     inkscape:window-maximized="0"
     inkscape:showpageshadow="2"
     inkscape:pagecheckerboard="0"
     inkscape:deskcolor="#d1d1d1">
    <inkscape:grid
       type="xygrid"
       id="grid815"
       units="mm"
       spacingx="10"
       spacingy="10"
       empspacing="4"
       dotted="false"
       originx="0"
       originy="0" />
  </sodipodi:namedview>
  <metadata
     id="metadata5">
    <rdf:RDF>
      <cc:Work
         rdf:about="">
        <dc:format>image/svg+xml</dc:format>
        <dc:type
           rdf:resource="http://purl.org/dc/dcmitype/StillImage" />
      </cc:Work>
    </rdf:RDF>
  </metadata>
  <g
     inkscape:label="Layer 1"
     inkscape:groupmode="layer"
     id="layer1"
     transform="translate(0,-177)">
    <path
       style="fill:none;stroke:#000000;stroke-width:0.264583px;stroke-linecap:butt;stroke-linejoin:miter;stroke-opacity:1"
       d="m 107.33423,183.15908 c 8.21048,0.22406 16.23834,-2.12592 24.23708,-3.99207 7.99874,-1.86615 16.4232,-3.25528 24.3589,-1.13705 3.79505,1.01299 7.43189,2.86159 10.14023,5.7065 2.70833,2.8449 4.41242,6.74647 4.17335,10.6671 -0.17702,2.90308 -1.40708,5.70452 -3.29846,7.91402 -1.89138,2.2095 -4.42092,3.83673 -7.1626,4.80749 -5.48338,1.9415 -11.6091,1.25367 -17.11017,-0.63711 -4.62904,-1.59106 -9.01457,-4.0145 -13.84429,-4.81029 -6.56103,-1.08106 -13.19179,0.94558 -19.5337,2.94458 -6.34191,1.999 -12.976818,4.01797 -19.535317,2.92164 -2.269288,-0.37934 -4.49295,-1.1396 -6.423054,-2.39191 -1.930104,-1.2523 -3.557254,-3.01279 -4.488115,-5.11685 -0.731727,-1.65395 -1.021951,-3.49517 -0.877767,-5.298 0.144183,-1.80282 0.718674,-3.56501 1.627161,-5.12886 1.816974,-3.12769 4.947528,-5.39493 8.401908,-6.46785 3.097174,-0.96197 6.405367,-1.0111 9.640663,-0.78587 3.235301,0.22523 6.452261,0.71606 9.694181,0.80453 z"
       id="path800"
       inkscape:path-effect="#path-effect802"
       inkscape:original-d="m 107.33423,183.15908 c 2.65909,-0.23491 38.18459,-4.33438 48.59598,-5.12912 17.28085,-1.31911 -0.92202,8.32019 14.31358,16.3736 4.37984,2.03336 -23.19086,7.97832 -27.57123,12.0844 -4.38038,4.10609 0.39134,-7.27384 -13.84429,-4.81029 -14.23562,2.46355 -34.219345,9.15157 -39.069017,5.86622 -4.849675,-3.28534 -8.368878,-5.6313 -10.911169,-7.50876 -2.542294,-1.87745 5.866484,-15.60388 9.151302,-16.89471 3.284818,-1.29084 16.675754,0.25357 19.334844,0.0187 z"
       sodipodi:nodetypes="sscssssss" />
    <path
       style="fill:none;stroke:#000000;stroke-width:0.264583px;stroke-linecap:butt;stroke-linejoin:miter;stroke-opacity:1"
       d="m 142.67255,191.75691 c -0.67763,1.49879 -0.96569,3.20972 -0.58662,4.8103 0.24569,1.03737 0.76678,2.0051 1.47922,2.79814 0.71245,0.79304 1.61351,1.41176 2.60028,1.81523 1.97354,0.80694 4.25526,0.7283 6.24504,-0.0377 1.91311,-0.73651 3.59525,-2.11443 4.58357,-3.91044 0.98831,-1.79602 1.24619,-4.00652 0.57871,-5.9448 -0.5193,-1.50798 -1.58079,-2.8162 -2.92886,-3.66849 -1.34807,-0.8523 -2.97156,-1.24959 -4.56369,-1.15572 -1.59213,0.0939 -3.14697,0.67282 -4.43674,1.611 -1.28976,0.93818 -2.31387,2.22923 -2.97091,3.6825 z"
       id="path1058"
       inkscape:path-effect="#path-effect1060"
       inkscape:original-d="m 142.67255,191.75691 c -4.967,0.15617 -0.39082,3.20713 -0.58662,4.8103 -0.19581,1.60317 6.88329,3.0507 10.32454,4.57565 3.44125,1.52496 3.44178,-6.5699 5.16228,-9.85524 1.72049,-3.28535 -9.9332,0.31313 -14.9002,0.46929 z" />
    <path
       style="fill:none;stroke:#000000;stroke-width:0.264583px;stroke-linecap:butt;stroke-linejoin:miter;stroke-opacity:1"
       d="m 91.284468,200.7909 c 0.479944,0.73403 1.17126,1.31904 1.948488,1.72531 0.777227,0.40627 1.638581,0.63825 2.509839,0.7385 2.192952,0.25232 4.516165,-0.37294 6.147575,-1.85996 0.81571,-0.7435 1.44986,-1.68993 1.79981,-2.7367 0.34995,-1.04676 0.41163,-2.19232 0.148,-3.26408 -0.31365,-1.27507 -1.08755,-2.426 -2.12914,-3.22556 -1.04158,-0.79955 -2.341518,-1.24808 -3.653715,-1.29629 -1.312197,-0.0482 -2.631601,0.29907 -3.768308,0.9564 -1.136708,0.65733 -2.090063,1.61958 -2.767901,2.74418 -0.564659,0.93682 -0.94312,1.99673 -1.013032,3.08833 -0.06991,1.0916 0.17978,2.21436 0.778384,3.12987 z"
       id="path1066"
       inkscape:path-effect="#path-effect1068"
       inkscape:original-d="m 91.284468,200.7909 c -0.07848,2.07246 2.972487,1.6428 4.458327,2.46381 1.48584,0.821 5.397195,-5.24023 8.095385,-7.86074 2.6982,-2.62051 -8.212445,-0.54725 -12.319064,-0.82127 -4.106619,-0.27402 -0.156167,4.14573 -0.234648,6.2182 z" />
    <text
       xml:space="preserve"
       style="font-size:4.9389px;line-height:1.25;font-family:sans-serif;-inkscape-font-specification:'sans-serif, Normal';text-decoration-color:#000000;letter-spacing:0px;word-spacing:0px;fill:#000000;stroke-width:0.264583;-inkscape-stroke:none;stop-color:#000000"
       x="88.774841"
       y="191.79369"
       id="text1850"><tspan
         sodipodi:role="line"
         id="tspan1848"
         style="stroke-width:0.264583"
         x="88.774841"
         y="191.79369">\(X\)</tspan></text>
    <text
       xml:space="preserve"
       style="font-size:4.9389px;line-height:1.25;font-family:sans-serif;-inkscape-font-specification:'sans-serif, Normal';text-decoration-color:#000000;letter-spacing:0px;word-spacing:0px;fill:#000000;stroke-width:0.264583;-inkscape-stroke:none;stop-color:#000000"
       x="155.6832"
       y="186.91148"
       id="text1850-7"><tspan
         sodipodi:role="line"
         id="tspan1848-0"
         style="stroke-width:0.264583"
         x="155.6832"
         y="186.91148">\(Y\)</tspan></text>
    <path
       style="font-variation-settings:normal;opacity:1;vector-effect:none;fill:black;fill-opacity:1;fill-rule:evenodd;stroke:none;stroke-width:0.264583;stroke-linecap:butt;stroke-linejoin:miter;stroke-miterlimit:4;stroke-dasharray:none;stroke-dashoffset:0;stroke-opacity:1;-inkscape-stroke:none;stop-color:#000000;stop-opacity:1;marker-end:none;marker-start:none"
       id="path3464"
       sodipodi:type="arc"
       sodipodi:cx="120.86229"
       sodipodi:cy="187.84218"
       sodipodi:rx="0.38876364"
       sodipodi:ry="0.38876364"
       sodipodi:start="3.2046469"
       sodipodi:end="3.2044806"
       sodipodi:arc-type="arc"
       d="m 120.4743,187.81768 a 0.38876364,0.38876364 0 0 1 0.41247,-0.36349 0.38876364,0.38876364 0 0 1 0.36351,0.41245 0.38876364,0.38876364 0 0 1 -0.41244,0.36353 0.38876364,0.38876364 0 0 1 -0.36355,-0.41242"
       sodipodi:open="true" />
    <path
       style="font-variation-settings:normal;vector-effect:none;fill:#000000;fill-opacity:1;fill-rule:evenodd;stroke:none;stroke-width:0.264583;stroke-linecap:butt;stroke-linejoin:miter;stroke-miterlimit:4;stroke-dasharray:none;stroke-dashoffset:0;stroke-opacity:1;-inkscape-stroke:none;marker-start:none;marker-end:none;stop-color:#000000"
       id="path3464-7"
       sodipodi:type="arc"
       sodipodi:cx="97.572075"
       sodipodi:cy="192.76328"
       sodipodi:rx="0.38876364"
       sodipodi:ry="0.38876364"
       sodipodi:start="3.2046469"
       sodipodi:end="3.2044806"
       sodipodi:arc-type="arc"
       d="m 97.184084,192.73878 a 0.38876364,0.38876364 0 0 1 0.412472,-0.3635 0.38876364,0.38876364 0 0 1 0.363512,0.41246 0.38876364,0.38876364 0 0 1 -0.412442,0.36353 0.38876364,0.38876364 0 0 1 -0.363546,-0.41243"
       sodipodi:open="true" />
    <path
       style="font-variation-settings:normal;vector-effect:none;fill:#000000;fill-opacity:1;fill-rule:evenodd;stroke:none;stroke-width:0.264583;stroke-linecap:butt;stroke-linejoin:miter;stroke-miterlimit:4;stroke-dasharray:none;stroke-dashoffset:0;stroke-opacity:1;-inkscape-stroke:none;marker-start:none;marker-end:none;stop-color:#000000"
       id="path3464-4"
       sodipodi:type="arc"
       sodipodi:cx="93.806168"
       sodipodi:cy="196.12091"
       sodipodi:rx="0.38876364"
       sodipodi:ry="0.38876364"
       sodipodi:start="3.2046469"
       sodipodi:end="3.2044806"
       sodipodi:arc-type="arc"
       d="m 93.418177,196.09641 a 0.38876364,0.38876364 0 0 1 0.412471,-0.36349 0.38876364,0.38876364 0 0 1 0.363513,0.41246 0.38876364,0.38876364 0 0 1 -0.412442,0.36352 0.38876364,0.38876364 0 0 1 -0.363547,-0.41242"
       sodipodi:open="true" />
    <path
       style="font-variation-settings:normal;vector-effect:none;fill:#000000;fill-opacity:1;fill-rule:evenodd;stroke:none;stroke-width:0.264583;stroke-linecap:butt;stroke-linejoin:miter;stroke-miterlimit:4;stroke-dasharray:none;stroke-dashoffset:0;stroke-opacity:1;-inkscape-stroke:none;marker-start:none;marker-end:none;stop-color:#000000"
       id="path3464-94"
       sodipodi:type="arc"
       sodipodi:cx="107.84868"
       sodipodi:cy="203.83032"
       sodipodi:rx="0.38876364"
       sodipodi:ry="0.38876364"
       sodipodi:start="3.2046469"
       sodipodi:end="3.2044806"
       sodipodi:arc-type="arc"
       d="m 107.46069,203.80583 a 0.38876364,0.38876364 0 0 1 0.41247,-0.3635 0.38876364,0.38876364 0 0 1 0.36351,0.41246 0.38876364,0.38876364 0 0 1 -0.41244,0.36353 0.38876364,0.38876364 0 0 1 -0.36355,-0.41243"
       sodipodi:open="true" />
    <path
       style="font-variation-settings:normal;vector-effect:none;fill:#000000;fill-opacity:1;fill-rule:evenodd;stroke:none;stroke-width:0.264583;stroke-linecap:butt;stroke-linejoin:miter;stroke-miterlimit:4;stroke-dasharray:none;stroke-dashoffset:0;stroke-opacity:1;-inkscape-stroke:none;marker-start:none;marker-end:none;stop-color:#000000"
       id="path3464-8"
       sodipodi:type="arc"
       sodipodi:cx="98.752533"
       sodipodi:cy="196.69971"
       sodipodi:rx="0.38876364"
       sodipodi:ry="0.38876364"
       sodipodi:start="3.2046469"
       sodipodi:end="3.2044806"
       sodipodi:arc-type="arc"
       d="m 98.364542,196.67521 a 0.38876364,0.38876364 0 0 1 0.412472,-0.3635 0.38876364,0.38876364 0 0 1 0.363512,0.41246 0.38876364,0.38876364 0 0 1 -0.412442,0.36353 0.38876364,0.38876364 0 0 1 -0.363546,-0.41243"
       sodipodi:open="true" />
    <path
       style="font-variation-settings:normal;vector-effect:none;fill:#000000;fill-opacity:1;fill-rule:evenodd;stroke:none;stroke-width:0.264583;stroke-linecap:butt;stroke-linejoin:miter;stroke-miterlimit:4;stroke-dasharray:none;stroke-dashoffset:0;stroke-opacity:1;-inkscape-stroke:none;marker-start:none;marker-end:none;stop-color:#000000"
       id="path3464-5"
       sodipodi:type="arc"
       sodipodi:cx="97.147949"
       sodipodi:cy="200.209"
       sodipodi:rx="0.38876364"
       sodipodi:ry="0.38876364"
       sodipodi:start="3.2046469"
       sodipodi:end="3.2044806"
       sodipodi:arc-type="arc"
       d="m 96.759958,200.1845 a 0.38876364,0.38876364 0 0 1 0.412472,-0.36349 0.38876364,0.38876364 0 0 1 0.363512,0.41245 0.38876364,0.38876364 0 0 1 -0.412441,0.36353 0.38876364,0.38876364 0 0 1 -0.363547,-0.41242"
       sodipodi:open="true" />
    <path
       style="font-variation-settings:normal;vector-effect:none;fill:#000000;fill-opacity:1;fill-rule:evenodd;stroke:none;stroke-width:0.264583;stroke-linecap:butt;stroke-linejoin:miter;stroke-miterlimit:4;stroke-dasharray:none;stroke-dashoffset:0;stroke-opacity:1;-inkscape-stroke:none;marker-start:none;marker-end:none;stop-color:#000000"
       id="path3464-0"
       sodipodi:type="arc"
       sodipodi:cx="112.72272"
       sodipodi:cy="195.73215"
       sodipodi:rx="0.38876364"
       sodipodi:ry="0.38876364"
       sodipodi:start="3.2046469"
       sodipodi:end="3.2044806"
       sodipodi:arc-type="arc"
       d="m 112.33473,195.70765 a 0.38876364,0.38876364 0 0 1 0.41247,-0.36349 0.38876364,0.38876364 0 0 1 0.36351,0.41245 0.38876364,0.38876364 0 0 1 -0.41244,0.36353 0.38876364,0.38876364 0 0 1 -0.36355,-0.41243"
       sodipodi:open="true" />
    <path
       style="font-variation-settings:normal;vector-effect:none;fill:#000000;fill-opacity:1;fill-rule:evenodd;stroke:none;stroke-width:0.264583;stroke-linecap:butt;stroke-linejoin:miter;stroke-miterlimit:4;stroke-dasharray:none;stroke-dashoffset:0;stroke-opacity:1;-inkscape-stroke:none;marker-start:none;marker-end:none;stop-color:#000000"
       id="path3464-6"
       sodipodi:type="arc"
       sodipodi:cx="125.82345"
       sodipodi:cy="190.73691"
       sodipodi:rx="0.38876364"
       sodipodi:ry="0.38876364"
       sodipodi:start="3.2046469"
       sodipodi:end="3.2044806"
       sodipodi:arc-type="arc"
       d="m 125.43546,190.71241 a 0.38876364,0.38876364 0 0 1 0.41247,-0.36349 0.38876364,0.38876364 0 0 1 0.36351,0.41245 0.38876364,0.38876364 0 0 1 -0.41244,0.36353 0.38876364,0.38876364 0 0 1 -0.36355,-0.41242"
       sodipodi:open="true" />
    <path
       style="font-variation-settings:normal;vector-effect:none;fill:#000000;fill-opacity:1;fill-rule:evenodd;stroke:none;stroke-width:0.264583;stroke-linecap:butt;stroke-linejoin:miter;stroke-miterlimit:4;stroke-dasharray:none;stroke-dashoffset:0;stroke-opacity:1;-inkscape-stroke:none;marker-start:none;marker-end:none;stop-color:#000000"
       id="path3464-2"
       sodipodi:type="arc"
       sodipodi:cx="123.32583"
       sodipodi:cy="197.54645"
       sodipodi:rx="0.38876364"
       sodipodi:ry="0.38876364"
       sodipodi:start="3.2046469"
       sodipodi:end="3.2044806"
       sodipodi:arc-type="arc"
       d="m 122.93784,197.52195 a 0.38876364,0.38876364 0 0 1 0.41247,-0.36349 0.38876364,0.38876364 0 0 1 0.36351,0.41245 0.38876364,0.38876364 0 0 1 -0.41244,0.36353 0.38876364,0.38876364 0 0 1 -0.36355,-0.41242"
       sodipodi:open="true" />
    <path
       style="font-variation-settings:normal;vector-effect:none;fill:#000000;fill-opacity:1;fill-rule:evenodd;stroke:none;stroke-width:0.264583;stroke-linecap:butt;stroke-linejoin:miter;stroke-miterlimit:4;stroke-dasharray:none;stroke-dashoffset:0;stroke-opacity:1;-inkscape-stroke:none;marker-start:none;marker-end:none;stop-color:#000000"
       id="path3464-25"
       sodipodi:type="arc"
       sodipodi:cx="141.39822"
       sodipodi:cy="185.01123"
       sodipodi:rx="0.38876364"
       sodipodi:ry="0.38876364"
       sodipodi:start="3.2046469"
       sodipodi:end="3.2044806"
       sodipodi:arc-type="arc"
       d="m 141.01023,184.98673 a 0.38876364,0.38876364 0 0 1 0.41247,-0.36349 0.38876364,0.38876364 0 0 1 0.36352,0.41246 0.38876364,0.38876364 0 0 1 -0.41244,0.36352 0.38876364,0.38876364 0 0 1 -0.36355,-0.41242"
       sodipodi:open="true" />
    <path
       style="font-variation-settings:normal;vector-effect:none;fill:#000000;fill-opacity:1;fill-rule:evenodd;stroke:none;stroke-width:0.264583;stroke-linecap:butt;stroke-linejoin:miter;stroke-miterlimit:4;stroke-dasharray:none;stroke-dashoffset:0;stroke-opacity:1;-inkscape-stroke:none;marker-start:none;marker-end:none;stop-color:#000000"
       id="path3464-22"
       sodipodi:type="arc"
       sodipodi:cx="165.00778"
       sodipodi:cy="195.54364"
       sodipodi:rx="0.38876364"
       sodipodi:ry="0.38876364"
       sodipodi:start="3.2046469"
       sodipodi:end="3.2044806"
       sodipodi:arc-type="arc"
       d="m 164.61979,195.51914 a 0.38876364,0.38876364 0 0 1 0.41247,-0.36349 0.38876364,0.38876364 0 0 1 0.36352,0.41245 0.38876364,0.38876364 0 0 1 -0.41245,0.36353 0.38876364,0.38876364 0 0 1 -0.36354,-0.41242"
       sodipodi:open="true" />
    <path
       style="font-variation-settings:normal;vector-effect:none;fill:#000000;fill-opacity:1;fill-rule:evenodd;stroke:none;stroke-width:0.264583;stroke-linecap:butt;stroke-linejoin:miter;stroke-miterlimit:4;stroke-dasharray:none;stroke-dashoffset:0;stroke-opacity:1;-inkscape-stroke:none;marker-start:none;marker-end:none;stop-color:#000000"
       id="path3464-71"
       sodipodi:type="arc"
       sodipodi:cx="147.66583"
       sodipodi:cy="199.19582"
       sodipodi:rx="0.38876364"
       sodipodi:ry="0.38876364"
       sodipodi:start="3.2046469"
       sodipodi:end="3.2044806"
       sodipodi:arc-type="arc"
       d="m 147.27784,199.17132 a 0.38876364,0.38876364 0 0 1 0.41247,-0.3635 0.38876364,0.38876364 0 0 1 0.36352,0.41246 0.38876364,0.38876364 0 0 1 -0.41245,0.36353 0.38876364,0.38876364 0 0 1 -0.36354,-0.41243"
       sodipodi:open="true" />
    <path
       style="font-variation-settings:normal;vector-effect:none;fill:#000000;fill-opacity:1;fill-rule:evenodd;stroke:none;stroke-width:0.264583;stroke-linecap:butt;stroke-linejoin:miter;stroke-miterlimit:4;stroke-dasharray:none;stroke-dashoffset:0;stroke-opacity:1;-inkscape-stroke:none;marker-start:none;marker-end:none;stop-color:#000000"
       id="path3464-52"
       sodipodi:type="arc"
       sodipodi:cx="154.07481"
       sodipodi:cy="195.35515"
       sodipodi:rx="0.38876364"
       sodipodi:ry="0.38876364"
       sodipodi:start="3.2046469"
       sodipodi:end="3.2044806"
       sodipodi:arc-type="arc"
       d="m 153.68682,195.33065 a 0.38876364,0.38876364 0 0 1 0.41247,-0.36349 0.38876364,0.38876364 0 0 1 0.36352,0.41245 0.38876364,0.38876364 0 0 1 -0.41244,0.36353 0.38876364,0.38876364 0 0 1 -0.36355,-0.41242"
       sodipodi:open="true" />
    <path
       style="font-variation-settings:normal;vector-effect:none;fill:#000000;fill-opacity:1;fill-rule:evenodd;stroke:none;stroke-width:0.264583;stroke-linecap:butt;stroke-linejoin:miter;stroke-miterlimit:4;stroke-dasharray:none;stroke-dashoffset:0;stroke-opacity:1;-inkscape-stroke:none;marker-start:none;marker-end:none;stop-color:#000000"
       id="path3464-1"
       sodipodi:type="arc"
       sodipodi:cx="149.97495"
       sodipodi:cy="191.44377"
       sodipodi:rx="0.38876364"
       sodipodi:ry="0.38876364"
       sodipodi:start="3.2046469"
       sodipodi:end="3.2044806"
       sodipodi:arc-type="arc"
       d="m 149.58695,191.41927 a 0.38876364,0.38876364 0 0 1 0.41248,-0.36349 0.38876364,0.38876364 0 0 1 0.36351,0.41246 0.38876364,0.38876364 0 0 1 -0.41244,0.36353 0.38876364,0.38876364 0 0 1 -0.36355,-0.41243"
       sodipodi:open="true" />
    <path
       style="font-variation-settings:normal;vector-effect:none;fill:#000000;fill-opacity:1;fill-rule:evenodd;stroke:none;stroke-width:0.264583;stroke-linecap:butt;stroke-linejoin:miter;stroke-miterlimit:4;stroke-dasharray:none;stroke-dashoffset:0;stroke-opacity:1;-inkscape-stroke:none;marker-start:none;marker-end:none;stop-color:#000000"
       id="path3464-10"
       sodipodi:type="arc"
       sodipodi:cx="143.9901"
       sodipodi:cy="195.96777"
       sodipodi:rx="0.38876364"
       sodipodi:ry="0.38876364"
       sodipodi:start="3.2046469"
       sodipodi:end="3.2044806"
       sodipodi:arc-type="arc"
       d="m 143.60211,195.94328 a 0.38876364,0.38876364 0 0 1 0.41247,-0.3635 0.38876364,0.38876364 0 0 1 0.36351,0.41246 0.38876364,0.38876364 0 0 1 -0.41244,0.36353 0.38876364,0.38876364 0 0 1 -0.36355,-0.41243"
       sodipodi:open="true" />
    <path
       style="font-variation-settings:normal;vector-effect:none;fill:#000000;fill-opacity:1;fill-rule:evenodd;stroke:none;stroke-width:0.264583;stroke-linecap:butt;stroke-linejoin:miter;stroke-miterlimit:4;stroke-dasharray:none;stroke-dashoffset:0;stroke-opacity:1;-inkscape-stroke:none;marker-start:none;marker-end:none;stop-color:#000000"
       id="path3464-18"
       sodipodi:type="arc"
       sodipodi:cx="149.43301"
       sodipodi:cy="195.9442"
       sodipodi:rx="0.38876364"
       sodipodi:ry="0.38876364"
       sodipodi:start="3.2046469"
       sodipodi:end="3.2044806"
       sodipodi:arc-type="arc"
       d="m 149.04502,195.9197 a 0.38876364,0.38876364 0 0 1 0.41247,-0.36349 0.38876364,0.38876364 0 0 1 0.36352,0.41245 0.38876364,0.38876364 0 0 1 -0.41244,0.36353 0.38876364,0.38876364 0 0 1 -0.36355,-0.41242"
       sodipodi:open="true" />
    <path
       style="font-variation-settings:normal;vector-effect:none;fill:#000000;fill-opacity:1;fill-rule:evenodd;stroke:none;stroke-width:0.264583;stroke-linecap:butt;stroke-linejoin:miter;stroke-miterlimit:4;stroke-dasharray:none;stroke-dashoffset:0;stroke-opacity:1;-inkscape-stroke:none;marker-start:none;marker-end:none;stop-color:#000000"
       id="path3464-76"
       sodipodi:type="arc"
       sodipodi:cx="153.36794"
       sodipodi:cy="190.52484"
       sodipodi:rx="0.38876364"
       sodipodi:ry="0.38876364"
       sodipodi:start="3.2046469"
       sodipodi:end="3.2044806"
       sodipodi:arc-type="arc"
       d="m 152.97994,190.50034 a 0.38876364,0.38876364 0 0 1 0.41248,-0.36349 0.38876364,0.38876364 0 0 1 0.36351,0.41246 0.38876364,0.38876364 0 0 1 -0.41244,0.36353 0.38876364,0.38876364 0 0 1 -0.36355,-0.41243"
       sodipodi:open="true" />
    <path
       style="font-variation-settings:normal;vector-effect:none;fill:#000000;fill-opacity:1;fill-rule:evenodd;stroke:none;stroke-width:0.264583;stroke-linecap:butt;stroke-linejoin:miter;stroke-miterlimit:4;stroke-dasharray:none;stroke-dashoffset:0;stroke-opacity:1;-inkscape-stroke:none;marker-start:none;marker-end:none;stop-color:#000000"
       id="path3464-00"
       sodipodi:type="arc"
       sodipodi:cx="134.73004"
       sodipodi:cy="198.49948"
       sodipodi:rx="0.38876364"
       sodipodi:ry="0.38876364"
       sodipodi:start="3.2046469"
       sodipodi:end="3.2044806"
       sodipodi:arc-type="arc"
       d="m 134.34205,198.47498 a 0.38876364,0.38876364 0 0 1 0.41247,-0.36349 0.38876364,0.38876364 0 0 1 0.36351,0.41246 0.38876364,0.38876364 0 0 1 -0.41244,0.36353 0.38876364,0.38876364 0 0 1 -0.36354,-0.41243"
       sodipodi:open="true" />
    <path
       style="font-variation-settings:normal;vector-effect:none;fill:#000000;fill-opacity:1;fill-rule:evenodd;stroke:none;stroke-width:0.264583;stroke-linecap:butt;stroke-linejoin:miter;stroke-miterlimit:4;stroke-dasharray:none;stroke-dashoffset:0;stroke-opacity:1;-inkscape-stroke:none;marker-start:none;marker-end:none;stop-color:#000000"
       id="path3464-9"
       sodipodi:type="arc"
       sodipodi:cx="83.267807"
       sodipodi:cy="190.85521"
       sodipodi:rx="0.38876364"
       sodipodi:ry="0.38876364"
       sodipodi:start="3.2046469"
       sodipodi:end="3.2044806"
       sodipodi:arc-type="arc"
       d="m 82.879816,190.83071 a 0.38876364,0.38876364 0 0 1 0.412472,-0.36349 0.38876364,0.38876364 0 0 1 0.363512,0.41245 0.38876364,0.38876364 0 0 1 -0.412442,0.36353 0.38876364,0.38876364 0 0 1 -0.363546,-0.41242"
       sodipodi:open="true" />
    <path
       style="font-variation-settings:normal;vector-effect:none;fill:#000000;fill-opacity:1;fill-rule:evenodd;stroke:none;stroke-width:0.264583;stroke-linecap:butt;stroke-linejoin:miter;stroke-miterlimit:4;stroke-dasharray:none;stroke-dashoffset:0;stroke-opacity:1;-inkscape-stroke:none;marker-start:none;marker-end:none;stop-color:#000000"
       id="path3464-56"
       sodipodi:type="arc"
       sodipodi:cx="85.383629"
       sodipodi:cy="201.50258"
       sodipodi:rx="0.38876364"
       sodipodi:ry="0.38876364"
       sodipodi:start="3.2046469"
       sodipodi:end="3.2044806"
       sodipodi:arc-type="arc"
       d="m 84.995638,201.47808 a 0.38876364,0.38876364 0 0 1 0.412472,-0.36349 0.38876364,0.38876364 0 0 1 0.363512,0.41245 0.38876364,0.38876364 0 0 1 -0.412442,0.36353 0.38876364,0.38876364 0 0 1 -0.363546,-0.41242"
       sodipodi:open="true" />
    <path
       style="fill:none;stroke:#000000;stroke-width:0.264583px;stroke-linecap:butt;stroke-linejoin:miter;stroke-opacity:1"
       d="m 120.86229,187.84218 -23.315668,4.86204"
       id="path3474"
       inkscape:path-effect="#path-effect3476"
       inkscape:original-d="m 120.86229,187.84218 c -7.77163,1.62094 -15.54351,3.24163 -23.315668,4.86204" />
    <path
       style="fill:none;stroke:#000000;stroke-width:0.264583px;stroke-linecap:butt;stroke-linejoin:miter;stroke-opacity:1"
       d="m 120.86229,187.84218 -22.109757,8.85753"
       id="path3662"
       inkscape:path-effect="#path-effect3664"
       inkscape:original-d="m 120.86229,187.84218 c -6.70608,3.21195 -15.40316,5.64611 -22.109757,8.85753"
       sodipodi:nodetypes="cc" />
    <path
       style="fill:none;stroke:#000000;stroke-width:0.264583px;stroke-linecap:butt;stroke-linejoin:miter;stroke-opacity:1"
       d="M 97.147948,200.209 120.86229,187.84218"
       id="path3666"
       inkscape:path-effect="#path-effect3668"
       inkscape:original-d="m 97.147948,200.209 c 7.775452,-3.89121 15.939422,-8.47508 23.714342,-12.36682"
       sodipodi:nodetypes="cc" />
    <path
       style="fill:none;stroke:#000000;stroke-width:0.264583px;stroke-linecap:butt;stroke-linejoin:miter;stroke-opacity:1"
       d="m 93.806168,196.12091 27.056122,-8.27873"
       id="path3699"
       inkscape:path-effect="#path-effect3701"
       inkscape:original-d="m 93.806168,196.12091 c 9.018972,-2.75931 18.037682,-5.51889 27.056122,-8.27873" />
    <text
       xml:space="preserve"
       style="font-size:4.9389px;line-height:1.25;font-family:sans-serif;-inkscape-font-specification:'sans-serif, Normal';text-decoration-color:#000000;letter-spacing:0px;word-spacing:0px;fill:#000000;stroke-width:0.264583;-inkscape-stroke:none;stop-color:#000000"
       x="118.02969"
       y="186.45985"
       id="text3749"><tspan
         sodipodi:role="line"
         id="tspan3747"
         style="stroke-width:0.264583"
         x="118.02969"
         y="186.45985">\(\exists\)</tspan></text>
  </g>
</svg>
