<?xml version="1.0" encoding="UTF-8" standalone="no"?>
<!-- Created with Inkscape (http://www.inkscape.org/) -->

<svg
   width="240mm"
   height="120mm"
   viewBox="0 0 240 120"
   version="1.1"
   id="svg8"
   inkscape:version="1.1.1 (c3084ef, 2021-09-22)"
   sodipodi:docname="integer-programming-cutting-plane.svg"
   xmlns:inkscape="http://www.inkscape.org/namespaces/inkscape"
   xmlns:sodipodi="http://sodipodi.sourceforge.net/DTD/sodipodi-0.dtd"
   xmlns="http://www.w3.org/2000/svg"
   xmlns:svg="http://www.w3.org/2000/svg"
   xmlns:rdf="http://www.w3.org/1999/02/22-rdf-syntax-ns#"
   xmlns:cc="http://creativecommons.org/ns#"
   xmlns:dc="http://purl.org/dc/elements/1.1/">
  <defs
     id="defs2">
    <marker
       style="overflow:visible;"
       id="marker3560"
       refX="0.0"
       refY="0.0"
       orient="auto"
       inkscape:stockid="Arrow2Mend"
       inkscape:isstock="true">
      <path
         transform="scale(0.6) rotate(180) translate(0,0)"
         d="M 8.7185878,4.0337352 L -2.2072895,0.016013256 L 8.7185884,-4.0017078 C 6.9730900,-1.6296469 6.9831476,1.6157441 8.7185878,4.0337352 z "
         style="stroke:context-stroke;fill-rule:evenodd;fill:context-stroke;stroke-width:0.62500000;stroke-linejoin:round;"
         id="path3558" />
    </marker>
    <marker
       style="overflow:visible"
       id="Arrow1Mstart"
       refX="0.0"
       refY="0.0"
       orient="auto"
       inkscape:stockid="Arrow1Mstart"
       inkscape:isstock="true">
      <path
         transform="scale(0.4) translate(10,0)"
         style="fill-rule:evenodd;fill:context-stroke;stroke:context-stroke;stroke-width:1.0pt"
         d="M 0.0,0.0 L 5.0,-5.0 L -12.5,0.0 L 5.0,5.0 L 0.0,0.0 z "
         id="path2172" />
    </marker>
    <marker
       style="overflow:visible;"
       id="Arrow2Mend"
       refX="0.0"
       refY="0.0"
       orient="auto"
       inkscape:stockid="Arrow2Mend"
       inkscape:isstock="true">
      <path
         transform="scale(0.6) rotate(180) translate(0,0)"
         d="M 8.7185878,4.0337352 L -2.2072895,0.016013256 L 8.7185884,-4.0017078 C 6.9730900,-1.6296469 6.9831476,1.6157441 8.7185878,4.0337352 z "
         style="stroke:context-stroke;fill-rule:evenodd;fill:context-stroke;stroke-width:0.62500000;stroke-linejoin:round;"
         id="path2193" />
    </marker>
    <marker
       style="overflow:visible;"
       id="Arrow1Lend"
       refX="0.0"
       refY="0.0"
       orient="auto"
       inkscape:stockid="Arrow1Lend"
       inkscape:isstock="true">
      <path
         transform="scale(0.8) rotate(180) translate(12.5,0)"
         style="fill-rule:evenodd;fill:context-stroke;stroke:context-stroke;stroke-width:1.0pt;"
         d="M 0.0,0.0 L 5.0,-5.0 L -12.5,0.0 L 5.0,5.0 L 0.0,0.0 z "
         id="path2169" />
    </marker>
  </defs>
  <sodipodi:namedview
     id="base"
     pagecolor="#ffffff"
     bordercolor="#666666"
     borderopacity="1.0"
     inkscape:pageopacity="0.0"
     inkscape:pageshadow="2"
     inkscape:zoom="3.4638697"
     inkscape:cx="529.89868"
     inkscape:cy="284.50839"
     inkscape:document-units="mm"
     inkscape:current-layer="layer1"
     showgrid="false"
     showborder="true"
     width="200mm"
     showguides="true"
     inkscape:guide-bbox="true"
     inkscape:window-width="1280"
     inkscape:window-height="639"
     inkscape:window-x="1728"
     inkscape:window-y="25"
     inkscape:window-maximized="0"
     inkscape:pagecheckerboard="0">
    <inkscape:grid
       type="xygrid"
       id="grid815"
       units="mm"
       spacingx="10"
       spacingy="10"
       empspacing="4"
       dotted="false" />
  </sodipodi:namedview>
  <metadata
     id="metadata5">
    <rdf:RDF>
      <cc:Work
         rdf:about="">
        <dc:format>image/svg+xml</dc:format>
        <dc:type
           rdf:resource="http://purl.org/dc/dcmitype/StillImage" />
      </cc:Work>
    </rdf:RDF>
  </metadata>
  <g
     inkscape:label="Layer 1"
     inkscape:groupmode="layer"
     id="layer1"
     transform="translate(0,-177)">
    <path
       style="fill:none;stroke:#000000;stroke-width:0.264583px;stroke-linecap:butt;stroke-linejoin:miter;stroke-opacity:1"
       d="m 80.605214,204.49325 v 72.48221 h 88.103376"
       id="path856" />
    <path
       style="font-variation-settings:normal;opacity:1;fill:#000000;fill-opacity:1;fill-rule:evenodd;stroke:#000000;stroke-width:0;stroke-linecap:butt;stroke-linejoin:miter;stroke-miterlimit:4;stroke-dasharray:none;stroke-dashoffset:0;stroke-opacity:1;stop-color:#000000;stop-opacity:1"
       id="path880"
       sodipodi:type="arc"
       sodipodi:cx="80.613754"
       sodipodi:cy="236.56833"
       sodipodi:rx="1.4124999"
       sodipodi:ry="1.4124999"
       sodipodi:start="6.1848709"
       sodipodi:end="6.1778721"
       sodipodi:open="true"
       sodipodi:arc-type="arc"
       d="m 82.019433,236.42968 a 1.4124999,1.4124999 0 0 1 -1.264574,1.54408 1.4124999,1.4124999 0 0 1 -1.54629,-1.26187 1.4124999,1.4124999 0 0 1 1.259163,-1.54849 1.4124999,1.4124999 0 0 1 1.550696,1.25645" />
    <path
       style="font-variation-settings:normal;opacity:1;fill:#000000;fill-opacity:1;fill-rule:evenodd;stroke:#000000;stroke-width:0;stroke-linecap:butt;stroke-linejoin:miter;stroke-miterlimit:4;stroke-dasharray:none;stroke-dashoffset:0;stroke-opacity:1;stop-color:#000000;stop-opacity:1"
       id="path880-8"
       sodipodi:type="arc"
       sodipodi:cx="80.628456"
       sodipodi:cy="249.39029"
       sodipodi:rx="1.4124999"
       sodipodi:ry="1.4124999"
       sodipodi:start="6.1848709"
       sodipodi:end="6.1778721"
       sodipodi:open="true"
       sodipodi:arc-type="arc"
       d="m 82.034135,249.25164 a 1.4124999,1.4124999 0 0 1 -1.264574,1.54408 1.4124999,1.4124999 0 0 1 -1.54629,-1.26187 1.4124999,1.4124999 0 0 1 1.259163,-1.54849 1.4124999,1.4124999 0 0 1 1.550696,1.25645" />
    <path
       style="font-variation-settings:normal;opacity:1;fill:#000000;fill-opacity:1;fill-rule:evenodd;stroke:#000000;stroke-width:0;stroke-linecap:butt;stroke-linejoin:miter;stroke-miterlimit:4;stroke-dasharray:none;stroke-dashoffset:0;stroke-opacity:1;stop-color:#000000;stop-opacity:1"
       id="path880-2"
       sodipodi:type="arc"
       sodipodi:cx="80.637291"
       sodipodi:cy="210.14409"
       sodipodi:rx="1.4124999"
       sodipodi:ry="1.4124999"
       sodipodi:start="6.1848709"
       sodipodi:end="6.1778721"
       sodipodi:open="true"
       sodipodi:arc-type="arc"
       d="m 82.04297,210.00544 a 1.4124999,1.4124999 0 0 1 -1.264574,1.54408 1.4124999,1.4124999 0 0 1 -1.54629,-1.26187 1.4124999,1.4124999 0 0 1 1.259163,-1.54849 1.4124999,1.4124999 0 0 1 1.550696,1.25645" />
    <path
       style="font-variation-settings:normal;opacity:1;fill:#000000;fill-opacity:1;fill-rule:evenodd;stroke:#000000;stroke-width:0;stroke-linecap:butt;stroke-linejoin:miter;stroke-miterlimit:4;stroke-dasharray:none;stroke-dashoffset:0;stroke-opacity:1;stop-color:#000000;stop-opacity:1"
       id="path880-8-9"
       sodipodi:type="arc"
       sodipodi:cx="80.651993"
       sodipodi:cy="222.96605"
       sodipodi:rx="1.4124999"
       sodipodi:ry="1.4124999"
       sodipodi:start="6.1848709"
       sodipodi:end="6.1778721"
       sodipodi:open="true"
       sodipodi:arc-type="arc"
       d="m 82.057672,222.8274 a 1.4124999,1.4124999 0 0 1 -1.264574,1.54408 1.4124999,1.4124999 0 0 1 -1.54629,-1.26187 1.4124999,1.4124999 0 0 1 1.259163,-1.54849 1.4124999,1.4124999 0 0 1 1.550696,1.25645" />
    <path
       style="font-variation-settings:normal;opacity:1;fill:#000000;fill-opacity:1;fill-rule:evenodd;stroke:#000000;stroke-width:0;stroke-linecap:butt;stroke-linejoin:miter;stroke-miterlimit:4;stroke-dasharray:none;stroke-dashoffset:0;stroke-opacity:1;stop-color:#000000;stop-opacity:1"
       id="path880-9"
       sodipodi:type="arc"
       sodipodi:cx="80.675751"
       sodipodi:cy="263.64441"
       sodipodi:rx="1.4124999"
       sodipodi:ry="1.4124999"
       sodipodi:start="6.1848709"
       sodipodi:end="6.1778721"
       sodipodi:open="true"
       sodipodi:arc-type="arc"
       d="m 82.08143,263.50576 a 1.4124999,1.4124999 0 0 1 -1.264574,1.54408 1.4124999,1.4124999 0 0 1 -1.54629,-1.26187 1.4124999,1.4124999 0 0 1 1.259163,-1.54849 1.4124999,1.4124999 0 0 1 1.550696,1.25645" />
    <path
       style="font-variation-settings:normal;opacity:1;fill:#000000;fill-opacity:1;fill-rule:evenodd;stroke:#000000;stroke-width:0;stroke-linecap:butt;stroke-linejoin:miter;stroke-miterlimit:4;stroke-dasharray:none;stroke-dashoffset:0;stroke-opacity:1;stop-color:#000000;stop-opacity:1"
       id="path880-8-8"
       sodipodi:type="arc"
       sodipodi:cx="80.690453"
       sodipodi:cy="276.46677"
       sodipodi:rx="1.4124999"
       sodipodi:ry="1.4124999"
       sodipodi:start="6.1848709"
       sodipodi:end="6.1778721"
       sodipodi:open="true"
       sodipodi:arc-type="arc"
       d="m 82.096132,276.32812 a 1.4124999,1.4124999 0 0 1 -1.264575,1.54408 1.4124999,1.4124999 0 0 1 -1.54629,-1.26187 1.4124999,1.4124999 0 0 1 1.259163,-1.5485 1.4124999,1.4124999 0 0 1 1.550697,1.25646" />
    <path
       style="font-variation-settings:normal;opacity:1;fill:#000000;fill-opacity:1;fill-rule:evenodd;stroke:#000000;stroke-width:0;stroke-linecap:butt;stroke-linejoin:miter;stroke-miterlimit:4;stroke-dasharray:none;stroke-dashoffset:0;stroke-opacity:1;stop-color:#000000;stop-opacity:1"
       id="path880-6"
       sodipodi:type="arc"
       sodipodi:cx="96.454346"
       sodipodi:cy="236.5152"
       sodipodi:rx="1.4124999"
       sodipodi:ry="1.4124999"
       sodipodi:start="6.1848709"
       sodipodi:end="6.1778721"
       sodipodi:open="true"
       sodipodi:arc-type="arc"
       d="m 97.860025,236.37655 a 1.4124999,1.4124999 0 0 1 -1.264575,1.54408 1.4124999,1.4124999 0 0 1 -1.54629,-1.26187 1.4124999,1.4124999 0 0 1 1.259164,-1.54849 1.4124999,1.4124999 0 0 1 1.550696,1.25645" />
    <path
       style="font-variation-settings:normal;opacity:1;fill:#000000;fill-opacity:1;fill-rule:evenodd;stroke:#000000;stroke-width:0;stroke-linecap:butt;stroke-linejoin:miter;stroke-miterlimit:4;stroke-dasharray:none;stroke-dashoffset:0;stroke-opacity:1;stop-color:#000000;stop-opacity:1"
       id="path880-8-2"
       sodipodi:type="arc"
       sodipodi:cx="96.469048"
       sodipodi:cy="249.3372"
       sodipodi:rx="1.4124999"
       sodipodi:ry="1.4124999"
       sodipodi:start="6.1848709"
       sodipodi:end="6.1778721"
       sodipodi:open="true"
       sodipodi:arc-type="arc"
       d="m 97.874727,249.19856 a 1.4124999,1.4124999 0 0 1 -1.264575,1.54408 1.4124999,1.4124999 0 0 1 -1.54629,-1.26187 1.4124999,1.4124999 0 0 1 1.259163,-1.5485 1.4124999,1.4124999 0 0 1 1.550697,1.25645" />
    <path
       style="font-variation-settings:normal;opacity:1;fill:#000000;fill-opacity:1;fill-rule:evenodd;stroke:#000000;stroke-width:0;stroke-linecap:butt;stroke-linejoin:miter;stroke-miterlimit:4;stroke-dasharray:none;stroke-dashoffset:0;stroke-opacity:1;stop-color:#000000;stop-opacity:1"
       id="path880-2-8"
       sodipodi:type="arc"
       sodipodi:cx="96.477882"
       sodipodi:cy="210.09119"
       sodipodi:rx="1.4124999"
       sodipodi:ry="1.4124999"
       sodipodi:start="6.1848709"
       sodipodi:end="6.1778721"
       sodipodi:open="true"
       sodipodi:arc-type="arc"
       d="m 97.883561,209.95254 a 1.4124999,1.4124999 0 0 1 -1.264574,1.54408 1.4124999,1.4124999 0 0 1 -1.54629,-1.26187 1.4124999,1.4124999 0 0 1 1.259163,-1.5485 1.4124999,1.4124999 0 0 1 1.550697,1.25646" />
    <path
       style="font-variation-settings:normal;opacity:1;fill:#000000;fill-opacity:1;fill-rule:evenodd;stroke:#000000;stroke-width:0;stroke-linecap:butt;stroke-linejoin:miter;stroke-miterlimit:4;stroke-dasharray:none;stroke-dashoffset:0;stroke-opacity:1;stop-color:#000000;stop-opacity:1"
       id="path880-8-9-5"
       sodipodi:type="arc"
       sodipodi:cx="96.492584"
       sodipodi:cy="222.91304"
       sodipodi:rx="1.4124999"
       sodipodi:ry="1.4124999"
       sodipodi:start="6.1848709"
       sodipodi:end="6.1778721"
       sodipodi:open="true"
       sodipodi:arc-type="arc"
       d="m 97.898263,222.77439 a 1.4124999,1.4124999 0 0 1 -1.264574,1.54408 1.4124999,1.4124999 0 0 1 -1.54629,-1.26187 1.4124999,1.4124999 0 0 1 1.259163,-1.54849 1.4124999,1.4124999 0 0 1 1.550696,1.25645" />
    <path
       style="font-variation-settings:normal;opacity:1;fill:#000000;fill-opacity:1;fill-rule:evenodd;stroke:#000000;stroke-width:0;stroke-linecap:butt;stroke-linejoin:miter;stroke-miterlimit:4;stroke-dasharray:none;stroke-dashoffset:0;stroke-opacity:1;stop-color:#000000;stop-opacity:1"
       id="path880-9-9"
       sodipodi:type="arc"
       sodipodi:cx="96.516342"
       sodipodi:cy="263.59146"
       sodipodi:rx="1.4124999"
       sodipodi:ry="1.4124999"
       sodipodi:start="6.1848709"
       sodipodi:end="6.1778721"
       sodipodi:open="true"
       sodipodi:arc-type="arc"
       d="m 97.922021,263.45282 a 1.4124999,1.4124999 0 0 1 -1.264574,1.54408 1.4124999,1.4124999 0 0 1 -1.54629,-1.26188 1.4124999,1.4124999 0 0 1 1.259163,-1.54849 1.4124999,1.4124999 0 0 1 1.550696,1.25645" />
    <path
       style="font-variation-settings:normal;opacity:1;fill:#000000;fill-opacity:1;fill-rule:evenodd;stroke:#000000;stroke-width:0;stroke-linecap:butt;stroke-linejoin:miter;stroke-miterlimit:4;stroke-dasharray:none;stroke-dashoffset:0;stroke-opacity:1;stop-color:#000000;stop-opacity:1"
       id="path880-8-8-4"
       sodipodi:type="arc"
       sodipodi:cx="96.531044"
       sodipodi:cy="276.41382"
       sodipodi:rx="1.4124999"
       sodipodi:ry="1.4124999"
       sodipodi:start="6.1848709"
       sodipodi:end="6.1778721"
       sodipodi:open="true"
       sodipodi:arc-type="arc"
       d="m 97.936723,276.27517 a 1.4124999,1.4124999 0 0 1 -1.264574,1.54408 1.4124999,1.4124999 0 0 1 -1.54629,-1.26187 1.4124999,1.4124999 0 0 1 1.259163,-1.54849 1.4124999,1.4124999 0 0 1 1.550696,1.25645" />
    <path
       style="font-variation-settings:normal;opacity:1;fill:#000000;fill-opacity:1;fill-rule:evenodd;stroke:#000000;stroke-width:0;stroke-linecap:butt;stroke-linejoin:miter;stroke-miterlimit:4;stroke-dasharray:none;stroke-dashoffset:0;stroke-opacity:1;stop-color:#000000;stop-opacity:1"
       id="path880-61"
       sodipodi:type="arc"
       sodipodi:cx="112.48067"
       sodipodi:cy="236.89455"
       sodipodi:rx="1.4124999"
       sodipodi:ry="1.4124999"
       sodipodi:start="6.1848709"
       sodipodi:end="6.1778721"
       sodipodi:open="true"
       sodipodi:arc-type="arc"
       d="m 113.88635,236.7559 a 1.4124999,1.4124999 0 0 1 -1.26458,1.54408 1.4124999,1.4124999 0 0 1 -1.54629,-1.26187 1.4124999,1.4124999 0 0 1 1.25917,-1.5485 1.4124999,1.4124999 0 0 1 1.55069,1.25646" />
    <path
       style="font-variation-settings:normal;opacity:1;fill:#000000;fill-opacity:1;fill-rule:evenodd;stroke:#000000;stroke-width:0;stroke-linecap:butt;stroke-linejoin:miter;stroke-miterlimit:4;stroke-dasharray:none;stroke-dashoffset:0;stroke-opacity:1;stop-color:#000000;stop-opacity:1"
       id="path880-8-20"
       sodipodi:type="arc"
       sodipodi:cx="112.49537"
       sodipodi:cy="249.71655"
       sodipodi:rx="1.4124999"
       sodipodi:ry="1.4124999"
       sodipodi:start="6.1848709"
       sodipodi:end="6.1778721"
       sodipodi:open="true"
       sodipodi:arc-type="arc"
       d="m 113.90105,249.57791 a 1.4124999,1.4124999 0 0 1 -1.26458,1.54408 1.4124999,1.4124999 0 0 1 -1.54629,-1.26187 1.4124999,1.4124999 0 0 1 1.25917,-1.5485 1.4124999,1.4124999 0 0 1 1.55069,1.25645" />
    <path
       style="font-variation-settings:normal;opacity:1;fill:#000000;fill-opacity:1;fill-rule:evenodd;stroke:#000000;stroke-width:0;stroke-linecap:butt;stroke-linejoin:miter;stroke-miterlimit:4;stroke-dasharray:none;stroke-dashoffset:0;stroke-opacity:1;stop-color:#000000;stop-opacity:1"
       id="path880-2-4"
       sodipodi:type="arc"
       sodipodi:cx="112.50419"
       sodipodi:cy="210.47029"
       sodipodi:rx="1.4124999"
       sodipodi:ry="1.4124999"
       sodipodi:start="6.1848709"
       sodipodi:end="6.1778721"
       sodipodi:open="true"
       sodipodi:arc-type="arc"
       d="m 113.90987,210.33165 a 1.4124999,1.4124999 0 0 1 -1.26458,1.54408 1.4124999,1.4124999 0 0 1 -1.54629,-1.26188 1.4124999,1.4124999 0 0 1 1.25917,-1.54849 1.4124999,1.4124999 0 0 1 1.55069,1.25645" />
    <path
       style="font-variation-settings:normal;opacity:1;fill:#000000;fill-opacity:1;fill-rule:evenodd;stroke:#000000;stroke-width:0;stroke-linecap:butt;stroke-linejoin:miter;stroke-miterlimit:4;stroke-dasharray:none;stroke-dashoffset:0;stroke-opacity:1;stop-color:#000000;stop-opacity:1"
       id="path880-8-9-4"
       sodipodi:type="arc"
       sodipodi:cx="112.51893"
       sodipodi:cy="223.29225"
       sodipodi:rx="1.4124999"
       sodipodi:ry="1.4124999"
       sodipodi:start="6.1848709"
       sodipodi:end="6.1778721"
       sodipodi:open="true"
       sodipodi:arc-type="arc"
       d="m 113.92461,223.15361 a 1.4124999,1.4124999 0 0 1 -1.26458,1.54408 1.4124999,1.4124999 0 0 1 -1.54629,-1.26187 1.4124999,1.4124999 0 0 1 1.25917,-1.5485 1.4124999,1.4124999 0 0 1 1.55069,1.25645" />
    <path
       style="font-variation-settings:normal;opacity:1;fill:#000000;fill-opacity:1;fill-rule:evenodd;stroke:#000000;stroke-width:0;stroke-linecap:butt;stroke-linejoin:miter;stroke-miterlimit:4;stroke-dasharray:none;stroke-dashoffset:0;stroke-opacity:1;stop-color:#000000;stop-opacity:1"
       id="path880-9-5"
       sodipodi:type="arc"
       sodipodi:cx="112.54263"
       sodipodi:cy="263.9707"
       sodipodi:rx="1.4124999"
       sodipodi:ry="1.4124999"
       sodipodi:start="6.1848709"
       sodipodi:end="6.1778721"
       sodipodi:open="true"
       sodipodi:arc-type="arc"
       d="m 113.94831,263.83206 a 1.4124999,1.4124999 0 0 1 -1.26457,1.54408 1.4124999,1.4124999 0 0 1 -1.54629,-1.26187 1.4124999,1.4124999 0 0 1 1.25916,-1.5485 1.4124999,1.4124999 0 0 1 1.5507,1.25645" />
    <path
       style="font-variation-settings:normal;opacity:1;fill:#000000;fill-opacity:1;fill-rule:evenodd;stroke:#000000;stroke-width:0;stroke-linecap:butt;stroke-linejoin:miter;stroke-miterlimit:4;stroke-dasharray:none;stroke-dashoffset:0;stroke-opacity:1;stop-color:#000000;stop-opacity:1"
       id="path880-8-8-9"
       sodipodi:type="arc"
       sodipodi:cx="112.55736"
       sodipodi:cy="276.79306"
       sodipodi:rx="1.4124999"
       sodipodi:ry="1.4124999"
       sodipodi:start="6.1848709"
       sodipodi:end="6.1778721"
       sodipodi:open="true"
       sodipodi:arc-type="arc"
       d="m 113.96304,276.65441 a 1.4124999,1.4124999 0 0 1 -1.26458,1.54408 1.4124999,1.4124999 0 0 1 -1.54629,-1.26187 1.4124999,1.4124999 0 0 1 1.25917,-1.54849 1.4124999,1.4124999 0 0 1 1.55069,1.25645" />
    <path
       style="font-variation-settings:normal;opacity:1;fill:#000000;fill-opacity:1;fill-rule:evenodd;stroke:#000000;stroke-width:0;stroke-linecap:butt;stroke-linejoin:miter;stroke-miterlimit:4;stroke-dasharray:none;stroke-dashoffset:0;stroke-opacity:1;stop-color:#000000;stop-opacity:1"
       id="path880-6-7"
       sodipodi:type="arc"
       sodipodi:cx="128.55391"
       sodipodi:cy="237.07408"
       sodipodi:rx="1.4124999"
       sodipodi:ry="1.4124999"
       sodipodi:start="6.1848709"
       sodipodi:end="6.1778721"
       sodipodi:open="true"
       sodipodi:arc-type="arc"
       d="m 129.95959,236.93544 a 1.4124999,1.4124999 0 0 1 -1.26458,1.54408 1.4124999,1.4124999 0 0 1 -1.54629,-1.26187 1.4124999,1.4124999 0 0 1 1.25917,-1.5485 1.4124999,1.4124999 0 0 1 1.55069,1.25645" />
    <path
       style="font-variation-settings:normal;opacity:1;fill:#000000;fill-opacity:1;fill-rule:evenodd;stroke:#000000;stroke-width:0;stroke-linecap:butt;stroke-linejoin:miter;stroke-miterlimit:4;stroke-dasharray:none;stroke-dashoffset:0;stroke-opacity:1;stop-color:#000000;stop-opacity:1"
       id="path880-8-2-5"
       sodipodi:type="arc"
       sodipodi:cx="128.56865"
       sodipodi:cy="249.89612"
       sodipodi:rx="1.4124999"
       sodipodi:ry="1.4124999"
       sodipodi:start="6.1848709"
       sodipodi:end="6.1778721"
       sodipodi:open="true"
       sodipodi:arc-type="arc"
       d="m 129.97433,249.75747 a 1.4124999,1.4124999 0 0 1 -1.26458,1.54408 1.4124999,1.4124999 0 0 1 -1.54629,-1.26187 1.4124999,1.4124999 0 0 1 1.25917,-1.54849 1.4124999,1.4124999 0 0 1 1.55069,1.25645" />
    <path
       style="font-variation-settings:normal;opacity:1;fill:#000000;fill-opacity:1;fill-rule:evenodd;stroke:#000000;stroke-width:0;stroke-linecap:butt;stroke-linejoin:miter;stroke-miterlimit:4;stroke-dasharray:none;stroke-dashoffset:0;stroke-opacity:1;stop-color:#000000;stop-opacity:1"
       id="path880-2-8-3"
       sodipodi:type="arc"
       sodipodi:cx="128.57747"
       sodipodi:cy="210.65005"
       sodipodi:rx="1.4124999"
       sodipodi:ry="1.4124999"
       sodipodi:start="6.1848709"
       sodipodi:end="6.1778721"
       sodipodi:open="true"
       sodipodi:arc-type="arc"
       d="m 129.98315,210.51141 a 1.4124999,1.4124999 0 0 1 -1.26458,1.54408 1.4124999,1.4124999 0 0 1 -1.54629,-1.26187 1.4124999,1.4124999 0 0 1 1.25917,-1.5485 1.4124999,1.4124999 0 0 1 1.55069,1.25645" />
    <path
       style="font-variation-settings:normal;opacity:1;fill:#000000;fill-opacity:1;fill-rule:evenodd;stroke:#000000;stroke-width:0;stroke-linecap:butt;stroke-linejoin:miter;stroke-miterlimit:4;stroke-dasharray:none;stroke-dashoffset:0;stroke-opacity:1;stop-color:#000000;stop-opacity:1"
       id="path880-8-9-5-9"
       sodipodi:type="arc"
       sodipodi:cx="128.59219"
       sodipodi:cy="223.47191"
       sodipodi:rx="1.4124999"
       sodipodi:ry="1.4124999"
       sodipodi:start="6.1848709"
       sodipodi:end="6.1778721"
       sodipodi:open="true"
       sodipodi:arc-type="arc"
       d="m 129.99787,223.33326 a 1.4124999,1.4124999 0 0 1 -1.26457,1.54408 1.4124999,1.4124999 0 0 1 -1.54629,-1.26187 1.4124999,1.4124999 0 0 1 1.25916,-1.54849 1.4124999,1.4124999 0 0 1 1.5507,1.25645" />
    <path
       style="font-variation-settings:normal;opacity:1;fill:#000000;fill-opacity:1;fill-rule:evenodd;stroke:#000000;stroke-width:0;stroke-linecap:butt;stroke-linejoin:miter;stroke-miterlimit:4;stroke-dasharray:none;stroke-dashoffset:0;stroke-opacity:1;stop-color:#000000;stop-opacity:1"
       id="path880-9-9-0"
       sodipodi:type="arc"
       sodipodi:cx="128.61592"
       sodipodi:cy="264.15042"
       sodipodi:rx="1.4124999"
       sodipodi:ry="1.4124999"
       sodipodi:start="6.1848709"
       sodipodi:end="6.1778721"
       sodipodi:open="true"
       sodipodi:arc-type="arc"
       d="m 130.0216,264.01178 a 1.4124999,1.4124999 0 0 1 -1.26457,1.54408 1.4124999,1.4124999 0 0 1 -1.54629,-1.26188 1.4124999,1.4124999 0 0 1 1.25916,-1.54849 1.4124999,1.4124999 0 0 1 1.5507,1.25645" />
    <path
       style="font-variation-settings:normal;opacity:1;fill:#000000;fill-opacity:1;fill-rule:evenodd;stroke:#000000;stroke-width:0;stroke-linecap:butt;stroke-linejoin:miter;stroke-miterlimit:4;stroke-dasharray:none;stroke-dashoffset:0;stroke-opacity:1;stop-color:#000000;stop-opacity:1"
       id="path880-8-8-4-5"
       sodipodi:type="arc"
       sodipodi:cx="128.63062"
       sodipodi:cy="276.97278"
       sodipodi:rx="1.4124999"
       sodipodi:ry="1.4124999"
       sodipodi:start="6.1848709"
       sodipodi:end="6.1778721"
       sodipodi:open="true"
       sodipodi:arc-type="arc"
       d="m 130.03629,276.83413 a 1.4124999,1.4124999 0 0 1 -1.26457,1.54408 1.4124999,1.4124999 0 0 1 -1.54629,-1.26187 1.4124999,1.4124999 0 0 1 1.25916,-1.54849 1.4124999,1.4124999 0 0 1 1.5507,1.25645" />
    <path
       style="font-variation-settings:normal;opacity:1;fill:#000000;fill-opacity:1;fill-rule:evenodd;stroke:#000000;stroke-width:0;stroke-linecap:butt;stroke-linejoin:miter;stroke-miterlimit:4;stroke-dasharray:none;stroke-dashoffset:0;stroke-opacity:1;stop-color:#000000;stop-opacity:1"
       id="path880-5"
       sodipodi:type="arc"
       sodipodi:cx="145.40895"
       sodipodi:cy="236.81662"
       sodipodi:rx="1.4124999"
       sodipodi:ry="1.4124999"
       sodipodi:start="6.1848709"
       sodipodi:end="6.1778721"
       sodipodi:open="true"
       sodipodi:arc-type="arc"
       d="m 146.81463,236.67797 a 1.4124999,1.4124999 0 0 1 -1.26457,1.54408 1.4124999,1.4124999 0 0 1 -1.54629,-1.26187 1.4124999,1.4124999 0 0 1 1.25916,-1.54849 1.4124999,1.4124999 0 0 1 1.5507,1.25645" />
    <path
       style="font-variation-settings:normal;opacity:1;fill:#000000;fill-opacity:1;fill-rule:evenodd;stroke:#000000;stroke-width:0;stroke-linecap:butt;stroke-linejoin:miter;stroke-miterlimit:4;stroke-dasharray:none;stroke-dashoffset:0;stroke-opacity:1;stop-color:#000000;stop-opacity:1"
       id="path880-8-6"
       sodipodi:type="arc"
       sodipodi:cx="145.42366"
       sodipodi:cy="249.63849"
       sodipodi:rx="1.4124999"
       sodipodi:ry="1.4124999"
       sodipodi:start="6.1848709"
       sodipodi:end="6.1778721"
       sodipodi:open="true"
       sodipodi:arc-type="arc"
       d="m 146.82934,249.49984 a 1.4124999,1.4124999 0 0 1 -1.26457,1.54408 1.4124999,1.4124999 0 0 1 -1.54629,-1.26187 1.4124999,1.4124999 0 0 1 1.25916,-1.54849 1.4124999,1.4124999 0 0 1 1.55069,1.25645" />
    <path
       style="font-variation-settings:normal;opacity:1;fill:#000000;fill-opacity:1;fill-rule:evenodd;stroke:#000000;stroke-width:0;stroke-linecap:butt;stroke-linejoin:miter;stroke-miterlimit:4;stroke-dasharray:none;stroke-dashoffset:0;stroke-opacity:1;stop-color:#000000;stop-opacity:1"
       id="path880-2-3"
       sodipodi:type="arc"
       sodipodi:cx="145.4325"
       sodipodi:cy="210.39238"
       sodipodi:rx="1.4124999"
       sodipodi:ry="1.4124999"
       sodipodi:start="6.1848709"
       sodipodi:end="6.1778721"
       sodipodi:open="true"
       sodipodi:arc-type="arc"
       d="m 146.83817,210.25373 a 1.4124999,1.4124999 0 0 1 -1.26457,1.54408 1.4124999,1.4124999 0 0 1 -1.54629,-1.26187 1.4124999,1.4124999 0 0 1 1.25916,-1.54849 1.4124999,1.4124999 0 0 1 1.5507,1.25645" />
    <path
       style="font-variation-settings:normal;opacity:1;fill:#000000;fill-opacity:1;fill-rule:evenodd;stroke:#000000;stroke-width:0;stroke-linecap:butt;stroke-linejoin:miter;stroke-miterlimit:4;stroke-dasharray:none;stroke-dashoffset:0;stroke-opacity:1;stop-color:#000000;stop-opacity:1"
       id="path880-8-9-40"
       sodipodi:type="arc"
       sodipodi:cx="145.44719"
       sodipodi:cy="223.21434"
       sodipodi:rx="1.4124999"
       sodipodi:ry="1.4124999"
       sodipodi:start="6.1848709"
       sodipodi:end="6.1778721"
       sodipodi:open="true"
       sodipodi:arc-type="arc"
       d="m 146.85287,223.07569 a 1.4124999,1.4124999 0 0 1 -1.26458,1.54408 1.4124999,1.4124999 0 0 1 -1.54629,-1.26187 1.4124999,1.4124999 0 0 1 1.25917,-1.54849 1.4124999,1.4124999 0 0 1 1.55069,1.25645" />
    <path
       style="font-variation-settings:normal;opacity:1;fill:#000000;fill-opacity:1;fill-rule:evenodd;stroke:#000000;stroke-width:0;stroke-linecap:butt;stroke-linejoin:miter;stroke-miterlimit:4;stroke-dasharray:none;stroke-dashoffset:0;stroke-opacity:1;stop-color:#000000;stop-opacity:1"
       id="path880-9-6"
       sodipodi:type="arc"
       sodipodi:cx="145.47095"
       sodipodi:cy="263.8927"
       sodipodi:rx="1.4124999"
       sodipodi:ry="1.4124999"
       sodipodi:start="6.1848709"
       sodipodi:end="6.1778721"
       sodipodi:open="true"
       sodipodi:arc-type="arc"
       d="m 146.87663,263.75405 a 1.4124999,1.4124999 0 0 1 -1.26458,1.54408 1.4124999,1.4124999 0 0 1 -1.54629,-1.26187 1.4124999,1.4124999 0 0 1 1.25917,-1.54849 1.4124999,1.4124999 0 0 1 1.55069,1.25645" />
    <path
       style="font-variation-settings:normal;opacity:1;fill:#000000;fill-opacity:1;fill-rule:evenodd;stroke:#000000;stroke-width:0;stroke-linecap:butt;stroke-linejoin:miter;stroke-miterlimit:4;stroke-dasharray:none;stroke-dashoffset:0;stroke-opacity:1;stop-color:#000000;stop-opacity:1"
       id="path880-8-8-0"
       sodipodi:type="arc"
       sodipodi:cx="145.48566"
       sodipodi:cy="276.71506"
       sodipodi:rx="1.4124999"
       sodipodi:ry="1.4124999"
       sodipodi:start="6.1848709"
       sodipodi:end="6.1778721"
       sodipodi:open="true"
       sodipodi:arc-type="arc"
       d="m 146.89134,276.57641 a 1.4124999,1.4124999 0 0 1 -1.26458,1.54408 1.4124999,1.4124999 0 0 1 -1.54629,-1.26187 1.4124999,1.4124999 0 0 1 1.25916,-1.54849 1.4124999,1.4124999 0 0 1 1.5507,1.25645" />
    <path
       style="font-variation-settings:normal;opacity:1;fill:#000000;fill-opacity:1;fill-rule:evenodd;stroke:#000000;stroke-width:0;stroke-linecap:butt;stroke-linejoin:miter;stroke-miterlimit:4;stroke-dasharray:none;stroke-dashoffset:0;stroke-opacity:1;stop-color:#000000;stop-opacity:1"
       id="path880-6-4"
       sodipodi:type="arc"
       sodipodi:cx="161.24954"
       sodipodi:cy="236.53082"
       sodipodi:rx="1.4124999"
       sodipodi:ry="1.4124999"
       sodipodi:start="6.1848709"
       sodipodi:end="6.1778721"
       sodipodi:open="true"
       sodipodi:arc-type="arc"
       d="m 162.65522,236.39218 a 1.4124999,1.4124999 0 0 1 -1.26457,1.54408 1.4124999,1.4124999 0 0 1 -1.54629,-1.26187 1.4124999,1.4124999 0 0 1 1.25916,-1.5485 1.4124999,1.4124999 0 0 1 1.5507,1.25645" />
    <path
       style="font-variation-settings:normal;opacity:1;fill:#000000;fill-opacity:1;fill-rule:evenodd;stroke:#000000;stroke-width:0;stroke-linecap:butt;stroke-linejoin:miter;stroke-miterlimit:4;stroke-dasharray:none;stroke-dashoffset:0;stroke-opacity:1;stop-color:#000000;stop-opacity:1"
       id="path880-8-2-0"
       sodipodi:type="arc"
       sodipodi:cx="161.26425"
       sodipodi:cy="249.35272"
       sodipodi:rx="1.4124999"
       sodipodi:ry="1.4124999"
       sodipodi:start="6.1848709"
       sodipodi:end="6.1778721"
       sodipodi:open="true"
       sodipodi:arc-type="arc"
       d="m 162.66993,249.21408 a 1.4124999,1.4124999 0 0 1 -1.26457,1.54408 1.4124999,1.4124999 0 0 1 -1.54629,-1.26187 1.4124999,1.4124999 0 0 1 1.25916,-1.5485 1.4124999,1.4124999 0 0 1 1.5507,1.25645" />
    <path
       style="font-variation-settings:normal;opacity:1;fill:#000000;fill-opacity:1;fill-rule:evenodd;stroke:#000000;stroke-width:0;stroke-linecap:butt;stroke-linejoin:miter;stroke-miterlimit:4;stroke-dasharray:none;stroke-dashoffset:0;stroke-opacity:1;stop-color:#000000;stop-opacity:1"
       id="path880-2-8-5"
       sodipodi:type="arc"
       sodipodi:cx="161.27309"
       sodipodi:cy="210.10681"
       sodipodi:rx="1.4124999"
       sodipodi:ry="1.4124999"
       sodipodi:start="6.1848709"
       sodipodi:end="6.1778721"
       sodipodi:open="true"
       sodipodi:arc-type="arc"
       d="m 162.67877,209.96817 a 1.4124999,1.4124999 0 0 1 -1.26458,1.54408 1.4124999,1.4124999 0 0 1 -1.54629,-1.26187 1.4124999,1.4124999 0 0 1 1.25916,-1.5485 1.4124999,1.4124999 0 0 1 1.5507,1.25645" />
    <path
       style="font-variation-settings:normal;opacity:1;fill:#000000;fill-opacity:1;fill-rule:evenodd;stroke:#000000;stroke-width:0;stroke-linecap:butt;stroke-linejoin:miter;stroke-miterlimit:4;stroke-dasharray:none;stroke-dashoffset:0;stroke-opacity:1;stop-color:#000000;stop-opacity:1"
       id="path880-8-9-5-6"
       sodipodi:type="arc"
       sodipodi:cx="161.28778"
       sodipodi:cy="222.92867"
       sodipodi:rx="1.4124999"
       sodipodi:ry="1.4124999"
       sodipodi:start="6.1848709"
       sodipodi:end="6.1778721"
       sodipodi:open="true"
       sodipodi:arc-type="arc"
       d="m 162.69346,222.79002 a 1.4124999,1.4124999 0 0 1 -1.26457,1.54408 1.4124999,1.4124999 0 0 1 -1.54629,-1.26187 1.4124999,1.4124999 0 0 1 1.25916,-1.5485 1.4124999,1.4124999 0 0 1 1.55069,1.25646" />
    <path
       style="font-variation-settings:normal;opacity:1;fill:#000000;fill-opacity:1;fill-rule:evenodd;stroke:#000000;stroke-width:0;stroke-linecap:butt;stroke-linejoin:miter;stroke-miterlimit:4;stroke-dasharray:none;stroke-dashoffset:0;stroke-opacity:1;stop-color:#000000;stop-opacity:1"
       id="path880-9-9-8"
       sodipodi:type="arc"
       sodipodi:cx="161.31154"
       sodipodi:cy="263.60709"
       sodipodi:rx="1.4124999"
       sodipodi:ry="1.4124999"
       sodipodi:start="6.1848709"
       sodipodi:end="6.1778721"
       sodipodi:open="true"
       sodipodi:arc-type="arc"
       d="m 162.71722,263.46844 a 1.4124999,1.4124999 0 0 1 -1.26458,1.54408 1.4124999,1.4124999 0 0 1 -1.54629,-1.26187 1.4124999,1.4124999 0 0 1 1.25917,-1.5485 1.4124999,1.4124999 0 0 1 1.55069,1.25646" />
    <path
       style="font-variation-settings:normal;opacity:1;fill:#000000;fill-opacity:1;fill-rule:evenodd;stroke:#000000;stroke-width:0;stroke-linecap:butt;stroke-linejoin:miter;stroke-miterlimit:4;stroke-dasharray:none;stroke-dashoffset:0;stroke-opacity:1;stop-color:#000000;stop-opacity:1"
       id="path880-8-8-4-53"
       sodipodi:type="arc"
       sodipodi:cx="161.32625"
       sodipodi:cy="276.42944"
       sodipodi:rx="1.4124999"
       sodipodi:ry="1.4124999"
       sodipodi:start="6.1848709"
       sodipodi:end="6.1778721"
       sodipodi:open="true"
       sodipodi:arc-type="arc"
       d="m 162.73193,276.2908 a 1.4124999,1.4124999 0 0 1 -1.26458,1.54408 1.4124999,1.4124999 0 0 1 -1.54629,-1.26187 1.4124999,1.4124999 0 0 1 1.25917,-1.5485 1.4124999,1.4124999 0 0 1 1.55069,1.25645" />
    <path
       style="fill:none;stroke:#ff0000;stroke-width:0.264583px;stroke-linecap:butt;stroke-linejoin:miter;stroke-opacity:1"
       d="m 80.708792,216.76806 43.493168,11.59366 23.65752,28.63804 -12.16529,19.79559"
       id="path1515"
       sodipodi:nodetypes="cccc" />
    <path
       style="fill:none;stroke:#0000ff;stroke-width:0.265;stroke-linecap:butt;stroke-linejoin:miter;stroke-miterlimit:4;stroke-dasharray:3.18, 3.18;stroke-dashoffset:0;stroke-opacity:1"
       d="m 87.735062,199.32544 92.826828,72.6556"
       id="path1684"
       sodipodi:nodetypes="cc" />
    <path
       style="fill:none;stroke:#0000ff;stroke-width:0.265;stroke-linecap:butt;stroke-linejoin:miter;stroke-miterlimit:4;stroke-dasharray:none;stroke-dashoffset:0;stroke-opacity:1"
       d="m 81.900784,198.49634 92.826836,72.6556"
       id="path1684-0"
       sodipodi:nodetypes="cc" />
    <path
       style="fill:none;stroke:#000000;stroke-width:0.264583px;stroke-linecap:butt;stroke-linejoin:miter;stroke-opacity:1;marker-end:url(#Arrow1Lend)"
       d="m 178.50826,270.39015 -10.9095,12.34812"
       id="path2164" />
    <path
       style="fill:none;stroke:#000000;stroke-width:0.264583px;stroke-linecap:butt;stroke-linejoin:miter;stroke-opacity:1"
       d="m 120.3981,227.39861 -0.56889,0.87919"
       id="path2591" />
    <path
       style="fill:none;stroke:#000000;stroke-width:0.264583px;stroke-linecap:butt;stroke-linejoin:miter;stroke-opacity:1"
       d="m 121.97548,227.86406 -0.95677,1.34465"
       id="path2593" />
    <path
       style="fill:none;stroke:#000000;stroke-width:0.264583px;stroke-linecap:butt;stroke-linejoin:miter;stroke-opacity:1"
       d="m 124.20196,228.36172 -1.47657,2.13993"
       id="path2595" />
    <path
       style="fill:none;stroke:#000000;stroke-width:0.264583px;stroke-linecap:butt;stroke-linejoin:miter;stroke-opacity:1"
       d="m 125.38883,230.01033 -1.1895,1.60324"
       id="path2597" />
    <path
       style="fill:none;stroke:#000000;stroke-width:0.264583px;stroke-linecap:butt;stroke-linejoin:miter;stroke-opacity:1"
       d="m 126.88864,231.74287 -0.90506,1.11192"
       id="path2599" />
    <path
       style="fill:none;stroke:#000000;stroke-width:0.264583px;stroke-linecap:butt;stroke-linejoin:miter;stroke-opacity:1"
       d="m 128.23329,233.21681 -0.72405,0.8792"
       id="path2601" />
    <path
       style="fill:none;stroke:#000000;stroke-width:0.265;stroke-linecap:butt;stroke-linejoin:miter;stroke-miterlimit:4;stroke-dasharray:none;stroke-opacity:1;marker-start:url(#Arrow1Mstart)"
       d="m 97.882557,209.94271 9.138523,-6.11763"
       id="path2636"
       sodipodi:nodetypes="cc" />
    <path
       style="font-variation-settings:normal;opacity:1;fill:none;fill-opacity:1;fill-rule:evenodd;stroke:#000000;stroke-width:0.265;stroke-linecap:butt;stroke-linejoin:miter;stroke-miterlimit:4;stroke-dasharray:none;stroke-dashoffset:0;stroke-opacity:1;stop-color:#000000;stop-opacity:1"
       id="path3272"
       sodipodi:type="arc"
       sodipodi:cx="80.612793"
       sodipodi:cy="216.91144"
       sodipodi:rx="1.7572143"
       sodipodi:ry="1.7572143"
       sodipodi:start="6.1848709"
       sodipodi:end="6.1778721"
       sodipodi:open="true"
       sodipodi:arc-type="arc"
       d="m 82.361522,216.73896 a 1.7572143,1.7572143 0 0 1 -1.573188,1.9209 1.7572143,1.7572143 0 0 1 -1.923656,-1.56982 1.7572143,1.7572143 0 0 1 1.566457,-1.9264 1.7572143,1.7572143 0 0 1 1.929137,1.56308" />
    <path
       style="fill:none;stroke:#000000;stroke-width:0.264583px;stroke-linecap:butt;stroke-linejoin:miter;stroke-opacity:1;marker-end:url(#marker3560)"
       d="m 77.730894,217.93276 v 4.34135"
       id="path3556" />
    <path
       style="font-variation-settings:normal;opacity:1;fill:none;fill-opacity:1;fill-rule:evenodd;stroke:#000000;stroke-width:0.265;stroke-linecap:butt;stroke-linejoin:miter;stroke-miterlimit:4;stroke-dasharray:none;stroke-dashoffset:0;stroke-opacity:1;stop-color:#000000;stop-opacity:1"
       id="path3272-5"
       sodipodi:type="arc"
       sodipodi:cx="135.82234"
       sodipodi:cy="276.94214"
       sodipodi:rx="1.7572143"
       sodipodi:ry="1.7572143"
       sodipodi:start="6.1848709"
       sodipodi:end="6.1778721"
       sodipodi:open="true"
       sodipodi:arc-type="arc"
       d="m 137.57107,276.76966 a 1.7572143,1.7572143 0 0 1 -1.57319,1.9209 1.7572143,1.7572143 0 0 1 -1.92365,-1.56982 1.7572143,1.7572143 0 0 1 1.56645,-1.9264 1.7572143,1.7572143 0 0 1 1.92914,1.56308" />
    <path
       style="fill:none;stroke:#000000;stroke-width:0.264583px;stroke-linecap:butt;stroke-linejoin:miter;stroke-opacity:1;marker-end:url(#marker3560)"
       d="m 135.40887,279.64199 h -6.51203"
       id="path3694" />
    <path
       style="font-variation-settings:normal;opacity:1;fill:none;fill-opacity:1;fill-rule:evenodd;stroke:#000000;stroke-width:0.265;stroke-linecap:butt;stroke-linejoin:miter;stroke-miterlimit:4;stroke-dasharray:none;stroke-dashoffset:0;stroke-opacity:1;stop-color:#000000;stop-opacity:1"
       id="path3272-1"
       sodipodi:type="arc"
       sodipodi:cx="147.81274"
       sodipodi:cy="257.00494"
       sodipodi:rx="1.7572143"
       sodipodi:ry="1.7572143"
       sodipodi:start="6.1848709"
       sodipodi:end="6.1778721"
       sodipodi:open="true"
       sodipodi:arc-type="arc"
       d="m 149.56147,256.83246 a 1.7572143,1.7572143 0 0 1 -1.57319,1.92091 1.7572143,1.7572143 0 0 1 -1.92365,-1.56983 1.7572143,1.7572143 0 0 1 1.56646,-1.9264 1.7572143,1.7572143 0 0 1 1.92913,1.56309" />
    <path
       style="fill:none;stroke:#000000;stroke-width:0.264583px;stroke-linecap:butt;stroke-linejoin:miter;stroke-opacity:1;marker-end:url(#marker3560)"
       d="m 145.88496,257.84879 -3.2947,5.07514"
       id="path3817"
       sodipodi:nodetypes="cc" />
    <path
       style="font-variation-settings:normal;opacity:1;fill:none;fill-opacity:1;fill-rule:evenodd;stroke:#000000;stroke-width:0.265;stroke-linecap:butt;stroke-linejoin:miter;stroke-miterlimit:4;stroke-dasharray:none;stroke-dashoffset:0;stroke-opacity:1;stop-color:#000000;stop-opacity:1"
       id="path3272-53"
       sodipodi:type="arc"
       sodipodi:cx="124.24539"
       sodipodi:cy="228.26932"
       sodipodi:rx="1.7572143"
       sodipodi:ry="1.7572143"
       sodipodi:start="6.1848709"
       sodipodi:end="6.1778721"
       sodipodi:open="true"
       sodipodi:arc-type="arc"
       d="m 125.99412,228.09684 a 1.7572143,1.7572143 0 0 1 -1.57319,1.9209 1.7572143,1.7572143 0 0 1 -1.92365,-1.56982 1.7572143,1.7572143 0 0 1 1.56645,-1.9264 1.7572143,1.7572143 0 0 1 1.92914,1.56308" />
  </g>
</svg>
