<?xml version="1.0" encoding="UTF-8" standalone="no"?>
<!-- Created with Inkscape (http://www.inkscape.org/) -->

<svg
   width="240mm"
   height="120mm"
   viewBox="0 0 240 120"
   version="1.1"
   id="svg8"
   inkscape:version="1.1.1 (c3084ef, 2021-09-22)"
   sodipodi:docname="lagrangian-maximizer.svg"
   xmlns:inkscape="http://www.inkscape.org/namespaces/inkscape"
   xmlns:sodipodi="http://sodipodi.sourceforge.net/DTD/sodipodi-0.dtd"
   xmlns="http://www.w3.org/2000/svg"
   xmlns:svg="http://www.w3.org/2000/svg"
   xmlns:rdf="http://www.w3.org/1999/02/22-rdf-syntax-ns#"
   xmlns:cc="http://creativecommons.org/ns#"
   xmlns:dc="http://purl.org/dc/elements/1.1/">
  <defs
     id="defs2">
    <inkscape:path-effect
       effect="spiro"
       id="path-effect5289"
       is_visible="true"
       lpeversion="1" />
    <inkscape:path-effect
       effect="spiro"
       id="path-effect4668"
       is_visible="true"
       lpeversion="1" />
  </defs>
  <sodipodi:namedview
     id="base"
     pagecolor="#ffffff"
     bordercolor="#666666"
     borderopacity="1.0"
     inkscape:pageopacity="0.0"
     inkscape:pageshadow="2"
     inkscape:zoom="1.3586989"
     inkscape:cx="659.82245"
     inkscape:cy="239.93544"
     inkscape:document-units="mm"
     inkscape:current-layer="layer1"
     showgrid="false"
     showborder="true"
     width="200mm"
     showguides="true"
     inkscape:guide-bbox="true"
     inkscape:window-width="840"
     inkscape:window-height="462"
     inkscape:window-x="0"
     inkscape:window-y="25"
     inkscape:window-maximized="0"
     inkscape:pagecheckerboard="0">
    <inkscape:grid
       type="xygrid"
       id="grid815"
       units="mm"
       spacingx="10"
       spacingy="10"
       empspacing="4"
       dotted="false" />
  </sodipodi:namedview>
  <metadata
     id="metadata5">
    <rdf:RDF>
      <cc:Work
         rdf:about="">
        <dc:format>image/svg+xml</dc:format>
        <dc:type
           rdf:resource="http://purl.org/dc/dcmitype/StillImage" />
        <dc:title />
      </cc:Work>
    </rdf:RDF>
  </metadata>
  <g
     inkscape:label="Layer 1"
     inkscape:groupmode="layer"
     id="layer1"
     transform="translate(0,-177)">
    <path
       style="fill:none;stroke:#000000;stroke-width:0.264583px;stroke-linecap:butt;stroke-linejoin:miter;stroke-opacity:1"
       d="m 9.2753866,202.1515 v 74.15114 H 99.036916"
       id="path856" />
    <text
       xml:space="preserve"
       style="font-size:5.64444px;line-height:1.25;font-family:sans-serif;letter-spacing:0px;stroke-width:0.264583"
       x="2.8344851"
       y="198.82562"
       id="text6166"><tspan
         sodipodi:role="line"
         id="tspan6164"
         style="stroke-width:0.264583"
         x="2.8344851"
         y="198.82562">\(v(\hat{y})\)</tspan></text>
    <path
       style="fill:none;stroke:#000704;stroke-width:0.264583;stroke-linecap:butt;stroke-linejoin:miter;stroke-miterlimit:4;stroke-dasharray:none;stroke-dashoffset:0;stroke-opacity:1"
       d="m 39.722232,230.85525 -9.733179,12.3961 -11.801461,23.57416"
       id="path1131"
       sodipodi:nodetypes="ccc" />
    <path
       style="fill:#000000;stroke:none;stroke-width:0.265;stroke-miterlimit:4;stroke-dasharray:none;stroke-dashoffset:0;stroke-opacity:1"
       id="path953-0"
       sodipodi:type="arc"
       sodipodi:cx="39.493088"
       sodipodi:cy="230.96376"
       sodipodi:rx="0.60664344"
       sodipodi:ry="0.60664344"
       sodipodi:start="0"
       sodipodi:end="6.1034134"
       sodipodi:open="true"
       sodipodi:arc-type="arc"
       d="m 40.099731,230.96376 a 0.60664344,0.60664344 0 0 1 -0.579388,0.60603 0.60664344,0.60664344 0 0 1 -0.63145,-0.55157 0.60664344,0.60664344 0 0 1 0.522649,-0.6556 0.60664344,0.60664344 0 0 1 0.678413,0.49267" />
    <path
       style="fill:none;stroke:#000000;stroke-width:0.265;stroke-linecap:butt;stroke-linejoin:miter;stroke-miterlimit:4;stroke-dasharray:none;stroke-dashoffset:0;stroke-opacity:1"
       d="m 68.58764,224.98061 25.173146,25.15176"
       id="path892"
       sodipodi:nodetypes="cc" />
    <path
       style="fill:#ff0000;fill-opacity:1;stroke:none;stroke-width:0.265;stroke-miterlimit:4;stroke-dasharray:none;stroke-dashoffset:0;stroke-opacity:1"
       id="path953-2"
       sodipodi:type="arc"
       sodipodi:cx="68.85891"
       sodipodi:cy="224.91917"
       sodipodi:rx="0.60664344"
       sodipodi:ry="0.60664344"
       sodipodi:start="0"
       sodipodi:end="6.1034134"
       sodipodi:open="true"
       sodipodi:arc-type="arc"
       d="m 69.465553,224.91917 a 0.60664344,0.60664344 0 0 1 -0.579388,0.60604 0.60664344,0.60664344 0 0 1 -0.63145,-0.55158 0.60664344,0.60664344 0 0 1 0.522649,-0.65559 0.60664344,0.60664344 0 0 1 0.678413,0.49266" />
    <path
       style="fill:#000000;stroke:none;stroke-width:0.265;stroke-miterlimit:4;stroke-dasharray:none;stroke-dashoffset:0;stroke-opacity:1"
       id="path953-2-4"
       sodipodi:type="arc"
       sodipodi:cx="29.989037"
       sodipodi:cy="243.25139"
       sodipodi:rx="0.60664344"
       sodipodi:ry="0.60664344"
       sodipodi:start="0"
       sodipodi:end="6.1034134"
       sodipodi:open="true"
       sodipodi:arc-type="arc"
       d="m 30.59568,243.25139 a 0.60664344,0.60664344 0 0 1 -0.579388,0.60603 0.60664344,0.60664344 0 0 1 -0.63145,-0.55158 0.60664344,0.60664344 0 0 1 0.522649,-0.65559 0.60664344,0.60664344 0 0 1 0.678413,0.49267" />
    <path
       style="fill:#000000;stroke:none;stroke-width:0.265;stroke-miterlimit:4;stroke-dasharray:none;stroke-dashoffset:0;stroke-opacity:1"
       id="path953-2-3"
       sodipodi:type="arc"
       sodipodi:cx="18.187576"
       sodipodi:cy="266.8255"
       sodipodi:rx="0.60664344"
       sodipodi:ry="0.60664344"
       sodipodi:start="0"
       sodipodi:end="6.1034134"
       sodipodi:open="true"
       sodipodi:arc-type="arc"
       d="m 18.79422,266.8255 a 0.60664344,0.60664344 0 0 1 -0.579389,0.60603 0.60664344,0.60664344 0 0 1 -0.631449,-0.55157 0.60664344,0.60664344 0 0 1 0.522649,-0.6556 0.60664344,0.60664344 0 0 1 0.678412,0.49267" />
    <path
       style="fill:#000000;stroke:none;stroke-width:0.265;stroke-miterlimit:4;stroke-dasharray:none;stroke-dashoffset:0;stroke-opacity:1"
       id="path953-2-45"
       sodipodi:type="arc"
       sodipodi:cx="93.761597"
       sodipodi:cy="250.13242"
       sodipodi:rx="0.60664344"
       sodipodi:ry="0.60664344"
       sodipodi:start="0"
       sodipodi:end="6.1034134"
       sodipodi:open="true"
       sodipodi:arc-type="arc"
       d="m 94.36824,250.13242 a 0.60664344,0.60664344 0 0 1 -0.579388,0.60603 0.60664344,0.60664344 0 0 1 -0.63145,-0.55158 0.60664344,0.60664344 0 0 1 0.522649,-0.65559 0.60664344,0.60664344 0 0 1 0.678413,0.49266" />
    <path
       style="fill:none;stroke:#000000;stroke-width:0.264583px;stroke-linecap:butt;stroke-linejoin:miter;stroke-opacity:1"
       d="m 39.722232,230.85525 29.733192,-6.04459"
       id="path2223" />
    <text
       xml:space="preserve"
       style="font-size:5.64444px;line-height:1.25;font-family:sans-serif;letter-spacing:0px;stroke-width:0.264583"
       x="100.52921"
       y="278.20068"
       id="text3433"><tspan
         sodipodi:role="line"
         id="tspan3431"
         style="stroke-width:0.264583"
         x="100.52921"
         y="278.20068">\(\hat{y}\)</tspan></text>
    <path
       style="fill:none;stroke:#000000;stroke-width:0.264583;stroke-linecap:butt;stroke-linejoin:miter;stroke-miterlimit:4;stroke-dasharray:3.175, 3.175;stroke-dashoffset:0;stroke-opacity:1"
       d="M 9.7062283,224.92371 H 98.233772"
       id="path4666"
       inkscape:path-effect="#path-effect4668"
       inkscape:original-d="m 9.7062283,224.92371 c 23.9509597,2.7e-4 64.5772487,2.7e-4 88.5275437,0"
       sodipodi:nodetypes="cc" />
    <path
       style="fill:none;stroke:#000000;stroke-width:0.264583px;stroke-linecap:butt;stroke-linejoin:miter;stroke-opacity:1"
       d="m 139.07818,202.1515 v 74.15114 h 89.76189"
       id="path856-9" />
    <text
       xml:space="preserve"
       style="font-size:5.64444px;line-height:1.25;font-family:sans-serif;letter-spacing:0px;stroke-width:0.264583"
       x="132.63774"
       y="198.82564"
       id="text6166-1"><tspan
         sodipodi:role="line"
         id="tspan6164-4"
         style="stroke-width:0.264583"
         x="132.63774"
         y="198.82564">\(v(\hat{y})\)</tspan></text>
    <path
       style="fill:none;stroke:#000704;stroke-width:0.264583;stroke-linecap:butt;stroke-linejoin:miter;stroke-miterlimit:4;stroke-dasharray:none;stroke-dashoffset:0;stroke-opacity:1"
       d="m 172.45585,224.81218 -12.664,18.43917 -11.80146,23.57416"
       id="path1131-2"
       sodipodi:nodetypes="ccc" />
    <path
       style="fill:#ff0000;stroke:none;stroke-width:0.265;stroke-miterlimit:4;stroke-dasharray:none;stroke-dashoffset:0;stroke-opacity:1;fill-opacity:1"
       id="path953-0-3"
       sodipodi:type="arc"
       sodipodi:cx="172.3486"
       sodipodi:cy="224.80334"
       sodipodi:rx="0.60664344"
       sodipodi:ry="0.60664344"
       sodipodi:start="0"
       sodipodi:end="6.1034134"
       sodipodi:open="true"
       sodipodi:arc-type="arc"
       d="m 172.95525,224.80334 a 0.60664344,0.60664344 0 0 1 -0.57939,0.60604 0.60664344,0.60664344 0 0 1 -0.63145,-0.55158 0.60664344,0.60664344 0 0 1 0.52265,-0.65559 0.60664344,0.60664344 0 0 1 0.67841,0.49266" />
    <path
       style="fill:none;stroke:#000000;stroke-width:0.265;stroke-linecap:butt;stroke-linejoin:miter;stroke-miterlimit:4;stroke-dasharray:none;stroke-dashoffset:0;stroke-opacity:1"
       d="m 198.39062,224.98061 25.17329,25.15176"
       id="path892-0"
       sodipodi:nodetypes="cc" />
    <path
       style="fill:#ff0000;fill-opacity:1;stroke:none;stroke-width:0.265;stroke-miterlimit:4;stroke-dasharray:none;stroke-dashoffset:0;stroke-opacity:1"
       id="path953-2-40"
       sodipodi:type="arc"
       sodipodi:cx="198.66206"
       sodipodi:cy="224.91919"
       sodipodi:rx="0.60664344"
       sodipodi:ry="0.60664344"
       sodipodi:start="0"
       sodipodi:end="6.1034134"
       sodipodi:open="true"
       sodipodi:arc-type="arc"
       d="m 199.26871,224.91919 a 0.60664344,0.60664344 0 0 1 -0.57939,0.60603 0.60664344,0.60664344 0 0 1 -0.63145,-0.55158 0.60664344,0.60664344 0 0 1 0.52265,-0.65559 0.60664344,0.60664344 0 0 1 0.67841,0.49267" />
    <path
       style="fill:#000000;stroke:none;stroke-width:0.265;stroke-miterlimit:4;stroke-dasharray:none;stroke-dashoffset:0;stroke-opacity:1"
       id="path953-2-4-6"
       sodipodi:type="arc"
       sodipodi:cx="159.79231"
       sodipodi:cy="243.2514"
       sodipodi:rx="0.60664344"
       sodipodi:ry="0.60664344"
       sodipodi:start="0"
       sodipodi:end="6.1034134"
       sodipodi:open="true"
       sodipodi:arc-type="arc"
       d="m 160.39896,243.2514 a 0.60664344,0.60664344 0 0 1 -0.57939,0.60603 0.60664344,0.60664344 0 0 1 -0.63145,-0.55157 0.60664344,0.60664344 0 0 1 0.52265,-0.65559 0.60664344,0.60664344 0 0 1 0.67841,0.49266" />
    <path
       style="fill:#000000;stroke:none;stroke-width:0.265;stroke-miterlimit:4;stroke-dasharray:none;stroke-dashoffset:0;stroke-opacity:1"
       id="path953-2-3-5"
       sodipodi:type="arc"
       sodipodi:cx="147.99086"
       sodipodi:cy="266.8255"
       sodipodi:rx="0.60664344"
       sodipodi:ry="0.60664344"
       sodipodi:start="0"
       sodipodi:end="6.1034134"
       sodipodi:open="true"
       sodipodi:arc-type="arc"
       d="m 148.5975,266.8255 a 0.60664344,0.60664344 0 0 1 -0.57938,0.60603 0.60664344,0.60664344 0 0 1 -0.63145,-0.55157 0.60664344,0.60664344 0 0 1 0.52264,-0.6556 0.60664344,0.60664344 0 0 1 0.67842,0.49267" />
    <path
       style="fill:#000000;stroke:none;stroke-width:0.265;stroke-miterlimit:4;stroke-dasharray:none;stroke-dashoffset:0;stroke-opacity:1"
       id="path953-2-45-7"
       sodipodi:type="arc"
       sodipodi:cx="223.56442"
       sodipodi:cy="250.13242"
       sodipodi:rx="0.60664344"
       sodipodi:ry="0.60664344"
       sodipodi:start="0"
       sodipodi:end="6.1034134"
       sodipodi:open="true"
       sodipodi:arc-type="arc"
       d="m 224.17107,250.13242 a 0.60664344,0.60664344 0 0 1 -0.57939,0.60603 0.60664344,0.60664344 0 0 1 -0.63145,-0.55158 0.60664344,0.60664344 0 0 1 0.52265,-0.65559 0.60664344,0.60664344 0 0 1 0.67841,0.49266" />
    <path
       style="fill:none;stroke:#000000;stroke-width:0.264583;stroke-linecap:butt;stroke-linejoin:miter;stroke-miterlimit:4;stroke-dasharray:3.175, 3.175;stroke-dashoffset:0;stroke-opacity:1"
       d="m 141.35025,224.78598 h 88.5279"
       id="path4666-5"
       inkscape:path-effect="#path-effect5289"
       inkscape:original-d="m 141.35025,224.78598 c 23.95096,2.7e-4 64.57747,2.7e-4 88.5279,0"
       sodipodi:nodetypes="cc" />
    <path
       style="fill:#ff0000;stroke:#ff0000;stroke-width:0.264583px;stroke-linecap:butt;stroke-linejoin:miter;stroke-opacity:1;fill-opacity:1"
       d="m 172.45585,224.81218 26.80256,-0.002"
       id="path2223-9"
       sodipodi:nodetypes="cc" />
    <text
       xml:space="preserve"
       style="font-size:5.64444px;line-height:1.25;font-family:sans-serif;letter-spacing:0px;stroke-width:0.264583"
       x="230.33195"
       y="278.20068"
       id="text3433-7"><tspan
         sodipodi:role="line"
         id="tspan3431-3"
         style="stroke-width:0.264583"
         x="230.33195"
         y="278.20068">\(\hat{y}\)</tspan></text>
  </g>
</svg>
