<?xml version="1.0" encoding="UTF-8" standalone="no"?>
<!-- Created with Inkscape (http://www.inkscape.org/) -->

<svg
   width="240mm"
   height="120mm"
   viewBox="0 0 240 120"
   version="1.1"
   id="svg8"
   inkscape:version="1.1.1 (c3084ef, 2021-09-22)"
   sodipodi:docname="local-analysis-dual.svg"
   xmlns:inkscape="http://www.inkscape.org/namespaces/inkscape"
   xmlns:sodipodi="http://sodipodi.sourceforge.net/DTD/sodipodi-0.dtd"
   xmlns="http://www.w3.org/2000/svg"
   xmlns:svg="http://www.w3.org/2000/svg"
   xmlns:rdf="http://www.w3.org/1999/02/22-rdf-syntax-ns#"
   xmlns:cc="http://creativecommons.org/ns#"
   xmlns:dc="http://purl.org/dc/elements/1.1/">
  <defs
     id="defs2" />
  <sodipodi:namedview
     id="base"
     pagecolor="#ffffff"
     bordercolor="#666666"
     borderopacity="1.0"
     inkscape:pageopacity="0.0"
     inkscape:pageshadow="2"
     inkscape:zoom="0.4974824"
     inkscape:cx="340.71557"
     inkscape:cy="229.15383"
     inkscape:document-units="mm"
     inkscape:current-layer="layer1"
     showgrid="false"
     showborder="true"
     width="200mm"
     showguides="true"
     inkscape:guide-bbox="true"
     inkscape:window-width="840"
     inkscape:window-height="462"
     inkscape:window-x="0"
     inkscape:window-y="25"
     inkscape:window-maximized="0"
     inkscape:pagecheckerboard="0">
    <inkscape:grid
       type="xygrid"
       id="grid815"
       units="mm"
       spacingx="10"
       spacingy="10"
       empspacing="4"
       dotted="false" />
  </sodipodi:namedview>
  <metadata
     id="metadata5">
    <rdf:RDF>
      <cc:Work
         rdf:about="">
        <dc:format>image/svg+xml</dc:format>
        <dc:type
           rdf:resource="http://purl.org/dc/dcmitype/StillImage" />
        <dc:title />
      </cc:Work>
    </rdf:RDF>
  </metadata>
  <g
     inkscape:label="Layer 1"
     inkscape:groupmode="layer"
     id="layer1"
     transform="translate(0,-177)">
    <path
       style="fill:none;stroke:#000000;stroke-width:0.264583px;stroke-linecap:butt;stroke-linejoin:miter;stroke-opacity:1"
       d="M 75.552915,198.82116 V 272.9723 H 165.31482"
       id="path856" />
    <text
       xml:space="preserve"
       style="font-size:5.64444px;line-height:1.25;font-family:sans-serif;letter-spacing:0px;stroke-width:0.264583"
       x="66.995346"
       y="195.49524"
       id="text6166"><tspan
         sodipodi:role="line"
         id="tspan6164"
         style="stroke-width:0.264583"
         x="66.995346"
         y="195.49524">\(g(c)\)</tspan></text>
    <path
       style="fill:none;stroke:#000704;stroke-width:0.264583;stroke-linecap:butt;stroke-linejoin:miter;stroke-miterlimit:4;stroke-dasharray:3.175, 3.175;stroke-dashoffset:0;stroke-opacity:1"
       d="m 105.9998,227.52491 -9.733218,12.3961 -11.801461,23.57416"
       id="path1131"
       sodipodi:nodetypes="ccc" />
    <path
       style="fill:#000000;stroke:none;stroke-width:0.265;stroke-miterlimit:4;stroke-dasharray:none;stroke-dashoffset:0;stroke-opacity:1"
       id="path953-0"
       sodipodi:type="arc"
       sodipodi:cx="105.40293"
       sodipodi:cy="227.63338"
       sodipodi:rx="0.60664344"
       sodipodi:ry="0.60664344"
       sodipodi:start="0"
       sodipodi:end="6.1034134"
       sodipodi:open="true"
       sodipodi:arc-type="arc"
       d="m 106.00957,227.63338 a 0.60664344,0.60664344 0 0 1 -0.57938,0.60603 0.60664344,0.60664344 0 0 1 -0.63145,-0.55158 0.60664344,0.60664344 0 0 1 0.52265,-0.65559 0.60664344,0.60664344 0 0 1 0.67841,0.49267" />
    <path
       style="fill:none;stroke:#000000;stroke-width:0.265;stroke-linecap:butt;stroke-linejoin:miter;stroke-miterlimit:4;stroke-dasharray:3.18, 3.18;stroke-dashoffset:0;stroke-opacity:1"
       d="m 134.86537,221.65027 25.17329,25.15176"
       id="path892"
       sodipodi:nodetypes="cc" />
    <path
       style="fill:#000000;stroke:none;stroke-width:0.265;stroke-miterlimit:4;stroke-dasharray:none;stroke-dashoffset:0;stroke-opacity:1"
       id="path953-2"
       sodipodi:type="arc"
       sodipodi:cx="135.13629"
       sodipodi:cy="221.58879"
       sodipodi:rx="0.60664344"
       sodipodi:ry="0.60664344"
       sodipodi:start="0"
       sodipodi:end="6.1034134"
       sodipodi:open="true"
       sodipodi:arc-type="arc"
       d="m 135.74293,221.58879 a 0.60664344,0.60664344 0 0 1 -0.57938,0.60603 0.60664344,0.60664344 0 0 1 -0.63145,-0.55157 0.60664344,0.60664344 0 0 1 0.52265,-0.6556 0.60664344,0.60664344 0 0 1 0.67841,0.49267" />
    <path
       style="fill:#000000;stroke:none;stroke-width:0.265;stroke-miterlimit:4;stroke-dasharray:none;stroke-dashoffset:0;stroke-opacity:1"
       id="path953-2-4"
       sodipodi:type="arc"
       sodipodi:cx="96.266586"
       sodipodi:cy="239.92101"
       sodipodi:rx="0.60664344"
       sodipodi:ry="0.60664344"
       sodipodi:start="0"
       sodipodi:end="6.1034134"
       sodipodi:open="true"
       sodipodi:arc-type="arc"
       d="m 96.87323,239.92101 a 0.60664344,0.60664344 0 0 1 -0.579389,0.60603 0.60664344,0.60664344 0 0 1 -0.631449,-0.55158 0.60664344,0.60664344 0 0 1 0.522649,-0.65559 0.60664344,0.60664344 0 0 1 0.678412,0.49266" />
    <path
       style="fill:#000000;stroke:none;stroke-width:0.265;stroke-miterlimit:4;stroke-dasharray:none;stroke-dashoffset:0;stroke-opacity:1"
       id="path953-2-3"
       sodipodi:type="arc"
       sodipodi:cx="84.465126"
       sodipodi:cy="263.49518"
       sodipodi:rx="0.60664344"
       sodipodi:ry="0.60664344"
       sodipodi:start="0"
       sodipodi:end="6.1034134"
       sodipodi:open="true"
       sodipodi:arc-type="arc"
       d="m 85.071769,263.49518 a 0.60664344,0.60664344 0 0 1 -0.579388,0.60603 0.60664344,0.60664344 0 0 1 -0.631449,-0.55158 0.60664344,0.60664344 0 0 1 0.522649,-0.65559 0.60664344,0.60664344 0 0 1 0.678412,0.49267" />
    <path
       style="fill:#000000;stroke:none;stroke-width:0.265;stroke-miterlimit:4;stroke-dasharray:none;stroke-dashoffset:0;stroke-opacity:1"
       id="path953-2-45"
       sodipodi:type="arc"
       sodipodi:cx="160.03865"
       sodipodi:cy="246.80203"
       sodipodi:rx="0.60664344"
       sodipodi:ry="0.60664344"
       sodipodi:start="0"
       sodipodi:end="6.1034134"
       sodipodi:open="true"
       sodipodi:arc-type="arc"
       d="m 160.64529,246.80203 a 0.60664344,0.60664344 0 0 1 -0.57938,0.60603 0.60664344,0.60664344 0 0 1 -0.63145,-0.55157 0.60664344,0.60664344 0 0 1 0.52265,-0.6556 0.60664344,0.60664344 0 0 1 0.67841,0.49267" />
    <path
       style="fill:none;stroke:#ff0000;stroke-width:0.264583;stroke-linecap:butt;stroke-linejoin:miter;stroke-miterlimit:4;stroke-dasharray:3.175, 3.175;stroke-dashoffset:0;stroke-opacity:1"
       d="M 80.857224,232.68998 168.58946,214.69164"
       id="path1133"
       sodipodi:nodetypes="cc" />
    <path
       style="fill:none;stroke:#000000;stroke-width:0.264583px;stroke-linecap:butt;stroke-linejoin:miter;stroke-opacity:1"
       d="m 105.9998,227.52491 29.73336,-6.04459"
       id="path2223" />
  </g>
</svg>
