<?xml version="1.0" encoding="UTF-8" standalone="no"?>
<!-- Created with Inkscape (http://www.inkscape.org/) -->

<svg
   width="240mm"
   height="90mm"
   viewBox="0 0 240 90"
   version="1.1"
   id="svg8"
   inkscape:version="1.1.1 (c3084ef, 2021-09-22)"
   sodipodi:docname="connecting-homomorphism-relative-homology-rn.svg"
   xmlns:inkscape="http://www.inkscape.org/namespaces/inkscape"
   xmlns:sodipodi="http://sodipodi.sourceforge.net/DTD/sodipodi-0.dtd"
   xmlns="http://www.w3.org/2000/svg"
   xmlns:svg="http://www.w3.org/2000/svg"
   xmlns:rdf="http://www.w3.org/1999/02/22-rdf-syntax-ns#"
   xmlns:cc="http://creativecommons.org/ns#"
   xmlns:dc="http://purl.org/dc/elements/1.1/">
  <defs
     id="defs2">
    <marker
       style="overflow:visible"
       id="StopL"
       refX="0"
       refY="0"
       orient="auto"
       inkscape:stockid="StopL"
       inkscape:isstock="true">
      <path
         transform="scale(0.8)"
         style="fill:none;fill-opacity:0.75;fill-rule:evenodd;stroke:context-stroke;stroke-width:1pt"
         d="M 0,5.65 V -5.65"
         id="path13798" />
    </marker>
    <inkscape:path-effect
       effect="spiro"
       id="path-effect4039"
       is_visible="true"
       lpeversion="1" />
    <inkscape:path-effect
       effect="spiro"
       id="path-effect858"
       is_visible="true"
       lpeversion="1" />
    <marker
       id="marker-arrow-1"
       orient="auto-start-reverse"
       refY="0"
       refX="0"
       markerHeight="3"
       markerWidth="2">
      <g
         transform="scale(1.3933333)"
         id="g3426"><path
   d="M -1.55415,2.0722 C -1.42464,1.29512 0,0.1295 0.38852,0 0,-0.1295 -1.42464,-1.29512 -1.55415,-2.0722"
   style="fill:none;stroke:#000000;stroke-linecap:round;stroke-linejoin:round;stroke-miterlimit:10;stroke-dasharray:none;stroke-opacity:1"
   id="path3424" />

0&quot; /&gt;
   </g>
    </marker>
    <marker
       id="marker-arrow-1-3"
       orient="auto-start-reverse"
       refY="0"
       refX="0"
       markerHeight="3"
       markerWidth="2">
      <g
         transform="scale(1.3933333)"
         id="g13496"><path
   d="M -1.55415,2.0722 C -1.42464,1.29512 0,0.1295 0.38852,0 0,-0.1295 -1.42464,-1.29512 -1.55415,-2.0722"
   style="fill:none;stroke:#000000;stroke-linecap:round;stroke-linejoin:round;stroke-miterlimit:10;stroke-dasharray:none;stroke-opacity:1"
   id="path13494" />

0&quot; /&gt;
   </g>
    </marker>
  </defs>
  <sodipodi:namedview
     id="base"
     pagecolor="#ffffff"
     bordercolor="#666666"
     borderopacity="1.0"
     inkscape:pageopacity="0.0"
     inkscape:pageshadow="2"
     inkscape:zoom="0.59258234"
     inkscape:cx="408.38206"
     inkscape:cy="58.219757"
     inkscape:document-units="mm"
     inkscape:current-layer="layer1"
     showgrid="false"
     showborder="true"
     width="200mm"
     showguides="true"
     inkscape:guide-bbox="true"
     inkscape:window-width="1280"
     inkscape:window-height="680"
     inkscape:window-x="1728"
     inkscape:window-y="25"
     inkscape:window-maximized="0"
     inkscape:pagecheckerboard="0">
    <inkscape:grid
       type="xygrid"
       id="grid815"
       units="mm"
       spacingx="10"
       spacingy="10"
       empspacing="4"
       dotted="false" />
  </sodipodi:namedview>
  <metadata
     id="metadata5">
    <rdf:RDF>
      <cc:Work
         rdf:about="">
        <dc:format>image/svg+xml</dc:format>
        <dc:type
           rdf:resource="http://purl.org/dc/dcmitype/StillImage" />
      </cc:Work>
    </rdf:RDF>
  </metadata>
  <g
     inkscape:label="Layer 1"
     inkscape:groupmode="layer"
     id="layer1"
     transform="translate(0,-177)">
    <path
       style="fill:none;stroke:#000000;stroke-width:0.264583px;stroke-linecap:butt;stroke-linejoin:miter;stroke-opacity:1"
       d="m 28.636318,204.10292 c 0.0046,-0.73961 0.240221,-1.46475 0.591485,-2.11564 0.351264,-0.65089 0.815674,-1.23375 1.303393,-1.78979 0.975438,-1.11207 2.079713,-2.17113 2.628487,-3.54482 0.411738,-1.03066 0.477797,-2.17401 0.352856,-3.27682 -0.124941,-1.1028 -0.433491,-2.1756 -0.751595,-3.2389 -0.318103,-1.0633 -0.648086,-2.12785 -0.817862,-3.22465 -0.169775,-1.0968 -0.174164,-2.23679 0.15228,-3.29756 0.5265,-1.71084 1.902081,-3.09169 3.53233,-3.83092 1.630249,-0.73923 3.490255,-0.8772 5.260849,-0.6142 3.54119,0.52601 6.646692,2.54574 9.832445,4.17904 4.030391,2.06634 8.34508,3.56551 12.771855,4.52336 1.584782,0.34291 3.190826,0.61876 4.723071,1.14918 1.532246,0.53042 3.008752,1.33939 4.057579,2.57595 0.788768,0.92995 1.307928,2.07428 1.562358,3.26685 0.254429,1.19258 0.249766,2.43258 0.06162,3.6374 -0.376285,2.40962 -1.465459,4.64514 -2.636158,6.78461 -1.1707,2.13948 -2.444671,4.24295 -3.243925,6.54709 -0.799255,2.30415 -1.093149,4.87559 -0.267262,7.17032 0.512277,1.42336 1.421871,2.66195 2.184683,3.96828 0.381406,0.65317 0.729162,1.33 0.968573,2.04748 0.239412,0.71749 0.368528,1.47897 0.305787,2.23273 -0.102279,1.22876 -0.723618,2.39035 -1.630565,3.22568 -0.906947,0.83533 -2.084205,1.35257 -3.301736,1.54736 -1.21753,0.19479 -2.473628,0.0768 -3.662214,-0.25125 -1.188585,-0.328 -2.313045,-0.86197 -3.37099,-1.49527 -2.115892,-1.26661 -3.968317,-2.92412 -5.994689,-4.32951 -2.026373,-1.40538 -4.321454,-2.58393 -6.785276,-2.68821 -1.451989,-0.0614 -2.892751,0.25353 -4.297225,0.62703 -1.404473,0.3735 -2.799548,0.80884 -4.240607,0.99698 -1.441059,0.18814 -2.954165,0.11489 -4.273578,-0.49437 -0.659707,-0.30463 -1.262189,-0.74208 -1.727452,-1.30024 -0.465262,-0.55816 -0.789904,-1.23887 -0.893797,-1.95805 -0.103951,-0.71958 0.01296,-1.45753 0.23815,-2.14882 0.225193,-0.6913 0.556125,-1.34272 0.890885,-1.98812 0.33476,-0.6454 0.675844,-1.29058 0.923265,-1.97424 0.247422,-0.68366 0.399659,-1.41251 0.342422,-2.13731 -0.06706,-0.84915 -0.419003,-1.65554 -0.88393,-2.36926 -0.464927,-0.71372 -1.041974,-1.34618 -1.609612,-1.98127 -0.567639,-0.63509 -1.132008,-1.28096 -1.56616,-2.01381 -0.434152,-0.73284 -0.735091,-1.56454 -0.729743,-2.41631 z"
       id="path856"
       inkscape:path-effect="#path-effect858"
       inkscape:original-d="m 28.636318,204.10292 c -1.596747,-2.92715 3.015843,-4.96657 4.523365,-7.45025 1.507524,-2.48368 -0.709282,-8.69169 -1.064321,-13.03793 -0.355037,-4.34625 12.417348,-0.17713 18.625624,-0.26608 6.208276,-0.089 8.514834,3.01584 12.771855,4.52336 4.257022,1.50753 5.854033,2.48368 8.78065,3.72513 2.92662,1.24144 -3.01531,18.27111 -4.523364,27.40627 -1.508053,9.13516 2.306294,5.49926 3.459043,8.24849 1.15275,2.74923 -16.496715,-2.66054 -24.74547,-3.9912 -8.248753,-1.33067 -10.288175,-1.41884 -15.432659,-2.12865 -5.144484,-0.70981 1.596747,-5.49873 2.394722,-8.24849 0.797978,-2.74976 -3.192698,-5.8535 -4.789445,-8.78065 z" />
    <path
       style="fill:#000000;fill-opacity:0.12;stroke:#000000;stroke-width:0.264583;stroke-linecap:butt;stroke-linejoin:miter;stroke-dasharray:none;stroke-opacity:1;marker-start:none;marker-end:none"
       d="m 43.536816,188.67025 -3.459043,29.26884 24.21331,-13.30401 z"
       id="path893"
       sodipodi:nodetypes="cccc" />
    <path
       style="font-variation-settings:normal;opacity:0.99;vector-effect:none;fill:#000000;fill-opacity:1;fill-rule:evenodd;stroke:none;stroke-width:0.264567;stroke-linecap:butt;stroke-linejoin:round;stroke-miterlimit:4;stroke-dasharray:none;stroke-dashoffset:0;stroke-opacity:1;-inkscape-stroke:none;marker-start:none;marker-end:none;stop-color:#000000;stop-opacity:1"
       id="path1123"
       sodipodi:type="arc"
       sodipodi:cx="47.66106"
       sodipodi:cy="202.3734"
       sodipodi:rx="0.93128115"
       sodipodi:ry="0.93128115"
       sodipodi:start="3.2066062"
       sodipodi:end="3.1996772"
       sodipodi:open="true"
       sodipodi:arc-type="arc"
       d="m 46.731747,202.31289 a 0.93128115,0.93128115 0 0 1 0.988207,-0.86891 0.93128115,0.93128115 0 0 1 0.870624,0.9867 0.93128115,0.93128115 0 0 1 -0.985191,0.87233 0.93128115,0.93128115 0 0 1 -0.874037,-0.98367" />
    <text
       xml:space="preserve"
       style="font-size:5.64444px;line-height:1.25;font-family:sans-serif;letter-spacing:0px;word-spacing:0px;stroke-width:0.264583"
       x="50.454899"
       y="207.29588"
       id="text1361"><tspan
         sodipodi:role="line"
         id="tspan1359"
         style="stroke-width:0.264583"
         x="50.454899"
         y="207.29588">\(x\)</tspan></text>
    <text
       xml:space="preserve"
       style="font-size:5.64444px;line-height:1.25;font-family:sans-serif;letter-spacing:0px;word-spacing:0px;stroke-width:0.264583"
       x="54.416393"
       y="182.76656"
       id="text1361-3"><tspan
         sodipodi:role="line"
         id="tspan1359-9"
         style="stroke-width:0.264583"
         x="54.416393"
         y="182.76656">\(u\)</tspan></text>
    <path
       style="fill:none;fill-opacity:1;stroke:#000000;stroke-width:0.264583;stroke-linecap:butt;stroke-linejoin:miter;stroke-dasharray:none;stroke-opacity:1;marker-start:none;marker-end:url(#marker-arrow-1)"
       d="M 91.431277,210.7759 H 145.1795"
       id="path3243" />
    <text
       xml:space="preserve"
       style="font-size:5.64444px;line-height:1.25;font-family:sans-serif;letter-spacing:0px;word-spacing:0px;stroke-width:0.264583"
       x="116.95102"
       y="207.05074"
       id="text3554"><tspan
         sodipodi:role="line"
         id="tspan3552"
         style="stroke-width:0.264583"
         x="116.95102"
         y="207.05074">\(\delta\)</tspan></text>
    <path
       style="fill:none;stroke:#000000;stroke-width:0.264583px;stroke-linecap:butt;stroke-linejoin:miter;stroke-opacity:1"
       d="m 160.92802,204.10292 c 0.005,-0.73961 0.24023,-1.46475 0.59149,-2.11564 0.35127,-0.65089 0.81568,-1.23375 1.3034,-1.78979 0.97543,-1.11207 2.07971,-2.17113 2.62848,-3.54482 0.41174,-1.03066 0.4778,-2.17401 0.35286,-3.27682 -0.12494,-1.1028 -0.43349,-2.1756 -0.7516,-3.2389 -0.3181,-1.0633 -0.64808,-2.12785 -0.81786,-3.22465 -0.16977,-1.0968 -0.17416,-2.23679 0.15228,-3.29756 0.5265,-1.71084 1.90209,-3.09169 3.53233,-3.83092 1.63025,-0.73923 3.49026,-0.8772 5.26086,-0.6142 3.54119,0.526 6.64669,2.54574 9.83245,4.17904 4.03039,2.06634 8.34507,3.56551 12.77185,4.52336 1.58478,0.34291 3.19083,0.61876 4.72307,1.14918 1.53225,0.53042 3.00876,1.33939 4.05759,2.57595 0.78877,0.92995 1.30793,2.07428 1.56235,3.26685 0.25443,1.19258 0.24977,2.43258 0.0616,3.6374 -0.37629,2.40962 -1.46546,4.64514 -2.63616,6.78461 -1.1707,2.13948 -2.44467,4.24295 -3.24393,6.54709 -0.79926,2.30414 -1.09315,4.87559 -0.26726,7.17032 0.51227,1.42336 1.42187,2.66195 2.18468,3.96828 0.3814,0.65317 0.72916,1.33 0.96857,2.04749 0.23941,0.71748 0.36853,1.47896 0.30579,2.23272 -0.10228,1.22876 -0.72362,2.39035 -1.63057,3.22568 -0.90695,0.83532 -2.0842,1.35257 -3.30173,1.54736 -1.21753,0.19479 -2.47363,0.0768 -3.66222,-0.25125 -1.18858,-0.32801 -2.31304,-0.86197 -3.37099,-1.49527 -2.11589,-1.26661 -3.96831,-2.92413 -5.99469,-4.32951 -2.02637,-1.40539 -4.32145,-2.58393 -6.78527,-2.68821 -1.45199,-0.0615 -2.89276,0.25353 -4.29723,0.62703 -1.40447,0.3735 -2.79955,0.80884 -4.24061,0.99698 -1.44106,0.18814 -2.95416,0.11489 -4.27358,-0.49437 -0.65971,-0.30463 -1.26219,-0.74208 -1.72745,-1.30024 -0.46527,-0.55816 -0.78991,-1.23887 -0.8938,-1.95805 -0.10395,-0.71958 0.013,-1.45753 0.23815,-2.14882 0.22519,-0.6913 0.55613,-1.34272 0.89089,-1.98812 0.33476,-0.6454 0.67584,-1.29058 0.92326,-1.97424 0.24742,-0.68366 0.39966,-1.41251 0.34242,-2.13731 -0.0671,-0.84915 -0.419,-1.65554 -0.88393,-2.36926 -0.46492,-0.71372 -1.04197,-1.34618 -1.60961,-1.98127 -0.56764,-0.63509 -1.13201,-1.28096 -1.56616,-2.01381 -0.43415,-0.73284 -0.73509,-1.56454 -0.72975,-2.41631 z"
       id="path4035" />
    <path
       style="fill:none;fill-opacity:1;stroke:#000000;stroke-width:0.264583;stroke-linecap:butt;stroke-linejoin:miter;stroke-dasharray:none;stroke-opacity:1;marker-start:none;marker-end:none"
       d="m 175.82853,188.67026 -3.45904,29.26884 24.21331,-13.30402 z"
       id="path4041"
       sodipodi:nodetypes="cccc" />
    <path
       id="path4043"
       style="opacity:0.99;vector-effect:none;fill-rule:evenodd;stroke-width:0.264567;stroke-linejoin:round;marker-start:none;marker-end:none;stop-color:#000000;stop-opacity:1"
       d="m 179.02346,202.3129 a 0.93128115,0.93128115 0 0 1 0.9882,-0.86892 0.93128115,0.93128115 0 0 1 0.87063,0.9867 0.93128115,0.93128115 0 0 1 -0.98519,0.87234 0.93128115,0.93128115 0 0 1 -0.87404,-0.98368" />
    <text
       xml:space="preserve"
       style="font-size:5.64444px;line-height:1.25;font-family:sans-serif;letter-spacing:0px;word-spacing:0px;stroke-width:0.264583"
       x="25.709436"
       y="242.40948"
       id="text4537"><tspan
         sodipodi:role="line"
         id="tspan4535"
         style="stroke-width:0.264583"
         x="25.709436"
         y="242.40948">\(H_n(\mathbb{R}^n, \mathbb{R}^n-x)\)</tspan></text>
    <text
       xml:space="preserve"
       style="font-size:5.64444px;line-height:1.25;font-family:sans-serif;letter-spacing:0px;word-spacing:0px;stroke-width:0.264583"
       x="168.58447"
       y="242.40948"
       id="text4723"><tspan
         sodipodi:role="line"
         id="tspan4721"
         style="stroke-width:0.264583"
         x="168.58447"
         y="242.40948">\(H_n(\mathbb{R}^n-x)\)</tspan></text>
    <text
       xml:space="preserve"
       style="font-size:5.64444px;line-height:1.25;font-family:sans-serif;letter-spacing:0px;word-spacing:0px;stroke-width:0.264583"
       x="48.030243"
       y="254.64917"
       id="text9273"><tspan
         sodipodi:role="line"
         id="tspan9271"
         style="stroke-width:0.264583"
         x="48.030243"
         y="254.64917">\(\Delta\)</tspan></text>
    <text
       xml:space="preserve"
       style="font-size:5.64444px;line-height:1.25;font-family:sans-serif;letter-spacing:0px;word-spacing:0px;stroke-width:0.264583"
       x="179.26355"
       y="254.64917"
       id="text13921"><tspan
         sodipodi:role="line"
         id="tspan13919"
         style="stroke-width:0.264583"
         x="179.26355"
         y="254.64917">\(\partial\Delta\)</tspan></text>
    <text
       xml:space="preserve"
       style="font-size:5.64444px;line-height:1.25;font-family:sans-serif;letter-spacing:0px;word-spacing:0px;stroke-width:0.264583"
       x="161.4104"
       y="263.4299"
       id="text16113"><tspan
         sodipodi:role="line"
         id="tspan16111"
         style="stroke-width:0.264583"
         x="161.4104"
         y="263.4299">an \(n-1\)-sphere around \(x\) in \(u\)</tspan></text>
    <text
       xml:space="preserve"
       style="font-size:5.64444px;line-height:1.25;font-family:sans-serif;letter-spacing:0px;word-spacing:0px;stroke-width:0.264583"
       x="182.74661"
       y="207.29588"
       id="text21157"><tspan
         sodipodi:role="line"
         id="tspan21155"
         style="stroke-width:0.264583"
         x="182.74661"
         y="207.29588">\(x\)</tspan></text>
    <path
       style="fill:none;fill-opacity:1;stroke:#000000;stroke-width:0.264583;stroke-linecap:butt;stroke-linejoin:miter;stroke-dasharray:none;stroke-opacity:1;marker-start:url(#StopL);marker-end:url(#marker-arrow-1)"
       d="M 91.431277,253.10926 H 145.1795"
       id="path21303" />
    <text
       xml:space="preserve"
       style="font-size:5.64444px;line-height:1.25;font-family:sans-serif;letter-spacing:0px;word-spacing:0px;stroke-width:0.264583"
       x="186.70808"
       y="182.76656"
       id="text21786"><tspan
         sodipodi:role="line"
         id="tspan21784"
         style="stroke-width:0.264583"
         x="186.70808"
         y="182.76656">\(u\)</tspan></text>
  </g>
</svg>
