<?xml version="1.0" encoding="UTF-8" standalone="no"?>
<!-- Created with Inkscape (http://www.inkscape.org/) -->

<svg
   width="240mm"
   height="40mm"
   viewBox="0 0 240 40"
   version="1.1"
   id="svg8"
   inkscape:version="1.1.1 (c3084ef, 2021-09-22)"
   sodipodi:docname="def:homotopy-of-paths.svg"
   xmlns:inkscape="http://www.inkscape.org/namespaces/inkscape"
   xmlns:sodipodi="http://sodipodi.sourceforge.net/DTD/sodipodi-0.dtd"
   xmlns="http://www.w3.org/2000/svg"
   xmlns:svg="http://www.w3.org/2000/svg"
   xmlns:rdf="http://www.w3.org/1999/02/22-rdf-syntax-ns#"
   xmlns:cc="http://creativecommons.org/ns#"
   xmlns:dc="http://purl.org/dc/elements/1.1/">
  <defs
     id="defs2">
    <inkscape:path-effect
       effect="spiro"
       id="path-effect12159"
       is_visible="true"
       lpeversion="1" />
    <inkscape:path-effect
       effect="spiro"
       id="path-effect12155"
       is_visible="true"
       lpeversion="1" />
    <inkscape:path-effect
       effect="spiro"
       id="path-effect11892"
       is_visible="true"
       lpeversion="1" />
    <inkscape:path-effect
       effect="spiro"
       id="path-effect1072"
       is_visible="true"
       lpeversion="1" />
    <inkscape:path-effect
       effect="spiro"
       id="path-effect1068"
       is_visible="true"
       lpeversion="1" />
    <inkscape:path-effect
       effect="spiro"
       id="path-effect1287"
       is_visible="true"
       lpeversion="1" />
    <inkscape:path-effect
       effect="spiro"
       id="path-effect1603"
       is_visible="true"
       lpeversion="1" />
    <inkscape:path-effect
       effect="spiro"
       id="path-effect1679"
       is_visible="true"
       lpeversion="1" />
    <inkscape:path-effect
       effect="spiro"
       id="path-effect2459"
       is_visible="true"
       lpeversion="1" />
    <inkscape:path-effect
       effect="spiro"
       id="path-effect3172"
       is_visible="true"
       lpeversion="1" />
    <inkscape:path-effect
       effect="spiro"
       id="path-effect4698"
       is_visible="true"
       lpeversion="1" />
    <inkscape:path-effect
       effect="spiro"
       id="path-effect1053"
       is_visible="true"
       lpeversion="1" />
  </defs>
  <sodipodi:namedview
     id="base"
     pagecolor="#ffffff"
     bordercolor="#666666"
     borderopacity="1.0"
     inkscape:pageopacity="0.0"
     inkscape:pageshadow="2"
     inkscape:zoom="1.0632614"
     inkscape:cx="365.85547"
     inkscape:cy="42.792864"
     inkscape:document-units="mm"
     inkscape:current-layer="layer1"
     showgrid="false"
     showborder="true"
     width="200mm"
     showguides="true"
     inkscape:guide-bbox="true"
     inkscape:window-width="1280"
     inkscape:window-height="680"
     inkscape:window-x="1728"
     inkscape:window-y="355"
     inkscape:window-maximized="0"
     inkscape:pagecheckerboard="0">
    <inkscape:grid
       type="xygrid"
       id="grid815"
       units="mm"
       spacingx="10"
       spacingy="10"
       empspacing="4"
       dotted="false" />
  </sodipodi:namedview>
  <metadata
     id="metadata5">
    <rdf:RDF>
      <cc:Work
         rdf:about="">
        <dc:format>image/svg+xml</dc:format>
        <dc:type
           rdf:resource="http://purl.org/dc/dcmitype/StillImage" />
      </cc:Work>
    </rdf:RDF>
  </metadata>
  <g
     inkscape:label="Layer 1"
     inkscape:groupmode="layer"
     id="layer1"
     transform="translate(0,-177)">
    <text
       xml:space="preserve"
       style="font-size:5.64444px;line-height:1.25;font-family:sans-serif;letter-spacing:0px;word-spacing:0px;stroke-width:0.264583"
       x="35.11063"
       y="198.63631"
       id="text1296"><tspan
         sodipodi:role="line"
         id="tspan1294"
         style="stroke-width:0.264583"
         x="35.11063"
         y="198.63631">\(\gamma_0(0)=\gamma_1(0)\)</tspan></text>
    <text
       xml:space="preserve"
       style="font-size:5.64444px;line-height:1.25;font-family:sans-serif;letter-spacing:0px;word-spacing:0px;stroke-width:0.264583"
       x="134.21977"
       y="212.58354"
       id="text3217"><tspan
         sodipodi:role="line"
         id="tspan3215"
         style="stroke-width:0.264583"
         x="134.21977"
         y="212.58354">\(\gamma_t\)</tspan></text>
    <text
       xml:space="preserve"
       style="font-size:5.64444px;line-height:1.25;font-family:sans-serif;letter-spacing:0px;word-spacing:0px;stroke-width:0.264583"
       x="165.28563"
       y="197.57799"
       id="text8271"><tspan
         sodipodi:role="line"
         id="tspan8269"
         style="stroke-width:0.264583"
         x="165.28563"
         y="197.57799">\(\gamma_0(1)=\gamma_1(1)\)</tspan></text>
    <path
       style="opacity:0.99;fill:#000000;fill-opacity:1;stroke:none;stroke-width:1.00157;stroke-linejoin:round;stroke-opacity:1;marker-start:none;marker-end:none"
       id="path10078"
       sodipodi:type="arc"
       sodipodi:cx="161.10378"
       sodipodi:cy="-197.39674"
       sodipodi:rx="0.73823762"
       sodipodi:ry="0.73823762"
       sodipodi:start="6.1848709"
       sodipodi:end="6.1778721"
       sodipodi:open="true"
       sodipodi:arc-type="arc"
       d="m 161.83845,-197.46921 a 0.73823762,0.73823762 0 0 1 -0.66093,0.80701 0.73823762,0.73823762 0 0 1 -0.80816,-0.65951 0.73823762,0.73823762 0 0 1 0.6581,-0.80932 0.73823762,0.73823762 0 0 1 0.81046,0.65668"
       transform="scale(1,-1)" />
    <path
       style="fill:none;fill-opacity:1;stroke:#000000;stroke-width:0.264583;stroke-linecap:butt;stroke-linejoin:miter;stroke-dasharray:none;stroke-opacity:1;marker-start:none;marker-end:none"
       d="m 69.882035,197.46133 c 0.273597,-3.68191 1.639157,-7.2759 3.879547,-10.21052 2.24039,-2.93461 5.347414,-5.19911 8.827038,-6.43342 4.728185,-1.67721 10.027079,-1.4213 14.761548,0.23809 2.195473,0.76949 4.281802,1.82681 6.480062,2.5883 2.19826,0.7615 4.57609,1.22261 6.85294,0.74495 2.80107,-0.58763 5.10078,-2.49905 7.47228,-4.10132 1.18575,-0.80114 2.42694,-1.54239 3.77964,-2.00933 1.3527,-0.46694 2.83157,-0.64831 4.22389,-0.31776 1.87922,0.44614 3.4427,1.78382 4.58967,3.33784 1.14696,1.55403 1.93962,3.33405 2.80824,5.05916 0.86861,1.72512 1.84528,3.43948 3.27007,4.74352 0.71239,0.65201 1.53339,1.19355 2.43724,1.53365 0.90386,0.34011 1.89255,0.47409 2.84677,0.32546 1.09436,-0.17046 2.10465,-0.70213 2.99856,-1.35605 0.89391,-0.65393 1.68808,-1.43209 2.5133,-2.1708 0.82522,-0.73872 1.69458,-1.44689 2.69177,-1.92885 0.9972,-0.48197 2.14102,-0.72547 3.22466,-0.49653 0.64339,0.13593 1.24699,0.43415 1.77327,0.82842 0.52629,0.39426 0.97728,0.88308 1.36476,1.41437 0.77497,1.0626 1.29466,2.28476 1.86184,3.47135 0.78014,1.63213 1.66127,3.21597 2.63667,4.73947"
       id="path1051"
       inkscape:original-d="m 69.882035,197.46133 c 4.235791,-5.54771 8.47132,-11.09569 12.706585,-16.64394 4.235265,-5.54824 9.841291,0.15899 14.761548,0.23809 4.920252,0.0791 8.888932,2.22243 13.333002,3.33325 4.44407,1.11082 10.31747,-4.28534 15.47581,-6.42841 5.15834,-2.14307 10.63492,10.00002 15.95199,14.99963 5.31706,4.99961 7.61912,-3.96789 11.42829,-5.95223 3.80916,-1.98435 3.33351,3.80969 4.99987,5.71414 1.66637,1.90445 1.75804,3.15991 2.63667,4.73947"
       inkscape:path-effect="#path-effect1053" />
    <path
       style="fill:none;fill-opacity:1;stroke:#000000;stroke-width:0.264583;stroke-linecap:butt;stroke-linejoin:miter;stroke-dasharray:0.396875, 0.396875;stroke-opacity:1;marker-start:none;marker-end:none"
       d="m 69.882561,197.4665 c 5.569859,-2.58393 11.831446,-3.65801 17.944026,-3.07801 4.113721,0.39033 8.118639,1.50764 12.176753,2.2866 2.58018,0.49527 5.31063,0.84358 7.78505,-0.0395 1.94035,-0.69248 3.54295,-2.08118 5.04529,-3.49095 1.50235,-1.40976 2.98465,-2.8928 4.81066,-3.84682 1.94077,-1.01398 4.24176,-1.36903 6.37184,-0.8616 1.67156,0.3982 3.18756,1.30041 4.52369,2.38089 1.88922,1.52774 3.45994,3.4189 5.35001,4.94558 0.94503,0.76335 1.97392,1.43599 3.10194,1.88694 1.12801,0.45096 2.36107,0.67424 3.56743,0.53116 1.67753,-0.19896 3.18693,-1.07779 4.63787,-1.94294 1.45093,-0.86515 2.95097,-1.75483 4.62523,-1.97963 1.88794,-0.25349 3.77342,0.3668 5.56681,1.00893 1.94226,0.69543 3.87158,1.42699 5.78664,2.19415"
       id="path1285"
       sodipodi:nodetypes="csssssssssc"
       inkscape:original-d="m 69.882561,197.4665 c 5.981608,-1.02574 11.962948,-2.05175 17.944026,-3.07801 5.981071,-1.02627 7.018401,0.30279 12.176753,2.2866 5.15834,1.98381 5.80123,-1.30902 7.78505,-0.0395 1.98381,1.26954 7.79277,-2.02017 9.85595,-7.33777 2.06318,-5.31759 3.51503,-0.9407 6.37184,-0.8616 2.8568,0.0791 3.01606,1.58753 4.52369,2.38089 1.50764,0.79337 10.27365,5.45923 12.01938,7.36368 1.74572,1.90445 4.34285,-4.08103 9.2631,-3.92257 4.92025,0.15846 3.34491,1.40601 5.56681,1.00893 2.22191,-0.39708 3.79693,1.64631 5.78664,2.19415"
       inkscape:path-effect="#path-effect1287" />
    <path
       style="fill:none;fill-opacity:1;stroke:#000000;stroke-width:0.264583;stroke-linecap:butt;stroke-linejoin:miter;stroke-dasharray:none;stroke-opacity:1;marker-start:none;marker-end:none"
       d="m 69.882561,197.4665 c 6.242272,2.84334 11.863307,7.04136 16.361756,12.21963 1.045183,1.20313 2.033048,2.46096 3.178879,3.56866 1.145832,1.10771 2.471882,2.07192 3.990422,2.55563 1.697143,0.5406 3.546941,0.44959 5.275375,0.0194 1.728437,-0.43019 3.356797,-1.18534 4.956367,-1.96886 1.59958,-0.78351 3.18967,-1.60276 4.87688,-2.17364 1.6872,-0.57087 3.49329,-0.88768 5.25609,-0.63259 2.51093,0.36335 4.70979,1.83719 7.11933,2.63149 1.20477,0.39715 2.49063,0.62416 3.74544,0.43804 0.62741,-0.0931 1.24185,-0.29004 1.79279,-0.6043 0.55095,-0.31425 1.03727,-0.74744 1.38971,-1.27478 0.50218,-0.75139 0.71637,-1.66504 0.76219,-2.56763 0.0458,-0.9026 -0.0669,-1.80472 -0.1688,-2.70271 -0.10191,-0.89799 -0.19326,-1.80452 -0.10484,-2.70394 0.0884,-0.89942 0.36913,-1.80101 0.93999,-2.50165 0.44225,-0.54279 1.04528,-0.94567 1.70261,-1.18674 0.65733,-0.24108 1.36743,-0.32392 2.06642,-0.28368 1.39797,0.0805 2.72472,0.64049 3.95637,1.3067 1.23165,0.66621 2.40301,1.44712 3.67706,2.02815 1.27406,0.58102 2.68804,0.95881 4.07335,0.75455 1.15854,-0.17082 2.22437,-0.73742 3.18125,-1.41254 0.95688,-0.67511 1.82793,-1.4645 2.77098,-2.1588 3.01007,-2.2161 6.75621,-3.41401 10.49362,-3.35557"
       id="path1601"
       sodipodi:nodetypes="csssssssc"
       inkscape:original-d="m 69.882561,197.4665 c 5.743517,7.54548 4.976763,6.19368 16.361756,12.21963 8.380501,4.4357 -0.211208,6.75946 7.169301,6.12429 7.380502,-0.63517 18.857082,-2.37452 20.364712,-4.75568 1.50764,-2.38116 9.36512,0.7939 14.04727,1.19045 4.68216,0.39655 0.95263,-6.98369 1.42854,-10.47593 0.47591,-3.49225 10.31747,1.74625 15.47581,2.61898 5.15834,0.87273 3.96842,-2.38063 5.95223,-3.57134 1.98382,-1.19071 6.99601,-2.23678 10.49362,-3.35557"
       inkscape:path-effect="#path-effect1603" />
    <path
       style="fill:none;fill-opacity:1;stroke:#000000;stroke-width:0.264583;stroke-linecap:butt;stroke-linejoin:miter;stroke-dasharray:0.396875, 0.396875;stroke-opacity:1;marker-start:none;marker-end:none"
       d="m 69.882561,197.4665 c 2.613978,-1.24798 5.594471,-1.71585 8.465108,-1.32882 2.870636,0.38703 5.620801,1.62753 7.810936,3.52322 1.650012,1.42818 2.965621,3.19499 4.447083,4.79734 1.481463,1.60234 3.20818,3.0866 5.3025,3.69985 1.759116,0.51509 3.641739,0.37549 5.452622,0.0917 1.81088,-0.28377 3.60973,-0.7079 5.44223,-0.74996 2.01144,-0.0462 4.00721,0.36968 6.01884,0.40642 1.00582,0.0184 2.0204,-0.0597 2.98857,-0.3329 0.96817,-0.27324 1.89105,-0.74899 2.60786,-1.45481 1.15167,-1.13401 1.67641,-2.74062 2.17515,-4.27802 0.24937,-0.76869 0.50296,-1.53885 0.85166,-2.26788 0.34871,-0.72903 0.79712,-1.41985 1.39167,-1.96721 0.9865,-0.9082 2.33004,-1.36919 3.66856,-1.4491 1.33852,-0.0799 2.67714,0.19775 3.9503,0.61856 2.24774,0.74292 4.3225,1.9251 6.5131,2.82264 2.19059,0.89753 4.5996,1.51325 6.91959,1.04217 2.35763,-0.47873 4.34446,-2.01302 6.55022,-2.97336 3.36753,-1.46615 7.31619,-1.54155 10.73724,-0.20503"
       id="path1677"
       sodipodi:nodetypes="cssssssssc"
       inkscape:original-d="m 69.882561,197.4665 c 5.426065,4.92649 9.776198,-1.18992 16.276044,2.1944 7.377723,3.84141 1.679989,6.91829 9.749583,8.49719 8.694592,1.70119 7.561862,0.21502 10.894852,-0.65824 3.33299,-0.87326 10.66318,1.87287 11.61527,-1.38129 0.95209,-3.25415 1.56167,-8.51284 4.41848,-8.51311 2.85681,-2.6e-4 5.0795,-0.83027 7.61886,-0.83054 2.53936,-2.6e-4 10.89333,2.99208 13.43269,3.86481 2.53935,0.87273 4.09023,-2.25882 6.55022,-2.97336 2.45999,-0.71453 6.60473,0.27885 10.73724,-0.20503"
       inkscape:path-effect="#path-effect1679" />
    <path
       style="fill:none;fill-opacity:1;stroke:#000000;stroke-width:0.264583;stroke-linecap:butt;stroke-linejoin:miter;stroke-dasharray:0.396875, 0.396875;stroke-opacity:1;marker-start:none;marker-end:none"
       d="m 69.882561,197.4665 c 2.097815,-3.61973 5.273605,-6.60563 9.015647,-8.47656 5.317547,-2.65865 11.705509,-2.99052 17.34454,-1.10742 1.77491,0.59271 3.4744,1.3914 5.237262,2.01903 1.76287,0.62763 3.62364,1.0864 5.49062,0.95985 2.20814,-0.14968 4.29111,-1.11129 6.13615,-2.33363 1.84505,-1.22234 3.49707,-2.70959 5.24509,-4.06707 0.91324,-0.70921 1.86159,-1.38831 2.915,-1.86507 1.05341,-0.47677 2.22546,-0.74414 3.37222,-0.59612 0.92109,0.11889 1.79768,0.50308 2.55322,1.04317 0.75555,0.54009 1.39396,1.23268 1.93199,1.98969 1.07606,1.51403 1.75048,3.26829 2.53012,4.95422 0.80435,1.73937 1.75343,3.45327 3.14754,4.76813 0.69706,0.65743 1.50192,1.20765 2.39037,1.56649 0.88844,0.35885 1.86217,0.52238 2.81461,0.41772 1.17122,-0.1287 2.26856,-0.65411 3.24,-1.32091 0.97145,-0.66681 1.83502,-1.47583 2.72414,-2.249 0.88913,-0.77316 1.81772,-1.51989 2.87763,-2.03458 1.05992,-0.51469 2.27095,-0.78569 3.42813,-0.56371 0.87928,0.16867 1.6863,0.61201 2.3988,1.15416 0.7125,0.54215 1.34162,1.18418 1.9837,1.80813 1.43166,1.39123 2.94021,2.70333 4.51646,3.92831"
       id="path2455"
       sodipodi:nodetypes="csssssssssc"
       inkscape:original-d="m 69.882561,197.4665 c 5.981608,-1.02574 -44.29727,-34.75713 9.015647,-8.47656 5.443081,2.68316 12.186198,-3.09123 17.34454,-1.10742 5.158342,1.98381 3.1582,-15.04827 10.727882,2.97888 0.91186,2.17158 9.31806,-1.0831 11.38124,-6.4007 2.06318,-5.31759 5.98076,-22.94311 6.28722,-2.46119 0.0428,2.85758 5.5077,7.19372 7.01533,7.98708 1.50764,0.79337 6.60679,4.84789 8.35252,6.75234 1.74572,1.90445 7.34965,-6.32666 12.2699,-6.1682 4.92025,0.15846 2.1606,3.35937 4.3825,2.96229 2.22191,-0.39708 2.52675,3.38047 4.51646,3.92831"
       inkscape:path-effect="#path-effect2459" />
    <path
       style="fill:none;fill-opacity:1;stroke:#000000;stroke-width:0.264583;stroke-linecap:butt;stroke-linejoin:miter;stroke-dasharray:0.396875, 0.396875;stroke-opacity:1;marker-start:none;marker-end:none"
       d="m 69.882561,197.4665 c 6.789845,0.68944 13.279074,4.00599 17.815213,9.10508 1.022101,1.14895 1.947983,2.38326 3.014128,3.49146 1.066145,1.1082 2.296954,2.10114 3.739896,2.63283 1.322747,0.4874 2.77125,0.56508 4.170749,0.3959 1.399493,-0.16918 2.759073,-0.57719 4.090913,-1.03916 2.66368,-0.92394 5.33906,-2.08754 8.15796,-2.03605 2.26221,0.0413 4.43038,0.8669 6.66383,1.22884 1.11672,0.18098 2.26476,0.24498 3.37654,0.0358 1.11178,-0.2092 2.18968,-0.70729 2.96871,-1.52762 0.61941,-0.65225 1.02791,-1.48083 1.30092,-2.33789 0.27301,-0.85706 0.41819,-1.7486 0.57082,-2.63505 0.15264,-0.88644 0.31491,-1.77636 0.61995,-2.62256 0.30504,-0.84619 0.76183,-1.65365 1.42849,-2.25752 0.54445,-0.49317 1.2164,-0.83734 1.92526,-1.03012 0.70886,-0.19278 1.454,-0.23692 2.18552,-0.16971 1.46305,0.13443 2.85091,0.70422 4.16348,1.36434 1.31256,0.66012 2.57891,1.41835 3.93943,1.97293 1.36053,0.55458 2.84655,0.90168 4.30031,0.68918 1.46409,-0.21401 2.79008,-0.97692 3.99423,-1.8368 1.20414,-0.85988 2.33253,-1.83424 3.61909,-2.56509 2.77416,-1.57591 6.22975,-1.89873 9.2478,-0.86393"
       id="path3168"
       sodipodi:nodetypes="csssssssc"
       inkscape:original-d="m 69.882561,197.4665 c 5.743517,7.54548 6.43022,3.07913 17.815213,9.10508 8.380494,4.4357 -0.626481,6.75946 6.754024,6.12429 7.380502,-0.63517 14.911992,-0.29815 16.419622,-2.67931 1.50764,-2.38116 8.32693,-0.65956 13.00908,-0.26301 4.68216,0.39655 3.44427,-6.36078 3.92018,-9.85302 0.47591,-3.49225 11.35566,1.95389 16.514,2.82662 5.15834,0.87273 5.62951,-3.21118 7.61332,-4.40189 1.98382,-1.19071 5.75019,0.25486 9.2478,-0.86393"
       inkscape:path-effect="#path-effect3172" />
    <path
       style="fill:none;fill-opacity:1;stroke:#000000;stroke-width:0.264583;stroke-linecap:butt;stroke-linejoin:miter;stroke-dasharray:0.396875, 0.396875;stroke-opacity:1;marker-start:none;marker-end:none"
       d="m 69.882561,197.4665 c 5.383297,-1.91703 11.390332,-2.03428 16.844338,-0.32879 4.152984,1.29865 7.957172,3.60674 12.176749,4.66926 3.519862,0.88633 7.314552,0.8567 10.717552,-0.40607 3.14058,-1.16539 5.84084,-3.33007 8.02314,-5.87152 0.62526,-0.72816 1.21439,-1.49127 1.91009,-2.15246 0.69571,-0.66119 1.51488,-1.22424 2.44566,-1.45836 1.23088,-0.30961 2.54727,-0.0147 3.69489,0.52742 1.14763,0.5421 2.16469,1.31898 3.21145,2.03676 2.2923,1.57188 4.77888,2.8869 7.43735,3.69805 2.28336,0.6967 4.73763,1.0132 7.06373,0.47618 1.9354,-0.44682 3.68946,-1.458 5.56681,-2.10685 3.96343,-1.36984 8.48547,-1.03214 12.20148,0.91118"
       id="path4694"
       sodipodi:nodetypes="csssssssssc"
       inkscape:original-d="m 69.882561,197.4665 c 5.981608,-1.02574 10.86326,0.69747 16.844338,-0.32879 5.981075,-1.02627 7.018399,2.68545 12.176749,4.66926 5.158342,1.98381 8.733732,-1.67559 10.717552,-0.40607 1.98381,1.26954 5.95996,-0.55392 8.02314,-5.87152 2.06318,-5.31759 1.49894,-3.68992 4.35575,-3.61082 2.8568,0.0791 5.39871,1.77082 6.90634,2.56418 1.50764,0.79337 5.69162,1.7936 7.43735,3.69805 1.74572,1.90445 2.14348,0.31772 7.06373,0.47618 4.92025,0.15846 3.34491,-1.70977 5.56681,-2.10685 2.22191,-0.39708 10.21177,0.36334 12.20148,0.91118"
       inkscape:path-effect="#path-effect4698" />
    <path
       style="opacity:0.99;fill:#000000;fill-opacity:1;stroke:none;stroke-width:1.00157;stroke-linejoin:round;stroke-opacity:1;marker-start:none;marker-end:none"
       id="path10078-6"
       sodipodi:type="arc"
       sodipodi:cx="69.888954"
       sodipodi:cy="-197.42145"
       sodipodi:rx="0.73823762"
       sodipodi:ry="0.73823762"
       sodipodi:start="6.1848709"
       sodipodi:end="6.1778721"
       sodipodi:open="true"
       sodipodi:arc-type="arc"
       transform="scale(1,-1)"
       d="m 70.623627,-197.49391 a 0.73823762,0.73823762 0 0 1 -0.660925,0.80701 0.73823762,0.73823762 0 0 1 -0.808162,-0.65951 0.73823762,0.73823762 0 0 1 0.658096,-0.80932 0.73823762,0.73823762 0 0 1 0.810466,0.65668" />
  </g>
</svg>
