<?xml version="1.0" encoding="UTF-8" standalone="no"?>
<!-- Created with Inkscape (http://www.inkscape.org/) -->

<svg
   width="240mm"
   height="45mm"
   viewBox="0 0 240 45"
   version="1.1"
   id="svg8"
   inkscape:version="1.1.1 (c3084ef, 2021-09-22)"
   sodipodi:docname="def:homotopy.svg"
   xmlns:inkscape="http://www.inkscape.org/namespaces/inkscape"
   xmlns:sodipodi="http://sodipodi.sourceforge.net/DTD/sodipodi-0.dtd"
   xmlns="http://www.w3.org/2000/svg"
   xmlns:svg="http://www.w3.org/2000/svg"
   xmlns:rdf="http://www.w3.org/1999/02/22-rdf-syntax-ns#"
   xmlns:cc="http://creativecommons.org/ns#"
   xmlns:dc="http://purl.org/dc/elements/1.1/">
  <defs
     id="defs2">
    <inkscape:path-effect
       effect="bspline"
       id="path-effect5491"
       is_visible="true"
       lpeversion="1"
       weight="33.333333"
       steps="2"
       helper_size="0"
       apply_no_weight="true"
       apply_with_weight="true"
       only_selected="false" />
    <inkscape:path-effect
       effect="bspline"
       id="path-effect4521"
       is_visible="true"
       lpeversion="1"
       weight="33.333333"
       steps="2"
       helper_size="0"
       apply_no_weight="true"
       apply_with_weight="true"
       only_selected="false" />
    <inkscape:path-effect
       effect="bspline"
       id="path-effect4515"
       is_visible="true"
       lpeversion="1"
       weight="33.333333"
       steps="2"
       helper_size="0"
       apply_no_weight="true"
       apply_with_weight="true"
       only_selected="false" />
    <inkscape:path-effect
       effect="bspline"
       id="path-effect4296"
       is_visible="true"
       lpeversion="1"
       weight="33.333333"
       steps="2"
       helper_size="0"
       apply_no_weight="true"
       apply_with_weight="true"
       only_selected="false" />
    <inkscape:path-effect
       effect="bspline"
       id="path-effect4040"
       is_visible="true"
       lpeversion="1"
       weight="33.333333"
       steps="2"
       helper_size="0"
       apply_no_weight="true"
       apply_with_weight="true"
       only_selected="false" />
    <inkscape:path-effect
       effect="bspline"
       id="path-effect3707"
       is_visible="true"
       lpeversion="1"
       weight="33.333333"
       steps="2"
       helper_size="0"
       apply_no_weight="true"
       apply_with_weight="true"
       only_selected="false" />
    <inkscape:path-effect
       effect="bspline"
       id="path-effect3451"
       is_visible="true"
       lpeversion="1"
       weight="33.333333"
       steps="2"
       helper_size="0"
       apply_no_weight="true"
       apply_with_weight="true"
       only_selected="false" />
    <inkscape:path-effect
       effect="bspline"
       id="path-effect3332"
       is_visible="true"
       lpeversion="1"
       weight="33.333333"
       steps="2"
       helper_size="0"
       apply_no_weight="true"
       apply_with_weight="true"
       only_selected="false" />
    <inkscape:path-effect
       effect="bspline"
       id="path-effect2725"
       is_visible="true"
       lpeversion="1"
       weight="33.333333"
       steps="2"
       helper_size="0"
       apply_no_weight="true"
       apply_with_weight="true"
       only_selected="false" />
    <inkscape:path-effect
       effect="bspline"
       id="path-effect6106"
       is_visible="true"
       lpeversion="1"
       weight="33.333333"
       steps="2"
       helper_size="0"
       apply_no_weight="true"
       apply_with_weight="true"
       only_selected="false" />
    <inkscape:path-effect
       effect="bspline"
       id="path-effect5928"
       is_visible="true"
       lpeversion="1"
       weight="33.333333"
       steps="2"
       helper_size="0"
       apply_no_weight="true"
       apply_with_weight="true"
       only_selected="false" />
    <inkscape:path-effect
       effect="bspline"
       id="path-effect5811"
       is_visible="true"
       lpeversion="1"
       weight="33.333333"
       steps="2"
       helper_size="0"
       apply_no_weight="true"
       apply_with_weight="true"
       only_selected="false" />
    <inkscape:path-effect
       effect="bspline"
       id="path-effect5546"
       is_visible="true"
       lpeversion="1"
       weight="33.333333"
       steps="2"
       helper_size="0"
       apply_no_weight="true"
       apply_with_weight="true"
       only_selected="false" />
    <inkscape:path-effect
       effect="bspline"
       id="path-effect1348"
       is_visible="true"
       lpeversion="1"
       weight="33.333333"
       steps="2"
       helper_size="0"
       apply_no_weight="true"
       apply_with_weight="true"
       only_selected="false" />
    <inkscape:path-effect
       effect="bspline"
       id="path-effect1335"
       is_visible="true"
       lpeversion="1"
       weight="33.333333"
       steps="2"
       helper_size="0"
       apply_no_weight="true"
       apply_with_weight="true"
       only_selected="false" />
    <inkscape:path-effect
       effect="bspline"
       id="path-effect1322"
       is_visible="true"
       lpeversion="1"
       weight="33.333333"
       steps="2"
       helper_size="0"
       apply_no_weight="true"
       apply_with_weight="true"
       only_selected="false" />
    <inkscape:path-effect
       effect="bspline"
       id="path-effect1309"
       is_visible="true"
       lpeversion="1"
       weight="33.333333"
       steps="2"
       helper_size="0"
       apply_no_weight="true"
       apply_with_weight="true"
       only_selected="false" />
    <inkscape:path-effect
       effect="bspline"
       id="path-effect1296"
       is_visible="true"
       lpeversion="1"
       weight="33.333333"
       steps="2"
       helper_size="0"
       apply_no_weight="true"
       apply_with_weight="true"
       only_selected="false" />
    <inkscape:path-effect
       effect="bspline"
       id="path-effect1149"
       is_visible="true"
       lpeversion="1"
       weight="33.333333"
       steps="2"
       helper_size="0"
       apply_no_weight="true"
       apply_with_weight="true"
       only_selected="false" />
    <inkscape:path-effect
       effect="bspline"
       id="path-effect1109"
       is_visible="true"
       lpeversion="1"
       weight="33.333333"
       steps="2"
       helper_size="0"
       apply_no_weight="true"
       apply_with_weight="true"
       only_selected="false" />
    <marker
       id="marker-arrow-1.0"
       orient="auto-start-reverse"
       refY="0"
       refX="0"
       markerHeight="3"
       markerWidth="2">
      <g
         transform="scale(1.3933333)"
         id="g5121"><path
   d="M -1.55415,2.0722 C -1.42464,1.29512 0,0.1295 0.38852,0 0,-0.1295 -1.42464,-1.29512 -1.55415,-2.0722"
   style="fill:none;stroke:#000000;stroke-linecap:round;stroke-linejoin:round;stroke-miterlimit:10;stroke-dasharray:none;stroke-opacity:1"
   id="path5119" />
0&quot; /&gt;
   </g>
    </marker>
  </defs>
  <sodipodi:namedview
     id="base"
     pagecolor="#ffffff"
     bordercolor="#666666"
     borderopacity="1.0"
     inkscape:pageopacity="0.0"
     inkscape:pageshadow="2"
     inkscape:zoom="0.58555473"
     inkscape:cx="494.40297"
     inkscape:cy="56.356815"
     inkscape:document-units="mm"
     inkscape:current-layer="layer1"
     showgrid="false"
     showborder="true"
     width="200mm"
     showguides="true"
     inkscape:guide-bbox="true"
     inkscape:window-width="1280"
     inkscape:window-height="680"
     inkscape:window-x="1728"
     inkscape:window-y="25"
     inkscape:window-maximized="0"
     inkscape:pagecheckerboard="0"
     height="50mm">
    <inkscape:grid
       type="xygrid"
       id="grid815"
       units="mm"
       spacingx="10"
       spacingy="10"
       empspacing="4"
       dotted="false" />
  </sodipodi:namedview>
  <metadata
     id="metadata5">
    <rdf:RDF>
      <cc:Work
         rdf:about="">
        <dc:format>image/svg+xml</dc:format>
        <dc:type
           rdf:resource="http://purl.org/dc/dcmitype/StillImage" />
      </cc:Work>
    </rdf:RDF>
  </metadata>
  <g
     inkscape:label="Layer 1"
     inkscape:groupmode="layer"
     id="layer1"
     transform="translate(0,-177)">
    <path
       style="fill:none;fill-opacity:1;stroke:#000000;stroke-width:0.264583;stroke-linecap:butt;stroke-linejoin:miter;stroke-dasharray:none;stroke-opacity:1;marker-start:none;marker-end:none"
       d="M 73.732255,178.4233 49.111302,221.06804"
       id="path924" />
    <path
       style="fill:none;fill-opacity:1;stroke:#000000;stroke-width:0.264583;stroke-linecap:butt;stroke-linejoin:miter;stroke-dasharray:none;stroke-opacity:1;marker-start:none;marker-end:none"
       d="m 182.96675,178.4233 -24.62096,42.64474"
       id="path924-9" />
    <path
       style="fill:none;stroke:#000000;stroke-width:0.264583px;stroke-linecap:butt;stroke-linejoin:miter;stroke-opacity:1"
       d="M 49.111302,221.06804 Z"
       id="path926" />
    <path
       style="fill:none;fill-opacity:1;stroke:#000000;stroke-width:0.264583;stroke-linecap:butt;stroke-linejoin:miter;stroke-dasharray:none;stroke-opacity:1;marker-start:none;marker-end:none"
       d="M 49.111302,221.06804 H 158.3458"
       id="path928" />
    <path
       style="fill:none;fill-opacity:1;stroke:#000000;stroke-width:0.264583;stroke-linecap:butt;stroke-linejoin:miter;stroke-dasharray:none;stroke-opacity:1;marker-start:none;marker-end:none"
       d="M 73.732255,178.4233 H 182.96675"
       id="path928-9" />
    <path
       style="fill:none;fill-opacity:1;stroke:#000000;stroke-width:0.264583;stroke-linecap:butt;stroke-linejoin:miter;stroke-dasharray:none;stroke-opacity:1;marker-start:none;marker-end:none"
       d="m 92.239956,184.45105 c 3.243619,-1.04633 6.485611,-2.09213 8.551584,-2.61477 2.06598,-0.52264 2.95491,-0.52264 3.81795,-0.28645 0.86303,0.23619 1.69968,0.7068 2.66653,1.72708 0.96686,1.02029 2.06495,2.58899 2.79701,3.6348 0.73207,1.0458 1.0981,1.5687 2.32725,1.88101 1.22915,0.3123 3.32076,0.41688 6.11733,-0.52466 2.79657,-0.94154 6.30002,-2.92857 8.46991,-4.20963 2.16989,-1.28106 3.00653,-1.85624 4.49764,-2.30068 1.4911,-0.44444 3.63499,-0.75818 5.38703,-0.33849 1.75204,0.41969 3.11158,1.57007 3.97418,2.35463 0.86259,0.78455 1.22863,1.20287 1.77804,1.54192 0.54941,0.33905 1.28147,0.6005 2.87541,0.23363 1.59394,-0.36687 4.05158,-1.36039 6.50786,-2.35335"
       id="path1107"
       inkscape:original-d="m 92.239956,184.45105 c 3.244641,-1.04316 6.486634,-2.08896 9.725984,-3.13741 0.89158,0.003 1.78051,0.003 2.6668,0 0.83929,0.47325 1.67593,0.94387 2.50993,1.41183 1.10074,1.57136 2.19883,3.14006 3.29428,4.70612 0.36868,0.52555 0.73471,1.04845 1.0981,1.56871 2.09425,0.10723 4.18586,0.21181 6.27482,0.31374 3.50609,-1.98438 7.00954,-3.97141 10.51034,-5.96109 0.83929,-0.57254 1.67593,-1.14773 2.50993,-1.72557 2.14655,-0.3111 4.29044,-0.62484 6.4317,-0.94123 1.36219,1.15304 2.72173,2.30342 4.07863,3.45116 0.36868,0.42097 0.73471,0.83929 1.0981,1.25496 0.73471,0.2641 1.46677,0.52555 2.19619,0.78436 2.46029,-0.99087 4.91793,-1.98439 7.37292,-2.98054"
       inkscape:path-effect="#path-effect1109" />
    <path
       style="fill:none;fill-opacity:1;stroke:#000000;stroke-width:0.264583;stroke-linecap:butt;stroke-linejoin:miter;stroke-miterlimit:4;stroke-dasharray:0.396875, 0.396875;stroke-dashoffset:0;stroke-opacity:1;marker-start:none;marker-end:none"
       d="m 90.547702,187.55975 c 3.269716,-1.05474 6.537792,-2.10896 8.620395,-2.63581 2.082603,-0.52684 2.978683,-0.52684 3.848663,-0.28875 0.86999,0.23809 1.71336,0.71248 2.688,1.74098 0.97463,1.0285 2.08155,2.60982 2.81951,3.66404 0.73795,1.05422 1.10693,1.58133 2.34597,1.89614 1.23904,0.31482 3.34748,0.42024 6.16655,-0.52888 2.81907,-0.94911 6.3507,-2.95213 8.53806,-4.24349 2.18735,-1.29137 3.03072,-1.87119 4.53382,-2.3192 1.50309,-0.44801 3.66423,-0.76428 5.43037,-0.34121 1.76615,0.42307 3.13662,1.5827 4.00616,2.37357 0.86954,0.79087 1.23851,1.21256 1.79234,1.55433 0.55383,0.34178 1.29178,0.60534 2.89855,0.23551 1.60677,-0.36982 4.08418,-1.37133 6.56022,-2.37228"
       id="path1107-70"
       inkscape:original-d="m 90.547702,187.55975 c 3.270746,-1.05155 6.538824,-2.10576 9.804238,-3.16265 0.89876,0.003 1.79484,0.003 2.68826,0 0.84605,0.47706 1.68942,0.95146 2.53013,1.42319 1.1096,1.584 2.21652,3.16532 3.32078,4.74398 0.37165,0.52978 0.74063,1.05689 1.10694,1.58134 2.1111,0.10809 4.21954,0.21351 6.3253,0.31626 3.5343,-2.00035 7.06594,-4.00336 10.59491,-6.00905 0.84604,-0.57715 1.68941,-1.15697 2.53012,-1.73946 2.16382,-0.3136 4.32496,-0.62986 6.48345,-0.9488 1.37315,1.16232 2.74363,2.32195 4.11145,3.47893 0.37164,0.42436 0.74062,0.84604 1.10693,1.26506 0.74062,0.26622 1.47857,0.52977 2.21386,0.79067 2.48009,-0.99885 4.9575,-2.00036 7.43224,-3.00452"
       inkscape:path-effect="#path-effect1335" />
    <text
       xml:space="preserve"
       style="font-size:5.64444px;line-height:1.25;font-family:sans-serif;letter-spacing:0px;word-spacing:0px;stroke-width:0.264583"
       x="153.38145"
       y="184.90216"
       id="text1987"><tspan
         sodipodi:role="line"
         id="tspan1985"
         style="stroke-width:0.264583"
         x="153.38145"
         y="184.90216">\(f\)</tspan></text>
    <text
       xml:space="preserve"
       style="font-size:5.64444px;line-height:1.25;font-family:sans-serif;letter-spacing:0px;word-spacing:0px;stroke-width:0.264583"
       x="143.45679"
       y="215.03709"
       id="text2893"><tspan
         sodipodi:role="line"
         id="tspan2891"
         style="stroke-width:0.264583"
         x="143.45679"
         y="215.03709">\(g\)</tspan></text>
    <text
       xml:space="preserve"
       style="font-size:5.64444px;line-height:1.25;font-family:sans-serif;letter-spacing:0px;word-spacing:0px;stroke-width:0.264583"
       x="72.75901"
       y="201.09741"
       id="text5055"><tspan
         sodipodi:role="line"
         id="tspan5053"
         style="stroke-width:0.264583"
         x="72.75901"
         y="201.09741">\(F_t\)</tspan></text>
    <path
       style="fill:none;fill-opacity:1;stroke:#000000;stroke-width:0.264583;stroke-linecap:butt;stroke-linejoin:miter;stroke-dasharray:none;stroke-opacity:1;marker-start:none;marker-end:none"
       d="m 82.951153,214.09595 c 1.374669,-0.0687 2.746831,-0.13735 6.005936,0.17165 3.259104,0.309 8.404712,0.99508 14.476591,2.05863 6.07187,1.06354 13.06989,2.50431 17.08273,3.0526 4.01284,0.54828 5.04197,0.20524 7.20316,-0.48084 2.16119,-0.68607 5.45437,-1.71519 7.64994,-2.36694 2.19556,-0.65176 3.29329,-0.92619 4.08223,-1.13203 0.78893,-0.20584 1.26919,-0.34305 1.7477,-0.47977"
       id="path5544"
       inkscape:original-d="m 82.951153,214.09595 c 1.374806,-0.066 2.74697,-0.13457 4.116485,-0.20583 5.148255,0.68873 10.293863,1.37481 15.436822,2.05825 7.00068,1.44341 13.9987,2.88418 20.99409,4.32231 1.03176,-0.3404 2.06089,-0.68344 3.08736,-1.02912 3.29584,-1.02648 6.58902,-2.0556 9.87957,-3.08737 1.10037,-0.27178 2.1981,-0.54622 3.29319,-0.82329 0.4829,-0.13458 0.96316,-0.27179 1.44077,-0.41165"
       inkscape:path-effect="#path-effect5546" />
    <path
       style="fill:none;fill-opacity:1;stroke:#000000;stroke-width:0.264583;stroke-linecap:butt;stroke-linejoin:miter;stroke-miterlimit:4;stroke-dasharray:0.396875, 0.396875;stroke-dashoffset:0;stroke-opacity:1;marker-start:none;marker-end:none"
       d="m 90.547702,189.6764 c 3.212839,-0.75609 6.414993,-1.50967 8.754157,-1.25827 2.339161,0.2514 3.776321,1.49751 5.420151,2.64577 1.64383,1.14826 3.45318,2.1695 5.42022,2.73671 1.96705,0.56721 4.07549,0.67263 6.59411,0.22432 2.51862,-0.44831 5.447,-1.44911 8.11583,-2.54883 2.66882,-1.09973 5.06652,-2.29325 7.55924,-2.66281 2.49272,-0.36956 5.06487,0.0891 6.5341,0.53024 1.46923,0.44113 1.8382,0.86282 2.39203,1.20459 0.55383,0.34178 1.29178,0.60534 2.89855,0.23551 1.60677,-0.36982 4.08418,-1.37133 6.56022,-2.37228"
       id="path2721"
       sodipodi:nodetypes="ccccccccccc"
       inkscape:original-d="m 90.547702,189.6764 c 0,0 6.415067,-1.50935 9.638518,-2.26827 1.45479,1.26142 2.89194,2.50753 4.34883,3.7707 1.83074,1.03342 3.64009,2.05466 5.463,3.08343 2.1111,0.10809 4.21954,0.21351 6.3253,0.31626 2.93172,-1.00158 5.8601,-2.00238 8.7924,-3.00487 2.4054,-1.19696 4.8031,-2.39048 7.21106,-3.58951 2.57728,0.4598 5.14943,0.91846 7.71647,1.376 0.37164,0.42436 0.74062,0.84604 1.10693,1.26506 0.74062,0.26622 1.47857,0.52977 2.21386,0.79067 2.48009,-0.99885 4.9575,-2.00036 7.43224,-3.00452"
       inkscape:path-effect="#path-effect2725" />
    <path
       style="fill:none;fill-opacity:1;stroke:#000000;stroke-width:0.264583;stroke-linecap:butt;stroke-linejoin:miter;stroke-miterlimit:4;stroke-dasharray:0.396875, 0.396875;stroke-dashoffset:0;stroke-opacity:1;marker-start:none;marker-end:none"
       d="m 90.018535,193.38059 c 3.212839,-0.75609 6.414993,-1.50967 8.754156,-1.25827 2.339159,0.2514 3.776319,1.49751 5.420149,2.64577 1.64383,1.14826 3.45318,2.1695 5.42022,2.73671 1.96705,0.56721 4.07549,0.67263 6.59411,0.22432 2.51862,-0.44831 5.447,-1.44911 8.11583,-2.54883 2.66882,-1.09973 5.06652,-2.29325 7.55924,-2.66281 2.49272,-0.36956 5.06487,0.0891 6.5341,0.53024 1.46923,0.44113 1.8382,0.86282 2.39203,1.20459 0.55383,0.34178 1.29178,0.60534 2.89855,0.23551 1.60677,-0.36982 4.08418,-1.37133 6.56022,-2.37228"
       id="path3328"
       sodipodi:nodetypes="ccccccccccc"
       inkscape:original-d="m 90.018535,193.38059 c 0,0 6.415067,-1.50935 9.638517,-2.26827 1.454788,1.26142 2.891938,2.50753 4.348828,3.7707 1.83074,1.03342 3.64009,2.05466 5.463,3.08343 2.1111,0.10809 4.21954,0.21351 6.3253,0.31626 2.93172,-1.00158 5.8601,-2.00238 8.7924,-3.00487 2.4054,-1.19696 4.8031,-2.39048 7.21106,-3.58951 2.57728,0.4598 5.14943,0.91846 7.71647,1.376 0.37164,0.42436 0.74062,0.84604 1.10693,1.26506 0.74062,0.26622 1.47857,0.52977 2.21386,0.79067 2.48009,-0.99885 4.9575,-2.00036 7.43224,-3.00452"
       inkscape:path-effect="#path-effect3332" />
    <path
       style="fill:none;fill-opacity:1;stroke:#000000;stroke-width:0.264583;stroke-linecap:butt;stroke-linejoin:miter;stroke-miterlimit:4;stroke-dasharray:0.396875, 0.396875;stroke-dashoffset:0;stroke-opacity:1;marker-start:none;marker-end:none"
       d="m 90.018535,196.55558 c 3.06263,-0.005 6.115148,-0.01 8.429176,0.39201 2.314029,0.40206 3.850459,1.2014 5.569769,1.9722 1.71932,0.7708 3.57841,1.49354 5.57052,1.91039 1.99211,0.41685 4.10055,0.52227 6.61917,0.074 2.51862,-0.44831 5.447,-1.44911 8.01568,-2.14803 2.56868,-0.69892 4.7666,-1.09332 6.63218,-1.31243 1.86559,-0.21911 3.37421,-0.2608 4.95444,-0.22093 1.58023,0.0399 3.18479,0.15994 4.36876,0.35315 1.18397,0.19321 1.92192,0.45677 3.52869,0.0869 1.60677,-0.36982 4.08418,-1.37133 6.56022,-2.37228"
       id="path3447"
       sodipodi:nodetypes="ccccccccccc"
       inkscape:original-d="m 90.018535,196.55558 c 0,0 6.115148,-0.01 9.18789,-0.0151 1.555265,0.80926 3.091695,1.60861 4.649245,2.41881 1.88107,0.73145 3.74017,1.45418 5.61321,2.18218 2.1111,0.10809 4.21954,0.21351 6.3253,0.31626 2.93172,-1.00158 5.8601,-2.00238 8.7924,-3.00487 2.205,-0.39536 4.40292,-0.78977 6.61022,-1.18617 1.52383,-0.0418 3.03245,-0.0835 4.56208,-0.12609 1.6308,0.12227 3.23536,0.24233 4.86216,0.36381 0.74062,0.26622 1.47857,0.52977 2.21386,0.79067 2.48009,-0.99885 4.9575,-2.00036 7.43224,-3.00452"
       inkscape:path-effect="#path-effect3451" />
    <path
       style="fill:none;fill-opacity:1;stroke:#000000;stroke-width:0.264583;stroke-linecap:butt;stroke-linejoin:miter;stroke-miterlimit:4;stroke-dasharray:0.396875, 0.396875;stroke-dashoffset:0;stroke-opacity:1;marker-start:none;marker-end:none"
       d="m 87.980407,200.18807 c 3.06263,-0.005 6.115148,-0.0101 8.429174,0.39201 2.314027,0.40206 3.850449,1.2014 5.569769,1.9722 1.71931,0.7708 3.5784,1.49354 5.57051,1.91039 1.99211,0.41685 4.10055,0.52227 6.61921,0.44958 2.51867,-0.0727 5.44705,-0.32305 7.8403,-0.79655 2.39325,-0.47349 4.24155,-1.16757 6.00684,-1.56225 1.76529,-0.39468 3.42292,-0.48605 4.95278,-0.49655 1.52986,-0.0105 2.88656,0.06 4.17104,0.0521 1.28447,-0.008 2.4678,-0.0944 4.30166,-0.63896 1.83386,-0.54451 4.31127,-1.54602 6.78731,-2.54697"
       id="path3703"
       sodipodi:nodetypes="ccccccccccc"
       inkscape:original-d="m 87.980407,200.18807 c 0,0 6.115148,-0.01 9.18789,-0.0151 1.555262,0.80926 3.091683,1.60861 4.649233,2.41881 1.88107,0.73145 3.74017,1.45418 5.61321,2.18218 2.1111,0.10809 4.21954,0.21351 6.3253,0.31626 2.93172,-0.25037 5.8601,-0.50074 8.7924,-0.75173 1.8543,-0.69597 3.7026,-1.39004 5.55876,-2.08743 1.67432,-0.092 3.33195,-0.18338 5.0127,-0.2763 1.37894,0.0719 2.73564,0.14239 4.11112,0.2136 1.1935,-0.087 2.37683,-0.17355 3.56574,-0.26079 2.48009,-0.99885 4.9575,-2.00036 7.43224,-3.00452"
       inkscape:path-effect="#path-effect3707" />
    <path
       style="fill:none;fill-opacity:1;stroke:#000000;stroke-width:0.264583;stroke-linecap:butt;stroke-linejoin:miter;stroke-miterlimit:4;stroke-dasharray:0.396875, 0.396875;stroke-dashoffset:0;stroke-opacity:1;marker-start:none;marker-end:none"
       d="m 86.392906,203.89223 c 2.912421,0.44559 5.815272,0.88972 8.129278,1.29171 2.314005,0.40198 3.999347,0.75457 5.794156,1.29894 1.79481,0.54436 3.6539,1.2671 5.64601,1.68395 1.99211,0.41685 4.10055,0.52227 6.61921,0.44958 2.51867,-0.0727 5.44705,-0.32305 7.86538,-0.62119 2.41834,-0.29814 4.31658,-0.6426 6.08183,-0.91188 1.76526,-0.26929 3.3732,-0.46 4.87786,-0.64682 1.50466,-0.18681 2.86136,-0.36418 4.14586,-0.49773 1.2845,-0.13356 2.46783,-0.2201 4.30169,-0.76461 1.83386,-0.54451 4.31127,-1.54602 6.78731,-2.54697"
       id="path4036"
       sodipodi:nodetypes="ccccccccccc"
       inkscape:original-d="m 86.392906,203.89223 c 0,0 5.815239,0.88994 8.737263,1.33678 1.705979,0.35711 3.39132,0.7097 5.099851,1.06693 1.88107,0.73145 3.74017,1.45418 5.61321,2.18218 2.1111,0.10809 4.21954,0.21351 6.3253,0.31626 2.93172,-0.25037 5.8601,-0.50074 8.7924,-0.75173 1.9044,-0.34527 3.80264,-0.68973 5.70897,-1.03597 1.62416,-0.19234 3.2321,-0.38305 4.86249,-0.57671 1.37894,-0.17997 2.73564,-0.35733 4.11112,-0.53745 1.1935,-0.087 2.37683,-0.17355 3.56574,-0.26079 2.48009,-0.99885 4.9575,-2.00036 7.43224,-3.00452"
       inkscape:path-effect="#path-effect4040" />
    <path
       style="fill:none;fill-opacity:1;stroke:#000000;stroke-width:0.264583;stroke-linecap:butt;stroke-linejoin:miter;stroke-miterlimit:4;stroke-dasharray:0.396875, 0.396875;stroke-dashoffset:0;stroke-opacity:1;marker-start:none;marker-end:none"
       d="m 85.105823,206.7668 c 2.912421,0.44559 5.815272,0.88972 8.129278,1.29171 2.314005,0.40198 3.999347,0.75457 5.794152,1.29894 1.794807,0.54436 3.653897,1.2671 5.646007,1.68395 1.99211,0.41685 4.10055,0.52227 6.39387,0.72506 2.29333,0.20278 4.77295,0.50291 7.16479,0.65557 2.39185,0.15266 4.69103,0.15781 6.68195,-0.21183 1.99092,-0.36964 3.64853,-1.10674 5.77631,-1.79064 2.12778,-0.6839 4.66994,-1.29642 7.18935,-2.10587 2.51942,-0.80944 4.99683,-1.81095 7.47287,-2.8119"
       id="path4292"
       sodipodi:nodetypes="cccccscccc"
       inkscape:original-d="m 85.105823,206.7668 c 0,0 5.815239,0.88994 8.737263,1.33678 1.705979,0.35711 3.39132,0.7097 5.099851,1.06693 1.881063,0.73145 3.740163,1.45418 5.613203,2.18218 2.1111,0.10809 4.21954,0.21351 6.3253,0.31626 2.48099,0.30052 4.96061,0.60064 7.44052,0.90057 2.30381,0.005 4.60299,0.0106 6.91064,0.0155 1.67433,-0.74414 3.33194,-1.48124 5.0127,-2.22901 2.57473,-0.62004 5.11689,-1.23256 7.67686,-1.8497 2.48009,-0.99885 4.9575,-2.00036 7.43224,-3.00452"
       inkscape:path-effect="#path-effect4296" />
    <path
       style="fill:none;fill-opacity:1;stroke:#000000;stroke-width:0.264583;stroke-linecap:butt;stroke-linejoin:miter;stroke-dasharray:0.396875, 0.396875;stroke-opacity:1;marker-start:none;marker-end:none"
       d="m 82.951153,210.39179 c 1.374669,-0.0687 2.746831,-0.13735 6.005936,0.17165 3.259104,0.309 8.404712,0.99508 14.476591,2.05863 6.07187,1.06354 13.06989,2.50431 17.08273,3.0526 4.01284,0.54828 5.04197,0.20524 7.20316,-0.48084 2.16119,-0.68607 5.45437,-1.71519 7.64994,-2.36694 2.19556,-0.65176 3.29329,-0.92619 4.08223,-1.13203 0.78893,-0.20584 1.26919,-0.34305 1.7477,-0.47977"
       id="path5487"
       inkscape:original-d="m 82.951153,210.39179 c 1.374806,-0.066 2.74697,-0.13457 4.116485,-0.20583 5.148255,0.68873 10.293863,1.37481 15.436822,2.05825 7.00068,1.44341 13.9987,2.88418 20.99409,4.32231 1.03176,-0.3404 2.06089,-0.68344 3.08736,-1.02912 3.29584,-1.02648 6.58902,-2.0556 9.87957,-3.08737 1.10037,-0.27178 2.1981,-0.54622 3.29319,-0.82329 0.4829,-0.13458 0.96316,-0.27179 1.44077,-0.41165"
       inkscape:path-effect="#path-effect5491" />
  </g>
</svg>
