<?xml version="1.0" encoding="UTF-8" standalone="no"?>
<!-- Created with Inkscape (http://www.inkscape.org/) -->

<svg
   width="240mm"
   height="27mm"
   viewBox="0 0 240 27"
   version="1.1"
   id="svg8"
   inkscape:version="1.3 (0e150ed, 2023-07-21)"
   sodipodi:docname="def:homotopy-equivalence.svg"
   xmlns:inkscape="http://www.inkscape.org/namespaces/inkscape"
   xmlns:sodipodi="http://sodipodi.sourceforge.net/DTD/sodipodi-0.dtd"
   xmlns="http://www.w3.org/2000/svg"
   xmlns:svg="http://www.w3.org/2000/svg"
   xmlns:rdf="http://www.w3.org/1999/02/22-rdf-syntax-ns#"
   xmlns:cc="http://creativecommons.org/ns#"
   xmlns:dc="http://purl.org/dc/elements/1.1/">
  <defs
     id="defs2">
    <inkscape:path-effect
       effect="spiro"
       id="path-effect1039"
       is_visible="true"
       lpeversion="1" />
    <marker
       style="overflow:visible"
       id="Arrow1Lstart"
       refX="0"
       refY="0"
       orient="auto"
       inkscape:stockid="Arrow1Lstart"
       inkscape:isstock="true">
      <path
         transform="matrix(0.8,0,0,0.8,10,0)"
         style="fill:context-stroke;fill-rule:evenodd;stroke:context-stroke;stroke-width:1pt"
         d="M 0,0 5,-5 -12.5,0 5,5 Z"
         id="path876" />
    </marker>
    <inkscape:path-effect
       effect="spiro"
       id="path-effect14083"
       is_visible="true"
       lpeversion="1" />
    <inkscape:path-effect
       effect="spiro"
       id="path-effect11350"
       is_visible="true"
       lpeversion="1" />
    <inkscape:path-effect
       effect="bspline"
       id="path-effect11247"
       is_visible="true"
       lpeversion="1"
       weight="33.333333"
       steps="2"
       helper_size="0"
       apply_no_weight="true"
       apply_with_weight="true"
       only_selected="false" />
    <marker
       style="overflow:visible"
       id="Arrow1Lend"
       refX="0"
       refY="0"
       orient="auto"
       inkscape:stockid="Arrow1Lend"
       inkscape:isstock="true">
      <path
         transform="matrix(-0.8,0,0,-0.8,-10,0)"
         style="fill:context-stroke;fill-rule:evenodd;stroke:context-stroke;stroke-width:1pt"
         d="M 0,0 5,-5 -12.5,0 5,5 Z"
         id="path5319" />
    </marker>
    <inkscape:path-effect
       effect="bspline"
       id="path-effect5213"
       is_visible="true"
       lpeversion="1"
       weight="33.333333"
       steps="2"
       helper_size="0"
       apply_no_weight="true"
       apply_with_weight="true"
       only_selected="false" />
    <inkscape:path-effect
       effect="spiro"
       id="path-effect5176"
       is_visible="true"
       lpeversion="1" />
    <inkscape:path-effect
       effect="spiro"
       id="path-effect5106"
       is_visible="true"
       lpeversion="1" />
    <inkscape:path-effect
       effect="spiro"
       id="path-effect1021"
       is_visible="true"
       lpeversion="1" />
    <inkscape:path-effect
       effect="spiro"
       id="path-effect965"
       is_visible="true"
       lpeversion="1" />
    <inkscape:path-effect
       effect="bspline"
       id="path-effect858"
       is_visible="true"
       lpeversion="1"
       weight="33.333333"
       steps="2"
       helper_size="0"
       apply_no_weight="true"
       apply_with_weight="true"
       only_selected="false" />
    <marker
       style="overflow:visible"
       id="Arrow1Lend-9"
       refX="0"
       refY="0"
       orient="auto"
       inkscape:stockid="Arrow1Lend"
       inkscape:isstock="true">
      <path
         transform="matrix(-0.8,0,0,-0.8,-10,0)"
         style="fill:context-stroke;fill-rule:evenodd;stroke:context-stroke;stroke-width:1pt"
         d="M 0,0 5,-5 -12.5,0 5,5 Z"
         id="path5319-1" />
    </marker>
    <marker
       style="overflow:visible"
       id="Arrow1Lend-9-5"
       refX="0"
       refY="0"
       orient="auto"
       inkscape:stockid="Arrow1Lend"
       inkscape:isstock="true">
      <path
         transform="matrix(-0.8,0,0,-0.8,-10,0)"
         style="fill:context-stroke;fill-rule:evenodd;stroke:context-stroke;stroke-width:1pt"
         d="M 0,0 5,-5 -12.5,0 5,5 Z"
         id="path5319-1-5" />
    </marker>
    <marker
       id="marker-arrow-2.654"
       orient="auto-start-reverse"
       refY="0"
       refX="0"
       markerHeight="3"
       markerWidth="2">
      <g
         transform="scale(0.85737252)"
         id="g886"><path
   d="M -1.55415,2.0722 C -1.42464,1.29512 0,0.1295 0.38852,0 0,-0.1295 -1.42464,-1.29512 -1.55415,-2.0722"
   style="fill:none;stroke:#000000;stroke-linecap:round;stroke-linejoin:round;stroke-miterlimit:10;stroke-dasharray:none;stroke-opacity:1"
   id="path884" />
&#10;&#10;&#10;&#10;&#10;0&quot; /&gt;&#10;   </g>
    </marker>
    <marker
       id="marker-arrow-2.654-7"
       orient="auto-start-reverse"
       refY="0"
       refX="0"
       markerHeight="3"
       markerWidth="2">
      <g
         transform="scale(0.85737252)"
         id="g1043"><path
   d="M -1.55415,2.0722 C -1.42464,1.29512 0,0.1295 0.38852,0 0,-0.1295 -1.42464,-1.29512 -1.55415,-2.0722"
   style="fill:none;stroke:#000000;stroke-linecap:round;stroke-linejoin:round;stroke-miterlimit:10;stroke-dasharray:none;stroke-opacity:1"
   id="path1041" />
&#10;&#10;&#10;&#10;&#10;0&quot; /&gt;&#10;   </g>
    </marker>
    <marker
       id="marker-arrow-2.654-9"
       orient="auto-start-reverse"
       refY="0"
       refX="0"
       markerHeight="3"
       markerWidth="2">
      <g
         transform="scale(0.85737252)"
         id="g1235"><path
   d="M -1.55415,2.0722 C -1.42464,1.29512 0,0.1295 0.38852,0 0,-0.1295 -1.42464,-1.29512 -1.55415,-2.0722"
   style="fill:none;stroke:#000000;stroke-linecap:round;stroke-linejoin:round;stroke-miterlimit:10;stroke-dasharray:none;stroke-opacity:1"
   id="path1233" />
&#10;&#10;&#10;&#10;&#10;0&quot; /&gt;&#10;   </g>
    </marker>
    <marker
       id="marker-arrow-2.654-0"
       orient="auto-start-reverse"
       refY="0"
       refX="0"
       markerHeight="3"
       markerWidth="2">
      <g
         transform="scale(0.85737252)"
         id="g1299"><path
   d="M -1.55415,2.0722 C -1.42464,1.29512 0,0.1295 0.38852,0 0,-0.1295 -1.42464,-1.29512 -1.55415,-2.0722"
   style="fill:none;stroke:#000000;stroke-linecap:round;stroke-linejoin:round;stroke-miterlimit:10;stroke-dasharray:none;stroke-opacity:1"
   id="path1297" />
&#10;&#10;&#10;&#10;&#10;0&quot; /&gt;&#10;   </g>
    </marker>
    <marker
       id="marker-arrow-2.654-2"
       orient="auto-start-reverse"
       refY="0"
       refX="0"
       markerHeight="3"
       markerWidth="2">
      <g
         transform="scale(0.85737252)"
         id="g1363"><path
   d="M -1.55415,2.0722 C -1.42464,1.29512 0,0.1295 0.38852,0 0,-0.1295 -1.42464,-1.29512 -1.55415,-2.0722"
   style="fill:none;stroke:#000000;stroke-linecap:round;stroke-linejoin:round;stroke-miterlimit:10;stroke-dasharray:none;stroke-opacity:1"
   id="path1361" />
&#10;&#10;&#10;&#10;&#10;0&quot; /&gt;&#10;   </g>
    </marker>
    <marker
       id="marker-arrow-1.0"
       orient="auto-start-reverse"
       refY="0"
       refX="0"
       markerHeight="3"
       markerWidth="2">
      <g
         transform="scale(1.3933333)"
         id="g947"><path
   d="M -1.55415,2.0722 C -1.42464,1.29512 0,0.1295 0.38852,0 0,-0.1295 -1.42464,-1.29512 -1.55415,-2.0722"
   style="fill:none;stroke:#000000;stroke-linecap:round;stroke-linejoin:round;stroke-miterlimit:10;stroke-dasharray:none;stroke-opacity:1"
   id="path945" />
&#10;&#10;&#10;0&quot; /&gt;&#10;   </g>
    </marker>
    <marker
       id="marker-arrow-1.0-7"
       orient="auto-start-reverse"
       refY="0"
       refX="0"
       markerHeight="3"
       markerWidth="2">
      <g
         transform="scale(1.3933333)"
         id="g1011"><path
   d="M -1.55415,2.0722 C -1.42464,1.29512 0,0.1295 0.38852,0 0,-0.1295 -1.42464,-1.29512 -1.55415,-2.0722"
   style="fill:none;stroke:#000000;stroke-linecap:round;stroke-linejoin:round;stroke-miterlimit:10;stroke-dasharray:none;stroke-opacity:1"
   id="path1009" />
&#10;&#10;&#10;0&quot; /&gt;&#10;   </g>
    </marker>
    <marker
       id="marker-arrow-1.0-9"
       orient="auto-start-reverse"
       refY="0"
       refX="0"
       markerHeight="3"
       markerWidth="2">
      <g
         transform="scale(1.3933333)"
         id="g1051"><path
   d="M -1.55415,2.0722 C -1.42464,1.29512 0,0.1295 0.38852,0 0,-0.1295 -1.42464,-1.29512 -1.55415,-2.0722"
   style="fill:none;stroke:#000000;stroke-linecap:round;stroke-linejoin:round;stroke-miterlimit:10;stroke-dasharray:none;stroke-opacity:1"
   id="path1049" />
&#10;&#10;&#10;0&quot; /&gt;&#10;   </g>
    </marker>
    <marker
       id="marker-arrow-1.0-3"
       orient="auto-start-reverse"
       refY="0"
       refX="0"
       markerHeight="3"
       markerWidth="2">
      <g
         transform="scale(1.3933333)"
         id="g1115"><path
   d="M -1.55415,2.0722 C -1.42464,1.29512 0,0.1295 0.38852,0 0,-0.1295 -1.42464,-1.29512 -1.55415,-2.0722"
   style="fill:none;stroke:#000000;stroke-linecap:round;stroke-linejoin:round;stroke-miterlimit:10;stroke-dasharray:none;stroke-opacity:1"
   id="path1113" />
&#10;&#10;&#10;0&quot; /&gt;&#10;   </g>
    </marker>
    <marker
       id="marker-arrow-1"
       orient="auto-start-reverse"
       refY="0"
       refX="0"
       markerHeight="3"
       markerWidth="2">
      <g
         transform="scale(1.3933333)"
         id="g995"><path
   d="M -1.55415,2.0722 C -1.42464,1.29512 0,0.1295 0.38852,0 0,-0.1295 -1.42464,-1.29512 -1.55415,-2.0722"
   style="fill:none;stroke:#000000;stroke-linecap:round;stroke-linejoin:round;stroke-miterlimit:10;stroke-dasharray:none;stroke-opacity:1"
   id="path993" />
&#10;0&quot; /&gt;&#10;   </g>
    </marker>
    <marker
       id="marker-arrow-1-8"
       orient="auto-start-reverse"
       refY="0"
       refX="0"
       markerHeight="3"
       markerWidth="2">
      <g
         transform="scale(1.3933333)"
         id="g1035"><path
   d="M -1.55415,2.0722 C -1.42464,1.29512 0,0.1295 0.38852,0 0,-0.1295 -1.42464,-1.29512 -1.55415,-2.0722"
   style="fill:none;stroke:#000000;stroke-linecap:round;stroke-linejoin:round;stroke-miterlimit:10;stroke-dasharray:none;stroke-opacity:1"
   id="path1033" />
&#10;0&quot; /&gt;&#10;   </g>
    </marker>
    <marker
       id="marker-arrow-1-3"
       orient="auto-start-reverse"
       refY="0"
       refX="0"
       markerHeight="3"
       markerWidth="2">
      <g
         transform="scale(1.3933333)"
         id="g1075"><path
   d="M -1.55415,2.0722 C -1.42464,1.29512 0,0.1295 0.38852,0 0,-0.1295 -1.42464,-1.29512 -1.55415,-2.0722"
   style="fill:none;stroke:#000000;stroke-linecap:round;stroke-linejoin:round;stroke-miterlimit:10;stroke-dasharray:none;stroke-opacity:1"
   id="path1073" />
&#10;0&quot; /&gt;&#10;   </g>
    </marker>
    <marker
       id="marker-arrow-1-9"
       orient="auto-start-reverse"
       refY="0"
       refX="0"
       markerHeight="3"
       markerWidth="2">
      <g
         transform="scale(1.3933333)"
         id="g1163"><path
   d="M -1.55415,2.0722 C -1.42464,1.29512 0,0.1295 0.38852,0 0,-0.1295 -1.42464,-1.29512 -1.55415,-2.0722"
   style="fill:none;stroke:#000000;stroke-linecap:round;stroke-linejoin:round;stroke-miterlimit:10;stroke-dasharray:none;stroke-opacity:1"
   id="path1161" />
&#10;0&quot; /&gt;&#10;   </g>
    </marker>
  </defs>
  <sodipodi:namedview
     id="base"
     pagecolor="#ffffff"
     bordercolor="#666666"
     borderopacity="1.0"
     inkscape:pageopacity="0.0"
     inkscape:pageshadow="2"
     inkscape:zoom="1.4371213"
     inkscape:cx="824.21713"
     inkscape:cy="90.806531"
     inkscape:document-units="mm"
     inkscape:current-layer="layer1"
     showgrid="false"
     showborder="true"
     width="200mm"
     showguides="true"
     inkscape:guide-bbox="true"
     inkscape:window-width="1280"
     inkscape:window-height="680"
     inkscape:window-x="1728"
     inkscape:window-y="641"
     inkscape:window-maximized="0"
     inkscape:pagecheckerboard="0"
     height="80mm"
     inkscape:showpageshadow="2"
     inkscape:deskcolor="#d1d1d1">
    <inkscape:grid
       type="xygrid"
       id="grid815"
       units="mm"
       spacingx="10"
       spacingy="10"
       empspacing="4"
       dotted="false"
       originx="0"
       originy="0"
       visible="false" />
  </sodipodi:namedview>
  <metadata
     id="metadata5">
    <rdf:RDF>
      <cc:Work
         rdf:about="">
        <dc:format>image/svg+xml</dc:format>
        <dc:type
           rdf:resource="http://purl.org/dc/dcmitype/StillImage" />
      </cc:Work>
    </rdf:RDF>
  </metadata>
  <g
     inkscape:label="Layer 1"
     inkscape:groupmode="layer"
     id="layer1"
     transform="translate(0,-177)">
    <text
       xml:space="preserve"
       style="font-size:5.64444px;line-height:1.25;font-family:sans-serif;letter-spacing:0px;word-spacing:0px;stroke-width:0.264583"
       x="131.15131"
       y="221.12807"
       id="text4646"><tspan
         sodipodi:role="line"
         id="tspan4644"
         style="stroke-width:0.264583"
         x="131.15131"
         y="221.12807" /></text>
    <text
       xml:space="preserve"
       style="font-size:5.64444px;line-height:1.25;font-family:sans-serif;letter-spacing:0px;word-spacing:0px;stroke-width:0.264583"
       x="118.86549"
       y="181.0148"
       id="text6281-7"><tspan
         sodipodi:role="line"
         id="tspan6279-7"
         style="stroke-width:0.264583"
         x="118.86549"
         y="181.0148">\(f\)</tspan></text>
    <text
       xml:space="preserve"
       style="font-size:5.64444px;line-height:1.25;font-family:sans-serif;letter-spacing:0px;word-spacing:0px;stroke-width:0.264583"
       x="160.49355"
       y="194.55907"
       id="text11574"><tspan
         sodipodi:role="line"
         id="tspan11572"
         style="stroke-width:0.264583"
         x="160.49355"
         y="194.55907">\(f\circ g\simeq \id\)</tspan></text>
    <text
       xml:space="preserve"
       style="font-size:5.64444px;line-height:1.25;font-family:sans-serif;letter-spacing:0px;word-spacing:0px;stroke-width:0.264583"
       x="54.22974"
       y="196.32133"
       id="text11574-5"><tspan
         sodipodi:role="line"
         id="tspan11572-5"
         style="stroke-width:0.264583"
         x="54.22974"
         y="196.32133">\(g\circ f\simeq \id\)</tspan></text>
    <text
       xml:space="preserve"
       style="font-size:5.64444px;line-height:1.25;font-family:sans-serif;letter-spacing:0px;word-spacing:0px;stroke-width:0.264583"
       x="118.86549"
       y="202.38434"
       id="text1283"><tspan
         sodipodi:role="line"
         id="tspan1281"
         style="stroke-width:0.264583"
         x="118.86549"
         y="202.38434">\(g\)</tspan></text>
    <path
       style="fill:none;fill-opacity:1;stroke:#000000;stroke-width:0.264583;stroke-linecap:butt;stroke-linejoin:miter;stroke-dasharray:none;stroke-opacity:1;marker-start:none;marker-end:none"
       d="m 83.550998,181.99589 c -0.506771,0.28156 -0.920416,0.72236 -1.186475,1.23744 -0.266059,0.51508 -0.385939,1.10196 -0.362626,1.68123 0.04663,1.15853 0.666863,2.25237 1.549101,3.00472 1.090359,0.92983 2.511047,1.3535 3.883131,1.76684 1.372084,0.41333 2.789352,0.8675 3.843029,1.8387 1.088884,1.00365 1.660467,2.4411 2.57538,3.60554 1.242842,1.5818 3.17986,2.63319 5.191031,2.67719 1.005581,0.022 2.017861,-0.20241 2.911661,-0.66372 0.8938,-0.46131 1.66621,-1.16026 2.19886,-2.01347 0.5858,-0.93835 0.87212,-2.03515 1.02131,-3.13124 0.14918,-1.09608 0.16908,-2.20533 0.26638,-3.30723 0.15969,-1.80852 0.52313,-3.66975 0,-5.40831 -0.38739,-1.28745 -1.2524,-2.40897 -2.34435,-3.19335 -1.09194,-0.78438 -2.40097,-1.24133 -3.73503,-1.40833 -2.668116,-0.33399 -5.351732,0.46243 -7.827702,1.51122 -1.254797,0.53152 -2.508617,1.13783 -3.86308,1.28769 -0.694788,0.0769 -1.396784,0.0307 -2.095431,0.0538 -0.698647,0.0231 -1.414139,0.1218 -2.025189,0.4613 z"
       id="path963"
       inkscape:path-effect="#path-effect965"
       inkscape:original-d="m 83.550998,181.99589 c -0.27678,0.69194 -0.14995,5.71988 0,5.92339 1.08229,1.46882 6.33323,2.97239 7.72616,3.60554 2.97243,1.35111 0.71431,2.11668 2.57538,3.60554 2.55624,2.04499 8.141362,3.24029 10.301552,0 1.40975,-2.11463 0.98668,-3.52872 1.28769,-6.43847 0.11315,-1.09375 0.85065,-4.27411 0,-5.40831 -2.61307,-3.48409 -10.061902,-3.44002 -13.907082,-3.09046 -1.39714,0.12701 -2.56465,0.85488 -3.86308,1.28769 -1.58826,0.52942 -3.91647,0.005 -4.12062,0.51508 z"
       sodipodi:nodetypes="scssssssss" />
    <path
       style="fill:none;fill-opacity:1;stroke:#000000;stroke-width:0.264583;stroke-linecap:butt;stroke-linejoin:miter;stroke-dasharray:none;stroke-opacity:1;marker-start:none;marker-end:none"
       d="m 134.46324,184.37234 c -0.18922,0.2743 -0.31911,0.59867 -0.31616,0.93189 0.001,0.16661 0.0365,0.33361 0.10859,0.48382 0.0721,0.15022 0.18177,0.28319 0.31961,0.3768 0.14488,0.0984 0.31666,0.15131 0.4898,0.17762 0.17313,0.0263 0.34898,0.0273 0.52409,0.0297 0.17511,0.002 0.35115,0.006 0.52328,0.0386 0.17214,0.0322 0.34159,0.0942 0.4794,0.20225 0.13326,0.1045 0.23238,0.24913 0.29448,0.40669 0.0621,0.15755 0.0883,0.32777 0.0902,0.49711 0.004,0.33868 -0.0871,0.67011 -0.16062,1.00074 -0.44804,2.01536 -0.25929,4.11354 0,6.16176 0.0972,0.76779 0.20904,1.55096 0.56016,2.24065 0.33643,0.66084 0.88435,1.20578 1.52856,1.57306 0.64421,0.36729 1.38153,0.56019 2.12226,0.59521 1.48145,0.07 2.93659,-0.48144 4.19142,-1.27201 3.03917,-1.91475 5.00597,-5.13484 6.49786,-8.40242 0.48243,-1.05664 0.92915,-2.137 1.18794,-3.26937 0.25878,-1.13237 0.32406,-2.32515 0.0444,-3.45255 -0.1751,-0.70592 -0.49316,-1.3911 -1.00829,-1.90454 -0.7082,-0.70588 -1.71135,-1.02151 -2.68877,-1.23235 -1.8799,-0.40552 -3.85917,-0.50932 -5.71364,0 -0.81,0.22246 -1.58385,0.55786 -2.35267,0.89625 -1.92899,0.84904 -3.85717,1.7301 -5.6016,2.91284 -0.41834,0.28364 -0.83334,0.59225 -1.12033,1.00829 z"
       id="path1019"
       inkscape:path-effect="#path-effect1021"
       inkscape:original-d="m 134.46324,184.37234 c -0.0916,0.34788 0.0554,1.75763 0.11204,1.79251 0.58644,0.36089 1.76084,-0.19121 2.01657,0.44813 0.2374,0.5935 0.20631,1.26556 0.22407,1.90454 0.057,2.05313 -0.0578,4.10866 0,6.16176 0.001,0.0332 -0.0609,1.9138 0.56016,2.24065 1.62525,0.8554 6.19756,1.66825 7.84224,0.89626 2.78688,-1.30813 5.44647,-6.57499 6.49786,-8.40242 0.88103,-1.5313 1.66741,-4.98168 1.23236,-6.72192 -0.17422,-0.69688 -0.58857,-1.3216 -1.00829,-1.90454 -0.74705,-1.03757 -1.4416,-1.11068 -2.68877,-1.23235 -0.98904,-0.0965 -4.68967,-0.20035 -5.71364,0 -0.82358,0.16113 -1.54369,0.67309 -2.35267,0.89625 -2.58892,0.71419 -4.44361,2.03139 -5.6016,2.91284 -1.158,0.88145 -1.01407,0.60451 -1.12033,1.00829 z"
       sodipodi:nodetypes="scsscsssssssszs" />
    <text
       xml:space="preserve"
       style="font-size:5.64444px;line-height:1.25;font-family:sans-serif;letter-spacing:0px;word-spacing:0px;stroke-width:0.264583"
       x="93.931892"
       y="189.40768"
       id="text1429"><tspan
         sodipodi:role="line"
         id="tspan1427"
         style="stroke-width:0.264583"
         x="93.931892"
         y="189.40768">\(X\)</tspan></text>
    <text
       xml:space="preserve"
       style="font-size:5.64444px;line-height:1.25;font-family:sans-serif;letter-spacing:0px;word-spacing:0px;stroke-width:0.264583"
       x="142.32202"
       y="190.78087"
       id="text1429-0"><tspan
         sodipodi:role="line"
         id="tspan1427-3"
         style="stroke-width:0.264583"
         x="142.32202"
         y="190.78087">\(Y\)</tspan></text>
    <path
       style="fill:none;fill-opacity:1;stroke:#000000;stroke-width:0.264583;stroke-linecap:butt;stroke-linejoin:miter;stroke-miterlimit:4;stroke-dasharray:none;stroke-opacity:1;marker-start:none;marker-end:url(#marker-arrow-1)"
       d="m 110.48839,185.22564 c 0,0 10.10423,-5.87051 20.27779,0"
       id="path5314"
       sodipodi:nodetypes="cc" />
    <path
       style="fill:none;fill-opacity:1;stroke:#000000;stroke-width:0.264583;stroke-linecap:butt;stroke-linejoin:miter;stroke-dasharray:none;stroke-opacity:1;marker-start:none;marker-end:url(#marker-arrow-1)"
       d="m 154.74105,188.18142 c 0.8175,-0.38772 1.78616,-0.44484 2.64356,-0.15589 0.85741,0.28895 1.5939,0.92072 2.00997,1.72417 0.41607,0.80345 0.50702,1.76951 0.24823,2.6365 -0.2588,0.86698 -0.86443,1.62511 -1.65284,2.06902 -0.84276,0.47451 -1.88432,0.58151 -2.80595,0.28827 -0.92164,-0.29325 -1.70985,-0.98245 -2.12346,-1.85672"
       id="path11348"
       inkscape:path-effect="#path-effect11350"
       inkscape:original-d="m 154.74105,188.18142 c 1.08311,2.09141 2.16609,4.18267 3.24892,6.2738 1.08285,2.09113 -3.28613,-1.04549 -4.92941,-1.56845" />
    <path
       style="fill:none;fill-opacity:1;stroke:#000000;stroke-width:0.264583;stroke-linecap:butt;stroke-linejoin:miter;stroke-dasharray:none;stroke-opacity:1;marker-start:none;marker-end:url(#marker-arrow-1)"
       d="m 87.878258,193.84559 c 0.0071,0.71567 -0.19113,1.43223 -0.565131,2.04245 -0.374,0.61021 -0.922525,1.1121 -1.563479,1.43055 -0.965686,0.47979 -2.137002,0.52596 -3.137452,0.12365 -1.00045,-0.40231 -1.813721,-1.24653 -2.178405,-2.2613 -0.364683,-1.01477 -0.274832,-2.18354 0.240673,-3.13065 0.515505,-0.9471 1.448257,-1.65709 2.498444,-1.90175"
       id="path11348-8"
       inkscape:path-effect="#path-effect14083"
       inkscape:original-d="m 87.878258,193.84559 c 1.08311,2.09141 -3.21145,1.38187 -2.12861,3.473 1.08284,2.09113 -0.93346,-6.6471 -2.57674,-7.17005"
       sodipodi:nodetypes="csc" />
    <path
       style="fill:none;fill-opacity:1;stroke:#000000;stroke-width:0.264583;stroke-linecap:butt;stroke-linejoin:miter;stroke-dasharray:none;stroke-opacity:1;marker-start:none;marker-end:url(#marker-arrow-1)"
       d="m 131.71445,193.90453 c -3.10236,2.08591 -6.8248,3.23676 -10.56309,3.26574 -3.91149,0.0303 -7.82358,-1.17071 -11.04423,-3.39064"
       id="path1037"
       inkscape:path-effect="#path-effect1039"
       inkscape:original-d="m 131.71445,193.90453 c -2.87251,1.20749 -7.6903,2.05853 -10.56309,3.26574 -2.87279,1.20721 -7.04737,-1.51703 -11.04423,-3.39064"
       sodipodi:nodetypes="csc" />
  </g>
</svg>
