<?xml version="1.0" encoding="UTF-8" standalone="no"?>
<!-- Created with Inkscape (http://www.inkscape.org/) -->

<svg
   width="240mm"
   height="90mm"
   viewBox="0 0 240 90"
   version="1.1"
   id="svg8"
   inkscape:version="1.1.1 (c3084ef, 2021-09-22)"
   sodipodi:docname="eg:excision-1.svg"
   xmlns:inkscape="http://www.inkscape.org/namespaces/inkscape"
   xmlns:sodipodi="http://sodipodi.sourceforge.net/DTD/sodipodi-0.dtd"
   xmlns="http://www.w3.org/2000/svg"
   xmlns:svg="http://www.w3.org/2000/svg"
   xmlns:rdf="http://www.w3.org/1999/02/22-rdf-syntax-ns#"
   xmlns:cc="http://creativecommons.org/ns#"
   xmlns:dc="http://purl.org/dc/elements/1.1/">
  <defs
     id="defs2">
    <inkscape:path-effect
       effect="spiro"
       id="path-effect1725"
       is_visible="true"
       lpeversion="1" />
    <inkscape:path-effect
       effect="spiro"
       id="path-effect1719"
       is_visible="true"
       lpeversion="1" />
    <inkscape:path-effect
       effect="spiro"
       id="path-effect975"
       is_visible="true"
       lpeversion="1" />
    <inkscape:path-effect
       effect="spiro"
       id="path-effect858"
       is_visible="true"
       lpeversion="1" />
  </defs>
  <sodipodi:namedview
     id="base"
     pagecolor="#ffffff"
     bordercolor="#666666"
     borderopacity="1.0"
     inkscape:pageopacity="0.0"
     inkscape:pageshadow="2"
     inkscape:zoom="0.63732666"
     inkscape:cx="239.28075"
     inkscape:cy="231.43548"
     inkscape:document-units="mm"
     inkscape:current-layer="layer1"
     showgrid="false"
     showborder="true"
     width="200mm"
     showguides="true"
     inkscape:guide-bbox="true"
     inkscape:window-width="1280"
     inkscape:window-height="680"
     inkscape:window-x="1728"
     inkscape:window-y="25"
     inkscape:window-maximized="0"
     inkscape:pagecheckerboard="0">
    <inkscape:grid
       type="xygrid"
       id="grid815"
       units="mm"
       spacingx="10"
       spacingy="10"
       empspacing="4"
       dotted="false" />
  </sodipodi:namedview>
  <metadata
     id="metadata5">
    <rdf:RDF>
      <cc:Work
         rdf:about="">
        <dc:format>image/svg+xml</dc:format>
        <dc:type
           rdf:resource="http://purl.org/dc/dcmitype/StillImage" />
      </cc:Work>
    </rdf:RDF>
  </metadata>
  <g
     inkscape:label="Layer 1"
     inkscape:groupmode="layer"
     id="layer1"
     transform="translate(0,-177)">
    <path
       style="fill:none;fill-opacity:1;stroke:#000000;stroke-width:0.264583;stroke-linecap:butt;stroke-linejoin:miter;stroke-dasharray:none;stroke-opacity:1;marker-start:none;marker-end:none"
       d="m 48.028271,203.88629 c 3.944217,0.16951 7.551468,2.1812 11.386462,3.11843 1.917498,0.46861 3.940584,0.66528 5.863218,0.21821 0.961316,-0.22354 1.889124,-0.60841 2.701361,-1.1691 0.812236,-0.56069 1.506812,-1.29973 1.976931,-2.16754 0.607342,-1.12111 0.824293,-2.42103 0.812128,-3.69602 -0.01216,-1.27499 -0.24295,-2.53684 -0.484847,-3.78874 -0.241897,-1.25189 -0.4964,-2.50718 -0.55697,-3.78079 -0.06057,-1.27361 0.08084,-2.57807 0.60135,-3.74204 0.520254,-1.16339 1.41056,-2.14941 2.486389,-2.8326 1.075828,-0.68318 2.331406,-1.06761 3.602489,-1.15979 2.542165,-0.18437 5.073704,0.79423 7.116591,2.31844 2.042888,1.52421 3.645266,3.56363 5.04396,5.69442 1.398694,2.13079 2.61851,4.3761 4.050205,6.48485 3.37235,4.96716 7.843042,9.0704 12.264792,13.13163 1.81919,1.67087 3.65502,3.36322 5.03672,5.4107 1.38171,2.04747 2.28747,4.51449 2.02483,6.97056 -0.16117,1.50722 -0.75502,2.94727 -1.57428,4.22261 -0.81926,1.27535 -1.8598,2.39535 -2.9672,3.43041 -2.21479,2.07013 -4.73418,3.84608 -6.60833,6.229 -2.122964,2.69928 -3.285441,6.0046 -4.686008,9.14012 -0.700283,1.56777 -1.471188,3.11218 -2.454035,4.52012 -0.982847,1.40794 -2.186685,2.68109 -3.638115,3.59849 -2.603326,1.64548 -5.96353,2.02942 -8.874115,1.02274 -2.910585,-1.00668 -5.313156,-3.38046 -6.363965,-6.2754 -1.157058,-3.18766 -0.700193,-6.69751 -0.454832,-10.07978 0.12268,-1.69113 0.188052,-3.39686 -0.03779,-5.07733 -0.225841,-1.68047 -0.756105,-3.34514 -1.737343,-4.72795 -1.167311,-1.64503 -2.936179,-2.81968 -4.860877,-3.42323 -1.924697,-0.60356 -3.997325,-0.65686 -5.9871,-0.3259 -3.979551,0.66192 -7.54335,2.7884 -10.963634,4.9277 -3.420283,2.13931 -6.892632,4.37039 -10.821811,5.28501 -1.964589,0.4573 -4.027658,0.56949 -6.001271,0.15284 -1.973613,-0.41664 -3.853858,-1.38162 -5.221253,-2.86451 -1.150165,-1.24731 -1.911376,-2.82994 -2.273901,-4.48742 -0.362525,-1.65749 -0.335628,-3.38775 -0.02908,-5.05649 0.613103,-3.33749 2.307348,-6.37346 4.161282,-9.21558 2.022194,-3.10006 4.301901,-6.09154 7.220644,-8.36763 2.918743,-2.27609 6.549509,-3.79737 10.2474,-3.63844 z"
       id="path856"
       inkscape:path-effect="#path-effect858"
       inkscape:original-d="m 48.028271,203.88629 c 5.822312,-4.00239 14.619018,3.8e-4 21.927972,0 7.308955,-3.7e-4 0.248144,-10.00469 0.371661,-15.00759 0.123519,-5.00289 14.866792,7.00392 22.299634,10.50532 7.432842,3.50139 8.176902,8.75479 12.264792,13.13163 4.0879,4.37684 4.70807,8.25455 7.06155,12.38126 2.35349,4.12672 -7.43284,9.25505 -11.14981,13.88202 -3.716977,4.62697 -7.185069,11.50619 -10.778158,17.25873 -3.593087,5.75253 -10.158349,-3.5014 -15.23808,-5.25266 -5.079733,-1.75126 -1.486276,-13.25633 -2.229963,-19.88506 -0.743693,-6.62871 -29.236928,2.50165 -43.855946,3.75191 -14.619017,1.25026 1.239239,-12.50595 1.858304,-18.75949 0.619063,-6.25353 11.645731,-8.00367 17.468044,-12.00607 z" />
    <path
       style="fill:none;fill-opacity:1;stroke:#000000;stroke-width:0.264583;stroke-linecap:butt;stroke-linejoin:miter;stroke-dasharray:none;stroke-opacity:1;marker-start:none;marker-end:none"
       d="m 46.541631,215.89237 c 0.343136,-0.77701 0.907284,-1.44846 1.585918,-1.95929 0.678633,-0.51083 1.469228,-0.86412 2.291753,-1.07612 1.645051,-0.424 3.385125,-0.28637 5.055373,0.0239 1.670247,0.31023 3.30755,0.78927 4.98658,1.04778 1.679031,0.25851 3.436294,0.28702 5.035061,-0.28736 1.18591,-0.42606 2.236512,-1.16703 3.175576,-2.0073 0.939064,-0.84028 1.778749,-1.78405 2.656253,-2.68842 0.877504,-0.90438 1.802522,-1.77717 2.872485,-2.44281 1.069963,-0.66565 2.300363,-1.11806 3.560483,-1.11565 1.120208,0.002 2.220009,0.36372 3.196102,0.91337 0.976093,0.54964 1.83745,1.28256 2.639144,2.06497 1.603389,1.5648 3.02388,3.36926 4.942913,4.52546 1.78493,1.0754 3.868672,1.50933 5.861775,2.11761 0.996552,0.30414 1.983425,0.65745 2.898111,1.15641 0.914687,0.49897 1.758718,1.14966 2.389927,1.97863 0.837325,1.09966 1.267185,2.4773 1.348965,3.85704 0.0818,1.37973 -0.17029,2.76394 -0.59338,4.07974 -0.84618,2.63161 -2.358001,4.99617 -3.403609,7.5551 -1.027417,2.51441 -1.602058,5.21006 -2.815103,7.64036 -0.606522,1.21515 -1.376791,2.36209 -2.375577,3.28236 -0.998786,0.92026 -2.237293,1.60638 -3.577189,1.82805 -1.425197,0.23579 -2.914279,-0.066 -4.195485,-0.73328 -1.281206,-0.6673 -2.36084,-1.68604 -3.20519,-2.85816 -1.688698,-2.34423 -2.429219,-5.22306 -3.07352,-8.03944 -0.39505,-1.72685 -0.769568,-3.46781 -1.421389,-5.11499 -0.651821,-1.64718 -1.602729,-3.21358 -2.975099,-4.33371 -1.38592,-1.13119 -3.138366,-1.75151 -4.911618,-1.98801 -1.773252,-0.23649 -3.576105,-0.10818 -5.349199,0.12949 -3.546189,0.47535 -7.1423,1.38618 -10.653495,0.69849 -1.912872,-0.37465 -3.781019,-1.26609 -5.013064,-2.77656 -0.616022,-0.75523 -1.06139,-1.65607 -1.240713,-2.61404 -0.179323,-0.95797 -0.0865,-1.97204 0.307211,-2.86358 z"
       id="path973"
       inkscape:path-effect="#path-effect975"
       inkscape:original-d="m 46.541631,215.89237 c -1.98256,-2.75176 12.636827,-1.50039 18.954685,-2.25113 6.317861,-0.75076 8.176903,-5.50242 12.264797,-8.25418 4.087897,-2.75177 7.18581,5.0029 10.778159,7.5038 3.592348,2.50088 7.433577,3.50214 11.149813,5.25265 3.716235,1.7505 -0.789352,10.23959 -2.648024,15.49188 -1.858669,5.25228 -6.909197,11.25038 -8.767869,12.75077 -1.858672,1.50039 -34.085295,28.32033 -10.474195,-11.63088 2.091092,-3.53824 -1.422834,-8.07262 -4.396488,-9.4487 -2.973656,-1.37607 -13.232957,-1.65991 -20.914312,-1.16003 -7.681352,0.49986 -3.964006,-5.50242 -5.946566,-8.25418 z"
       sodipodi:nodetypes="scssssssscs" />
    <rect
       style="font-variation-settings:normal;opacity:1;vector-effect:none;fill:none;fill-opacity:1;fill-rule:evenodd;stroke:#000000;stroke-width:0.264583;stroke-linecap:butt;stroke-linejoin:miter;stroke-miterlimit:4;stroke-dasharray:none;stroke-dashoffset:0;stroke-opacity:1;-inkscape-stroke:none;marker-start:none;marker-end:none;stop-color:#000000;stop-opacity:1"
       id="rect1112"
       width="14.635234"
       height="14.774202"
       x="78.724113"
       y="217.03903" />
    <path
       style="fill:none;fill-opacity:1;stroke:#000000;stroke-width:0.264583;stroke-linecap:butt;stroke-linejoin:miter;stroke-dasharray:none;stroke-opacity:1;marker-start:none;marker-end:none"
       d="m 153.86164,203.88629 c 3.94422,0.16951 7.55147,2.1812 11.38647,3.11843 1.91749,0.46862 3.94058,0.66528 5.86322,0.21821 0.96131,-0.22354 1.88912,-0.60841 2.70136,-1.1691 0.81223,-0.56069 1.50681,-1.29973 1.97693,-2.16754 0.60734,-1.12111 0.82429,-2.42103 0.81213,-3.69602 -0.0122,-1.27499 -0.24295,-2.53684 -0.48485,-3.78874 -0.24189,-1.25189 -0.49639,-2.50718 -0.55696,-3.78079 -0.0606,-1.27361 0.0808,-2.57807 0.60135,-3.74204 0.52025,-1.16339 1.41056,-2.14941 2.48639,-2.8326 1.07583,-0.68318 2.33141,-1.06761 3.60249,-1.15979 2.54217,-0.18437 5.0737,0.79424 7.11659,2.31844 2.04289,1.52421 3.64527,3.56364 5.04396,5.69442 1.3987,2.13079 2.61851,4.3761 4.05021,6.48485 3.37235,4.96716 7.84305,9.0704 12.2648,13.13163 1.81919,1.67087 3.65502,3.36322 5.03672,5.4107 1.38171,2.04747 2.28747,4.51449 2.02483,6.97056 -0.16117,1.50722 -0.75502,2.94727 -1.57428,4.22261 -0.81926,1.27535 -1.8598,2.39535 -2.9672,3.43041 -2.21479,2.07013 -4.73418,3.84608 -6.60833,6.229 -2.12296,2.69928 -3.28544,6.0046 -4.68601,9.14012 -0.70028,1.56777 -1.47119,3.11218 -2.45404,4.52012 -0.98284,1.40794 -2.18668,2.68109 -3.63811,3.59849 -2.60333,1.64548 -5.96353,2.02942 -8.87412,1.02274 -2.91059,-1.00668 -5.31316,-3.38045 -6.36397,-6.2754 -1.15706,-3.18766 -0.70019,-6.69751 -0.45484,-10.07978 0.12268,-1.69113 0.18805,-3.39686 -0.0378,-5.07733 -0.22584,-1.68047 -0.7561,-3.34514 -1.73734,-4.72795 -1.16731,-1.64503 -2.93618,-2.81968 -4.86088,-3.42323 -1.9247,-0.60356 -3.99733,-0.65686 -5.9871,-0.3259 -3.97956,0.66192 -7.54336,2.7884 -10.96364,4.9277 -3.42029,2.13931 -6.89264,4.3704 -10.82182,5.28501 -1.96459,0.4573 -4.02766,0.56949 -6.00127,0.15284 -1.97362,-0.41664 -3.85386,-1.38162 -5.22126,-2.86451 -1.15017,-1.24731 -1.91138,-2.82994 -2.2739,-4.48742 -0.36253,-1.65749 -0.33563,-3.38775 -0.0291,-5.05649 0.6131,-3.33749 2.30735,-6.37346 4.16128,-9.21558 2.0222,-3.10006 4.30191,-6.09154 7.22065,-8.36763 2.91875,-2.2761 6.54952,-3.79737 10.24741,-3.63844 z"
       id="path1715"
       inkscape:path-effect="#path-effect1719"
       inkscape:original-d="m 153.86164,203.88629 c 5.82232,-4.00239 14.61902,3.8e-4 21.92798,0 7.30896,-3.7e-4 0.24815,-10.00469 0.37167,-15.00759 0.12351,-5.00289 14.8668,7.00392 22.29964,10.50532 7.43285,3.50139 8.17691,8.75479 12.2648,13.13163 4.0879,4.37684 4.70807,8.25455 7.06155,12.38126 2.35349,4.12672 -7.43284,9.25505 -11.14981,13.88202 -3.71698,4.62697 -7.18508,11.50619 -10.77816,17.25873 -3.59309,5.75253 -10.15836,-3.5014 -15.23809,-5.25266 -5.07974,-1.75126 -1.48628,-13.25633 -2.22997,-19.88506 -0.74369,-6.62871 -29.23694,2.50165 -43.85597,3.75191 -14.61903,1.25026 1.23924,-12.50595 1.8583,-18.75949 0.61907,-6.25353 11.64574,-8.00367 17.46806,-12.00607 z" />
    <path
       style="fill:none;fill-opacity:1;stroke:#000000;stroke-width:0.264583;stroke-linecap:butt;stroke-linejoin:miter;stroke-dasharray:none;stroke-opacity:1;marker-start:none;marker-end:none"
       d="m 152.375,215.89237 c 0.34314,-0.77701 0.90728,-1.44846 1.58592,-1.95929 0.67863,-0.51083 1.46923,-0.86412 2.29175,-1.07612 1.64505,-0.42401 3.38513,-0.28637 5.05538,0.0239 1.67024,0.31023 3.30755,0.78926 4.98658,1.04778 1.67903,0.25851 3.43629,0.28702 5.03506,-0.28736 1.18591,-0.42606 2.23651,-1.16703 3.17558,-2.0073 0.93906,-0.84028 1.77875,-1.78405 2.65626,-2.68842 0.8775,-0.90438 1.80252,-1.77717 2.87248,-2.44281 1.06997,-0.66565 2.30037,-1.11806 3.56049,-1.11565 1.12021,0.002 2.22001,0.36372 3.1961,0.91337 0.97609,0.54964 1.83745,1.28256 2.63915,2.06497 1.60339,1.56481 3.02388,3.36926 4.94291,4.52546 1.78493,1.0754 3.86867,1.50933 5.86178,2.11761 0.99655,0.30414 1.98343,0.65745 2.89811,1.15641 0.91469,0.49897 1.75872,1.14966 2.38993,1.97863 0.83732,1.09966 1.26719,2.4773 1.34897,3.85703 0.0818,1.37974 -0.17029,2.76395 -0.59338,4.07975 -0.84618,2.63161 -2.358,4.99617 -3.40361,7.5551 -1.02742,2.51441 -1.60206,5.21006 -2.81511,7.64036 -0.60652,1.21515 -1.37679,2.36209 -2.37558,3.28236 -0.99879,0.92026 -2.23729,1.60638 -3.57719,1.82805 -1.4252,0.23579 -2.91428,-0.066 -4.19549,-0.73328 -1.2812,-0.6673 -2.36084,-1.68604 -3.20519,-2.85816 -1.6887,-2.34423 -2.42922,-5.22306 -3.07352,-8.03944 -0.39505,-1.72685 -0.76957,-3.46781 -1.42139,-5.11499 -0.65182,-1.64718 -1.60273,-3.21358 -2.9751,-4.33371 -1.38592,-1.13119 -3.13837,-1.75151 -4.91162,-1.98801 -1.77325,-0.2365 -3.57611,-0.10818 -5.3492,0.12949 -3.54619,0.47535 -7.1423,1.38618 -10.6535,0.69849 -1.91287,-0.37465 -3.78102,-1.26609 -5.01307,-2.77656 -0.61602,-0.75523 -1.06139,-1.65607 -1.24071,-2.61404 -0.17932,-0.95797 -0.0865,-1.97204 0.30721,-2.86358 z"
       id="path1721"
       inkscape:path-effect="#path-effect1725"
       inkscape:original-d="m 152.375,215.89237 c -1.98256,-2.75176 12.63683,-1.50039 18.95469,-2.25113 6.31787,-0.75076 8.17691,-5.50242 12.26481,-8.25418 4.0879,-2.75177 7.18581,5.0029 10.77816,7.5038 3.59235,2.50088 7.43359,3.50214 11.14982,5.25265 3.71624,1.7505 -0.78935,10.23959 -2.64802,15.49188 -1.85867,5.25228 -6.9092,11.25038 -8.76788,12.75077 -1.85867,1.50039 -34.08531,28.32033 -10.4742,-11.63088 2.0911,-3.53824 -1.42283,-8.07262 -4.39649,-9.4487 -2.97366,-1.37607 -13.23296,-1.65991 -20.91432,-1.16003 -7.68136,0.49986 -3.96401,-5.50242 -5.94657,-8.25418 z"
       sodipodi:nodetypes="scssssssscs" />
    <text
       xml:space="preserve"
       style="font-size:5.64444px;line-height:1.25;font-family:sans-serif;letter-spacing:0px;word-spacing:0px;stroke-width:0.264583"
       x="84.613541"
       y="226.75702"
       id="text1753"><tspan
         sodipodi:role="line"
         id="tspan1751"
         style="stroke-width:0.264583"
         x="84.613541"
         y="226.75702">\(Z\)</tspan></text>
    <text
       xml:space="preserve"
       style="font-size:5.64444px;line-height:1.25;font-family:sans-serif;letter-spacing:0px;word-spacing:0px;stroke-width:0.264583"
       x="64.125359"
       y="220.105"
       id="text2137"><tspan
         sodipodi:role="line"
         id="tspan2135"
         style="stroke-width:0.264583"
         x="64.125359"
         y="220.105">\(A\)</tspan></text>
    <text
       xml:space="preserve"
       style="font-size:5.64444px;line-height:1.25;font-family:sans-serif;letter-spacing:0px;word-spacing:0px;stroke-width:0.264583"
       x="39.12104"
       y="229.66389"
       id="text2137-5"><tspan
         sodipodi:role="line"
         id="tspan2135-5"
         style="stroke-width:0.264583"
         x="39.12104"
         y="229.66389">\(X\)</tspan></text>
    <text
       xml:space="preserve"
       style="font-size:5.64444px;line-height:1.25;font-family:sans-serif;letter-spacing:0px;word-spacing:0px;stroke-width:0.264583"
       x="190.44691"
       y="226.75702"
       id="text2442"><tspan
         sodipodi:role="line"
         id="tspan2440"
         style="stroke-width:0.264583"
         x="190.44691"
         y="226.75702">\(Z\)</tspan></text>
    <text
       xml:space="preserve"
       style="font-size:5.64444px;line-height:1.25;font-family:sans-serif;letter-spacing:0px;word-spacing:0px;stroke-width:0.264583"
       x="169.95871"
       y="220.105"
       id="text2446"><tspan
         sodipodi:role="line"
         id="tspan2444"
         style="stroke-width:0.264583"
         x="169.95871"
         y="220.105">\(A\)</tspan></text>
    <text
       xml:space="preserve"
       style="font-size:5.64444px;line-height:1.25;font-family:sans-serif;letter-spacing:0px;word-spacing:0px;stroke-width:0.264583"
       x="144.95438"
       y="229.66389"
       id="text2450"><tspan
         sodipodi:role="line"
         id="tspan2448"
         style="stroke-width:0.264583"
         x="144.95438"
         y="229.66389">\(X\)</tspan></text>
    <path
       style="opacity:0.99;fill:#f02b13;fill-opacity:0.12;stroke:none;stroke-width:1.00566;stroke-linejoin:round;stroke-dasharray:none;stroke-opacity:1;marker-start:none;marker-end:none"
       d="m 309.51733,302.28576 c -10.43099,-3.01313 -19.99688,-11.24201 -24.44483,-21.02822 -4.10458,-9.03076 -4.86321,-16.78922 -3.49668,-35.76023 2.2811,-31.66785 -2.5198,-44.56937 -19.75485,-53.0874 -6.77628,-3.34901 -8.63798,-3.80914 -16.80727,-4.154 -16.78153,-0.70844 -27.37186,3.05237 -54.16474,19.23482 -27.99382,16.90778 -34.94701,19.75405 -50.19562,20.5474 -11.56303,0.6016 -18.25357,-1.10901 -26.30575,-6.72575 -5.59507,-3.90281 -10.96971,-11.6398 -12.97105,-18.6723 -1.546435,-5.43402 -1.488204,-16.87704 0.12026,-23.63296 3.19519,-13.42053 17.69993,-37.97877 30.76635,-52.09108 10.96437,-11.842 23.71946,-19.94768 35.91388,-22.82276 12.1471,-2.86392 19.6358,-1.77855 43.01114,6.23383 11.70705,4.01283 14.97704,4.71702 23.74895,5.11437 12.13331,0.5496 18.0459,-1.01706 24.41581,-6.46947 8.95232,-7.66285 10.58708,-16.023478 7.14786,-36.556113 -3.2868,-19.62261 -1.8046,-27.749086 6.37037,-34.926802 5.57753,-4.897134 11.44476,-6.646855 20.52571,-6.121167 16.98957,0.983511 29.43,11.564287 47.2081,40.151196 12.81465,20.605751 19.53139,28.919116 37.68579,46.644026 32.88665,32.10862 35.55679,34.97573 38.8864,41.7551 4.99601,10.17231 6.0176,16.73977 3.87746,24.92661 -2.44201,9.34157 -6.79234,15.37093 -19.43613,26.93755 -23.19214,21.21634 -25.51891,24.30444 -35.57961,47.22147 -8.05277,18.34321 -12.61185,26.06611 -19.38759,32.84185 -9.70588,9.7059 -24.89355,13.97583 -37.13396,10.44003 z m 32.70188,-42.14851 c 9.28872,-5.44355 14.27592,-13.22369 20.9873,-32.74056 2.20964,-6.42568 6.94874,-17.9107 10.53133,-25.52226 11.46144,-24.35084 12.06019,-38.44049 2.07585,-48.8486 -4.88423,-5.09153 -10.01599,-7.64114 -24.42657,-12.13578 -15.16945,-4.73133 -18.04751,-6.53152 -31.66184,-19.80409 -11.26608,-10.98327 -17.54404,-14.46657 -26.07316,-14.46657 -8.74958,0 -14.36759,3.26671 -27.57019,16.03132 -13.91299,13.45141 -18.74883,16.10569 -29.36956,16.12026 -3.93782,0.005 -12.62054,-1.12154 -19.29492,-2.50432 -18.58344,-3.85006 -28.43704,-3.15528 -36.48064,2.57226 -5.46815,3.89367 -8.47771,12.79291 -6.82057,20.16831 2.83081,12.59903 16.59271,21.00555 34.3871,21.00555 3.82206,0 13.34358,-0.95256 21.15895,-2.1168 26.88893,-4.00559 40.26163,-1.69786 49.7386,8.58345 6.10104,6.61883 8.86298,13.0323 13.32691,30.94614 2.22793,8.94072 5.56039,19.52321 7.40546,23.51663 5.12775,11.09833 12.77005,18.39602 22.68294,21.66008 4.75015,1.5641 14.68058,0.30251 19.40301,-2.46502 z"
       id="path2606"
       transform="matrix(0.26458333,0,0,0.26458333,0,177)" />
    <path
       style="opacity:0.99;fill:#ff8600;fill-opacity:0.347259;stroke:none;stroke-width:0.266081;stroke-linejoin:round;stroke-dasharray:none;stroke-opacity:1;marker-start:none;marker-end:none"
       d="m 84.395132,245.36446 c -3.135543,-1.56685 -4.580708,-4.00876 -6.310318,-10.66258 -1.286425,-4.94891 -1.801675,-6.29963 -3.084433,-8.08584 -2.434765,-3.39035 -6.479207,-4.2251 -14.645341,-3.02273 -6.495195,0.95635 -9.636855,0.43445 -12.077663,-2.00635 -2.275805,-2.27581 -2.444369,-4.634 -0.486166,-6.8015 1.790705,-1.98209 4.427278,-2.31237 9.574905,-1.19942 1.882818,0.40708 3.920239,0.66419 5.250569,0.6626 3.111352,-0.004 4.239715,-0.60133 8.073398,-4.27588 3.431016,-3.2886 5.002956,-4.22924 7.074794,-4.23349 1.990606,-0.004 3.480581,0.88166 6.715628,3.99223 1.609786,1.54784 3.357187,3.07646 3.883112,3.39693 0.525926,0.32047 2.58822,1.11156 4.582869,1.75798 1.994654,0.64643 4.040502,1.4311 4.54633,1.74372 2.921214,1.80541 3.965264,5.2106 2.778634,9.06257 -0.15779,0.5122 -1.041843,2.54772 -1.964572,4.52336 -0.922726,1.97565 -2.156018,4.9831 -2.740649,6.68323 -1.842365,5.35765 -3.149534,7.32995 -5.700527,8.60117 -1.88713,0.94039 -3.391345,0.903 -5.47057,-0.136 z m 9.202705,-20.93564 -0.0706,-7.64982 -7.51677,-0.0707 -7.516768,-0.0707 v 7.72047 7.72048 h 7.587369 7.587369 z"
       id="path2688" />
    <path
       style="opacity:0.99;fill:#00b2ff;fill-opacity:0.250653;stroke:none;stroke-width:0.266081;stroke-linejoin:round;stroke-dasharray:none;stroke-opacity:1;marker-start:none;marker-end:none"
       d="m 79.025857,224.3623 v -7.18417 h 7.051132 7.051127 v 7.18417 7.18417 h -7.051127 -7.051132 z"
       id="path2770" />
    <path
       style="opacity:0.99;fill:#f02b13;fill-opacity:0.12;stroke:none;stroke-width:1.00566;stroke-linejoin:round;stroke-dasharray:none;stroke-opacity:1;marker-start:none;marker-end:none"
       d="m 709.92346,302.3336 c -9.91119,-2.67234 -19.75548,-10.87662 -24.52446,-20.4388 -4.07929,-8.17929 -4.87425,-14.84453 -3.99517,-33.49729 1.01836,-21.60806 0.68431,-28.37385 -1.76238,-35.69456 -3.42811,-10.25728 -9.21476,-16.56356 -19.59041,-21.3496 -8.30019,-3.82867 -21.89279,-4.40169 -32.88408,-1.38627 -11.04495,3.03014 -17.68694,6.29105 -39.69722,19.48953 -11.08451,6.64682 -23.19125,13.06963 -28.15842,14.93844 -8.01719,3.01633 -9.67949,3.28266 -20.79921,3.33241 -11.68105,0.0523 -12.31048,-0.0566 -18.80314,-3.25128 -16.17112,-7.95695 -23.092,-25.35528 -18.03732,-45.34383 4.28122,-16.92991 17.53797,-38.63146 33.31282,-54.53367 15.52407,-15.64942 27.58764,-21.41792 44.77734,-21.41145 9.58693,0.004 10.87847,0.27897 27.65559,5.89616 15.76231,5.27742 18.66541,5.93914 27.81697,6.34055 12.11836,0.53154 18.01491,-1.01184 24.24733,-6.34656 8.54136,-7.31109 10.50284,-16.686189 7.32489,-35.010041 -3.45665,-19.930899 -2.41156,-27.794058 4.65661,-35.035946 11.51112,-11.794009 31.93699,-10.166362 47.4499,3.781069 6.4964,5.840827 12.15983,13.416434 22.36461,29.915705 13.92151,22.508554 22.514,32.353863 56.3466,64.562163 18.80632,17.90343 24.21759,26.97565 24.34916,40.82239 0.0525,5.5205 -0.48107,7.75356 -3.14568,13.16616 -4.05671,8.24035 -8.68901,13.48561 -23.12755,26.18784 -13.44946,11.83208 -18.90365,18.76429 -25.12726,31.93645 -14.73888,31.19456 -16.29637,34.04193 -21.97688,40.17756 -3.14429,3.3962 -7.67906,7.32483 -10.07726,8.73026 -8.58326,5.03013 -19.27861,6.53468 -28.59538,4.02261 z m 28.43591,-40.41429 c 5.77198,-1.96671 11.69534,-6.99419 15.82761,-13.43377 1.76139,-2.74489 5.60906,-11.69403 8.55038,-19.88697 2.94132,-8.19294 7.88022,-20.23879 10.97532,-26.76857 7.05307,-14.87991 8.68921,-20.37324 8.68921,-29.1741 0,-17.40472 -6.74473,-24.29258 -31.17319,-31.83469 -5.80645,-1.79271 -12.3129,-4.15515 -14.45875,-5.24989 -2.14587,-1.09474 -9.01709,-6.93623 -15.26937,-12.98109 -13.07355,-12.63983 -18.82933,-15.97084 -27.59659,-15.97084 -8.79241,0 -14.51535,3.32357 -27.741,16.11044 -13.88643,13.42576 -18.62066,16.02663 -29.19875,16.04114 -3.93783,0.005 -12.76248,-1.16185 -19.61033,-2.59391 -22.12585,-4.62707 -34.14618,-2.31445 -40.88301,7.86559 -5.59106,8.44866 -2.6862,21.63575 6.27089,28.46765 9.54669,7.28162 22.99385,8.93255 45.62362,5.60128 26.87218,-3.95578 39.51186,-2.31585 49.18545,6.38154 6.66215,5.98985 10.49097,14.13719 14.84705,31.59313 5.9915,24.00941 9.76308,31.92326 19.15314,40.18872 7.76924,6.83877 17.37028,8.86021 26.80832,5.64434 z"
       id="path2852"
       transform="matrix(0.26458333,0,0,0.26458333,0,177)" />
    <rect
       style="font-variation-settings:normal;opacity:1;vector-effect:none;fill:none;fill-opacity:1;fill-rule:evenodd;stroke:#000000;stroke-width:0.264583;stroke-linecap:butt;stroke-linejoin:miter;stroke-miterlimit:4;stroke-dasharray:none;stroke-dashoffset:0;stroke-opacity:1;-inkscape-stroke:none;marker-start:none;marker-end:none;stop-color:#000000;stop-opacity:1"
       id="rect7211"
       width="14.635234"
       height="14.774202"
       x="184.55746"
       y="217.03903" />
    <path
       style="opacity:0.99;fill:#ff8600;fill-opacity:0.34902;stroke:none;stroke-width:0.429085;stroke-linejoin:round;stroke-dasharray:none;stroke-opacity:1;marker-start:none;marker-end:none"
       d="m 724.08129,261.05192 c -11.27032,-3.02573 -19.80367,-12.42058 -25.09593,-27.62957 -1.27623,-3.66765 -5.3508,-19.06462 -5.36527,-20.27427 -0.002,-0.177 14.57432,-0.32182 32.39209,-0.32182 h 32.39593 V 179.7867 146.74714 h -32.82502 -32.82502 l -0.0228,31.21595 -0.0228,31.21595 -1.02424,-3.46205 C 687.4369,191.347 681.4062,182.94416 672.03656,178.33546 c -9.97855,-4.90821 -20.203,-5.58325 -39.45909,-2.60518 -11.90714,1.84151 -15.4293,2.28507 -20.5076,2.5826 -17.95282,1.05184 -32.33255,-6.44648 -36.09074,-18.81952 -3.14194,-10.34415 3.17458,-20.0799 15.15417,-23.35734 2.04568,-0.55967 4.21106,-0.72976 8.72787,-0.68557 6.20411,0.0607 7.42945,0.2632 22.95606,3.79376 6.45161,1.46702 16.67233,1.91051 21.30719,0.92455 7.47462,-1.59005 12.76361,-5.26794 23.96717,-16.66642 8.86351,-9.01771 12.95744,-12.1075 18.68232,-14.1 10.70175,-3.72465 20.03988,0.31953 33.25027,14.40011 5.54248,5.90757 10.37081,10.14393 14.16632,12.42946 3.70376,2.23029 7.66679,3.74267 17.95646,6.85258 10.38457,3.1386 14.43693,4.83067 18.48212,7.71726 5.04355,3.59901 8.10844,8.10548 9.67296,14.22271 2.31601,9.05553 0.007,19.45297 -7.77507,35.00439 -4.88643,9.7654 -6.74542,14.23167 -10.31827,24.78979 -4.00207,11.82653 -5.76982,16.15919 -8.47446,20.77045 -4.91389,8.37785 -11.11059,13.54777 -18.64201,15.55304 -2.8522,0.75942 -8.00338,0.71722 -11.01089,-0.0902 z"
       id="path9411"
       transform="matrix(0.26458333,0,0,0.26458333,0,177)" />
    <text
       xml:space="preserve"
       style="font-size:5.64444px;line-height:1.25;font-family:sans-serif;letter-spacing:0px;word-spacing:0px;stroke-width:0.264583"
       x="60.611248"
       y="264.5957"
       id="text10260"><tspan
         sodipodi:role="line"
         id="tspan10258"
         style="stroke-width:0.264583"
         x="60.611248"
         y="264.5957">\(H_n(X, A)\)</tspan></text>
    <text
       xml:space="preserve"
       style="font-size:5.64444px;line-height:1.25;font-family:sans-serif;letter-spacing:0px;word-spacing:0px;stroke-width:0.264583"
       x="166.4446"
       y="264.5957"
       id="text10424"><tspan
         sodipodi:role="line"
         id="tspan10422"
         style="stroke-width:0.264583"
         x="166.4446"
         y="264.5957">\(H_n(\quotient{X}{Z}, \quotient{A}{Z})\)</tspan></text>
  </g>
</svg>
