<?xml version="1.0" encoding="UTF-8" standalone="no"?>
<!-- Created with Inkscape (http://www.inkscape.org/) -->

<svg
   width="240mm"
   height="42mm"
   viewBox="0 0 240 42"
   version="1.1"
   id="svg8"
   inkscape:version="1.1.1 (c3084ef, 2021-09-22)"
   sodipodi:docname="eg:homotopy.svg"
   xmlns:inkscape="http://www.inkscape.org/namespaces/inkscape"
   xmlns:sodipodi="http://sodipodi.sourceforge.net/DTD/sodipodi-0.dtd"
   xmlns="http://www.w3.org/2000/svg"
   xmlns:svg="http://www.w3.org/2000/svg"
   xmlns:rdf="http://www.w3.org/1999/02/22-rdf-syntax-ns#"
   xmlns:cc="http://creativecommons.org/ns#"
   xmlns:dc="http://purl.org/dc/elements/1.1/">
  <defs
     id="defs2">
    <rect
       x="-74.264778"
       y="25.707039"
       width="1196.8054"
       height="659.81396"
       id="rect9622" />
    <linearGradient
       id="linearGradient3824"
       inkscape:swatch="solid">
      <stop
         style="stop-color:#ff0000;stop-opacity:1;"
         offset="0"
         id="stop3822" />
    </linearGradient>
  </defs>
  <sodipodi:namedview
     id="base"
     pagecolor="#ffffff"
     bordercolor="#666666"
     borderopacity="1.0"
     inkscape:pageopacity="0.0"
     inkscape:pageshadow="2"
     inkscape:zoom="0.98462585"
     inkscape:cx="473.27622"
     inkscape:cy="99.022385"
     inkscape:document-units="mm"
     inkscape:current-layer="layer1"
     showgrid="false"
     showborder="true"
     width="200mm"
     showguides="true"
     inkscape:guide-bbox="true"
     inkscape:window-width="1280"
     inkscape:window-height="680"
     inkscape:window-x="1728"
     inkscape:window-y="641"
     inkscape:window-maximized="0"
     inkscape:pagecheckerboard="0"
     height="80mm">
    <inkscape:grid
       type="xygrid"
       id="grid815"
       units="mm"
       spacingx="10"
       spacingy="10"
       empspacing="4"
       dotted="false" />
  </sodipodi:namedview>
  <metadata
     id="metadata5">
    <rdf:RDF>
      <cc:Work
         rdf:about="">
        <dc:format>image/svg+xml</dc:format>
        <dc:type
           rdf:resource="http://purl.org/dc/dcmitype/StillImage" />
      </cc:Work>
    </rdf:RDF>
  </metadata>
  <g
     inkscape:label="Layer 1"
     inkscape:groupmode="layer"
     id="layer1"
     transform="translate(0,-177)">
    <path
       style="opacity:0.99;fill:#000000;fill-opacity:0.12;stroke:#000000;stroke-width:0.264583;stroke-miterlimit:4;stroke-dasharray:none;stroke-dashoffset:0;stroke-opacity:1;marker-start:none;marker-end:none"
       id="path845"
       sodipodi:type="arc"
       sodipodi:cx="73.305901"
       sodipodi:cy="194.90614"
       sodipodi:rx="17.138376"
       sodipodi:ry="17.138376"
       sodipodi:start="6.1848709"
       sodipodi:end="6.1778721"
       sodipodi:open="true"
       sodipodi:arc-type="arc"
       d="m 90.361516,193.22391 a 17.138376,17.138376 0 0 1 -15.34354,18.73488 17.138376,17.138376 0 0 1 -18.7617,-15.31074 17.138376,17.138376 0 0 1 15.277885,-18.78846 17.138376,17.138376 0 0 1 18.815164,15.24499" />
    <path
       style="opacity:0.99;fill:none;fill-opacity:1;stroke:#fd6b3e;stroke-width:0.264583;stroke-miterlimit:4;stroke-dasharray:none;stroke-dashoffset:0;stroke-opacity:1;marker-start:none;marker-end:none"
       id="path845-2"
       sodipodi:type="arc"
       sodipodi:cx="73.305901"
       sodipodi:cy="194.90614"
       sodipodi:rx="17.138376"
       sodipodi:ry="17.138376"
       sodipodi:start="6.1848709"
       sodipodi:end="6.1778721"
       sodipodi:open="true"
       sodipodi:arc-type="arc"
       d="m 90.361516,193.22391 a 17.138376,17.138376 0 0 1 -15.34354,18.73488 17.138376,17.138376 0 0 1 -18.7617,-15.31074 17.138376,17.138376 0 0 1 15.277885,-18.78846 17.138376,17.138376 0 0 1 18.815164,15.24499" />
    <path
       style="opacity:0.99;fill:#000000;fill-opacity:0.12;stroke:#000000;stroke-width:0.264583;stroke-miterlimit:4;stroke-dasharray:none;stroke-dashoffset:0;stroke-opacity:1;marker-start:none;marker-end:none"
       id="path845-8"
       sodipodi:type="arc"
       sodipodi:cx="119.98782"
       sodipodi:cy="194.78682"
       sodipodi:rx="17.138376"
       sodipodi:ry="17.138376"
       sodipodi:start="6.1848709"
       sodipodi:end="6.1778721"
       sodipodi:open="true"
       sodipodi:arc-type="arc"
       d="m 137.04344,193.10458 a 17.138376,17.138376 0 0 1 -15.34354,18.73489 17.138376,17.138376 0 0 1 -18.7617,-15.31074 17.138376,17.138376 0 0 1 15.27788,-18.78846 17.138376,17.138376 0 0 1 18.81517,15.24499" />
    <path
       style="opacity:0.99;fill:#000000;fill-opacity:0.12;stroke:#000000;stroke-width:0.264583;stroke-miterlimit:4;stroke-dasharray:none;stroke-dashoffset:0;stroke-opacity:1;marker-start:none;marker-end:none"
       id="path845-1"
       sodipodi:type="arc"
       sodipodi:cx="166.69417"
       sodipodi:cy="194.90614"
       sodipodi:rx="17.138376"
       sodipodi:ry="17.138376"
       sodipodi:start="6.1848709"
       sodipodi:end="6.1778721"
       sodipodi:open="true"
       sodipodi:arc-type="arc"
       d="m 183.74978,193.22391 a 17.138376,17.138376 0 0 1 -15.34354,18.73488 17.138376,17.138376 0 0 1 -18.7617,-15.31074 17.138376,17.138376 0 0 1 15.27789,-18.78846 17.138376,17.138376 0 0 1 18.81516,15.24499" />
    <path
       style="opacity:0.99;fill:none;fill-opacity:1;stroke:#fd6b3e;stroke-width:0.264583;stroke-miterlimit:4;stroke-dasharray:none;stroke-dashoffset:0;stroke-opacity:1;marker-start:none;marker-end:none"
       id="path1177"
       sodipodi:type="arc"
       sodipodi:cx="119.98781"
       sodipodi:cy="194.7868"
       sodipodi:rx="8.2717953"
       sodipodi:ry="8.2717953"
       sodipodi:start="6.1848709"
       sodipodi:end="6.1778721"
       sodipodi:open="true"
       sodipodi:arc-type="arc"
       d="m 128.21966,193.97488 a 8.2717953,8.2717953 0 0 1 -7.40552,9.04234 8.2717953,8.2717953 0 0 1 -9.05529,-7.38969 8.2717953,8.2717953 0 0 1 7.37383,-9.0682 8.2717953,8.2717953 0 0 1 9.0811,7.35795" />
    <path
       style="opacity:0.99;fill:#fd6b3e;fill-opacity:1;stroke:#fd6b3e;stroke-width:0.264583;stroke-miterlimit:4;stroke-dasharray:none;stroke-dashoffset:0;stroke-opacity:1;marker-start:none;marker-end:none"
       id="path1179"
       sodipodi:type="arc"
       sodipodi:cx="166.69414"
       sodipodi:cy="-194.90611"
       sodipodi:rx="0.56441933"
       sodipodi:ry="0.56441933"
       sodipodi:start="6.1848709"
       sodipodi:end="6.1778721"
       sodipodi:open="true"
       sodipodi:arc-type="arc"
       transform="scale(1,-1)"
       d="m 167.25583,-194.96151 a 0.56441933,0.56441933 0 0 1 -0.50531,0.61699 0.56441933,0.56441933 0 0 1 -0.61788,-0.50423 0.56441933,0.56441933 0 0 1 0.50315,-0.61876 0.56441933,0.56441933 0 0 1 0.61964,0.50207" />
    <text
       xml:space="preserve"
       style="font-size:5.64444px;line-height:1.25;font-family:sans-serif;letter-spacing:0px;word-spacing:0px;stroke-width:0.264583"
       x="67.566292"
       y="218.18535"
       id="text4200"><tspan
         sodipodi:role="line"
         id="tspan4198"
         style="stroke-width:0.264583"
         x="67.566292"
         y="218.18535">\(t=0\)</tspan></text>
    <text
       xml:space="preserve"
       style="font-size:5.64444px;line-height:1.25;font-family:sans-serif;letter-spacing:0px;word-spacing:0px;stroke-width:0.264583"
       x="114.66544"
       y="218.25591"
       id="text4200-2"><tspan
         sodipodi:role="line"
         id="tspan4198-6"
         style="stroke-width:0.264583"
         x="114.66544"
         y="218.25591">\(t=\frac{1}{2}\)</tspan></text>
    <text
       xml:space="preserve"
       style="font-size:5.64444px;line-height:1.25;font-family:sans-serif;letter-spacing:0px;word-spacing:0px;stroke-width:0.264583"
       x="162.19618"
       y="218.11589"
       id="text4200-2-7"><tspan
         sodipodi:role="line"
         id="tspan4198-6-5"
         style="stroke-width:0.264583"
         x="162.19618"
         y="218.11589">\(t=1\)</tspan></text>
    <text
       xml:space="preserve"
       transform="matrix(0.26458333,0,0,0.26458333,0,173.56455)"
       id="text9620"
       style="font-size:21.3333px;line-height:1.25;font-family:sans-serif;letter-spacing:0px;word-spacing:0px;white-space:pre;shape-inside:url(#rect9622)" />
  </g>
</svg>
