<?xml version="1.0" encoding="UTF-8" standalone="no"?>
<!-- Created with Inkscape (http://www.inkscape.org/) -->

<svg
   width="240mm"
   height="50mm"
   viewBox="0 0 240 50"
   version="1.1"
   id="svg8"
   inkscape:version="1.1.1 (c3084ef, 2021-09-22)"
   sodipodi:docname="fundamental-group-hole-detector.svg"
   xmlns:inkscape="http://www.inkscape.org/namespaces/inkscape"
   xmlns:sodipodi="http://sodipodi.sourceforge.net/DTD/sodipodi-0.dtd"
   xmlns="http://www.w3.org/2000/svg"
   xmlns:svg="http://www.w3.org/2000/svg"
   xmlns:rdf="http://www.w3.org/1999/02/22-rdf-syntax-ns#"
   xmlns:cc="http://creativecommons.org/ns#"
   xmlns:dc="http://purl.org/dc/elements/1.1/">
  <defs
     id="defs2">
    <inkscape:path-effect
       effect="spiro"
       id="path-effect1079"
       is_visible="true"
       lpeversion="1" />
    <inkscape:path-effect
       effect="spiro"
       id="path-effect2692"
       is_visible="true"
       lpeversion="1" />
    <inkscape:path-effect
       effect="spiro"
       id="path-effect1304"
       is_visible="true"
       lpeversion="1" />
    <inkscape:path-effect
       effect="spiro"
       id="path-effect1300"
       is_visible="true"
       lpeversion="1" />
    <inkscape:path-effect
       effect="spiro"
       id="path-effect1169"
       is_visible="true"
       lpeversion="1" />
    <inkscape:path-effect
       effect="spiro"
       id="path-effect880"
       is_visible="true"
       lpeversion="1" />
    <inkscape:path-effect
       effect="spiro"
       id="path-effect2124"
       is_visible="true"
       lpeversion="1" />
  </defs>
  <sodipodi:namedview
     id="base"
     pagecolor="#ffffff"
     bordercolor="#666666"
     borderopacity="1.0"
     inkscape:pageopacity="0.0"
     inkscape:pageshadow="2"
     inkscape:zoom="3.8560111"
     inkscape:cx="448.5205"
     inkscape:cy="155.60121"
     inkscape:document-units="mm"
     inkscape:current-layer="layer1"
     showgrid="false"
     showborder="true"
     width="200mm"
     showguides="true"
     inkscape:guide-bbox="true"
     inkscape:window-width="1280"
     inkscape:window-height="680"
     inkscape:window-x="1728"
     inkscape:window-y="25"
     inkscape:window-maximized="0"
     inkscape:pagecheckerboard="0">
    <inkscape:grid
       type="xygrid"
       id="grid815"
       units="mm"
       spacingx="10"
       spacingy="10"
       empspacing="4"
       dotted="false" />
  </sodipodi:namedview>
  <metadata
     id="metadata5">
    <rdf:RDF>
      <cc:Work
         rdf:about="">
        <dc:format>image/svg+xml</dc:format>
        <dc:type
           rdf:resource="http://purl.org/dc/dcmitype/StillImage" />
      </cc:Work>
    </rdf:RDF>
  </metadata>
  <g
     inkscape:label="Layer 1"
     inkscape:groupmode="layer"
     id="layer1"
     transform="translate(0,-177)">
    <path
       style="fill:none;stroke:black;stroke-width:0.26458333;stroke-linecap:butt;stroke-linejoin:miter;stroke-opacity:1;stroke-dasharray:none;fill-opacity:1;marker-start:none;marker-end:none"
       d="m 80.933021,180.43226 -23.544924,40.781"
       id="path878"
       inkscape:path-effect="#path-effect880"
       inkscape:original-d="m 80.933021,180.43226 -23.544924,40.781" />
    <path
       style="fill:none;stroke:black;stroke-width:0.26458333;stroke-linecap:butt;stroke-linejoin:miter;stroke-opacity:1;stroke-dasharray:none;fill-opacity:1;marker-start:none;marker-end:none"
       d="M 57.388097,221.21326 H 159.39079"
       id="path1167"
       inkscape:path-effect="#path-effect1169"
       inkscape:original-d="m 57.388097,221.21326 c 34.001159,2.6e-4 68.002063,2.6e-4 102.002693,0" />
    <path
       style="fill:none;stroke:black;stroke-width:0.26458333;stroke-linecap:butt;stroke-linejoin:miter;stroke-opacity:1;stroke-dasharray:none;fill-opacity:1;marker-start:none;marker-end:none"
       d="m 182.93572,180.43226 -23.54492,40.781"
       id="path878-7"
       inkscape:path-effect="#path-effect1300"
       inkscape:original-d="m 182.93572,180.43226 -23.54492,40.781" />
    <path
       style="fill:none;stroke:black;stroke-width:0.26458333;stroke-linecap:butt;stroke-linejoin:miter;stroke-opacity:1;stroke-dasharray:none;fill-opacity:1;marker-start:none;marker-end:none"
       d="M 80.933021,180.43226 H 182.93572"
       id="path1167-0"
       inkscape:path-effect="#path-effect1304"
       inkscape:original-d="m 80.933021,180.43226 c 34.001169,2.6e-4 68.002069,2.6e-4 102.002699,0" />
    <path
       style="font-variation-settings:normal;opacity:0.99;fill:none;fill-opacity:1;fill-rule:evenodd;stroke:#000000;stroke-width:0.264583;stroke-linecap:butt;stroke-linejoin:round;stroke-miterlimit:4;stroke-dasharray:none;stroke-dashoffset:0;stroke-opacity:1;marker-start:none;marker-end:none;stop-color:#000000;stop-opacity:1"
       id="path1967"
       sodipodi:type="arc"
       sodipodi:cx="97.048218"
       sodipodi:cy="192.71591"
       sodipodi:rx="1.2799612"
       sodipodi:ry="1.2799612"
       sodipodi:start="6.1848709"
       sodipodi:end="6.1778721"
       sodipodi:open="true"
       sodipodi:arc-type="arc"
       d="m 98.321998,192.59028 a 1.2799612,1.2799612 0 0 1 -1.145916,1.39919 1.2799612,1.2799612 0 0 1 -1.401197,-1.14347 1.2799612,1.2799612 0 0 1 1.141012,-1.40319 1.2799612,1.2799612 0 0 1 1.405191,1.13855" />
    <path
       style="font-variation-settings:normal;opacity:0.99;fill:none;fill-opacity:1;fill-rule:evenodd;stroke:black;stroke-width:0.26458333;stroke-linecap:butt;stroke-linejoin:round;stroke-miterlimit:4;stroke-dasharray:none;stroke-dashoffset:0;stroke-opacity:1;stop-color:#000000;stop-opacity:1;marker-start:none;marker-end:none"
       id="path1967-5"
       sodipodi:type="arc"
       sodipodi:cx="126.21783"
       sodipodi:cy="212.56555"
       sodipodi:rx="1.2799612"
       sodipodi:ry="1.2799612"
       sodipodi:start="6.1848709"
       sodipodi:end="6.1778721"
       sodipodi:open="true"
       sodipodi:arc-type="arc"
       d="m 127.49161,212.43992 a 1.2799612,1.2799612 0 0 1 -1.14592,1.39919 1.2799612,1.2799612 0 0 1 -1.4012,-1.14347 1.2799612,1.2799612 0 0 1 1.14102,-1.40319 1.2799612,1.2799612 0 0 1 1.40519,1.13855" />
    <path
       style="font-variation-settings:normal;opacity:0.99;fill:none;fill-opacity:1;fill-rule:evenodd;stroke:#000000;stroke-width:0.264583;stroke-linecap:butt;stroke-linejoin:round;stroke-miterlimit:4;stroke-dasharray:none;stroke-dashoffset:0;stroke-opacity:1;marker-start:none;marker-end:none;stop-color:#000000;stop-opacity:1"
       id="path1967-9"
       sodipodi:type="arc"
       sodipodi:cx="144.34618"
       sodipodi:cy="193.62097"
       sodipodi:rx="1.2799612"
       sodipodi:ry="1.2799612"
       sodipodi:start="6.1848709"
       sodipodi:end="6.1778721"
       sodipodi:open="true"
       sodipodi:arc-type="arc"
       d="m 145.61996,193.49534 a 1.2799612,1.2799612 0 0 1 -1.14592,1.39919 1.2799612,1.2799612 0 0 1 -1.4012,-1.14347 1.2799612,1.2799612 0 0 1 1.14102,-1.40319 1.2799612,1.2799612 0 0 1 1.40519,1.13855" />
    <path
       style="fill:none;fill-opacity:1;stroke:#000000;stroke-width:0.264583;stroke-linecap:butt;stroke-linejoin:miter;stroke-dasharray:none;stroke-opacity:1;marker-start:none;marker-end:none"
       d="m 93.781259,210.16771 c 8.530421,4.09691 18.954161,4.00906 27.414321,-0.23103 1.68464,-0.84431 3.36299,-1.86348 5.24204,-2.00508 0.93393,-0.0704 1.86802,0.0825 2.79867,0.18768 0.93065,0.10519 1.8891,0.1608 2.7895,-0.097 1.13426,-0.32473 2.09298,-1.1367 2.73281,-2.12797 0.63984,-0.99126 0.98042,-2.15226 1.13632,-3.32174 0.31179,-2.33897 -0.0862,-4.72027 0.11537,-7.0713 0.24277,-2.83131 1.42637,-5.64329 3.56456,-7.51502 1.0691,-0.93587 2.36244,-1.62333 3.74866,-1.93509 1.38623,-0.31176 2.86355,-0.24121 4.19675,0.25011 1.69847,0.62594 3.12695,1.93675 3.92644,3.56077 0.79948,1.62401 0.96895,3.54226 0.49912,5.29036 -0.39261,1.4608 -1.21037,2.78512 -2.22878,3.90357 -1.0184,1.11844 -2.23448,2.04123 -3.50491,2.86226 -2.54084,1.64206 -5.34029,2.91361 -7.63502,4.88502 -1.83757,1.57866 -3.28654,3.55159 -4.93555,5.3263 -1.64902,1.7747 -3.59876,3.40629 -5.94945,3.99202 -1.3481,0.33591 -2.76299,0.30934 -4.14205,0.14089 -1.37907,-0.16844 -2.7371,-0.47571 -4.10865,-0.6972 -4.22137,-0.6817 -8.53756,-0.5464 -12.7729,-1.1351 -4.50619,-0.62634 -8.896288,-2.07837 -12.887251,-4.26245 z"
       id="path2690"
       inkscape:path-effect="#path-effect2692"
       inkscape:original-d="m 93.781259,210.16771 c 0.97393,0 26.210641,0.29854 27.414321,-0.23103 1.87,-0.82281 0.0262,1.47215 5.24204,-2.00508 9.03723,-6.0538 -3.41924,11.3262 5.58817,0.0907 9.35322,-10.45708 -4.63372,-11.39583 3.9845,-12.52101 6.81612,-0.94032 11.09878,-9.45128 11.50997,-9.2 3.52337,2.15318 4.42556,4.88319 4.42556,8.85113 0,0.91016 -13.15375,10.71946 -13.36871,11.65085 -0.82103,3.55779 -53.844585,-57.57288 -10.885,9.31832 3.00389,4.67727 -12.14655,1.7362 -8.2507,-0.55631 6.49521,-3.82211 -5.27815,-1.55145 -12.7729,-1.1351 -13.424621,0.20683 -2.60859,0.94984 -12.887251,-4.26245 z"
       sodipodi:nodetypes="cccccsscssccc" />
    <path
       style="fill:none;fill-opacity:1;stroke:#000000;stroke-width:0.264583;stroke-linecap:butt;stroke-linejoin:miter;stroke-dasharray:none;stroke-opacity:1;marker-start:none;marker-end:none"
       d="m 93.781259,210.16771 c 0.09273,-1.87664 0.135672,-3.75574 0.128765,-5.63465 -0.0095,-2.59451 -0.114324,-5.19099 -0.405234,-7.76915 -0.152448,-1.35105 -0.356321,-2.70652 -0.276703,-4.06382 0.07962,-1.35729 0.470635,-2.7422 1.3697,-3.76213 0.911712,-1.03428 2.331908,-1.60933 3.702666,-1.46108 0.68538,0.0741 1.352013,0.32133 1.916907,0.71648 0.56489,0.39514 1.02646,0.93781 1.32092,1.56113 0.29858,0.63205 0.42368,1.33929 0.40543,2.03807 -0.0182,0.69879 -0.17684,1.38973 -0.42245,2.04418 -0.49124,1.3089 -1.31828,2.4601 -2.132235,3.59676 -1.025078,1.43148 -2.046694,2.87109 -2.896861,4.41289 -1.41707,2.56989 -2.342273,5.40987 -2.710905,8.32132 z"
       id="path1077"
       inkscape:path-effect="#path-effect1079"
       inkscape:original-d="m 93.781259,210.16771 c -1.284824,-2.02405 1.205865,-3.48045 0.128765,-5.63465 -1.324264,-2.64853 -1.650956,-5.32764 -0.405234,-7.76915 1.245722,-2.4415 -1.177254,-7.20884 1.092997,-7.82595 2.408576,-0.65688 5.204693,-1.49787 6.940493,0.81653 1.34039,1.78718 -1.47784,5.93331 -2.149255,7.67901 -0.66864,1.73847 -2.070634,2.76043 -2.896861,4.41289 -1.25578,2.52451 -0.737899,6.17758 -2.710905,8.32132 z"
       sodipodi:nodetypes="cszcsscc" />
    <path
       style="font-variation-settings:normal;opacity:0.99;fill:black;fill-opacity:1;fill-rule:evenodd;stroke:none;stroke-width:0.26458333;stroke-linecap:butt;stroke-linejoin:round;stroke-miterlimit:4;stroke-dasharray:none;stroke-dashoffset:0;stroke-opacity:1;stop-color:#000000;stop-opacity:1;marker-end:none;marker-start:none"
       id="path1330"
       sodipodi:type="arc"
       sodipodi:cx="93.631554"
       sodipodi:cy="210.23947"
       sodipodi:rx="0.68264604"
       sodipodi:ry="0.68264604"
       sodipodi:start="6.1848709"
       sodipodi:end="6.1778721"
       sodipodi:open="true"
       sodipodi:arc-type="arc"
       d="m 94.310903,210.17247 a 0.68264604,0.68264604 0 0 1 -0.611155,0.74623 0.68264604,0.68264604 0 0 1 -0.747305,-0.60985 0.68264604,0.68264604 0 0 1 0.60854,-0.74837 0.68264604,0.68264604 0 0 1 0.749435,0.60723" />
  </g>
</svg>
