<?xml version="1.0" encoding="UTF-8" standalone="no"?>
<!-- Created with Inkscape (http://www.inkscape.org/) -->

<svg
   width="240mm"
   height="29mm"
   viewBox="0 0 240 29"
   version="1.1"
   id="svg8"
   inkscape:version="1.3.2 (091e20e, 2023-11-25)"
   sodipodi:docname="highway.svg"
   xmlns:inkscape="http://www.inkscape.org/namespaces/inkscape"
   xmlns:sodipodi="http://sodipodi.sourceforge.net/DTD/sodipodi-0.dtd"
   xmlns="http://www.w3.org/2000/svg"
   xmlns:svg="http://www.w3.org/2000/svg"
   xmlns:rdf="http://www.w3.org/1999/02/22-rdf-syntax-ns#"
   xmlns:cc="http://creativecommons.org/ns#"
   xmlns:dc="http://purl.org/dc/elements/1.1/">
  <defs
     id="defs2" />
  <sodipodi:namedview
     id="base"
     pagecolor="#ffffff"
     bordercolor="#666666"
     borderopacity="1.0"
     inkscape:pageopacity="0.0"
     inkscape:pageshadow="2"
     inkscape:zoom="2.234434"
     inkscape:cx="424.04474"
     inkscape:cy="127.99662"
     inkscape:document-units="mm"
     inkscape:current-layer="layer1"
     showgrid="false"
     showborder="true"
     width="200mm"
     showguides="true"
     inkscape:guide-bbox="true"
     inkscape:window-width="2560"
     inkscape:window-height="1387"
     inkscape:window-x="1728"
     inkscape:window-y="355"
     inkscape:window-maximized="0"
     inkscape:showpageshadow="2"
     inkscape:pagecheckerboard="0"
     inkscape:deskcolor="#d1d1d1">
    <inkscape:grid
       type="xygrid"
       id="grid815"
       units="mm"
       spacingx="10"
       spacingy="10"
       empspacing="4"
       dotted="false"
       originx="0"
       originy="0"
       visible="false" />
  </sodipodi:namedview>
  <metadata
     id="metadata5">
    <rdf:RDF>
      <cc:Work
         rdf:about="">
        <dc:format>image/svg+xml</dc:format>
        <dc:type
           rdf:resource="http://purl.org/dc/dcmitype/StillImage" />
      </cc:Work>
    </rdf:RDF>
  </metadata>
  <g
     inkscape:label="Layer 1"
     inkscape:groupmode="layer"
     id="layer1"
     transform="translate(0,-177)">
    <path
       style="font-variation-settings:normal;vector-effect:none;fill:#000000;fill-opacity:1;fill-rule:evenodd;stroke:none;stroke-width:0.264583;stroke-linecap:butt;stroke-linejoin:miter;stroke-miterlimit:4;stroke-dasharray:none;stroke-dashoffset:0;stroke-opacity:1;-inkscape-stroke:none;marker-start:none;marker-end:none;stop-color:#000000"
       id="path1"
       sodipodi:type="arc"
       sodipodi:cx="87.9021"
       sodipodi:cy="191.18509"
       sodipodi:rx="1.2205055"
       sodipodi:ry="1.2205055"
       sodipodi:start="0.0055031666"
       sodipodi:end="6.2778404"
       sodipodi:open="true"
       sodipodi:arc-type="arc"
       d="m 89.122587,191.19181 a 1.2205055,1.2205055 0 0 1 -1.223894,1.21378 1.2205055,1.2205055 0 0 1 -1.217099,-1.2206 1.2205055,1.2205055 0 0 1 1.217292,-1.2204 1.2205055,1.2205055 0 0 1 1.223702,1.21398" />
    <text
       xml:space="preserve"
       style="font-size:4.9389px;line-height:1.25;font-family:sans-serif;text-decoration-color:#000000;letter-spacing:0px;word-spacing:0px;fill:#000000;stroke-width:0.264999;-inkscape-stroke:none;stop-color:#000000"
       x="87.026329"
       y="196.67888"
       id="text2"><tspan
         sodipodi:role="line"
         id="tspan2"
         style="stroke-width:0.265"
         x="87.026329"
         y="196.67888">\(s\)</tspan></text>
    <path
       style="font-variation-settings:normal;vector-effect:none;fill:#000000;fill-opacity:1;fill-rule:evenodd;stroke:none;stroke-width:0.264583;stroke-linecap:butt;stroke-linejoin:miter;stroke-miterlimit:4;stroke-dasharray:none;stroke-dashoffset:0;stroke-opacity:1;-inkscape-stroke:none;marker-start:none;marker-end:none;stop-color:#000000"
       id="path1-8"
       sodipodi:type="arc"
       sodipodi:cx="103.77708"
       sodipodi:cy="177.9559"
       sodipodi:rx="1.2205055"
       sodipodi:ry="1.2205055"
       sodipodi:start="0.0055031666"
       sodipodi:end="6.2778404"
       sodipodi:open="true"
       sodipodi:arc-type="arc"
       d="m 104.99756,177.96262 a 1.2205055,1.2205055 0 0 1 -1.22389,1.21378 1.2205055,1.2205055 0 0 1 -1.2171,-1.22059 1.2205055,1.2205055 0 0 1 1.21729,-1.22041 1.2205055,1.2205055 0 0 1 1.2237,1.21398" />
    <path
       style="font-variation-settings:normal;vector-effect:none;fill:#000000;fill-opacity:1;fill-rule:evenodd;stroke:none;stroke-width:0.264583;stroke-linecap:butt;stroke-linejoin:miter;stroke-miterlimit:4;stroke-dasharray:none;stroke-dashoffset:0;stroke-opacity:1;-inkscape-stroke:none;marker-start:none;marker-end:none;stop-color:#000000"
       id="path3"
       sodipodi:type="arc"
       sodipodi:cx="103.77708"
       sodipodi:cy="183.24757"
       sodipodi:rx="1.2205055"
       sodipodi:ry="1.2205055"
       sodipodi:start="0.0055031666"
       sodipodi:end="6.2778404"
       sodipodi:open="true"
       sodipodi:arc-type="arc"
       d="m 104.99756,183.25429 a 1.2205055,1.2205055 0 0 1 -1.22389,1.21378 1.2205055,1.2205055 0 0 1 -1.2171,-1.22059 1.2205055,1.2205055 0 0 1 1.21729,-1.22041 1.2205055,1.2205055 0 0 1 1.2237,1.21398" />
    <g
       id="g36"
       transform="translate(30.06077,-21.166667)">
      <path
         style="font-variation-settings:normal;vector-effect:none;fill:#000000;fill-opacity:1;fill-rule:evenodd;stroke:none;stroke-width:0.264583;stroke-linecap:butt;stroke-linejoin:miter;stroke-miterlimit:4;stroke-dasharray:none;stroke-dashoffset:0;stroke-opacity:1;-inkscape-stroke:none;marker-start:none;marker-end:none;stop-color:#000000"
         id="path4"
         sodipodi:type="arc"
         sodipodi:cx="73.716339"
         sodipodi:cy="209.70593"
         sodipodi:rx="1.2205055"
         sodipodi:ry="1.2205055"
         sodipodi:start="0.0055031666"
         sodipodi:end="6.2778404"
         sodipodi:open="true"
         sodipodi:arc-type="arc"
         d="m 74.936826,209.71265 a 1.2205055,1.2205055 0 0 1 -1.223893,1.21378 1.2205055,1.2205055 0 0 1 -1.217099,-1.22059 1.2205055,1.2205055 0 0 1 1.217292,-1.22041 1.2205055,1.2205055 0 0 1 1.223701,1.21398" />
      <path
         style="font-variation-settings:normal;vector-effect:none;fill:#000000;fill-opacity:1;fill-rule:evenodd;stroke:none;stroke-width:0.264583;stroke-linecap:butt;stroke-linejoin:miter;stroke-miterlimit:4;stroke-dasharray:none;stroke-dashoffset:0;stroke-opacity:1;-inkscape-stroke:none;marker-start:none;marker-end:none;stop-color:#000000"
         id="path5"
         sodipodi:type="arc"
         sodipodi:cx="73.716339"
         sodipodi:cy="214.9976"
         sodipodi:rx="1.2205055"
         sodipodi:ry="1.2205055"
         sodipodi:start="0.0055031666"
         sodipodi:end="6.2778404"
         sodipodi:open="true"
         sodipodi:arc-type="arc"
         d="m 74.936826,215.00432 a 1.2205055,1.2205055 0 0 1 -1.223893,1.21379 1.2205055,1.2205055 0 0 1 -1.217099,-1.2206 1.2205055,1.2205055 0 0 1 1.217292,-1.22041 1.2205055,1.2205055 0 0 1 1.223701,1.21398" />
    </g>
    <path
       style="font-variation-settings:normal;vector-effect:none;fill:#000000;fill-opacity:1;fill-rule:evenodd;stroke:none;stroke-width:0.264583;stroke-linecap:butt;stroke-linejoin:miter;stroke-miterlimit:4;stroke-dasharray:none;stroke-dashoffset:0;stroke-opacity:1;-inkscape-stroke:none;marker-start:none;marker-end:none;stop-color:#000000"
       id="path7"
       sodipodi:type="arc"
       sodipodi:cx="103.77708"
       sodipodi:cy="204.41426"
       sodipodi:rx="1.2205055"
       sodipodi:ry="1.2205055"
       sodipodi:start="0.0055031666"
       sodipodi:end="6.2778404"
       sodipodi:open="true"
       sodipodi:arc-type="arc"
       d="m 104.99756,204.42098 a 1.2205055,1.2205055 0 0 1 -1.22389,1.21378 1.2205055,1.2205055 0 0 1 -1.2171,-1.2206 1.2205055,1.2205055 0 0 1 1.21729,-1.2204 1.2205055,1.2205055 0 0 1 1.2237,1.21398" />
    <path
       style="font-variation-settings:normal;vector-effect:none;fill:#000000;fill-opacity:1;fill-rule:evenodd;stroke:none;stroke-width:0.264583;stroke-linecap:butt;stroke-linejoin:miter;stroke-miterlimit:4;stroke-dasharray:none;stroke-dashoffset:0;stroke-opacity:1;-inkscape-stroke:none;marker-start:none;marker-end:none;stop-color:#000000"
       id="path8"
       sodipodi:type="arc"
       sodipodi:cx="103.77708"
       sodipodi:cy="204.41426"
       sodipodi:rx="1.2205055"
       sodipodi:ry="1.2205055"
       sodipodi:start="0.0055031666"
       sodipodi:end="6.2778404"
       sodipodi:open="true"
       sodipodi:arc-type="arc"
       d="m 104.99756,204.42098 a 1.2205055,1.2205055 0 0 1 -1.22389,1.21378 1.2205055,1.2205055 0 0 1 -1.2171,-1.2206 1.2205055,1.2205055 0 0 1 1.21729,-1.2204 1.2205055,1.2205055 0 0 1 1.2237,1.21398" />
    <path
       style="font-variation-settings:normal;vector-effect:none;fill:#000000;fill-opacity:1;fill-rule:evenodd;stroke:none;stroke-width:0.264583;stroke-linecap:butt;stroke-linejoin:miter;stroke-miterlimit:4;stroke-dasharray:none;stroke-dashoffset:0;stroke-opacity:1;-inkscape-stroke:none;marker-start:none;marker-end:none;stop-color:#000000"
       id="path9"
       sodipodi:type="arc"
       sodipodi:cx="114.3604"
       sodipodi:cy="177.9559"
       sodipodi:rx="1.2205055"
       sodipodi:ry="1.2205055"
       sodipodi:start="0.0055031666"
       sodipodi:end="6.2778404"
       sodipodi:open="true"
       sodipodi:arc-type="arc"
       d="m 115.58088,177.96262 a 1.2205055,1.2205055 0 0 1 -1.22389,1.21378 1.2205055,1.2205055 0 0 1 -1.2171,-1.22059 1.2205055,1.2205055 0 0 1 1.21729,-1.22041 1.2205055,1.2205055 0 0 1 1.22371,1.21398" />
    <path
       style="font-variation-settings:normal;vector-effect:none;fill:#000000;fill-opacity:1;fill-rule:evenodd;stroke:none;stroke-width:0.264583;stroke-linecap:butt;stroke-linejoin:miter;stroke-miterlimit:4;stroke-dasharray:none;stroke-dashoffset:0;stroke-opacity:1;-inkscape-stroke:none;marker-start:none;marker-end:none;stop-color:#000000"
       id="path10"
       sodipodi:type="arc"
       sodipodi:cx="114.3604"
       sodipodi:cy="183.24757"
       sodipodi:rx="1.2205055"
       sodipodi:ry="1.2205055"
       sodipodi:start="0.0055031666"
       sodipodi:end="6.2778404"
       sodipodi:open="true"
       sodipodi:arc-type="arc"
       d="m 115.58088,183.25429 a 1.2205055,1.2205055 0 0 1 -1.22389,1.21378 1.2205055,1.2205055 0 0 1 -1.2171,-1.22059 1.2205055,1.2205055 0 0 1 1.21729,-1.22041 1.2205055,1.2205055 0 0 1 1.22371,1.21398" />
    <path
       style="font-variation-settings:normal;vector-effect:none;fill:#000000;fill-opacity:1;fill-rule:evenodd;stroke:none;stroke-width:0.264583;stroke-linecap:butt;stroke-linejoin:miter;stroke-miterlimit:4;stroke-dasharray:none;stroke-dashoffset:0;stroke-opacity:1;-inkscape-stroke:none;marker-start:none;marker-end:none;stop-color:#000000"
       id="path11"
       sodipodi:type="arc"
       sodipodi:cx="114.3604"
       sodipodi:cy="188.53925"
       sodipodi:rx="1.2205055"
       sodipodi:ry="1.2205055"
       sodipodi:start="0.0055031666"
       sodipodi:end="6.2778404"
       sodipodi:open="true"
       sodipodi:arc-type="arc"
       d="m 115.58088,188.54596 a 1.2205055,1.2205055 0 0 1 -1.22389,1.21379 1.2205055,1.2205055 0 0 1 -1.2171,-1.2206 1.2205055,1.2205055 0 0 1 1.21729,-1.22041 1.2205055,1.2205055 0 0 1 1.22371,1.21398" />
    <path
       style="font-variation-settings:normal;vector-effect:none;fill:#000000;fill-opacity:1;fill-rule:evenodd;stroke:none;stroke-width:0.264583;stroke-linecap:butt;stroke-linejoin:miter;stroke-miterlimit:4;stroke-dasharray:none;stroke-dashoffset:0;stroke-opacity:1;-inkscape-stroke:none;marker-start:none;marker-end:none;stop-color:#000000"
       id="path12"
       sodipodi:type="arc"
       sodipodi:cx="114.3604"
       sodipodi:cy="193.83092"
       sodipodi:rx="1.2205055"
       sodipodi:ry="1.2205055"
       sodipodi:start="0.0055031666"
       sodipodi:end="6.2778404"
       sodipodi:open="true"
       sodipodi:arc-type="arc"
       d="m 115.58088,193.83763 a 1.2205055,1.2205055 0 0 1 -1.22389,1.21379 1.2205055,1.2205055 0 0 1 -1.2171,-1.2206 1.2205055,1.2205055 0 0 1 1.21729,-1.2204 1.2205055,1.2205055 0 0 1 1.22371,1.21397" />
    <path
       style="font-variation-settings:normal;vector-effect:none;fill:#000000;fill-opacity:1;fill-rule:evenodd;stroke:none;stroke-width:0.264583;stroke-linecap:butt;stroke-linejoin:miter;stroke-miterlimit:4;stroke-dasharray:none;stroke-dashoffset:0;stroke-opacity:1;-inkscape-stroke:none;marker-start:none;marker-end:none;stop-color:#000000"
       id="path14"
       sodipodi:type="arc"
       sodipodi:cx="114.3604"
       sodipodi:cy="204.41426"
       sodipodi:rx="1.2205055"
       sodipodi:ry="1.2205055"
       sodipodi:start="0.0055031666"
       sodipodi:end="6.2778404"
       sodipodi:open="true"
       sodipodi:arc-type="arc"
       d="m 115.58088,204.42098 a 1.2205055,1.2205055 0 0 1 -1.22389,1.21378 1.2205055,1.2205055 0 0 1 -1.2171,-1.2206 1.2205055,1.2205055 0 0 1 1.21729,-1.2204 1.2205055,1.2205055 0 0 1 1.22371,1.21398" />
    <path
       style="font-variation-settings:normal;vector-effect:none;fill:#000000;fill-opacity:1;fill-rule:evenodd;stroke:none;stroke-width:0.264583;stroke-linecap:butt;stroke-linejoin:miter;stroke-miterlimit:4;stroke-dasharray:none;stroke-dashoffset:0;stroke-opacity:1;-inkscape-stroke:none;marker-start:none;marker-end:none;stop-color:#000000"
       id="path15"
       sodipodi:type="arc"
       sodipodi:cx="114.3604"
       sodipodi:cy="204.41426"
       sodipodi:rx="1.2205055"
       sodipodi:ry="1.2205055"
       sodipodi:start="0.0055031666"
       sodipodi:end="6.2778404"
       sodipodi:open="true"
       sodipodi:arc-type="arc"
       d="m 115.58088,204.42098 a 1.2205055,1.2205055 0 0 1 -1.22389,1.21378 1.2205055,1.2205055 0 0 1 -1.2171,-1.2206 1.2205055,1.2205055 0 0 1 1.21729,-1.2204 1.2205055,1.2205055 0 0 1 1.22371,1.21398" />
    <path
       style="font-variation-settings:normal;vector-effect:none;fill:#000000;fill-opacity:1;fill-rule:evenodd;stroke:none;stroke-width:0.264583;stroke-linecap:butt;stroke-linejoin:miter;stroke-miterlimit:4;stroke-dasharray:none;stroke-dashoffset:0;stroke-opacity:1;-inkscape-stroke:none;marker-start:none;marker-end:none;stop-color:#000000"
       id="path36"
       sodipodi:type="arc"
       sodipodi:cx="151.4021"
       sodipodi:cy="191.18509"
       sodipodi:rx="1.2205055"
       sodipodi:ry="1.2205055"
       sodipodi:start="0.0055031666"
       sodipodi:end="6.2778404"
       sodipodi:open="true"
       sodipodi:arc-type="arc"
       d="m 152.62259,191.19181 a 1.2205055,1.2205055 0 0 1 -1.2239,1.21378 1.2205055,1.2205055 0 0 1 -1.2171,-1.2206 1.2205055,1.2205055 0 0 1 1.2173,-1.2204 1.2205055,1.2205055 0 0 1 1.2237,1.21398" />
    <path
       style="fill:none;stroke:#000000;stroke-width:0.264583px;stroke-linecap:butt;stroke-linejoin:miter;stroke-opacity:1"
       d="m 87.9021,191.1851 15.875,-13.22919"
       id="path37" />
    <path
       style="fill:none;stroke:#000000;stroke-width:0.264583px;stroke-linecap:butt;stroke-linejoin:miter;stroke-opacity:1"
       d="m 103.7771,183.24758 -15.875,7.93752"
       id="path38" />
    <path
       style="fill:none;stroke:#000000;stroke-width:0.264583px;stroke-linecap:butt;stroke-linejoin:miter;stroke-opacity:1"
       d="m 103.7771,188.53925 -15.875,2.64585"
       id="path39" />
    <path
       style="fill:none;stroke:#000000;stroke-width:0.264583px;stroke-linecap:butt;stroke-linejoin:miter;stroke-opacity:1"
       d="M 103.7771,193.83092 87.9021,191.1851"
       id="path40" />
    <path
       style="fill:none;stroke:#000000;stroke-width:0.264583px;stroke-linecap:butt;stroke-linejoin:miter;stroke-opacity:1"
       d="m 87.9021,191.1851 15.875,13.22917"
       id="path41" />
    <path
       style="fill:none;stroke:#000000;stroke-width:0.264583px;stroke-linecap:butt;stroke-linejoin:miter;stroke-opacity:1"
       d="m 103.7771,177.95591 h 10.58334"
       id="path42" />
    <path
       style="fill:none;stroke:#000000;stroke-width:0.264583px;stroke-linecap:butt;stroke-linejoin:miter;stroke-opacity:1"
       d="m 103.7771,183.24758 h 10.58334"
       id="path43" />
    <path
       style="fill:none;stroke:#000000;stroke-width:0.264583px;stroke-linecap:butt;stroke-linejoin:miter;stroke-opacity:1"
       d="m 103.7771,188.53925 h 10.58334"
       id="path44" />
    <path
       style="fill:none;stroke:#000000;stroke-width:0.264583px;stroke-linecap:butt;stroke-linejoin:miter;stroke-opacity:1"
       d="m 103.7771,193.83092 h 10.58334"
       id="path45" />
    <path
       style="fill:none;stroke:#000000;stroke-width:0.264583px;stroke-linecap:butt;stroke-linejoin:miter;stroke-opacity:1"
       d="m 103.7771,204.41426 h 10.58334"
       id="path46" />
    <path
       style="font-variation-settings:normal;vector-effect:none;fill:#000000;fill-opacity:1;fill-rule:evenodd;stroke:none;stroke-width:0.264583;stroke-linecap:butt;stroke-linejoin:miter;stroke-miterlimit:4;stroke-dasharray:none;stroke-dashoffset:0;stroke-opacity:1;-inkscape-stroke:none;marker-start:none;marker-end:none;stop-color:#000000"
       id="path47"
       sodipodi:type="arc"
       sodipodi:cx="124.94374"
       sodipodi:cy="177.9559"
       sodipodi:rx="1.2205055"
       sodipodi:ry="1.2205055"
       sodipodi:start="0.0055031666"
       sodipodi:end="6.2778404"
       sodipodi:open="true"
       sodipodi:arc-type="arc"
       d="m 126.16423,177.96262 a 1.2205055,1.2205055 0 0 1 -1.2239,1.21378 1.2205055,1.2205055 0 0 1 -1.21709,-1.22059 1.2205055,1.2205055 0 0 1 1.21729,-1.22041 1.2205055,1.2205055 0 0 1 1.2237,1.21398" />
    <path
       style="font-variation-settings:normal;vector-effect:none;fill:#000000;fill-opacity:1;fill-rule:evenodd;stroke:none;stroke-width:0.264583;stroke-linecap:butt;stroke-linejoin:miter;stroke-miterlimit:4;stroke-dasharray:none;stroke-dashoffset:0;stroke-opacity:1;-inkscape-stroke:none;marker-start:none;marker-end:none;stop-color:#000000"
       id="path48"
       sodipodi:type="arc"
       sodipodi:cx="124.94374"
       sodipodi:cy="183.24757"
       sodipodi:rx="1.2205055"
       sodipodi:ry="1.2205055"
       sodipodi:start="0.0055031666"
       sodipodi:end="6.2778404"
       sodipodi:open="true"
       sodipodi:arc-type="arc"
       d="m 126.16423,183.25429 a 1.2205055,1.2205055 0 0 1 -1.2239,1.21378 1.2205055,1.2205055 0 0 1 -1.21709,-1.22059 1.2205055,1.2205055 0 0 1 1.21729,-1.22041 1.2205055,1.2205055 0 0 1 1.2237,1.21398" />
    <g
       id="g50"
       transform="translate(51.227438,-21.166667)">
      <path
         style="font-variation-settings:normal;vector-effect:none;fill:#000000;fill-opacity:1;fill-rule:evenodd;stroke:none;stroke-width:0.264583;stroke-linecap:butt;stroke-linejoin:miter;stroke-miterlimit:4;stroke-dasharray:none;stroke-dashoffset:0;stroke-opacity:1;-inkscape-stroke:none;marker-start:none;marker-end:none;stop-color:#000000"
         id="path49"
         sodipodi:type="arc"
         sodipodi:cx="73.716339"
         sodipodi:cy="209.70593"
         sodipodi:rx="1.2205055"
         sodipodi:ry="1.2205055"
         sodipodi:start="0.0055031666"
         sodipodi:end="6.2778404"
         sodipodi:open="true"
         sodipodi:arc-type="arc"
         d="m 74.936826,209.71265 a 1.2205055,1.2205055 0 0 1 -1.223893,1.21378 1.2205055,1.2205055 0 0 1 -1.217099,-1.22059 1.2205055,1.2205055 0 0 1 1.217292,-1.22041 1.2205055,1.2205055 0 0 1 1.223701,1.21398" />
      <path
         style="font-variation-settings:normal;vector-effect:none;fill:#000000;fill-opacity:1;fill-rule:evenodd;stroke:none;stroke-width:0.264583;stroke-linecap:butt;stroke-linejoin:miter;stroke-miterlimit:4;stroke-dasharray:none;stroke-dashoffset:0;stroke-opacity:1;-inkscape-stroke:none;marker-start:none;marker-end:none;stop-color:#000000"
         id="path50"
         sodipodi:type="arc"
         sodipodi:cx="73.716339"
         sodipodi:cy="214.9976"
         sodipodi:rx="1.2205055"
         sodipodi:ry="1.2205055"
         sodipodi:start="0.0055031666"
         sodipodi:end="6.2778404"
         sodipodi:open="true"
         sodipodi:arc-type="arc"
         d="m 74.936826,215.00432 a 1.2205055,1.2205055 0 0 1 -1.223893,1.21379 1.2205055,1.2205055 0 0 1 -1.217099,-1.2206 1.2205055,1.2205055 0 0 1 1.217292,-1.22041 1.2205055,1.2205055 0 0 1 1.223701,1.21398" />
    </g>
    <path
       style="font-variation-settings:normal;vector-effect:none;fill:#000000;fill-opacity:1;fill-rule:evenodd;stroke:none;stroke-width:0.264583;stroke-linecap:butt;stroke-linejoin:miter;stroke-miterlimit:4;stroke-dasharray:none;stroke-dashoffset:0;stroke-opacity:1;-inkscape-stroke:none;marker-start:none;marker-end:none;stop-color:#000000"
       id="path51"
       sodipodi:type="arc"
       sodipodi:cx="124.94374"
       sodipodi:cy="204.41426"
       sodipodi:rx="1.2205055"
       sodipodi:ry="1.2205055"
       sodipodi:start="0.0055031666"
       sodipodi:end="6.2778404"
       sodipodi:open="true"
       sodipodi:arc-type="arc"
       d="m 126.16423,204.42098 a 1.2205055,1.2205055 0 0 1 -1.2239,1.21378 1.2205055,1.2205055 0 0 1 -1.21709,-1.2206 1.2205055,1.2205055 0 0 1 1.21729,-1.2204 1.2205055,1.2205055 0 0 1 1.2237,1.21398" />
    <path
       style="font-variation-settings:normal;vector-effect:none;fill:#000000;fill-opacity:1;fill-rule:evenodd;stroke:none;stroke-width:0.264583;stroke-linecap:butt;stroke-linejoin:miter;stroke-miterlimit:4;stroke-dasharray:none;stroke-dashoffset:0;stroke-opacity:1;-inkscape-stroke:none;marker-start:none;marker-end:none;stop-color:#000000"
       id="path52"
       sodipodi:type="arc"
       sodipodi:cx="124.94374"
       sodipodi:cy="204.41426"
       sodipodi:rx="1.2205055"
       sodipodi:ry="1.2205055"
       sodipodi:start="0.0055031666"
       sodipodi:end="6.2778404"
       sodipodi:open="true"
       sodipodi:arc-type="arc"
       d="m 126.16423,204.42098 a 1.2205055,1.2205055 0 0 1 -1.2239,1.21378 1.2205055,1.2205055 0 0 1 -1.21709,-1.2206 1.2205055,1.2205055 0 0 1 1.21729,-1.2204 1.2205055,1.2205055 0 0 1 1.2237,1.21398" />
    <path
       style="font-variation-settings:normal;vector-effect:none;fill:#000000;fill-opacity:1;fill-rule:evenodd;stroke:none;stroke-width:0.264583;stroke-linecap:butt;stroke-linejoin:miter;stroke-miterlimit:4;stroke-dasharray:none;stroke-dashoffset:0;stroke-opacity:1;-inkscape-stroke:none;marker-start:none;marker-end:none;stop-color:#000000"
       id="path53"
       sodipodi:type="arc"
       sodipodi:cx="135.52708"
       sodipodi:cy="177.9559"
       sodipodi:rx="1.2205055"
       sodipodi:ry="1.2205055"
       sodipodi:start="0.0055031666"
       sodipodi:end="6.2778404"
       sodipodi:open="true"
       sodipodi:arc-type="arc"
       d="m 136.74757,177.96262 a 1.2205055,1.2205055 0 0 1 -1.22389,1.21378 1.2205055,1.2205055 0 0 1 -1.2171,-1.22059 1.2205055,1.2205055 0 0 1 1.21729,-1.22041 1.2205055,1.2205055 0 0 1 1.2237,1.21398" />
    <path
       style="font-variation-settings:normal;vector-effect:none;fill:#000000;fill-opacity:1;fill-rule:evenodd;stroke:none;stroke-width:0.264583;stroke-linecap:butt;stroke-linejoin:miter;stroke-miterlimit:4;stroke-dasharray:none;stroke-dashoffset:0;stroke-opacity:1;-inkscape-stroke:none;marker-start:none;marker-end:none;stop-color:#000000"
       id="path54"
       sodipodi:type="arc"
       sodipodi:cx="135.52708"
       sodipodi:cy="183.24757"
       sodipodi:rx="1.2205055"
       sodipodi:ry="1.2205055"
       sodipodi:start="0.0055031666"
       sodipodi:end="6.2778404"
       sodipodi:open="true"
       sodipodi:arc-type="arc"
       d="m 136.74757,183.25429 a 1.2205055,1.2205055 0 0 1 -1.22389,1.21378 1.2205055,1.2205055 0 0 1 -1.2171,-1.22059 1.2205055,1.2205055 0 0 1 1.21729,-1.22041 1.2205055,1.2205055 0 0 1 1.2237,1.21398" />
    <path
       style="font-variation-settings:normal;vector-effect:none;fill:#000000;fill-opacity:1;fill-rule:evenodd;stroke:none;stroke-width:0.264583;stroke-linecap:butt;stroke-linejoin:miter;stroke-miterlimit:4;stroke-dasharray:none;stroke-dashoffset:0;stroke-opacity:1;-inkscape-stroke:none;marker-start:none;marker-end:none;stop-color:#000000"
       id="path55"
       sodipodi:type="arc"
       sodipodi:cx="135.52708"
       sodipodi:cy="188.53925"
       sodipodi:rx="1.2205055"
       sodipodi:ry="1.2205055"
       sodipodi:start="0.0055031666"
       sodipodi:end="6.2778404"
       sodipodi:open="true"
       sodipodi:arc-type="arc"
       d="m 136.74757,188.54596 a 1.2205055,1.2205055 0 0 1 -1.22389,1.21379 1.2205055,1.2205055 0 0 1 -1.2171,-1.2206 1.2205055,1.2205055 0 0 1 1.21729,-1.22041 1.2205055,1.2205055 0 0 1 1.2237,1.21398" />
    <path
       style="font-variation-settings:normal;vector-effect:none;fill:#000000;fill-opacity:1;fill-rule:evenodd;stroke:none;stroke-width:0.264583;stroke-linecap:butt;stroke-linejoin:miter;stroke-miterlimit:4;stroke-dasharray:none;stroke-dashoffset:0;stroke-opacity:1;-inkscape-stroke:none;marker-start:none;marker-end:none;stop-color:#000000"
       id="path56"
       sodipodi:type="arc"
       sodipodi:cx="135.52708"
       sodipodi:cy="193.83092"
       sodipodi:rx="1.2205055"
       sodipodi:ry="1.2205055"
       sodipodi:start="0.0055031666"
       sodipodi:end="6.2778404"
       sodipodi:open="true"
       sodipodi:arc-type="arc"
       d="m 136.74757,193.83763 a 1.2205055,1.2205055 0 0 1 -1.22389,1.21379 1.2205055,1.2205055 0 0 1 -1.2171,-1.2206 1.2205055,1.2205055 0 0 1 1.21729,-1.2204 1.2205055,1.2205055 0 0 1 1.2237,1.21397" />
    <path
       style="font-variation-settings:normal;vector-effect:none;fill:#000000;fill-opacity:1;fill-rule:evenodd;stroke:none;stroke-width:0.264583;stroke-linecap:butt;stroke-linejoin:miter;stroke-miterlimit:4;stroke-dasharray:none;stroke-dashoffset:0;stroke-opacity:1;-inkscape-stroke:none;marker-start:none;marker-end:none;stop-color:#000000"
       id="path57"
       sodipodi:type="arc"
       sodipodi:cx="135.52708"
       sodipodi:cy="204.41426"
       sodipodi:rx="1.2205055"
       sodipodi:ry="1.2205055"
       sodipodi:start="0.0055031666"
       sodipodi:end="6.2778404"
       sodipodi:open="true"
       sodipodi:arc-type="arc"
       d="m 136.74757,204.42098 a 1.2205055,1.2205055 0 0 1 -1.22389,1.21378 1.2205055,1.2205055 0 0 1 -1.2171,-1.2206 1.2205055,1.2205055 0 0 1 1.21729,-1.2204 1.2205055,1.2205055 0 0 1 1.2237,1.21398" />
    <path
       style="font-variation-settings:normal;vector-effect:none;fill:#000000;fill-opacity:1;fill-rule:evenodd;stroke:none;stroke-width:0.264583;stroke-linecap:butt;stroke-linejoin:miter;stroke-miterlimit:4;stroke-dasharray:none;stroke-dashoffset:0;stroke-opacity:1;-inkscape-stroke:none;marker-start:none;marker-end:none;stop-color:#000000"
       id="path58"
       sodipodi:type="arc"
       sodipodi:cx="135.52708"
       sodipodi:cy="204.41426"
       sodipodi:rx="1.2205055"
       sodipodi:ry="1.2205055"
       sodipodi:start="0.0055031666"
       sodipodi:end="6.2778404"
       sodipodi:open="true"
       sodipodi:arc-type="arc"
       d="m 136.74757,204.42098 a 1.2205055,1.2205055 0 0 1 -1.22389,1.21378 1.2205055,1.2205055 0 0 1 -1.2171,-1.2206 1.2205055,1.2205055 0 0 1 1.21729,-1.2204 1.2205055,1.2205055 0 0 1 1.2237,1.21398" />
    <path
       style="fill:none;stroke:#000000;stroke-width:0.264583px;stroke-linecap:butt;stroke-linejoin:miter;stroke-opacity:1"
       d="m 124.94378,177.95591 h 10.58334"
       id="path59" />
    <path
       style="fill:none;stroke:#000000;stroke-width:0.264583px;stroke-linecap:butt;stroke-linejoin:miter;stroke-opacity:1"
       d="m 124.94378,183.24758 h 10.58334"
       id="path60" />
    <path
       style="fill:none;stroke:#000000;stroke-width:0.264583px;stroke-linecap:butt;stroke-linejoin:miter;stroke-opacity:1"
       d="m 124.94378,188.53925 h 10.58334"
       id="path61" />
    <path
       style="fill:none;stroke:#000000;stroke-width:0.264583px;stroke-linecap:butt;stroke-linejoin:miter;stroke-opacity:1"
       d="m 124.94378,193.83092 h 10.58334"
       id="path62" />
    <path
       style="fill:none;stroke:#000000;stroke-width:0.264583px;stroke-linecap:butt;stroke-linejoin:miter;stroke-opacity:1"
       d="m 124.94378,204.41426 h 10.58334"
       id="path63" />
    <path
       style="fill:none;stroke:#000000;stroke-width:0.264583px;stroke-linecap:butt;stroke-linejoin:miter;stroke-opacity:1"
       d="m 135.52712,177.95591 15.87496,13.22919"
       id="path64" />
    <path
       style="fill:none;stroke:#000000;stroke-width:0.264583px;stroke-linecap:butt;stroke-linejoin:miter;stroke-opacity:1"
       d="m 135.52712,183.24758 15.87496,7.93752"
       id="path65" />
    <path
       style="fill:none;stroke:#000000;stroke-width:0.264583px;stroke-linecap:butt;stroke-linejoin:miter;stroke-opacity:1"
       d="m 135.52712,188.53925 15.87496,2.64585"
       id="path66" />
    <path
       style="fill:none;stroke:#000000;stroke-width:0.264583px;stroke-linecap:butt;stroke-linejoin:miter;stroke-opacity:1"
       d="m 135.52712,193.83092 15.87496,-2.64582"
       id="path67" />
    <path
       style="fill:none;stroke:#000000;stroke-width:0.264583px;stroke-linecap:butt;stroke-linejoin:miter;stroke-opacity:1"
       d="M 135.52712,204.41426 151.40208,191.1851"
       id="path68" />
    <text
       xml:space="preserve"
       style="font-size:4.9389px;line-height:1.25;font-family:sans-serif;text-decoration-color:#000000;letter-spacing:0px;word-spacing:0px;fill:#000000;stroke-width:0.264999;-inkscape-stroke:none;stop-color:#000000"
       x="116.75561"
       y="192.29166"
       id="text68"><tspan
         sodipodi:role="line"
         id="tspan68"
         style="stroke-width:0.265"
         x="116.75561"
         y="192.29166">\(\dots\)</tspan></text>
    <text
       xml:space="preserve"
       style="font-size:4.9389px;line-height:1.25;font-family:sans-serif;text-decoration-color:#000000;letter-spacing:0px;word-spacing:0px;fill:#000000;stroke-width:0.264999;-inkscape-stroke:none;stop-color:#000000"
       x="107.85757"
       y="200.79314"
       id="text69"><tspan
         sodipodi:role="line"
         id="tspan69"
         style="stroke-width:0.265"
         x="107.85757"
         y="200.79314">\(\vdots\)</tspan></text>
    <text
       xml:space="preserve"
       style="font-size:4.9389px;line-height:1.25;font-family:sans-serif;text-decoration-color:#000000;letter-spacing:0px;word-spacing:0px;fill:#000000;stroke-width:0.264999;-inkscape-stroke:none;stop-color:#000000"
       x="129.02423"
       y="200.79314"
       id="text70"><tspan
         sodipodi:role="line"
         id="tspan70"
         style="stroke-width:0.265"
         x="129.02423"
         y="200.79314">\(\vdots\)</tspan></text>
    <text
       xml:space="preserve"
       style="font-size:4.9389px;line-height:1.25;font-family:sans-serif;text-decoration-color:#000000;letter-spacing:0px;word-spacing:0px;fill:#000000;stroke-width:0.264999;-inkscape-stroke:none;stop-color:#000000"
       x="150.52635"
       y="196.67888"
       id="text71"><tspan
         sodipodi:role="line"
         id="tspan71"
         style="stroke-width:0.265"
         x="150.52635"
         y="196.67888">\(t\)</tspan></text>
  </g>
</svg>
