<?xml version="1.0" encoding="UTF-8" standalone="no"?>
<!-- Created with Inkscape (http://www.inkscape.org/) -->

<svg
   width="240mm"
   height="29mm"
   viewBox="0 0 240 29"
   version="1.1"
   id="svg8"
   inkscape:version="1.3.2 (091e20e, 2023-11-25)"
   sodipodi:docname="highway.svg"
   xmlns:inkscape="http://www.inkscape.org/namespaces/inkscape"
   xmlns:sodipodi="http://sodipodi.sourceforge.net/DTD/sodipodi-0.dtd"
   xmlns="http://www.w3.org/2000/svg"
   xmlns:svg="http://www.w3.org/2000/svg"
   xmlns:rdf="http://www.w3.org/1999/02/22-rdf-syntax-ns#"
   xmlns:cc="http://creativecommons.org/ns#"
   xmlns:dc="http://purl.org/dc/elements/1.1/">
  <defs
     id="defs2" />
  <sodipodi:namedview
     id="base"
     pagecolor="#ffffff"
     bordercolor="#666666"
     borderopacity="1.0"
     inkscape:pageopacity="0.0"
     inkscape:pageshadow="2"
     inkscape:zoom="2.9467709"
     inkscape:cx="390.08801"
     inkscape:cy="117.41666"
     inkscape:document-units="mm"
     inkscape:current-layer="layer1"
     showgrid="false"
     showborder="true"
     width="200mm"
     showguides="true"
     inkscape:guide-bbox="true"
     inkscape:window-width="2560"
     inkscape:window-height="1387"
     inkscape:window-x="1728"
     inkscape:window-y="355"
     inkscape:window-maximized="0"
     inkscape:showpageshadow="2"
     inkscape:pagecheckerboard="0"
     inkscape:deskcolor="#d1d1d1">
    <inkscape:grid
       type="xygrid"
       id="grid815"
       units="mm"
       spacingx="10"
       spacingy="10"
       empspacing="4"
       dotted="false"
       originx="0"
       originy="0"
       visible="false" />
  </sodipodi:namedview>
  <metadata
     id="metadata5">
    <rdf:RDF>
      <cc:Work
         rdf:about="">
        <dc:format>image/svg+xml</dc:format>
        <dc:type
           rdf:resource="http://purl.org/dc/dcmitype/StillImage" />
      </cc:Work>
    </rdf:RDF>
  </metadata>
  <g
     inkscape:label="Layer 1"
     inkscape:groupmode="layer"
     id="layer1"
     transform="translate(0,-177)">
    <path
       style="font-variation-settings:normal;vector-effect:none;fill:#000000;fill-opacity:1;fill-rule:evenodd;stroke:none;stroke-width:0.264583;stroke-linecap:butt;stroke-linejoin:miter;stroke-miterlimit:4;stroke-dasharray:none;stroke-dashoffset:0;stroke-opacity:1;-inkscape-stroke:none;marker-start:none;marker-end:none;stop-color:#000000"
       id="path1"
       sodipodi:type="arc"
       sodipodi:cx="86.843765"
       sodipodi:cy="191.45444"
       sodipodi:rx="1.2205055"
       sodipodi:ry="1.2205055"
       sodipodi:start="0.0055031666"
       sodipodi:end="6.2778404"
       sodipodi:open="true"
       sodipodi:arc-type="arc"
       d="m 88.064252,191.46115 a 1.2205055,1.2205055 0 0 1 -1.223893,1.21379 1.2205055,1.2205055 0 0 1 -1.217099,-1.2206 1.2205055,1.2205055 0 0 1 1.217292,-1.2204 1.2205055,1.2205055 0 0 1 1.223701,1.21397" />
    <text
       xml:space="preserve"
       style="font-size:4.9389px;line-height:1.25;font-family:sans-serif;text-decoration-color:#000000;letter-spacing:0px;word-spacing:0px;fill:#000000;stroke-width:0.264999;-inkscape-stroke:none;stop-color:#000000"
       x="85.967995"
       y="197.47739"
       id="text2"><tspan
         sodipodi:role="line"
         id="tspan2"
         style="stroke-width:0.265"
         x="85.967995"
         y="197.47739">\(s\)</tspan></text>
    <path
       style="font-variation-settings:normal;vector-effect:none;fill:#000000;fill-opacity:1;fill-rule:evenodd;stroke:none;stroke-width:0.264583;stroke-linecap:butt;stroke-linejoin:miter;stroke-miterlimit:4;stroke-dasharray:none;stroke-dashoffset:0;stroke-opacity:1;-inkscape-stroke:none;marker-start:none;marker-end:none;stop-color:#000000"
       id="path1-8"
       sodipodi:type="arc"
       sodipodi:cx="102.71874"
       sodipodi:cy="178.22525"
       sodipodi:rx="1.2205055"
       sodipodi:ry="1.2205055"
       sodipodi:start="0.0055031666"
       sodipodi:end="6.2778404"
       sodipodi:open="true"
       sodipodi:arc-type="arc"
       d="m 103.93923,178.23197 a 1.2205055,1.2205055 0 0 1 -1.22389,1.21378 1.2205055,1.2205055 0 0 1 -1.2171,-1.2206 1.2205055,1.2205055 0 0 1 1.21729,-1.2204 1.2205055,1.2205055 0 0 1 1.2237,1.21398" />
    <path
       style="font-variation-settings:normal;vector-effect:none;fill:#000000;fill-opacity:1;fill-rule:evenodd;stroke:none;stroke-width:0.264583;stroke-linecap:butt;stroke-linejoin:miter;stroke-miterlimit:4;stroke-dasharray:none;stroke-dashoffset:0;stroke-opacity:1;-inkscape-stroke:none;marker-start:none;marker-end:none;stop-color:#000000"
       id="path3"
       sodipodi:type="arc"
       sodipodi:cx="102.71874"
       sodipodi:cy="183.51692"
       sodipodi:rx="1.2205055"
       sodipodi:ry="1.2205055"
       sodipodi:start="0.0055031666"
       sodipodi:end="6.2778404"
       sodipodi:open="true"
       sodipodi:arc-type="arc"
       d="m 103.93923,183.52364 a 1.2205055,1.2205055 0 0 1 -1.22389,1.21378 1.2205055,1.2205055 0 0 1 -1.2171,-1.22059 1.2205055,1.2205055 0 0 1 1.21729,-1.22041 1.2205055,1.2205055 0 0 1 1.2237,1.21398" />
    <g
       id="g36"
       transform="translate(29.002436,-20.897303)">
      <path
         style="font-variation-settings:normal;vector-effect:none;fill:#000000;fill-opacity:1;fill-rule:evenodd;stroke:none;stroke-width:0.264583;stroke-linecap:butt;stroke-linejoin:miter;stroke-miterlimit:4;stroke-dasharray:none;stroke-dashoffset:0;stroke-opacity:1;-inkscape-stroke:none;marker-start:none;marker-end:none;stop-color:#000000"
         id="path4"
         sodipodi:type="arc"
         sodipodi:cx="73.716339"
         sodipodi:cy="209.70593"
         sodipodi:rx="1.2205055"
         sodipodi:ry="1.2205055"
         sodipodi:start="0.0055031666"
         sodipodi:end="6.2778404"
         sodipodi:open="true"
         sodipodi:arc-type="arc"
         d="m 74.936826,209.71265 a 1.2205055,1.2205055 0 0 1 -1.223893,1.21378 1.2205055,1.2205055 0 0 1 -1.217099,-1.22059 1.2205055,1.2205055 0 0 1 1.217292,-1.22041 1.2205055,1.2205055 0 0 1 1.223701,1.21398" />
      <path
         style="font-variation-settings:normal;vector-effect:none;fill:#000000;fill-opacity:1;fill-rule:evenodd;stroke:none;stroke-width:0.264583;stroke-linecap:butt;stroke-linejoin:miter;stroke-miterlimit:4;stroke-dasharray:none;stroke-dashoffset:0;stroke-opacity:1;-inkscape-stroke:none;marker-start:none;marker-end:none;stop-color:#000000"
         id="path5"
         sodipodi:type="arc"
         sodipodi:cx="73.716339"
         sodipodi:cy="214.9976"
         sodipodi:rx="1.2205055"
         sodipodi:ry="1.2205055"
         sodipodi:start="0.0055031666"
         sodipodi:end="6.2778404"
         sodipodi:open="true"
         sodipodi:arc-type="arc"
         d="m 74.936826,215.00432 a 1.2205055,1.2205055 0 0 1 -1.223893,1.21379 1.2205055,1.2205055 0 0 1 -1.217099,-1.2206 1.2205055,1.2205055 0 0 1 1.217292,-1.22041 1.2205055,1.2205055 0 0 1 1.223701,1.21398" />
    </g>
    <path
       style="font-variation-settings:normal;vector-effect:none;fill:#000000;fill-opacity:1;fill-rule:evenodd;stroke:none;stroke-width:0.264583;stroke-linecap:butt;stroke-linejoin:miter;stroke-miterlimit:4;stroke-dasharray:none;stroke-dashoffset:0;stroke-opacity:1;-inkscape-stroke:none;marker-start:none;marker-end:none;stop-color:#000000"
       id="path7"
       sodipodi:type="arc"
       sodipodi:cx="102.71874"
       sodipodi:cy="204.68361"
       sodipodi:rx="1.2205055"
       sodipodi:ry="1.2205055"
       sodipodi:start="0.0055031666"
       sodipodi:end="6.2778404"
       sodipodi:open="true"
       sodipodi:arc-type="arc"
       d="m 103.93923,204.69033 a 1.2205055,1.2205055 0 0 1 -1.22389,1.21378 1.2205055,1.2205055 0 0 1 -1.2171,-1.2206 1.2205055,1.2205055 0 0 1 1.21729,-1.2204 1.2205055,1.2205055 0 0 1 1.2237,1.21398" />
    <path
       style="font-variation-settings:normal;vector-effect:none;fill:#000000;fill-opacity:1;fill-rule:evenodd;stroke:none;stroke-width:0.264583;stroke-linecap:butt;stroke-linejoin:miter;stroke-miterlimit:4;stroke-dasharray:none;stroke-dashoffset:0;stroke-opacity:1;-inkscape-stroke:none;marker-start:none;marker-end:none;stop-color:#000000"
       id="path8"
       sodipodi:type="arc"
       sodipodi:cx="102.71874"
       sodipodi:cy="204.68361"
       sodipodi:rx="1.2205055"
       sodipodi:ry="1.2205055"
       sodipodi:start="0.0055031666"
       sodipodi:end="6.2778404"
       sodipodi:open="true"
       sodipodi:arc-type="arc"
       d="m 103.93923,204.69033 a 1.2205055,1.2205055 0 0 1 -1.22389,1.21378 1.2205055,1.2205055 0 0 1 -1.2171,-1.2206 1.2205055,1.2205055 0 0 1 1.21729,-1.2204 1.2205055,1.2205055 0 0 1 1.2237,1.21398" />
    <path
       style="font-variation-settings:normal;vector-effect:none;fill:#000000;fill-opacity:1;fill-rule:evenodd;stroke:none;stroke-width:0.264583;stroke-linecap:butt;stroke-linejoin:miter;stroke-miterlimit:4;stroke-dasharray:none;stroke-dashoffset:0;stroke-opacity:1;-inkscape-stroke:none;marker-start:none;marker-end:none;stop-color:#000000"
       id="path9"
       sodipodi:type="arc"
       sodipodi:cx="113.30206"
       sodipodi:cy="178.22525"
       sodipodi:rx="1.2205055"
       sodipodi:ry="1.2205055"
       sodipodi:start="0.0055031666"
       sodipodi:end="6.2778404"
       sodipodi:open="true"
       sodipodi:arc-type="arc"
       d="m 114.52255,178.23197 a 1.2205055,1.2205055 0 0 1 -1.22389,1.21378 1.2205055,1.2205055 0 0 1 -1.2171,-1.2206 1.2205055,1.2205055 0 0 1 1.21729,-1.2204 1.2205055,1.2205055 0 0 1 1.2237,1.21398" />
    <path
       style="font-variation-settings:normal;vector-effect:none;fill:#000000;fill-opacity:1;fill-rule:evenodd;stroke:none;stroke-width:0.264583;stroke-linecap:butt;stroke-linejoin:miter;stroke-miterlimit:4;stroke-dasharray:none;stroke-dashoffset:0;stroke-opacity:1;-inkscape-stroke:none;marker-start:none;marker-end:none;stop-color:#000000"
       id="path10"
       sodipodi:type="arc"
       sodipodi:cx="113.30206"
       sodipodi:cy="183.51692"
       sodipodi:rx="1.2205055"
       sodipodi:ry="1.2205055"
       sodipodi:start="0.0055031666"
       sodipodi:end="6.2778404"
       sodipodi:open="true"
       sodipodi:arc-type="arc"
       d="m 114.52255,183.52364 a 1.2205055,1.2205055 0 0 1 -1.22389,1.21378 1.2205055,1.2205055 0 0 1 -1.2171,-1.22059 1.2205055,1.2205055 0 0 1 1.21729,-1.22041 1.2205055,1.2205055 0 0 1 1.2237,1.21398" />
    <path
       style="font-variation-settings:normal;vector-effect:none;fill:#000000;fill-opacity:1;fill-rule:evenodd;stroke:none;stroke-width:0.264583;stroke-linecap:butt;stroke-linejoin:miter;stroke-miterlimit:4;stroke-dasharray:none;stroke-dashoffset:0;stroke-opacity:1;-inkscape-stroke:none;marker-start:none;marker-end:none;stop-color:#000000"
       id="path11"
       sodipodi:type="arc"
       sodipodi:cx="113.30206"
       sodipodi:cy="188.80859"
       sodipodi:rx="1.2205055"
       sodipodi:ry="1.2205055"
       sodipodi:start="0.0055031666"
       sodipodi:end="6.2778404"
       sodipodi:open="true"
       sodipodi:arc-type="arc"
       d="m 114.52255,188.81531 a 1.2205055,1.2205055 0 0 1 -1.22389,1.21378 1.2205055,1.2205055 0 0 1 -1.2171,-1.22059 1.2205055,1.2205055 0 0 1 1.21729,-1.22041 1.2205055,1.2205055 0 0 1 1.2237,1.21398" />
    <path
       style="font-variation-settings:normal;vector-effect:none;fill:#000000;fill-opacity:1;fill-rule:evenodd;stroke:none;stroke-width:0.264583;stroke-linecap:butt;stroke-linejoin:miter;stroke-miterlimit:4;stroke-dasharray:none;stroke-dashoffset:0;stroke-opacity:1;-inkscape-stroke:none;marker-start:none;marker-end:none;stop-color:#000000"
       id="path12"
       sodipodi:type="arc"
       sodipodi:cx="113.30206"
       sodipodi:cy="194.10027"
       sodipodi:rx="1.2205055"
       sodipodi:ry="1.2205055"
       sodipodi:start="0.0055031666"
       sodipodi:end="6.2778404"
       sodipodi:open="true"
       sodipodi:arc-type="arc"
       d="m 114.52255,194.10698 a 1.2205055,1.2205055 0 0 1 -1.22389,1.21379 1.2205055,1.2205055 0 0 1 -1.2171,-1.2206 1.2205055,1.2205055 0 0 1 1.21729,-1.22041 1.2205055,1.2205055 0 0 1 1.2237,1.21398" />
    <path
       style="font-variation-settings:normal;vector-effect:none;fill:#000000;fill-opacity:1;fill-rule:evenodd;stroke:none;stroke-width:0.264583;stroke-linecap:butt;stroke-linejoin:miter;stroke-miterlimit:4;stroke-dasharray:none;stroke-dashoffset:0;stroke-opacity:1;-inkscape-stroke:none;marker-start:none;marker-end:none;stop-color:#000000"
       id="path14"
       sodipodi:type="arc"
       sodipodi:cx="113.30206"
       sodipodi:cy="204.68361"
       sodipodi:rx="1.2205055"
       sodipodi:ry="1.2205055"
       sodipodi:start="0.0055031666"
       sodipodi:end="6.2778404"
       sodipodi:open="true"
       sodipodi:arc-type="arc"
       d="m 114.52255,204.69033 a 1.2205055,1.2205055 0 0 1 -1.22389,1.21378 1.2205055,1.2205055 0 0 1 -1.2171,-1.2206 1.2205055,1.2205055 0 0 1 1.21729,-1.2204 1.2205055,1.2205055 0 0 1 1.2237,1.21398" />
    <path
       style="font-variation-settings:normal;vector-effect:none;fill:#000000;fill-opacity:1;fill-rule:evenodd;stroke:none;stroke-width:0.264583;stroke-linecap:butt;stroke-linejoin:miter;stroke-miterlimit:4;stroke-dasharray:none;stroke-dashoffset:0;stroke-opacity:1;-inkscape-stroke:none;marker-start:none;marker-end:none;stop-color:#000000"
       id="path15"
       sodipodi:type="arc"
       sodipodi:cx="113.30206"
       sodipodi:cy="204.68361"
       sodipodi:rx="1.2205055"
       sodipodi:ry="1.2205055"
       sodipodi:start="0.0055031666"
       sodipodi:end="6.2778404"
       sodipodi:open="true"
       sodipodi:arc-type="arc"
       d="m 114.52255,204.69033 a 1.2205055,1.2205055 0 0 1 -1.22389,1.21378 1.2205055,1.2205055 0 0 1 -1.2171,-1.2206 1.2205055,1.2205055 0 0 1 1.21729,-1.2204 1.2205055,1.2205055 0 0 1 1.2237,1.21398" />
    <path
       style="font-variation-settings:normal;vector-effect:none;fill:#000000;fill-opacity:1;fill-rule:evenodd;stroke:none;stroke-width:0.264583;stroke-linecap:butt;stroke-linejoin:miter;stroke-miterlimit:4;stroke-dasharray:none;stroke-dashoffset:0;stroke-opacity:1;-inkscape-stroke:none;marker-start:none;marker-end:none;stop-color:#000000"
       id="path36"
       sodipodi:type="arc"
       sodipodi:cx="152.46042"
       sodipodi:cy="191.45444"
       sodipodi:rx="1.2205055"
       sodipodi:ry="1.2205055"
       sodipodi:start="0.0055031666"
       sodipodi:end="6.2778404"
       sodipodi:open="true"
       sodipodi:arc-type="arc"
       d="m 153.68091,191.46115 a 1.2205055,1.2205055 0 0 1 -1.2239,1.21379 1.2205055,1.2205055 0 0 1 -1.2171,-1.2206 1.2205055,1.2205055 0 0 1 1.2173,-1.2204 1.2205055,1.2205055 0 0 1 1.2237,1.21397" />
    <path
       style="fill:none;stroke:#000000;stroke-width:0.264583px;stroke-linecap:butt;stroke-linejoin:miter;stroke-opacity:1"
       d="M 86.843766,191.45447 102.71876,178.22528"
       id="path37" />
    <path
       style="fill:none;stroke:#000000;stroke-width:0.264583px;stroke-linecap:butt;stroke-linejoin:miter;stroke-opacity:1"
       d="m 102.71876,183.51695 -15.874994,7.93752"
       id="path38" />
    <path
       style="fill:none;stroke:#000000;stroke-width:0.264583px;stroke-linecap:butt;stroke-linejoin:miter;stroke-opacity:1"
       d="m 102.71876,188.80862 -15.874994,2.64585"
       id="path39" />
    <path
       style="fill:none;stroke:#000000;stroke-width:0.264583px;stroke-linecap:butt;stroke-linejoin:miter;stroke-opacity:1"
       d="M 102.71876,194.10029 86.843766,191.45447"
       id="path40" />
    <path
       style="fill:none;stroke:#000000;stroke-width:0.264583px;stroke-linecap:butt;stroke-linejoin:miter;stroke-opacity:1"
       d="m 86.843766,191.45447 15.874994,13.22917"
       id="path41" />
    <path
       style="fill:none;stroke:#000000;stroke-width:0.264583px;stroke-linecap:butt;stroke-linejoin:miter;stroke-opacity:1"
       d="M 102.71876,178.22528 H 113.3021"
       id="path42" />
    <path
       style="fill:none;stroke:#000000;stroke-width:0.264583px;stroke-linecap:butt;stroke-linejoin:miter;stroke-opacity:1"
       d="M 102.71876,183.51695 H 113.3021"
       id="path43" />
    <path
       style="fill:none;stroke:#000000;stroke-width:0.264583px;stroke-linecap:butt;stroke-linejoin:miter;stroke-opacity:1"
       d="M 102.71876,188.80862 H 113.3021"
       id="path44" />
    <path
       style="fill:none;stroke:#000000;stroke-width:0.264583px;stroke-linecap:butt;stroke-linejoin:miter;stroke-opacity:1"
       d="M 102.71876,194.10029 H 113.3021"
       id="path45" />
    <path
       style="fill:none;stroke:#000000;stroke-width:0.264583px;stroke-linecap:butt;stroke-linejoin:miter;stroke-opacity:1"
       d="M 102.71876,204.68363 H 113.3021"
       id="path46" />
    <path
       style="font-variation-settings:normal;vector-effect:none;fill:#000000;fill-opacity:1;fill-rule:evenodd;stroke:none;stroke-width:0.264583;stroke-linecap:butt;stroke-linejoin:miter;stroke-miterlimit:4;stroke-dasharray:none;stroke-dashoffset:0;stroke-opacity:1;-inkscape-stroke:none;marker-start:none;marker-end:none;stop-color:#000000"
       id="path47"
       sodipodi:type="arc"
       sodipodi:cx="126.00208"
       sodipodi:cy="178.22525"
       sodipodi:rx="1.2205055"
       sodipodi:ry="1.2205055"
       sodipodi:start="0.0055031666"
       sodipodi:end="6.2778404"
       sodipodi:open="true"
       sodipodi:arc-type="arc"
       d="m 127.22257,178.23197 a 1.2205055,1.2205055 0 0 1 -1.22389,1.21378 1.2205055,1.2205055 0 0 1 -1.2171,-1.2206 1.2205055,1.2205055 0 0 1 1.21729,-1.2204 1.2205055,1.2205055 0 0 1 1.2237,1.21398" />
    <path
       style="font-variation-settings:normal;vector-effect:none;fill:#000000;fill-opacity:1;fill-rule:evenodd;stroke:none;stroke-width:0.264583;stroke-linecap:butt;stroke-linejoin:miter;stroke-miterlimit:4;stroke-dasharray:none;stroke-dashoffset:0;stroke-opacity:1;-inkscape-stroke:none;marker-start:none;marker-end:none;stop-color:#000000"
       id="path48"
       sodipodi:type="arc"
       sodipodi:cx="126.00208"
       sodipodi:cy="183.51692"
       sodipodi:rx="1.2205055"
       sodipodi:ry="1.2205055"
       sodipodi:start="0.0055031666"
       sodipodi:end="6.2778404"
       sodipodi:open="true"
       sodipodi:arc-type="arc"
       d="m 127.22257,183.52364 a 1.2205055,1.2205055 0 0 1 -1.22389,1.21378 1.2205055,1.2205055 0 0 1 -1.2171,-1.22059 1.2205055,1.2205055 0 0 1 1.21729,-1.22041 1.2205055,1.2205055 0 0 1 1.2237,1.21398" />
    <g
       id="g50"
       transform="translate(52.285772,-20.897303)">
      <path
         style="font-variation-settings:normal;vector-effect:none;fill:#000000;fill-opacity:1;fill-rule:evenodd;stroke:none;stroke-width:0.264583;stroke-linecap:butt;stroke-linejoin:miter;stroke-miterlimit:4;stroke-dasharray:none;stroke-dashoffset:0;stroke-opacity:1;-inkscape-stroke:none;marker-start:none;marker-end:none;stop-color:#000000"
         id="path49"
         sodipodi:type="arc"
         sodipodi:cx="73.716339"
         sodipodi:cy="209.70593"
         sodipodi:rx="1.2205055"
         sodipodi:ry="1.2205055"
         sodipodi:start="0.0055031666"
         sodipodi:end="6.2778404"
         sodipodi:open="true"
         sodipodi:arc-type="arc"
         d="m 74.936826,209.71265 a 1.2205055,1.2205055 0 0 1 -1.223893,1.21378 1.2205055,1.2205055 0 0 1 -1.217099,-1.22059 1.2205055,1.2205055 0 0 1 1.217292,-1.22041 1.2205055,1.2205055 0 0 1 1.223701,1.21398" />
      <path
         style="font-variation-settings:normal;vector-effect:none;fill:#000000;fill-opacity:1;fill-rule:evenodd;stroke:none;stroke-width:0.264583;stroke-linecap:butt;stroke-linejoin:miter;stroke-miterlimit:4;stroke-dasharray:none;stroke-dashoffset:0;stroke-opacity:1;-inkscape-stroke:none;marker-start:none;marker-end:none;stop-color:#000000"
         id="path50"
         sodipodi:type="arc"
         sodipodi:cx="73.716339"
         sodipodi:cy="214.9976"
         sodipodi:rx="1.2205055"
         sodipodi:ry="1.2205055"
         sodipodi:start="0.0055031666"
         sodipodi:end="6.2778404"
         sodipodi:open="true"
         sodipodi:arc-type="arc"
         d="m 74.936826,215.00432 a 1.2205055,1.2205055 0 0 1 -1.223893,1.21379 1.2205055,1.2205055 0 0 1 -1.217099,-1.2206 1.2205055,1.2205055 0 0 1 1.217292,-1.22041 1.2205055,1.2205055 0 0 1 1.223701,1.21398" />
    </g>
    <path
       style="font-variation-settings:normal;vector-effect:none;fill:#000000;fill-opacity:1;fill-rule:evenodd;stroke:none;stroke-width:0.264583;stroke-linecap:butt;stroke-linejoin:miter;stroke-miterlimit:4;stroke-dasharray:none;stroke-dashoffset:0;stroke-opacity:1;-inkscape-stroke:none;marker-start:none;marker-end:none;stop-color:#000000"
       id="path51"
       sodipodi:type="arc"
       sodipodi:cx="126.00208"
       sodipodi:cy="204.68361"
       sodipodi:rx="1.2205055"
       sodipodi:ry="1.2205055"
       sodipodi:start="0.0055031666"
       sodipodi:end="6.2778404"
       sodipodi:open="true"
       sodipodi:arc-type="arc"
       d="m 127.22257,204.69033 a 1.2205055,1.2205055 0 0 1 -1.22389,1.21378 1.2205055,1.2205055 0 0 1 -1.2171,-1.2206 1.2205055,1.2205055 0 0 1 1.21729,-1.2204 1.2205055,1.2205055 0 0 1 1.2237,1.21398" />
    <path
       style="font-variation-settings:normal;vector-effect:none;fill:#000000;fill-opacity:1;fill-rule:evenodd;stroke:none;stroke-width:0.264583;stroke-linecap:butt;stroke-linejoin:miter;stroke-miterlimit:4;stroke-dasharray:none;stroke-dashoffset:0;stroke-opacity:1;-inkscape-stroke:none;marker-start:none;marker-end:none;stop-color:#000000"
       id="path52"
       sodipodi:type="arc"
       sodipodi:cx="126.00208"
       sodipodi:cy="204.68361"
       sodipodi:rx="1.2205055"
       sodipodi:ry="1.2205055"
       sodipodi:start="0.0055031666"
       sodipodi:end="6.2778404"
       sodipodi:open="true"
       sodipodi:arc-type="arc"
       d="m 127.22257,204.69033 a 1.2205055,1.2205055 0 0 1 -1.22389,1.21378 1.2205055,1.2205055 0 0 1 -1.2171,-1.2206 1.2205055,1.2205055 0 0 1 1.21729,-1.2204 1.2205055,1.2205055 0 0 1 1.2237,1.21398" />
    <path
       style="font-variation-settings:normal;vector-effect:none;fill:#000000;fill-opacity:1;fill-rule:evenodd;stroke:none;stroke-width:0.264583;stroke-linecap:butt;stroke-linejoin:miter;stroke-miterlimit:4;stroke-dasharray:none;stroke-dashoffset:0;stroke-opacity:1;-inkscape-stroke:none;marker-start:none;marker-end:none;stop-color:#000000"
       id="path53"
       sodipodi:type="arc"
       sodipodi:cx="136.5854"
       sodipodi:cy="178.22525"
       sodipodi:rx="1.2205055"
       sodipodi:ry="1.2205055"
       sodipodi:start="0.0055031666"
       sodipodi:end="6.2778404"
       sodipodi:open="true"
       sodipodi:arc-type="arc"
       d="m 137.80589,178.23197 a 1.2205055,1.2205055 0 0 1 -1.22389,1.21378 1.2205055,1.2205055 0 0 1 -1.2171,-1.2206 1.2205055,1.2205055 0 0 1 1.21729,-1.2204 1.2205055,1.2205055 0 0 1 1.2237,1.21398" />
    <path
       style="font-variation-settings:normal;vector-effect:none;fill:#000000;fill-opacity:1;fill-rule:evenodd;stroke:none;stroke-width:0.264583;stroke-linecap:butt;stroke-linejoin:miter;stroke-miterlimit:4;stroke-dasharray:none;stroke-dashoffset:0;stroke-opacity:1;-inkscape-stroke:none;marker-start:none;marker-end:none;stop-color:#000000"
       id="path54"
       sodipodi:type="arc"
       sodipodi:cx="136.5854"
       sodipodi:cy="183.51692"
       sodipodi:rx="1.2205055"
       sodipodi:ry="1.2205055"
       sodipodi:start="0.0055031666"
       sodipodi:end="6.2778404"
       sodipodi:open="true"
       sodipodi:arc-type="arc"
       d="m 137.80589,183.52364 a 1.2205055,1.2205055 0 0 1 -1.22389,1.21378 1.2205055,1.2205055 0 0 1 -1.2171,-1.22059 1.2205055,1.2205055 0 0 1 1.21729,-1.22041 1.2205055,1.2205055 0 0 1 1.2237,1.21398" />
    <path
       style="font-variation-settings:normal;vector-effect:none;fill:#000000;fill-opacity:1;fill-rule:evenodd;stroke:none;stroke-width:0.264583;stroke-linecap:butt;stroke-linejoin:miter;stroke-miterlimit:4;stroke-dasharray:none;stroke-dashoffset:0;stroke-opacity:1;-inkscape-stroke:none;marker-start:none;marker-end:none;stop-color:#000000"
       id="path55"
       sodipodi:type="arc"
       sodipodi:cx="136.5854"
       sodipodi:cy="188.80859"
       sodipodi:rx="1.2205055"
       sodipodi:ry="1.2205055"
       sodipodi:start="0.0055031666"
       sodipodi:end="6.2778404"
       sodipodi:open="true"
       sodipodi:arc-type="arc"
       d="m 137.80589,188.81531 a 1.2205055,1.2205055 0 0 1 -1.22389,1.21378 1.2205055,1.2205055 0 0 1 -1.2171,-1.22059 1.2205055,1.2205055 0 0 1 1.21729,-1.22041 1.2205055,1.2205055 0 0 1 1.2237,1.21398" />
    <path
       style="font-variation-settings:normal;vector-effect:none;fill:#000000;fill-opacity:1;fill-rule:evenodd;stroke:none;stroke-width:0.264583;stroke-linecap:butt;stroke-linejoin:miter;stroke-miterlimit:4;stroke-dasharray:none;stroke-dashoffset:0;stroke-opacity:1;-inkscape-stroke:none;marker-start:none;marker-end:none;stop-color:#000000"
       id="path56"
       sodipodi:type="arc"
       sodipodi:cx="136.5854"
       sodipodi:cy="194.10027"
       sodipodi:rx="1.2205055"
       sodipodi:ry="1.2205055"
       sodipodi:start="0.0055031666"
       sodipodi:end="6.2778404"
       sodipodi:open="true"
       sodipodi:arc-type="arc"
       d="m 137.80589,194.10698 a 1.2205055,1.2205055 0 0 1 -1.22389,1.21379 1.2205055,1.2205055 0 0 1 -1.2171,-1.2206 1.2205055,1.2205055 0 0 1 1.21729,-1.22041 1.2205055,1.2205055 0 0 1 1.2237,1.21398" />
    <path
       style="font-variation-settings:normal;vector-effect:none;fill:#000000;fill-opacity:1;fill-rule:evenodd;stroke:none;stroke-width:0.264583;stroke-linecap:butt;stroke-linejoin:miter;stroke-miterlimit:4;stroke-dasharray:none;stroke-dashoffset:0;stroke-opacity:1;-inkscape-stroke:none;marker-start:none;marker-end:none;stop-color:#000000"
       id="path57"
       sodipodi:type="arc"
       sodipodi:cx="136.5854"
       sodipodi:cy="204.68361"
       sodipodi:rx="1.2205055"
       sodipodi:ry="1.2205055"
       sodipodi:start="0.0055031666"
       sodipodi:end="6.2778404"
       sodipodi:open="true"
       sodipodi:arc-type="arc"
       d="m 137.80589,204.69033 a 1.2205055,1.2205055 0 0 1 -1.22389,1.21378 1.2205055,1.2205055 0 0 1 -1.2171,-1.2206 1.2205055,1.2205055 0 0 1 1.21729,-1.2204 1.2205055,1.2205055 0 0 1 1.2237,1.21398" />
    <path
       style="font-variation-settings:normal;vector-effect:none;fill:#000000;fill-opacity:1;fill-rule:evenodd;stroke:none;stroke-width:0.264583;stroke-linecap:butt;stroke-linejoin:miter;stroke-miterlimit:4;stroke-dasharray:none;stroke-dashoffset:0;stroke-opacity:1;-inkscape-stroke:none;marker-start:none;marker-end:none;stop-color:#000000"
       id="path58"
       sodipodi:type="arc"
       sodipodi:cx="136.5854"
       sodipodi:cy="204.68361"
       sodipodi:rx="1.2205055"
       sodipodi:ry="1.2205055"
       sodipodi:start="0.0055031666"
       sodipodi:end="6.2778404"
       sodipodi:open="true"
       sodipodi:arc-type="arc"
       d="m 137.80589,204.69033 a 1.2205055,1.2205055 0 0 1 -1.22389,1.21378 1.2205055,1.2205055 0 0 1 -1.2171,-1.2206 1.2205055,1.2205055 0 0 1 1.21729,-1.2204 1.2205055,1.2205055 0 0 1 1.2237,1.21398" />
    <path
       style="fill:none;stroke:#000000;stroke-width:0.264583px;stroke-linecap:butt;stroke-linejoin:miter;stroke-opacity:1"
       d="m 126.00212,178.22528 h 10.58334"
       id="path59" />
    <path
       style="fill:none;stroke:#000000;stroke-width:0.264583px;stroke-linecap:butt;stroke-linejoin:miter;stroke-opacity:1"
       d="m 126.00212,183.51695 h 10.58334"
       id="path60" />
    <path
       style="fill:none;stroke:#000000;stroke-width:0.264583px;stroke-linecap:butt;stroke-linejoin:miter;stroke-opacity:1"
       d="m 126.00212,188.80862 h 10.58334"
       id="path61" />
    <path
       style="fill:none;stroke:#000000;stroke-width:0.264583px;stroke-linecap:butt;stroke-linejoin:miter;stroke-opacity:1"
       d="m 126.00212,194.10029 h 10.58334"
       id="path62" />
    <path
       style="fill:none;stroke:#000000;stroke-width:0.264583px;stroke-linecap:butt;stroke-linejoin:miter;stroke-opacity:1"
       d="m 126.00212,204.68363 h 10.58334"
       id="path63" />
    <path
       style="fill:none;stroke:#000000;stroke-width:0.264583px;stroke-linecap:butt;stroke-linejoin:miter;stroke-opacity:1"
       d="m 136.58546,178.22528 15.87496,13.22919"
       id="path64" />
    <path
       style="fill:none;stroke:#000000;stroke-width:0.264583px;stroke-linecap:butt;stroke-linejoin:miter;stroke-opacity:1"
       d="m 136.58546,183.51695 15.87496,7.93752"
       id="path65" />
    <path
       style="fill:none;stroke:#000000;stroke-width:0.264583px;stroke-linecap:butt;stroke-linejoin:miter;stroke-opacity:1"
       d="m 136.58546,188.80862 15.87496,2.64585"
       id="path66" />
    <path
       style="fill:none;stroke:#000000;stroke-width:0.264583px;stroke-linecap:butt;stroke-linejoin:miter;stroke-opacity:1"
       d="m 136.58546,194.10029 15.87496,-2.64582"
       id="path67" />
    <path
       style="fill:none;stroke:#000000;stroke-width:0.264583px;stroke-linecap:butt;stroke-linejoin:miter;stroke-opacity:1"
       d="m 136.58546,204.68363 15.87496,-13.22916"
       id="path68" />
    <text
       xml:space="preserve"
       style="font-size:4.9389px;line-height:1.25;font-family:sans-serif;text-decoration-color:#000000;letter-spacing:0px;word-spacing:0px;fill:#000000;stroke-width:0.264999;-inkscape-stroke:none;stop-color:#000000"
       x="116.75561"
       y="184.89635"
       id="text68"><tspan
         sodipodi:role="line"
         id="tspan68"
         style="stroke-width:0.265"
         x="116.75561"
         y="184.89635">\(\cdots\)</tspan></text>
    <text
       xml:space="preserve"
       style="font-size:4.9389px;line-height:1.25;font-family:sans-serif;text-decoration-color:#000000;letter-spacing:0px;word-spacing:0px;fill:#000000;stroke-width:0.264999;-inkscape-stroke:none;stop-color:#000000"
       x="107.3284"
       y="202.1208"
       id="text69"><tspan
         sodipodi:role="line"
         id="tspan69"
         style="stroke-width:0.265"
         x="107.3284"
         y="202.1208">\(\vdots\)</tspan></text>
    <text
       xml:space="preserve"
       style="font-size:4.9389px;line-height:1.25;font-family:sans-serif;text-decoration-color:#000000;letter-spacing:0px;word-spacing:0px;fill:#000000;stroke-width:0.264999;-inkscape-stroke:none;stop-color:#000000"
       x="130.61171"
       y="202.1208"
       id="text70"><tspan
         sodipodi:role="line"
         id="tspan70"
         style="stroke-width:0.265"
         x="130.61171"
         y="202.1208">\(\vdots\)</tspan></text>
    <text
       xml:space="preserve"
       style="font-size:4.9389px;line-height:1.25;font-family:sans-serif;text-decoration-color:#000000;letter-spacing:0px;word-spacing:0px;fill:#000000;stroke-width:0.264999;-inkscape-stroke:none;stop-color:#000000"
       x="152.11383"
       y="197.47739"
       id="text71"><tspan
         sodipodi:role="line"
         id="tspan71"
         style="stroke-width:0.265"
         x="152.11383"
         y="197.47739">\(t\)</tspan></text>
    <text
       xml:space="preserve"
       style="font-size:4.9389px;line-height:1.25;font-family:sans-serif;text-decoration-color:#000000;letter-spacing:0px;word-spacing:0px;fill:#000000;stroke-width:0.264999;-inkscape-stroke:none;stop-color:#000000"
       x="116.75561"
       y="179.60468"
       id="text1"><tspan
         sodipodi:role="line"
         id="tspan1"
         style="stroke-width:0.265"
         x="116.75561"
         y="179.60468">\(\cdots\)</tspan></text>
    <text
       xml:space="preserve"
       style="font-size:4.9389px;line-height:1.25;font-family:sans-serif;text-decoration-color:#000000;letter-spacing:0px;word-spacing:0px;fill:#000000;stroke-width:0.264999;-inkscape-stroke:none;stop-color:#000000"
       x="116.75561"
       y="190.18802"
       id="text3"><tspan
         sodipodi:role="line"
         id="tspan3"
         style="stroke-width:0.265"
         x="116.75561"
         y="190.18802">\(\cdots\)</tspan></text>
    <text
       xml:space="preserve"
       style="font-size:4.9389px;line-height:1.25;font-family:sans-serif;text-decoration-color:#000000;letter-spacing:0px;word-spacing:0px;fill:#000000;stroke-width:0.264999;-inkscape-stroke:none;stop-color:#000000"
       x="116.75561"
       y="195.47969"
       id="text4"><tspan
         sodipodi:role="line"
         id="tspan4"
         style="stroke-width:0.265"
         x="116.75561"
         y="195.47969">\(\cdots\)</tspan></text>
    <text
       xml:space="preserve"
       style="font-size:4.9389px;line-height:1.25;font-family:sans-serif;text-decoration-color:#000000;letter-spacing:0px;word-spacing:0px;fill:#000000;stroke-width:0.264999;-inkscape-stroke:none;stop-color:#000000"
       x="116.75561"
       y="206.06303"
       id="text5"><tspan
         sodipodi:role="line"
         id="tspan5"
         style="stroke-width:0.265"
         x="116.75561"
         y="206.06303">\(\cdots\)</tspan></text>
  </g>
</svg>
