<?xml version="1.0" encoding="UTF-8" standalone="no"?>
<!-- Created with Inkscape (http://www.inkscape.org/) -->

<svg
   width="240mm"
   height="43mm"
   viewBox="0 0 240 43"
   version="1.1"
   id="svg8"
   inkscape:version="1.3.2 (091e20e, 2023-11-25)"
   sodipodi:docname="isolating-cut-unique-disjoint.svg"
   xmlns:inkscape="http://www.inkscape.org/namespaces/inkscape"
   xmlns:sodipodi="http://sodipodi.sourceforge.net/DTD/sodipodi-0.dtd"
   xmlns="http://www.w3.org/2000/svg"
   xmlns:svg="http://www.w3.org/2000/svg"
   xmlns:rdf="http://www.w3.org/1999/02/22-rdf-syntax-ns#"
   xmlns:cc="http://creativecommons.org/ns#"
   xmlns:dc="http://purl.org/dc/elements/1.1/">
  <defs
     id="defs2">
    <inkscape:path-effect
       effect="spiro"
       id="path-effect32"
       is_visible="true"
       lpeversion="1" />
    <inkscape:path-effect
       effect="spiro"
       id="path-effect31"
       is_visible="true"
       lpeversion="1" />
    <inkscape:path-effect
       effect="spiro"
       id="path-effect30"
       is_visible="true"
       lpeversion="1" />
    <inkscape:path-effect
       effect="spiro"
       id="path-effect29"
       is_visible="true"
       lpeversion="1" />
    <inkscape:path-effect
       effect="spiro"
       id="path-effect28"
       is_visible="true"
       lpeversion="1" />
    <inkscape:path-effect
       effect="spiro"
       id="path-effect27"
       is_visible="true"
       lpeversion="1" />
    <inkscape:path-effect
       effect="spiro"
       id="path-effect26"
       is_visible="true"
       lpeversion="1" />
    <inkscape:path-effect
       effect="spiro"
       id="path-effect25"
       is_visible="true"
       lpeversion="1" />
    <inkscape:path-effect
       effect="spiro"
       id="path-effect24"
       is_visible="true"
       lpeversion="1" />
    <inkscape:path-effect
       effect="spiro"
       id="path-effect23"
       is_visible="true"
       lpeversion="1" />
    <inkscape:path-effect
       effect="spiro"
       id="path-effect22"
       is_visible="true"
       lpeversion="1" />
    <inkscape:path-effect
       effect="spiro"
       id="path-effect21"
       is_visible="true"
       lpeversion="1" />
    <inkscape:path-effect
       effect="spiro"
       id="path-effect20"
       is_visible="true"
       lpeversion="1" />
    <inkscape:path-effect
       effect="spiro"
       id="path-effect19"
       is_visible="true"
       lpeversion="1" />
    <inkscape:path-effect
       effect="spiro"
       id="path-effect18"
       is_visible="true"
       lpeversion="1" />
    <inkscape:path-effect
       effect="spiro"
       id="path-effect17"
       is_visible="true"
       lpeversion="1" />
    <inkscape:path-effect
       effect="spiro"
       id="path-effect16"
       is_visible="true"
       lpeversion="1" />
    <inkscape:path-effect
       effect="spiro"
       id="path-effect15"
       is_visible="true"
       lpeversion="1" />
    <inkscape:path-effect
       effect="spiro"
       id="path-effect14"
       is_visible="true"
       lpeversion="1" />
    <inkscape:path-effect
       effect="spiro"
       id="path-effect13"
       is_visible="true"
       lpeversion="1" />
    <inkscape:path-effect
       effect="spiro"
       id="path-effect12"
       is_visible="true"
       lpeversion="1" />
    <inkscape:path-effect
       effect="spiro"
       id="path-effect11"
       is_visible="true"
       lpeversion="1" />
    <inkscape:path-effect
       effect="spiro"
       id="path-effect10"
       is_visible="true"
       lpeversion="1" />
    <inkscape:path-effect
       effect="spiro"
       id="path-effect9"
       is_visible="true"
       lpeversion="1" />
    <inkscape:path-effect
       effect="spiro"
       id="path-effect8"
       is_visible="true"
       lpeversion="1" />
    <inkscape:path-effect
       effect="spiro"
       id="path-effect7"
       is_visible="true"
       lpeversion="1" />
    <inkscape:path-effect
       effect="spiro"
       id="path-effect6"
       is_visible="true"
       lpeversion="1" />
    <inkscape:path-effect
       effect="spiro"
       id="path-effect5"
       is_visible="true"
       lpeversion="1" />
    <inkscape:path-effect
       effect="spiro"
       id="path-effect4"
       is_visible="true"
       lpeversion="1" />
  </defs>
  <sodipodi:namedview
     id="base"
     pagecolor="#ffffff"
     bordercolor="#666666"
     borderopacity="1.0"
     inkscape:pageopacity="0.0"
     inkscape:pageshadow="2"
     inkscape:zoom="1.2287658"
     inkscape:cx="330.00593"
     inkscape:cy="-46.38801"
     inkscape:document-units="mm"
     inkscape:current-layer="layer1"
     showgrid="false"
     showborder="true"
     width="200mm"
     showguides="true"
     inkscape:guide-bbox="true"
     inkscape:window-width="2560"
     inkscape:window-height="1387"
     inkscape:window-x="1728"
     inkscape:window-y="355"
     inkscape:window-maximized="0"
     inkscape:showpageshadow="2"
     inkscape:pagecheckerboard="0"
     inkscape:deskcolor="#d1d1d1">
    <inkscape:grid
       type="xygrid"
       id="grid815"
       units="mm"
       spacingx="10"
       spacingy="10"
       empspacing="4"
       dotted="false"
       originx="0"
       originy="0"
       visible="false" />
  </sodipodi:namedview>
  <metadata
     id="metadata5">
    <rdf:RDF>
      <cc:Work
         rdf:about="">
        <dc:format>image/svg+xml</dc:format>
        <dc:type
           rdf:resource="http://purl.org/dc/dcmitype/StillImage" />
      </cc:Work>
    </rdf:RDF>
  </metadata>
  <g
     inkscape:label="Layer 1"
     inkscape:groupmode="layer"
     id="layer1"
     transform="translate(0,-177)">
    <path
       style="font-variation-settings:normal;vector-effect:none;fill:#000000;fill-opacity:1;fill-rule:evenodd;stroke:none;stroke-width:0.264583;stroke-linecap:butt;stroke-linejoin:miter;stroke-miterlimit:4;stroke-dasharray:none;stroke-dashoffset:0;stroke-opacity:1;-inkscape-stroke:none;marker-start:none;marker-end:none;stop-color:#000000"
       id="path1"
       sodipodi:type="arc"
       sodipodi:cx="87.774658"
       sodipodi:cy="191.52686"
       sodipodi:rx="1.0108768"
       sodipodi:ry="1.0108768"
       sodipodi:start="0.0055031666"
       sodipodi:end="6.2778404"
       sodipodi:open="true"
       sodipodi:arc-type="arc"
       d="m 88.78552,191.53242 a 1.0108768,1.0108768 0 0 1 -1.013683,1.00531 1.0108768,1.0108768 0 0 1 -1.008056,-1.01095 1.0108768,1.0108768 0 0 1 1.008216,-1.0108 1.0108768,1.0108768 0 0 1 1.013524,1.00547" />
    <path
       style="font-variation-settings:normal;vector-effect:none;fill:#000000;fill-opacity:1;fill-rule:evenodd;stroke:none;stroke-width:0.264583;stroke-linecap:butt;stroke-linejoin:miter;stroke-miterlimit:4;stroke-dasharray:none;stroke-dashoffset:0;stroke-opacity:1;-inkscape-stroke:none;marker-start:none;marker-end:none;stop-color:#000000"
       id="path1-5"
       sodipodi:type="arc"
       sodipodi:cx="80.865639"
       sodipodi:cy="200.3423"
       sodipodi:rx="1.0108768"
       sodipodi:ry="1.0108768"
       sodipodi:start="0.0055031666"
       sodipodi:end="6.2778404"
       sodipodi:open="true"
       sodipodi:arc-type="arc"
       d="m 81.8765,200.34786 a 1.0108768,1.0108768 0 0 1 -1.013683,1.00531 1.0108768,1.0108768 0 0 1 -1.008055,-1.01095 1.0108768,1.0108768 0 0 1 1.008215,-1.01079 1.0108768,1.0108768 0 0 1 1.013524,1.00547" />
    <path
       style="font-variation-settings:normal;vector-effect:none;fill:#000000;fill-opacity:1;fill-rule:evenodd;stroke:none;stroke-width:0.264583;stroke-linecap:butt;stroke-linejoin:miter;stroke-miterlimit:4;stroke-dasharray:none;stroke-dashoffset:0;stroke-opacity:1;-inkscape-stroke:none;marker-start:none;marker-end:none;stop-color:#000000"
       id="path1-2"
       sodipodi:type="arc"
       sodipodi:cx="97.534393"
       sodipodi:cy="198.22563"
       sodipodi:rx="1.0108768"
       sodipodi:ry="1.0108768"
       sodipodi:start="0.0055031666"
       sodipodi:end="6.2778404"
       sodipodi:open="true"
       sodipodi:arc-type="arc"
       d="m 98.545255,198.23119 a 1.0108768,1.0108768 0 0 1 -1.013683,1.00531 1.0108768,1.0108768 0 0 1 -1.008055,-1.01095 1.0108768,1.0108768 0 0 1 1.008215,-1.01079 1.0108768,1.0108768 0 0 1 1.013524,1.00547" />
    <path
       style="font-variation-settings:normal;vector-effect:none;fill:#000000;fill-opacity:1;fill-rule:evenodd;stroke:none;stroke-width:0.264583;stroke-linecap:butt;stroke-linejoin:miter;stroke-miterlimit:4;stroke-dasharray:none;stroke-dashoffset:0;stroke-opacity:1;-inkscape-stroke:none;marker-start:none;marker-end:none;stop-color:#000000"
       id="path1-27"
       sodipodi:type="arc"
       sodipodi:cx="93.565643"
       sodipodi:cy="208.01521"
       sodipodi:rx="1.0108768"
       sodipodi:ry="1.0108768"
       sodipodi:start="0.0055031666"
       sodipodi:end="6.2778404"
       sodipodi:open="true"
       sodipodi:arc-type="arc"
       d="m 94.576505,208.02078 a 1.0108768,1.0108768 0 0 1 -1.013683,1.00531 1.0108768,1.0108768 0 0 1 -1.008055,-1.01096 1.0108768,1.0108768 0 0 1 1.008215,-1.01079 1.0108768,1.0108768 0 0 1 1.013524,1.00547" />
    <path
       style="font-variation-settings:normal;vector-effect:none;fill:#000000;fill-opacity:1;fill-rule:evenodd;stroke:none;stroke-width:0.264583;stroke-linecap:butt;stroke-linejoin:miter;stroke-miterlimit:4;stroke-dasharray:none;stroke-dashoffset:0;stroke-opacity:1;-inkscape-stroke:none;marker-start:none;marker-end:none;stop-color:#000000"
       id="path1-3"
       sodipodi:type="arc"
       sodipodi:cx="144.10104"
       sodipodi:cy="185.52563"
       sodipodi:rx="1.0108768"
       sodipodi:ry="1.0108768"
       sodipodi:start="0.0055031666"
       sodipodi:end="6.2778404"
       sodipodi:open="true"
       sodipodi:arc-type="arc"
       d="m 145.11191,185.5312 a 1.0108768,1.0108768 0 0 1 -1.01369,1.00531 1.0108768,1.0108768 0 0 1 -1.00805,-1.01096 1.0108768,1.0108768 0 0 1 1.00821,-1.01079 1.0108768,1.0108768 0 0 1 1.01353,1.00547" />
    <path
       style="font-variation-settings:normal;vector-effect:none;fill:#000000;fill-opacity:1;fill-rule:evenodd;stroke:none;stroke-width:0.264583;stroke-linecap:butt;stroke-linejoin:miter;stroke-miterlimit:4;stroke-dasharray:none;stroke-dashoffset:0;stroke-opacity:1;-inkscape-stroke:none;marker-start:none;marker-end:none;stop-color:#000000"
       id="path1-7"
       sodipodi:type="arc"
       sodipodi:cx="155.47813"
       sodipodi:cy="192.14021"
       sodipodi:rx="1.0108768"
       sodipodi:ry="1.0108768"
       sodipodi:start="0.0055031666"
       sodipodi:end="6.2778404"
       sodipodi:open="true"
       sodipodi:arc-type="arc"
       d="m 156.489,192.14578 a 1.0108768,1.0108768 0 0 1 -1.01369,1.00531 1.0108768,1.0108768 0 0 1 -1.00805,-1.01096 1.0108768,1.0108768 0 0 1 1.00821,-1.01079 1.0108768,1.0108768 0 0 1 1.01353,1.00547" />
    <path
       style="font-variation-settings:normal;vector-effect:none;fill:#000000;fill-opacity:1;fill-rule:evenodd;stroke:none;stroke-width:0.264583;stroke-linecap:butt;stroke-linejoin:miter;stroke-miterlimit:4;stroke-dasharray:none;stroke-dashoffset:0;stroke-opacity:1;-inkscape-stroke:none;marker-start:none;marker-end:none;stop-color:#000000"
       id="path1-9"
       sodipodi:type="arc"
       sodipodi:cx="141.98439"
       sodipodi:cy="195.05063"
       sodipodi:rx="1.0108768"
       sodipodi:ry="1.0108768"
       sodipodi:start="0.0055031666"
       sodipodi:end="6.2778404"
       sodipodi:open="true"
       sodipodi:arc-type="arc"
       d="m 142.99525,195.05619 a 1.0108768,1.0108768 0 0 1 -1.01368,1.00531 1.0108768,1.0108768 0 0 1 -1.00806,-1.01095 1.0108768,1.0108768 0 0 1 1.00822,-1.01079 1.0108768,1.0108768 0 0 1 1.01352,1.00547" />
    <path
       style="font-variation-settings:normal;vector-effect:none;fill:none;fill-opacity:1;fill-rule:evenodd;stroke:#000000;stroke-width:0.264583;stroke-linecap:butt;stroke-linejoin:miter;stroke-miterlimit:4;stroke-dasharray:none;stroke-dashoffset:0;stroke-opacity:1;-inkscape-stroke:none;marker-start:none;marker-end:none;stop-color:#000000"
       id="path1-9-7"
       sodipodi:type="arc"
       sodipodi:cx="117.64272"
       sodipodi:cy="187.6423"
       sodipodi:rx="1.0108768"
       sodipodi:ry="1.0108768"
       sodipodi:start="0.0055031666"
       sodipodi:end="6.2778404"
       sodipodi:open="true"
       sodipodi:arc-type="arc"
       d="m 118.65358,187.64787 a 1.0108768,1.0108768 0 0 1 -1.01368,1.00531 1.0108768,1.0108768 0 0 1 -1.00805,-1.01096 1.0108768,1.0108768 0 0 1 1.00821,-1.01079 1.0108768,1.0108768 0 0 1 1.01353,1.00547" />
    <path
       style="font-variation-settings:normal;vector-effect:none;fill:none;fill-opacity:1;fill-rule:evenodd;stroke:#000000;stroke-width:0.264583;stroke-linecap:butt;stroke-linejoin:miter;stroke-miterlimit:4;stroke-dasharray:none;stroke-dashoffset:0;stroke-opacity:1;-inkscape-stroke:none;marker-start:none;marker-end:none;stop-color:#000000"
       id="path1-9-7-2"
       sodipodi:type="arc"
       sodipodi:cx="110.63127"
       sodipodi:cy="200.21001"
       sodipodi:rx="1.0108768"
       sodipodi:ry="1.0108768"
       sodipodi:start="0.0055031666"
       sodipodi:end="6.2778404"
       sodipodi:open="true"
       sodipodi:arc-type="arc"
       d="m 111.64213,200.21557 a 1.0108768,1.0108768 0 0 1 -1.01368,1.00531 1.0108768,1.0108768 0 0 1 -1.00806,-1.01095 1.0108768,1.0108768 0 0 1 1.00822,-1.0108 1.0108768,1.0108768 0 0 1 1.01352,1.00547" />
    <path
       style="font-variation-settings:normal;vector-effect:none;fill:none;fill-opacity:1;fill-rule:evenodd;stroke:#000000;stroke-width:0.264583;stroke-linecap:butt;stroke-linejoin:miter;stroke-miterlimit:4;stroke-dasharray:none;stroke-dashoffset:0;stroke-opacity:1;-inkscape-stroke:none;marker-start:none;marker-end:none;stop-color:#000000"
       id="path1-9-7-3"
       sodipodi:type="arc"
       sodipodi:cx="107.72086"
       sodipodi:cy="214.76208"
       sodipodi:rx="1.0108768"
       sodipodi:ry="1.0108768"
       sodipodi:start="0.0055031666"
       sodipodi:end="6.2778404"
       sodipodi:open="true"
       sodipodi:arc-type="arc"
       d="m 108.73172,214.76765 a 1.0108768,1.0108768 0 0 1 -1.01368,1.00531 1.0108768,1.0108768 0 0 1 -1.00805,-1.01096 1.0108768,1.0108768 0 0 1 1.00821,-1.01079 1.0108768,1.0108768 0 0 1 1.01353,1.00547" />
    <path
       style="font-variation-settings:normal;vector-effect:none;fill:none;fill-opacity:1;fill-rule:evenodd;stroke:#000000;stroke-width:0.264583;stroke-linecap:butt;stroke-linejoin:miter;stroke-miterlimit:4;stroke-dasharray:none;stroke-dashoffset:0;stroke-opacity:1;-inkscape-stroke:none;marker-start:none;marker-end:none;stop-color:#000000"
       id="path1-9-7-6"
       sodipodi:type="arc"
       sodipodi:cx="74.647934"
       sodipodi:cy="215.29126"
       sodipodi:rx="1.0108768"
       sodipodi:ry="1.0108768"
       sodipodi:start="0.0055031666"
       sodipodi:end="6.2778404"
       sodipodi:open="true"
       sodipodi:arc-type="arc"
       d="m 75.658795,215.29682 a 1.0108768,1.0108768 0 0 1 -1.013683,1.00531 1.0108768,1.0108768 0 0 1 -1.008055,-1.01095 1.0108768,1.0108768 0 0 1 1.008215,-1.01079 1.0108768,1.0108768 0 0 1 1.013524,1.00547" />
    <path
       style="font-variation-settings:normal;vector-effect:none;fill:none;fill-opacity:1;fill-rule:evenodd;stroke:#000000;stroke-width:0.264583;stroke-linecap:butt;stroke-linejoin:miter;stroke-miterlimit:4;stroke-dasharray:none;stroke-dashoffset:0;stroke-opacity:1;-inkscape-stroke:none;marker-start:none;marker-end:none;stop-color:#000000"
       id="path1-9-7-5"
       sodipodi:type="arc"
       sodipodi:cx="75.177101"
       sodipodi:cy="186.45168"
       sodipodi:rx="1.0108768"
       sodipodi:ry="1.0108768"
       sodipodi:start="0.0055031666"
       sodipodi:end="6.2778404"
       sodipodi:open="true"
       sodipodi:arc-type="arc"
       d="m 76.187963,186.45724 a 1.0108768,1.0108768 0 0 1 -1.013683,1.00531 1.0108768,1.0108768 0 0 1 -1.008056,-1.01095 1.0108768,1.0108768 0 0 1 1.008216,-1.0108 1.0108768,1.0108768 0 0 1 1.013523,1.00547" />
    <path
       style="font-variation-settings:normal;vector-effect:none;fill:none;fill-opacity:1;fill-rule:evenodd;stroke:#000000;stroke-width:0.264583;stroke-linecap:butt;stroke-linejoin:miter;stroke-miterlimit:4;stroke-dasharray:none;stroke-dashoffset:0;stroke-opacity:1;-inkscape-stroke:none;marker-start:none;marker-end:none;stop-color:#000000"
       id="path1-9-7-58"
       sodipodi:type="arc"
       sodipodi:cx="96.608353"
       sodipodi:cy="182.21834"
       sodipodi:rx="1.0108768"
       sodipodi:ry="1.0108768"
       sodipodi:start="0.0055031666"
       sodipodi:end="6.2778404"
       sodipodi:open="true"
       sodipodi:arc-type="arc"
       d="m 97.619214,182.2239 a 1.0108768,1.0108768 0 0 1 -1.013683,1.00531 1.0108768,1.0108768 0 0 1 -1.008055,-1.01095 1.0108768,1.0108768 0 0 1 1.008215,-1.0108 1.0108768,1.0108768 0 0 1 1.013524,1.00547" />
    <path
       style="font-variation-settings:normal;vector-effect:none;fill:none;fill-opacity:1;fill-rule:evenodd;stroke:#000000;stroke-width:0.264583;stroke-linecap:butt;stroke-linejoin:miter;stroke-miterlimit:4;stroke-dasharray:none;stroke-dashoffset:0;stroke-opacity:1;-inkscape-stroke:none;marker-start:none;marker-end:none;stop-color:#000000"
       id="path1-9-7-1"
       sodipodi:type="arc"
       sodipodi:cx="127.82919"
       sodipodi:cy="180.10167"
       sodipodi:rx="1.0108768"
       sodipodi:ry="1.0108768"
       sodipodi:start="0.0055031666"
       sodipodi:end="6.2778404"
       sodipodi:open="true"
       sodipodi:arc-type="arc"
       d="m 128.84005,180.10723 a 1.0108768,1.0108768 0 0 1 -1.01368,1.00531 1.0108768,1.0108768 0 0 1 -1.00805,-1.01095 1.0108768,1.0108768 0 0 1 1.00821,-1.01079 1.0108768,1.0108768 0 0 1 1.01353,1.00547" />
    <path
       style="font-variation-settings:normal;vector-effect:none;fill:none;fill-opacity:1;fill-rule:evenodd;stroke:#000000;stroke-width:0.264583;stroke-linecap:butt;stroke-linejoin:miter;stroke-miterlimit:4;stroke-dasharray:none;stroke-dashoffset:0;stroke-opacity:1;-inkscape-stroke:none;marker-start:none;marker-end:none;stop-color:#000000"
       id="path1-9-7-4"
       sodipodi:type="arc"
       sodipodi:cx="129.94585"
       sodipodi:cy="192.53709"
       sodipodi:rx="1.0108768"
       sodipodi:ry="1.0108768"
       sodipodi:start="0.0055031666"
       sodipodi:end="6.2778404"
       sodipodi:open="true"
       sodipodi:arc-type="arc"
       d="m 130.95671,192.54266 a 1.0108768,1.0108768 0 0 1 -1.01368,1.00531 1.0108768,1.0108768 0 0 1 -1.00806,-1.01096 1.0108768,1.0108768 0 0 1 1.00822,-1.01079 1.0108768,1.0108768 0 0 1 1.01352,1.00547" />
    <path
       style="font-variation-settings:normal;vector-effect:none;fill:none;fill-opacity:1;fill-rule:evenodd;stroke:#000000;stroke-width:0.264583;stroke-linecap:butt;stroke-linejoin:miter;stroke-miterlimit:4;stroke-dasharray:none;stroke-dashoffset:0;stroke-opacity:1;-inkscape-stroke:none;marker-start:none;marker-end:none;stop-color:#000000"
       id="path1-9-7-7"
       sodipodi:type="arc"
       sodipodi:cx="144.83705"
       sodipodi:cy="207.53351"
       sodipodi:rx="1.0108768"
       sodipodi:ry="1.0108768"
       sodipodi:start="0.0055031666"
       sodipodi:end="6.2778404"
       sodipodi:open="true"
       sodipodi:arc-type="arc"
       d="m 145.84791,207.53907 a 1.0108768,1.0108768 0 0 1 -1.01368,1.00531 1.0108768,1.0108768 0 0 1 -1.00806,-1.01095 1.0108768,1.0108768 0 0 1 1.00822,-1.01079 1.0108768,1.0108768 0 0 1 1.01352,1.00547" />
    <path
       style="font-variation-settings:normal;vector-effect:none;fill:none;fill-opacity:1;fill-rule:evenodd;stroke:#000000;stroke-width:0.264583;stroke-linecap:butt;stroke-linejoin:miter;stroke-miterlimit:4;stroke-dasharray:none;stroke-dashoffset:0;stroke-opacity:1;-inkscape-stroke:none;marker-start:none;marker-end:none;stop-color:#000000"
       id="path1-9-7-13"
       sodipodi:type="arc"
       sodipodi:cx="129.15208"
       sodipodi:cy="208.67668"
       sodipodi:rx="1.0108768"
       sodipodi:ry="1.0108768"
       sodipodi:start="0.0055031666"
       sodipodi:end="6.2778404"
       sodipodi:open="true"
       sodipodi:arc-type="arc"
       d="m 130.16295,208.68224 a 1.0108768,1.0108768 0 0 1 -1.01369,1.00531 1.0108768,1.0108768 0 0 1 -1.00805,-1.01095 1.0108768,1.0108768 0 0 1 1.00821,-1.01079 1.0108768,1.0108768 0 0 1 1.01353,1.00547" />
    <path
       style="font-variation-settings:normal;vector-effect:none;fill:none;fill-opacity:1;fill-rule:evenodd;stroke:#000000;stroke-width:0.264583;stroke-linecap:butt;stroke-linejoin:miter;stroke-miterlimit:4;stroke-dasharray:none;stroke-dashoffset:0;stroke-opacity:1;-inkscape-stroke:none;marker-start:none;marker-end:none;stop-color:#000000"
       id="path1-9-7-8"
       sodipodi:type="arc"
       sodipodi:cx="153.22917"
       sodipodi:cy="212.11626"
       sodipodi:rx="1.0108768"
       sodipodi:ry="1.0108768"
       sodipodi:start="0.0055031666"
       sodipodi:end="6.2778404"
       sodipodi:open="true"
       sodipodi:arc-type="arc"
       d="m 154.24003,212.12182 a 1.0108768,1.0108768 0 0 1 -1.01368,1.00531 1.0108768,1.0108768 0 0 1 -1.00806,-1.01095 1.0108768,1.0108768 0 0 1 1.00822,-1.0108 1.0108768,1.0108768 0 0 1 1.01352,1.00547" />
    <path
       style="font-variation-settings:normal;vector-effect:none;fill:none;fill-opacity:1;fill-rule:evenodd;stroke:#000000;stroke-width:0.264583;stroke-linecap:butt;stroke-linejoin:miter;stroke-miterlimit:4;stroke-dasharray:none;stroke-dashoffset:0;stroke-opacity:1;-inkscape-stroke:none;marker-start:none;marker-end:none;stop-color:#000000"
       id="path1-9-7-48"
       sodipodi:type="arc"
       sodipodi:cx="164.34167"
       sodipodi:cy="208.67668"
       sodipodi:rx="1.0108768"
       sodipodi:ry="1.0108768"
       sodipodi:start="0.0055031666"
       sodipodi:end="6.2778404"
       sodipodi:open="true"
       sodipodi:arc-type="arc"
       d="m 165.35254,208.68224 a 1.0108768,1.0108768 0 0 1 -1.01369,1.00531 1.0108768,1.0108768 0 0 1 -1.00805,-1.01095 1.0108768,1.0108768 0 0 1 1.00821,-1.01079 1.0108768,1.0108768 0 0 1 1.01353,1.00547" />
    <path
       style="font-variation-settings:normal;vector-effect:none;fill:none;fill-opacity:1;fill-rule:evenodd;stroke:#000000;stroke-width:0.264583;stroke-linecap:butt;stroke-linejoin:miter;stroke-miterlimit:4;stroke-dasharray:none;stroke-dashoffset:0;stroke-opacity:1;-inkscape-stroke:none;marker-start:none;marker-end:none;stop-color:#000000"
       id="path1-9-7-0"
       sodipodi:type="arc"
       sodipodi:cx="168.31042"
       sodipodi:cy="193.33084"
       sodipodi:rx="1.0108768"
       sodipodi:ry="1.0108768"
       sodipodi:start="0.0055031666"
       sodipodi:end="6.2778404"
       sodipodi:open="true"
       sodipodi:arc-type="arc"
       d="m 169.32129,193.3364 a 1.0108768,1.0108768 0 0 1 -1.01369,1.00531 1.0108768,1.0108768 0 0 1 -1.00805,-1.01095 1.0108768,1.0108768 0 0 1 1.00821,-1.01079 1.0108768,1.0108768 0 0 1 1.01353,1.00547" />
    <path
       style="font-variation-settings:normal;vector-effect:none;fill:none;fill-opacity:1;fill-rule:evenodd;stroke:#000000;stroke-width:0.264583;stroke-linecap:butt;stroke-linejoin:miter;stroke-miterlimit:4;stroke-dasharray:none;stroke-dashoffset:0;stroke-opacity:1;-inkscape-stroke:none;marker-start:none;marker-end:none;stop-color:#000000"
       id="path1-9-7-46"
       sodipodi:type="arc"
       sodipodi:cx="151.64168"
       sodipodi:cy="181.16"
       sodipodi:rx="1.0108768"
       sodipodi:ry="1.0108768"
       sodipodi:start="0.0055031666"
       sodipodi:end="6.2778404"
       sodipodi:open="true"
       sodipodi:arc-type="arc"
       d="m 152.65254,181.16557 a 1.0108768,1.0108768 0 0 1 -1.01368,1.00531 1.0108768,1.0108768 0 0 1 -1.00806,-1.01096 1.0108768,1.0108768 0 0 1 1.00822,-1.01079 1.0108768,1.0108768 0 0 1 1.01352,1.00547" />
    <path
       style="font-variation-settings:normal;vector-effect:none;fill:#000000;fill-opacity:1;fill-rule:evenodd;stroke:none;stroke-width:0.264583;stroke-linecap:butt;stroke-linejoin:miter;stroke-miterlimit:4;stroke-dasharray:none;stroke-dashoffset:0;stroke-opacity:1;-inkscape-stroke:none;marker-start:none;marker-end:none;stop-color:#000000"
       id="path1-0"
       sodipodi:type="arc"
       sodipodi:cx="158.12402"
       sodipodi:cy="197.96104"
       sodipodi:rx="1.0108768"
       sodipodi:ry="1.0108768"
       sodipodi:start="0.0055031666"
       sodipodi:end="6.2778404"
       sodipodi:open="true"
       sodipodi:arc-type="arc"
       d="m 159.13488,197.96661 a 1.0108768,1.0108768 0 0 1 -1.01368,1.00531 1.0108768,1.0108768 0 0 1 -1.00805,-1.01096 1.0108768,1.0108768 0 0 1 1.00821,-1.01079 1.0108768,1.0108768 0 0 1 1.01353,1.00547" />
    <path
       style="font-variation-settings:normal;vector-effect:none;fill:#000000;fill-opacity:1;fill-rule:evenodd;stroke:none;stroke-width:0.264583;stroke-linecap:butt;stroke-linejoin:miter;stroke-miterlimit:4;stroke-dasharray:none;stroke-dashoffset:0;stroke-opacity:1;-inkscape-stroke:none;marker-start:none;marker-end:none;stop-color:#000000"
       id="path1-23"
       sodipodi:type="arc"
       sodipodi:cx="147.80522"
       sodipodi:cy="202.98813"
       sodipodi:rx="1.0108768"
       sodipodi:ry="1.0108768"
       sodipodi:start="0.0055031666"
       sodipodi:end="6.2778404"
       sodipodi:open="true"
       sodipodi:arc-type="arc"
       d="m 148.81608,202.99369 a 1.0108768,1.0108768 0 0 1 -1.01368,1.00531 1.0108768,1.0108768 0 0 1 -1.00806,-1.01095 1.0108768,1.0108768 0 0 1 1.00822,-1.01079 1.0108768,1.0108768 0 0 1 1.01352,1.00547" />
    <path
       style="fill:none;stroke:#000000;stroke-width:0.264583px;stroke-linecap:butt;stroke-linejoin:miter;stroke-opacity:1"
       d="M 94.673369,203.41087 84.913636,196.7121"
       id="path4"
       inkscape:path-effect="#path-effect4"
       inkscape:original-d="m 94.673369,203.41087 c -3.253246,-2.23292 -6.506488,-4.46585 -9.759733,-6.69877"
       transform="translate(2.861014,-5.18527)" />
    <path
       style="fill:none;stroke:#000000;stroke-width:0.264583px;stroke-linecap:butt;stroke-linejoin:miter;stroke-opacity:1"
       d="m 78.004616,205.52754 16.668753,-2.11667"
       id="path5"
       inkscape:path-effect="#path-effect5"
       inkscape:original-d="m 78.004616,205.52754 c 5.55625,-0.70556 11.1125,-1.41111 16.668753,-2.11667"
       transform="translate(2.861014,-5.18527)" />
    <path
       style="fill:none;stroke:#000000;stroke-width:0.264583px;stroke-linecap:butt;stroke-linejoin:miter;stroke-opacity:1"
       d="m 72.769319,192.54049 5.235297,12.98705"
       id="path6"
       inkscape:path-effect="#path-effect6"
       inkscape:original-d="m 72.769319,192.54049 c 1.745099,4.32902 3.490198,8.65803 5.235297,12.98705"
       transform="translate(2.861014,-5.18527)" />
    <path
       style="fill:none;stroke:#000000;stroke-width:0.264583px;stroke-linecap:butt;stroke-linejoin:miter;stroke-opacity:1"
       d="m 92.73646,187.40358 -19.409513,4.22793"
       id="path7"
       inkscape:path-effect="#path-effect7"
       inkscape:original-d="m 92.73646,187.40358 c -6.469838,1.40931 -12.939675,2.81862 -19.409513,4.22793"
       transform="translate(2.861014,-5.18527)" />
    <path
       style="fill:none;stroke:#000000;stroke-width:0.264583px;stroke-linecap:butt;stroke-linejoin:miter;stroke-opacity:1"
       d="m 78.004616,205.52754 -5.750282,14.05264"
       id="path8"
       inkscape:path-effect="#path-effect8"
       inkscape:original-d="m 78.004616,205.52754 c -1.916761,4.68421 -3.833521,9.36843 -5.750282,14.05264"
       transform="translate(2.861014,-5.18527)" />
    <path
       style="fill:none;stroke:#000000;stroke-width:0.264583px;stroke-linecap:butt;stroke-linejoin:miter;stroke-opacity:1"
       d="M 90.704619,213.20046 72.79778,220.4711"
       id="path9"
       inkscape:path-effect="#path-effect9"
       inkscape:original-d="M 90.704619,213.20046 C 84.735674,215.624 78.766727,218.04755 72.79778,220.4711"
       transform="translate(2.861014,-5.18527)" />
    <path
       style="fill:none;stroke:#000000;stroke-width:0.264583px;stroke-linecap:butt;stroke-linejoin:miter;stroke-opacity:1"
       d="M 103.84895,219.94732 90.704619,213.20046"
       id="path10"
       inkscape:path-effect="#path-effect10"
       inkscape:original-d="m 103.84895,219.94732 c -4.38144,-2.24895 -8.762887,-4.4979 -13.144331,-6.74686"
       transform="translate(2.861014,-5.18527)" />
    <path
       style="fill:none;stroke:#000000;stroke-width:0.264583px;stroke-linecap:butt;stroke-linejoin:miter;stroke-opacity:1"
       d="m 72.79778,220.4711 31.05117,-0.52378"
       id="path11"
       inkscape:path-effect="#path-effect11"
       inkscape:original-d="m 72.79778,220.4711 c 10.350389,-0.17459 20.700778,-0.34919 31.05117,-0.52378"
       transform="translate(2.861014,-5.18527)" />
    <path
       style="fill:none;stroke:#000000;stroke-width:0.264583px;stroke-linecap:butt;stroke-linejoin:miter;stroke-opacity:1"
       d="m 94.673369,203.41087 12.086001,1.98438"
       id="path12"
       inkscape:path-effect="#path-effect12"
       inkscape:original-d="m 94.673369,203.41087 c 4.028667,0.66146 8.057331,1.32292 12.086001,1.98438"
       transform="translate(2.861014,-5.18527)" />
    <path
       style="fill:none;stroke:#000000;stroke-width:0.264583px;stroke-linecap:butt;stroke-linejoin:miter;stroke-opacity:1"
       d="m 114.13629,193.60556 -6.36604,10.77881"
       id="path13"
       inkscape:path-effect="#path-effect13"
       inkscape:original-d="m 114.13629,193.60556 c -2.33716,3.51532 -4.02889,7.26349 -6.36604,10.77881"
       sodipodi:nodetypes="cc"
       transform="translate(2.861014,-5.18527)" />
    <path
       style="fill:none;stroke:#000000;stroke-width:0.264583px;stroke-linecap:butt;stroke-linejoin:miter;stroke-opacity:1"
       d="m 94.758199,187.39818 29.199091,-2.11127"
       id="path14"
       inkscape:path-effect="#path-effect14"
       inkscape:original-d="m 94.758199,187.39818 c 9.733031,-0.70376 19.466061,-1.40751 29.199091,-2.11127"
       transform="translate(2.861014,-5.18527)" />
    <path
       style="fill:none;stroke:#000000;stroke-width:0.264583px;stroke-linecap:butt;stroke-linejoin:miter;stroke-opacity:1"
       d="m 126.07395,197.72234 -10.28138,-4.88923"
       id="path15"
       inkscape:path-effect="#path-effect15"
       inkscape:original-d="m 126.07395,197.72234 c -3.42713,-1.62975 -6.85425,-3.25949 -10.28138,-4.88923"
       transform="translate(2.861014,-5.18527)" />
    <path
       style="fill:none;stroke:#000000;stroke-width:0.264583px;stroke-linecap:butt;stroke-linejoin:miter;stroke-opacity:1"
       d="m 127.08483,198.73321 -0.79376,14.11784"
       id="path16"
       inkscape:path-effect="#path-effect16"
       inkscape:original-d="m 127.08483,198.73321 c -0.26458,4.70595 -0.52917,9.41189 -0.79376,14.11784"
       transform="translate(2.861014,-5.18527)" />
    <path
       style="fill:none;stroke:#000000;stroke-width:0.264583px;stroke-linecap:butt;stroke-linejoin:miter;stroke-opacity:1"
       d="m 105.87069,219.95289 19.40951,-6.09097"
       id="path17"
       inkscape:path-effect="#path-effect17"
       inkscape:original-d="m 105.87069,219.95289 c 6.46984,-2.03032 12.93967,-4.06065 19.40951,-6.09097"
       transform="translate(2.861014,-5.18527)" />
    <path
       style="fill:none;stroke:#000000;stroke-width:0.264583px;stroke-linecap:butt;stroke-linejoin:miter;stroke-opacity:1"
       d="m 127.30194,213.85652 13.66322,-1.13777"
       id="path18"
       inkscape:path-effect="#path-effect18"
       inkscape:original-d="m 127.30194,213.85652 c 4.55441,-0.37926 9.10882,-0.75851 13.66322,-1.13777"
       transform="translate(2.861014,-5.18527)" />
    <path
       style="fill:none;stroke:#000000;stroke-width:0.264583px;stroke-linecap:butt;stroke-linejoin:miter;stroke-opacity:1"
       d="m 128.09569,197.71693 11.02768,2.51894"
       id="path19"
       inkscape:path-effect="#path-effect19"
       inkscape:original-d="m 128.09569,197.71693 c 3.6759,0.83965 7.35179,1.67929 11.02768,2.51894"
       transform="translate(2.861014,-5.18527)" />
    <path
       style="fill:none;stroke:#000000;stroke-width:0.264583px;stroke-linecap:butt;stroke-linejoin:miter;stroke-opacity:1"
       d="m 124.96817,186.29779 2.11666,10.41367"
       id="path20"
       inkscape:path-effect="#path-effect20"
       inkscape:original-d="m 124.96817,186.29779 2.11666,10.41367"
       sodipodi:nodetypes="cc"
       transform="translate(2.861014,-5.18527)" />
    <path
       style="fill:none;stroke:#000000;stroke-width:0.264583px;stroke-linecap:butt;stroke-linejoin:miter;stroke-opacity:1"
       d="m 141.24003,190.71088 -15.261,-5.42937"
       id="path21"
       inkscape:path-effect="#path-effect21"
       inkscape:original-d="m 141.24003,190.71088 c -5.087,-1.80979 -10.174,-3.61958 -15.261,-5.42937"
       transform="translate(2.861014,-5.18527)" />
    <path
       style="fill:none;stroke:#000000;stroke-width:0.264583px;stroke-linecap:butt;stroke-linejoin:miter;stroke-opacity:1"
       d="m 141.24003,190.71088 6.68072,-3.83421"
       id="path22"
       inkscape:path-effect="#path-effect22"
       inkscape:original-d="m 141.24003,190.71088 c 2.2269,-1.27807 4.45381,-2.55614 6.68072,-3.83421"
       transform="translate(2.861014,-5.18527)" />
    <path
       style="fill:none;stroke:#000000;stroke-width:0.264583px;stroke-linecap:butt;stroke-linejoin:miter;stroke-opacity:1"
       d="m 149.79153,186.33984 15.08041,11.24812"
       id="path23"
       inkscape:path-effect="#path-effect23"
       inkscape:original-d="m 149.79153,186.33984 c 5.0268,3.74937 10.0536,7.49875 15.08041,11.24812"
       transform="translate(2.861014,-5.18527)" />
    <path
       style="fill:none;stroke:#000000;stroke-width:0.264583px;stroke-linecap:butt;stroke-linejoin:miter;stroke-opacity:1"
       d="m 152.61712,197.32545 11.82142,1.19063"
       id="path24"
       inkscape:path-effect="#path-effect24"
       inkscape:original-d="m 152.61712,197.32545 c 3.94047,0.39688 7.88095,0.79376 11.82142,1.19063"
       transform="translate(2.861014,-5.18527)" />
    <path
       style="fill:none;stroke:#000000;stroke-width:0.264583px;stroke-linecap:butt;stroke-linejoin:miter;stroke-opacity:1"
       d="m 155.26301,203.14629 -2.64589,-5.82084"
       id="path25"
       inkscape:path-effect="#path-effect25"
       inkscape:original-d="m 155.26301,203.14629 c -0.88197,-1.94028 -1.76393,-3.88056 -2.64589,-5.82084"
       transform="translate(2.861014,-5.18527)" />
    <path
       style="fill:none;stroke:#000000;stroke-width:0.264583px;stroke-linecap:butt;stroke-linejoin:miter;stroke-opacity:1"
       d="m 141.24003,190.71088 3.70417,17.46249"
       id="path26"
       inkscape:path-effect="#path-effect26"
       inkscape:original-d="m 141.24003,190.71088 c 1.23473,5.82083 2.46945,11.64166 3.70417,17.46249"
       transform="translate(2.861014,-5.18527)" />
    <path
       style="fill:none;stroke:#000000;stroke-width:0.264583px;stroke-linecap:butt;stroke-linejoin:miter;stroke-opacity:1"
       d="m 139.12337,200.23587 16.13964,2.91042"
       id="path27"
       inkscape:path-effect="#path-effect27"
       inkscape:original-d="m 139.12337,200.23587 c 5.37988,0.97014 10.75976,1.94028 16.13964,2.91042"
       transform="translate(2.861014,-5.18527)" />
    <path
       style="fill:none;stroke:#000000;stroke-width:0.264583px;stroke-linecap:butt;stroke-linejoin:miter;stroke-opacity:1"
       d="m 150.36816,216.29062 -5.42396,-8.11725"
       id="path28"
       inkscape:path-effect="#path-effect28"
       inkscape:original-d="m 150.36816,216.29062 c -1.80799,-2.70575 -3.61597,-5.4115 -5.42396,-8.11725"
       transform="translate(2.861014,-5.18527)" />
    <path
       style="fill:none;stroke:#000000;stroke-width:0.264583px;stroke-linecap:butt;stroke-linejoin:miter;stroke-opacity:1"
       d="m 142.9869,212.72431 6.37038,4.57719"
       id="path29"
       inkscape:path-effect="#path-effect29"
       inkscape:original-d="m 142.9869,212.72431 c 2.12346,1.52573 4.24693,3.05146 6.37038,4.57719"
       transform="translate(2.861014,-5.18527)" />
    <path
       style="fill:none;stroke:#000000;stroke-width:0.264583px;stroke-linecap:butt;stroke-linejoin:miter;stroke-opacity:1"
       d="m 151.37902,217.29609 9.09077,-3.43417"
       id="path30"
       inkscape:path-effect="#path-effect30"
       inkscape:original-d="m 151.37902,217.29609 c 3.03026,-1.14472 6.06051,-2.28944 9.09077,-3.43417"
       transform="translate(2.861014,-5.18527)" />
    <path
       style="fill:none;stroke:#000000;stroke-width:0.264583px;stroke-linecap:butt;stroke-linejoin:miter;stroke-opacity:1"
       d="m 155.26301,203.14629 5.61116,9.90691"
       id="path31"
       inkscape:path-effect="#path-effect31"
       inkscape:original-d="m 155.26301,203.14629 c 1.87038,3.3023 3.74077,6.60461 5.61116,9.90691"
       transform="translate(2.861014,-5.18527)" />
    <path
       style="font-variation-settings:normal;opacity:1;vector-effect:none;fill:none;fill-opacity:1;fill-rule:evenodd;stroke:#0e0000;stroke-width:0.264583;stroke-linecap:butt;stroke-linejoin:miter;stroke-miterlimit:4;stroke-dasharray:none;stroke-dashoffset:0;stroke-opacity:1;-inkscape-stroke:none;stop-color:#000000;stop-opacity:1"
       id="path3"
       sodipodi:type="arc"
       sodipodi:cx="161.0135"
       sodipodi:cy="204.15501"
       sodipodi:rx="7.674335"
       sodipodi:ry="9.1044121"
       sodipodi:start="0.0055031666"
       sodipodi:end="6.2778404"
       sodipodi:open="true"
       sodipodi:arc-type="arc"
       d="m 168.68772,204.20512 a 7.674335,9.1044121 0 0 1 -7.69564,9.05427 7.674335,9.1044121 0 0 1 -7.65291,-9.1051 7.674335,9.1044121 0 0 1 7.65413,-9.10366 7.674335,9.1044121 0 0 1 7.69443,9.05572" />
    <path
       style="font-variation-settings:normal;opacity:1;vector-effect:none;fill:none;fill-opacity:1;fill-rule:evenodd;stroke:#0e0000;stroke-width:0.264583;stroke-linecap:butt;stroke-linejoin:miter;stroke-miterlimit:4;stroke-dasharray:none;stroke-dashoffset:0;stroke-opacity:1;-inkscape-stroke:none;stop-color:#000000;stop-opacity:1"
       id="path32"
       sodipodi:type="arc"
       sodipodi:cx="155.09911"
       sodipodi:cy="191.06389"
       sodipodi:rx="3.145355"
       sodipodi:ry="3.5355248"
       sodipodi:start="0.0055031666"
       sodipodi:end="6.2778404"
       sodipodi:open="true"
       sodipodi:arc-type="arc"
       d="m 158.24441,191.08335 a 3.145355,3.5355248 0 0 1 -3.15408,3.51605 3.145355,3.5355248 0 0 1 -3.13658,-3.53579 3.145355,3.5355248 0 0 1 3.13707,-3.53523 3.145355,3.5355248 0 0 1 3.1536,3.51661" />
    <path
       style="font-variation-settings:normal;opacity:1;vector-effect:none;fill:none;fill-opacity:1;fill-rule:evenodd;stroke:#0e0000;stroke-width:0.264583;stroke-linecap:butt;stroke-linejoin:miter;stroke-miterlimit:4;stroke-dasharray:none;stroke-dashoffset:0;stroke-opacity:1;-inkscape-stroke:none;stop-color:#000000;stop-opacity:1"
       id="path34"
       sodipodi:type="arc"
       sodipodi:cx="146.14395"
       sodipodi:cy="206.16312"
       sodipodi:rx="6.0743451"
       sodipodi:ry="5.9531116"
       sodipodi:start="0.0055031666"
       sodipodi:end="6.2778404"
       sodipodi:open="true"
       sodipodi:arc-type="arc"
       d="m 152.2182,206.19588 a 6.0743451,5.9531116 0 0 1 -6.0912,5.92032 6.0743451,5.9531116 0 0 1 -6.05739,-5.95355 6.0743451,5.9531116 0 0 1 6.05835,-5.95262 6.0743451,5.9531116 0 0 1 6.09025,5.92127" />
    <path
       style="font-variation-settings:normal;opacity:1;vector-effect:none;fill:none;fill-opacity:1;fill-rule:evenodd;stroke:#0e0000;stroke-width:0.264583;stroke-linecap:butt;stroke-linejoin:miter;stroke-miterlimit:4;stroke-dasharray:none;stroke-dashoffset:0;stroke-opacity:1;-inkscape-stroke:none;stop-color:#000000;stop-opacity:1"
       id="path35"
       sodipodi:type="arc"
       sodipodi:cx="141.98441"
       sodipodi:cy="195.05063"
       sodipodi:rx="3.0957603"
       sodipodi:ry="3.1520355"
       sodipodi:start="0.0055031666"
       sodipodi:end="6.2778404"
       sodipodi:open="true"
       sodipodi:arc-type="arc"
       d="m 145.08012,195.06797 a 3.0957603,3.1520355 0 0 1 -3.10436,3.13468 3.0957603,3.1520355 0 0 1 -3.08711,-3.15227 3.0957603,3.1520355 0 0 1 3.0876,-3.15178 3.0957603,3.1520355 0 0 1 3.10387,3.13518" />
    <path
       style="font-variation-settings:normal;opacity:1;vector-effect:none;fill:none;fill-opacity:1;fill-rule:evenodd;stroke:#0e0000;stroke-width:0.264583;stroke-linecap:butt;stroke-linejoin:miter;stroke-miterlimit:4;stroke-dasharray:none;stroke-dashoffset:0;stroke-opacity:1;-inkscape-stroke:none;stop-color:#000000;stop-opacity:1"
       id="path36"
       sodipodi:type="arc"
       sodipodi:cx="146.70233"
       sodipodi:cy="184.00496"
       sodipodi:rx="7.5808835"
       sodipodi:ry="6.897121"
       sodipodi:start="0.0055031666"
       sodipodi:end="6.2778404"
       sodipodi:open="true"
       sodipodi:arc-type="arc"
       d="m 154.2831,184.04291 a 7.5808835,6.897121 0 0 1 -7.60193,6.85914 7.5808835,6.897121 0 0 1 -7.55972,-6.89764 7.5808835,6.897121 0 0 1 7.56092,-6.89655 7.5808835,6.897121 0 0 1 7.60074,6.86023" />
    <path
       style="font-variation-settings:normal;opacity:1;vector-effect:none;fill:none;fill-opacity:1;fill-rule:evenodd;stroke:#0e0000;stroke-width:0.264583;stroke-linecap:butt;stroke-linejoin:miter;stroke-miterlimit:4;stroke-dasharray:none;stroke-dashoffset:0;stroke-opacity:1;-inkscape-stroke:none;stop-color:#000000;stop-opacity:1"
       id="path37"
       sodipodi:type="arc"
       sodipodi:cx="92.654518"
       sodipodi:cy="186.45184"
       sodipodi:rx="8.4963398"
       sodipodi:ry="8.4243727"
       sodipodi:start="0.0055031666"
       sodipodi:end="6.2778404"
       sodipodi:open="true"
       sodipodi:arc-type="arc"
       d="m 101.15073,186.4982 a 8.4963398,8.4243727 0 0 1 -8.519926,8.37798 8.4963398,8.4243727 0 0 1 -8.472626,-8.425 8.4963398,8.4243727 0 0 1 8.47397,-8.42368 8.4963398,8.4243727 0 0 1 8.518592,8.37932" />
    <path
       style="font-variation-settings:normal;opacity:1;vector-effect:none;fill:none;fill-opacity:1;fill-rule:evenodd;stroke:#0e0000;stroke-width:0.264583;stroke-linecap:butt;stroke-linejoin:miter;stroke-miterlimit:4;stroke-dasharray:none;stroke-dashoffset:0;stroke-opacity:1;-inkscape-stroke:none;stop-color:#000000;stop-opacity:1"
       id="path38"
       sodipodi:type="arc"
       sodipodi:cx="77.944633"
       sodipodi:cy="207.87816"
       sodipodi:rx="11.12324"
       sodipodi:ry="10.531116"
       sodipodi:start="0.0055031666"
       sodipodi:end="6.2778404"
       sodipodi:open="true"
       sodipodi:arc-type="arc"
       d="m 89.067706,207.93611 a 11.12324,10.531116 0 0 1 -11.154119,10.47312 11.12324,10.531116 0 0 1 -11.092194,-10.5319 11.12324,10.531116 0 0 1 11.093954,-10.53025 11.12324,10.531116 0 0 1 11.152368,10.47479" />
    <path
       style="font-variation-settings:normal;opacity:1;vector-effect:none;fill:none;fill-opacity:1;fill-rule:evenodd;stroke:#0e0000;stroke-width:0.264583;stroke-linecap:butt;stroke-linejoin:miter;stroke-miterlimit:4;stroke-dasharray:none;stroke-dashoffset:0;stroke-opacity:1;-inkscape-stroke:none;stop-color:#000000;stop-opacity:1"
       id="path39"
       sodipodi:type="arc"
       sodipodi:cx="100.74792"
       sodipodi:cy="211.53882"
       sodipodi:rx="10.629758"
       sodipodi:ry="7.8471637"
       sodipodi:start="0.0055031666"
       sodipodi:end="6.2778404"
       sodipodi:open="true"
       sodipodi:arc-type="arc"
       d="m 111.37751,211.582 a 10.629758,7.8471637 0 0 1 -10.65926,7.80395 10.629758,7.8471637 0 0 1 -10.600091,-7.84775 10.629758,7.8471637 0 0 1 10.601771,-7.84652 10.629758,7.8471637 0 0 1 10.65759,7.8052" />
    <path
       style="font-variation-settings:normal;opacity:1;vector-effect:none;fill:none;fill-opacity:1;fill-rule:evenodd;stroke:#0e0000;stroke-width:0.264583;stroke-linecap:butt;stroke-linejoin:miter;stroke-miterlimit:4;stroke-dasharray:none;stroke-dashoffset:0;stroke-opacity:1;-inkscape-stroke:none;stop-color:#000000;stop-opacity:1"
       id="path40"
       sodipodi:type="arc"
       sodipodi:cx="97.534409"
       sodipodi:cy="198.22563"
       sodipodi:rx="3.0949583"
       sodipodi:ry="3.0949583"
       sodipodi:start="0.0055031666"
       sodipodi:end="6.2778404"
       sodipodi:open="true"
       sodipodi:arc-type="arc"
       d="m 100.62932,198.24266 a 3.0949583,3.0949583 0 0 1 -3.10355,3.07792 3.0949583,3.0949583 0 0 1 -3.08632,-3.09519 3.0949583,3.0949583 0 0 1 3.08681,-3.09471 3.0949583,3.0949583 0 0 1 3.10306,3.07841" />
    <text
       xml:space="preserve"
       style="font-size:4.9389px;line-height:1.25;font-family:sans-serif;text-decoration-color:#000000;letter-spacing:0px;word-spacing:0px;fill:#000000;stroke-width:0.264999;-inkscape-stroke:none;stop-color:#000000"
       x="154.55127"
       y="181.57411"
       id="text40"><tspan
         sodipodi:role="line"
         id="tspan40"
         style="stroke-width:0.265"
         x="154.55127"
         y="181.57411">\(S_i\)</tspan></text>
    <text
       xml:space="preserve"
       style="font-size:4.9389px;line-height:1.25;font-family:sans-serif;text-decoration-color:#000000;letter-spacing:0px;word-spacing:0px;fill:#000000;stroke-width:0.264999;-inkscape-stroke:none;stop-color:#000000"
       x="142.92136"
       y="182.99203"
       id="text41"><tspan
         sodipodi:role="line"
         id="tspan41"
         style="stroke-width:0.265"
         x="142.92136"
         y="182.99203">\(t_i\)</tspan></text>
  </g>
</svg>
