<?xml version="1.0" encoding="UTF-8" standalone="no"?>
<!-- Created with Inkscape (http://www.inkscape.org/) -->

<svg
   width="240mm"
   height="41mm"
   viewBox="0 0 240 41"
   version="1.1"
   id="svg8"
   inkscape:version="1.1.1 (c3084ef, 2021-09-22)"
   sodipodi:docname="monte-carlo-estimator-3.svg"
   xmlns:inkscape="http://www.inkscape.org/namespaces/inkscape"
   xmlns:sodipodi="http://sodipodi.sourceforge.net/DTD/sodipodi-0.dtd"
   xmlns="http://www.w3.org/2000/svg"
   xmlns:svg="http://www.w3.org/2000/svg"
   xmlns:rdf="http://www.w3.org/1999/02/22-rdf-syntax-ns#"
   xmlns:cc="http://creativecommons.org/ns#"
   xmlns:dc="http://purl.org/dc/elements/1.1/">
  <defs
     id="defs2">
    <inkscape:path-effect
       effect="spiro"
       id="path-effect951"
       is_visible="true"
       lpeversion="1" />
    <inkscape:path-effect
       effect="spiro"
       id="path-effect947"
       is_visible="true"
       lpeversion="1" />
    <inkscape:path-effect
       effect="spiro"
       id="path-effect943"
       is_visible="true"
       lpeversion="1" />
    <inkscape:path-effect
       effect="spiro"
       id="path-effect4626"
       is_visible="true"
       lpeversion="1" />
    <inkscape:path-effect
       effect="spiro"
       id="path-effect3333"
       is_visible="true"
       lpeversion="1" />
    <marker
       style="overflow:visible"
       id="TriangleOutM"
       refX="0"
       refY="0"
       orient="auto"
       inkscape:stockid="TriangleOutM"
       inkscape:isstock="true">
      <path
         transform="scale(0.4)"
         style="fill:context-stroke;fill-rule:evenodd;stroke:context-stroke;stroke-width:1pt"
         d="M 5.77,0 -2.88,5 V -5 Z"
         id="path3037" />
    </marker>
    <marker
       style="overflow:visible"
       id="Arrow2Lend"
       refX="0"
       refY="0"
       orient="auto"
       inkscape:stockid="Arrow2Lend"
       inkscape:isstock="true">
      <path
         transform="matrix(-1.1,0,0,-1.1,-1.1,0)"
         d="M 8.7185878,4.0337352 -2.2072895,0.01601326 8.7185884,-4.0017078 c -1.7454984,2.3720609 -1.7354408,5.6174519 -6e-7,8.035443 z"
         style="fill:context-stroke;fill-rule:evenodd;stroke:context-stroke;stroke-width:0.625;stroke-linejoin:round"
         id="path2913" />
    </marker>
    <inkscape:path-effect
       effect="spiro"
       id="path-effect1406"
       is_visible="true"
       lpeversion="1" />
    <inkscape:path-effect
       effect="spiro"
       id="path-effect862"
       is_visible="true"
       lpeversion="1" />
    <inkscape:path-effect
       effect="spiro"
       id="path-effect858"
       is_visible="true"
       lpeversion="1" />
    <marker
       style="overflow:visible"
       id="TriangleOutM-0"
       refX="0"
       refY="0"
       orient="auto"
       inkscape:stockid="TriangleOutM"
       inkscape:isstock="true">
      <path
         transform="scale(0.4)"
         style="fill:context-stroke;fill-rule:evenodd;stroke:context-stroke;stroke-width:1pt"
         d="M 5.77,0 -2.88,5 V -5 Z"
         id="path3037-1" />
    </marker>
    <marker
       id="marker-arrow-1"
       orient="auto-start-reverse"
       refY="0"
       refX="0"
       markerHeight="3"
       markerWidth="2">
      <g
         transform="scale(1.3933333)"
         id="g5259"><path
   d="M -1.55415,2.0722 C -1.42464,1.29512 0,0.1295 0.38852,0 0,-0.1295 -1.42464,-1.29512 -1.55415,-2.0722"
   style="fill:none;stroke:#000000;stroke-linecap:round;stroke-linejoin:round;stroke-miterlimit:10;stroke-dasharray:none;stroke-opacity:1"
   id="path5257" />




0&quot; /&gt;
   </g>
    </marker>
    <marker
       id="marker-arrow-1-1"
       orient="auto-start-reverse"
       refY="0"
       refX="0"
       markerHeight="3"
       markerWidth="2">
      <g
         transform="scale(1.3933333)"
         id="g5550"><path
   d="M -1.55415,2.0722 C -1.42464,1.29512 0,0.1295 0.38852,0 0,-0.1295 -1.42464,-1.29512 -1.55415,-2.0722"
   style="fill:none;stroke:#000000;stroke-linecap:round;stroke-linejoin:round;stroke-miterlimit:10;stroke-dasharray:none;stroke-opacity:1"
   id="path5548" />

0&quot; /&gt;
   </g>
    </marker>
    <marker
       id="marker-arrow-1-7"
       orient="auto-start-reverse"
       refY="0"
       refX="0"
       markerHeight="3"
       markerWidth="2">
      <g
         transform="scale(1.3933333)"
         id="g5753"><path
   d="M -1.55415,2.0722 C -1.42464,1.29512 0,0.1295 0.38852,0 0,-0.1295 -1.42464,-1.29512 -1.55415,-2.0722"
   style="fill:none;stroke:#000000;stroke-linecap:round;stroke-linejoin:round;stroke-miterlimit:10;stroke-dasharray:none;stroke-opacity:1"
   id="path5751" />

0&quot; /&gt;
   </g>
    </marker>
  </defs>
  <sodipodi:namedview
     id="base"
     pagecolor="#ffffff"
     bordercolor="#666666"
     borderopacity="1.0"
     inkscape:pageopacity="0.0"
     inkscape:pageshadow="2"
     inkscape:zoom="1.1488487"
     inkscape:cx="574.05296"
     inkscape:cy="80.515389"
     inkscape:document-units="mm"
     inkscape:current-layer="layer1"
     showgrid="false"
     showborder="true"
     width="200mm"
     showguides="true"
     inkscape:guide-bbox="true"
     inkscape:window-width="1280"
     inkscape:window-height="680"
     inkscape:window-x="1728"
     inkscape:window-y="1191"
     inkscape:window-maximized="0"
     inkscape:pagecheckerboard="0">
    <inkscape:grid
       type="xygrid"
       id="grid815"
       units="mm"
       spacingx="10"
       spacingy="10"
       empspacing="4"
       dotted="false" />
  </sodipodi:namedview>
  <metadata
     id="metadata5">
    <rdf:RDF>
      <cc:Work
         rdf:about="">
        <dc:format>image/svg+xml</dc:format>
        <dc:type
           rdf:resource="http://purl.org/dc/dcmitype/StillImage" />
      </cc:Work>
    </rdf:RDF>
  </metadata>
  <g
     inkscape:label="Layer 1"
     inkscape:groupmode="layer"
     id="layer1"
     transform="translate(0,-177)">
    <path
       style="fill:none;stroke:#000000;stroke-width:0.264583;stroke-linecap:butt;stroke-linejoin:miter;stroke-miterlimit:4;stroke-dasharray:none;stroke-dashoffset:0;stroke-opacity:1"
       d="m 22.240428,195.33912 c 1.517956,-0.40301 3.169289,-0.2844 4.61407,0.3314 1.44478,0.6158 2.673928,1.72493 3.43442,3.09907 0.831366,1.5022 1.091216,3.24722 1.266403,4.95517 0.133105,1.29768 0.234087,2.63218 0.790993,3.81182 0.278452,0.58982 0.672357,1.13259 1.187946,1.53207 0.515588,0.39949 1.157758,0.64898 1.809954,0.64112 0.748581,-0.009 1.447813,-0.34441 2.158864,-0.57863 0.355526,-0.11712 0.722446,-0.21041 1.096512,-0.22413 0.374066,-0.0137 0.757749,0.0561 1.079843,0.24677 0.233423,0.13821 0.428492,0.33626 0.580259,0.5611 0.151766,0.22484 0.261386,0.4762 0.342664,0.73501 0.162556,0.51761 0.212979,1.06258 0.312505,1.59591 0.09952,0.53334 0.25683,1.0733 0.596622,1.49626 0.169896,0.21148 0.384517,0.38975 0.632398,0.49994 0.247881,0.1102 0.529721,0.14993 0.795008,0.0933 0.322109,-0.0688 0.603261,-0.27495 0.81155,-0.5301 0.208289,-0.25515 0.350176,-0.55776 0.469263,-0.86485 0.119086,-0.30709 0.217635,-0.62231 0.350832,-0.92355 0.133198,-0.30124 0.304138,-0.59161 0.545805,-0.8154 0.292662,-0.27102 0.679883,-0.43158 1.076475,-0.47421 0.396592,-0.0426 0.801458,0.0292 1.170584,0.18035 0.738251,0.30232 1.315459,0.90313 1.781137,1.55086 0.465678,0.64773 0.842502,1.35654 1.319814,1.99574 0.477312,0.6392 1.079229,1.22108 1.832785,1.48292 0.587482,0.20414 1.23845,0.199 1.83658,0.0286 0.59813,-0.17044 1.144393,-0.50091 1.605263,-0.91853 0.92174,-0.83524 1.489475,-1.98736 1.94804,-3.14363 0.458564,-1.15626 0.834149,-2.35518 1.46741,-3.4258 0.316631,-0.5353 0.697912,-1.03629 1.162085,-1.45024 0.464172,-0.41395 1.013758,-0.73931 1.613746,-0.90308 0.712261,-0.19442 1.465116,-0.15667 2.201324,-0.10087 0.736208,0.0558 1.481706,0.12776 2.208553,-0.002 0.730099,-0.13023 1.417076,-0.46312 2.00298,-0.91778 0.585904,-0.45467 1.073245,-1.02867 1.469761,-1.65539 0.793031,-1.25344 1.220422,-2.69775 1.631189,-4.12298 0.501542,-1.74019 1.021812,-3.54058 2.186014,-4.92782 0.5821,-0.69363 1.323921,-1.26757 2.177205,-1.57065 0.853283,-0.30309 1.821339,-0.32026 2.653598,0.0365 0.841218,0.36063 1.492835,1.07308 1.946094,1.86823 0.453259,0.79514 0.728754,1.67689 1.000068,2.55101 0.464886,1.49778 0.93463,3.01276 1.740174,4.35833 0.805544,1.34557 1.993427,2.52618 3.487146,3.00395 0.980667,0.31367 2.050423,0.30828 3.048314,0.0547 0.99789,-0.2536 1.925669,-0.74859 2.739622,-1.37913 1.627906,-1.26107 2.781824,-3.02572 3.833149,-4.79634 2.834804,-4.77432 5.155921,-9.85343 6.910401,-15.12145"
       id="path860-5"
       sodipodi:nodetypes="cssssscssscssssc"
       inkscape:original-d="m 22.240428,195.33912 c 1.481721,1.58756 7.565153,1.49712 8.04849,3.43047 0.480074,1.92029 -3.097438,-15.32251 1.266403,4.95517 4.534342,21.06997 0.750823,6.34413 3.788893,5.98501 2.156772,-0.25494 2.60771,-1.87219 4.335219,-0.55599 2.16693,1.65099 2.238359,2.68402 3.259456,4.98149 0.254218,0.57199 1.81098,-3.64134 2.17745,-3.1339 2.793575,3.86803 1.335541,6.72554 7.180795,4.73566 11.631428,-3.95963 9.633124,-0.48125 9.633124,-9.81271 0,-2.82341 3.898382,2.67393 4.409877,-0.10276 0.836323,-4.54004 0.493713,-6.25708 5.10393,-6.69615 1.04411,-0.0994 6.251654,-7.17929 7.016817,-6.46194 1.29159,1.21086 2.236543,2.79725 2.946162,4.41924 0.967127,2.21057 2.248408,4.5586 5.22732,7.36228 1.643442,1.54677 6.66933,13.29736 9.621085,-6.12078 1.047103,-6.88838 4.665861,-9.94173 6.910401,-15.12145"
       inkscape:path-effect="#path-effect1406" />
    <circle
       style="fill:none;stroke:#000000;stroke-width:0.265;stroke-miterlimit:4;stroke-dasharray:none;stroke-dashoffset:0"
       id="path1190-2-0"
       cx="185.27571"
       cy="203.26978"
       r="0.87187177" />
    <circle
       style="fill:#000000;stroke:#000000;stroke-width:0.265;stroke-miterlimit:4;stroke-dasharray:none;stroke-dashoffset:0"
       id="path1190-0"
       cx="109.37434"
       cy="198.5024"
       r="0.87187177" />
    <circle
       style="fill:none;fill-opacity:1;stroke:#000000;stroke-width:0.264583;stroke-miterlimit:4;stroke-dasharray:none;stroke-dashoffset:0;stroke-opacity:1;marker-start:none;marker-end:none"
       id="path1190-0-2"
       cx="103.66124"
       cy="182.51941"
       r="0.87187177" />
    <circle
       style="fill:#000000;stroke:#000000;stroke-width:0.265;stroke-miterlimit:4;stroke-dasharray:none;stroke-dashoffset:0"
       id="path1190-0-5"
       cx="193.66705"
       cy="198.53047"
       r="0.87187177" />
    <text
       xml:space="preserve"
       style="font-size:5.64444px;line-height:1.25;font-family:sans-serif;letter-spacing:0px;stroke-width:0.264583"
       x="97.054321"
       y="280.70306"
       id="text4605"><tspan
         sodipodi:role="line"
         id="tspan4603"
         style="stroke-width:0.264583"
         x="97.054321"
         y="280.70306" /></text>
    <path
       style="fill:none;fill-opacity:1;stroke:#000000;stroke-width:0.264583;stroke-linecap:butt;stroke-linejoin:miter;stroke-dasharray:0.79375, 0.79375;stroke-opacity:1;marker-start:none;marker-end:none"
       d="m 103.66124,183.20286 c 2.6e-4,13.13886 2.6e-4,12.35497 0,25.49331"
       id="path1673"
       sodipodi:nodetypes="cc" />
    <text
       xml:space="preserve"
       style="font-size:5.64444px;line-height:1.25;font-family:sans-serif;letter-spacing:0px;stroke-width:0.264583"
       x="108.0764"
       y="191.11047"
       id="text2590"><tspan
         sodipodi:role="line"
         id="tspan2588"
         style="stroke-width:0.264583"
         x="108.0764"
         y="191.11047">Reset</tspan></text>
    <text
       xml:space="preserve"
       style="font-size:5.64444px;line-height:1.25;font-family:sans-serif;letter-spacing:0px;stroke-width:0.264583"
       x="187.62216"
       y="207.07169"
       id="text2590-2"><tspan
         sodipodi:role="line"
         id="tspan2588-7"
         style="stroke-width:0.264583"
         x="187.62216"
         y="207.07169">Reset</tspan></text>
    <path
       style="fill:none;fill-opacity:1;stroke:#000000;stroke-width:0.264583;stroke-linecap:butt;stroke-linejoin:miter;stroke-miterlimit:4;stroke-dasharray:none;stroke-dashoffset:0;stroke-opacity:1;marker-start:none;marker-end:url(#marker-arrow-1)"
       d="m 105.30299,185.19292 3.21079,10.91748"
       id="path2795"
       sodipodi:nodetypes="cc" />
    <path
       style="fill:none;fill-opacity:1;stroke:#000000;stroke-width:0.264583;stroke-linecap:butt;stroke-linejoin:miter;stroke-miterlimit:4;stroke-dasharray:none;stroke-dashoffset:0;stroke-opacity:1;marker-start:none;marker-end:url(#marker-arrow-1)"
       d="m 186.66248,202.82789 5.51442,-2.97861"
       id="path2795-2"
       sodipodi:nodetypes="cc" />
    <path
       style="fill:none;stroke:#000000;stroke-width:0.264583px;stroke-linecap:butt;stroke-linejoin:miter;stroke-opacity:1"
       d="m 109.36887,198.59792 c -0.15987,0.77396 -0.11745,1.58879 0.12192,2.34196 0.23937,0.75317 0.67515,1.44299 1.2525,1.98265 0.57735,0.53966 1.29497,0.92795 2.06257,1.116 0.76759,0.18806 1.58343,0.17545 2.34485,-0.0362 1.17534,-0.32674 2.1764,-1.10415 3.03008,-1.9756 0.85367,-0.87145 1.59155,-1.85094 2.44974,-2.71795 1.09243,-1.10366 2.36558,-2.011 3.51203,-3.05844 1.14646,-1.04744 2.19142,-2.28224 2.64083,-3.76868 0.33214,-1.09857 0.31992,-2.2685 0.50734,-3.40078 0.0937,-0.56614 0.23939,-1.1284 0.49538,-1.64197 0.25599,-0.51358 0.62778,-0.97838 1.11154,-1.28704 0.33031,-0.21075 0.7144,-0.34646 1.10621,-0.34954 0.3918,-0.003 0.79011,0.13376 1.07167,0.40624 0.26081,0.2524 0.40816,0.60335 0.47806,0.9595 0.0699,0.35615 0.0686,0.72183 0.0722,1.08475 0.004,0.36292 0.0128,0.72956 0.10255,1.08122 0.0898,0.35166 0.26798,0.69157 0.55545,0.91312 0.26106,0.20119 0.59869,0.29177 0.928,0.27826 0.32932,-0.0135 0.65006,-0.1266 0.93234,-0.29675 0.56456,-0.34029 0.96602,-0.88971 1.34582,-1.42849 0.37979,-0.53877 0.76699,-1.095 1.31606,-1.45976 0.27453,-0.18238 0.58776,-0.31261 0.91547,-0.34778 0.32771,-0.0352 0.67012,0.0289 0.94783,0.20642 0.3023,0.19323 0.51188,0.50847 0.63441,0.84568 0.12252,0.33721 0.16502,0.69784 0.19098,1.05568 0.0259,0.35784 0.0364,0.71788 0.0984,1.07127 0.062,0.35338 0.17906,0.70426 0.39688,0.98935 0.1892,0.24762 0.44532,0.43475 0.66033,0.66033 0.56111,0.58869 0.81281,1.40556 0.95627,2.20607 0.14345,0.80052 0.19831,1.62166 0.44891,2.39535 0.27189,0.83942 0.76254,1.58756 1.23614,2.33205 0.70001,1.1004 1.40431,2.24923 2.47354,2.99598 0.53461,0.37338 1.15688,0.6354 1.8068,0.68859 0.64992,0.0532 1.32716,-0.11381 1.83957,-0.51713 0.35208,-0.27713 0.61579,-0.65354 0.816,-1.05438 0.20021,-0.40085 0.34081,-0.82825 0.48222,-1.25342 0.14142,-0.42516 0.28518,-0.85177 0.49112,-1.2497 0.20594,-0.39793 0.47816,-0.76911 0.83805,-1.03602 0.45062,-0.3342 1.02151,-0.48779 1.58244,-0.47789 0.56094,0.01 1.1121,0.17649 1.61191,0.43131 0.99964,0.50963 1.7826,1.34931 2.58561,2.13299 0.76043,0.74213 1.56423,1.45285 2.48622,1.98099 0.95457,0.5468 2.01821,0.88775 2.95662,1.46183 1.00497,0.61479 1.84486,1.48409 2.89086,2.02613 0.523,0.27102 1.10032,0.45678 1.68937,0.45844 0.58905,0.002 1.19069,-0.1938 1.61535,-0.60202 0.40002,-0.38453 0.61425,-0.91865 0.80678,-1.43905 0.19252,-0.52039 0.38299,-1.05883 0.75135,-1.47379 0.40397,-0.45508 0.97847,-0.71351 1.53063,-0.96924 0.55216,-0.25574 1.12057,-0.53811 1.49042,-1.02133 0.38877,-0.50794 0.50508,-1.16737 0.76449,-1.75205 0.12971,-0.29234 0.30051,-0.5727 0.54228,-0.78206 0.24178,-0.20937 0.56174,-0.34186 0.88005,-0.31075 0.17252,0.0169 0.33899,0.0808 0.4843,0.17528 0.14531,0.0945 0.26988,0.21904 0.37297,0.35838 0.20619,0.2787 0.32515,0.61147 0.42395,0.94377 0.0988,0.3323 0.18099,0.67155 0.32531,0.98676 0.14433,0.3152 0.35899,0.6104 0.66111,0.78043 0.29728,0.16731 0.64945,0.1992 0.98975,0.22304 0.3403,0.0238 0.69142,0.0459 0.99709,0.19733 0.3624,0.17954 0.62047,0.52497 0.77798,0.89747 0.1575,0.37251 0.226,0.77541 0.2983,1.17333 0.0723,0.39792 0.15125,0.80015 0.32715,1.16433 0.0879,0.18209 0.20007,0.35351 0.3407,0.49883 0.14062,0.14532 0.31034,0.26413 0.49959,0.33539 0.19894,0.0749 0.41787,0.0959 0.62743,0.0603 0.20956,-0.0357 0.4092,-0.12796 0.57215,-0.26447 0.16295,-0.13651 0.28877,-0.31691 0.36061,-0.51698 0.0718,-0.20006 0.0895,-0.4193 0.0506,-0.62828"
       id="path3331"
       inkscape:path-effect="#path-effect3333"
       inkscape:original-d="m 109.36887,198.59792 c 1.79772,0.66135 4.39517,4.0829 5.78184,5.40439 4.14921,3.95418 1.71307,-3.05163 5.47982,-4.69355 0.5707,-0.24877 6.0815,-6.20866 6.15286,-6.82712 0.42108,-3.64943 -0.49703,-5.92806 2.11426,-6.32979 5.03646,-0.77484 0.81921,-1.57375 2.17788,0.0567 0.2905,0.34859 0.75833,3.9799 1.20828,4.03859 2.08494,0.27195 4.58948,-4.14134 6.38552,-3.0481 1.18913,0.72382 0.77228,2.68244 1.32066,3.96198 0.12262,0.28612 0.50018,0.39341 0.66033,0.66033 0.61451,1.02419 0.99606,3.57863 1.40518,4.60142 0.11739,0.29348 0.88396,2.33205 1.23614,2.33205 4.52432,0 1.61718,3.60889 6.11991,3.16744 1.11699,-0.10951 2.04995,-5.55592 2.62739,-4.59352 0.56054,0.93423 6.46987,1.24319 5.77996,2.08641 -2.13434,2.60864 3.10135,0.34052 2.48622,1.98099 -0.64777,1.72739 1.24371,0.77667 2.95662,1.46183 1.48781,0.59513 4.74349,1.20491 6.19558,1.88255 1.08495,0.50631 0.10783,-2.89119 1.55813,-2.91284 7.15617,-0.10681 -4.1329,-1.78321 3.02105,-1.99057 0.44004,-0.0128 2.40061,-3.22968 2.18682,-2.84486 -1.21879,2.19382 2.67447,5.72107 2.26764,3.24462 -0.87654,-5.33563 1.87678,0.75053 1.98684,0.42037 0.77038,-2.31116 1.27678,6.30541 2.24372,4.06935 0.8019,-1.85438 0.68414,0.44586 1.61076,-1.34946"
       sodipodi:nodetypes="csssssssssssssscssscsscsc" />
    <path
       style="fill:none;stroke:#000000;stroke-width:0.264583px;stroke-linecap:butt;stroke-linejoin:miter;stroke-opacity:1"
       d="m 193.81469,198.62094 c 0.056,0.66391 0.41008,1.29702 0.94638,1.69236 0.5363,0.39535 1.2458,0.54626 1.89658,0.40339 0.74393,-0.16332 1.35739,-0.67187 2.04253,-1.00457 0.34257,-0.16635 0.71293,-0.29076 1.0937,-0.29727 0.38076,-0.006 0.77407,0.11549 1.04306,0.38507 0.19592,0.19635 0.31514,0.45721 0.39392,0.72317 0.0788,0.26595 0.12086,0.54124 0.18627,0.81079 0.0654,0.26955 0.15671,0.53826 0.32116,0.76163 0.0822,0.11168 0.18241,0.21093 0.29914,0.28583 0.11672,0.0749 0.25028,0.12498 0.38836,0.13789 0.12023,0.0112 0.24105,-0.006 0.36129,-0.0167 0.12024,-0.0112 0.24362,-0.0165 0.35973,0.0167 0.13578,0.0388 0.25344,0.12902 0.34042,0.24026 0.087,0.11124 0.14505,0.24276 0.18618,0.37785 0.0823,0.27018 0.0998,0.55784 0.19442,0.82393 0.14497,0.40755 0.46451,0.73679 0.83557,0.95911 0.37106,0.22231 0.79251,0.34663 1.21547,0.43725 0.42296,0.0906 0.85257,0.14986 1.27243,0.25392 0.41985,0.10406 0.83475,0.25605 1.18289,0.51277 0.54395,0.4011 0.88379,1.03012 1.06535,1.68112 0.18155,0.651 0.22032,1.33181 0.26847,2.00594 0.0481,0.67412 0.10836,1.35576 0.32955,1.99438 0.2212,0.63863 0.62213,1.23896 1.21115,1.57034 0.39192,0.22049 0.85193,0.3116 1.30037,0.27802 0.44843,-0.0336 0.88457,-0.18933 1.26465,-0.42966 0.76016,-0.48066 1.27749,-1.28162 1.56312,-2.13443 0.57128,-1.70562 0.28348,-3.5707 0.52256,-5.35349 0.2216,-1.65245 0.90053,-3.22425 1.83351,-4.60601 0.93299,-1.38176 2.11529,-2.58146 3.39205,-3.65365 2.42825,-2.03919 5.22278,-3.64092 8.20965,-4.70548"
       id="path4624"
       inkscape:path-effect="#path-effect4626"
       inkscape:original-d="m 193.81469,198.62094 c 3.73872,-3.69986 0.46563,0.40725 2.84296,2.09575 14.99019,10.64681 19.07923,8.87642 4.17929,-0.91677 -0.31756,-0.20872 1.26304,2.5238 1.58885,2.71931 0.20609,0.12366 0.55107,-0.16995 0.72102,0 0.38001,0.38001 0.36545,1.03906 0.72102,1.44204 2.83466,3.21262 0.96037,0.39006 4.50636,2.16305 3.17468,1.58734 -1.98127,10.10456 2.87452,7.25178 3.41172,-2.00438 2.35963,-4.41336 4.6507,-7.63956 4.75202,-6.69163 2.91677,-3.20917 5.22556,-8.25966 1.72776,-3.77946 5.33805,-3.15923 8.20965,-4.70548"
       sodipodi:nodetypes="csssssssssc" />
    <path
       style="fill:none;fill-opacity:1;stroke:#000000;stroke-width:0.264583;stroke-linecap:butt;stroke-linejoin:miter;stroke-dasharray:0.79375, 0.79375;stroke-opacity:1;marker-start:none;marker-end:none"
       d="m 185.26579,208.77811 v -4.62947"
       id="path5947"
       sodipodi:nodetypes="cc" />
    <path
       style="fill:none;stroke:#000000;stroke-width:0.264583px;stroke-linecap:butt;stroke-linejoin:miter;stroke-opacity:1"
       d="m 22.388026,182.61605 v 35.85788"
       id="path856-3"
       inkscape:path-effect="#path-effect943"
       inkscape:original-d="m 22.388026,182.61605 c 2.64e-4,24.05548 2.64e-4,11.80294 0,35.85788"
       sodipodi:nodetypes="cc" />
    <path
       style="fill:none;fill-opacity:1;stroke:#000000;stroke-width:0.264583;stroke-linecap:butt;stroke-linejoin:miter;stroke-dasharray:none;stroke-opacity:1;marker-start:none;marker-end:url(#marker-arrow-1)"
       d="M 9.267,208.83769 H 226.14984"
       id="path860-8"
       inkscape:path-effect="#path-effect947"
       inkscape:original-d="m 9.267,208.83769 c 72.294548,2.6e-4 144.58882,2.6e-4 216.88284,0" />
    <text
       xml:space="preserve"
       style="font-size:5.64444px;line-height:1.25;font-family:sans-serif;letter-spacing:0px;stroke-width:0.264583"
       x="18.318386"
       y="196.91566"
       id="text1086-2"><tspan
         sodipodi:role="line"
         id="tspan1084-4"
         style="stroke-width:0.264583"
         x="18.318386"
         y="196.91566">\(i\)</tspan></text>
    <text
       xml:space="preserve"
       style="font-size:5.64444px;line-height:1.25;font-family:sans-serif;letter-spacing:0px;stroke-width:0.264583"
       x="19.783005"
       y="181.52945"
       id="text1086-6"><tspan
         sodipodi:role="line"
         id="tspan1084-5"
         style="stroke-width:0.264583"
         x="19.783005"
         y="181.52945">\(\mathcal{V}\)</tspan></text>
    <circle
       style="fill:#000000;stroke:#000000;stroke-width:0.265;stroke-miterlimit:4;stroke-dasharray:none;stroke-dashoffset:0"
       id="path1190-8"
       cx="22.36092"
       cy="195.25423"
       r="0.87187177" />
    <path
       style="fill:none;fill-opacity:1;stroke:#000000;stroke-width:0.264583;stroke-linecap:butt;stroke-linejoin:miter;stroke-miterlimit:4;stroke-dasharray:0.79375, 0.79375;stroke-dashoffset:0;stroke-opacity:1;marker-start:none;marker-end:none"
       d="M 22.240428,195.33912 H 224.14913"
       id="path2411-0" />
    <text
       xml:space="preserve"
       style="font-size:5.64444px;line-height:1.25;font-family:sans-serif;letter-spacing:0px;stroke-width:0.264583"
       x="217.79869"
       y="214.29272"
       id="text3196-5"><tspan
         sodipodi:role="line"
         id="tspan3194-2"
         style="stroke-width:0.264583"
         x="217.79869"
         y="214.29272">\(N\)</tspan></text>
    <text
       xml:space="preserve"
       style="font-size:5.64444px;line-height:1.25;font-family:sans-serif;letter-spacing:0px;stroke-width:0.264583"
       x="23.648834"
       y="214.29272"
       id="text3794-2"><tspan
         sodipodi:role="line"
         id="tspan3792-7"
         style="stroke-width:0.264583"
         x="23.648834"
         y="214.29272">\(0\)</tspan></text>
    <text
       xml:space="preserve"
       style="font-size:5.64444px;line-height:1.25;font-family:sans-serif;letter-spacing:0px;stroke-width:0.264583"
       x="97.054565"
       y="189.5031"
       id="text4605-3"><tspan
         sodipodi:role="line"
         id="tspan4603-7"
         style="stroke-width:0.264583"
         x="97.054565"
         y="189.5031" /></text>
    <text
       xml:space="preserve"
       style="font-size:5.64444px;line-height:1.25;font-family:sans-serif;letter-spacing:0px;stroke-width:0.264583"
       x="102.49465"
       y="214.29272"
       id="text2102"><tspan
         sodipodi:role="line"
         id="tspan2100"
         style="stroke-width:0.264583"
         x="102.49465"
         y="214.29272">\(\tau^i\)</tspan></text>
    <text
       xml:space="preserve"
       style="font-size:5.64444px;line-height:1.25;font-family:sans-serif;letter-spacing:0px;stroke-width:0.264583"
       x="182.39886"
       y="214.29272"
       id="text2208"><tspan
         sodipodi:role="line"
         id="tspan2206"
         style="stroke-width:0.264583"
         x="182.39886"
         y="214.29272">\(2\tau^i\)</tspan></text>
  </g>
</svg>
