<?xml version="1.0" encoding="UTF-8" standalone="no"?>
<!-- Created with Inkscape (http://www.inkscape.org/) -->

<svg
   width="240mm"
   height="68mm"
   viewBox="0 0 240 68"
   version="1.1"
   id="svg8"
   inkscape:version="1.1.1 (c3084ef, 2021-09-22)"
   sodipodi:docname="personalized-pagerank.svg"
   xmlns:inkscape="http://www.inkscape.org/namespaces/inkscape"
   xmlns:sodipodi="http://sodipodi.sourceforge.net/DTD/sodipodi-0.dtd"
   xmlns="http://www.w3.org/2000/svg"
   xmlns:svg="http://www.w3.org/2000/svg"
   xmlns:rdf="http://www.w3.org/1999/02/22-rdf-syntax-ns#"
   xmlns:cc="http://creativecommons.org/ns#"
   xmlns:dc="http://purl.org/dc/elements/1.1/">
  <defs
     id="defs2">
    <inkscape:path-effect
       effect="spiro"
       id="path-effect5962"
       is_visible="true"
       lpeversion="1" />
    <marker
       style="overflow:visible"
       id="marker5344"
       refX="0"
       refY="0"
       orient="auto"
       inkscape:stockid="Arrow1Lend"
       inkscape:isstock="true">
      <path
         transform="matrix(-0.8,0,0,-0.8,-10,0)"
         style="fill:context-stroke;fill-rule:evenodd;stroke:context-stroke;stroke-width:1pt"
         d="M 0,0 5,-5 -12.5,0 5,5 Z"
         id="path5342" />
    </marker>
    <marker
       style="overflow:visible"
       id="Arrow1Lend"
       refX="0"
       refY="0"
       orient="auto"
       inkscape:stockid="Arrow1Lend"
       inkscape:isstock="true">
      <path
         transform="matrix(-0.8,0,0,-0.8,-10,0)"
         style="fill:context-stroke;fill-rule:evenodd;stroke:context-stroke;stroke-width:1pt"
         d="M 0,0 5,-5 -12.5,0 5,5 Z"
         id="path1853" />
    </marker>
    <marker
       style="overflow:visible"
       id="Arrow1Lstart"
       refX="0"
       refY="0"
       orient="auto"
       inkscape:stockid="Arrow1Lstart"
       inkscape:isstock="true">
      <path
         transform="matrix(0.8,0,0,0.8,10,0)"
         style="fill:context-stroke;fill-rule:evenodd;stroke:context-stroke;stroke-width:1pt"
         d="M 0,0 5,-5 -12.5,0 5,5 Z"
         id="path1850" />
    </marker>
    <marker
       style="overflow:visible"
       id="Arrow2Lstart"
       refX="0"
       refY="0"
       orient="auto"
       inkscape:stockid="Arrow2Lstart"
       inkscape:isstock="true">
      <path
         transform="matrix(1.1,0,0,1.1,1.1,0)"
         d="M 8.7185878,4.0337352 -2.2072895,0.01601326 8.7185884,-4.0017078 c -1.7454984,2.3720609 -1.7354408,5.6174519 -6e-7,8.035443 z"
         style="fill:context-stroke;fill-rule:evenodd;stroke:context-stroke;stroke-width:0.625;stroke-linejoin:round"
         id="path1868" />
    </marker>
    <inkscape:path-effect
       effect="spiro"
       id="path-effect1442"
       is_visible="true"
       lpeversion="1" />
    <inkscape:path-effect
       effect="spiro"
       id="path-effect1438"
       is_visible="true"
       lpeversion="1" />
    <marker
       id="marker-arrow-1"
       orient="auto-start-reverse"
       refY="0"
       refX="0"
       markerHeight="3"
       markerWidth="2">
      <g
         transform="scale(1.3933333)"
         id="g1080"><path
   d="M -1.55415,2.0722 C -1.42464,1.29512 0,0.1295 0.38852,0 0,-0.1295 -1.42464,-1.29512 -1.55415,-2.0722"
   style="fill:none;stroke:#000000;stroke-linecap:round;stroke-linejoin:round;stroke-miterlimit:10;stroke-dasharray:none;stroke-opacity:1"
   id="path1078" />

0&quot; /&gt;
   </g>
    </marker>
    <marker
       id="marker-arrow-1-8"
       orient="auto-start-reverse"
       refY="0"
       refX="0"
       markerHeight="3"
       markerWidth="2">
      <g
         transform="scale(1.3933333)"
         id="g1120"><path
   d="M -1.55415,2.0722 C -1.42464,1.29512 0,0.1295 0.38852,0 0,-0.1295 -1.42464,-1.29512 -1.55415,-2.0722"
   style="fill:none;stroke:#000000;stroke-linecap:round;stroke-linejoin:round;stroke-miterlimit:10;stroke-dasharray:none;stroke-opacity:1"
   id="path1118" />

0&quot; /&gt;
   </g>
    </marker>
    <marker
       id="marker-arrow-1-5"
       orient="auto-start-reverse"
       refY="0"
       refX="0"
       markerHeight="3"
       markerWidth="2">
      <g
         transform="scale(1.3933333)"
         id="g1160"><path
   d="M -1.55415,2.0722 C -1.42464,1.29512 0,0.1295 0.38852,0 0,-0.1295 -1.42464,-1.29512 -1.55415,-2.0722"
   style="fill:none;stroke:#000000;stroke-linecap:round;stroke-linejoin:round;stroke-miterlimit:10;stroke-dasharray:none;stroke-opacity:1"
   id="path1158" />

0&quot; /&gt;
   </g>
    </marker>
    <marker
       id="marker-arrow-1-7"
       orient="auto-start-reverse"
       refY="0"
       refX="0"
       markerHeight="3"
       markerWidth="2">
      <g
         transform="scale(1.3933333)"
         id="g1200"><path
   d="M -1.55415,2.0722 C -1.42464,1.29512 0,0.1295 0.38852,0 0,-0.1295 -1.42464,-1.29512 -1.55415,-2.0722"
   style="fill:none;stroke:#000000;stroke-linecap:round;stroke-linejoin:round;stroke-miterlimit:10;stroke-dasharray:none;stroke-opacity:1"
   id="path1198" />

0&quot; /&gt;
   </g>
    </marker>
    <marker
       id="marker-arrow-1-75"
       orient="auto-start-reverse"
       refY="0"
       refX="0"
       markerHeight="3"
       markerWidth="2">
      <g
         transform="scale(1.3933333)"
         id="g5747"><path
   d="M -1.55415,2.0722 C -1.42464,1.29512 0,0.1295 0.38852,0 0,-0.1295 -1.42464,-1.29512 -1.55415,-2.0722"
   style="fill:none;stroke:#000000;stroke-linecap:round;stroke-linejoin:round;stroke-miterlimit:10;stroke-dasharray:none;stroke-opacity:1"
   id="path5745" />

0&quot; /&gt;
   </g>
    </marker>
    <marker
       id="marker-arrow-1-54"
       orient="auto-start-reverse"
       refY="0"
       refX="0"
       markerHeight="3"
       markerWidth="2">
      <g
         transform="scale(1.3933333)"
         id="g5778"><path
   d="M -1.55415,2.0722 C -1.42464,1.29512 0,0.1295 0.38852,0 0,-0.1295 -1.42464,-1.29512 -1.55415,-2.0722"
   style="fill:none;stroke:#000000;stroke-linecap:round;stroke-linejoin:round;stroke-miterlimit:10;stroke-dasharray:none;stroke-opacity:1"
   id="path5776" />

0&quot; /&gt;
   </g>
    </marker>
    <marker
       id="marker-arrow-1-1"
       orient="auto-start-reverse"
       refY="0"
       refX="0"
       markerHeight="3"
       markerWidth="2">
      <g
         transform="scale(1.3933333)"
         id="g5827"><path
   d="M -1.55415,2.0722 C -1.42464,1.29512 0,0.1295 0.38852,0 0,-0.1295 -1.42464,-1.29512 -1.55415,-2.0722"
   style="fill:none;stroke:#000000;stroke-linecap:round;stroke-linejoin:round;stroke-miterlimit:10;stroke-dasharray:none;stroke-opacity:1"
   id="path5825" />

0&quot; /&gt;
   </g>
    </marker>
    <marker
       id="marker-arrow-1-88"
       orient="auto-start-reverse"
       refY="0"
       refX="0"
       markerHeight="3"
       markerWidth="2">
      <g
         transform="scale(1.3933333)"
         id="g5867"><path
   d="M -1.55415,2.0722 C -1.42464,1.29512 0,0.1295 0.38852,0 0,-0.1295 -1.42464,-1.29512 -1.55415,-2.0722"
   style="fill:none;stroke:#000000;stroke-linecap:round;stroke-linejoin:round;stroke-miterlimit:10;stroke-dasharray:none;stroke-opacity:1"
   id="path5865" />

0&quot; /&gt;
   </g>
    </marker>
  </defs>
  <sodipodi:namedview
     id="base"
     pagecolor="#ffffff"
     bordercolor="#666666"
     borderopacity="1.0"
     inkscape:pageopacity="0.0"
     inkscape:pageshadow="2"
     inkscape:zoom="0.45085583"
     inkscape:cx="330.48258"
     inkscape:cy="220.69139"
     inkscape:document-units="mm"
     inkscape:current-layer="layer1"
     showgrid="false"
     showborder="true"
     width="200mm"
     showguides="true"
     inkscape:guide-bbox="true"
     inkscape:window-width="1280"
     inkscape:window-height="638"
     inkscape:window-x="1728"
     inkscape:window-y="512"
     inkscape:window-maximized="0"
     inkscape:pagecheckerboard="0">
    <inkscape:grid
       type="xygrid"
       id="grid815"
       units="mm"
       spacingx="10"
       spacingy="10"
       empspacing="4"
       dotted="false" />
  </sodipodi:namedview>
  <metadata
     id="metadata5">
    <rdf:RDF>
      <cc:Work
         rdf:about="">
        <dc:format>image/svg+xml</dc:format>
        <dc:type
           rdf:resource="http://purl.org/dc/dcmitype/StillImage" />
      </cc:Work>
    </rdf:RDF>
  </metadata>
  <g
     inkscape:label="Layer 1"
     inkscape:groupmode="layer"
     id="layer1"
     transform="translate(0,-177)">
    <path
       style="fill:none;fill-opacity:1;stroke:#000000;stroke-width:0.264583;stroke-linecap:butt;stroke-linejoin:miter;stroke-dasharray:none;stroke-opacity:1;marker-start:none;marker-end:url(#marker-arrow-1)"
       d="m 95.693433,192.47311 c 2.35628,0.54483 4.801347,0.7037 7.208317,0.46837 1.11605,-0.10912 2.22983,-0.30251 3.35054,-0.26408 1.12071,0.0384 2.27744,0.33526 3.11262,1.08355 0.48293,0.43269 0.83499,0.99519 1.09987,1.58703 0.26489,0.59184 0.4476,1.21641 0.63572,1.83694 0.18812,0.62052 0.38364,1.24219 0.67197,1.82297 0.28834,0.58078 0.67531,1.12331 1.19126,1.51603 0.70824,0.53908 1.62535,0.76299 2.51456,0.72403 0.88921,-0.039 1.75359,-0.32594 2.54966,-0.72403 0.6524,-0.32625 1.26559,-0.72732 1.92232,-1.04477 0.65672,-0.31745 1.3747,-0.55238 2.10308,-0.51345 0.26335,0.0141 0.52379,0.0638 0.77911,0.12985 1.95688,0.50647 3.53448,1.93734 4.88164,3.44435 1.34716,1.507 2.57261,3.15874 4.208,4.34676 1.58023,1.14795 3.50723,1.8118 5.4592,1.8807 1.95196,0.0689 3.92097,-0.45746 5.5782,-1.49115"
       id="path1436"
       inkscape:path-effect="#path-effect1438"
       inkscape:original-d="m 95.693433,192.47311 c 0.59778,-0.056 5.915697,0.34088 7.208317,0.46837 3.3854,0.33388 4.86107,-0.78263 6.46316,0.81947 2.24381,2.2438 0.20655,6.32526 3.59882,6.76297 1.67419,0.21603 3.40041,0.28522 5.06422,0 1.41814,-0.24311 2.64624,-1.1482 4.0254,-1.55822 0.25237,-0.075 0.59624,-0.0596 0.77911,0.12985 3.47759,3.60179 3.64103,6.48345 9.08964,7.79111 4.99188,1.19805 5.99875,-0.30067 11.0374,0.38955"
       sodipodi:nodetypes="cssssscsc" />
    <path
       style="fill:none;fill-opacity:1;stroke:#000000;stroke-width:0.264583;stroke-linecap:butt;stroke-linejoin:miter;stroke-dasharray:none;stroke-opacity:1;marker-start:none;marker-end:url(#marker-arrow-1)"
       d="m 95.693433,192.47311 c 1.133868,0.52454 2.103936,1.3969 2.745443,2.46894 0.641508,1.07204 0.951762,2.33924 0.878067,3.58638 -0.0777,1.31489 -0.56758,2.58109 -0.626,3.89698 -0.06882,1.5501 0.479308,3.09463 1.388797,4.35176 0.90949,1.25713 2.16387,2.23925 3.53466,2.96623 1.11544,0.59156 2.30889,1.0212 3.44839,1.56498 1.1395,0.54378 2.24725,1.22141 3.04419,2.20072 0.90625,1.11364 1.3424,2.52797 1.72249,3.91253 0.38009,1.38456 0.7369,2.80751 1.52381,4.00844 1.05724,1.61349 2.8119,2.67492 4.65954,3.22932 1.84763,0.55439 3.79968,0.64749 5.72861,0.66623 0.17313,0.002 0.34629,0.003 0.51941,0 3.20251,-0.0517 6.21576,-1.42363 9.33086,-2.16852 7.0879,-1.69487 14.91566,0.0434 20.62002,4.57892"
       id="path1440"
       inkscape:path-effect="#path-effect1442"
       inkscape:original-d="m 95.693433,192.47311 c -1.899887,6.75515 -2.680517,-1.50951 3.62351,6.05532 0.33367,0.4004 -0.85211,3.42737 -0.626,3.89698 1.469157,3.05131 1.360737,4.57744 4.923457,7.31799 0.59073,0.45441 5.7849,2.45921 6.49258,3.7657 1.35906,2.50903 1.70058,5.52243 3.2463,7.92097 3.252,5.04619 5.12512,3.79235 10.38815,3.89555 0.1731,0.003 0.36527,-0.0789 0.51941,0 1.72542,0.88277 13.23028,-19.99566 9.33086,-2.16852 -1.11573,5.10082 16.21193,4.57892 20.62002,4.57892"
       sodipodi:nodetypes="cssssscssc" />
    <path
       style="fill:none;fill-opacity:1;stroke:#000000;stroke-width:0.264583;stroke-linecap:butt;stroke-linejoin:miter;stroke-miterlimit:4;stroke-dasharray:0.79375, 0.79375;stroke-dashoffset:0;stroke-opacity:1;marker-start:none;marker-end:url(#marker-arrow-1)"
       d="m 142.9595,207.27621 c 0,0 -12.2584,-21.55542 -46.233097,-15.57783"
       id="path1614"
       sodipodi:nodetypes="cc" />
    <path
       style="fill:none;fill-opacity:1;stroke:#000000;stroke-width:0.264583;stroke-linecap:butt;stroke-linejoin:miter;stroke-miterlimit:4;stroke-dasharray:0.79375, 0.79375;stroke-dashoffset:0;stroke-opacity:1;marker-start:none;marker-end:url(#marker-arrow-1)"
       d="m 154.21172,227.73602 c 0,0 -55.943147,12.67612 -58.776527,-34.15596"
       id="path1616"
       sodipodi:nodetypes="cc" />
    <text
       xml:space="preserve"
       style="font-size:5.64444px;line-height:1.25;font-family:sans-serif;letter-spacing:0px;stroke-width:0.264583"
       x="89.951027"
       y="192.82034"
       id="text2334"><tspan
         sodipodi:role="line"
         id="tspan2332"
         style="stroke-width:0.264583"
         x="89.951027"
         y="192.82034">\(v^\ast\)</tspan></text>
    <text
       xml:space="preserve"
       style="font-size:5.64444px;line-height:1.25;font-family:sans-serif;letter-spacing:0px;stroke-width:0.264583"
       x="120.79646"
       y="190.96432"
       id="text3266"><tspan
         sodipodi:role="line"
         id="tspan3264"
         style="stroke-width:0.264583"
         x="120.79646"
         y="190.96432">Reset</tspan></text>
    <text
       xml:space="preserve"
       style="font-size:5.64444px;line-height:1.25;font-family:sans-serif;letter-spacing:0px;stroke-width:0.264583"
       x="101.8284"
       y="231.56981"
       id="text3266-0"><tspan
         sodipodi:role="line"
         id="tspan3264-0"
         style="stroke-width:0.264583"
         x="101.8284"
         y="231.56981">Reset</tspan></text>
    <text
       xml:space="preserve"
       style="font-size:5.64444px;line-height:1.25;font-family:sans-serif;letter-spacing:0px;stroke-width:0.264583"
       x="153.14417"
       y="218.66713"
       id="text4964"><tspan
         sodipodi:role="line"
         id="tspan4962"
         style="stroke-width:0.264583"
         x="153.14417"
         y="218.66713">\(\pi_{v^\ast}(s)\)</tspan></text>
    <path
       style="font-variation-settings:normal;opacity:0.99;vector-effect:none;fill:#000000;fill-opacity:1;fill-rule:evenodd;stroke:none;stroke-width:0.264567;stroke-linecap:butt;stroke-linejoin:round;stroke-miterlimit:4;stroke-dasharray:none;stroke-dashoffset:0;stroke-opacity:1;-inkscape-stroke:none;marker-start:none;marker-end:none;stop-color:#000000;stop-opacity:1"
       id="path892"
       sodipodi:type="arc"
       sodipodi:cx="95.649109"
       sodipodi:cy="-192.33774"
       sodipodi:rx="0.56352508"
       sodipodi:ry="0.56352508"
       sodipodi:start="6.1848709"
       sodipodi:end="6.1778721"
       sodipodi:open="true"
       sodipodi:arc-type="arc"
       d="m 96.209913,-192.39305 a 0.56352508,0.56352508 0 0 1 -0.50451,0.61602 0.56352508,0.56352508 0 0 1 -0.616901,-0.50343 0.56352508,0.56352508 0 0 1 0.502351,-0.61778 0.56352508,0.56352508 0 0 1 0.618659,0.50126"
       transform="scale(1,-1)" />
    <path
       style="fill:none;stroke:#000000;stroke-width:0.264583px;stroke-linecap:butt;stroke-linejoin:miter;stroke-opacity:1"
       d="m 80.82998,187.38537 c 0.384256,-0.60316 0.922578,-1.10186 1.533255,-1.47406 0.610677,-0.37219 1.292578,-0.62024 1.992371,-0.7677 1.399587,-0.29491 2.851198,-0.19074 4.270864,-0.0165 1.419666,0.17425 2.838354,0.41768 4.26853,0.39744 1.430177,-0.0202 2.898528,-0.32559 4.065523,-1.15259 0.943643,-0.66872 1.630794,-1.63107 2.300875,-2.57375 0.67008,-0.94268 1.360392,-1.90344 2.307852,-2.56675 0.88777,-0.62152 1.96251,-0.94667 3.04303,-1.02971 1.08052,-0.0831 2.16905,0.0674 3.21938,0.33436 2.10064,0.53387 4.05946,1.5258 6.1457,2.11342 4.24077,1.19448 8.74332,0.66265 13.1451,0.47485 2.20089,-0.0939 4.41713,-0.0983 6.59277,0.24715 2.17564,0.34544 4.31967,1.05358 6.14191,2.2914 2.55599,1.73625 4.32659,4.39336 5.85895,7.07656 1.53236,2.6832 2.9144,5.49188 4.95383,7.81317 1.97593,2.249 4.4887,3.94795 6.9781,5.61083 2.48941,1.66287 5.01351,3.33952 7.02534,5.55647 3.50443,3.86172 5.20485,9.29529 4.53171,14.46643 -0.67315,5.17115 -3.70631,9.98679 -8.07689,12.83142 -4.35913,2.83717 -9.71895,3.66765 -14.91547,3.88622 -5.19652,0.21858 -10.43788,-0.10323 -15.57303,0.7225 -3.57709,0.5752 -7.05559,1.70119 -10.65188,2.1406 -1.79815,0.2197 -3.6277,0.26526 -5.4168,-0.0188 -1.78911,-0.28409 -3.54025,-0.90681 -5.02511,-1.9445 -1.64709,-1.15106 -2.91054,-2.7637 -4.43147,-4.07695 -2.296,-1.98249 -5.122715,-3.2371 -7.958042,-4.31544 -2.835327,-1.07834 -5.742221,-2.0168 -8.397039,-3.4844 -2.654818,-1.4676 -5.087323,-3.5396 -6.362486,-6.29203 -0.637581,-1.37621 -0.968921,-2.90488 -0.868852,-4.4183 0.100069,-1.51343 0.642647,-3.00772 1.606341,-4.17895 1.377567,-1.67422 3.457746,-2.56297 5.360478,-3.60236 0.951366,-0.5197 1.882301,-1.09552 2.671701,-1.8385 0.7894,-0.74299 1.435241,-1.66625 1.717055,-2.71304 0.273512,-1.01595 0.191041,-2.11101 -0.147864,-3.10705 -0.338906,-0.99604 -0.925603,-1.89666 -1.634416,-2.67418 -1.417626,-1.55504 -3.28639,-2.6083 -5.082241,-3.705 -1.795851,-1.0967 -3.599048,-2.30946 -4.764651,-4.06137 -0.582802,-0.87596 -0.991611,-1.87962 -1.096413,-2.92651 -0.104802,-1.04689 0.106683,-2.137 0.671989,-3.02435 z"
       id="path5960"
       inkscape:path-effect="#path-effect5962"
       inkscape:original-d="m 80.82998,187.38537 c -4.018129,-6.49975 10.753956,-2.00866 16.130543,-3.0134 5.376587,-1.00472 3.072747,-3.42673 4.608727,-5.1405 1.53598,-1.71376 8.27234,0.94565 12.40811,1.41807 4.13577,0.47243 17.25345,2.0092 25.87978,3.0134 8.62632,1.0042 7.20878,9.92675 10.81278,14.88973 3.60399,4.96298 9.33589,7.44513 14.00344,11.1673 4.66755,3.72217 -2.36319,18.19883 -3.54518,27.29785 -1.18199,9.09901 -20.3254,3.07275 -30.4885,4.60872 -10.1631,1.53598 -14.06226,0.11844 -21.09379,0.17726 -7.03152,0.0588 -2.95405,-2.7177 -4.43147,-4.07695 -1.47742,-1.35925 -14.653114,-15.12581 -21.980078,-22.68912 -7.326958,-7.5633 6.499754,-5.43566 9.749234,-8.1539 3.249477,-2.71823 -8.035467,-12.9987 -12.053596,-19.49846 z" />
    <text
       xml:space="preserve"
       style="font-size:3.52777px;line-height:1.25;font-family:sans-serif;letter-spacing:0px;word-spacing:0px;stroke-width:0.264583"
       x="154.56961"
       y="185.79005"
       id="text5988"><tspan
         sodipodi:role="line"
         id="tspan5986"
         style="stroke-width:0.264583"
         x="154.56961"
         y="185.79005">\(\mathcal{G}\)</tspan></text>
  </g>
</svg>
