<?xml version="1.0" encoding="UTF-8" standalone="no"?>
<!-- Created with Inkscape (http://www.inkscape.org/) -->

<svg
   width="240mm"
   height="42mm"
   viewBox="0 0 240 42"
   version="1.1"
   id="svg8"
   inkscape:version="1.1.1 (c3084ef, 2021-09-22)"
   sodipodi:docname="random-graph-cn.svg"
   xmlns:inkscape="http://www.inkscape.org/namespaces/inkscape"
   xmlns:sodipodi="http://sodipodi.sourceforge.net/DTD/sodipodi-0.dtd"
   xmlns="http://www.w3.org/2000/svg"
   xmlns:svg="http://www.w3.org/2000/svg"
   xmlns:rdf="http://www.w3.org/1999/02/22-rdf-syntax-ns#"
   xmlns:cc="http://creativecommons.org/ns#"
   xmlns:dc="http://purl.org/dc/elements/1.1/">
  <defs
     id="defs2">
    <inkscape:path-effect
       effect="spiro"
       id="path-effect847"
       is_visible="true"
       lpeversion="1" />
    <inkscape:path-effect
       effect="spiro"
       id="path-effect895"
       is_visible="true"
       lpeversion="1" />
    <inkscape:path-effect
       effect="spiro"
       id="path-effect903"
       is_visible="true"
       lpeversion="1" />
    <inkscape:path-effect
       effect="spiro"
       id="path-effect1317"
       is_visible="true"
       lpeversion="1" />
    <inkscape:path-effect
       effect="spiro"
       id="path-effect1330"
       is_visible="true"
       lpeversion="1" />
    <inkscape:path-effect
       effect="spiro"
       id="path-effect919"
       is_visible="true"
       lpeversion="1" />
    <inkscape:path-effect
       effect="spiro"
       id="path-effect1275"
       is_visible="true"
       lpeversion="1" />
    <inkscape:path-effect
       effect="spiro"
       id="path-effect1205"
       is_visible="true"
       lpeversion="1" />
  </defs>
  <sodipodi:namedview
     id="base"
     pagecolor="#ffffff"
     bordercolor="#666666"
     borderopacity="1.0"
     inkscape:pageopacity="0.0"
     inkscape:pageshadow="2"
     inkscape:zoom="2.1991446"
     inkscape:cx="456.08642"
     inkscape:cy="98.447368"
     inkscape:document-units="mm"
     inkscape:current-layer="layer1"
     showgrid="false"
     showborder="true"
     width="200mm"
     showguides="true"
     inkscape:guide-bbox="true"
     inkscape:window-width="1280"
     inkscape:window-height="638"
     inkscape:window-x="1728"
     inkscape:window-y="512"
     inkscape:window-maximized="0"
     inkscape:pagecheckerboard="0">
    <inkscape:grid
       type="xygrid"
       id="grid815"
       units="mm"
       spacingx="10"
       spacingy="10"
       empspacing="4"
       dotted="false" />
  </sodipodi:namedview>
  <metadata
     id="metadata5">
    <rdf:RDF>
      <cc:Work
         rdf:about="">
        <dc:format>image/svg+xml</dc:format>
        <dc:type
           rdf:resource="http://purl.org/dc/dcmitype/StillImage" />
      </cc:Work>
    </rdf:RDF>
  </metadata>
  <g
     inkscape:label="Layer 1"
     inkscape:groupmode="layer"
     id="layer1"
     transform="translate(0,-177)">
    <path
       style="fill:none;fill-opacity:1;stroke:#000000;stroke-width:0.264583;stroke-linecap:butt;stroke-linejoin:miter;stroke-dasharray:none;stroke-opacity:1;marker-start:none;marker-end:none"
       d="m 87.334506,192.86199 c 0.003,0.25214 0.08037,0.49937 0.07925,0.75152 -5.6e-4,0.12608 -0.0216,0.25402 -0.07855,0.36651 -0.05695,0.11248 -0.152475,0.20845 -0.271595,0.24976 -0.08176,0.0283 -0.171218,0.0302 -0.256309,0.0144 -0.08509,-0.0157 -0.166257,-0.0484 -0.243427,-0.0876 -0.154341,-0.0783 -0.295701,-0.18328 -0.458114,-0.24307 -0.162291,-0.0597 -0.341457,-0.0714 -0.510865,-0.0366 -0.169407,0.0348 -0.328707,0.11548 -0.459283,0.22887 -0.26115,0.22679 -0.398194,0.58129 -0.383624,0.92685 0.01457,0.34557 0.173381,0.6782 0.414168,0.9265 0.240786,0.2483 0.55936,0.41463 0.89509,0.49779 0.671461,0.16632 1.382357,0.007 2.028974,-0.23892 0.646617,-0.24578 1.260867,-0.57767 1.92384,-0.77512 0.68699,-0.2046 1.407874,-0.25952 2.119999,-0.34135 0.712125,-0.0818 1.433262,-0.19528 2.079781,-0.50485 0.262292,-0.12559 0.513178,-0.28556 0.703444,-0.50549 0.190266,-0.21993 0.315749,-0.50547 0.302786,-0.79599 -0.0096,-0.21525 -0.09467,-0.42381 -0.224477,-0.59578 -0.129809,-0.17198 -0.302821,-0.3086 -0.492102,-0.41154 -0.378561,-0.2059 -0.813132,-0.27763 -1.237581,-0.3521 -0.254346,-0.0446 -0.509223,-0.0914 -0.767167,-0.10362 -0.257944,-0.0122 -0.52096,0.0114 -0.762163,0.10362 -0.339421,0.12977 -0.614203,0.38592 -0.859843,0.6537 -0.245641,0.26779 -0.474115,0.55558 -0.762127,0.77715 -0.144006,0.11079 -0.302678,0.20428 -0.474515,0.2633 -0.171836,0.059 -0.357376,0.0828 -0.536943,0.0551 -0.179568,-0.0277 -0.352651,-0.10857 -0.479761,-0.23839 -0.12711,-0.12983 -0.205296,-0.30967 -0.200371,-0.49129 0.0044,-0.16159 0.07047,-0.31403 0.115903,-0.46916 0.02272,-0.0776 0.04061,-0.157 0.04493,-0.23771 0.0043,-0.0807 -0.0053,-0.16274 -0.03397,-0.2383 -0.02868,-0.0756 -0.07672,-0.14411 -0.139997,-0.19439 -0.06328,-0.0503 -0.141312,-0.0816 -0.221752,-0.0895 -0.08044,-0.008 -0.162423,0.008 -0.236467,0.04 -0.07404,0.0324 -0.139941,0.0812 -0.199699,0.13557 -0.265855,0.2421 -0.421733,0.6006 -0.417474,0.96015 z"
       id="path901"
       inkscape:path-effect="#path-effect903"
       inkscape:original-d="m 87.334506,192.86199 c -0.0882,0.20285 -0.14819,1.18375 -0.27089,1.36779 -0.24839,0.3726 -1.35981,-0.51356 -0.95785,-0.31623 1.25581,0.61648 2.52148,1.34553 3.9083,1.52933 1.05723,0.14011 3.23768,-0.38606 4.19978,-0.8462 1.07106,-0.51225 1.54414,-0.60989 1.00623,-1.30148 -0.48716,-0.62636 -1.21495,-1.07095 -1.95416,-1.35942 -0.47489,-0.18532 -1.02281,-0.0576 -1.52933,0 -1.43868,0.16349 -2.20742,0.25909 -3.31356,1.01955 -0.46943,0.32274 -0.40412,-1.66739 -0.671046,-1.05349 z"
       sodipodi:nodetypes="sssssssssss" />
    <path
       style="fill:none;fill-opacity:1;stroke:#000000;stroke-width:0.264583;stroke-linecap:butt;stroke-linejoin:miter;stroke-dasharray:none;stroke-opacity:1;marker-start:none;marker-end:none"
       d="m 98.977326,187.76162 c 0.07113,0.13035 0.193366,0.22563 0.322694,0.29862 0.129329,0.073 0.268433,0.1273 0.398493,0.19897 0.415597,0.22902 0.713287,0.61844 1.054787,0.94791 0.17075,0.16474 0.35643,0.3173 0.56844,0.42382 0.21201,0.10652 0.45284,0.16511 0.68824,0.13541 0.23316,-0.0294 0.45231,-0.14576 0.61662,-0.31378 0.16431,-0.16802 0.27459,-0.38574 0.32556,-0.61515 0.10192,-0.45884 -0.0328,-0.94597 -0.27716,-1.3475 -0.33196,-0.54557 -0.87486,-0.96586 -1.49469,-1.11966 -0.61983,-0.15381 -1.309409,-0.0301 -1.818884,0.35499 -0.160419,0.12125 -0.305363,0.27048 -0.387173,0.45417 -0.04091,0.0918 -0.06535,0.19154 -0.0665,0.29207 -0.0012,0.10054 0.02142,0.20187 0.06958,0.29013 z"
       id="path917"
       inkscape:path-effect="#path-effect919"
       inkscape:original-d="m 98.977326,187.76162 c -0.93191,0.29148 -0.22045,0.58366 0.721187,0.49759 2.754777,-0.25181 2.308567,2.36922 2.311467,1.50714 0.003,-0.82568 0.73001,-1.4533 0.66502,-2.27643 -0.10268,-1.30056 -2.58855,-0.84996 -3.313574,-0.76467 -0.43516,0.075 0.158227,0.84653 -0.3841,1.03637 z"
       sodipodi:nodetypes="cssscc" />
    <path
       style="fill:none;fill-opacity:1;stroke:#000000;stroke-width:0.264583;stroke-linecap:butt;stroke-linejoin:miter;stroke-dasharray:none;stroke-opacity:1;marker-start:none;marker-end:none"
       d="m 97.468316,200.51367 c -0.259862,-0.15027 -0.588272,-0.16717 -0.869389,-0.0619 -0.281117,0.10528 -0.513117,0.32653 -0.649308,0.59404 -0.136191,0.26751 -0.179091,0.57823 -0.140291,0.8759 0.0388,0.29766 0.156966,0.58227 0.32375,0.83185 0.333569,0.49917 0.847591,0.84944 1.378473,1.12981 0.530881,0.28036 1.092155,0.50426 1.602645,0.82023 0.760072,0.47045 1.390024,1.13423 2.169234,1.57226 0.3896,0.21901 0.81897,0.37991 1.26488,0.41033 0.44591,0.0304 0.90992,-0.078 1.26359,-0.35129 0.22318,-0.17244 0.39722,-0.40621 0.50577,-0.66652 0.10855,-0.26032 0.15214,-0.54647 0.13398,-0.82793 -0.0363,-0.56291 -0.32021,-1.09485 -0.72808,-1.4845 -0.40788,-0.38964 -0.93238,-0.64381 -1.4786,-0.78461 -0.54623,-0.14079 -1.11536,-0.17282 -1.67927,-0.15903 -0.34492,0.008 -0.691375,0.0337 -1.034021,-0.007 -0.342647,-0.0404 -0.687609,-0.15292 -0.942623,-0.38532 -0.233834,-0.2131 -0.373199,-0.5073 -0.522245,-0.78636 -0.07452,-0.13953 -0.153142,-0.27759 -0.249675,-0.40291 -0.09653,-0.12531 -0.211883,-0.23809 -0.34882,-0.31728 z"
       id="path917-2"
       inkscape:path-effect="#path-effect1275"
       inkscape:original-d="m 97.468316,200.51367 c -0.68135,0.63781 1.18852,3.36233 1.64588,4.18993 1.272834,2.30323 1.882214,1.09712 4.697704,1.6313 15.65134,2.96949 -3.18121,-3.09947 -3.2462,-3.92259 -0.10268,-1.30056 -1.251624,-0.47739 -1.976644,-0.39209 -0.43516,0.075 -0.526,-2.01634 -1.12074,-1.50655 z"
       sodipodi:nodetypes="cssscc" />
    <path
       style="fill:none;fill-opacity:1;stroke:#000000;stroke-width:0.264583;stroke-linecap:butt;stroke-linejoin:miter;stroke-dasharray:none;stroke-opacity:1;marker-start:none;marker-end:none"
       d="m 115.89325,209.05289 c 0.71496,1.58392 1.14002,3.29056 1.91322,4.84688 0.3866,0.77817 0.8625,1.51898 1.47314,2.13714 0.61064,0.61815 1.36187,1.1109 2.19847,1.34565 1.22481,0.34368 2.5602,0.11186 3.70979,-0.43285 1.14959,-0.54472 2.13519,-1.38259 3.03811,-2.27869 0.90293,-0.8961 1.73838,-1.8602 2.67457,-2.72149 0.93618,-0.86129 1.99014,-1.62669 3.19404,-2.03766 1.00893,-0.34441 2.09,-0.42852 3.15582,-0.40428 1.06581,0.0242 2.12617,0.15376 3.18989,0.22479 1.06372,0.071 2.14086,0.0827 3.1863,-0.1261 1.04545,-0.2088 2.06447,-0.65127 2.83079,-1.39242 0.81524,-0.78847 1.30196,-1.87854 1.47837,-2.99889 0.17641,-1.12036 0.0581,-2.27168 -0.20929,-3.37386 -0.53483,-2.20436 -1.65063,-4.22847 -2.2585,-6.41382 -0.51517,-1.85209 -0.65642,-3.78603 -1.04208,-5.66935 -0.38566,-1.88332 -1.06015,-3.78637 -2.427,-5.13817 -0.87496,-0.86532 -1.99739,-1.46044 -3.18256,-1.79163 -1.18518,-0.33118 -2.43255,-0.40571 -3.65974,-0.31442 -2.45438,0.1826 -4.80614,1.01177 -7.16743,1.70578 -1.02602,0.30156 -2.06005,0.57893 -3.0688,0.93399 -1.01075,0.35576 -2.0067,0.79213 -3.0688,0.93397 -1.08206,0.14451 -2.18716,-0.0256 -3.23191,-0.34218 -1.04475,-0.31658 -2.0392,-0.7768 -3.0337,-1.22702 -0.99451,-0.45021 -1.99804,-0.89372 -3.05305,-1.17422 -1.05501,-0.2805 -2.17152,-0.3935 -3.2411,-0.17502 -1.36902,0.27964 -2.60293,1.10396 -3.46166,2.20623 -0.85874,1.10227 -1.35141,2.46869 -1.49023,3.85907 -0.27764,2.78076 0.82599,5.54207 2.38022,7.86458 1.40134,2.09405 3.16435,3.91547 4.84127,5.79609 1.67691,1.88063 3.29521,3.86134 4.33185,6.1579 z"
       id="path1203"
       inkscape:path-effect="#path-effect1205"
       inkscape:original-d="m 115.89325,209.05289 c 1.75065,0.54033 3.9461,9.14904 5.58483,8.32967 1.8565,-0.92824 -16.22269,51.23408 12.61651,-7.47069 0.79416,-1.61659 10.77287,-0.85176 12.3628,-1.69801 1.18108,-0.62865 -1.9081,-11.81386 -0.98942,-12.78657 3.03599,-3.2146 -2.56074,-9.64418 -3.46908,-10.80752 -3.49956,-4.48187 -9.84059,-1.55837 -14.00973,-0.40027 -1.03025,0.28618 -2.04587,0.62265 -3.0688,0.93399 -1.02294,0.31132 -2.10728,0.46622 -3.0688,0.93397 -1.16711,0.5678 -19.70247,3.66491 -12.55976,-2.91844 5.23426,-4.82436 1.31023,8.64999 -2.57167,13.92988 -2.42993,3.30502 5.17711,10.52909 9.17312,11.95399 z"
       sodipodi:nodetypes="cssssssssssc" />
    <text
       xml:space="preserve"
       style="font-size:5.64444px;line-height:1.25;font-family:sans-serif;letter-spacing:0px;stroke-width:0.264583"
       x="126.30666"
       y="200.25623"
       id="text1554"><tspan
         sodipodi:role="line"
         id="tspan1552"
         style="stroke-width:0.264583"
         x="126.30666"
         y="200.25623">\(cn\)</tspan></text>
    <path
       style="fill:none;fill-opacity:1;stroke:#000000;stroke-width:0.264583;stroke-linecap:butt;stroke-linejoin:miter;stroke-dasharray:none;stroke-opacity:1;marker-start:none;marker-end:none"
       d="m 79.985146,188.78599 c -0.657978,0.45248 -1.18366,1.09497 -1.49689,1.82952 -0.417055,0.97802 -0.45039,2.09721 -0.188923,3.12779 0.261466,1.03058 0.80544,1.97592 1.488533,2.79068 1.366187,1.62954 3.243559,2.72646 5.02056,3.89442 6.215117,4.08497 11.612089,9.38888 18.128904,12.97298 7.93185,4.36234 17.37294,5.94709 26.2786,4.32432 6.10429,-1.11231 11.88443,-3.67283 17.13097,-6.98545 2.94195,-1.85752 5.77758,-4.00027 7.81706,-6.81913 1.38478,-1.91397 2.38139,-4.14071 2.66112,-6.48648 0.26555,-2.22689 -0.12422,-4.51311 -1.0065,-6.57493 -0.88228,-2.06183 -2.24692,-3.90216 -3.88497,-5.43394 -3.27611,-3.06356 -7.55882,-4.85249 -11.90687,-5.95372 -5.30817,-1.3444 -10.82945,-1.74962 -16.29938,-1.49688 -10.05465,0.46458 -19.89694,3.12102 -29.937644,3.82537 -1.920237,0.1347 -3.898565,0.21003 -5.65489,0.99792 -1.91983,0.86124 -3.371229,2.48061 -4.9896,3.82536 -0.983085,0.81688 -2.042557,1.54178 -3.16008,2.16217 z"
       id="path893-7"
       inkscape:path-effect="#path-effect847"
       inkscape:original-d="m 79.985146,188.78599 c -0.49896,0.60984 -1.27047,1.0748 -1.49689,1.82952 -1.35696,4.52321 3.21487,7.3202 6.32017,9.81289 5.79481,4.65161 11.65332,9.32825 18.128904,12.97298 6.88041,3.87257 18.5601,6.01661 26.2786,4.32432 6.02373,-1.32071 11.73513,-3.99974 17.13097,-6.98545 3.0255,-1.67411 5.67776,-4.10256 7.81706,-6.81913 1.4459,-1.83607 2.84565,-4.15674 2.66112,-6.48648 -0.79435,-10.02861 -7.56291,-15.06002 -16.79834,-17.96259 -5.20498,-1.63585 -10.84403,-1.41338 -16.29938,-1.49688 -14.37399,-0.22001 -16.56418,1.17373 -29.937644,3.82537 -1.87754,0.37227 -3.85705,0.34102 -5.65489,0.99792 -0.51961,0.18986 -4.2826,3.11836 -4.9896,3.82536 -1.27434,1.27434 -1.21472,2.16217 -3.16008,2.16217 z" />
  </g>
</svg>
