<?xml version="1.0" encoding="UTF-8" standalone="no"?>
<!-- Created with Inkscape (http://www.inkscape.org/) -->

<svg
   width="240mm"
   height="41mm"
   viewBox="0 0 240 41"
   version="1.1"
   id="svg8"
   inkscape:version="1.1.1 (c3084ef, 2021-09-22)"
   sodipodi:docname="random-graph-logn.svg"
   xmlns:inkscape="http://www.inkscape.org/namespaces/inkscape"
   xmlns:sodipodi="http://sodipodi.sourceforge.net/DTD/sodipodi-0.dtd"
   xmlns="http://www.w3.org/2000/svg"
   xmlns:svg="http://www.w3.org/2000/svg"
   xmlns:rdf="http://www.w3.org/1999/02/22-rdf-syntax-ns#"
   xmlns:cc="http://creativecommons.org/ns#"
   xmlns:dc="http://purl.org/dc/elements/1.1/">
  <defs
     id="defs2">
    <marker
       style="overflow:visible"
       id="Arrow2Lend"
       refX="0"
       refY="0"
       orient="auto"
       inkscape:stockid="Arrow2Lend"
       inkscape:isstock="true">
      <path
         transform="matrix(-1.1,0,0,-1.1,-1.1,0)"
         d="M 8.7185878,4.0337352 -2.2072895,0.01601326 8.7185884,-4.0017078 c -1.7454984,2.3720609 -1.7354408,5.6174519 -6e-7,8.035443 z"
         style="fill:context-stroke;fill-rule:evenodd;stroke:context-stroke;stroke-width:0.625;stroke-linejoin:round"
         id="path2057" />
    </marker>
    <inkscape:path-effect
       effect="spiro"
       id="path-effect1330"
       is_visible="true"
       lpeversion="1" />
    <inkscape:path-effect
       effect="spiro"
       id="path-effect1317"
       is_visible="true"
       lpeversion="1" />
    <inkscape:path-effect
       effect="spiro"
       id="path-effect1288"
       is_visible="true"
       lpeversion="1" />
    <inkscape:path-effect
       effect="spiro"
       id="path-effect1275"
       is_visible="true"
       lpeversion="1" />
    <inkscape:path-effect
       effect="spiro"
       id="path-effect1262"
       is_visible="true"
       lpeversion="1" />
    <inkscape:path-effect
       effect="spiro"
       id="path-effect1249"
       is_visible="true"
       lpeversion="1" />
    <inkscape:path-effect
       effect="spiro"
       id="path-effect1236"
       is_visible="true"
       lpeversion="1" />
    <inkscape:path-effect
       effect="spiro"
       id="path-effect919"
       is_visible="true"
       lpeversion="1" />
    <inkscape:path-effect
       effect="spiro"
       id="path-effect903"
       is_visible="true"
       lpeversion="1" />
    <inkscape:path-effect
       effect="spiro"
       id="path-effect895"
       is_visible="true"
       lpeversion="1" />
    <marker
       id="marker-arrow-1"
       orient="auto-start-reverse"
       refY="0"
       refX="0"
       markerHeight="3"
       markerWidth="2">
      <g
         transform="scale(1.3933333)"
         id="g856"><path
   d="M -1.55415,2.0722 C -1.42464,1.29512 0,0.1295 0.38852,0 0,-0.1295 -1.42464,-1.29512 -1.55415,-2.0722"
   style="fill:none;stroke:#000000;stroke-linecap:round;stroke-linejoin:round;stroke-miterlimit:10;stroke-dasharray:none;stroke-opacity:1"
   id="path854" />
0&quot; /&gt;
   </g>
    </marker>
    <marker
       id="marker-arrow-1-9"
       orient="auto-start-reverse"
       refY="0"
       refX="0"
       markerHeight="3"
       markerWidth="2">
      <g
         transform="scale(1.3933333)"
         id="g896"><path
   d="M -1.55415,2.0722 C -1.42464,1.29512 0,0.1295 0.38852,0 0,-0.1295 -1.42464,-1.29512 -1.55415,-2.0722"
   style="fill:none;stroke:#000000;stroke-linecap:round;stroke-linejoin:round;stroke-miterlimit:10;stroke-dasharray:none;stroke-opacity:1"
   id="path894" />
0&quot; /&gt;
   </g>
    </marker>
  </defs>
  <sodipodi:namedview
     id="base"
     pagecolor="#ffffff"
     bordercolor="#666666"
     borderopacity="1.0"
     inkscape:pageopacity="0.0"
     inkscape:pageshadow="2"
     inkscape:zoom="1.03556"
     inkscape:cx="448.06674"
     inkscape:cy="105.73989"
     inkscape:document-units="mm"
     inkscape:current-layer="layer1"
     showgrid="false"
     showborder="true"
     width="200mm"
     showguides="true"
     inkscape:guide-bbox="true"
     inkscape:window-width="1280"
     inkscape:window-height="638"
     inkscape:window-x="1728"
     inkscape:window-y="512"
     inkscape:window-maximized="0"
     inkscape:pagecheckerboard="0">
    <inkscape:grid
       type="xygrid"
       id="grid815"
       units="mm"
       spacingx="10"
       spacingy="10"
       empspacing="4"
       dotted="false" />
  </sodipodi:namedview>
  <metadata
     id="metadata5">
    <rdf:RDF>
      <cc:Work
         rdf:about="">
        <dc:format>image/svg+xml</dc:format>
        <dc:type
           rdf:resource="http://purl.org/dc/dcmitype/StillImage" />
      </cc:Work>
    </rdf:RDF>
  </metadata>
  <g
     inkscape:label="Layer 1"
     inkscape:groupmode="layer"
     id="layer1"
     transform="translate(0,-177)">
    <path
       style="fill:none;fill-opacity:1;stroke:#000000;stroke-width:0.264583;stroke-linecap:butt;stroke-linejoin:miter;stroke-dasharray:none;stroke-opacity:1;marker-start:none;marker-end:none"
       d="m 80.131558,188.2532 c -0.657975,0.45248 -1.183654,1.09497 -1.496882,1.82952 -0.417053,0.97802 -0.450387,2.09721 -0.18892,3.12779 0.261466,1.03058 0.80544,1.97591 1.488533,2.79068 1.366185,1.62954 3.243554,2.72646 5.020554,3.89442 6.215113,4.08497 11.612083,9.38888 18.128897,12.97298 7.93185,4.36234 17.37294,5.94709 26.2786,4.32432 6.10429,-1.11231 11.88443,-3.67283 17.13097,-6.98545 2.94195,-1.85752 5.77758,-4.00027 7.81706,-6.81913 1.38478,-1.91397 2.38139,-4.14071 2.66112,-6.48648 0.26555,-2.22689 -0.12422,-4.51311 -1.0065,-6.57493 -0.88228,-2.06183 -2.24692,-3.90216 -3.88497,-5.43394 -3.27611,-3.06356 -7.55882,-4.85249 -11.90687,-5.95372 -5.30817,-1.3444 -10.82945,-1.74962 -16.29938,-1.49688 -10.05465,0.46458 -19.89693,3.12102 -29.937636,3.82537 -1.920236,0.1347 -3.898563,0.21003 -5.654887,0.99792 -1.919832,0.86124 -3.371233,2.48061 -4.989606,3.82536 -0.983086,0.81688 -2.042559,1.54178 -3.160083,2.16217 z"
       id="path893"
       inkscape:path-effect="#path-effect895"
       inkscape:original-d="m 80.131558,188.2532 c -0.49896,0.60984 -1.270466,1.0748 -1.496882,1.82952 -1.356964,4.52321 3.214869,7.3202 6.320167,9.81289 5.794805,4.65161 11.653317,9.32825 18.128897,12.97298 6.88041,3.87257 18.5601,6.01661 26.2786,4.32432 6.02373,-1.32071 11.73513,-3.99974 17.13097,-6.98545 3.0255,-1.67411 5.67776,-4.10256 7.81706,-6.81913 1.4459,-1.83607 2.84565,-4.15674 2.66112,-6.48648 -0.79435,-10.02861 -7.56291,-15.06002 -16.79834,-17.96259 -5.20498,-1.63585 -10.84403,-1.41338 -16.29938,-1.49688 -14.37399,-0.22001 -16.56418,1.17373 -29.937636,3.82537 -1.877537,0.37227 -3.857051,0.34102 -5.654887,0.99792 -0.519613,0.18986 -4.282601,3.11836 -4.989606,3.82536 -1.27434,1.27434 -1.21472,2.16217 -3.160083,2.16217 z" />
    <path
       style="fill:none;fill-opacity:1;stroke:#000000;stroke-width:0.264583;stroke-linecap:butt;stroke-linejoin:miter;stroke-dasharray:none;stroke-opacity:1;marker-start:none;marker-end:none"
       d="m 92.693552,188.87495 c 0.02538,0.23716 0.132366,0.46048 0.277022,0.65012 0.144657,0.18964 0.32607,0.34815 0.514933,0.49382 1.158626,0.89365 2.607091,1.32803 4.047768,1.58391 0.568541,0.10098 1.14913,0.17717 1.722416,0.10804 0.573285,-0.0691 1.144659,-0.29702 1.533399,-0.72401 0.36347,-0.39923 0.54021,-0.94325 0.57064,-1.48229 0.0304,-0.53904 -0.0753,-1.07702 -0.21866,-1.59753 -0.0655,-0.23775 -0.13935,-0.47428 -0.24551,-0.69687 -0.10616,-0.22259 -0.24592,-0.4318 -0.42948,-0.59649 -0.18356,-0.16469 -0.41305,-0.28315 -0.657936,-0.31229 -0.244883,-0.0291 -0.504377,0.0365 -0.690963,0.19773 -0.132266,0.11431 -0.223353,0.27057 -0.281964,0.43527 -0.05861,0.1647 -0.08659,0.33858 -0.108626,0.512 -0.02204,0.17343 -0.03848,0.34792 -0.07519,0.51884 -0.03671,0.17092 -0.09468,0.33958 -0.193021,0.48411 -0.113505,0.16682 -0.2784,0.29618 -0.462961,0.37772 -0.18456,0.0815 -0.388169,0.11629 -0.589907,0.11264 -0.403474,-0.007 -0.790457,-0.16452 -1.141321,-0.36387 -0.350864,-0.19935 -0.675415,-0.44224 -1.025125,-0.64361 -0.34971,-0.20136 -0.734308,-0.36289 -1.137597,-0.37716 -0.364517,-0.0129 -0.737898,0.10259 -1.011077,0.34428 -0.136589,0.12084 -0.247076,0.27173 -0.317107,0.44012 -0.07003,0.1684 -0.09914,0.35418 -0.07973,0.53552 z"
       id="path901"
       inkscape:path-effect="#path-effect903"
       inkscape:original-d="m 92.693552,188.87495 c -1.157359,-0.53922 0.375639,0.93956 0.791955,1.14394 1.300609,0.63848 2.611449,1.39355 4.047768,1.58391 1.094948,0.14511 2.259386,-0.13941 3.255815,-0.61597 1.10927,-0.53052 0.90908,-2.36355 0.35198,-3.07982 -0.50454,-0.6487 -1.258305,-1.10916 -2.023889,-1.40792 -0.491842,-0.19194 -0.584259,4.06586 -0.6588,1.95022 -0.0528,-1.49867 -3.011276,-1.28184 -4.356911,-0.89428 -1.982948,0.65925 0.964712,2.40393 -1.407918,1.31992 z"
       sodipodi:nodetypes="csssssscc" />
    <path
       style="fill:none;fill-opacity:1;stroke:#000000;stroke-width:0.264583;stroke-linecap:butt;stroke-linejoin:miter;stroke-dasharray:none;stroke-opacity:1;marker-start:none;marker-end:none"
       d="m 134.41723,209.25059 c -0.0929,0.0691 -0.19479,0.12522 -0.2895,0.19184 -0.0947,0.0666 -0.1839,0.14601 -0.23847,0.24813 -0.0617,0.11539 -0.0743,0.25378 -0.0462,0.38156 0.0281,0.12777 0.0951,0.24513 0.18183,0.34304 0.17354,0.19583 0.41785,0.31163 0.65631,0.41933 1.32087,0.59655 2.68032,1.10364 4.04777,1.58391 0.58421,0.20518 1.18968,0.40834 1.80741,0.36575 0.30886,-0.0213 0.61657,-0.10637 0.8781,-0.27207 0.26153,-0.16569 0.47436,-0.41528 0.5703,-0.70964 0.0835,-0.2563 0.0765,-0.53634 0.0129,-0.79831 -0.0635,-0.26198 -0.18141,-0.50788 -0.31631,-0.74127 -0.2698,-0.46679 -0.6145,-0.90037 -0.77141,-1.41618 -0.0815,-0.26806 -0.10923,-0.5496 -0.17984,-0.82075 -0.0353,-0.13558 -0.0816,-0.26901 -0.14894,-0.39187 -0.0673,-0.12285 -0.15637,-0.23516 -0.26833,-0.31937 -0.19707,-0.14823 -0.45528,-0.2004 -0.70088,-0.17824 -0.24559,0.0222 -0.48039,0.11348 -0.69832,0.22888 -0.43585,0.23078 -0.82563,0.56358 -1.30132,0.69377 -0.38034,0.10409 -0.78246,0.0691 -1.17677,0.0646 -0.19715,-0.002 -0.39528,0.003 -0.58935,0.0383 -0.19406,0.0348 -0.38473,0.0997 -0.54907,0.20865 -0.17342,0.11494 -0.31181,0.27449 -0.44569,0.43375 -0.13388,0.15926 -0.26734,0.32202 -0.43426,0.44621 z"
       id="path901-3"
       inkscape:path-effect="#path-effect1317"
       inkscape:original-d="m 134.41723,209.25059 c -0.17599,0.14665 -0.40089,0.24936 -0.52797,0.43997 -0.25725,0.38588 0.37564,0.93956 0.79196,1.14393 1.3006,0.63849 2.61145,1.39356 4.04777,1.58391 1.09494,0.14512 2.25938,-0.13941 3.25581,-0.61596 1.10927,-0.53052 -0.5177,-2.23948 -1.0748,-2.95576 -0.50454,-0.6487 0.16848,-1.23322 -0.59711,-1.53199 -0.49184,-0.19194 -2.17592,0.6848 -2.70052,0.74441 -1.49001,0.16932 -1.16958,-0.47607 -2.31519,0.31153 -0.48618,0.33425 -0.43146,0.50125 -0.87995,0.87996 z"
       sodipodi:nodetypes="cssssssssc" />
    <path
       style="fill:none;fill-opacity:1;stroke:#000000;stroke-width:0.264583;stroke-linecap:butt;stroke-linejoin:miter;stroke-dasharray:none;stroke-opacity:1;marker-start:none;marker-end:none"
       d="m 126.9149,196.40555 c -0.19474,0.12197 -0.37287,0.27042 -0.52796,0.43997 -0.25395,0.27764 -0.44555,0.61287 -0.55013,0.97431 -0.10459,0.36143 -0.12147,0.74864 -0.0429,1.1166 0.0786,0.36796 0.25306,0.71577 0.50548,0.99481 0.25241,0.27903 0.58258,0.48806 0.94443,0.59118 0.33369,0.0951 0.68874,0.10015 1.03186,0.0486 0.34313,-0.0515 0.67578,-0.15827 0.99928,-0.28371 0.64701,-0.25088 1.27079,-0.58004 1.95168,-0.71398 0.54956,-0.10811 1.11535,-0.0846 1.67404,-0.12434 0.55868,-0.0397 1.13563,-0.15299 1.58177,-0.49162 0.45155,-0.34274 0.72299,-0.89582 0.76977,-1.46078 0.0468,-0.56495 -0.11971,-1.13684 -0.41779,-1.61904 -0.44475,-0.71947 -1.19297,-1.24981 -2.02389,-1.40792 -0.52063,-0.0991 -1.05693,-0.0563 -1.5839,0 -1.20414,0.12867 -2.45064,0.34613 -3.43181,1.05593 -0.33751,0.24417 -0.63579,0.54245 -0.87995,0.87996 z"
       id="path901-1"
       inkscape:path-effect="#path-effect1330"
       inkscape:original-d="m 126.9149,196.40555 c -0.17599,0.14665 -0.40089,0.24936 -0.52796,0.43997 -0.25726,0.38589 0.73527,3.22936 0.8569,3.6769 3.57883,13.16874 2.5465,-1.13941 3.98282,-0.94906 1.09495,0.14512 2.25938,-0.13941 3.25581,-0.61596 1.10927,-0.53052 0.90908,-2.36355 0.35198,-3.07982 -0.50454,-0.6487 -1.2583,-1.10916 -2.02389,-1.40792 -0.49184,-0.19194 -1.05931,-0.0596 -1.5839,0 -1.49002,0.16932 -2.28619,0.26833 -3.43181,1.05593 -0.48617,0.33425 -0.20127,0.87996 -0.87995,0.87996 z"
       sodipodi:nodetypes="cssssssssc" />
    <path
       style="fill:none;fill-opacity:1;stroke:#000000;stroke-width:0.264583;stroke-linecap:butt;stroke-linejoin:miter;stroke-dasharray:none;stroke-opacity:1;marker-start:none;marker-end:none"
       d="m 111.11009,187.82754 c 0.26674,-0.13806 0.55695,-0.23062 0.85436,-0.27251 0.44986,-0.0634 0.90889,-0.0108 1.35338,0.083 0.4445,0.0939 0.8793,0.22867 1.32158,0.33251 0.44227,0.10383 0.89682,0.17685 1.34993,0.14396 0.4531,-0.0329 0.90764,-0.17848 1.2548,-0.47151 0.35859,-0.30268 0.58365,-0.7539 0.62636,-1.2212 0.0427,-0.46731 -0.0936,-0.94599 -0.36237,-1.33065 -0.36151,-0.51739 -0.94963,-0.85451 -1.56951,-0.97336 -0.61989,-0.11884 -1.26803,-0.0313 -1.86229,0.1814 -0.75806,0.27131 -1.4419,0.74694 -1.96002,1.36324 -0.51811,0.6163 -0.86918,1.37169 -1.00622,2.16509 z"
       id="path917"
       inkscape:path-effect="#path-effect919"
       inkscape:original-d="m 111.11009,187.82754 c -0.97216,-1.28241 0.38068,-1.12965 0.85436,-0.27251 1.31826,2.38542 4.21821,2.85965 5.27969,0.088 0.30585,-0.79859 0.33129,-1.69934 0.26399,-2.55185 -0.10634,-1.34697 -2.68092,-0.88029 -3.4318,-0.79196 -0.45069,0.0777 -1.97479,4.98424 -2.96624,3.52833 z"
       sodipodi:nodetypes="cssscc" />
    <path
       style="fill:none;fill-opacity:1;stroke:#000000;stroke-width:0.264583;stroke-linecap:butt;stroke-linejoin:miter;stroke-dasharray:none;stroke-opacity:1;marker-start:none;marker-end:none"
       d="m 101.4435,204.46221 c -0.47403,-0.0128 -0.94453,0.20106 -1.26485,0.55071 -0.320325,0.34965 -0.491139,0.8265 -0.490359,1.30069 7.8e-4,0.4742 0.168371,0.94272 0.448589,1.32527 0.28021,0.38255 0.66958,0.68014 1.10241,0.87384 0.82304,0.36832 1.75673,0.35857 2.65747,0.40006 0.45037,0.0207 0.90238,0.0563 1.34077,0.16154 0.43838,0.10528 0.86501,0.28323 1.21651,0.56556 0.26215,0.21057 0.48347,0.47893 0.78357,0.63059 0.19334,0.0977 0.41287,0.14169 0.62921,0.13047 0.21634,-0.0112 0.4291,-0.0772 0.61617,-0.1864 0.37415,-0.21846 0.6358,-0.60833 0.72952,-1.03133 0.0937,-0.423 0.0262,-0.87419 -0.15595,-1.26728 -0.1822,-0.39308 -0.47471,-0.7296 -0.8178,-0.99417 -0.68618,-0.52916 -1.54897,-0.76683 -2.39576,-0.95066 -0.84679,-0.18383 -1.71516,-0.32997 -2.49183,-0.7142 -0.31184,-0.15427 -0.60444,-0.34499 -0.91467,-0.50247 -0.31024,-0.15749 -0.64521,-0.28287 -0.993,-0.29222 z"
       id="path917-1"
       inkscape:path-effect="#path-effect1236"
       inkscape:original-d="m 101.4435,204.46221 c -0.73249,0.14322 -0.67789,3.19337 -0.20421,4.05051 1.31826,2.38542 4.15326,3.89881 5.21475,1.12716 0.30584,-0.7986 0.85087,1.48309 0.78357,0.63059 -0.10634,-1.34697 -3.13556,-5.1019 -3.88644,-5.01357 -0.45069,0.0777 -1.20681,-0.90116 -1.90767,-0.79469 z"
       sodipodi:nodetypes="cssscc" />
    <path
       style="fill:none;fill-opacity:1;stroke:#000000;stroke-width:0.264583;stroke-linecap:butt;stroke-linejoin:miter;stroke-dasharray:none;stroke-opacity:1;marker-start:none;marker-end:none"
       d="m 140.92137,193.27753 c 0.2965,-0.2247 0.51745,-0.53173 0.754,-0.81888 0.23655,-0.28714 0.50461,-0.56666 0.85045,-0.70377 0.27839,-0.11037 0.59066,-0.11942 0.88375,-0.058 0.29309,0.0615 0.56859,0.19061 0.82332,0.34806 0.50948,0.3149 0.9425,0.74309 1.45751,1.04885 0.2575,0.15288 0.5368,0.27477 0.83189,0.32573 0.2951,0.051 0.60743,0.0279 0.87951,-0.0972 0.27209,-0.1251 0.49961,-0.35795 0.58829,-0.64399 0.0443,-0.14301 0.0537,-0.29728 0.0228,-0.44379 -0.0309,-0.1465 -0.10251,-0.28479 -0.20737,-0.39168 -0.13154,-0.13409 -0.30882,-0.21431 -0.48885,-0.26789 -0.18004,-0.0536 -0.36635,-0.0834 -0.54732,-0.13372 -0.47986,-0.13346 -0.90925,-0.40764 -1.29866,-0.71818 -0.38941,-0.31054 -0.7461,-0.66025 -1.13302,-0.97388 -0.86941,-0.70472 -1.91639,-1.22905 -3.03168,-1.32199 -0.55764,-0.0465 -1.12662,0.0165 -1.65307,0.20619 -0.52645,0.18967 -1.00912,0.50783 -1.37362,0.93241 -0.36449,0.42458 -0.60763,0.95639 -0.66749,1.51275 -0.0598,0.55637 0.0677,1.13485 0.37516,1.6024 0.30744,0.46754 0.79613,0.81733 1.34299,0.93597 0.54685,0.11863 1.14544,-0.001 1.59142,-0.33941 z"
       id="path917-5"
       inkscape:path-effect="#path-effect1249"
       inkscape:original-d="m 140.92137,193.27753 c -3.74748,0.0928 1.13076,-2.37978 1.60445,-1.52265 1.31825,2.38542 4.21821,2.85965 5.27969,0.088 0.30584,-0.7986 -0.96887,0.4509 -1.03617,-0.40161 -0.10634,-1.34696 -1.6808,-1.7804 -2.43168,-1.69206 -0.45069,0.0777 -1.57473,3.38406 -3.41629,3.52832 z"
       sodipodi:nodetypes="cssscc" />
    <path
       style="fill:none;fill-opacity:1;stroke:#000000;stroke-width:0.264583;stroke-linecap:butt;stroke-linejoin:miter;stroke-dasharray:none;stroke-opacity:1;marker-start:none;marker-end:none"
       d="m 127.95355,185.72192 c 0.0117,0.16193 0.0673,0.31929 0.15147,0.45811 0.0842,0.13883 0.1963,0.25957 0.32227,0.36199 0.25192,0.20483 0.55489,0.33527 0.85567,0.45757 0.8526,0.34669 1.73513,0.65174 2.65248,0.72652 0.91735,0.0748 1.88124,-0.0994 2.62722,-0.63852 0.20868,-0.15081 0.39893,-0.32922 0.54973,-0.5379 0.15081,-0.20868 0.2615,-0.44837 0.30664,-0.70185 0.0451,-0.25348 0.023,-0.52082 -0.0781,-0.7576 -0.10112,-0.23678 -0.2832,-0.4409 -0.51425,-0.55451 -0.19169,-0.0943 -0.41062,-0.12462 -0.6238,-0.11104 -0.21318,0.0136 -0.42169,0.0695 -0.62314,0.14054 -0.40291,0.1421 -0.78849,0.34693 -1.21065,0.41256 -0.42426,0.066 -0.85773,-0.0136 -1.27246,-0.12469 -0.41474,-0.11111 -0.82252,-0.25434 -1.2469,-0.31949 -0.42439,-0.0652 -0.87671,-0.0464 -1.25705,0.15286 -0.19017,0.0996 -0.35864,0.24386 -0.47518,0.42415 -0.11654,0.18029 -0.17935,0.39718 -0.16392,0.6113 z"
       id="path917-0"
       inkscape:path-effect="#path-effect1262"
       inkscape:original-d="m 127.95355,185.72192 c 0.47801,1.91797 0.85573,0.42054 1.32941,1.27767 1.31826,2.38542 4.21822,2.85965 5.2797,0.088 0.30585,-0.7986 0.33129,-1.69935 0.26399,-2.55186 -0.10634,-1.34696 -1.7067,0.35372 -2.45759,0.44206 -0.45069,0.0777 -4.54918,0.27482 -4.41551,0.74413 z"
       sodipodi:nodetypes="cssscc" />
    <path
       style="fill:none;fill-opacity:1;stroke:#000000;stroke-width:0.264583;stroke-linecap:butt;stroke-linejoin:miter;stroke-dasharray:none;stroke-opacity:1;marker-start:none;marker-end:none"
       d="m 119.39706,208.39183 c -0.11876,0.25762 -0.14748,0.55318 -0.0962,0.8322 0.0513,0.27901 0.1804,0.54128 0.35783,0.76262 0.35487,0.44268 0.88804,0.71196 1.4355,0.86089 1.14928,0.31264 2.37721,0.14229 3.5261,-0.1718 0.55531,-0.15181 1.1195,-0.34685 1.54384,-0.73589 0.21216,-0.19452 0.38459,-0.43648 0.47617,-0.70936 0.0916,-0.27289 0.0988,-0.57736 -0.002,-0.84681 -0.11139,-0.29641 -0.34818,-0.53605 -0.62644,-0.68718 -0.27825,-0.15113 -0.59583,-0.21901 -0.91199,-0.23658 -0.63232,-0.0351 -1.26013,0.12337 -1.89337,0.1318 -0.69285,0.009 -1.37999,-0.16127 -2.07247,-0.137 -0.34624,0.0121 -0.69506,0.0747 -1.00677,0.22591 -0.31171,0.15122 -0.5847,0.39657 -0.72974,0.7112 z"
       id="path917-2"
       inkscape:path-effect="#path-effect1275"
       inkscape:original-d="m 119.39706,208.39183 c -0.55276,0.0551 1.22342,1.59857 1.6971,2.45571 1.31826,2.38542 2.46462,2.59986 3.5261,-0.1718 0.30585,-0.79859 2.08488,-1.43955 2.01758,-2.29206 -0.10634,-1.34697 -2.68092,-0.88029 -3.4318,-0.79196 -0.4507,0.0777 -0.59743,0.34083 -3.80898,0.80011 z"
       sodipodi:nodetypes="cssscc" />
    <path
       style="fill:none;fill-opacity:1;stroke:#000000;stroke-width:0.264583;stroke-linecap:butt;stroke-linejoin:miter;stroke-dasharray:none;stroke-opacity:1;marker-start:none;marker-end:none"
       d="m 114.83611,194.88781 c -0.32634,0.0906 -0.62211,0.28792 -0.83107,0.55445 -0.20896,0.26653 -0.33,0.60085 -0.3401,0.93938 -0.009,0.28959 0.0629,0.58015 0.19769,0.83658 0.13484,0.25643 0.33212,0.4787 0.56595,0.64975 0.46767,0.3421 1.07243,0.47112 1.64883,0.41184 0.57639,-0.0593 1.12507,-0.29686 1.6028,-0.62476 0.47773,-0.32791 0.88883,-0.74419 1.26443,-1.18541 0.64738,-0.76048 1.21539,-1.65084 1.29586,-2.6463 0.0402,-0.49774 -0.0484,-1.0114 -0.29243,-1.44706 -0.24406,-0.43565 -0.64961,-0.78715 -1.12913,-0.92651 -0.29801,-0.0866 -0.61744,-0.0909 -0.92148,-0.0286 -0.30404,0.0622 -0.59293,0.18971 -0.85349,0.3583 -0.52111,0.33717 -0.92247,0.83022 -1.26715,1.3464 -0.37033,0.55459 -0.68592,1.14571 -0.94071,1.76198 z"
       id="path917-06"
       inkscape:path-effect="#path-effect1288"
       inkscape:original-d="m 114.83611,194.88781 c -0.29708,0.34279 -1.64485,0.6367 -1.17117,1.49383 1.31826,2.38542 4.21822,2.85965 5.2797,0.088 0.30584,-0.79859 -0.0584,-4.16737 -0.1257,-5.01987 -0.10634,-1.34697 -2.29123,1.58772 -3.04212,1.67606 -0.45069,0.0777 -1.07438,1.29268 -0.94071,1.76198 z"
       sodipodi:nodetypes="cssscc" />
    <path
       style="fill:none;fill-opacity:1;stroke:#000000;stroke-width:0.264583;stroke-linecap:butt;stroke-linejoin:miter;stroke-miterlimit:4;stroke-dasharray:none;stroke-opacity:1;marker-start:none;marker-end:url(#marker-arrow-1)"
       d="m 148.5907,188.81265 8.05057,-4.81243"
       id="path2015"
       sodipodi:nodetypes="cc" />
    <text
       xml:space="preserve"
       style="font-size:5.64444px;line-height:1.25;font-family:sans-serif;letter-spacing:0px;stroke-width:0.264583"
       x="158.07707"
       y="184.90027"
       id="text2394"><tspan
         sodipodi:role="line"
         id="tspan2392"
         style="stroke-width:0.264583"
         x="158.07707"
         y="184.90027">\(\log(n)\)</tspan></text>
  </g>
</svg>
